%TF.GenerationSoftware,KiCad,Pcbnew,10.0.5*%
%TF.CreationDate,2026-09-02T14:04:49-07:00*%
%TF.ProjectId,pcb-03,7063622d-3033-42e6-9b69-6361645f7063,rev?*%
%TF.SameCoordinates,Original*%
%TF.FileFunction,Drillmap*%
%TF.FilePolarity,Positive*%
%FSLAX45Y45*%
G04 Gerber Fmt 4.5, Leading zero omitted, Abs format (unit mm)*
G04 Created by KiCad (PCBNEW 10.0.5) date 2026-09-02 14:04:49*
%MOMM*%
%LPD*%
G01*
G04 APERTURE LIST*
%ADD10C,0.050000*%
%ADD11C,0.200000*%
%ADD12C,0.100000*%
%ADD13C,0.220000*%
G04 APERTURE END LIST*
D10*
X5000000Y-5450000D02*
X8975000Y-5450000D01*
X5000000Y-7550000D02*
X5000000Y-5450000D01*
X8975000Y-5450000D02*
X8975000Y-7550000D01*
X8975000Y-7550000D02*
X5000000Y-7550000D01*
D11*
D12*
X5910000Y-6785000D02*
X5940000Y-6815000D01*
X5940000Y-6785000D02*
X5910000Y-6815000D01*
X5935000Y-6135000D02*
X5965000Y-6165000D01*
X5965000Y-6135000D02*
X5935000Y-6165000D01*
X5985000Y-6585000D02*
X6015000Y-6615000D01*
X6015000Y-6585000D02*
X5985000Y-6615000D01*
X6435000Y-6385000D02*
X6465000Y-6415000D01*
X6465000Y-6385000D02*
X6435000Y-6415000D01*
X6660000Y-6235000D02*
X6690000Y-6265000D01*
X6690000Y-6235000D02*
X6660000Y-6265000D01*
X6660000Y-6472500D02*
X6690000Y-6502500D01*
X6690000Y-6472500D02*
X6660000Y-6502500D01*
X6660000Y-6552500D02*
X6690000Y-6582500D01*
X6690000Y-6552500D02*
X6660000Y-6582500D01*
X7485000Y-6234000D02*
X7515000Y-6264000D01*
X7515000Y-6234000D02*
X7485000Y-6264000D01*
X7485000Y-6361000D02*
X7515000Y-6391000D01*
X7515000Y-6361000D02*
X7485000Y-6391000D01*
X7485000Y-6560000D02*
X7515000Y-6590000D01*
X7515000Y-6560000D02*
X7485000Y-6590000D01*
X7810000Y-5985000D02*
X7840000Y-6015000D01*
X7840000Y-5985000D02*
X7810000Y-6015000D01*
X7985000Y-6658000D02*
X8015000Y-6688000D01*
X8015000Y-6658000D02*
X7985000Y-6688000D01*
X8385000Y-6985000D02*
X8415000Y-7015000D01*
X8415000Y-6985000D02*
X8385000Y-7015000D01*
X5787500Y-6200000D02*
G75*
G02*
X5712500Y-6200000I-37500J0D01*
G01*
X5712500Y-6200000D02*
G75*
G02*
X5787500Y-6200000I37500J0D01*
G01*
X5787500Y-6400000D02*
G75*
G02*
X5712500Y-6400000I-37500J0D01*
G01*
X5712500Y-6400000D02*
G75*
G02*
X5787500Y-6400000I37500J0D01*
G01*
X5787500Y-6600000D02*
G75*
G02*
X5712500Y-6600000I-37500J0D01*
G01*
X5712500Y-6600000D02*
G75*
G02*
X5787500Y-6600000I37500J0D01*
G01*
X5787500Y-6800000D02*
G75*
G02*
X5712500Y-6800000I-37500J0D01*
G01*
X5712500Y-6800000D02*
G75*
G02*
X5787500Y-6800000I37500J0D01*
G01*
X8262500Y-5800000D02*
G75*
G02*
X8187500Y-5800000I-37500J0D01*
G01*
X8187500Y-5800000D02*
G75*
G02*
X8262500Y-5800000I37500J0D01*
G01*
X8262500Y-6000000D02*
G75*
G02*
X8187500Y-6000000I-37500J0D01*
G01*
X8187500Y-6000000D02*
G75*
G02*
X8262500Y-6000000I37500J0D01*
G01*
X8262500Y-6200000D02*
G75*
G02*
X8187500Y-6200000I-37500J0D01*
G01*
X8187500Y-6200000D02*
G75*
G02*
X8262500Y-6200000I37500J0D01*
G01*
X8262500Y-6400000D02*
G75*
G02*
X8187500Y-6400000I-37500J0D01*
G01*
X8187500Y-6400000D02*
G75*
G02*
X8262500Y-6400000I37500J0D01*
G01*
X8262500Y-6600000D02*
G75*
G02*
X8187500Y-6600000I-37500J0D01*
G01*
X8187500Y-6600000D02*
G75*
G02*
X8262500Y-6600000I37500J0D01*
G01*
X8262500Y-6800000D02*
G75*
G02*
X8187500Y-6800000I-37500J0D01*
G01*
X8187500Y-6800000D02*
G75*
G02*
X8262500Y-6800000I37500J0D01*
G01*
X8262500Y-7000000D02*
G75*
G02*
X8187500Y-7000000I-37500J0D01*
G01*
X8187500Y-7000000D02*
G75*
G02*
X8262500Y-7000000I37500J0D01*
G01*
X8262500Y-7200000D02*
G75*
G02*
X8187500Y-7200000I-37500J0D01*
G01*
X8187500Y-7200000D02*
G75*
G02*
X8262500Y-7200000I37500J0D01*
G01*
D13*
X6175000Y-5665000D02*
X6175000Y-5885000D01*
X6065000Y-5775000D02*
X6285000Y-5775000D01*
X7475000Y-7090000D02*
X7475000Y-7310000D01*
X7365000Y-7200000D02*
X7585000Y-7200000D01*
D11*
X5258277Y-7863984D02*
X5258277Y-7663984D01*
X5258277Y-7663984D02*
X5305896Y-7663984D01*
X5305896Y-7663984D02*
X5334467Y-7673508D01*
X5334467Y-7673508D02*
X5353515Y-7692555D01*
X5353515Y-7692555D02*
X5363039Y-7711603D01*
X5363039Y-7711603D02*
X5372563Y-7749698D01*
X5372563Y-7749698D02*
X5372563Y-7778269D01*
X5372563Y-7778269D02*
X5363039Y-7816365D01*
X5363039Y-7816365D02*
X5353515Y-7835412D01*
X5353515Y-7835412D02*
X5334467Y-7854460D01*
X5334467Y-7854460D02*
X5305896Y-7863984D01*
X5305896Y-7863984D02*
X5258277Y-7863984D01*
X5458277Y-7863984D02*
X5458277Y-7730650D01*
X5458277Y-7768746D02*
X5467801Y-7749698D01*
X5467801Y-7749698D02*
X5477324Y-7740174D01*
X5477324Y-7740174D02*
X5496372Y-7730650D01*
X5496372Y-7730650D02*
X5515420Y-7730650D01*
X5582086Y-7863984D02*
X5582086Y-7730650D01*
X5582086Y-7663984D02*
X5572563Y-7673508D01*
X5572563Y-7673508D02*
X5582086Y-7683031D01*
X5582086Y-7683031D02*
X5591610Y-7673508D01*
X5591610Y-7673508D02*
X5582086Y-7663984D01*
X5582086Y-7663984D02*
X5582086Y-7683031D01*
X5705896Y-7863984D02*
X5686848Y-7854460D01*
X5686848Y-7854460D02*
X5677324Y-7835412D01*
X5677324Y-7835412D02*
X5677324Y-7663984D01*
X5810658Y-7863984D02*
X5791610Y-7854460D01*
X5791610Y-7854460D02*
X5782086Y-7835412D01*
X5782086Y-7835412D02*
X5782086Y-7663984D01*
X6039229Y-7863984D02*
X6039229Y-7663984D01*
X6039229Y-7663984D02*
X6105896Y-7806841D01*
X6105896Y-7806841D02*
X6172562Y-7663984D01*
X6172562Y-7663984D02*
X6172562Y-7863984D01*
X6353515Y-7863984D02*
X6353515Y-7759222D01*
X6353515Y-7759222D02*
X6343991Y-7740174D01*
X6343991Y-7740174D02*
X6324943Y-7730650D01*
X6324943Y-7730650D02*
X6286848Y-7730650D01*
X6286848Y-7730650D02*
X6267801Y-7740174D01*
X6353515Y-7854460D02*
X6334467Y-7863984D01*
X6334467Y-7863984D02*
X6286848Y-7863984D01*
X6286848Y-7863984D02*
X6267801Y-7854460D01*
X6267801Y-7854460D02*
X6258277Y-7835412D01*
X6258277Y-7835412D02*
X6258277Y-7816365D01*
X6258277Y-7816365D02*
X6267801Y-7797317D01*
X6267801Y-7797317D02*
X6286848Y-7787793D01*
X6286848Y-7787793D02*
X6334467Y-7787793D01*
X6334467Y-7787793D02*
X6353515Y-7778269D01*
X6448753Y-7730650D02*
X6448753Y-7930650D01*
X6448753Y-7740174D02*
X6467801Y-7730650D01*
X6467801Y-7730650D02*
X6505896Y-7730650D01*
X6505896Y-7730650D02*
X6524943Y-7740174D01*
X6524943Y-7740174D02*
X6534467Y-7749698D01*
X6534467Y-7749698D02*
X6543991Y-7768746D01*
X6543991Y-7768746D02*
X6543991Y-7825888D01*
X6543991Y-7825888D02*
X6534467Y-7844936D01*
X6534467Y-7844936D02*
X6524943Y-7854460D01*
X6524943Y-7854460D02*
X6505896Y-7863984D01*
X6505896Y-7863984D02*
X6467801Y-7863984D01*
X6467801Y-7863984D02*
X6448753Y-7854460D01*
X6629705Y-7844936D02*
X6639229Y-7854460D01*
X6639229Y-7854460D02*
X6629705Y-7863984D01*
X6629705Y-7863984D02*
X6620182Y-7854460D01*
X6620182Y-7854460D02*
X6629705Y-7844936D01*
X6629705Y-7844936D02*
X6629705Y-7863984D01*
X6629705Y-7740174D02*
X6639229Y-7749698D01*
X6639229Y-7749698D02*
X6629705Y-7759222D01*
X6629705Y-7759222D02*
X6620182Y-7749698D01*
X6620182Y-7749698D02*
X6629705Y-7740174D01*
X6629705Y-7740174D02*
X6629705Y-7759222D01*
D12*
X4967500Y-8177500D02*
X4997500Y-8207500D01*
X4997500Y-8177500D02*
X4967500Y-8207500D01*
D11*
X5296372Y-8083984D02*
X5315420Y-8083984D01*
X5315420Y-8083984D02*
X5334467Y-8093508D01*
X5334467Y-8093508D02*
X5343991Y-8103031D01*
X5343991Y-8103031D02*
X5353515Y-8122079D01*
X5353515Y-8122079D02*
X5363039Y-8160174D01*
X5363039Y-8160174D02*
X5363039Y-8207793D01*
X5363039Y-8207793D02*
X5353515Y-8245888D01*
X5353515Y-8245888D02*
X5343991Y-8264936D01*
X5343991Y-8264936D02*
X5334467Y-8274460D01*
X5334467Y-8274460D02*
X5315420Y-8283984D01*
X5315420Y-8283984D02*
X5296372Y-8283984D01*
X5296372Y-8283984D02*
X5277324Y-8274460D01*
X5277324Y-8274460D02*
X5267801Y-8264936D01*
X5267801Y-8264936D02*
X5258277Y-8245888D01*
X5258277Y-8245888D02*
X5248753Y-8207793D01*
X5248753Y-8207793D02*
X5248753Y-8160174D01*
X5248753Y-8160174D02*
X5258277Y-8122079D01*
X5258277Y-8122079D02*
X5267801Y-8103031D01*
X5267801Y-8103031D02*
X5277324Y-8093508D01*
X5277324Y-8093508D02*
X5296372Y-8083984D01*
X5448753Y-8264936D02*
X5458277Y-8274460D01*
X5458277Y-8274460D02*
X5448753Y-8283984D01*
X5448753Y-8283984D02*
X5439229Y-8274460D01*
X5439229Y-8274460D02*
X5448753Y-8264936D01*
X5448753Y-8264936D02*
X5448753Y-8283984D01*
X5524944Y-8083984D02*
X5648753Y-8083984D01*
X5648753Y-8083984D02*
X5582086Y-8160174D01*
X5582086Y-8160174D02*
X5610658Y-8160174D01*
X5610658Y-8160174D02*
X5629705Y-8169698D01*
X5629705Y-8169698D02*
X5639229Y-8179222D01*
X5639229Y-8179222D02*
X5648753Y-8198269D01*
X5648753Y-8198269D02*
X5648753Y-8245888D01*
X5648753Y-8245888D02*
X5639229Y-8264936D01*
X5639229Y-8264936D02*
X5629705Y-8274460D01*
X5629705Y-8274460D02*
X5610658Y-8283984D01*
X5610658Y-8283984D02*
X5553515Y-8283984D01*
X5553515Y-8283984D02*
X5534467Y-8274460D01*
X5534467Y-8274460D02*
X5524944Y-8264936D01*
X5772562Y-8083984D02*
X5791610Y-8083984D01*
X5791610Y-8083984D02*
X5810658Y-8093508D01*
X5810658Y-8093508D02*
X5820182Y-8103031D01*
X5820182Y-8103031D02*
X5829705Y-8122079D01*
X5829705Y-8122079D02*
X5839229Y-8160174D01*
X5839229Y-8160174D02*
X5839229Y-8207793D01*
X5839229Y-8207793D02*
X5829705Y-8245888D01*
X5829705Y-8245888D02*
X5820182Y-8264936D01*
X5820182Y-8264936D02*
X5810658Y-8274460D01*
X5810658Y-8274460D02*
X5791610Y-8283984D01*
X5791610Y-8283984D02*
X5772562Y-8283984D01*
X5772562Y-8283984D02*
X5753515Y-8274460D01*
X5753515Y-8274460D02*
X5743991Y-8264936D01*
X5743991Y-8264936D02*
X5734467Y-8245888D01*
X5734467Y-8245888D02*
X5724943Y-8207793D01*
X5724943Y-8207793D02*
X5724943Y-8160174D01*
X5724943Y-8160174D02*
X5734467Y-8122079D01*
X5734467Y-8122079D02*
X5743991Y-8103031D01*
X5743991Y-8103031D02*
X5753515Y-8093508D01*
X5753515Y-8093508D02*
X5772562Y-8083984D01*
X5963039Y-8083984D02*
X5982086Y-8083984D01*
X5982086Y-8083984D02*
X6001134Y-8093508D01*
X6001134Y-8093508D02*
X6010658Y-8103031D01*
X6010658Y-8103031D02*
X6020182Y-8122079D01*
X6020182Y-8122079D02*
X6029705Y-8160174D01*
X6029705Y-8160174D02*
X6029705Y-8207793D01*
X6029705Y-8207793D02*
X6020182Y-8245888D01*
X6020182Y-8245888D02*
X6010658Y-8264936D01*
X6010658Y-8264936D02*
X6001134Y-8274460D01*
X6001134Y-8274460D02*
X5982086Y-8283984D01*
X5982086Y-8283984D02*
X5963039Y-8283984D01*
X5963039Y-8283984D02*
X5943991Y-8274460D01*
X5943991Y-8274460D02*
X5934467Y-8264936D01*
X5934467Y-8264936D02*
X5924943Y-8245888D01*
X5924943Y-8245888D02*
X5915420Y-8207793D01*
X5915420Y-8207793D02*
X5915420Y-8160174D01*
X5915420Y-8160174D02*
X5924943Y-8122079D01*
X5924943Y-8122079D02*
X5934467Y-8103031D01*
X5934467Y-8103031D02*
X5943991Y-8093508D01*
X5943991Y-8093508D02*
X5963039Y-8083984D01*
X6115420Y-8283984D02*
X6115420Y-8150650D01*
X6115420Y-8169698D02*
X6124943Y-8160174D01*
X6124943Y-8160174D02*
X6143991Y-8150650D01*
X6143991Y-8150650D02*
X6172563Y-8150650D01*
X6172563Y-8150650D02*
X6191610Y-8160174D01*
X6191610Y-8160174D02*
X6201134Y-8179222D01*
X6201134Y-8179222D02*
X6201134Y-8283984D01*
X6201134Y-8179222D02*
X6210658Y-8160174D01*
X6210658Y-8160174D02*
X6229705Y-8150650D01*
X6229705Y-8150650D02*
X6258277Y-8150650D01*
X6258277Y-8150650D02*
X6277324Y-8160174D01*
X6277324Y-8160174D02*
X6286848Y-8179222D01*
X6286848Y-8179222D02*
X6286848Y-8283984D01*
X6382086Y-8283984D02*
X6382086Y-8150650D01*
X6382086Y-8169698D02*
X6391610Y-8160174D01*
X6391610Y-8160174D02*
X6410658Y-8150650D01*
X6410658Y-8150650D02*
X6439229Y-8150650D01*
X6439229Y-8150650D02*
X6458277Y-8160174D01*
X6458277Y-8160174D02*
X6467801Y-8179222D01*
X6467801Y-8179222D02*
X6467801Y-8283984D01*
X6467801Y-8179222D02*
X6477324Y-8160174D01*
X6477324Y-8160174D02*
X6496372Y-8150650D01*
X6496372Y-8150650D02*
X6524943Y-8150650D01*
X6524943Y-8150650D02*
X6543991Y-8160174D01*
X6543991Y-8160174D02*
X6553515Y-8179222D01*
X6553515Y-8179222D02*
X6553515Y-8283984D01*
X6943991Y-8074460D02*
X6772563Y-8331603D01*
X7201134Y-8083984D02*
X7220182Y-8083984D01*
X7220182Y-8083984D02*
X7239229Y-8093508D01*
X7239229Y-8093508D02*
X7248753Y-8103031D01*
X7248753Y-8103031D02*
X7258277Y-8122079D01*
X7258277Y-8122079D02*
X7267801Y-8160174D01*
X7267801Y-8160174D02*
X7267801Y-8207793D01*
X7267801Y-8207793D02*
X7258277Y-8245888D01*
X7258277Y-8245888D02*
X7248753Y-8264936D01*
X7248753Y-8264936D02*
X7239229Y-8274460D01*
X7239229Y-8274460D02*
X7220182Y-8283984D01*
X7220182Y-8283984D02*
X7201134Y-8283984D01*
X7201134Y-8283984D02*
X7182086Y-8274460D01*
X7182086Y-8274460D02*
X7172563Y-8264936D01*
X7172563Y-8264936D02*
X7163039Y-8245888D01*
X7163039Y-8245888D02*
X7153515Y-8207793D01*
X7153515Y-8207793D02*
X7153515Y-8160174D01*
X7153515Y-8160174D02*
X7163039Y-8122079D01*
X7163039Y-8122079D02*
X7172563Y-8103031D01*
X7172563Y-8103031D02*
X7182086Y-8093508D01*
X7182086Y-8093508D02*
X7201134Y-8083984D01*
X7353515Y-8264936D02*
X7363039Y-8274460D01*
X7363039Y-8274460D02*
X7353515Y-8283984D01*
X7353515Y-8283984D02*
X7343991Y-8274460D01*
X7343991Y-8274460D02*
X7353515Y-8264936D01*
X7353515Y-8264936D02*
X7353515Y-8283984D01*
X7486848Y-8083984D02*
X7505896Y-8083984D01*
X7505896Y-8083984D02*
X7524944Y-8093508D01*
X7524944Y-8093508D02*
X7534467Y-8103031D01*
X7534467Y-8103031D02*
X7543991Y-8122079D01*
X7543991Y-8122079D02*
X7553515Y-8160174D01*
X7553515Y-8160174D02*
X7553515Y-8207793D01*
X7553515Y-8207793D02*
X7543991Y-8245888D01*
X7543991Y-8245888D02*
X7534467Y-8264936D01*
X7534467Y-8264936D02*
X7524944Y-8274460D01*
X7524944Y-8274460D02*
X7505896Y-8283984D01*
X7505896Y-8283984D02*
X7486848Y-8283984D01*
X7486848Y-8283984D02*
X7467801Y-8274460D01*
X7467801Y-8274460D02*
X7458277Y-8264936D01*
X7458277Y-8264936D02*
X7448753Y-8245888D01*
X7448753Y-8245888D02*
X7439229Y-8207793D01*
X7439229Y-8207793D02*
X7439229Y-8160174D01*
X7439229Y-8160174D02*
X7448753Y-8122079D01*
X7448753Y-8122079D02*
X7458277Y-8103031D01*
X7458277Y-8103031D02*
X7467801Y-8093508D01*
X7467801Y-8093508D02*
X7486848Y-8083984D01*
X7743991Y-8283984D02*
X7629706Y-8283984D01*
X7686848Y-8283984D02*
X7686848Y-8083984D01*
X7686848Y-8083984D02*
X7667801Y-8112555D01*
X7667801Y-8112555D02*
X7648753Y-8131603D01*
X7648753Y-8131603D02*
X7629706Y-8141127D01*
X7934467Y-8283984D02*
X7820182Y-8283984D01*
X7877325Y-8283984D02*
X7877325Y-8083984D01*
X7877325Y-8083984D02*
X7858277Y-8112555D01*
X7858277Y-8112555D02*
X7839229Y-8131603D01*
X7839229Y-8131603D02*
X7820182Y-8141127D01*
X8048753Y-8169698D02*
X8029706Y-8160174D01*
X8029706Y-8160174D02*
X8020182Y-8150650D01*
X8020182Y-8150650D02*
X8010658Y-8131603D01*
X8010658Y-8131603D02*
X8010658Y-8122079D01*
X8010658Y-8122079D02*
X8020182Y-8103031D01*
X8020182Y-8103031D02*
X8029706Y-8093508D01*
X8029706Y-8093508D02*
X8048753Y-8083984D01*
X8048753Y-8083984D02*
X8086848Y-8083984D01*
X8086848Y-8083984D02*
X8105896Y-8093508D01*
X8105896Y-8093508D02*
X8115420Y-8103031D01*
X8115420Y-8103031D02*
X8124944Y-8122079D01*
X8124944Y-8122079D02*
X8124944Y-8131603D01*
X8124944Y-8131603D02*
X8115420Y-8150650D01*
X8115420Y-8150650D02*
X8105896Y-8160174D01*
X8105896Y-8160174D02*
X8086848Y-8169698D01*
X8086848Y-8169698D02*
X8048753Y-8169698D01*
X8048753Y-8169698D02*
X8029706Y-8179222D01*
X8029706Y-8179222D02*
X8020182Y-8188746D01*
X8020182Y-8188746D02*
X8010658Y-8207793D01*
X8010658Y-8207793D02*
X8010658Y-8245888D01*
X8010658Y-8245888D02*
X8020182Y-8264936D01*
X8020182Y-8264936D02*
X8029706Y-8274460D01*
X8029706Y-8274460D02*
X8048753Y-8283984D01*
X8048753Y-8283984D02*
X8086848Y-8283984D01*
X8086848Y-8283984D02*
X8105896Y-8274460D01*
X8105896Y-8274460D02*
X8115420Y-8264936D01*
X8115420Y-8264936D02*
X8124944Y-8245888D01*
X8124944Y-8245888D02*
X8124944Y-8207793D01*
X8124944Y-8207793D02*
X8115420Y-8188746D01*
X8115420Y-8188746D02*
X8105896Y-8179222D01*
X8105896Y-8179222D02*
X8086848Y-8169698D01*
X8201134Y-8083984D02*
X8201134Y-8122079D01*
X8277325Y-8083984D02*
X8277325Y-8122079D01*
X8572563Y-8360174D02*
X8563039Y-8350650D01*
X8563039Y-8350650D02*
X8543991Y-8322079D01*
X8543991Y-8322079D02*
X8534468Y-8303031D01*
X8534468Y-8303031D02*
X8524944Y-8274460D01*
X8524944Y-8274460D02*
X8515420Y-8226841D01*
X8515420Y-8226841D02*
X8515420Y-8188746D01*
X8515420Y-8188746D02*
X8524944Y-8141127D01*
X8524944Y-8141127D02*
X8534468Y-8112555D01*
X8534468Y-8112555D02*
X8543991Y-8093508D01*
X8543991Y-8093508D02*
X8563039Y-8064936D01*
X8563039Y-8064936D02*
X8572563Y-8055412D01*
X8753515Y-8283984D02*
X8639230Y-8283984D01*
X8696372Y-8283984D02*
X8696372Y-8083984D01*
X8696372Y-8083984D02*
X8677325Y-8112555D01*
X8677325Y-8112555D02*
X8658277Y-8131603D01*
X8658277Y-8131603D02*
X8639230Y-8141127D01*
X8820182Y-8083984D02*
X8943991Y-8083984D01*
X8943991Y-8083984D02*
X8877325Y-8160174D01*
X8877325Y-8160174D02*
X8905896Y-8160174D01*
X8905896Y-8160174D02*
X8924944Y-8169698D01*
X8924944Y-8169698D02*
X8934468Y-8179222D01*
X8934468Y-8179222D02*
X8943991Y-8198269D01*
X8943991Y-8198269D02*
X8943991Y-8245888D01*
X8943991Y-8245888D02*
X8934468Y-8264936D01*
X8934468Y-8264936D02*
X8924944Y-8274460D01*
X8924944Y-8274460D02*
X8905896Y-8283984D01*
X8905896Y-8283984D02*
X8848753Y-8283984D01*
X8848753Y-8283984D02*
X8829706Y-8274460D01*
X8829706Y-8274460D02*
X8820182Y-8264936D01*
X9182087Y-8283984D02*
X9182087Y-8083984D01*
X9267801Y-8283984D02*
X9267801Y-8179222D01*
X9267801Y-8179222D02*
X9258277Y-8160174D01*
X9258277Y-8160174D02*
X9239230Y-8150650D01*
X9239230Y-8150650D02*
X9210658Y-8150650D01*
X9210658Y-8150650D02*
X9191611Y-8160174D01*
X9191611Y-8160174D02*
X9182087Y-8169698D01*
X9391611Y-8283984D02*
X9372563Y-8274460D01*
X9372563Y-8274460D02*
X9363039Y-8264936D01*
X9363039Y-8264936D02*
X9353515Y-8245888D01*
X9353515Y-8245888D02*
X9353515Y-8188746D01*
X9353515Y-8188746D02*
X9363039Y-8169698D01*
X9363039Y-8169698D02*
X9372563Y-8160174D01*
X9372563Y-8160174D02*
X9391611Y-8150650D01*
X9391611Y-8150650D02*
X9420182Y-8150650D01*
X9420182Y-8150650D02*
X9439230Y-8160174D01*
X9439230Y-8160174D02*
X9448753Y-8169698D01*
X9448753Y-8169698D02*
X9458277Y-8188746D01*
X9458277Y-8188746D02*
X9458277Y-8245888D01*
X9458277Y-8245888D02*
X9448753Y-8264936D01*
X9448753Y-8264936D02*
X9439230Y-8274460D01*
X9439230Y-8274460D02*
X9420182Y-8283984D01*
X9420182Y-8283984D02*
X9391611Y-8283984D01*
X9572563Y-8283984D02*
X9553515Y-8274460D01*
X9553515Y-8274460D02*
X9543992Y-8255412D01*
X9543992Y-8255412D02*
X9543992Y-8083984D01*
X9724944Y-8274460D02*
X9705896Y-8283984D01*
X9705896Y-8283984D02*
X9667801Y-8283984D01*
X9667801Y-8283984D02*
X9648753Y-8274460D01*
X9648753Y-8274460D02*
X9639230Y-8255412D01*
X9639230Y-8255412D02*
X9639230Y-8179222D01*
X9639230Y-8179222D02*
X9648753Y-8160174D01*
X9648753Y-8160174D02*
X9667801Y-8150650D01*
X9667801Y-8150650D02*
X9705896Y-8150650D01*
X9705896Y-8150650D02*
X9724944Y-8160174D01*
X9724944Y-8160174D02*
X9734468Y-8179222D01*
X9734468Y-8179222D02*
X9734468Y-8198269D01*
X9734468Y-8198269D02*
X9639230Y-8217317D01*
X9810658Y-8274460D02*
X9829706Y-8283984D01*
X9829706Y-8283984D02*
X9867801Y-8283984D01*
X9867801Y-8283984D02*
X9886849Y-8274460D01*
X9886849Y-8274460D02*
X9896373Y-8255412D01*
X9896373Y-8255412D02*
X9896373Y-8245888D01*
X9896373Y-8245888D02*
X9886849Y-8226841D01*
X9886849Y-8226841D02*
X9867801Y-8217317D01*
X9867801Y-8217317D02*
X9839230Y-8217317D01*
X9839230Y-8217317D02*
X9820182Y-8207793D01*
X9820182Y-8207793D02*
X9810658Y-8188746D01*
X9810658Y-8188746D02*
X9810658Y-8179222D01*
X9810658Y-8179222D02*
X9820182Y-8160174D01*
X9820182Y-8160174D02*
X9839230Y-8150650D01*
X9839230Y-8150650D02*
X9867801Y-8150650D01*
X9867801Y-8150650D02*
X9886849Y-8160174D01*
X9963039Y-8360174D02*
X9972563Y-8350650D01*
X9972563Y-8350650D02*
X9991611Y-8322079D01*
X9991611Y-8322079D02*
X10001134Y-8303031D01*
X10001134Y-8303031D02*
X10010658Y-8274460D01*
X10010658Y-8274460D02*
X10020182Y-8226841D01*
X10020182Y-8226841D02*
X10020182Y-8188746D01*
X10020182Y-8188746D02*
X10010658Y-8141127D01*
X10010658Y-8141127D02*
X10001134Y-8112555D01*
X10001134Y-8112555D02*
X9991611Y-8093508D01*
X9991611Y-8093508D02*
X9972563Y-8064936D01*
X9972563Y-8064936D02*
X9963039Y-8055412D01*
D12*
X4997500Y-8456500D02*
G75*
G02*
X4922500Y-8456500I-37500J0D01*
G01*
X4922500Y-8456500D02*
G75*
G02*
X4997500Y-8456500I37500J0D01*
G01*
D11*
X5296372Y-8347984D02*
X5315420Y-8347984D01*
X5315420Y-8347984D02*
X5334467Y-8357508D01*
X5334467Y-8357508D02*
X5343991Y-8367031D01*
X5343991Y-8367031D02*
X5353515Y-8386079D01*
X5353515Y-8386079D02*
X5363039Y-8424174D01*
X5363039Y-8424174D02*
X5363039Y-8471793D01*
X5363039Y-8471793D02*
X5353515Y-8509889D01*
X5353515Y-8509889D02*
X5343991Y-8528936D01*
X5343991Y-8528936D02*
X5334467Y-8538460D01*
X5334467Y-8538460D02*
X5315420Y-8547984D01*
X5315420Y-8547984D02*
X5296372Y-8547984D01*
X5296372Y-8547984D02*
X5277324Y-8538460D01*
X5277324Y-8538460D02*
X5267801Y-8528936D01*
X5267801Y-8528936D02*
X5258277Y-8509889D01*
X5258277Y-8509889D02*
X5248753Y-8471793D01*
X5248753Y-8471793D02*
X5248753Y-8424174D01*
X5248753Y-8424174D02*
X5258277Y-8386079D01*
X5258277Y-8386079D02*
X5267801Y-8367031D01*
X5267801Y-8367031D02*
X5277324Y-8357508D01*
X5277324Y-8357508D02*
X5296372Y-8347984D01*
X5448753Y-8528936D02*
X5458277Y-8538460D01*
X5458277Y-8538460D02*
X5448753Y-8547984D01*
X5448753Y-8547984D02*
X5439229Y-8538460D01*
X5439229Y-8538460D02*
X5448753Y-8528936D01*
X5448753Y-8528936D02*
X5448753Y-8547984D01*
X5524944Y-8347984D02*
X5658277Y-8347984D01*
X5658277Y-8347984D02*
X5572563Y-8547984D01*
X5829705Y-8347984D02*
X5734467Y-8347984D01*
X5734467Y-8347984D02*
X5724943Y-8443222D01*
X5724943Y-8443222D02*
X5734467Y-8433698D01*
X5734467Y-8433698D02*
X5753515Y-8424174D01*
X5753515Y-8424174D02*
X5801134Y-8424174D01*
X5801134Y-8424174D02*
X5820182Y-8433698D01*
X5820182Y-8433698D02*
X5829705Y-8443222D01*
X5829705Y-8443222D02*
X5839229Y-8462270D01*
X5839229Y-8462270D02*
X5839229Y-8509889D01*
X5839229Y-8509889D02*
X5829705Y-8528936D01*
X5829705Y-8528936D02*
X5820182Y-8538460D01*
X5820182Y-8538460D02*
X5801134Y-8547984D01*
X5801134Y-8547984D02*
X5753515Y-8547984D01*
X5753515Y-8547984D02*
X5734467Y-8538460D01*
X5734467Y-8538460D02*
X5724943Y-8528936D01*
X5963039Y-8347984D02*
X5982086Y-8347984D01*
X5982086Y-8347984D02*
X6001134Y-8357508D01*
X6001134Y-8357508D02*
X6010658Y-8367031D01*
X6010658Y-8367031D02*
X6020182Y-8386079D01*
X6020182Y-8386079D02*
X6029705Y-8424174D01*
X6029705Y-8424174D02*
X6029705Y-8471793D01*
X6029705Y-8471793D02*
X6020182Y-8509889D01*
X6020182Y-8509889D02*
X6010658Y-8528936D01*
X6010658Y-8528936D02*
X6001134Y-8538460D01*
X6001134Y-8538460D02*
X5982086Y-8547984D01*
X5982086Y-8547984D02*
X5963039Y-8547984D01*
X5963039Y-8547984D02*
X5943991Y-8538460D01*
X5943991Y-8538460D02*
X5934467Y-8528936D01*
X5934467Y-8528936D02*
X5924943Y-8509889D01*
X5924943Y-8509889D02*
X5915420Y-8471793D01*
X5915420Y-8471793D02*
X5915420Y-8424174D01*
X5915420Y-8424174D02*
X5924943Y-8386079D01*
X5924943Y-8386079D02*
X5934467Y-8367031D01*
X5934467Y-8367031D02*
X5943991Y-8357508D01*
X5943991Y-8357508D02*
X5963039Y-8347984D01*
X6115420Y-8547984D02*
X6115420Y-8414650D01*
X6115420Y-8433698D02*
X6124943Y-8424174D01*
X6124943Y-8424174D02*
X6143991Y-8414650D01*
X6143991Y-8414650D02*
X6172563Y-8414650D01*
X6172563Y-8414650D02*
X6191610Y-8424174D01*
X6191610Y-8424174D02*
X6201134Y-8443222D01*
X6201134Y-8443222D02*
X6201134Y-8547984D01*
X6201134Y-8443222D02*
X6210658Y-8424174D01*
X6210658Y-8424174D02*
X6229705Y-8414650D01*
X6229705Y-8414650D02*
X6258277Y-8414650D01*
X6258277Y-8414650D02*
X6277324Y-8424174D01*
X6277324Y-8424174D02*
X6286848Y-8443222D01*
X6286848Y-8443222D02*
X6286848Y-8547984D01*
X6382086Y-8547984D02*
X6382086Y-8414650D01*
X6382086Y-8433698D02*
X6391610Y-8424174D01*
X6391610Y-8424174D02*
X6410658Y-8414650D01*
X6410658Y-8414650D02*
X6439229Y-8414650D01*
X6439229Y-8414650D02*
X6458277Y-8424174D01*
X6458277Y-8424174D02*
X6467801Y-8443222D01*
X6467801Y-8443222D02*
X6467801Y-8547984D01*
X6467801Y-8443222D02*
X6477324Y-8424174D01*
X6477324Y-8424174D02*
X6496372Y-8414650D01*
X6496372Y-8414650D02*
X6524943Y-8414650D01*
X6524943Y-8414650D02*
X6543991Y-8424174D01*
X6543991Y-8424174D02*
X6553515Y-8443222D01*
X6553515Y-8443222D02*
X6553515Y-8547984D01*
X6943991Y-8338460D02*
X6772563Y-8595603D01*
X7201134Y-8347984D02*
X7220182Y-8347984D01*
X7220182Y-8347984D02*
X7239229Y-8357508D01*
X7239229Y-8357508D02*
X7248753Y-8367031D01*
X7248753Y-8367031D02*
X7258277Y-8386079D01*
X7258277Y-8386079D02*
X7267801Y-8424174D01*
X7267801Y-8424174D02*
X7267801Y-8471793D01*
X7267801Y-8471793D02*
X7258277Y-8509889D01*
X7258277Y-8509889D02*
X7248753Y-8528936D01*
X7248753Y-8528936D02*
X7239229Y-8538460D01*
X7239229Y-8538460D02*
X7220182Y-8547984D01*
X7220182Y-8547984D02*
X7201134Y-8547984D01*
X7201134Y-8547984D02*
X7182086Y-8538460D01*
X7182086Y-8538460D02*
X7172563Y-8528936D01*
X7172563Y-8528936D02*
X7163039Y-8509889D01*
X7163039Y-8509889D02*
X7153515Y-8471793D01*
X7153515Y-8471793D02*
X7153515Y-8424174D01*
X7153515Y-8424174D02*
X7163039Y-8386079D01*
X7163039Y-8386079D02*
X7172563Y-8367031D01*
X7172563Y-8367031D02*
X7182086Y-8357508D01*
X7182086Y-8357508D02*
X7201134Y-8347984D01*
X7353515Y-8528936D02*
X7363039Y-8538460D01*
X7363039Y-8538460D02*
X7353515Y-8547984D01*
X7353515Y-8547984D02*
X7343991Y-8538460D01*
X7343991Y-8538460D02*
X7353515Y-8528936D01*
X7353515Y-8528936D02*
X7353515Y-8547984D01*
X7486848Y-8347984D02*
X7505896Y-8347984D01*
X7505896Y-8347984D02*
X7524944Y-8357508D01*
X7524944Y-8357508D02*
X7534467Y-8367031D01*
X7534467Y-8367031D02*
X7543991Y-8386079D01*
X7543991Y-8386079D02*
X7553515Y-8424174D01*
X7553515Y-8424174D02*
X7553515Y-8471793D01*
X7553515Y-8471793D02*
X7543991Y-8509889D01*
X7543991Y-8509889D02*
X7534467Y-8528936D01*
X7534467Y-8528936D02*
X7524944Y-8538460D01*
X7524944Y-8538460D02*
X7505896Y-8547984D01*
X7505896Y-8547984D02*
X7486848Y-8547984D01*
X7486848Y-8547984D02*
X7467801Y-8538460D01*
X7467801Y-8538460D02*
X7458277Y-8528936D01*
X7458277Y-8528936D02*
X7448753Y-8509889D01*
X7448753Y-8509889D02*
X7439229Y-8471793D01*
X7439229Y-8471793D02*
X7439229Y-8424174D01*
X7439229Y-8424174D02*
X7448753Y-8386079D01*
X7448753Y-8386079D02*
X7458277Y-8367031D01*
X7458277Y-8367031D02*
X7467801Y-8357508D01*
X7467801Y-8357508D02*
X7486848Y-8347984D01*
X7629706Y-8367031D02*
X7639229Y-8357508D01*
X7639229Y-8357508D02*
X7658277Y-8347984D01*
X7658277Y-8347984D02*
X7705896Y-8347984D01*
X7705896Y-8347984D02*
X7724944Y-8357508D01*
X7724944Y-8357508D02*
X7734467Y-8367031D01*
X7734467Y-8367031D02*
X7743991Y-8386079D01*
X7743991Y-8386079D02*
X7743991Y-8405127D01*
X7743991Y-8405127D02*
X7734467Y-8433698D01*
X7734467Y-8433698D02*
X7620182Y-8547984D01*
X7620182Y-8547984D02*
X7743991Y-8547984D01*
X7839229Y-8547984D02*
X7877325Y-8547984D01*
X7877325Y-8547984D02*
X7896372Y-8538460D01*
X7896372Y-8538460D02*
X7905896Y-8528936D01*
X7905896Y-8528936D02*
X7924944Y-8500365D01*
X7924944Y-8500365D02*
X7934467Y-8462270D01*
X7934467Y-8462270D02*
X7934467Y-8386079D01*
X7934467Y-8386079D02*
X7924944Y-8367031D01*
X7924944Y-8367031D02*
X7915420Y-8357508D01*
X7915420Y-8357508D02*
X7896372Y-8347984D01*
X7896372Y-8347984D02*
X7858277Y-8347984D01*
X7858277Y-8347984D02*
X7839229Y-8357508D01*
X7839229Y-8357508D02*
X7829706Y-8367031D01*
X7829706Y-8367031D02*
X7820182Y-8386079D01*
X7820182Y-8386079D02*
X7820182Y-8433698D01*
X7820182Y-8433698D02*
X7829706Y-8452746D01*
X7829706Y-8452746D02*
X7839229Y-8462270D01*
X7839229Y-8462270D02*
X7858277Y-8471793D01*
X7858277Y-8471793D02*
X7896372Y-8471793D01*
X7896372Y-8471793D02*
X7915420Y-8462270D01*
X7915420Y-8462270D02*
X7924944Y-8452746D01*
X7924944Y-8452746D02*
X7934467Y-8433698D01*
X8115420Y-8347984D02*
X8020182Y-8347984D01*
X8020182Y-8347984D02*
X8010658Y-8443222D01*
X8010658Y-8443222D02*
X8020182Y-8433698D01*
X8020182Y-8433698D02*
X8039229Y-8424174D01*
X8039229Y-8424174D02*
X8086848Y-8424174D01*
X8086848Y-8424174D02*
X8105896Y-8433698D01*
X8105896Y-8433698D02*
X8115420Y-8443222D01*
X8115420Y-8443222D02*
X8124944Y-8462270D01*
X8124944Y-8462270D02*
X8124944Y-8509889D01*
X8124944Y-8509889D02*
X8115420Y-8528936D01*
X8115420Y-8528936D02*
X8105896Y-8538460D01*
X8105896Y-8538460D02*
X8086848Y-8547984D01*
X8086848Y-8547984D02*
X8039229Y-8547984D01*
X8039229Y-8547984D02*
X8020182Y-8538460D01*
X8020182Y-8538460D02*
X8010658Y-8528936D01*
X8201134Y-8347984D02*
X8201134Y-8386079D01*
X8277325Y-8347984D02*
X8277325Y-8386079D01*
X8572563Y-8624174D02*
X8563039Y-8614650D01*
X8563039Y-8614650D02*
X8543991Y-8586079D01*
X8543991Y-8586079D02*
X8534468Y-8567031D01*
X8534468Y-8567031D02*
X8524944Y-8538460D01*
X8524944Y-8538460D02*
X8515420Y-8490841D01*
X8515420Y-8490841D02*
X8515420Y-8452746D01*
X8515420Y-8452746D02*
X8524944Y-8405127D01*
X8524944Y-8405127D02*
X8534468Y-8376555D01*
X8534468Y-8376555D02*
X8543991Y-8357508D01*
X8543991Y-8357508D02*
X8563039Y-8328936D01*
X8563039Y-8328936D02*
X8572563Y-8319412D01*
X8753515Y-8547984D02*
X8639230Y-8547984D01*
X8696372Y-8547984D02*
X8696372Y-8347984D01*
X8696372Y-8347984D02*
X8677325Y-8376555D01*
X8677325Y-8376555D02*
X8658277Y-8395603D01*
X8658277Y-8395603D02*
X8639230Y-8405127D01*
X8829706Y-8367031D02*
X8839230Y-8357508D01*
X8839230Y-8357508D02*
X8858277Y-8347984D01*
X8858277Y-8347984D02*
X8905896Y-8347984D01*
X8905896Y-8347984D02*
X8924944Y-8357508D01*
X8924944Y-8357508D02*
X8934468Y-8367031D01*
X8934468Y-8367031D02*
X8943991Y-8386079D01*
X8943991Y-8386079D02*
X8943991Y-8405127D01*
X8943991Y-8405127D02*
X8934468Y-8433698D01*
X8934468Y-8433698D02*
X8820182Y-8547984D01*
X8820182Y-8547984D02*
X8943991Y-8547984D01*
X9182087Y-8547984D02*
X9182087Y-8347984D01*
X9267801Y-8547984D02*
X9267801Y-8443222D01*
X9267801Y-8443222D02*
X9258277Y-8424174D01*
X9258277Y-8424174D02*
X9239230Y-8414650D01*
X9239230Y-8414650D02*
X9210658Y-8414650D01*
X9210658Y-8414650D02*
X9191611Y-8424174D01*
X9191611Y-8424174D02*
X9182087Y-8433698D01*
X9391611Y-8547984D02*
X9372563Y-8538460D01*
X9372563Y-8538460D02*
X9363039Y-8528936D01*
X9363039Y-8528936D02*
X9353515Y-8509889D01*
X9353515Y-8509889D02*
X9353515Y-8452746D01*
X9353515Y-8452746D02*
X9363039Y-8433698D01*
X9363039Y-8433698D02*
X9372563Y-8424174D01*
X9372563Y-8424174D02*
X9391611Y-8414650D01*
X9391611Y-8414650D02*
X9420182Y-8414650D01*
X9420182Y-8414650D02*
X9439230Y-8424174D01*
X9439230Y-8424174D02*
X9448753Y-8433698D01*
X9448753Y-8433698D02*
X9458277Y-8452746D01*
X9458277Y-8452746D02*
X9458277Y-8509889D01*
X9458277Y-8509889D02*
X9448753Y-8528936D01*
X9448753Y-8528936D02*
X9439230Y-8538460D01*
X9439230Y-8538460D02*
X9420182Y-8547984D01*
X9420182Y-8547984D02*
X9391611Y-8547984D01*
X9572563Y-8547984D02*
X9553515Y-8538460D01*
X9553515Y-8538460D02*
X9543992Y-8519412D01*
X9543992Y-8519412D02*
X9543992Y-8347984D01*
X9724944Y-8538460D02*
X9705896Y-8547984D01*
X9705896Y-8547984D02*
X9667801Y-8547984D01*
X9667801Y-8547984D02*
X9648753Y-8538460D01*
X9648753Y-8538460D02*
X9639230Y-8519412D01*
X9639230Y-8519412D02*
X9639230Y-8443222D01*
X9639230Y-8443222D02*
X9648753Y-8424174D01*
X9648753Y-8424174D02*
X9667801Y-8414650D01*
X9667801Y-8414650D02*
X9705896Y-8414650D01*
X9705896Y-8414650D02*
X9724944Y-8424174D01*
X9724944Y-8424174D02*
X9734468Y-8443222D01*
X9734468Y-8443222D02*
X9734468Y-8462270D01*
X9734468Y-8462270D02*
X9639230Y-8481317D01*
X9810658Y-8538460D02*
X9829706Y-8547984D01*
X9829706Y-8547984D02*
X9867801Y-8547984D01*
X9867801Y-8547984D02*
X9886849Y-8538460D01*
X9886849Y-8538460D02*
X9896373Y-8519412D01*
X9896373Y-8519412D02*
X9896373Y-8509889D01*
X9896373Y-8509889D02*
X9886849Y-8490841D01*
X9886849Y-8490841D02*
X9867801Y-8481317D01*
X9867801Y-8481317D02*
X9839230Y-8481317D01*
X9839230Y-8481317D02*
X9820182Y-8471793D01*
X9820182Y-8471793D02*
X9810658Y-8452746D01*
X9810658Y-8452746D02*
X9810658Y-8443222D01*
X9810658Y-8443222D02*
X9820182Y-8424174D01*
X9820182Y-8424174D02*
X9839230Y-8414650D01*
X9839230Y-8414650D02*
X9867801Y-8414650D01*
X9867801Y-8414650D02*
X9886849Y-8424174D01*
X9963039Y-8624174D02*
X9972563Y-8614650D01*
X9972563Y-8614650D02*
X9991611Y-8586079D01*
X9991611Y-8586079D02*
X10001134Y-8567031D01*
X10001134Y-8567031D02*
X10010658Y-8538460D01*
X10010658Y-8538460D02*
X10020182Y-8490841D01*
X10020182Y-8490841D02*
X10020182Y-8452746D01*
X10020182Y-8452746D02*
X10010658Y-8405127D01*
X10010658Y-8405127D02*
X10001134Y-8376555D01*
X10001134Y-8376555D02*
X9991611Y-8357508D01*
X9991611Y-8357508D02*
X9972563Y-8328936D01*
X9972563Y-8328936D02*
X9963039Y-8319412D01*
X4897500Y-8620500D02*
X4897500Y-8820500D01*
X4797500Y-8720500D02*
X4997500Y-8720500D01*
X5248753Y-8631031D02*
X5258277Y-8621508D01*
X5258277Y-8621508D02*
X5277324Y-8611984D01*
X5277324Y-8611984D02*
X5324944Y-8611984D01*
X5324944Y-8611984D02*
X5343991Y-8621508D01*
X5343991Y-8621508D02*
X5353515Y-8631031D01*
X5353515Y-8631031D02*
X5363039Y-8650079D01*
X5363039Y-8650079D02*
X5363039Y-8669127D01*
X5363039Y-8669127D02*
X5353515Y-8697698D01*
X5353515Y-8697698D02*
X5239229Y-8811984D01*
X5239229Y-8811984D02*
X5363039Y-8811984D01*
X5448753Y-8792936D02*
X5458277Y-8802460D01*
X5458277Y-8802460D02*
X5448753Y-8811984D01*
X5448753Y-8811984D02*
X5439229Y-8802460D01*
X5439229Y-8802460D02*
X5448753Y-8792936D01*
X5448753Y-8792936D02*
X5448753Y-8811984D01*
X5534467Y-8631031D02*
X5543991Y-8621508D01*
X5543991Y-8621508D02*
X5563039Y-8611984D01*
X5563039Y-8611984D02*
X5610658Y-8611984D01*
X5610658Y-8611984D02*
X5629705Y-8621508D01*
X5629705Y-8621508D02*
X5639229Y-8631031D01*
X5639229Y-8631031D02*
X5648753Y-8650079D01*
X5648753Y-8650079D02*
X5648753Y-8669127D01*
X5648753Y-8669127D02*
X5639229Y-8697698D01*
X5639229Y-8697698D02*
X5524944Y-8811984D01*
X5524944Y-8811984D02*
X5648753Y-8811984D01*
X5772562Y-8611984D02*
X5791610Y-8611984D01*
X5791610Y-8611984D02*
X5810658Y-8621508D01*
X5810658Y-8621508D02*
X5820182Y-8631031D01*
X5820182Y-8631031D02*
X5829705Y-8650079D01*
X5829705Y-8650079D02*
X5839229Y-8688174D01*
X5839229Y-8688174D02*
X5839229Y-8735793D01*
X5839229Y-8735793D02*
X5829705Y-8773889D01*
X5829705Y-8773889D02*
X5820182Y-8792936D01*
X5820182Y-8792936D02*
X5810658Y-8802460D01*
X5810658Y-8802460D02*
X5791610Y-8811984D01*
X5791610Y-8811984D02*
X5772562Y-8811984D01*
X5772562Y-8811984D02*
X5753515Y-8802460D01*
X5753515Y-8802460D02*
X5743991Y-8792936D01*
X5743991Y-8792936D02*
X5734467Y-8773889D01*
X5734467Y-8773889D02*
X5724943Y-8735793D01*
X5724943Y-8735793D02*
X5724943Y-8688174D01*
X5724943Y-8688174D02*
X5734467Y-8650079D01*
X5734467Y-8650079D02*
X5743991Y-8631031D01*
X5743991Y-8631031D02*
X5753515Y-8621508D01*
X5753515Y-8621508D02*
X5772562Y-8611984D01*
X5963039Y-8611984D02*
X5982086Y-8611984D01*
X5982086Y-8611984D02*
X6001134Y-8621508D01*
X6001134Y-8621508D02*
X6010658Y-8631031D01*
X6010658Y-8631031D02*
X6020182Y-8650079D01*
X6020182Y-8650079D02*
X6029705Y-8688174D01*
X6029705Y-8688174D02*
X6029705Y-8735793D01*
X6029705Y-8735793D02*
X6020182Y-8773889D01*
X6020182Y-8773889D02*
X6010658Y-8792936D01*
X6010658Y-8792936D02*
X6001134Y-8802460D01*
X6001134Y-8802460D02*
X5982086Y-8811984D01*
X5982086Y-8811984D02*
X5963039Y-8811984D01*
X5963039Y-8811984D02*
X5943991Y-8802460D01*
X5943991Y-8802460D02*
X5934467Y-8792936D01*
X5934467Y-8792936D02*
X5924943Y-8773889D01*
X5924943Y-8773889D02*
X5915420Y-8735793D01*
X5915420Y-8735793D02*
X5915420Y-8688174D01*
X5915420Y-8688174D02*
X5924943Y-8650079D01*
X5924943Y-8650079D02*
X5934467Y-8631031D01*
X5934467Y-8631031D02*
X5943991Y-8621508D01*
X5943991Y-8621508D02*
X5963039Y-8611984D01*
X6115420Y-8811984D02*
X6115420Y-8678650D01*
X6115420Y-8697698D02*
X6124943Y-8688174D01*
X6124943Y-8688174D02*
X6143991Y-8678650D01*
X6143991Y-8678650D02*
X6172563Y-8678650D01*
X6172563Y-8678650D02*
X6191610Y-8688174D01*
X6191610Y-8688174D02*
X6201134Y-8707222D01*
X6201134Y-8707222D02*
X6201134Y-8811984D01*
X6201134Y-8707222D02*
X6210658Y-8688174D01*
X6210658Y-8688174D02*
X6229705Y-8678650D01*
X6229705Y-8678650D02*
X6258277Y-8678650D01*
X6258277Y-8678650D02*
X6277324Y-8688174D01*
X6277324Y-8688174D02*
X6286848Y-8707222D01*
X6286848Y-8707222D02*
X6286848Y-8811984D01*
X6382086Y-8811984D02*
X6382086Y-8678650D01*
X6382086Y-8697698D02*
X6391610Y-8688174D01*
X6391610Y-8688174D02*
X6410658Y-8678650D01*
X6410658Y-8678650D02*
X6439229Y-8678650D01*
X6439229Y-8678650D02*
X6458277Y-8688174D01*
X6458277Y-8688174D02*
X6467801Y-8707222D01*
X6467801Y-8707222D02*
X6467801Y-8811984D01*
X6467801Y-8707222D02*
X6477324Y-8688174D01*
X6477324Y-8688174D02*
X6496372Y-8678650D01*
X6496372Y-8678650D02*
X6524943Y-8678650D01*
X6524943Y-8678650D02*
X6543991Y-8688174D01*
X6543991Y-8688174D02*
X6553515Y-8707222D01*
X6553515Y-8707222D02*
X6553515Y-8811984D01*
X6943991Y-8602460D02*
X6772563Y-8859603D01*
X7201134Y-8611984D02*
X7220182Y-8611984D01*
X7220182Y-8611984D02*
X7239229Y-8621508D01*
X7239229Y-8621508D02*
X7248753Y-8631031D01*
X7248753Y-8631031D02*
X7258277Y-8650079D01*
X7258277Y-8650079D02*
X7267801Y-8688174D01*
X7267801Y-8688174D02*
X7267801Y-8735793D01*
X7267801Y-8735793D02*
X7258277Y-8773889D01*
X7258277Y-8773889D02*
X7248753Y-8792936D01*
X7248753Y-8792936D02*
X7239229Y-8802460D01*
X7239229Y-8802460D02*
X7220182Y-8811984D01*
X7220182Y-8811984D02*
X7201134Y-8811984D01*
X7201134Y-8811984D02*
X7182086Y-8802460D01*
X7182086Y-8802460D02*
X7172563Y-8792936D01*
X7172563Y-8792936D02*
X7163039Y-8773889D01*
X7163039Y-8773889D02*
X7153515Y-8735793D01*
X7153515Y-8735793D02*
X7153515Y-8688174D01*
X7153515Y-8688174D02*
X7163039Y-8650079D01*
X7163039Y-8650079D02*
X7172563Y-8631031D01*
X7172563Y-8631031D02*
X7182086Y-8621508D01*
X7182086Y-8621508D02*
X7201134Y-8611984D01*
X7353515Y-8792936D02*
X7363039Y-8802460D01*
X7363039Y-8802460D02*
X7353515Y-8811984D01*
X7353515Y-8811984D02*
X7343991Y-8802460D01*
X7343991Y-8802460D02*
X7353515Y-8792936D01*
X7353515Y-8792936D02*
X7353515Y-8811984D01*
X7486848Y-8611984D02*
X7505896Y-8611984D01*
X7505896Y-8611984D02*
X7524944Y-8621508D01*
X7524944Y-8621508D02*
X7534467Y-8631031D01*
X7534467Y-8631031D02*
X7543991Y-8650079D01*
X7543991Y-8650079D02*
X7553515Y-8688174D01*
X7553515Y-8688174D02*
X7553515Y-8735793D01*
X7553515Y-8735793D02*
X7543991Y-8773889D01*
X7543991Y-8773889D02*
X7534467Y-8792936D01*
X7534467Y-8792936D02*
X7524944Y-8802460D01*
X7524944Y-8802460D02*
X7505896Y-8811984D01*
X7505896Y-8811984D02*
X7486848Y-8811984D01*
X7486848Y-8811984D02*
X7467801Y-8802460D01*
X7467801Y-8802460D02*
X7458277Y-8792936D01*
X7458277Y-8792936D02*
X7448753Y-8773889D01*
X7448753Y-8773889D02*
X7439229Y-8735793D01*
X7439229Y-8735793D02*
X7439229Y-8688174D01*
X7439229Y-8688174D02*
X7448753Y-8650079D01*
X7448753Y-8650079D02*
X7458277Y-8631031D01*
X7458277Y-8631031D02*
X7467801Y-8621508D01*
X7467801Y-8621508D02*
X7486848Y-8611984D01*
X7667801Y-8697698D02*
X7648753Y-8688174D01*
X7648753Y-8688174D02*
X7639229Y-8678650D01*
X7639229Y-8678650D02*
X7629706Y-8659603D01*
X7629706Y-8659603D02*
X7629706Y-8650079D01*
X7629706Y-8650079D02*
X7639229Y-8631031D01*
X7639229Y-8631031D02*
X7648753Y-8621508D01*
X7648753Y-8621508D02*
X7667801Y-8611984D01*
X7667801Y-8611984D02*
X7705896Y-8611984D01*
X7705896Y-8611984D02*
X7724944Y-8621508D01*
X7724944Y-8621508D02*
X7734467Y-8631031D01*
X7734467Y-8631031D02*
X7743991Y-8650079D01*
X7743991Y-8650079D02*
X7743991Y-8659603D01*
X7743991Y-8659603D02*
X7734467Y-8678650D01*
X7734467Y-8678650D02*
X7724944Y-8688174D01*
X7724944Y-8688174D02*
X7705896Y-8697698D01*
X7705896Y-8697698D02*
X7667801Y-8697698D01*
X7667801Y-8697698D02*
X7648753Y-8707222D01*
X7648753Y-8707222D02*
X7639229Y-8716746D01*
X7639229Y-8716746D02*
X7629706Y-8735793D01*
X7629706Y-8735793D02*
X7629706Y-8773889D01*
X7629706Y-8773889D02*
X7639229Y-8792936D01*
X7639229Y-8792936D02*
X7648753Y-8802460D01*
X7648753Y-8802460D02*
X7667801Y-8811984D01*
X7667801Y-8811984D02*
X7705896Y-8811984D01*
X7705896Y-8811984D02*
X7724944Y-8802460D01*
X7724944Y-8802460D02*
X7734467Y-8792936D01*
X7734467Y-8792936D02*
X7743991Y-8773889D01*
X7743991Y-8773889D02*
X7743991Y-8735793D01*
X7743991Y-8735793D02*
X7734467Y-8716746D01*
X7734467Y-8716746D02*
X7724944Y-8707222D01*
X7724944Y-8707222D02*
X7705896Y-8697698D01*
X7915420Y-8611984D02*
X7877325Y-8611984D01*
X7877325Y-8611984D02*
X7858277Y-8621508D01*
X7858277Y-8621508D02*
X7848753Y-8631031D01*
X7848753Y-8631031D02*
X7829706Y-8659603D01*
X7829706Y-8659603D02*
X7820182Y-8697698D01*
X7820182Y-8697698D02*
X7820182Y-8773889D01*
X7820182Y-8773889D02*
X7829706Y-8792936D01*
X7829706Y-8792936D02*
X7839229Y-8802460D01*
X7839229Y-8802460D02*
X7858277Y-8811984D01*
X7858277Y-8811984D02*
X7896372Y-8811984D01*
X7896372Y-8811984D02*
X7915420Y-8802460D01*
X7915420Y-8802460D02*
X7924944Y-8792936D01*
X7924944Y-8792936D02*
X7934467Y-8773889D01*
X7934467Y-8773889D02*
X7934467Y-8726270D01*
X7934467Y-8726270D02*
X7924944Y-8707222D01*
X7924944Y-8707222D02*
X7915420Y-8697698D01*
X7915420Y-8697698D02*
X7896372Y-8688174D01*
X7896372Y-8688174D02*
X7858277Y-8688174D01*
X7858277Y-8688174D02*
X7839229Y-8697698D01*
X7839229Y-8697698D02*
X7829706Y-8707222D01*
X7829706Y-8707222D02*
X7820182Y-8726270D01*
X8105896Y-8611984D02*
X8067801Y-8611984D01*
X8067801Y-8611984D02*
X8048753Y-8621508D01*
X8048753Y-8621508D02*
X8039229Y-8631031D01*
X8039229Y-8631031D02*
X8020182Y-8659603D01*
X8020182Y-8659603D02*
X8010658Y-8697698D01*
X8010658Y-8697698D02*
X8010658Y-8773889D01*
X8010658Y-8773889D02*
X8020182Y-8792936D01*
X8020182Y-8792936D02*
X8029706Y-8802460D01*
X8029706Y-8802460D02*
X8048753Y-8811984D01*
X8048753Y-8811984D02*
X8086848Y-8811984D01*
X8086848Y-8811984D02*
X8105896Y-8802460D01*
X8105896Y-8802460D02*
X8115420Y-8792936D01*
X8115420Y-8792936D02*
X8124944Y-8773889D01*
X8124944Y-8773889D02*
X8124944Y-8726270D01*
X8124944Y-8726270D02*
X8115420Y-8707222D01*
X8115420Y-8707222D02*
X8105896Y-8697698D01*
X8105896Y-8697698D02*
X8086848Y-8688174D01*
X8086848Y-8688174D02*
X8048753Y-8688174D01*
X8048753Y-8688174D02*
X8029706Y-8697698D01*
X8029706Y-8697698D02*
X8020182Y-8707222D01*
X8020182Y-8707222D02*
X8010658Y-8726270D01*
X8201134Y-8611984D02*
X8201134Y-8650079D01*
X8277325Y-8611984D02*
X8277325Y-8650079D01*
X8572563Y-8888174D02*
X8563039Y-8878650D01*
X8563039Y-8878650D02*
X8543991Y-8850079D01*
X8543991Y-8850079D02*
X8534468Y-8831031D01*
X8534468Y-8831031D02*
X8524944Y-8802460D01*
X8524944Y-8802460D02*
X8515420Y-8754841D01*
X8515420Y-8754841D02*
X8515420Y-8716746D01*
X8515420Y-8716746D02*
X8524944Y-8669127D01*
X8524944Y-8669127D02*
X8534468Y-8640555D01*
X8534468Y-8640555D02*
X8543991Y-8621508D01*
X8543991Y-8621508D02*
X8563039Y-8592936D01*
X8563039Y-8592936D02*
X8572563Y-8583412D01*
X8639230Y-8631031D02*
X8648753Y-8621508D01*
X8648753Y-8621508D02*
X8667801Y-8611984D01*
X8667801Y-8611984D02*
X8715420Y-8611984D01*
X8715420Y-8611984D02*
X8734468Y-8621508D01*
X8734468Y-8621508D02*
X8743991Y-8631031D01*
X8743991Y-8631031D02*
X8753515Y-8650079D01*
X8753515Y-8650079D02*
X8753515Y-8669127D01*
X8753515Y-8669127D02*
X8743991Y-8697698D01*
X8743991Y-8697698D02*
X8629706Y-8811984D01*
X8629706Y-8811984D02*
X8753515Y-8811984D01*
X8991611Y-8811984D02*
X8991611Y-8611984D01*
X9077325Y-8811984D02*
X9077325Y-8707222D01*
X9077325Y-8707222D02*
X9067801Y-8688174D01*
X9067801Y-8688174D02*
X9048753Y-8678650D01*
X9048753Y-8678650D02*
X9020182Y-8678650D01*
X9020182Y-8678650D02*
X9001134Y-8688174D01*
X9001134Y-8688174D02*
X8991611Y-8697698D01*
X9201134Y-8811984D02*
X9182087Y-8802460D01*
X9182087Y-8802460D02*
X9172563Y-8792936D01*
X9172563Y-8792936D02*
X9163039Y-8773889D01*
X9163039Y-8773889D02*
X9163039Y-8716746D01*
X9163039Y-8716746D02*
X9172563Y-8697698D01*
X9172563Y-8697698D02*
X9182087Y-8688174D01*
X9182087Y-8688174D02*
X9201134Y-8678650D01*
X9201134Y-8678650D02*
X9229706Y-8678650D01*
X9229706Y-8678650D02*
X9248753Y-8688174D01*
X9248753Y-8688174D02*
X9258277Y-8697698D01*
X9258277Y-8697698D02*
X9267801Y-8716746D01*
X9267801Y-8716746D02*
X9267801Y-8773889D01*
X9267801Y-8773889D02*
X9258277Y-8792936D01*
X9258277Y-8792936D02*
X9248753Y-8802460D01*
X9248753Y-8802460D02*
X9229706Y-8811984D01*
X9229706Y-8811984D02*
X9201134Y-8811984D01*
X9382087Y-8811984D02*
X9363039Y-8802460D01*
X9363039Y-8802460D02*
X9353515Y-8783412D01*
X9353515Y-8783412D02*
X9353515Y-8611984D01*
X9534468Y-8802460D02*
X9515420Y-8811984D01*
X9515420Y-8811984D02*
X9477325Y-8811984D01*
X9477325Y-8811984D02*
X9458277Y-8802460D01*
X9458277Y-8802460D02*
X9448753Y-8783412D01*
X9448753Y-8783412D02*
X9448753Y-8707222D01*
X9448753Y-8707222D02*
X9458277Y-8688174D01*
X9458277Y-8688174D02*
X9477325Y-8678650D01*
X9477325Y-8678650D02*
X9515420Y-8678650D01*
X9515420Y-8678650D02*
X9534468Y-8688174D01*
X9534468Y-8688174D02*
X9543992Y-8707222D01*
X9543992Y-8707222D02*
X9543992Y-8726270D01*
X9543992Y-8726270D02*
X9448753Y-8745317D01*
X9620182Y-8802460D02*
X9639230Y-8811984D01*
X9639230Y-8811984D02*
X9677325Y-8811984D01*
X9677325Y-8811984D02*
X9696373Y-8802460D01*
X9696373Y-8802460D02*
X9705896Y-8783412D01*
X9705896Y-8783412D02*
X9705896Y-8773889D01*
X9705896Y-8773889D02*
X9696373Y-8754841D01*
X9696373Y-8754841D02*
X9677325Y-8745317D01*
X9677325Y-8745317D02*
X9648753Y-8745317D01*
X9648753Y-8745317D02*
X9629706Y-8735793D01*
X9629706Y-8735793D02*
X9620182Y-8716746D01*
X9620182Y-8716746D02*
X9620182Y-8707222D01*
X9620182Y-8707222D02*
X9629706Y-8688174D01*
X9629706Y-8688174D02*
X9648753Y-8678650D01*
X9648753Y-8678650D02*
X9677325Y-8678650D01*
X9677325Y-8678650D02*
X9696373Y-8688174D01*
X9772563Y-8888174D02*
X9782087Y-8878650D01*
X9782087Y-8878650D02*
X9801134Y-8850079D01*
X9801134Y-8850079D02*
X9810658Y-8831031D01*
X9810658Y-8831031D02*
X9820182Y-8802460D01*
X9820182Y-8802460D02*
X9829706Y-8754841D01*
X9829706Y-8754841D02*
X9829706Y-8716746D01*
X9829706Y-8716746D02*
X9820182Y-8669127D01*
X9820182Y-8669127D02*
X9810658Y-8640555D01*
X9810658Y-8640555D02*
X9801134Y-8621508D01*
X9801134Y-8621508D02*
X9782087Y-8592936D01*
X9782087Y-8592936D02*
X9772563Y-8583412D01*
X10134468Y-8888174D02*
X10124944Y-8878650D01*
X10124944Y-8878650D02*
X10105896Y-8850079D01*
X10105896Y-8850079D02*
X10096373Y-8831031D01*
X10096373Y-8831031D02*
X10086849Y-8802460D01*
X10086849Y-8802460D02*
X10077325Y-8754841D01*
X10077325Y-8754841D02*
X10077325Y-8716746D01*
X10077325Y-8716746D02*
X10086849Y-8669127D01*
X10086849Y-8669127D02*
X10096373Y-8640555D01*
X10096373Y-8640555D02*
X10105896Y-8621508D01*
X10105896Y-8621508D02*
X10124944Y-8592936D01*
X10124944Y-8592936D02*
X10134468Y-8583412D01*
X10210658Y-8678650D02*
X10210658Y-8811984D01*
X10210658Y-8697698D02*
X10220182Y-8688174D01*
X10220182Y-8688174D02*
X10239230Y-8678650D01*
X10239230Y-8678650D02*
X10267801Y-8678650D01*
X10267801Y-8678650D02*
X10286849Y-8688174D01*
X10286849Y-8688174D02*
X10296373Y-8707222D01*
X10296373Y-8707222D02*
X10296373Y-8811984D01*
X10420182Y-8811984D02*
X10401134Y-8802460D01*
X10401134Y-8802460D02*
X10391611Y-8792936D01*
X10391611Y-8792936D02*
X10382087Y-8773889D01*
X10382087Y-8773889D02*
X10382087Y-8716746D01*
X10382087Y-8716746D02*
X10391611Y-8697698D01*
X10391611Y-8697698D02*
X10401134Y-8688174D01*
X10401134Y-8688174D02*
X10420182Y-8678650D01*
X10420182Y-8678650D02*
X10448754Y-8678650D01*
X10448754Y-8678650D02*
X10467801Y-8688174D01*
X10467801Y-8688174D02*
X10477325Y-8697698D01*
X10477325Y-8697698D02*
X10486849Y-8716746D01*
X10486849Y-8716746D02*
X10486849Y-8773889D01*
X10486849Y-8773889D02*
X10477325Y-8792936D01*
X10477325Y-8792936D02*
X10467801Y-8802460D01*
X10467801Y-8802460D02*
X10448754Y-8811984D01*
X10448754Y-8811984D02*
X10420182Y-8811984D01*
X10543992Y-8678650D02*
X10620182Y-8678650D01*
X10572563Y-8611984D02*
X10572563Y-8783412D01*
X10572563Y-8783412D02*
X10582087Y-8802460D01*
X10582087Y-8802460D02*
X10601134Y-8811984D01*
X10601134Y-8811984D02*
X10620182Y-8811984D01*
X10839230Y-8678650D02*
X10839230Y-8878650D01*
X10839230Y-8688174D02*
X10858277Y-8678650D01*
X10858277Y-8678650D02*
X10896373Y-8678650D01*
X10896373Y-8678650D02*
X10915420Y-8688174D01*
X10915420Y-8688174D02*
X10924944Y-8697698D01*
X10924944Y-8697698D02*
X10934468Y-8716746D01*
X10934468Y-8716746D02*
X10934468Y-8773889D01*
X10934468Y-8773889D02*
X10924944Y-8792936D01*
X10924944Y-8792936D02*
X10915420Y-8802460D01*
X10915420Y-8802460D02*
X10896373Y-8811984D01*
X10896373Y-8811984D02*
X10858277Y-8811984D01*
X10858277Y-8811984D02*
X10839230Y-8802460D01*
X11048754Y-8811984D02*
X11029706Y-8802460D01*
X11029706Y-8802460D02*
X11020182Y-8783412D01*
X11020182Y-8783412D02*
X11020182Y-8611984D01*
X11210658Y-8811984D02*
X11210658Y-8707222D01*
X11210658Y-8707222D02*
X11201134Y-8688174D01*
X11201134Y-8688174D02*
X11182087Y-8678650D01*
X11182087Y-8678650D02*
X11143992Y-8678650D01*
X11143992Y-8678650D02*
X11124944Y-8688174D01*
X11210658Y-8802460D02*
X11191611Y-8811984D01*
X11191611Y-8811984D02*
X11143992Y-8811984D01*
X11143992Y-8811984D02*
X11124944Y-8802460D01*
X11124944Y-8802460D02*
X11115420Y-8783412D01*
X11115420Y-8783412D02*
X11115420Y-8764365D01*
X11115420Y-8764365D02*
X11124944Y-8745317D01*
X11124944Y-8745317D02*
X11143992Y-8735793D01*
X11143992Y-8735793D02*
X11191611Y-8735793D01*
X11191611Y-8735793D02*
X11210658Y-8726270D01*
X11277325Y-8678650D02*
X11353515Y-8678650D01*
X11305896Y-8611984D02*
X11305896Y-8783412D01*
X11305896Y-8783412D02*
X11315420Y-8802460D01*
X11315420Y-8802460D02*
X11334468Y-8811984D01*
X11334468Y-8811984D02*
X11353515Y-8811984D01*
X11496373Y-8802460D02*
X11477325Y-8811984D01*
X11477325Y-8811984D02*
X11439230Y-8811984D01*
X11439230Y-8811984D02*
X11420182Y-8802460D01*
X11420182Y-8802460D02*
X11410658Y-8783412D01*
X11410658Y-8783412D02*
X11410658Y-8707222D01*
X11410658Y-8707222D02*
X11420182Y-8688174D01*
X11420182Y-8688174D02*
X11439230Y-8678650D01*
X11439230Y-8678650D02*
X11477325Y-8678650D01*
X11477325Y-8678650D02*
X11496373Y-8688174D01*
X11496373Y-8688174D02*
X11505896Y-8707222D01*
X11505896Y-8707222D02*
X11505896Y-8726270D01*
X11505896Y-8726270D02*
X11410658Y-8745317D01*
X11677325Y-8811984D02*
X11677325Y-8611984D01*
X11677325Y-8802460D02*
X11658277Y-8811984D01*
X11658277Y-8811984D02*
X11620182Y-8811984D01*
X11620182Y-8811984D02*
X11601134Y-8802460D01*
X11601134Y-8802460D02*
X11591611Y-8792936D01*
X11591611Y-8792936D02*
X11582087Y-8773889D01*
X11582087Y-8773889D02*
X11582087Y-8716746D01*
X11582087Y-8716746D02*
X11591611Y-8697698D01*
X11591611Y-8697698D02*
X11601134Y-8688174D01*
X11601134Y-8688174D02*
X11620182Y-8678650D01*
X11620182Y-8678650D02*
X11658277Y-8678650D01*
X11658277Y-8678650D02*
X11677325Y-8688174D01*
X11753515Y-8888174D02*
X11763039Y-8878650D01*
X11763039Y-8878650D02*
X11782087Y-8850079D01*
X11782087Y-8850079D02*
X11791611Y-8831031D01*
X11791611Y-8831031D02*
X11801134Y-8802460D01*
X11801134Y-8802460D02*
X11810658Y-8754841D01*
X11810658Y-8754841D02*
X11810658Y-8716746D01*
X11810658Y-8716746D02*
X11801134Y-8669127D01*
X11801134Y-8669127D02*
X11791611Y-8640555D01*
X11791611Y-8640555D02*
X11782087Y-8621508D01*
X11782087Y-8621508D02*
X11763039Y-8592936D01*
X11763039Y-8592936D02*
X11753515Y-8583412D01*
M02*
