G04 #@! TF.GenerationSoftware,KiCad,Pcbnew,10.0.5*
G04 #@! TF.CreationDate,2026-09-02T13:56:44-07:00*
G04 #@! TF.ProjectId,pcb-03,7063622d-3033-42e6-9b69-6361645f7063,rev?*
G04 #@! TF.SameCoordinates,Original*
G04 #@! TF.FileFunction,Legend,Top*
G04 #@! TF.FilePolarity,Positive*
%FSLAX46Y46*%
G04 Gerber Fmt 4.6, Leading zero omitted, Abs format (unit mm)*
G04 Created by KiCad (PCBNEW 10.0.5) date 2026-09-02 13:56:44*
%MOMM*%
%LPD*%
G01*
G04 APERTURE LIST*
G04 Aperture macros list*
%AMRoundRect*
0 Rectangle with rounded corners*
0 $1 Rounding radius*
0 $2 $3 $4 $5 $6 $7 $8 $9 X,Y pos of 4 corners*
0 Add a 4 corners polygon primitive as box body*
4,1,4,$2,$3,$4,$5,$6,$7,$8,$9,$2,$3,0*
0 Add four circle primitives for the rounded corners*
1,1,$1+$1,$2,$3*
1,1,$1+$1,$4,$5*
1,1,$1+$1,$6,$7*
1,1,$1+$1,$8,$9*
0 Add four rect primitives between the rounded corners*
20,1,$1+$1,$2,$3,$4,$5,0*
20,1,$1+$1,$4,$5,$6,$7,0*
20,1,$1+$1,$6,$7,$8,$9,0*
20,1,$1+$1,$8,$9,$2,$3,0*%
G04 Aperture macros list end*
%ADD10C,0.150000*%
%ADD11C,0.120000*%
%ADD12RoundRect,0.275000X-0.225000X-0.250000X0.225000X-0.250000X0.225000X0.250000X-0.225000X0.250000X0*%
%ADD13RoundRect,0.275000X-0.250000X0.225000X-0.250000X-0.225000X0.250000X-0.225000X0.250000X0.225000X0*%
%ADD14C,2.300000*%
%ADD15RoundRect,0.250000X0.275000X-0.200000X0.275000X0.200000X-0.275000X0.200000X-0.275000X-0.200000X0*%
%ADD16RoundRect,0.150000X0.637500X0.100000X-0.637500X0.100000X-0.637500X-0.100000X0.637500X-0.100000X0*%
%ADD17RoundRect,0.300000X-0.625000X0.350000X-0.625000X-0.350000X0.625000X-0.350000X0.625000X0.350000X0*%
%ADD18O,1.850000X1.300000*%
%ADD19RoundRect,0.200000X0.825000X0.150000X-0.825000X0.150000X-0.825000X-0.150000X0.825000X-0.150000X0*%
%ADD20RoundRect,0.300000X0.625000X-0.350000X0.625000X0.350000X-0.625000X0.350000X-0.625000X-0.350000X0*%
G04 APERTURE END LIST*
D10*
X51583333Y-65454819D02*
X51583333Y-64454819D01*
X51583333Y-64931009D02*
X52154761Y-64931009D01*
X52154761Y-65454819D02*
X52154761Y-64454819D01*
X52821428Y-64454819D02*
X53011904Y-64454819D01*
X53011904Y-64454819D02*
X53107142Y-64502438D01*
X53107142Y-64502438D02*
X53202380Y-64597676D01*
X53202380Y-64597676D02*
X53249999Y-64788152D01*
X53249999Y-64788152D02*
X53249999Y-65121485D01*
X53249999Y-65121485D02*
X53202380Y-65311961D01*
X53202380Y-65311961D02*
X53107142Y-65407200D01*
X53107142Y-65407200D02*
X53011904Y-65454819D01*
X53011904Y-65454819D02*
X52821428Y-65454819D01*
X52821428Y-65454819D02*
X52726190Y-65407200D01*
X52726190Y-65407200D02*
X52630952Y-65311961D01*
X52630952Y-65311961D02*
X52583333Y-65121485D01*
X52583333Y-65121485D02*
X52583333Y-64788152D01*
X52583333Y-64788152D02*
X52630952Y-64597676D01*
X52630952Y-64597676D02*
X52726190Y-64502438D01*
X52726190Y-64502438D02*
X52821428Y-64454819D01*
X53630952Y-65407200D02*
X53773809Y-65454819D01*
X53773809Y-65454819D02*
X54011904Y-65454819D01*
X54011904Y-65454819D02*
X54107142Y-65407200D01*
X54107142Y-65407200D02*
X54154761Y-65359580D01*
X54154761Y-65359580D02*
X54202380Y-65264342D01*
X54202380Y-65264342D02*
X54202380Y-65169104D01*
X54202380Y-65169104D02*
X54154761Y-65073866D01*
X54154761Y-65073866D02*
X54107142Y-65026247D01*
X54107142Y-65026247D02*
X54011904Y-64978628D01*
X54011904Y-64978628D02*
X53821428Y-64931009D01*
X53821428Y-64931009D02*
X53726190Y-64883390D01*
X53726190Y-64883390D02*
X53678571Y-64835771D01*
X53678571Y-64835771D02*
X53630952Y-64740533D01*
X53630952Y-64740533D02*
X53630952Y-64645295D01*
X53630952Y-64645295D02*
X53678571Y-64550057D01*
X53678571Y-64550057D02*
X53726190Y-64502438D01*
X53726190Y-64502438D02*
X53821428Y-64454819D01*
X53821428Y-64454819D02*
X54059523Y-64454819D01*
X54059523Y-64454819D02*
X54202380Y-64502438D01*
X54488095Y-64454819D02*
X55059523Y-64454819D01*
X54773809Y-65454819D02*
X54773809Y-64454819D01*
X62166667Y-72604819D02*
X62166667Y-71604819D01*
X62166667Y-71604819D02*
X62547619Y-71604819D01*
X62547619Y-71604819D02*
X62642857Y-71652438D01*
X62642857Y-71652438D02*
X62690476Y-71700057D01*
X62690476Y-71700057D02*
X62738095Y-71795295D01*
X62738095Y-71795295D02*
X62738095Y-71938152D01*
X62738095Y-71938152D02*
X62690476Y-72033390D01*
X62690476Y-72033390D02*
X62642857Y-72081009D01*
X62642857Y-72081009D02*
X62547619Y-72128628D01*
X62547619Y-72128628D02*
X62166667Y-72128628D01*
X63738095Y-72509580D02*
X63690476Y-72557200D01*
X63690476Y-72557200D02*
X63547619Y-72604819D01*
X63547619Y-72604819D02*
X63452381Y-72604819D01*
X63452381Y-72604819D02*
X63309524Y-72557200D01*
X63309524Y-72557200D02*
X63214286Y-72461961D01*
X63214286Y-72461961D02*
X63166667Y-72366723D01*
X63166667Y-72366723D02*
X63119048Y-72176247D01*
X63119048Y-72176247D02*
X63119048Y-72033390D01*
X63119048Y-72033390D02*
X63166667Y-71842914D01*
X63166667Y-71842914D02*
X63214286Y-71747676D01*
X63214286Y-71747676D02*
X63309524Y-71652438D01*
X63309524Y-71652438D02*
X63452381Y-71604819D01*
X63452381Y-71604819D02*
X63547619Y-71604819D01*
X63547619Y-71604819D02*
X63690476Y-71652438D01*
X63690476Y-71652438D02*
X63738095Y-71700057D01*
X64500000Y-72081009D02*
X64642857Y-72128628D01*
X64642857Y-72128628D02*
X64690476Y-72176247D01*
X64690476Y-72176247D02*
X64738095Y-72271485D01*
X64738095Y-72271485D02*
X64738095Y-72414342D01*
X64738095Y-72414342D02*
X64690476Y-72509580D01*
X64690476Y-72509580D02*
X64642857Y-72557200D01*
X64642857Y-72557200D02*
X64547619Y-72604819D01*
X64547619Y-72604819D02*
X64166667Y-72604819D01*
X64166667Y-72604819D02*
X64166667Y-71604819D01*
X64166667Y-71604819D02*
X64500000Y-71604819D01*
X64500000Y-71604819D02*
X64595238Y-71652438D01*
X64595238Y-71652438D02*
X64642857Y-71700057D01*
X64642857Y-71700057D02*
X64690476Y-71795295D01*
X64690476Y-71795295D02*
X64690476Y-71890533D01*
X64690476Y-71890533D02*
X64642857Y-71985771D01*
X64642857Y-71985771D02*
X64595238Y-72033390D01*
X64595238Y-72033390D02*
X64500000Y-72081009D01*
X64500000Y-72081009D02*
X64166667Y-72081009D01*
X65166667Y-72223866D02*
X65928572Y-72223866D01*
X66595238Y-71604819D02*
X66690476Y-71604819D01*
X66690476Y-71604819D02*
X66785714Y-71652438D01*
X66785714Y-71652438D02*
X66833333Y-71700057D01*
X66833333Y-71700057D02*
X66880952Y-71795295D01*
X66880952Y-71795295D02*
X66928571Y-71985771D01*
X66928571Y-71985771D02*
X66928571Y-72223866D01*
X66928571Y-72223866D02*
X66880952Y-72414342D01*
X66880952Y-72414342D02*
X66833333Y-72509580D01*
X66833333Y-72509580D02*
X66785714Y-72557200D01*
X66785714Y-72557200D02*
X66690476Y-72604819D01*
X66690476Y-72604819D02*
X66595238Y-72604819D01*
X66595238Y-72604819D02*
X66500000Y-72557200D01*
X66500000Y-72557200D02*
X66452381Y-72509580D01*
X66452381Y-72509580D02*
X66404762Y-72414342D01*
X66404762Y-72414342D02*
X66357143Y-72223866D01*
X66357143Y-72223866D02*
X66357143Y-71985771D01*
X66357143Y-71985771D02*
X66404762Y-71795295D01*
X66404762Y-71795295D02*
X66452381Y-71700057D01*
X66452381Y-71700057D02*
X66500000Y-71652438D01*
X66500000Y-71652438D02*
X66595238Y-71604819D01*
X67261905Y-71604819D02*
X67880952Y-71604819D01*
X67880952Y-71604819D02*
X67547619Y-71985771D01*
X67547619Y-71985771D02*
X67690476Y-71985771D01*
X67690476Y-71985771D02*
X67785714Y-72033390D01*
X67785714Y-72033390D02*
X67833333Y-72081009D01*
X67833333Y-72081009D02*
X67880952Y-72176247D01*
X67880952Y-72176247D02*
X67880952Y-72414342D01*
X67880952Y-72414342D02*
X67833333Y-72509580D01*
X67833333Y-72509580D02*
X67785714Y-72557200D01*
X67785714Y-72557200D02*
X67690476Y-72604819D01*
X67690476Y-72604819D02*
X67404762Y-72604819D01*
X67404762Y-72604819D02*
X67309524Y-72557200D01*
X67309524Y-72557200D02*
X67261905Y-72509580D01*
X86681009Y-68214285D02*
X86681009Y-67880952D01*
X87204819Y-67738095D02*
X87204819Y-68214285D01*
X87204819Y-68214285D02*
X86204819Y-68214285D01*
X86204819Y-68214285D02*
X86204819Y-67738095D01*
X86823866Y-67309523D02*
X86823866Y-66547619D01*
X87204819Y-66071428D02*
X86204819Y-66071428D01*
X86204819Y-66071428D02*
X86204819Y-65690476D01*
X86204819Y-65690476D02*
X86252438Y-65595238D01*
X86252438Y-65595238D02*
X86300057Y-65547619D01*
X86300057Y-65547619D02*
X86395295Y-65500000D01*
X86395295Y-65500000D02*
X86538152Y-65500000D01*
X86538152Y-65500000D02*
X86633390Y-65547619D01*
X86633390Y-65547619D02*
X86681009Y-65595238D01*
X86681009Y-65595238D02*
X86728628Y-65690476D01*
X86728628Y-65690476D02*
X86728628Y-66071428D01*
X86919104Y-65119047D02*
X86919104Y-64642857D01*
X87204819Y-65214285D02*
X86204819Y-64880952D01*
X86204819Y-64880952D02*
X87204819Y-64547619D01*
X87204819Y-64214285D02*
X86204819Y-64214285D01*
X86204819Y-64214285D02*
X86204819Y-63833333D01*
X86204819Y-63833333D02*
X86252438Y-63738095D01*
X86252438Y-63738095D02*
X86300057Y-63690476D01*
X86300057Y-63690476D02*
X86395295Y-63642857D01*
X86395295Y-63642857D02*
X86538152Y-63642857D01*
X86538152Y-63642857D02*
X86633390Y-63690476D01*
X86633390Y-63690476D02*
X86681009Y-63738095D01*
X86681009Y-63738095D02*
X86728628Y-63833333D01*
X86728628Y-63833333D02*
X86728628Y-64214285D01*
X86681009Y-63214285D02*
X86681009Y-62880952D01*
X87204819Y-62738095D02*
X87204819Y-63214285D01*
X87204819Y-63214285D02*
X86204819Y-63214285D01*
X86204819Y-63214285D02*
X86204819Y-62738095D01*
X87204819Y-61738095D02*
X86728628Y-62071428D01*
X87204819Y-62309523D02*
X86204819Y-62309523D01*
X86204819Y-62309523D02*
X86204819Y-61928571D01*
X86204819Y-61928571D02*
X86252438Y-61833333D01*
X86252438Y-61833333D02*
X86300057Y-61785714D01*
X86300057Y-61785714D02*
X86395295Y-61738095D01*
X86395295Y-61738095D02*
X86538152Y-61738095D01*
X86538152Y-61738095D02*
X86633390Y-61785714D01*
X86633390Y-61785714D02*
X86681009Y-61833333D01*
X86681009Y-61833333D02*
X86728628Y-61928571D01*
X86728628Y-61928571D02*
X86728628Y-62309523D01*
X68533333Y-67679580D02*
X68485714Y-67727200D01*
X68485714Y-67727200D02*
X68342857Y-67774819D01*
X68342857Y-67774819D02*
X68247619Y-67774819D01*
X68247619Y-67774819D02*
X68104762Y-67727200D01*
X68104762Y-67727200D02*
X68009524Y-67631961D01*
X68009524Y-67631961D02*
X67961905Y-67536723D01*
X67961905Y-67536723D02*
X67914286Y-67346247D01*
X67914286Y-67346247D02*
X67914286Y-67203390D01*
X67914286Y-67203390D02*
X67961905Y-67012914D01*
X67961905Y-67012914D02*
X68009524Y-66917676D01*
X68009524Y-66917676D02*
X68104762Y-66822438D01*
X68104762Y-66822438D02*
X68247619Y-66774819D01*
X68247619Y-66774819D02*
X68342857Y-66774819D01*
X68342857Y-66774819D02*
X68485714Y-66822438D01*
X68485714Y-66822438D02*
X68533333Y-66870057D01*
X69485714Y-67774819D02*
X68914286Y-67774819D01*
X69200000Y-67774819D02*
X69200000Y-66774819D01*
X69200000Y-66774819D02*
X69104762Y-66917676D01*
X69104762Y-66917676D02*
X69009524Y-67012914D01*
X69009524Y-67012914D02*
X68914286Y-67060533D01*
X78139580Y-72666666D02*
X78187200Y-72714285D01*
X78187200Y-72714285D02*
X78234819Y-72857142D01*
X78234819Y-72857142D02*
X78234819Y-72952380D01*
X78234819Y-72952380D02*
X78187200Y-73095237D01*
X78187200Y-73095237D02*
X78091961Y-73190475D01*
X78091961Y-73190475D02*
X77996723Y-73238094D01*
X77996723Y-73238094D02*
X77806247Y-73285713D01*
X77806247Y-73285713D02*
X77663390Y-73285713D01*
X77663390Y-73285713D02*
X77472914Y-73238094D01*
X77472914Y-73238094D02*
X77377676Y-73190475D01*
X77377676Y-73190475D02*
X77282438Y-73095237D01*
X77282438Y-73095237D02*
X77234819Y-72952380D01*
X77234819Y-72952380D02*
X77234819Y-72857142D01*
X77234819Y-72857142D02*
X77282438Y-72714285D01*
X77282438Y-72714285D02*
X77330057Y-72666666D01*
X77234819Y-72333332D02*
X77234819Y-71714285D01*
X77234819Y-71714285D02*
X77615771Y-72047618D01*
X77615771Y-72047618D02*
X77615771Y-71904761D01*
X77615771Y-71904761D02*
X77663390Y-71809523D01*
X77663390Y-71809523D02*
X77711009Y-71761904D01*
X77711009Y-71761904D02*
X77806247Y-71714285D01*
X77806247Y-71714285D02*
X78044342Y-71714285D01*
X78044342Y-71714285D02*
X78139580Y-71761904D01*
X78139580Y-71761904D02*
X78187200Y-71809523D01*
X78187200Y-71809523D02*
X78234819Y-71904761D01*
X78234819Y-71904761D02*
X78234819Y-72190475D01*
X78234819Y-72190475D02*
X78187200Y-72285713D01*
X78187200Y-72285713D02*
X78139580Y-72333332D01*
X64238095Y-57054819D02*
X64238095Y-56054819D01*
X64238095Y-56531009D02*
X64809523Y-56531009D01*
X64809523Y-57054819D02*
X64809523Y-56054819D01*
X65809523Y-57054819D02*
X65238095Y-57054819D01*
X65523809Y-57054819D02*
X65523809Y-56054819D01*
X65523809Y-56054819D02*
X65428571Y-56197676D01*
X65428571Y-56197676D02*
X65333333Y-56292914D01*
X65333333Y-56292914D02*
X65238095Y-56340533D01*
X70803333Y-59179819D02*
X70470000Y-58703628D01*
X70231905Y-59179819D02*
X70231905Y-58179819D01*
X70231905Y-58179819D02*
X70612857Y-58179819D01*
X70612857Y-58179819D02*
X70708095Y-58227438D01*
X70708095Y-58227438D02*
X70755714Y-58275057D01*
X70755714Y-58275057D02*
X70803333Y-58370295D01*
X70803333Y-58370295D02*
X70803333Y-58513152D01*
X70803333Y-58513152D02*
X70755714Y-58608390D01*
X70755714Y-58608390D02*
X70708095Y-58656009D01*
X70708095Y-58656009D02*
X70612857Y-58703628D01*
X70612857Y-58703628D02*
X70231905Y-58703628D01*
X71184286Y-58275057D02*
X71231905Y-58227438D01*
X71231905Y-58227438D02*
X71327143Y-58179819D01*
X71327143Y-58179819D02*
X71565238Y-58179819D01*
X71565238Y-58179819D02*
X71660476Y-58227438D01*
X71660476Y-58227438D02*
X71708095Y-58275057D01*
X71708095Y-58275057D02*
X71755714Y-58370295D01*
X71755714Y-58370295D02*
X71755714Y-58465533D01*
X71755714Y-58465533D02*
X71708095Y-58608390D01*
X71708095Y-58608390D02*
X71136667Y-59179819D01*
X71136667Y-59179819D02*
X71755714Y-59179819D01*
X64988095Y-58979819D02*
X64988095Y-59789342D01*
X64988095Y-59789342D02*
X65035714Y-59884580D01*
X65035714Y-59884580D02*
X65083333Y-59932200D01*
X65083333Y-59932200D02*
X65178571Y-59979819D01*
X65178571Y-59979819D02*
X65369047Y-59979819D01*
X65369047Y-59979819D02*
X65464285Y-59932200D01*
X65464285Y-59932200D02*
X65511904Y-59884580D01*
X65511904Y-59884580D02*
X65559523Y-59789342D01*
X65559523Y-59789342D02*
X65559523Y-58979819D01*
X66559523Y-59979819D02*
X65988095Y-59979819D01*
X66273809Y-59979819D02*
X66273809Y-58979819D01*
X66273809Y-58979819D02*
X66178571Y-59122676D01*
X66178571Y-59122676D02*
X66083333Y-59217914D01*
X66083333Y-59217914D02*
X65988095Y-59265533D01*
X54966666Y-58204819D02*
X54966666Y-58919104D01*
X54966666Y-58919104D02*
X54919047Y-59061961D01*
X54919047Y-59061961D02*
X54823809Y-59157200D01*
X54823809Y-59157200D02*
X54680952Y-59204819D01*
X54680952Y-59204819D02*
X54585714Y-59204819D01*
X55966666Y-59204819D02*
X55395238Y-59204819D01*
X55680952Y-59204819D02*
X55680952Y-58204819D01*
X55680952Y-58204819D02*
X55585714Y-58347676D01*
X55585714Y-58347676D02*
X55490476Y-58442914D01*
X55490476Y-58442914D02*
X55395238Y-58490533D01*
X70858333Y-67394819D02*
X70525000Y-66918628D01*
X70286905Y-67394819D02*
X70286905Y-66394819D01*
X70286905Y-66394819D02*
X70667857Y-66394819D01*
X70667857Y-66394819D02*
X70763095Y-66442438D01*
X70763095Y-66442438D02*
X70810714Y-66490057D01*
X70810714Y-66490057D02*
X70858333Y-66585295D01*
X70858333Y-66585295D02*
X70858333Y-66728152D01*
X70858333Y-66728152D02*
X70810714Y-66823390D01*
X70810714Y-66823390D02*
X70763095Y-66871009D01*
X70763095Y-66871009D02*
X70667857Y-66918628D01*
X70667857Y-66918628D02*
X70286905Y-66918628D01*
X71810714Y-67394819D02*
X71239286Y-67394819D01*
X71525000Y-67394819D02*
X71525000Y-66394819D01*
X71525000Y-66394819D02*
X71429762Y-66537676D01*
X71429762Y-66537676D02*
X71334524Y-66632914D01*
X71334524Y-66632914D02*
X71239286Y-66680533D01*
X60528333Y-60429819D02*
X60195000Y-59953628D01*
X59956905Y-60429819D02*
X59956905Y-59429819D01*
X59956905Y-59429819D02*
X60337857Y-59429819D01*
X60337857Y-59429819D02*
X60433095Y-59477438D01*
X60433095Y-59477438D02*
X60480714Y-59525057D01*
X60480714Y-59525057D02*
X60528333Y-59620295D01*
X60528333Y-59620295D02*
X60528333Y-59763152D01*
X60528333Y-59763152D02*
X60480714Y-59858390D01*
X60480714Y-59858390D02*
X60433095Y-59906009D01*
X60433095Y-59906009D02*
X60337857Y-59953628D01*
X60337857Y-59953628D02*
X59956905Y-59953628D01*
X60861667Y-59429819D02*
X61480714Y-59429819D01*
X61480714Y-59429819D02*
X61147381Y-59810771D01*
X61147381Y-59810771D02*
X61290238Y-59810771D01*
X61290238Y-59810771D02*
X61385476Y-59858390D01*
X61385476Y-59858390D02*
X61433095Y-59906009D01*
X61433095Y-59906009D02*
X61480714Y-60001247D01*
X61480714Y-60001247D02*
X61480714Y-60239342D01*
X61480714Y-60239342D02*
X61433095Y-60334580D01*
X61433095Y-60334580D02*
X61385476Y-60382200D01*
X61385476Y-60382200D02*
X61290238Y-60429819D01*
X61290238Y-60429819D02*
X61004524Y-60429819D01*
X61004524Y-60429819D02*
X60909286Y-60382200D01*
X60909286Y-60382200D02*
X60861667Y-60334580D01*
X76608333Y-67654580D02*
X76560714Y-67702200D01*
X76560714Y-67702200D02*
X76417857Y-67749819D01*
X76417857Y-67749819D02*
X76322619Y-67749819D01*
X76322619Y-67749819D02*
X76179762Y-67702200D01*
X76179762Y-67702200D02*
X76084524Y-67606961D01*
X76084524Y-67606961D02*
X76036905Y-67511723D01*
X76036905Y-67511723D02*
X75989286Y-67321247D01*
X75989286Y-67321247D02*
X75989286Y-67178390D01*
X75989286Y-67178390D02*
X76036905Y-66987914D01*
X76036905Y-66987914D02*
X76084524Y-66892676D01*
X76084524Y-66892676D02*
X76179762Y-66797438D01*
X76179762Y-66797438D02*
X76322619Y-66749819D01*
X76322619Y-66749819D02*
X76417857Y-66749819D01*
X76417857Y-66749819D02*
X76560714Y-66797438D01*
X76560714Y-66797438D02*
X76608333Y-66845057D01*
X76989286Y-66845057D02*
X77036905Y-66797438D01*
X77036905Y-66797438D02*
X77132143Y-66749819D01*
X77132143Y-66749819D02*
X77370238Y-66749819D01*
X77370238Y-66749819D02*
X77465476Y-66797438D01*
X77465476Y-66797438D02*
X77513095Y-66845057D01*
X77513095Y-66845057D02*
X77560714Y-66940295D01*
X77560714Y-66940295D02*
X77560714Y-67035533D01*
X77560714Y-67035533D02*
X77513095Y-67178390D01*
X77513095Y-67178390D02*
X76941667Y-67749819D01*
X76941667Y-67749819D02*
X77560714Y-67749819D01*
X70488095Y-72554819D02*
X70488095Y-71554819D01*
X70488095Y-72031009D02*
X71059523Y-72031009D01*
X71059523Y-72554819D02*
X71059523Y-71554819D01*
X71488095Y-71650057D02*
X71535714Y-71602438D01*
X71535714Y-71602438D02*
X71630952Y-71554819D01*
X71630952Y-71554819D02*
X71869047Y-71554819D01*
X71869047Y-71554819D02*
X71964285Y-71602438D01*
X71964285Y-71602438D02*
X72011904Y-71650057D01*
X72011904Y-71650057D02*
X72059523Y-71745295D01*
X72059523Y-71745295D02*
X72059523Y-71840533D01*
X72059523Y-71840533D02*
X72011904Y-71983390D01*
X72011904Y-71983390D02*
X71440476Y-72554819D01*
X71440476Y-72554819D02*
X72059523Y-72554819D01*
X75163095Y-58979819D02*
X75163095Y-59789342D01*
X75163095Y-59789342D02*
X75210714Y-59884580D01*
X75210714Y-59884580D02*
X75258333Y-59932200D01*
X75258333Y-59932200D02*
X75353571Y-59979819D01*
X75353571Y-59979819D02*
X75544047Y-59979819D01*
X75544047Y-59979819D02*
X75639285Y-59932200D01*
X75639285Y-59932200D02*
X75686904Y-59884580D01*
X75686904Y-59884580D02*
X75734523Y-59789342D01*
X75734523Y-59789342D02*
X75734523Y-58979819D01*
X76163095Y-59075057D02*
X76210714Y-59027438D01*
X76210714Y-59027438D02*
X76305952Y-58979819D01*
X76305952Y-58979819D02*
X76544047Y-58979819D01*
X76544047Y-58979819D02*
X76639285Y-59027438D01*
X76639285Y-59027438D02*
X76686904Y-59075057D01*
X76686904Y-59075057D02*
X76734523Y-59170295D01*
X76734523Y-59170295D02*
X76734523Y-59265533D01*
X76734523Y-59265533D02*
X76686904Y-59408390D01*
X76686904Y-59408390D02*
X76115476Y-59979819D01*
X76115476Y-59979819D02*
X76734523Y-59979819D01*
X79116666Y-56454819D02*
X79116666Y-57169104D01*
X79116666Y-57169104D02*
X79069047Y-57311961D01*
X79069047Y-57311961D02*
X78973809Y-57407200D01*
X78973809Y-57407200D02*
X78830952Y-57454819D01*
X78830952Y-57454819D02*
X78735714Y-57454819D01*
X79545238Y-56550057D02*
X79592857Y-56502438D01*
X79592857Y-56502438D02*
X79688095Y-56454819D01*
X79688095Y-56454819D02*
X79926190Y-56454819D01*
X79926190Y-56454819D02*
X80021428Y-56502438D01*
X80021428Y-56502438D02*
X80069047Y-56550057D01*
X80069047Y-56550057D02*
X80116666Y-56645295D01*
X80116666Y-56645295D02*
X80116666Y-56740533D01*
X80116666Y-56740533D02*
X80069047Y-56883390D01*
X80069047Y-56883390D02*
X79497619Y-57454819D01*
X79497619Y-57454819D02*
X80116666Y-57454819D01*
G04 #@! TO.C,C1*
D11*
X66059420Y-66740000D02*
X66340580Y-66740000D01*
X66059420Y-67760000D02*
X66340580Y-67760000D01*
G04 #@! TO.C,C3*
X78690000Y-72359420D02*
X78690000Y-72640580D01*
X79710000Y-72359420D02*
X79710000Y-72640580D01*
G04 #@! TO.C,R2*
X70377500Y-61212258D02*
X70377500Y-60737742D01*
X71422500Y-61212258D02*
X71422500Y-60737742D01*
G04 #@! TO.C,U1*
X63440000Y-60640000D02*
X68060000Y-60640000D01*
X68060000Y-66110000D02*
X63440000Y-66110000D01*
X69610000Y-65655000D02*
X69940000Y-65415000D01*
X69940000Y-65895000D01*
X69610000Y-65655000D01*
G36*
X69940000Y-65895000D02*
G01*
X69610000Y-65655000D01*
X69940000Y-65415000D01*
X69940000Y-65895000D01*
G37*
G04 #@! TO.C,J1*
X51140000Y-59940000D02*
X51140000Y-70060000D01*
X51140000Y-62500000D02*
X55500000Y-62500000D01*
X51140000Y-70060000D02*
X58960000Y-70060000D01*
X53400000Y-61200000D02*
X51140000Y-61200000D01*
X53400000Y-61700000D02*
X51140000Y-61700000D01*
X55500000Y-62500000D02*
X55500000Y-67500000D01*
X55500000Y-67500000D02*
X51140000Y-67500000D01*
X57360000Y-59940000D02*
X57360000Y-60860000D01*
X57360000Y-60860000D02*
X58960000Y-60860000D01*
X57360000Y-61140000D02*
X57360000Y-60860000D01*
X57360000Y-61140000D02*
X58575000Y-61140000D01*
X57360000Y-69140000D02*
X57360000Y-68860000D01*
X57360000Y-70060000D02*
X57360000Y-69140000D01*
X58960000Y-59940000D02*
X51140000Y-59940000D01*
X58960000Y-60860000D02*
X58960000Y-59940000D01*
X58960000Y-69140000D02*
X57360000Y-69140000D01*
X58960000Y-70060000D02*
X58960000Y-69140000D01*
X53400000Y-60700000D02*
X55000000Y-60700000D01*
X55000000Y-61700000D01*
X53400000Y-61700000D01*
X53400000Y-60700000D01*
X53400000Y-68300000D02*
X55000000Y-68300000D01*
X55000000Y-69300000D01*
X53400000Y-69300000D01*
X53400000Y-68300000D01*
G04 #@! TO.C,R1*
X70377500Y-64712258D02*
X70377500Y-64237742D01*
X71422500Y-64712258D02*
X71422500Y-64237742D01*
G04 #@! TO.C,R3*
X60102500Y-62462258D02*
X60102500Y-61987742D01*
X61147500Y-62462258D02*
X61147500Y-61987742D01*
G04 #@! TO.C,C2*
X74159420Y-66740000D02*
X74440580Y-66740000D01*
X74159420Y-67760000D02*
X74440580Y-67760000D01*
G04 #@! TO.C,U2*
X73865000Y-60565000D02*
X77985000Y-60565000D01*
X73865000Y-60660000D02*
X73865000Y-60565000D01*
X73865000Y-65685000D02*
X73865000Y-65590000D01*
X77985000Y-60565000D02*
X77985000Y-60660000D01*
X77985000Y-65590000D02*
X77985000Y-65685000D01*
X77985000Y-65685000D02*
X73865000Y-65685000D01*
X78525000Y-65595000D02*
X78765000Y-65925000D01*
X78285000Y-65925000D01*
X78525000Y-65595000D01*
G36*
X78765000Y-65925000D02*
G01*
X78285000Y-65925000D01*
X78525000Y-65595000D01*
X78765000Y-65925000D01*
G37*
G04 #@! TO.C,J2*
X80790000Y-55940000D02*
X80790000Y-56860000D01*
X80790000Y-56860000D02*
X82390000Y-56860000D01*
X80790000Y-73140000D02*
X80790000Y-74060000D01*
X80790000Y-74060000D02*
X88610000Y-74060000D01*
X82390000Y-55940000D02*
X82390000Y-56860000D01*
X82390000Y-56860000D02*
X82390000Y-57140000D01*
X82390000Y-72860000D02*
X81175000Y-72860000D01*
X82390000Y-72860000D02*
X82390000Y-73140000D01*
X82390000Y-73140000D02*
X80790000Y-73140000D01*
X82390000Y-74060000D02*
X82390000Y-73140000D01*
X84250000Y-58500000D02*
X88610000Y-58500000D01*
X84250000Y-71500000D02*
X84250000Y-58500000D01*
X86350000Y-72300000D02*
X88610000Y-72300000D01*
X86350000Y-72800000D02*
X88610000Y-72800000D01*
X88610000Y-55940000D02*
X80790000Y-55940000D01*
X88610000Y-71500000D02*
X84250000Y-71500000D01*
X88610000Y-74060000D02*
X88610000Y-55940000D01*
X84750000Y-56700000D02*
X86350000Y-56700000D01*
X86350000Y-57700000D01*
X84750000Y-57700000D01*
X84750000Y-56700000D01*
X84750000Y-72300000D02*
X86350000Y-72300000D01*
X86350000Y-73300000D01*
X84750000Y-73300000D01*
X84750000Y-72300000D01*
G04 #@! TD*
%LPC*%
D12*
G04 #@! TO.C,C1*
X65425000Y-67250000D03*
X66975000Y-67250000D03*
G04 #@! TD*
D13*
G04 #@! TO.C,C3*
X79200000Y-71725000D03*
X79200000Y-73275000D03*
G04 #@! TD*
D14*
G04 #@! TO.C,H1*
X61750000Y-57750000D03*
G04 #@! TD*
D15*
G04 #@! TO.C,R2*
X70900000Y-61800000D03*
X70900000Y-60150000D03*
G04 #@! TD*
D16*
G04 #@! TO.C,U1*
X68612500Y-65650000D03*
X68612500Y-65000000D03*
X68612500Y-64350000D03*
X68612500Y-63700000D03*
X68612500Y-63050000D03*
X68612500Y-62400000D03*
X68612500Y-61750000D03*
X68612500Y-61100000D03*
X62887500Y-61100000D03*
X62887500Y-61750000D03*
X62887500Y-62400000D03*
X62887500Y-63050000D03*
X62887500Y-63700000D03*
X62887500Y-64350000D03*
X62887500Y-65000000D03*
X62887500Y-65650000D03*
G04 #@! TD*
D17*
G04 #@! TO.C,J1*
X57500000Y-62000000D03*
D18*
X57500000Y-64000000D03*
X57500000Y-66000000D03*
X57500000Y-68000000D03*
G04 #@! TD*
D15*
G04 #@! TO.C,R1*
X70900000Y-65300000D03*
X70900000Y-63650000D03*
G04 #@! TD*
G04 #@! TO.C,R3*
X60625000Y-63050000D03*
X60625000Y-61400000D03*
G04 #@! TD*
D12*
G04 #@! TO.C,C2*
X73525000Y-67250000D03*
X75075000Y-67250000D03*
G04 #@! TD*
D14*
G04 #@! TO.C,H2*
X74750000Y-72000000D03*
G04 #@! TD*
D19*
G04 #@! TO.C,U2*
X78400000Y-65030000D03*
X78400000Y-63760000D03*
X78400000Y-62490000D03*
X78400000Y-61220000D03*
X73450000Y-61220000D03*
X73450000Y-62490000D03*
X73450000Y-63760000D03*
X73450000Y-65030000D03*
G04 #@! TD*
D20*
G04 #@! TO.C,J2*
X82250000Y-72000000D03*
D18*
X82250000Y-70000000D03*
X82250000Y-68000000D03*
X82250000Y-66000000D03*
X82250000Y-64000000D03*
X82250000Y-62000000D03*
X82250000Y-60000000D03*
X82250000Y-58000000D03*
G04 #@! TD*
%LPD*%
M02*
