G04 #@! TF.GenerationSoftware,KiCad,Pcbnew,10.0.5*
G04 #@! TF.CreationDate,2026-09-02T14:17:34-07:00*
G04 #@! TF.ProjectId,pcb-03,7063622d-3033-42e6-9b69-6361645f7063,rev?*
G04 #@! TF.SameCoordinates,Original*
G04 #@! TF.FileFunction,Legend,Bot*
G04 #@! TF.FilePolarity,Positive*
%FSLAX46Y46*%
G04 Gerber Fmt 4.6, Leading zero omitted, Abs format (unit mm)*
G04 Created by KiCad (PCBNEW 10.0.5) date 2026-09-02 14:17:34*
%MOMM*%
%LPD*%
G01*
G04 APERTURE LIST*
G04 Aperture macros list*
%AMRoundRect*
0 Rectangle with rounded corners*
0 $1 Rounding radius*
0 $2 $3 $4 $5 $6 $7 $8 $9 X,Y pos of 4 corners*
0 Add a 4 corners polygon primitive as box body*
4,1,4,$2,$3,$4,$5,$6,$7,$8,$9,$2,$3,0*
0 Add four circle primitives for the rounded corners*
1,1,$1+$1,$2,$3*
1,1,$1+$1,$4,$5*
1,1,$1+$1,$6,$7*
1,1,$1+$1,$8,$9*
0 Add four rect primitives between the rounded corners*
20,1,$1+$1,$2,$3,$4,$5,0*
20,1,$1+$1,$4,$5,$6,$7,0*
20,1,$1+$1,$6,$7,$8,$9,0*
20,1,$1+$1,$8,$9,$2,$3,0*%
G04 Aperture macros list end*
%ADD10C,0.150000*%
%ADD11C,2.300000*%
%ADD12RoundRect,0.300000X-0.625000X0.350000X-0.625000X-0.350000X0.625000X-0.350000X0.625000X0.350000X0*%
%ADD13O,1.850000X1.300000*%
%ADD14RoundRect,0.300000X0.625000X-0.350000X0.625000X0.350000X-0.625000X0.350000X-0.625000X-0.350000X0*%
G04 APERTURE END LIST*
D10*
X76857144Y-59562295D02*
X76857144Y-60133723D01*
X76857144Y-60133723D02*
X76895239Y-60248009D01*
X76895239Y-60248009D02*
X76971430Y-60324200D01*
X76971430Y-60324200D02*
X77085715Y-60362295D01*
X77085715Y-60362295D02*
X77161906Y-60362295D01*
X76057144Y-60362295D02*
X76514287Y-60362295D01*
X76285715Y-60362295D02*
X76285715Y-59562295D01*
X76285715Y-59562295D02*
X76361906Y-59676580D01*
X76361906Y-59676580D02*
X76438096Y-59752771D01*
X76438096Y-59752771D02*
X76514287Y-59790866D01*
X75104762Y-60362295D02*
X75104762Y-59562295D01*
X75104762Y-59943247D02*
X74647619Y-59943247D01*
X74647619Y-60362295D02*
X74647619Y-59562295D01*
X74114286Y-59562295D02*
X73961905Y-59562295D01*
X73961905Y-59562295D02*
X73885715Y-59600390D01*
X73885715Y-59600390D02*
X73809524Y-59676580D01*
X73809524Y-59676580D02*
X73771429Y-59828961D01*
X73771429Y-59828961D02*
X73771429Y-60095628D01*
X73771429Y-60095628D02*
X73809524Y-60248009D01*
X73809524Y-60248009D02*
X73885715Y-60324200D01*
X73885715Y-60324200D02*
X73961905Y-60362295D01*
X73961905Y-60362295D02*
X74114286Y-60362295D01*
X74114286Y-60362295D02*
X74190477Y-60324200D01*
X74190477Y-60324200D02*
X74266667Y-60248009D01*
X74266667Y-60248009D02*
X74304763Y-60095628D01*
X74304763Y-60095628D02*
X74304763Y-59828961D01*
X74304763Y-59828961D02*
X74266667Y-59676580D01*
X74266667Y-59676580D02*
X74190477Y-59600390D01*
X74190477Y-59600390D02*
X74114286Y-59562295D01*
X73466668Y-60324200D02*
X73352382Y-60362295D01*
X73352382Y-60362295D02*
X73161906Y-60362295D01*
X73161906Y-60362295D02*
X73085715Y-60324200D01*
X73085715Y-60324200D02*
X73047620Y-60286104D01*
X73047620Y-60286104D02*
X73009525Y-60209914D01*
X73009525Y-60209914D02*
X73009525Y-60133723D01*
X73009525Y-60133723D02*
X73047620Y-60057533D01*
X73047620Y-60057533D02*
X73085715Y-60019438D01*
X73085715Y-60019438D02*
X73161906Y-59981342D01*
X73161906Y-59981342D02*
X73314287Y-59943247D01*
X73314287Y-59943247D02*
X73390477Y-59905152D01*
X73390477Y-59905152D02*
X73428572Y-59867057D01*
X73428572Y-59867057D02*
X73466668Y-59790866D01*
X73466668Y-59790866D02*
X73466668Y-59714676D01*
X73466668Y-59714676D02*
X73428572Y-59638485D01*
X73428572Y-59638485D02*
X73390477Y-59600390D01*
X73390477Y-59600390D02*
X73314287Y-59562295D01*
X73314287Y-59562295D02*
X73123810Y-59562295D01*
X73123810Y-59562295D02*
X73009525Y-59600390D01*
X72780953Y-59562295D02*
X72323810Y-59562295D01*
X72552382Y-60362295D02*
X72552382Y-59562295D01*
X72057143Y-60286104D02*
X72019048Y-60324200D01*
X72019048Y-60324200D02*
X72057143Y-60362295D01*
X72057143Y-60362295D02*
X72095239Y-60324200D01*
X72095239Y-60324200D02*
X72057143Y-60286104D01*
X72057143Y-60286104D02*
X72057143Y-60362295D01*
X72057143Y-59867057D02*
X72019048Y-59905152D01*
X72019048Y-59905152D02*
X72057143Y-59943247D01*
X72057143Y-59943247D02*
X72095239Y-59905152D01*
X72095239Y-59905152D02*
X72057143Y-59867057D01*
X72057143Y-59867057D02*
X72057143Y-59943247D01*
X70647620Y-60362295D02*
X71104763Y-60362295D01*
X70876191Y-60362295D02*
X70876191Y-59562295D01*
X70876191Y-59562295D02*
X70952382Y-59676580D01*
X70952382Y-59676580D02*
X71028572Y-59752771D01*
X71028572Y-59752771D02*
X71104763Y-59790866D01*
X69276191Y-59600390D02*
X69352381Y-59562295D01*
X69352381Y-59562295D02*
X69466667Y-59562295D01*
X69466667Y-59562295D02*
X69580953Y-59600390D01*
X69580953Y-59600390D02*
X69657143Y-59676580D01*
X69657143Y-59676580D02*
X69695238Y-59752771D01*
X69695238Y-59752771D02*
X69733334Y-59905152D01*
X69733334Y-59905152D02*
X69733334Y-60019438D01*
X69733334Y-60019438D02*
X69695238Y-60171819D01*
X69695238Y-60171819D02*
X69657143Y-60248009D01*
X69657143Y-60248009D02*
X69580953Y-60324200D01*
X69580953Y-60324200D02*
X69466667Y-60362295D01*
X69466667Y-60362295D02*
X69390476Y-60362295D01*
X69390476Y-60362295D02*
X69276191Y-60324200D01*
X69276191Y-60324200D02*
X69238095Y-60286104D01*
X69238095Y-60286104D02*
X69238095Y-60019438D01*
X69238095Y-60019438D02*
X69390476Y-60019438D01*
X68895238Y-60362295D02*
X68895238Y-59562295D01*
X68895238Y-59562295D02*
X68438095Y-60362295D01*
X68438095Y-60362295D02*
X68438095Y-59562295D01*
X68057143Y-60362295D02*
X68057143Y-59562295D01*
X68057143Y-59562295D02*
X67866667Y-59562295D01*
X67866667Y-59562295D02*
X67752381Y-59600390D01*
X67752381Y-59600390D02*
X67676191Y-59676580D01*
X67676191Y-59676580D02*
X67638096Y-59752771D01*
X67638096Y-59752771D02*
X67600000Y-59905152D01*
X67600000Y-59905152D02*
X67600000Y-60019438D01*
X67600000Y-60019438D02*
X67638096Y-60171819D01*
X67638096Y-60171819D02*
X67676191Y-60248009D01*
X67676191Y-60248009D02*
X67752381Y-60324200D01*
X67752381Y-60324200D02*
X67866667Y-60362295D01*
X67866667Y-60362295D02*
X68057143Y-60362295D01*
X66457143Y-60628961D02*
X66457143Y-59486104D01*
X65314286Y-59638485D02*
X65276190Y-59600390D01*
X65276190Y-59600390D02*
X65200000Y-59562295D01*
X65200000Y-59562295D02*
X65009524Y-59562295D01*
X65009524Y-59562295D02*
X64933333Y-59600390D01*
X64933333Y-59600390D02*
X64895238Y-59638485D01*
X64895238Y-59638485D02*
X64857143Y-59714676D01*
X64857143Y-59714676D02*
X64857143Y-59790866D01*
X64857143Y-59790866D02*
X64895238Y-59905152D01*
X64895238Y-59905152D02*
X65352381Y-60362295D01*
X65352381Y-60362295D02*
X64857143Y-60362295D01*
X63980952Y-59562295D02*
X63485714Y-59562295D01*
X63485714Y-59562295D02*
X63752380Y-59867057D01*
X63752380Y-59867057D02*
X63638095Y-59867057D01*
X63638095Y-59867057D02*
X63561904Y-59905152D01*
X63561904Y-59905152D02*
X63523809Y-59943247D01*
X63523809Y-59943247D02*
X63485714Y-60019438D01*
X63485714Y-60019438D02*
X63485714Y-60209914D01*
X63485714Y-60209914D02*
X63523809Y-60286104D01*
X63523809Y-60286104D02*
X63561904Y-60324200D01*
X63561904Y-60324200D02*
X63638095Y-60362295D01*
X63638095Y-60362295D02*
X63866666Y-60362295D01*
X63866666Y-60362295D02*
X63942857Y-60324200D01*
X63942857Y-60324200D02*
X63980952Y-60286104D01*
X63257142Y-59562295D02*
X62990475Y-60362295D01*
X62990475Y-60362295D02*
X62723809Y-59562295D01*
X62533333Y-59562295D02*
X62038095Y-59562295D01*
X62038095Y-59562295D02*
X62304761Y-59867057D01*
X62304761Y-59867057D02*
X62190476Y-59867057D01*
X62190476Y-59867057D02*
X62114285Y-59905152D01*
X62114285Y-59905152D02*
X62076190Y-59943247D01*
X62076190Y-59943247D02*
X62038095Y-60019438D01*
X62038095Y-60019438D02*
X62038095Y-60209914D01*
X62038095Y-60209914D02*
X62076190Y-60286104D01*
X62076190Y-60286104D02*
X62114285Y-60324200D01*
X62114285Y-60324200D02*
X62190476Y-60362295D01*
X62190476Y-60362295D02*
X62419047Y-60362295D01*
X62419047Y-60362295D02*
X62495238Y-60324200D01*
X62495238Y-60324200D02*
X62533333Y-60286104D01*
X60895237Y-60628961D02*
X60895237Y-59486104D01*
X59790475Y-59562295D02*
X59295237Y-59562295D01*
X59295237Y-59562295D02*
X59561903Y-59867057D01*
X59561903Y-59867057D02*
X59447618Y-59867057D01*
X59447618Y-59867057D02*
X59371427Y-59905152D01*
X59371427Y-59905152D02*
X59333332Y-59943247D01*
X59333332Y-59943247D02*
X59295237Y-60019438D01*
X59295237Y-60019438D02*
X59295237Y-60209914D01*
X59295237Y-60209914D02*
X59333332Y-60286104D01*
X59333332Y-60286104D02*
X59371427Y-60324200D01*
X59371427Y-60324200D02*
X59447618Y-60362295D01*
X59447618Y-60362295D02*
X59676189Y-60362295D01*
X59676189Y-60362295D02*
X59752380Y-60324200D01*
X59752380Y-60324200D02*
X59790475Y-60286104D01*
X58380951Y-60324200D02*
X58266665Y-60362295D01*
X58266665Y-60362295D02*
X58076189Y-60362295D01*
X58076189Y-60362295D02*
X57999998Y-60324200D01*
X57999998Y-60324200D02*
X57961903Y-60286104D01*
X57961903Y-60286104D02*
X57923808Y-60209914D01*
X57923808Y-60209914D02*
X57923808Y-60133723D01*
X57923808Y-60133723D02*
X57961903Y-60057533D01*
X57961903Y-60057533D02*
X57999998Y-60019438D01*
X57999998Y-60019438D02*
X58076189Y-59981342D01*
X58076189Y-59981342D02*
X58228570Y-59943247D01*
X58228570Y-59943247D02*
X58304760Y-59905152D01*
X58304760Y-59905152D02*
X58342855Y-59867057D01*
X58342855Y-59867057D02*
X58380951Y-59790866D01*
X58380951Y-59790866D02*
X58380951Y-59714676D01*
X58380951Y-59714676D02*
X58342855Y-59638485D01*
X58342855Y-59638485D02*
X58304760Y-59600390D01*
X58304760Y-59600390D02*
X58228570Y-59562295D01*
X58228570Y-59562295D02*
X58038093Y-59562295D01*
X58038093Y-59562295D02*
X57923808Y-59600390D01*
X57580950Y-60362295D02*
X57580950Y-59562295D01*
X57580950Y-59562295D02*
X57390474Y-59562295D01*
X57390474Y-59562295D02*
X57276188Y-59600390D01*
X57276188Y-59600390D02*
X57199998Y-59676580D01*
X57199998Y-59676580D02*
X57161903Y-59752771D01*
X57161903Y-59752771D02*
X57123807Y-59905152D01*
X57123807Y-59905152D02*
X57123807Y-60019438D01*
X57123807Y-60019438D02*
X57161903Y-60171819D01*
X57161903Y-60171819D02*
X57199998Y-60248009D01*
X57199998Y-60248009D02*
X57276188Y-60324200D01*
X57276188Y-60324200D02*
X57390474Y-60362295D01*
X57390474Y-60362295D02*
X57580950Y-60362295D01*
X56819046Y-60133723D02*
X56438093Y-60133723D01*
X56895236Y-60362295D02*
X56628569Y-59562295D01*
X56628569Y-59562295D02*
X56361903Y-60362295D01*
X55295236Y-60628961D02*
X55295236Y-59486104D01*
X53771426Y-59828961D02*
X53771426Y-60362295D01*
X53961902Y-59524200D02*
X54152379Y-60095628D01*
X54152379Y-60095628D02*
X53657140Y-60095628D01*
X52780950Y-60324200D02*
X52666664Y-60362295D01*
X52666664Y-60362295D02*
X52476188Y-60362295D01*
X52476188Y-60362295D02*
X52399997Y-60324200D01*
X52399997Y-60324200D02*
X52361902Y-60286104D01*
X52361902Y-60286104D02*
X52323807Y-60209914D01*
X52323807Y-60209914D02*
X52323807Y-60133723D01*
X52323807Y-60133723D02*
X52361902Y-60057533D01*
X52361902Y-60057533D02*
X52399997Y-60019438D01*
X52399997Y-60019438D02*
X52476188Y-59981342D01*
X52476188Y-59981342D02*
X52628569Y-59943247D01*
X52628569Y-59943247D02*
X52704759Y-59905152D01*
X52704759Y-59905152D02*
X52742854Y-59867057D01*
X52742854Y-59867057D02*
X52780950Y-59790866D01*
X52780950Y-59790866D02*
X52780950Y-59714676D01*
X52780950Y-59714676D02*
X52742854Y-59638485D01*
X52742854Y-59638485D02*
X52704759Y-59600390D01*
X52704759Y-59600390D02*
X52628569Y-59562295D01*
X52628569Y-59562295D02*
X52438092Y-59562295D01*
X52438092Y-59562295D02*
X52323807Y-59600390D01*
X51523806Y-60286104D02*
X51561902Y-60324200D01*
X51561902Y-60324200D02*
X51676187Y-60362295D01*
X51676187Y-60362295D02*
X51752378Y-60362295D01*
X51752378Y-60362295D02*
X51866664Y-60324200D01*
X51866664Y-60324200D02*
X51942854Y-60248009D01*
X51942854Y-60248009D02*
X51980949Y-60171819D01*
X51980949Y-60171819D02*
X52019045Y-60019438D01*
X52019045Y-60019438D02*
X52019045Y-59905152D01*
X52019045Y-59905152D02*
X51980949Y-59752771D01*
X51980949Y-59752771D02*
X51942854Y-59676580D01*
X51942854Y-59676580D02*
X51866664Y-59600390D01*
X51866664Y-59600390D02*
X51752378Y-59562295D01*
X51752378Y-59562295D02*
X51676187Y-59562295D01*
X51676187Y-59562295D02*
X51561902Y-59600390D01*
X51561902Y-59600390D02*
X51523806Y-59638485D01*
X50799997Y-60362295D02*
X51180949Y-60362295D01*
X51180949Y-60362295D02*
X51180949Y-59562295D01*
X78369048Y-73562295D02*
X78369048Y-74133723D01*
X78369048Y-74133723D02*
X78407143Y-74248009D01*
X78407143Y-74248009D02*
X78483334Y-74324200D01*
X78483334Y-74324200D02*
X78597619Y-74362295D01*
X78597619Y-74362295D02*
X78673810Y-74362295D01*
X78026191Y-73638485D02*
X77988095Y-73600390D01*
X77988095Y-73600390D02*
X77911905Y-73562295D01*
X77911905Y-73562295D02*
X77721429Y-73562295D01*
X77721429Y-73562295D02*
X77645238Y-73600390D01*
X77645238Y-73600390D02*
X77607143Y-73638485D01*
X77607143Y-73638485D02*
X77569048Y-73714676D01*
X77569048Y-73714676D02*
X77569048Y-73790866D01*
X77569048Y-73790866D02*
X77607143Y-73905152D01*
X77607143Y-73905152D02*
X78064286Y-74362295D01*
X78064286Y-74362295D02*
X77569048Y-74362295D01*
X76616666Y-74362295D02*
X76616666Y-73562295D01*
X76616666Y-73562295D02*
X76426190Y-73562295D01*
X76426190Y-73562295D02*
X76311904Y-73600390D01*
X76311904Y-73600390D02*
X76235714Y-73676580D01*
X76235714Y-73676580D02*
X76197619Y-73752771D01*
X76197619Y-73752771D02*
X76159523Y-73905152D01*
X76159523Y-73905152D02*
X76159523Y-74019438D01*
X76159523Y-74019438D02*
X76197619Y-74171819D01*
X76197619Y-74171819D02*
X76235714Y-74248009D01*
X76235714Y-74248009D02*
X76311904Y-74324200D01*
X76311904Y-74324200D02*
X76426190Y-74362295D01*
X76426190Y-74362295D02*
X76616666Y-74362295D01*
X75816666Y-74362295D02*
X75816666Y-73562295D01*
X75473810Y-74324200D02*
X75359524Y-74362295D01*
X75359524Y-74362295D02*
X75169048Y-74362295D01*
X75169048Y-74362295D02*
X75092857Y-74324200D01*
X75092857Y-74324200D02*
X75054762Y-74286104D01*
X75054762Y-74286104D02*
X75016667Y-74209914D01*
X75016667Y-74209914D02*
X75016667Y-74133723D01*
X75016667Y-74133723D02*
X75054762Y-74057533D01*
X75054762Y-74057533D02*
X75092857Y-74019438D01*
X75092857Y-74019438D02*
X75169048Y-73981342D01*
X75169048Y-73981342D02*
X75321429Y-73943247D01*
X75321429Y-73943247D02*
X75397619Y-73905152D01*
X75397619Y-73905152D02*
X75435714Y-73867057D01*
X75435714Y-73867057D02*
X75473810Y-73790866D01*
X75473810Y-73790866D02*
X75473810Y-73714676D01*
X75473810Y-73714676D02*
X75435714Y-73638485D01*
X75435714Y-73638485D02*
X75397619Y-73600390D01*
X75397619Y-73600390D02*
X75321429Y-73562295D01*
X75321429Y-73562295D02*
X75130952Y-73562295D01*
X75130952Y-73562295D02*
X75016667Y-73600390D01*
X74673809Y-74362295D02*
X74673809Y-73562295D01*
X74673809Y-73562295D02*
X74369047Y-73562295D01*
X74369047Y-73562295D02*
X74292857Y-73600390D01*
X74292857Y-73600390D02*
X74254762Y-73638485D01*
X74254762Y-73638485D02*
X74216666Y-73714676D01*
X74216666Y-73714676D02*
X74216666Y-73828961D01*
X74216666Y-73828961D02*
X74254762Y-73905152D01*
X74254762Y-73905152D02*
X74292857Y-73943247D01*
X74292857Y-73943247D02*
X74369047Y-73981342D01*
X74369047Y-73981342D02*
X74673809Y-73981342D01*
X73492857Y-74362295D02*
X73873809Y-74362295D01*
X73873809Y-74362295D02*
X73873809Y-73562295D01*
X73264286Y-74133723D02*
X72883333Y-74133723D01*
X73340476Y-74362295D02*
X73073809Y-73562295D01*
X73073809Y-73562295D02*
X72807143Y-74362295D01*
X72388095Y-73981342D02*
X72388095Y-74362295D01*
X72654762Y-73562295D02*
X72388095Y-73981342D01*
X72388095Y-73981342D02*
X72121429Y-73562295D01*
X71854762Y-74286104D02*
X71816667Y-74324200D01*
X71816667Y-74324200D02*
X71854762Y-74362295D01*
X71854762Y-74362295D02*
X71892858Y-74324200D01*
X71892858Y-74324200D02*
X71854762Y-74286104D01*
X71854762Y-74286104D02*
X71854762Y-74362295D01*
X71854762Y-73867057D02*
X71816667Y-73905152D01*
X71816667Y-73905152D02*
X71854762Y-73943247D01*
X71854762Y-73943247D02*
X71892858Y-73905152D01*
X71892858Y-73905152D02*
X71854762Y-73867057D01*
X71854762Y-73867057D02*
X71854762Y-73943247D01*
X70445239Y-74362295D02*
X70902382Y-74362295D01*
X70673810Y-74362295D02*
X70673810Y-73562295D01*
X70673810Y-73562295D02*
X70750001Y-73676580D01*
X70750001Y-73676580D02*
X70826191Y-73752771D01*
X70826191Y-73752771D02*
X70902382Y-73790866D01*
X69569048Y-73562295D02*
X69073810Y-73562295D01*
X69073810Y-73562295D02*
X69340476Y-73867057D01*
X69340476Y-73867057D02*
X69226191Y-73867057D01*
X69226191Y-73867057D02*
X69150000Y-73905152D01*
X69150000Y-73905152D02*
X69111905Y-73943247D01*
X69111905Y-73943247D02*
X69073810Y-74019438D01*
X69073810Y-74019438D02*
X69073810Y-74209914D01*
X69073810Y-74209914D02*
X69111905Y-74286104D01*
X69111905Y-74286104D02*
X69150000Y-74324200D01*
X69150000Y-74324200D02*
X69226191Y-74362295D01*
X69226191Y-74362295D02*
X69454762Y-74362295D01*
X69454762Y-74362295D02*
X69530953Y-74324200D01*
X69530953Y-74324200D02*
X69569048Y-74286104D01*
X68845238Y-73562295D02*
X68578571Y-74362295D01*
X68578571Y-74362295D02*
X68311905Y-73562295D01*
X68121429Y-73562295D02*
X67626191Y-73562295D01*
X67626191Y-73562295D02*
X67892857Y-73867057D01*
X67892857Y-73867057D02*
X67778572Y-73867057D01*
X67778572Y-73867057D02*
X67702381Y-73905152D01*
X67702381Y-73905152D02*
X67664286Y-73943247D01*
X67664286Y-73943247D02*
X67626191Y-74019438D01*
X67626191Y-74019438D02*
X67626191Y-74209914D01*
X67626191Y-74209914D02*
X67664286Y-74286104D01*
X67664286Y-74286104D02*
X67702381Y-74324200D01*
X67702381Y-74324200D02*
X67778572Y-74362295D01*
X67778572Y-74362295D02*
X68007143Y-74362295D01*
X68007143Y-74362295D02*
X68083334Y-74324200D01*
X68083334Y-74324200D02*
X68121429Y-74286104D01*
X66483333Y-74628961D02*
X66483333Y-73486104D01*
X65340476Y-73638485D02*
X65302380Y-73600390D01*
X65302380Y-73600390D02*
X65226190Y-73562295D01*
X65226190Y-73562295D02*
X65035714Y-73562295D01*
X65035714Y-73562295D02*
X64959523Y-73600390D01*
X64959523Y-73600390D02*
X64921428Y-73638485D01*
X64921428Y-73638485D02*
X64883333Y-73714676D01*
X64883333Y-73714676D02*
X64883333Y-73790866D01*
X64883333Y-73790866D02*
X64921428Y-73905152D01*
X64921428Y-73905152D02*
X65378571Y-74362295D01*
X65378571Y-74362295D02*
X64883333Y-74362295D01*
X63511904Y-73600390D02*
X63588094Y-73562295D01*
X63588094Y-73562295D02*
X63702380Y-73562295D01*
X63702380Y-73562295D02*
X63816666Y-73600390D01*
X63816666Y-73600390D02*
X63892856Y-73676580D01*
X63892856Y-73676580D02*
X63930951Y-73752771D01*
X63930951Y-73752771D02*
X63969047Y-73905152D01*
X63969047Y-73905152D02*
X63969047Y-74019438D01*
X63969047Y-74019438D02*
X63930951Y-74171819D01*
X63930951Y-74171819D02*
X63892856Y-74248009D01*
X63892856Y-74248009D02*
X63816666Y-74324200D01*
X63816666Y-74324200D02*
X63702380Y-74362295D01*
X63702380Y-74362295D02*
X63626189Y-74362295D01*
X63626189Y-74362295D02*
X63511904Y-74324200D01*
X63511904Y-74324200D02*
X63473808Y-74286104D01*
X63473808Y-74286104D02*
X63473808Y-74019438D01*
X63473808Y-74019438D02*
X63626189Y-74019438D01*
X63130951Y-74362295D02*
X63130951Y-73562295D01*
X63130951Y-73562295D02*
X62673808Y-74362295D01*
X62673808Y-74362295D02*
X62673808Y-73562295D01*
X62292856Y-74362295D02*
X62292856Y-73562295D01*
X62292856Y-73562295D02*
X62102380Y-73562295D01*
X62102380Y-73562295D02*
X61988094Y-73600390D01*
X61988094Y-73600390D02*
X61911904Y-73676580D01*
X61911904Y-73676580D02*
X61873809Y-73752771D01*
X61873809Y-73752771D02*
X61835713Y-73905152D01*
X61835713Y-73905152D02*
X61835713Y-74019438D01*
X61835713Y-74019438D02*
X61873809Y-74171819D01*
X61873809Y-74171819D02*
X61911904Y-74248009D01*
X61911904Y-74248009D02*
X61988094Y-74324200D01*
X61988094Y-74324200D02*
X62102380Y-74362295D01*
X62102380Y-74362295D02*
X62292856Y-74362295D01*
X60692856Y-74628961D02*
X60692856Y-73486104D01*
X59588094Y-73562295D02*
X59092856Y-73562295D01*
X59092856Y-73562295D02*
X59359522Y-73867057D01*
X59359522Y-73867057D02*
X59245237Y-73867057D01*
X59245237Y-73867057D02*
X59169046Y-73905152D01*
X59169046Y-73905152D02*
X59130951Y-73943247D01*
X59130951Y-73943247D02*
X59092856Y-74019438D01*
X59092856Y-74019438D02*
X59092856Y-74209914D01*
X59092856Y-74209914D02*
X59130951Y-74286104D01*
X59130951Y-74286104D02*
X59169046Y-74324200D01*
X59169046Y-74324200D02*
X59245237Y-74362295D01*
X59245237Y-74362295D02*
X59473808Y-74362295D01*
X59473808Y-74362295D02*
X59549999Y-74324200D01*
X59549999Y-74324200D02*
X59588094Y-74286104D01*
X58140474Y-74362295D02*
X58140474Y-73562295D01*
X58140474Y-73562295D02*
X57949998Y-73562295D01*
X57949998Y-73562295D02*
X57835712Y-73600390D01*
X57835712Y-73600390D02*
X57759522Y-73676580D01*
X57759522Y-73676580D02*
X57721427Y-73752771D01*
X57721427Y-73752771D02*
X57683331Y-73905152D01*
X57683331Y-73905152D02*
X57683331Y-74019438D01*
X57683331Y-74019438D02*
X57721427Y-74171819D01*
X57721427Y-74171819D02*
X57759522Y-74248009D01*
X57759522Y-74248009D02*
X57835712Y-74324200D01*
X57835712Y-74324200D02*
X57949998Y-74362295D01*
X57949998Y-74362295D02*
X58140474Y-74362295D01*
X57340474Y-74362295D02*
X57340474Y-73562295D01*
X56959522Y-74362295D02*
X56959522Y-73562295D01*
X56959522Y-73562295D02*
X56502379Y-74362295D01*
X56502379Y-74362295D02*
X56502379Y-73562295D01*
X55321427Y-74628961D02*
X55321427Y-73486104D01*
X53797617Y-73828961D02*
X53797617Y-74362295D01*
X53988093Y-73524200D02*
X54178570Y-74095628D01*
X54178570Y-74095628D02*
X53683331Y-74095628D01*
X52311902Y-74286104D02*
X52349998Y-74324200D01*
X52349998Y-74324200D02*
X52464283Y-74362295D01*
X52464283Y-74362295D02*
X52540474Y-74362295D01*
X52540474Y-74362295D02*
X52654760Y-74324200D01*
X52654760Y-74324200D02*
X52730950Y-74248009D01*
X52730950Y-74248009D02*
X52769045Y-74171819D01*
X52769045Y-74171819D02*
X52807141Y-74019438D01*
X52807141Y-74019438D02*
X52807141Y-73905152D01*
X52807141Y-73905152D02*
X52769045Y-73752771D01*
X52769045Y-73752771D02*
X52730950Y-73676580D01*
X52730950Y-73676580D02*
X52654760Y-73600390D01*
X52654760Y-73600390D02*
X52540474Y-73562295D01*
X52540474Y-73562295D02*
X52464283Y-73562295D01*
X52464283Y-73562295D02*
X52349998Y-73600390D01*
X52349998Y-73600390D02*
X52311902Y-73638485D01*
X51588093Y-74362295D02*
X51969045Y-74362295D01*
X51969045Y-74362295D02*
X51969045Y-73562295D01*
X51321426Y-74362295D02*
X51321426Y-73562295D01*
X50864283Y-74362295D02*
X51207141Y-73905152D01*
X50864283Y-73562295D02*
X51321426Y-74019438D01*
X78102382Y-69562295D02*
X78483334Y-69562295D01*
X78483334Y-69562295D02*
X78521430Y-69943247D01*
X78521430Y-69943247D02*
X78483334Y-69905152D01*
X78483334Y-69905152D02*
X78407144Y-69867057D01*
X78407144Y-69867057D02*
X78216668Y-69867057D01*
X78216668Y-69867057D02*
X78140477Y-69905152D01*
X78140477Y-69905152D02*
X78102382Y-69943247D01*
X78102382Y-69943247D02*
X78064287Y-70019438D01*
X78064287Y-70019438D02*
X78064287Y-70209914D01*
X78064287Y-70209914D02*
X78102382Y-70286104D01*
X78102382Y-70286104D02*
X78140477Y-70324200D01*
X78140477Y-70324200D02*
X78216668Y-70362295D01*
X78216668Y-70362295D02*
X78407144Y-70362295D01*
X78407144Y-70362295D02*
X78483334Y-70324200D01*
X78483334Y-70324200D02*
X78521430Y-70286104D01*
X76654762Y-70286104D02*
X76692858Y-70324200D01*
X76692858Y-70324200D02*
X76807143Y-70362295D01*
X76807143Y-70362295D02*
X76883334Y-70362295D01*
X76883334Y-70362295D02*
X76997620Y-70324200D01*
X76997620Y-70324200D02*
X77073810Y-70248009D01*
X77073810Y-70248009D02*
X77111905Y-70171819D01*
X77111905Y-70171819D02*
X77150001Y-70019438D01*
X77150001Y-70019438D02*
X77150001Y-69905152D01*
X77150001Y-69905152D02*
X77111905Y-69752771D01*
X77111905Y-69752771D02*
X77073810Y-69676580D01*
X77073810Y-69676580D02*
X76997620Y-69600390D01*
X76997620Y-69600390D02*
X76883334Y-69562295D01*
X76883334Y-69562295D02*
X76807143Y-69562295D01*
X76807143Y-69562295D02*
X76692858Y-69600390D01*
X76692858Y-69600390D02*
X76654762Y-69638485D01*
X76350001Y-70324200D02*
X76235715Y-70362295D01*
X76235715Y-70362295D02*
X76045239Y-70362295D01*
X76045239Y-70362295D02*
X75969048Y-70324200D01*
X75969048Y-70324200D02*
X75930953Y-70286104D01*
X75930953Y-70286104D02*
X75892858Y-70209914D01*
X75892858Y-70209914D02*
X75892858Y-70133723D01*
X75892858Y-70133723D02*
X75930953Y-70057533D01*
X75930953Y-70057533D02*
X75969048Y-70019438D01*
X75969048Y-70019438D02*
X76045239Y-69981342D01*
X76045239Y-69981342D02*
X76197620Y-69943247D01*
X76197620Y-69943247D02*
X76273810Y-69905152D01*
X76273810Y-69905152D02*
X76311905Y-69867057D01*
X76311905Y-69867057D02*
X76350001Y-69790866D01*
X76350001Y-69790866D02*
X76350001Y-69714676D01*
X76350001Y-69714676D02*
X76311905Y-69638485D01*
X76311905Y-69638485D02*
X76273810Y-69600390D01*
X76273810Y-69600390D02*
X76197620Y-69562295D01*
X76197620Y-69562295D02*
X76007143Y-69562295D01*
X76007143Y-69562295D02*
X75892858Y-69600390D01*
X74750000Y-70628961D02*
X74750000Y-69486104D01*
X73226190Y-69562295D02*
X73378571Y-69562295D01*
X73378571Y-69562295D02*
X73454762Y-69600390D01*
X73454762Y-69600390D02*
X73492857Y-69638485D01*
X73492857Y-69638485D02*
X73569047Y-69752771D01*
X73569047Y-69752771D02*
X73607143Y-69905152D01*
X73607143Y-69905152D02*
X73607143Y-70209914D01*
X73607143Y-70209914D02*
X73569047Y-70286104D01*
X73569047Y-70286104D02*
X73530952Y-70324200D01*
X73530952Y-70324200D02*
X73454762Y-70362295D01*
X73454762Y-70362295D02*
X73302381Y-70362295D01*
X73302381Y-70362295D02*
X73226190Y-70324200D01*
X73226190Y-70324200D02*
X73188095Y-70286104D01*
X73188095Y-70286104D02*
X73150000Y-70209914D01*
X73150000Y-70209914D02*
X73150000Y-70019438D01*
X73150000Y-70019438D02*
X73188095Y-69943247D01*
X73188095Y-69943247D02*
X73226190Y-69905152D01*
X73226190Y-69905152D02*
X73302381Y-69867057D01*
X73302381Y-69867057D02*
X73454762Y-69867057D01*
X73454762Y-69867057D02*
X73530952Y-69905152D01*
X73530952Y-69905152D02*
X73569047Y-69943247D01*
X73569047Y-69943247D02*
X73607143Y-70019438D01*
X72197618Y-70362295D02*
X72197618Y-69562295D01*
X72197618Y-69562295D02*
X72007142Y-69562295D01*
X72007142Y-69562295D02*
X71892856Y-69600390D01*
X71892856Y-69600390D02*
X71816666Y-69676580D01*
X71816666Y-69676580D02*
X71778571Y-69752771D01*
X71778571Y-69752771D02*
X71740475Y-69905152D01*
X71740475Y-69905152D02*
X71740475Y-70019438D01*
X71740475Y-70019438D02*
X71778571Y-70171819D01*
X71778571Y-70171819D02*
X71816666Y-70248009D01*
X71816666Y-70248009D02*
X71892856Y-70324200D01*
X71892856Y-70324200D02*
X72007142Y-70362295D01*
X72007142Y-70362295D02*
X72197618Y-70362295D01*
X70940475Y-70286104D02*
X70978571Y-70324200D01*
X70978571Y-70324200D02*
X71092856Y-70362295D01*
X71092856Y-70362295D02*
X71169047Y-70362295D01*
X71169047Y-70362295D02*
X71283333Y-70324200D01*
X71283333Y-70324200D02*
X71359523Y-70248009D01*
X71359523Y-70248009D02*
X71397618Y-70171819D01*
X71397618Y-70171819D02*
X71435714Y-70019438D01*
X71435714Y-70019438D02*
X71435714Y-69905152D01*
X71435714Y-69905152D02*
X71397618Y-69752771D01*
X71397618Y-69752771D02*
X71359523Y-69676580D01*
X71359523Y-69676580D02*
X71283333Y-69600390D01*
X71283333Y-69600390D02*
X71169047Y-69562295D01*
X71169047Y-69562295D02*
X71092856Y-69562295D01*
X71092856Y-69562295D02*
X70978571Y-69600390D01*
X70978571Y-69600390D02*
X70940475Y-69638485D01*
X69797618Y-70628961D02*
X69797618Y-69486104D01*
X68692856Y-69562295D02*
X68159522Y-69562295D01*
X68159522Y-69562295D02*
X68502380Y-70362295D01*
X66788093Y-70362295D02*
X67054760Y-69981342D01*
X67245236Y-70362295D02*
X67245236Y-69562295D01*
X67245236Y-69562295D02*
X66940474Y-69562295D01*
X66940474Y-69562295D02*
X66864284Y-69600390D01*
X66864284Y-69600390D02*
X66826189Y-69638485D01*
X66826189Y-69638485D02*
X66788093Y-69714676D01*
X66788093Y-69714676D02*
X66788093Y-69828961D01*
X66788093Y-69828961D02*
X66826189Y-69905152D01*
X66826189Y-69905152D02*
X66864284Y-69943247D01*
X66864284Y-69943247D02*
X66940474Y-69981342D01*
X66940474Y-69981342D02*
X67245236Y-69981342D01*
X66483332Y-70324200D02*
X66369046Y-70362295D01*
X66369046Y-70362295D02*
X66178570Y-70362295D01*
X66178570Y-70362295D02*
X66102379Y-70324200D01*
X66102379Y-70324200D02*
X66064284Y-70286104D01*
X66064284Y-70286104D02*
X66026189Y-70209914D01*
X66026189Y-70209914D02*
X66026189Y-70133723D01*
X66026189Y-70133723D02*
X66064284Y-70057533D01*
X66064284Y-70057533D02*
X66102379Y-70019438D01*
X66102379Y-70019438D02*
X66178570Y-69981342D01*
X66178570Y-69981342D02*
X66330951Y-69943247D01*
X66330951Y-69943247D02*
X66407141Y-69905152D01*
X66407141Y-69905152D02*
X66445236Y-69867057D01*
X66445236Y-69867057D02*
X66483332Y-69790866D01*
X66483332Y-69790866D02*
X66483332Y-69714676D01*
X66483332Y-69714676D02*
X66445236Y-69638485D01*
X66445236Y-69638485D02*
X66407141Y-69600390D01*
X66407141Y-69600390D02*
X66330951Y-69562295D01*
X66330951Y-69562295D02*
X66140474Y-69562295D01*
X66140474Y-69562295D02*
X66026189Y-69600390D01*
X65797617Y-69562295D02*
X65340474Y-69562295D01*
X65569046Y-70362295D02*
X65569046Y-69562295D01*
X64273807Y-70628961D02*
X64273807Y-69486104D01*
X62978569Y-69905152D02*
X63054759Y-69867057D01*
X63054759Y-69867057D02*
X63092854Y-69828961D01*
X63092854Y-69828961D02*
X63130950Y-69752771D01*
X63130950Y-69752771D02*
X63130950Y-69714676D01*
X63130950Y-69714676D02*
X63092854Y-69638485D01*
X63092854Y-69638485D02*
X63054759Y-69600390D01*
X63054759Y-69600390D02*
X62978569Y-69562295D01*
X62978569Y-69562295D02*
X62826188Y-69562295D01*
X62826188Y-69562295D02*
X62749997Y-69600390D01*
X62749997Y-69600390D02*
X62711902Y-69638485D01*
X62711902Y-69638485D02*
X62673807Y-69714676D01*
X62673807Y-69714676D02*
X62673807Y-69752771D01*
X62673807Y-69752771D02*
X62711902Y-69828961D01*
X62711902Y-69828961D02*
X62749997Y-69867057D01*
X62749997Y-69867057D02*
X62826188Y-69905152D01*
X62826188Y-69905152D02*
X62978569Y-69905152D01*
X62978569Y-69905152D02*
X63054759Y-69943247D01*
X63054759Y-69943247D02*
X63092854Y-69981342D01*
X63092854Y-69981342D02*
X63130950Y-70057533D01*
X63130950Y-70057533D02*
X63130950Y-70209914D01*
X63130950Y-70209914D02*
X63092854Y-70286104D01*
X63092854Y-70286104D02*
X63054759Y-70324200D01*
X63054759Y-70324200D02*
X62978569Y-70362295D01*
X62978569Y-70362295D02*
X62826188Y-70362295D01*
X62826188Y-70362295D02*
X62749997Y-70324200D01*
X62749997Y-70324200D02*
X62711902Y-70286104D01*
X62711902Y-70286104D02*
X62673807Y-70209914D01*
X62673807Y-70209914D02*
X62673807Y-70057533D01*
X62673807Y-70057533D02*
X62711902Y-69981342D01*
X62711902Y-69981342D02*
X62749997Y-69943247D01*
X62749997Y-69943247D02*
X62826188Y-69905152D01*
X61454759Y-69943247D02*
X61340473Y-69981342D01*
X61340473Y-69981342D02*
X61302378Y-70019438D01*
X61302378Y-70019438D02*
X61264282Y-70095628D01*
X61264282Y-70095628D02*
X61264282Y-70209914D01*
X61264282Y-70209914D02*
X61302378Y-70286104D01*
X61302378Y-70286104D02*
X61340473Y-70324200D01*
X61340473Y-70324200D02*
X61416663Y-70362295D01*
X61416663Y-70362295D02*
X61721425Y-70362295D01*
X61721425Y-70362295D02*
X61721425Y-69562295D01*
X61721425Y-69562295D02*
X61454759Y-69562295D01*
X61454759Y-69562295D02*
X61378568Y-69600390D01*
X61378568Y-69600390D02*
X61340473Y-69638485D01*
X61340473Y-69638485D02*
X61302378Y-69714676D01*
X61302378Y-69714676D02*
X61302378Y-69790866D01*
X61302378Y-69790866D02*
X61340473Y-69867057D01*
X61340473Y-69867057D02*
X61378568Y-69905152D01*
X61378568Y-69905152D02*
X61454759Y-69943247D01*
X61454759Y-69943247D02*
X61721425Y-69943247D01*
X60921425Y-69562295D02*
X60921425Y-70209914D01*
X60921425Y-70209914D02*
X60883330Y-70286104D01*
X60883330Y-70286104D02*
X60845235Y-70324200D01*
X60845235Y-70324200D02*
X60769044Y-70362295D01*
X60769044Y-70362295D02*
X60616663Y-70362295D01*
X60616663Y-70362295D02*
X60540473Y-70324200D01*
X60540473Y-70324200D02*
X60502378Y-70286104D01*
X60502378Y-70286104D02*
X60464282Y-70209914D01*
X60464282Y-70209914D02*
X60464282Y-69562295D01*
X60121426Y-70324200D02*
X60007140Y-70362295D01*
X60007140Y-70362295D02*
X59816664Y-70362295D01*
X59816664Y-70362295D02*
X59740473Y-70324200D01*
X59740473Y-70324200D02*
X59702378Y-70286104D01*
X59702378Y-70286104D02*
X59664283Y-70209914D01*
X59664283Y-70209914D02*
X59664283Y-70133723D01*
X59664283Y-70133723D02*
X59702378Y-70057533D01*
X59702378Y-70057533D02*
X59740473Y-70019438D01*
X59740473Y-70019438D02*
X59816664Y-69981342D01*
X59816664Y-69981342D02*
X59969045Y-69943247D01*
X59969045Y-69943247D02*
X60045235Y-69905152D01*
X60045235Y-69905152D02*
X60083330Y-69867057D01*
X60083330Y-69867057D02*
X60121426Y-69790866D01*
X60121426Y-69790866D02*
X60121426Y-69714676D01*
X60121426Y-69714676D02*
X60083330Y-69638485D01*
X60083330Y-69638485D02*
X60045235Y-69600390D01*
X60045235Y-69600390D02*
X59969045Y-69562295D01*
X59969045Y-69562295D02*
X59778568Y-69562295D01*
X59778568Y-69562295D02*
X59664283Y-69600390D01*
X59169044Y-69981342D02*
X59169044Y-70362295D01*
X59435711Y-69562295D02*
X59169044Y-69981342D01*
X59169044Y-69981342D02*
X58902378Y-69562295D01*
%LPC*%
D11*
G04 #@! TO.C,H1*
X61750000Y-57750000D03*
G04 #@! TD*
D12*
G04 #@! TO.C,J1*
X57500000Y-62000000D03*
D13*
X57500000Y-64000000D03*
X57500000Y-66000000D03*
X57500000Y-68000000D03*
G04 #@! TD*
D11*
G04 #@! TO.C,H2*
X74750000Y-72000000D03*
G04 #@! TD*
D14*
G04 #@! TO.C,J2*
X82250000Y-72000000D03*
D13*
X82250000Y-70000000D03*
X82250000Y-68000000D03*
X82250000Y-66000000D03*
X82250000Y-64000000D03*
X82250000Y-62000000D03*
X82250000Y-60000000D03*
X82250000Y-58000000D03*
G04 #@! TD*
%LPD*%
M02*
