G04 #@! TF.GenerationSoftware,KiCad,Pcbnew,10.0.4*
G04 #@! TF.CreationDate,2026-07-30T13:29:40-07:00*
G04 #@! TF.ProjectId,pcb-01,7063622d-3031-42e6-9b69-6361645f7063,rev?*
G04 #@! TF.SameCoordinates,Original*
G04 #@! TF.FileFunction,Legend,Bot*
G04 #@! TF.FilePolarity,Positive*
%FSLAX46Y46*%
G04 Gerber Fmt 4.6, Leading zero omitted, Abs format (unit mm)*
G04 Created by KiCad (PCBNEW 10.0.4) date 2026-07-30 13:29:40*
%MOMM*%
%LPD*%
G01*
G04 APERTURE LIST*
G04 Aperture macros list*
%AMRoundRect*
0 Rectangle with rounded corners*
0 $1 Rounding radius*
0 $2 $3 $4 $5 $6 $7 $8 $9 X,Y pos of 4 corners*
0 Add a 4 corners polygon primitive as box body*
4,1,4,$2,$3,$4,$5,$6,$7,$8,$9,$2,$3,0*
0 Add four circle primitives for the rounded corners*
1,1,$1+$1,$2,$3*
1,1,$1+$1,$4,$5*
1,1,$1+$1,$6,$7*
1,1,$1+$1,$8,$9*
0 Add four rect primitives between the rounded corners*
20,1,$1+$1,$2,$3,$4,$5,0*
20,1,$1+$1,$4,$5,$6,$7,0*
20,1,$1+$1,$6,$7,$8,$9,0*
20,1,$1+$1,$8,$9,$2,$3,0*%
G04 Aperture macros list end*
%ADD10RoundRect,0.250000X-0.750000X-0.750000X0.750000X-0.750000X0.750000X0.750000X-0.750000X0.750000X0*%
%ADD11C,2.000000*%
%ADD12R,1.000000X1.000000*%
%ADD13C,1.000000*%
%ADD14RoundRect,0.250000X-0.350000X-0.625000X0.350000X-0.625000X0.350000X0.625000X-0.350000X0.625000X0*%
%ADD15O,1.200000X1.750000*%
%ADD16C,0.990600*%
%ADD17C,3.700000*%
%ADD18C,3.000000*%
%ADD19RoundRect,0.250001X0.499999X-0.499999X0.499999X0.499999X-0.499999X0.499999X-0.499999X-0.499999X0*%
%ADD20C,1.500000*%
%ADD21RoundRect,0.250001X0.499999X0.759999X-0.499999X0.759999X-0.499999X-0.759999X0.499999X-0.759999X0*%
%ADD22O,1.500000X2.020000*%
%ADD23C,0.650000*%
%ADD24O,1.000000X2.100000*%
%ADD25O,1.000000X1.800000*%
%ADD26C,0.600000*%
G04 APERTURE END LIST*
%LPC*%
D10*
G04 #@! TO.C,C1*
X59500000Y-66000000D03*
D11*
X64500000Y-66000000D03*
G04 #@! TD*
D12*
G04 #@! TO.C,J8*
X125300000Y-92800000D03*
D13*
X126570000Y-92800000D03*
X125300000Y-94070000D03*
X126570000Y-94070000D03*
X125300000Y-95340000D03*
X126570000Y-95340000D03*
X125300000Y-96610000D03*
X126570000Y-96610000D03*
X125300000Y-97880000D03*
X126570000Y-97880000D03*
G04 #@! TD*
D14*
G04 #@! TO.C,J3*
X109500000Y-104400000D03*
D15*
X111500000Y-104400000D03*
X113500000Y-104400000D03*
G04 #@! TD*
D16*
G04 #@! TO.C,J7*
X105460000Y-78500000D03*
X110540000Y-77484000D03*
X110540000Y-79516000D03*
G04 #@! TD*
D17*
G04 #@! TO.C,H4*
X122000000Y-56000000D03*
G04 #@! TD*
D18*
G04 #@! TO.C,J1*
X52180000Y-79000000D03*
D19*
X56500000Y-79000000D03*
D20*
X59500000Y-79000000D03*
G04 #@! TD*
D10*
G04 #@! TO.C,C2*
X70600000Y-66000000D03*
D11*
X75600000Y-66000000D03*
G04 #@! TD*
D14*
G04 #@! TO.C,J4*
X90540000Y-104400000D03*
D15*
X92540000Y-104400000D03*
G04 #@! TD*
D17*
G04 #@! TO.C,H3*
X56000000Y-56000000D03*
G04 #@! TD*
G04 #@! TO.C,H1*
X56000000Y-102000000D03*
G04 #@! TD*
D18*
G04 #@! TO.C,J2*
X81100000Y-102800000D03*
D21*
X84100000Y-98480000D03*
D22*
X81100000Y-98480000D03*
X78100000Y-98480000D03*
G04 #@! TD*
D23*
G04 #@! TO.C,J6*
X106890000Y-55605000D03*
X101110000Y-55605000D03*
D24*
X108320000Y-56105000D03*
D25*
X108320000Y-51925000D03*
D24*
X99680000Y-56105000D03*
D25*
X99680000Y-51925000D03*
G04 #@! TD*
D17*
G04 #@! TO.C,H2*
X122000000Y-102000000D03*
G04 #@! TD*
D10*
G04 #@! TO.C,C6*
X66200000Y-102100000D03*
D11*
X71200000Y-102100000D03*
G04 #@! TD*
D26*
G04 #@! TO.C,U1*
X83850000Y-86050000D03*
X83850000Y-87350000D03*
X83850000Y-88650000D03*
X83850000Y-89950000D03*
X85000000Y-86050000D03*
X85000000Y-87350000D03*
X85000000Y-88650000D03*
X85000000Y-89950000D03*
X86150000Y-86050000D03*
X86150000Y-87350000D03*
X86150000Y-88650000D03*
X86150000Y-89950000D03*
G04 #@! TD*
%LPD*%
M02*
