M48
; DRILL file KiCad 10.0.4 date 2026-07-30T13:29:40
; FORMAT={-:-/ absolute / metric / decimal}
; #@! TF.CreationDate,2026-07-30T13:29:40-07:00
; #@! TF.GenerationSoftware,Kicad,Pcbnew,10.0.4
; #@! TF.FileFunction,MixedPlating,1,4
FMAT,2
METRIC
; #@! TA.AperFunction,Plated,PTH,ViaDrill
T1C0.200
; #@! TA.AperFunction,Plated,PTH,ComponentDrill
T2C0.200
; #@! TA.AperFunction,Plated,PTH,ViaDrill
T3C0.250
; #@! TA.AperFunction,Plated,PTH,ViaDrill
T4C0.300
; #@! TA.AperFunction,Plated,PTH,ComponentDrill
T5C0.300
; #@! TA.AperFunction,Plated,PTH,ViaDrill
T6C0.500
; #@! TA.AperFunction,Plated,PTH,ComponentDrill
T7C0.600
; #@! TA.AperFunction,Plated,PTH,ComponentDrill
T8C0.650
; #@! TA.AperFunction,Plated,PTH,ComponentDrill
T9C0.750
; #@! TA.AperFunction,Plated,PTH,ComponentDrill
T10C1.000
; #@! TA.AperFunction,Plated,PTH,ComponentDrill
T11C1.020
; #@! TA.AperFunction,NonPlated,NPTH,ComponentDrill
T12C0.650
; #@! TA.AperFunction,NonPlated,NPTH,ComponentDrill
T13C0.991
; #@! TA.AperFunction,NonPlated,NPTH,ComponentDrill
T14C3.000
; #@! TA.AperFunction,NonPlated,NPTH,ComponentDrill
T15C3.200
%
G90
G05
T1
X83.367Y-77.734
X94.85Y-79.49
X97.3Y-81.675
X104.5Y-97.0
X105.0Y-95.4
X113.5Y-91.5
X114.0Y-102.0
X115.025Y-93.0
X116.0Y-94.5
X116.0Y-99.5
X117.029Y-98.971
X118.5Y-91.5
X118.525Y-88.9
X118.525Y-89.5
X120.45Y-92.975
X121.0Y-89.05
X121.5Y-94.025
X121.725Y-89.5
X122.0Y-97.5
X123.35Y-94.975
X124.107Y-93.107
X127.5Y-100.0
T2
X112.45Y-96.85
X112.45Y-98.15
X113.55Y-96.85
X113.55Y-98.15
T3
X75.0Y-92.5
X77.0Y-92.5
X81.761Y-86.144
X81.85Y-86.838
X84.15Y-92.025
X85.85Y-92.025
X106.7Y-81.875
X107.05Y-93.71
X108.35Y-93.71
X110.5Y-86.925
X110.95Y-93.71
X111.317Y-84.3
X111.51Y-97.826
X115.5Y-97.175
X117.75Y-91.26
X124.542Y-90.85
X125.821Y-83.184
X126.4Y-88.8
T4
X52.5Y-70.5
X66.5Y-86.5
X69.0Y-90.5
X69.0Y-92.0
X74.0Y-79.5
X76.0Y-86.5
X76.0Y-88.0
X77.5Y-79.5
X78.425Y-55.575
X78.5Y-84.5
X79.55Y-59.05
X80.5Y-76.5
X81.5Y-63.5
X81.5Y-83.625
X82.0Y-91.5
X82.0Y-92.5
X82.5Y-63.5
X82.6Y-84.6
X82.625Y-81.0
X83.5Y-58.0
X83.701Y-80.817
X84.3Y-58.0
X84.629Y-60.567
X85.192Y-82.808
X86.0Y-55.5
X86.0Y-79.0
X86.5Y-83.5
X87.0Y-65.0
X87.5Y-57.5
X87.5Y-60.0
X87.5Y-84.125
X87.743Y-76.257
X88.0Y-96.5
X88.182Y-89.457
X88.275Y-87.345
X88.5Y-86.45
X88.5Y-76.0
X88.509Y-83.125
X89.5Y-85.075
X89.5Y-86.72
X90.0Y-102.5
X90.375Y-79.0
X90.5Y-56.5
X90.5Y-60.0
X90.694Y-85.075
X90.697Y-88.586
X90.825Y-83.2
X91.0Y-75.3
X91.167Y-93.667
X91.5Y-70.175
X91.5Y-72.5
X91.5Y-74.0
X91.5Y-76.5
X91.625Y-81.0
X91.875Y-85.0
X92.0Y-86.72
X92.0Y-92.0
X92.425Y-95.0
X92.5Y-81.5
X93.0Y-84.0
X93.285Y-89.375
X93.763Y-90.737
X93.8Y-94.0
X94.511Y-81.73
X94.875Y-80.465
X95.262Y-83.15
X95.5Y-76.0
X95.5Y-78.0
X95.5Y-86.0
X95.508Y-88.135
X96.3Y-78.0
X96.5Y-83.0
X96.5Y-85.5
X96.5Y-95.0
X96.65Y-89.2
X97.0Y-61.0
X97.0Y-98.5
X97.375Y-73.644
X97.5Y-66.0
X97.5Y-92.0
X98.017Y-86.517
X98.4Y-80.4
X98.5Y-78.0
X98.601Y-59.12
X98.808Y-73.692
X99.095Y-93.73
X99.24Y-57.5
X99.415Y-74.299
X99.5Y-97.5
X100.0Y-75.0
X100.0Y-86.0
X100.0Y-88.5
X100.125Y-80.375
X100.461Y-84.155
X100.5Y-52.0
X100.5Y-61.5
X100.5Y-82.5
X100.791Y-59.12
X101.0Y-70.8
X101.25Y-75.5
X101.58Y-58.987
X101.983Y-55.637
X102.04Y-80.39
X102.128Y-78.375
X102.178Y-95.036
X102.222Y-74.575
X102.395Y-86.08
X102.575Y-83.5
X102.847Y-75.786
X102.95Y-96.73
X103.0Y-58.971
X103.0Y-72.0
X103.001Y-77.88
X103.3Y-80.48
X103.401Y-87.599
X103.5Y-70.5
X103.5Y-75.075
X103.5Y-83.885
X104.0Y-81.5
X104.18Y-106.15
X104.21Y-95.125
X104.388Y-59.081
X104.5Y-84.0
X104.514Y-55.588
X104.65Y-92.0
X104.858Y-86.258
X105.306Y-71.81
X105.5Y-60.5
X105.61Y-88.61
X105.832Y-55.584
X106.26Y-73.26
X106.355Y-75.875
X106.43Y-77.871
X106.5Y-85.0
X106.687Y-62.813
X106.7Y-79.875
X106.876Y-58.3
X107.0Y-59.5
X107.0Y-64.0
X107.0Y-67.0
X107.0Y-68.0
X107.0Y-71.81
X107.0Y-75.0
X107.5Y-52.0
X107.5Y-69.525
X107.5Y-104.0
X107.523Y-91.477
X108.0Y-57.5
X108.0Y-79.5
X108.275Y-100.75
X108.3Y-97.3
X108.5Y-81.896
X108.891Y-60.735
X109.0Y-77.125
X109.0Y-83.146
X109.0Y-88.8
X109.742Y-82.542
X110.433Y-71.067
X110.5Y-73.0
X110.5Y-74.0
X110.503Y-91.488
X110.991Y-88.125
X111.0Y-85.0
X111.074Y-90.927
X111.129Y-69.996
X111.2Y-67.5
X111.845Y-78.416
X112.0Y-60.5
X112.0Y-99.35
X112.01Y-81.77
X112.5Y-87.5
X112.895Y-64.293
X113.0Y-63.5
X113.0Y-67.0
X113.0Y-68.1
X113.0Y-68.9
X113.0Y-80.5
X113.25Y-76.25
X114.437Y-75.5
X114.5Y-96.0
X115.0Y-57.5
X115.0Y-60.5
X115.0Y-64.5
X115.0Y-71.5
X115.0Y-72.3
X115.5Y-75.5
X115.5Y-102.0
X116.496Y-79.496
X116.5Y-75.5
X117.0Y-72.5
X117.0Y-78.5
X117.0Y-102.0
X117.0Y-105.0
X117.065Y-77.703
X117.5Y-75.5
X117.5Y-87.0
X118.125Y-77.857
X118.125Y-85.5
X118.5Y-87.0
X118.5Y-93.5
X118.75Y-79.115
X119.0Y-64.5
X119.0Y-71.5
X119.5Y-60.5
X119.5Y-77.2
X120.125Y-79.1
X120.5Y-75.0
X121.112Y-90.3
X121.112Y-92.2
X121.5Y-78.625
X121.5Y-87.0
X121.8Y-60.8
X121.8Y-75.1
X122.77Y-87.02
X123.387Y-92.2
X123.5Y-83.5
X124.532Y-89.994
X125.0Y-87.394
X125.5Y-82.5
X125.5Y-106.5
X126.109Y-99.391
X126.5Y-86.5
X126.808Y-90.808
X126.875Y-101.975
T5
X83.85Y-86.05
X83.85Y-87.35
X83.85Y-88.65
X83.85Y-89.95
X85.0Y-86.05
X85.0Y-87.35
X85.0Y-88.65
X85.0Y-89.95
X86.15Y-86.05
X86.15Y-87.35
X86.15Y-88.65
X86.15Y-89.95
T6
X53.5Y-73.0
X53.828Y-70.172
X56.9Y-69.9
X58.5Y-64.0
X60.5Y-64.0
X61.0Y-78.0
X61.0Y-79.5
X62.0Y-83.5
X62.0Y-85.5
X62.0Y-90.5
X62.0Y-92.5
X63.5Y-68.0
X64.5Y-77.5
X65.5Y-68.0
X66.2Y-100.0
X68.5Y-80.5
X68.5Y-82.0
X69.5Y-64.0
X70.5Y-104.0
X71.5Y-64.0
X72.0Y-104.0
X73.5Y-77.95
X74.0Y-72.5
X74.0Y-75.5
X74.5Y-68.0
X76.5Y-68.0
X76.5Y-82.0
X76.5Y-84.5
X80.5Y-78.0
X80.691Y-94.191
X81.5Y-62.0
X83.0Y-92.5
X85.0Y-92.5
X87.0Y-92.5
X88.0Y-81.0
T8
X125.3Y-92.8
X125.3Y-94.07
X125.3Y-95.34
X125.3Y-96.61
X125.3Y-97.88
X126.57Y-92.8
X126.57Y-94.07
X126.57Y-95.34
X126.57Y-96.61
X126.57Y-97.88
T9
X90.54Y-104.4
X92.54Y-104.4
X109.5Y-104.4
X111.5Y-104.4
X113.5Y-104.4
T10
X59.5Y-66.0
X64.5Y-66.0
X66.2Y-102.1
X70.6Y-66.0
X71.2Y-102.1
X75.6Y-66.0
T11
X56.5Y-79.0
X59.5Y-79.0
X78.1Y-98.48
X81.1Y-98.48
X84.1Y-98.48
T12
X101.11Y-55.605
X106.89Y-55.605
T13
X105.46Y-78.5
X110.54Y-77.484
X110.54Y-79.516
T14
X52.18Y-79.0
X81.1Y-102.8
T15
X56.0Y-56.0
X56.0Y-102.0
X122.0Y-56.0
X122.0Y-102.0
T7
X99.68Y-52.325G85X99.68Y-51.525
G05
X99.68Y-56.655G85X99.68Y-55.555
G05
X108.32Y-52.325G85X108.32Y-51.525
G05
X108.32Y-56.655G85X108.32Y-55.555
G05
M30
