G04 #@! TF.GenerationSoftware,KiCad,Pcbnew,10.0.4*
G04 #@! TF.CreationDate,2026-07-30T13:29:40-07:00*
G04 #@! TF.ProjectId,pcb-01,7063622d-3031-42e6-9b69-6361645f7063,rev?*
G04 #@! TF.SameCoordinates,Original*
G04 #@! TF.FileFunction,Copper,L1,Top*
G04 #@! TF.FilePolarity,Positive*
%FSLAX46Y46*%
G04 Gerber Fmt 4.6, Leading zero omitted, Abs format (unit mm)*
G04 Created by KiCad (PCBNEW 10.0.4) date 2026-07-30 13:29:40*
%MOMM*%
%LPD*%
G01*
G04 APERTURE LIST*
G04 Aperture macros list*
%AMRoundRect*
0 Rectangle with rounded corners*
0 $1 Rounding radius*
0 $2 $3 $4 $5 $6 $7 $8 $9 X,Y pos of 4 corners*
0 Add a 4 corners polygon primitive as box body*
4,1,4,$2,$3,$4,$5,$6,$7,$8,$9,$2,$3,0*
0 Add four circle primitives for the rounded corners*
1,1,$1+$1,$2,$3*
1,1,$1+$1,$4,$5*
1,1,$1+$1,$6,$7*
1,1,$1+$1,$8,$9*
0 Add four rect primitives between the rounded corners*
20,1,$1+$1,$2,$3,$4,$5,0*
20,1,$1+$1,$4,$5,$6,$7,0*
20,1,$1+$1,$6,$7,$8,$9,0*
20,1,$1+$1,$8,$9,$2,$3,0*%
%AMOutline5P*
0 Free polygon, 5 corners , with rotation*
0 The origin of the aperture is its center*
0 number of corners: always 5*
0 $1 to $10 corner X, Y*
0 $11 Rotation angle, in degrees counterclockwise*
0 create outline with 5 corners*
4,1,5,$1,$2,$3,$4,$5,$6,$7,$8,$9,$10,$1,$2,$11*%
%AMOutline6P*
0 Free polygon, 6 corners , with rotation*
0 The origin of the aperture is its center*
0 number of corners: always 6*
0 $1 to $12 corner X, Y*
0 $13 Rotation angle, in degrees counterclockwise*
0 create outline with 6 corners*
4,1,6,$1,$2,$3,$4,$5,$6,$7,$8,$9,$10,$11,$12,$1,$2,$13*%
%AMOutline7P*
0 Free polygon, 7 corners , with rotation*
0 The origin of the aperture is its center*
0 number of corners: always 7*
0 $1 to $14 corner X, Y*
0 $15 Rotation angle, in degrees counterclockwise*
0 create outline with 7 corners*
4,1,7,$1,$2,$3,$4,$5,$6,$7,$8,$9,$10,$11,$12,$13,$14,$1,$2,$15*%
%AMOutline8P*
0 Free polygon, 8 corners , with rotation*
0 The origin of the aperture is its center*
0 number of corners: always 8*
0 $1 to $16 corner X, Y*
0 $17 Rotation angle, in degrees counterclockwise*
0 create outline with 8 corners*
4,1,8,$1,$2,$3,$4,$5,$6,$7,$8,$9,$10,$11,$12,$13,$14,$15,$16,$1,$2,$17*%
%AMFreePoly0*
4,1,23,0.550000,-0.750000,0.000000,-0.750000,0.000000,-0.745722,-0.065263,-0.745722,-0.191342,-0.711940,-0.304381,-0.646677,-0.396677,-0.554381,-0.461940,-0.441342,-0.495722,-0.315263,-0.495722,-0.250000,-0.500000,-0.250000,-0.500000,0.250000,-0.495722,0.250000,-0.495722,0.315263,-0.461940,0.441342,-0.396677,0.554381,-0.304381,0.646677,-0.191342,0.711940,-0.065263,0.745722,0.000000,0.745722,
0.000000,0.750000,0.550000,0.750000,0.550000,-0.750000,0.550000,-0.750000,$1*%
%AMFreePoly1*
4,1,23,0.000000,0.745722,0.065263,0.745722,0.191342,0.711940,0.304381,0.646677,0.396677,0.554381,0.461940,0.441342,0.495722,0.315263,0.495722,0.250000,0.500000,0.250000,0.500000,-0.250000,0.495722,-0.250000,0.495722,-0.315263,0.461940,-0.441342,0.396677,-0.554381,0.304381,-0.646677,0.191342,-0.711940,0.065263,-0.745722,0.000000,-0.745722,0.000000,-0.750000,-0.550000,-0.750000,
-0.550000,0.750000,0.000000,0.750000,0.000000,0.745722,0.000000,0.745722,$1*%
G04 Aperture macros list end*
G04 #@! TA.AperFunction,EtchedComponent*
%ADD10C,0.000000*%
G04 #@! TD*
G04 #@! TA.AperFunction,ComponentPad*
%ADD11RoundRect,0.250000X-0.750000X-0.750000X0.750000X-0.750000X0.750000X0.750000X-0.750000X0.750000X0*%
G04 #@! TD*
G04 #@! TA.AperFunction,ComponentPad*
%ADD12C,2.000000*%
G04 #@! TD*
G04 #@! TA.AperFunction,SMDPad,CuDef*
%ADD13RoundRect,0.135000X0.135000X0.185000X-0.135000X0.185000X-0.135000X-0.185000X0.135000X-0.185000X0*%
G04 #@! TD*
G04 #@! TA.AperFunction,SMDPad,CuDef*
%ADD14RoundRect,0.250000X1.400000X1.000000X-1.400000X1.000000X-1.400000X-1.000000X1.400000X-1.000000X0*%
G04 #@! TD*
G04 #@! TA.AperFunction,SMDPad,CuDef*
%ADD15RoundRect,0.140000X0.170000X-0.140000X0.170000X0.140000X-0.170000X0.140000X-0.170000X-0.140000X0*%
G04 #@! TD*
G04 #@! TA.AperFunction,SMDPad,CuDef*
%ADD16C,1.500000*%
G04 #@! TD*
G04 #@! TA.AperFunction,SMDPad,CuDef*
%ADD17RoundRect,0.140000X-0.140000X-0.170000X0.140000X-0.170000X0.140000X0.170000X-0.140000X0.170000X0*%
G04 #@! TD*
G04 #@! TA.AperFunction,SMDPad,CuDef*
%ADD18RoundRect,0.135000X0.185000X-0.135000X0.185000X0.135000X-0.185000X0.135000X-0.185000X-0.135000X0*%
G04 #@! TD*
G04 #@! TA.AperFunction,SMDPad,CuDef*
%ADD19RoundRect,0.150000X-0.587500X-0.150000X0.587500X-0.150000X0.587500X0.150000X-0.587500X0.150000X0*%
G04 #@! TD*
G04 #@! TA.AperFunction,SMDPad,CuDef*
%ADD20RoundRect,0.087500X-0.425000X-0.087500X0.425000X-0.087500X0.425000X0.087500X-0.425000X0.087500X0*%
G04 #@! TD*
G04 #@! TA.AperFunction,SMDPad,CuDef*
%ADD21RoundRect,0.250000X0.475000X-0.250000X0.475000X0.250000X-0.475000X0.250000X-0.475000X-0.250000X0*%
G04 #@! TD*
G04 #@! TA.AperFunction,SMDPad,CuDef*
%ADD22RoundRect,0.250000X1.100000X-0.325000X1.100000X0.325000X-1.100000X0.325000X-1.100000X-0.325000X0*%
G04 #@! TD*
G04 #@! TA.AperFunction,SMDPad,CuDef*
%ADD23RoundRect,0.250000X-0.250000X-0.475000X0.250000X-0.475000X0.250000X0.475000X-0.250000X0.475000X0*%
G04 #@! TD*
G04 #@! TA.AperFunction,SMDPad,CuDef*
%ADD24RoundRect,0.135000X-0.135000X-0.185000X0.135000X-0.185000X0.135000X0.185000X-0.135000X0.185000X0*%
G04 #@! TD*
G04 #@! TA.AperFunction,SMDPad,CuDef*
%ADD25FreePoly0,0.000000*%
G04 #@! TD*
G04 #@! TA.AperFunction,SMDPad,CuDef*
%ADD26R,1.000000X1.500000*%
G04 #@! TD*
G04 #@! TA.AperFunction,SMDPad,CuDef*
%ADD27FreePoly1,0.000000*%
G04 #@! TD*
G04 #@! TA.AperFunction,SMDPad,CuDef*
%ADD28RoundRect,0.093750X-0.468750X-0.093750X0.468750X-0.093750X0.468750X0.093750X-0.468750X0.093750X0*%
G04 #@! TD*
G04 #@! TA.AperFunction,SMDPad,CuDef*
%ADD29RoundRect,0.062500X-0.487500X-0.062500X0.487500X-0.062500X0.487500X0.062500X-0.487500X0.062500X0*%
G04 #@! TD*
G04 #@! TA.AperFunction,SMDPad,CuDef*
%ADD30RoundRect,0.375000X-0.375000X-0.625000X0.375000X-0.625000X0.375000X0.625000X-0.375000X0.625000X0*%
G04 #@! TD*
G04 #@! TA.AperFunction,SMDPad,CuDef*
%ADD31RoundRect,0.062500X-0.062500X-0.337500X0.062500X-0.337500X0.062500X0.337500X-0.062500X0.337500X0*%
G04 #@! TD*
G04 #@! TA.AperFunction,SMDPad,CuDef*
%ADD32RoundRect,0.075000X-0.075000X-0.700000X0.075000X-0.700000X0.075000X0.700000X-0.075000X0.700000X0*%
G04 #@! TD*
G04 #@! TA.AperFunction,SMDPad,CuDef*
%ADD33RoundRect,0.250000X0.525000X0.400000X-0.525000X0.400000X-0.525000X-0.400000X0.525000X-0.400000X0*%
G04 #@! TD*
G04 #@! TA.AperFunction,SMDPad,CuDef*
%ADD34RoundRect,0.225000X0.250000X-0.225000X0.250000X0.225000X-0.250000X0.225000X-0.250000X-0.225000X0*%
G04 #@! TD*
G04 #@! TA.AperFunction,SMDPad,CuDef*
%ADD35RoundRect,0.225000X-0.225000X-0.375000X0.225000X-0.375000X0.225000X0.375000X-0.225000X0.375000X0*%
G04 #@! TD*
G04 #@! TA.AperFunction,SMDPad,CuDef*
%ADD36RoundRect,0.250000X-0.525000X-0.400000X0.525000X-0.400000X0.525000X0.400000X-0.525000X0.400000X0*%
G04 #@! TD*
G04 #@! TA.AperFunction,SMDPad,CuDef*
%ADD37RoundRect,0.250000X0.550000X-0.400000X0.550000X0.400000X-0.550000X0.400000X-0.550000X-0.400000X0*%
G04 #@! TD*
G04 #@! TA.AperFunction,SMDPad,CuDef*
%ADD38RoundRect,0.250000X0.550000X-0.750000X0.550000X0.750000X-0.550000X0.750000X-0.550000X-0.750000X0*%
G04 #@! TD*
G04 #@! TA.AperFunction,SMDPad,CuDef*
%ADD39RoundRect,0.225000X-0.225000X-0.250000X0.225000X-0.250000X0.225000X0.250000X-0.225000X0.250000X0*%
G04 #@! TD*
G04 #@! TA.AperFunction,ComponentPad*
%ADD40R,1.000000X1.000000*%
G04 #@! TD*
G04 #@! TA.AperFunction,ComponentPad*
%ADD41C,1.000000*%
G04 #@! TD*
G04 #@! TA.AperFunction,ComponentPad*
%ADD42RoundRect,0.250000X-0.350000X-0.625000X0.350000X-0.625000X0.350000X0.625000X-0.350000X0.625000X0*%
G04 #@! TD*
G04 #@! TA.AperFunction,ComponentPad*
%ADD43O,1.200000X1.750000*%
G04 #@! TD*
G04 #@! TA.AperFunction,SMDPad,CuDef*
%ADD44RoundRect,0.375000X0.375000X-0.625000X0.375000X0.625000X-0.375000X0.625000X-0.375000X-0.625000X0*%
G04 #@! TD*
G04 #@! TA.AperFunction,SMDPad,CuDef*
%ADD45RoundRect,0.500000X1.400000X-0.500000X1.400000X0.500000X-1.400000X0.500000X-1.400000X-0.500000X0*%
G04 #@! TD*
G04 #@! TA.AperFunction,SMDPad,CuDef*
%ADD46RoundRect,0.250000X-0.325000X-1.100000X0.325000X-1.100000X0.325000X1.100000X-0.325000X1.100000X0*%
G04 #@! TD*
G04 #@! TA.AperFunction,ConnectorPad*
%ADD47C,0.787400*%
G04 #@! TD*
G04 #@! TA.AperFunction,WasherPad*
%ADD48C,3.700000*%
G04 #@! TD*
G04 #@! TA.AperFunction,SMDPad,CuDef*
%ADD49RoundRect,0.225000X0.225000X0.250000X-0.225000X0.250000X-0.225000X-0.250000X0.225000X-0.250000X0*%
G04 #@! TD*
G04 #@! TA.AperFunction,ComponentPad*
%ADD50RoundRect,0.250001X0.499999X-0.499999X0.499999X0.499999X-0.499999X0.499999X-0.499999X-0.499999X0*%
G04 #@! TD*
G04 #@! TA.AperFunction,ComponentPad*
%ADD51C,1.500000*%
G04 #@! TD*
G04 #@! TA.AperFunction,SMDPad,CuDef*
%ADD52RoundRect,0.250000X0.250000X0.475000X-0.250000X0.475000X-0.250000X-0.475000X0.250000X-0.475000X0*%
G04 #@! TD*
G04 #@! TA.AperFunction,SMDPad,CuDef*
%ADD53RoundRect,0.075000X-0.075000X-0.075000X0.075000X-0.075000X0.075000X0.075000X-0.075000X0.075000X0*%
G04 #@! TD*
G04 #@! TA.AperFunction,SMDPad,CuDef*
%ADD54RoundRect,0.150000X-0.825000X-0.150000X0.825000X-0.150000X0.825000X0.150000X-0.825000X0.150000X0*%
G04 #@! TD*
G04 #@! TA.AperFunction,SMDPad,CuDef*
%ADD55RoundRect,0.250000X-0.600000X-2.600000X0.600000X-2.600000X0.600000X2.600000X-0.600000X2.600000X0*%
G04 #@! TD*
G04 #@! TA.AperFunction,SMDPad,CuDef*
%ADD56RoundRect,0.150000X0.150000X-0.587500X0.150000X0.587500X-0.150000X0.587500X-0.150000X-0.587500X0*%
G04 #@! TD*
G04 #@! TA.AperFunction,SMDPad,CuDef*
%ADD57RoundRect,0.250000X0.325000X1.100000X-0.325000X1.100000X-0.325000X-1.100000X0.325000X-1.100000X0*%
G04 #@! TD*
G04 #@! TA.AperFunction,SMDPad,CuDef*
%ADD58RoundRect,0.100000X-0.625000X-0.100000X0.625000X-0.100000X0.625000X0.100000X-0.625000X0.100000X0*%
G04 #@! TD*
G04 #@! TA.AperFunction,ComponentPad*
%ADD59C,0.500000*%
G04 #@! TD*
G04 #@! TA.AperFunction,SMDPad,CuDef*
%ADD60R,1.680000X1.880000*%
G04 #@! TD*
G04 #@! TA.AperFunction,SMDPad,CuDef*
%ADD61RoundRect,0.140000X0.140000X0.170000X-0.140000X0.170000X-0.140000X-0.170000X0.140000X-0.170000X0*%
G04 #@! TD*
G04 #@! TA.AperFunction,SMDPad,CuDef*
%ADD62RoundRect,0.100000X-0.450000X-0.100000X0.450000X-0.100000X0.450000X0.100000X-0.450000X0.100000X0*%
G04 #@! TD*
G04 #@! TA.AperFunction,ComponentPad*
%ADD63RoundRect,0.250001X0.499999X0.759999X-0.499999X0.759999X-0.499999X-0.759999X0.499999X-0.759999X0*%
G04 #@! TD*
G04 #@! TA.AperFunction,ComponentPad*
%ADD64O,1.500000X2.020000*%
G04 #@! TD*
G04 #@! TA.AperFunction,SMDPad,CuDef*
%ADD65RoundRect,0.150000X0.150000X0.425000X-0.150000X0.425000X-0.150000X-0.425000X0.150000X-0.425000X0*%
G04 #@! TD*
G04 #@! TA.AperFunction,SMDPad,CuDef*
%ADD66RoundRect,0.075000X0.075000X0.500000X-0.075000X0.500000X-0.075000X-0.500000X0.075000X-0.500000X0*%
G04 #@! TD*
G04 #@! TA.AperFunction,ComponentPad*
%ADD67O,1.000000X2.100000*%
G04 #@! TD*
G04 #@! TA.AperFunction,ComponentPad*
%ADD68O,1.000000X1.800000*%
G04 #@! TD*
G04 #@! TA.AperFunction,SMDPad,CuDef*
%ADD69RoundRect,0.150000X-0.512500X-0.150000X0.512500X-0.150000X0.512500X0.150000X-0.512500X0.150000X0*%
G04 #@! TD*
G04 #@! TA.AperFunction,SMDPad,CuDef*
%ADD70C,2.000000*%
G04 #@! TD*
G04 #@! TA.AperFunction,SMDPad,CuDef*
%ADD71RoundRect,0.250000X-0.375000X-0.625000X0.375000X-0.625000X0.375000X0.625000X-0.375000X0.625000X0*%
G04 #@! TD*
G04 #@! TA.AperFunction,SMDPad,CuDef*
%ADD72RoundRect,0.125000X-0.537500X-0.125000X0.537500X-0.125000X0.537500X0.125000X-0.537500X0.125000X0*%
G04 #@! TD*
G04 #@! TA.AperFunction,SMDPad,CuDef*
%ADD73RoundRect,0.250000X0.362500X1.425000X-0.362500X1.425000X-0.362500X-1.425000X0.362500X-1.425000X0*%
G04 #@! TD*
G04 #@! TA.AperFunction,SMDPad,CuDef*
%ADD74RoundRect,0.062500X-0.237500X-0.062500X0.237500X-0.062500X0.237500X0.062500X-0.237500X0.062500X0*%
G04 #@! TD*
G04 #@! TA.AperFunction,SMDPad,CuDef*
%ADD75RoundRect,0.062500X-0.062500X-0.237500X0.062500X-0.237500X0.062500X0.237500X-0.062500X0.237500X0*%
G04 #@! TD*
G04 #@! TA.AperFunction,ComponentPad*
%ADD76C,0.600000*%
G04 #@! TD*
G04 #@! TA.AperFunction,SMDPad,CuDef*
%ADD77R,3.700000X5.700000*%
G04 #@! TD*
G04 #@! TA.AperFunction,SMDPad,CuDef*
%ADD78R,0.400000X0.800000*%
G04 #@! TD*
G04 #@! TA.AperFunction,SMDPad,CuDef*
%ADD79R,0.800000X0.400000*%
G04 #@! TD*
G04 #@! TA.AperFunction,SMDPad,CuDef*
%ADD80Outline5P,-0.725000X0.130500X-0.130500X0.725000X0.725000X0.725000X0.725000X-0.725000X-0.725000X-0.725000X270.000000*%
G04 #@! TD*
G04 #@! TA.AperFunction,SMDPad,CuDef*
%ADD81R,1.450000X1.450000*%
G04 #@! TD*
G04 #@! TA.AperFunction,SMDPad,CuDef*
%ADD82R,0.700000X0.700000*%
G04 #@! TD*
G04 #@! TA.AperFunction,SMDPad,CuDef*
%ADD83RoundRect,0.150000X0.150000X0.625000X-0.150000X0.625000X-0.150000X-0.625000X0.150000X-0.625000X0*%
G04 #@! TD*
G04 #@! TA.AperFunction,SMDPad,CuDef*
%ADD84RoundRect,0.250000X0.350000X0.650000X-0.350000X0.650000X-0.350000X-0.650000X0.350000X-0.650000X0*%
G04 #@! TD*
G04 #@! TA.AperFunction,ViaPad*
%ADD85C,1.000000*%
G04 #@! TD*
G04 #@! TA.AperFunction,ViaPad*
%ADD86C,0.400000*%
G04 #@! TD*
G04 #@! TA.AperFunction,ViaPad*
%ADD87C,0.600000*%
G04 #@! TD*
G04 #@! TA.AperFunction,ViaPad*
%ADD88C,0.500000*%
G04 #@! TD*
G04 #@! TA.AperFunction,Conductor*
%ADD89C,0.500000*%
G04 #@! TD*
G04 #@! TA.AperFunction,Conductor*
%ADD90C,0.250000*%
G04 #@! TD*
G04 #@! TA.AperFunction,Conductor*
%ADD91C,0.300000*%
G04 #@! TD*
G04 #@! TA.AperFunction,Conductor*
%ADD92C,0.800000*%
G04 #@! TD*
G04 #@! TA.AperFunction,Conductor*
%ADD93C,0.400000*%
G04 #@! TD*
G04 #@! TA.AperFunction,Conductor*
%ADD94C,0.200000*%
G04 #@! TD*
G04 #@! TA.AperFunction,Conductor*
%ADD95C,2.000000*%
G04 #@! TD*
G04 APERTURE END LIST*
D10*
G04 #@! TA.AperFunction,EtchedComponent*
G04 #@! TO.C,JP1*
G36*
X82100000Y-65100000D02*
G01*
X81600000Y-65100000D01*
X81600000Y-64500000D01*
X82100000Y-64500000D01*
X82100000Y-65100000D01*
G37*
G04 #@! TD.AperFunction*
G04 #@! TA.AperFunction,EtchedComponent*
G04 #@! TO.C,NT1*
G36*
X79000000Y-78950000D02*
G01*
X75000000Y-78950000D01*
X75000000Y-76950000D01*
X79000000Y-76950000D01*
X79000000Y-78950000D01*
G37*
G04 #@! TD.AperFunction*
G04 #@! TD*
D11*
G04 #@! TO.P,C1,1*
G04 #@! TO.N,VM24*
X59500000Y-66000000D03*
D12*
G04 #@! TO.P,C1,2*
G04 #@! TO.N,PGND*
X64500000Y-66000000D03*
G04 #@! TD*
D13*
G04 #@! TO.P,R3,1*
G04 #@! TO.N,/SCH-02 3V3 Rail/U3_VCC*
X89010000Y-64500000D03*
G04 #@! TO.P,R3,2*
G04 #@! TO.N,PGOOD*
X87990000Y-64500000D03*
G04 #@! TD*
D14*
G04 #@! TO.P,D2,1,K_1*
G04 #@! TO.N,VM24*
X64600000Y-91395000D03*
G04 #@! TO.P,D2,2,A_2*
G04 #@! TO.N,PGND*
X64600000Y-84595000D03*
G04 #@! TD*
D15*
G04 #@! TO.P,C42,1*
G04 #@! TO.N,3V3*
X103300000Y-80480000D03*
G04 #@! TO.P,C42,2*
G04 #@! TO.N,AGND*
X103300000Y-79520000D03*
G04 #@! TD*
D16*
G04 #@! TO.P,TP18,1,1_1*
G04 #@! TO.N,SDA*
X92900000Y-77350000D03*
G04 #@! TD*
D17*
G04 #@! TO.P,C32,1*
G04 #@! TO.N,/SCH-06 Hall Tach/LM_TACHIN*
X115020000Y-79160000D03*
G04 #@! TO.P,C32,2*
G04 #@! TO.N,AGND*
X115980000Y-79160000D03*
G04 #@! TD*
G04 #@! TO.P,C18,1*
G04 #@! TO.N,3V3*
X108420000Y-68510000D03*
G04 #@! TO.P,C18,2*
G04 #@! TO.N,AGND*
X109380000Y-68510000D03*
G04 #@! TD*
D18*
G04 #@! TO.P,R36,1*
G04 #@! TO.N,WD_HEARTBEAT*
X109650000Y-93710000D03*
G04 #@! TO.P,R36,2*
G04 #@! TO.N,/SCH-05 Permission + Watchdog/U7_WDI*
X109650000Y-92690000D03*
G04 #@! TD*
D19*
G04 #@! TO.P,D9,1,A_1*
G04 #@! TO.N,AGND*
X120062500Y-76300000D03*
G04 #@! TO.P,D9,2,K_2*
G04 #@! TO.N,3V3*
X120062500Y-78200000D03*
G04 #@! TO.P,D9,3,COM_3*
G04 #@! TO.N,/SCH-06 Hall Tach/TLV_INN*
X121937500Y-77250000D03*
G04 #@! TD*
D20*
G04 #@! TO.P,U10,1,NC_1*
G04 #@! TO.N,unconnected-(U10-NC-Pad1)*
X99912500Y-95600000D03*
G04 #@! TO.P,U10,2*
G04 #@! TO.N,U5_CLR_OR*
X99912500Y-96250000D03*
G04 #@! TO.P,U10,3,GND_3*
G04 #@! TO.N,AGND*
X99912500Y-96900000D03*
G04 #@! TO.P,U10,4*
G04 #@! TO.N,/SCH-05 Permission + Watchdog/U5_CLR_BUF*
X101587500Y-96900000D03*
G04 #@! TO.P,U10,5,VCC_5*
G04 #@! TO.N,3V3*
X101587500Y-95600000D03*
G04 #@! TD*
D21*
G04 #@! TO.P,C27,1*
G04 #@! TO.N,/SCH-06 Hall Tach/TACH_LDO_IN*
X120750000Y-96950000D03*
G04 #@! TO.P,C27,2*
G04 #@! TO.N,AGND*
X120750000Y-95050000D03*
G04 #@! TD*
D18*
G04 #@! TO.P,R45,1*
G04 #@! TO.N,/SCH-06 Hall Tach/TACH_DRAIN*
X122750000Y-80760000D03*
G04 #@! TO.P,R45,2*
G04 #@! TO.N,/SCH-06 Hall Tach/LM_TACHIN*
X122750000Y-79740000D03*
G04 #@! TD*
G04 #@! TO.P,R44,1*
G04 #@! TO.N,+12V_TACH*
X122750000Y-83010000D03*
G04 #@! TO.P,R44,2*
G04 #@! TO.N,/SCH-06 Hall Tach/TACH_DRAIN*
X122750000Y-81990000D03*
G04 #@! TD*
D16*
G04 #@! TO.P,TP13,1,1_1*
G04 #@! TO.N,WD_HEARTBEAT*
X108900000Y-72780000D03*
G04 #@! TD*
G04 #@! TO.P,TP3,1,1_1*
G04 #@! TO.N,PGND*
X72300000Y-72500000D03*
G04 #@! TD*
D22*
G04 #@! TO.P,C17,1*
G04 #@! TO.N,3V3*
X108900000Y-66975000D03*
G04 #@! TO.P,C17,2*
G04 #@! TO.N,AGND*
X108900000Y-64025000D03*
G04 #@! TD*
D23*
G04 #@! TO.P,C23,1*
G04 #@! TO.N,/SCH-05 Permission + Watchdog/U6_PRE_RC*
X107070000Y-87380000D03*
G04 #@! TO.P,C23,2*
G04 #@! TO.N,AGND*
X108970000Y-87380000D03*
G04 #@! TD*
D24*
G04 #@! TO.P,R57,1*
G04 #@! TO.N,/SCH-07 Connectors/VBUS*
X102990000Y-58300000D03*
G04 #@! TO.P,R57,2*
G04 #@! TO.N,/SCH-07 Connectors/VBUS_SENSE*
X104010000Y-58300000D03*
G04 #@! TD*
G04 #@! TO.P,R16,1*
G04 #@! TO.N,/SCH-04 ESP32-C6 Supervisor/ESP_SDA*
X96590000Y-77900000D03*
G04 #@! TO.P,R16,2*
G04 #@! TO.N,SDA*
X97610000Y-77900000D03*
G04 #@! TD*
D25*
G04 #@! TO.P,JP1,1,A_1*
G04 #@! TO.N,AGND*
X81200000Y-64800000D03*
D26*
G04 #@! TO.P,JP1,2,C_2*
G04 #@! TO.N,/SCH-02 3V3 Rail/MODE_SYNC*
X82500000Y-64800000D03*
D27*
G04 #@! TO.P,JP1,3,B_3*
G04 #@! TO.N,3V3*
X83800000Y-64800000D03*
G04 #@! TD*
D17*
G04 #@! TO.P,C25,1*
G04 #@! TO.N,3V3*
X108920000Y-89100000D03*
G04 #@! TO.P,C25,2*
G04 #@! TO.N,AGND*
X109880000Y-89100000D03*
G04 #@! TD*
D24*
G04 #@! TO.P,R19,1*
G04 #@! TO.N,3V3*
X108390000Y-69790000D03*
G04 #@! TO.P,R19,2*
G04 #@! TO.N,TEMP_SENSE*
X109410000Y-69790000D03*
G04 #@! TD*
D28*
G04 #@! TO.P,U3,1,PGOOD_1*
G04 #@! TO.N,PGOOD*
X83612500Y-59037000D03*
D29*
G04 #@! TO.P,U3,2,EN_2*
G04 #@! TO.N,VM24*
X83600000Y-59850000D03*
G04 #@! TO.P,U3,3,VIN_3*
X83600000Y-60350000D03*
D30*
G04 #@! TO.P,U3,4,VOUT_4*
G04 #@! TO.N,3V3*
X83800000Y-62025000D03*
G04 #@! TO.P,U3,5,SW_5*
G04 #@! TO.N,unconnected-(U3-SW-Pad5)*
X86200000Y-62025000D03*
D29*
G04 #@! TO.P,U3,6,SW_6*
G04 #@! TO.N,unconnected-(U3-SW-Pad6)*
X86400000Y-60350000D03*
G04 #@! TO.P,U3,7,BOOT_7*
G04 #@! TO.N,unconnected-(U3-BOOT-Pad7)*
X86400000Y-59850000D03*
D28*
G04 #@! TO.P,U3,8,VCC_8*
G04 #@! TO.N,/SCH-02 3V3 Rail/U3_VCC*
X86387500Y-59037000D03*
D31*
G04 #@! TO.P,U3,9,BIAS_9*
G04 #@! TO.N,3V3*
X85500000Y-58950000D03*
D32*
G04 #@! TO.P,U3,10,GND_10*
G04 #@! TO.N,AGND*
X85000000Y-59325000D03*
D31*
G04 #@! TO.P,U3,11,MODE/SYNC_11*
G04 #@! TO.N,/SCH-02 3V3 Rail/MODE_SYNC*
X84500000Y-58950000D03*
G04 #@! TD*
D16*
G04 #@! TO.P,TP25,1,1_1*
G04 #@! TO.N,/SCH-07 Connectors/VBUS_SENSE*
X109300000Y-59100000D03*
G04 #@! TD*
D24*
G04 #@! TO.P,R12,1*
G04 #@! TO.N,3V3*
X100990000Y-76600000D03*
G04 #@! TO.P,R12,2*
G04 #@! TO.N,ESP_BOOT*
X102010000Y-76600000D03*
G04 #@! TD*
G04 #@! TO.P,R43,1*
G04 #@! TO.N,HALL_TACH*
X125240000Y-83750000D03*
G04 #@! TO.P,R43,2*
G04 #@! TO.N,3V3*
X126260000Y-83750000D03*
G04 #@! TD*
D16*
G04 #@! TO.P,TP28,1,1_1*
G04 #@! TO.N,AGND*
X96600000Y-59300000D03*
G04 #@! TD*
D22*
G04 #@! TO.P,C26,1*
G04 #@! TO.N,/SCH-06 Hall Tach/TACH_LDO_IN*
X118000000Y-97975000D03*
G04 #@! TO.P,C26,2*
G04 #@! TO.N,AGND*
X118000000Y-95025000D03*
G04 #@! TD*
D15*
G04 #@! TO.P,C31,1*
G04 #@! TO.N,/SCH-06 Hall Tach/TACH_DELAY*
X117250000Y-101230000D03*
G04 #@! TO.P,C31,2*
G04 #@! TO.N,AGND*
X117250000Y-100270000D03*
G04 #@! TD*
D33*
G04 #@! TO.P,SW2,1,1_1*
G04 #@! TO.N,ESP_BOOT*
X105130000Y-74710000D03*
X97170000Y-74710000D03*
G04 #@! TO.P,SW2,2,2_2*
G04 #@! TO.N,AGND*
X105130000Y-70210000D03*
X97170000Y-70210000D03*
G04 #@! TD*
D34*
G04 #@! TO.P,C5,1*
G04 #@! TO.N,VM24*
X81000000Y-93075000D03*
G04 #@! TO.P,C5,2*
G04 #@! TO.N,PGND*
X81000000Y-91525000D03*
G04 #@! TD*
D35*
G04 #@! TO.P,D6,1,K_1*
G04 #@! TO.N,MCU_CLEAR_N*
X99095000Y-91180000D03*
G04 #@! TO.P,D6,2,A_2*
G04 #@! TO.N,U5_CLR_OR*
X102395000Y-91180000D03*
G04 #@! TD*
D16*
G04 #@! TO.P,TP9,1,1_1*
G04 #@! TO.N,PGOOD*
X91000000Y-64500000D03*
G04 #@! TD*
D17*
G04 #@! TO.P,C19,1*
G04 #@! TO.N,ESP_EN*
X98620000Y-61250000D03*
G04 #@! TO.P,C19,2*
G04 #@! TO.N,AGND*
X99580000Y-61250000D03*
G04 #@! TD*
D16*
G04 #@! TO.P,TP26,1,1_1*
G04 #@! TO.N,AGND*
X97380000Y-56450000D03*
G04 #@! TD*
D36*
G04 #@! TO.P,SW1,1,1_1*
G04 #@! TO.N,ESP_EN*
X97170000Y-63160000D03*
X105130000Y-63160000D03*
G04 #@! TO.P,SW1,2,2_2*
G04 #@! TO.N,AGND*
X97170000Y-67660000D03*
X105130000Y-67660000D03*
G04 #@! TD*
D16*
G04 #@! TO.P,TP11,1,1_1*
G04 #@! TO.N,U5_Q*
X96650000Y-87000000D03*
G04 #@! TD*
D24*
G04 #@! TO.P,R5,1*
G04 #@! TO.N,3V3*
X89090000Y-73900000D03*
G04 #@! TO.P,R5,2*
G04 #@! TO.N,NFAULT*
X90110000Y-73900000D03*
G04 #@! TD*
D13*
G04 #@! TO.P,R46,1*
G04 #@! TO.N,+12V_TACH*
X124010000Y-84250000D03*
G04 #@! TO.P,R46,2*
G04 #@! TO.N,/SCH-06 Hall Tach/TACH_BIAS*
X122990000Y-84250000D03*
G04 #@! TD*
D37*
G04 #@! TO.P,RV1,1,1_1*
G04 #@! TO.N,/SCH-06 Hall Tach/RSCALE_MID*
X113050000Y-90250000D03*
D38*
G04 #@! TO.P,RV1,2,2_2*
G04 #@! TO.N,AGND*
X115950000Y-91500000D03*
D37*
G04 #@! TO.P,RV1,3,3_3*
X113050000Y-92750000D03*
G04 #@! TD*
D39*
G04 #@! TO.P,C30,1*
G04 #@! TO.N,+12V_TACH*
X114225000Y-100750000D03*
G04 #@! TO.P,C30,2*
G04 #@! TO.N,/SCH-06 Hall Tach/TACH_FB*
X115775000Y-100750000D03*
G04 #@! TD*
D16*
G04 #@! TO.P,TP14,1,1_1*
G04 #@! TO.N,WDO*
X108900000Y-74930000D03*
G04 #@! TD*
D23*
G04 #@! TO.P,C13,1*
G04 #@! TO.N,/SCH-03 MCF Power Stage/MCF_CPH*
X78800000Y-86800000D03*
G04 #@! TO.P,C13,2*
G04 #@! TO.N,/SCH-03 MCF Power Stage/MCF_CPL*
X80700000Y-86800000D03*
G04 #@! TD*
D22*
G04 #@! TO.P,C3,1*
G04 #@! TO.N,VM24*
X75700000Y-83175000D03*
G04 #@! TO.P,C3,2*
G04 #@! TO.N,PGND*
X75700000Y-80225000D03*
G04 #@! TD*
D40*
G04 #@! TO.P,J8,1,Pin_1_1*
G04 #@! TO.N,VM24*
X125300000Y-92800000D03*
D41*
G04 #@! TO.P,J8,2,Pin_2_2*
G04 #@! TO.N,PGND*
X126570000Y-92800000D03*
G04 #@! TO.P,J8,3,Pin_3_3*
G04 #@! TO.N,3V3*
X125300000Y-94070000D03*
G04 #@! TO.P,J8,4,Pin_4_4*
G04 #@! TO.N,+12V_TACH*
X126570000Y-94070000D03*
G04 #@! TO.P,J8,5,Pin_5_5*
G04 #@! TO.N,DRVOFF*
X125300000Y-95340000D03*
G04 #@! TO.P,J8,6,Pin_6_6*
G04 #@! TO.N,SPEED*
X126570000Y-95340000D03*
G04 #@! TO.P,J8,7,Pin_7_7*
G04 #@! TO.N,FG*
X125300000Y-96610000D03*
G04 #@! TO.P,J8,8,Pin_8_8*
G04 #@! TO.N,NFAULT*
X126570000Y-96610000D03*
G04 #@! TO.P,J8,9,Pin_9_9*
G04 #@! TO.N,SOX*
X125300000Y-97880000D03*
G04 #@! TO.P,J8,10,Pin_10_10*
G04 #@! TO.N,AGND*
X126570000Y-97880000D03*
G04 #@! TD*
D16*
G04 #@! TO.P,TP8,1,1_1*
G04 #@! TO.N,MCF_DVDD*
X74750000Y-85700000D03*
G04 #@! TD*
D42*
G04 #@! TO.P,J3,1,Pin_1_1*
G04 #@! TO.N,3V3*
X109500000Y-104400000D03*
D43*
G04 #@! TO.P,J3,2,Pin_2_2*
G04 #@! TO.N,HALL_TACH*
X111500000Y-104400000D03*
G04 #@! TO.P,J3,3,Pin_3_3*
G04 #@! TO.N,AGND*
X113500000Y-104400000D03*
G04 #@! TD*
D44*
G04 #@! TO.P,Q1,1,G_1*
G04 #@! TO.N,/SCH-01 24V Input/PMOS_GATE*
X62300000Y-81450000D03*
G04 #@! TO.P,Q1,2,D_2*
G04 #@! TO.N,RAW24*
X64600000Y-81450000D03*
D45*
X64600000Y-75150000D03*
D44*
G04 #@! TO.P,Q1,3,S_3*
G04 #@! TO.N,VM24*
X66900000Y-81450000D03*
G04 #@! TD*
D24*
G04 #@! TO.P,R7,1*
G04 #@! TO.N,3V3*
X89090000Y-76500000D03*
G04 #@! TO.P,R7,2*
G04 #@! TO.N,SCL*
X90110000Y-76500000D03*
G04 #@! TD*
D46*
G04 #@! TO.P,C9,1*
G04 #@! TO.N,3V3*
X88425000Y-58000000D03*
G04 #@! TO.P,C9,2*
G04 #@! TO.N,AGND*
X91375000Y-58000000D03*
G04 #@! TD*
D47*
G04 #@! TO.P,J7,1,Pin_1_1*
G04 #@! TO.N,3V3*
X106730000Y-79135000D03*
G04 #@! TO.P,J7,2,Pin_2_2*
G04 #@! TO.N,UART_TX*
X106730000Y-77865000D03*
G04 #@! TO.P,J7,3,Pin_3_3*
G04 #@! TO.N,UART_RX*
X108000000Y-79135000D03*
G04 #@! TO.P,J7,4,Pin_4_4*
G04 #@! TO.N,ESP_EN*
X108000000Y-77865000D03*
G04 #@! TO.P,J7,5,Pin_5_5*
G04 #@! TO.N,ESP_BOOT*
X109270000Y-79135000D03*
G04 #@! TO.P,J7,6,Pin_6_6*
G04 #@! TO.N,AGND*
X109270000Y-77865000D03*
G04 #@! TD*
D18*
G04 #@! TO.P,R33,1*
G04 #@! TO.N,/SCH-05 Permission + Watchdog/SET1*
X111150000Y-90010000D03*
G04 #@! TO.P,R33,2*
G04 #@! TO.N,AGND*
X111150000Y-88990000D03*
G04 #@! TD*
G04 #@! TO.P,R25,1*
G04 #@! TO.N,/SCH-05 Permission + Watchdog/U5_CLK*
X94850000Y-80510000D03*
G04 #@! TO.P,R25,2*
G04 #@! TO.N,AGND*
X94850000Y-79490000D03*
G04 #@! TD*
D48*
G04 #@! TO.P,H4,*
G04 #@! TO.N,*
X122000000Y-56000000D03*
G04 #@! TD*
D49*
G04 #@! TO.P,C33,1*
G04 #@! TO.N,/SCH-06 Hall Tach/TACH_BIAS*
X126525000Y-87500000D03*
G04 #@! TO.P,C33,2*
G04 #@! TO.N,AGND*
X124975000Y-87500000D03*
G04 #@! TD*
D39*
G04 #@! TO.P,C29,1*
G04 #@! TO.N,+12V_TACH*
X106725000Y-100750000D03*
G04 #@! TO.P,C29,2*
G04 #@! TO.N,AGND*
X108275000Y-100750000D03*
G04 #@! TD*
D22*
G04 #@! TO.P,C28,1*
G04 #@! TO.N,+12V_TACH*
X108000000Y-98975000D03*
G04 #@! TO.P,C28,2*
G04 #@! TO.N,AGND*
X108000000Y-96025000D03*
G04 #@! TD*
D50*
G04 #@! TO.P,J1,1,Pin_1_1*
G04 #@! TO.N,/SCH-07 Connectors/RAW24_IN*
X56500000Y-79000000D03*
D51*
G04 #@! TO.P,J1,2,Pin_2_2*
G04 #@! TO.N,PGND*
X59500000Y-79000000D03*
G04 #@! TD*
D52*
G04 #@! TO.P,C8,1*
G04 #@! TO.N,VM24*
X81450000Y-60500000D03*
G04 #@! TO.P,C8,2*
G04 #@! TO.N,AGND*
X79550000Y-60500000D03*
G04 #@! TD*
D18*
G04 #@! TO.P,R50,1*
G04 #@! TO.N,3V3*
X117750000Y-91260000D03*
G04 #@! TO.P,R50,2*
G04 #@! TO.N,OVERSPEED_N*
X117750000Y-90240000D03*
G04 #@! TD*
D24*
G04 #@! TO.P,R10,1*
G04 #@! TO.N,SPEED*
X69890000Y-92400000D03*
G04 #@! TO.P,R10,2*
G04 #@! TO.N,AGND*
X70910000Y-92400000D03*
G04 #@! TD*
D35*
G04 #@! TO.P,D7,1,K_1*
G04 #@! TO.N,/SCH-05 Permission + Watchdog/SW_CLR*
X99095000Y-93730000D03*
G04 #@! TO.P,D7,2,A_2*
G04 #@! TO.N,U5_CLR_OR*
X102395000Y-93730000D03*
G04 #@! TD*
D16*
G04 #@! TO.P,TP6,1,1_1*
G04 #@! TO.N,+12V_TACH*
X123000000Y-96750000D03*
G04 #@! TD*
D35*
G04 #@! TO.P,D1,1,K_1*
G04 #@! TO.N,VM24*
X52100000Y-73300000D03*
G04 #@! TO.P,D1,2,A_2*
G04 #@! TO.N,/SCH-01 24V Input/PMOS_GATE*
X55400000Y-73300000D03*
G04 #@! TD*
D19*
G04 #@! TO.P,Q2,1,G_1*
G04 #@! TO.N,/SCH-05 Permission + Watchdog/Q2_GATE*
X95262500Y-83150000D03*
G04 #@! TO.P,Q2,2,S_2*
G04 #@! TO.N,AGND*
X95262500Y-85050000D03*
G04 #@! TO.P,Q2,3,D_3*
G04 #@! TO.N,DRVOFF*
X97137500Y-84100000D03*
G04 #@! TD*
D53*
G04 #@! TO.P,U12,1,D+_1*
G04 #@! TO.N,USB_DP*
X108550000Y-62425000D03*
G04 #@! TO.P,U12,2,D-_2*
G04 #@! TO.N,USB_DM*
X109250000Y-62425000D03*
G04 #@! TO.P,U12,3,GND_3*
G04 #@! TO.N,AGND*
X108900000Y-61575000D03*
G04 #@! TD*
D21*
G04 #@! TO.P,C38,1*
G04 #@! TO.N,/SCH-06 Hall Tach/VTACH_RAW*
X89500000Y-90950000D03*
G04 #@! TO.P,C38,2*
G04 #@! TO.N,AGND*
X89500000Y-89050000D03*
G04 #@! TD*
D49*
G04 #@! TO.P,C12,1*
G04 #@! TO.N,/SCH-03 MCF Power Stage/MCF_CP*
X80875000Y-88700000D03*
G04 #@! TO.P,C12,2*
G04 #@! TO.N,VM24*
X79325000Y-88700000D03*
G04 #@! TD*
D35*
G04 #@! TO.P,D8,1,K_1*
G04 #@! TO.N,PGOOD*
X104785000Y-85050000D03*
G04 #@! TO.P,D8,2,A_2*
G04 #@! TO.N,/SCH-05 Permission + Watchdog/U6_PRE_RC*
X108085000Y-85050000D03*
G04 #@! TD*
D16*
G04 #@! TO.P,TP1,1,1_1*
G04 #@! TO.N,RAW24*
X52500000Y-68500000D03*
G04 #@! TD*
D24*
G04 #@! TO.P,R6,1*
G04 #@! TO.N,3V3*
X89090000Y-75200000D03*
G04 #@! TO.P,R6,2*
G04 #@! TO.N,SDA*
X90110000Y-75200000D03*
G04 #@! TD*
D11*
G04 #@! TO.P,C2,1*
G04 #@! TO.N,VM24*
X70600000Y-66000000D03*
D12*
G04 #@! TO.P,C2,2*
G04 #@! TO.N,PGND*
X75600000Y-66000000D03*
G04 #@! TD*
D16*
G04 #@! TO.P,TP16,1,1_1*
G04 #@! TO.N,MCF_EXT_WD*
X74750000Y-88200000D03*
G04 #@! TD*
D24*
G04 #@! TO.P,R56,1*
G04 #@! TO.N,/SCH-07 Connectors/CC2*
X100790000Y-58300000D03*
G04 #@! TO.P,R56,2*
G04 #@! TO.N,AGND*
X101810000Y-58300000D03*
G04 #@! TD*
D34*
G04 #@! TO.P,C11,1*
G04 #@! TO.N,/SCH-02 3V3 Rail/U3_VCC*
X85200000Y-57325000D03*
G04 #@! TO.P,C11,2*
G04 #@! TO.N,AGND*
X85200000Y-55775000D03*
G04 #@! TD*
D46*
G04 #@! TO.P,C16,1*
G04 #@! TO.N,/SCH-03 MCF Power Stage/MCF_BUCK*
X83025000Y-95150000D03*
G04 #@! TO.P,C16,2*
G04 #@! TO.N,AGND*
X85975000Y-95150000D03*
G04 #@! TD*
D17*
G04 #@! TO.P,C20,1*
G04 #@! TO.N,TEMP_SENSE*
X108420000Y-71070000D03*
G04 #@! TO.P,C20,2*
G04 #@! TO.N,AGND*
X109380000Y-71070000D03*
G04 #@! TD*
D35*
G04 #@! TO.P,D3,1,K_1*
G04 #@! TO.N,PGOOD*
X99095000Y-83530000D03*
G04 #@! TO.P,D3,2,A_2*
G04 #@! TO.N,U5_CLR_OR*
X102395000Y-83530000D03*
G04 #@! TD*
D39*
G04 #@! TO.P,C14,1*
G04 #@! TO.N,MCF_AVDD*
X89275000Y-83200000D03*
G04 #@! TO.P,C14,2*
G04 #@! TO.N,AGND*
X90825000Y-83200000D03*
G04 #@! TD*
D18*
G04 #@! TO.P,R38,1*
G04 #@! TO.N,WD_HEARTBEAT*
X104600000Y-82260000D03*
G04 #@! TO.P,R38,2*
G04 #@! TO.N,MCF_EXT_WD*
X104600000Y-81240000D03*
G04 #@! TD*
D35*
G04 #@! TO.P,D5,1,K_1*
G04 #@! TO.N,OS_LOCK_OK*
X99095000Y-88630000D03*
G04 #@! TO.P,D5,2,A_2*
G04 #@! TO.N,U5_CLR_OR*
X102395000Y-88630000D03*
G04 #@! TD*
D54*
G04 #@! TO.P,U8,1,TACH+_1*
G04 #@! TO.N,/SCH-06 Hall Tach/LM_TACHIN*
X115725000Y-80690000D03*
G04 #@! TO.P,U8,2,CP1_2*
G04 #@! TO.N,/SCH-06 Hall Tach/TACH_CP1*
X115725000Y-81960000D03*
G04 #@! TO.P,U8,3,CP2_3*
G04 #@! TO.N,/SCH-06 Hall Tach/VTACH_RAW*
X115725000Y-83230000D03*
G04 #@! TO.P,U8,4,IN+_4*
X115725000Y-84500000D03*
G04 #@! TO.P,U8,5,EMIT_5*
G04 #@! TO.N,VTACH*
X115725000Y-85770000D03*
G04 #@! TO.P,U8,6,NC_6*
G04 #@! TO.N,unconnected-(U8-NC-Pad6)*
X115725000Y-87040000D03*
G04 #@! TO.P,U8,7,NC_7*
G04 #@! TO.N,unconnected-(U8-NC-Pad7)*
X115725000Y-88310000D03*
G04 #@! TO.P,U8,8,COL_8*
G04 #@! TO.N,+12V_TACH*
X120675000Y-88310000D03*
G04 #@! TO.P,U8,9,V+_9*
X120675000Y-87040000D03*
G04 #@! TO.P,U8,10,IN-_10*
G04 #@! TO.N,VTACH*
X120675000Y-85770000D03*
G04 #@! TO.P,U8,11,TACH-_11*
G04 #@! TO.N,/SCH-06 Hall Tach/TACH_BIAS*
X120675000Y-84500000D03*
G04 #@! TO.P,U8,12,GND_12*
G04 #@! TO.N,AGND*
X120675000Y-83230000D03*
G04 #@! TO.P,U8,13,NC_13*
G04 #@! TO.N,unconnected-(U8-NC-Pad13)*
X120675000Y-81960000D03*
G04 #@! TO.P,U8,14,NC_14*
G04 #@! TO.N,unconnected-(U8-NC-Pad14)*
X120675000Y-80690000D03*
G04 #@! TD*
D16*
G04 #@! TO.P,TP2,1,1_1*
G04 #@! TO.N,VM24*
X72300000Y-75500000D03*
G04 #@! TD*
D24*
G04 #@! TO.P,R11,1*
G04 #@! TO.N,3V3*
X98590000Y-59900000D03*
G04 #@! TO.P,R11,2*
G04 #@! TO.N,ESP_EN*
X99610000Y-59900000D03*
G04 #@! TD*
D16*
G04 #@! TO.P,TP22,1,1_1*
G04 #@! TO.N,VTACH*
X115000000Y-77150000D03*
G04 #@! TD*
D55*
G04 #@! TO.P,L1,1,1_1*
G04 #@! TO.N,/SCH-03 MCF Power Stage/BUCK_SW*
X73750000Y-93000000D03*
G04 #@! TO.P,L1,2,2_2*
G04 #@! TO.N,/SCH-03 MCF Power Stage/MCF_BUCK*
X78250000Y-93000000D03*
G04 #@! TD*
D24*
G04 #@! TO.P,R31,1*
G04 #@! TO.N,3V3*
X104630000Y-86970000D03*
G04 #@! TO.P,R31,2*
G04 #@! TO.N,/SCH-05 Permission + Watchdog/U6_PRE_RC*
X105650000Y-86970000D03*
G04 #@! TD*
D18*
G04 #@! TO.P,R30,1*
G04 #@! TO.N,3V3*
X94800000Y-96310000D03*
G04 #@! TO.P,R30,2*
G04 #@! TO.N,/SCH-05 Permission + Watchdog/SW_CLR*
X94800000Y-95290000D03*
G04 #@! TD*
D24*
G04 #@! TO.P,R54,1*
G04 #@! TO.N,OVERSPEED_N*
X118240000Y-92500000D03*
G04 #@! TO.P,R54,2*
G04 #@! TO.N,VREF*
X119260000Y-92500000D03*
G04 #@! TD*
D18*
G04 #@! TO.P,R27,1*
G04 #@! TO.N,/SCH-05 Permission + Watchdog/Q2_GATE*
X94800000Y-89710000D03*
G04 #@! TO.P,R27,2*
G04 #@! TO.N,AGND*
X94800000Y-88690000D03*
G04 #@! TD*
D16*
G04 #@! TO.P,TP4,1,1_1*
G04 #@! TO.N,AGND*
X85000000Y-53500000D03*
G04 #@! TD*
D24*
G04 #@! TO.P,R55,1*
G04 #@! TO.N,/SCH-07 Connectors/CC1*
X98590000Y-58300000D03*
G04 #@! TO.P,R55,2*
G04 #@! TO.N,AGND*
X99610000Y-58300000D03*
G04 #@! TD*
D16*
G04 #@! TO.P,TP23,1,1_1*
G04 #@! TO.N,VREF*
X124500000Y-77250000D03*
G04 #@! TD*
D56*
G04 #@! TO.P,Q3,1,G_1*
G04 #@! TO.N,HALL_TACH*
X124300000Y-81937500D03*
G04 #@! TO.P,Q3,2,S_2*
G04 #@! TO.N,AGND*
X126200000Y-81937500D03*
G04 #@! TO.P,Q3,3,D_3*
G04 #@! TO.N,/SCH-06 Hall Tach/TACH_DRAIN*
X125250000Y-80062500D03*
G04 #@! TD*
D57*
G04 #@! TO.P,C7,1*
G04 #@! TO.N,VM24*
X81375000Y-57600000D03*
G04 #@! TO.P,C7,2*
G04 #@! TO.N,AGND*
X78425000Y-57600000D03*
G04 #@! TD*
D15*
G04 #@! TO.P,C22,1*
G04 #@! TO.N,3V3*
X102950000Y-96730000D03*
G04 #@! TO.P,C22,2*
G04 #@! TO.N,AGND*
X102950000Y-95770000D03*
G04 #@! TD*
D16*
G04 #@! TO.P,TP24,1,1_1*
G04 #@! TO.N,OVERSPEED_N*
X96650000Y-89200000D03*
G04 #@! TD*
D18*
G04 #@! TO.P,R28,1*
G04 #@! TO.N,MCF_AVDD*
X94800000Y-91910000D03*
G04 #@! TO.P,R28,2*
G04 #@! TO.N,DRVOFF*
X94800000Y-90890000D03*
G04 #@! TD*
D42*
G04 #@! TO.P,J4,1,Pin_1_1*
G04 #@! TO.N,TEMP_SENSE*
X90540000Y-104400000D03*
D43*
G04 #@! TO.P,J4,2,Pin_2_2*
G04 #@! TO.N,AGND*
X92540000Y-104400000D03*
G04 #@! TD*
D24*
G04 #@! TO.P,R21,1*
G04 #@! TO.N,/SCH-04 ESP32-C6 Supervisor/ESP_USB_DP*
X105190000Y-59900000D03*
G04 #@! TO.P,R21,2*
G04 #@! TO.N,USB_DP*
X106210000Y-59900000D03*
G04 #@! TD*
D16*
G04 #@! TO.P,TP15,1,1_1*
G04 #@! TO.N,WD_MR*
X105350000Y-93200000D03*
G04 #@! TD*
D35*
G04 #@! TO.P,D4,1,K_1*
G04 #@! TO.N,WDO*
X99095000Y-86080000D03*
G04 #@! TO.P,D4,2,A_2*
G04 #@! TO.N,U5_CLR_OR*
X102395000Y-86080000D03*
G04 #@! TD*
D18*
G04 #@! TO.P,R32,1*
G04 #@! TO.N,/SCH-05 Permission + Watchdog/SET0*
X109400000Y-91310000D03*
G04 #@! TO.P,R32,2*
G04 #@! TO.N,AGND*
X109400000Y-90290000D03*
G04 #@! TD*
D24*
G04 #@! TO.P,R17,1*
G04 #@! TO.N,/SCH-04 ESP32-C6 Supervisor/ESP_SCL*
X98790000Y-77900000D03*
G04 #@! TO.P,R17,2*
G04 #@! TO.N,SCL*
X99810000Y-77900000D03*
G04 #@! TD*
D58*
G04 #@! TO.P,U4,1,OUT_1*
G04 #@! TO.N,+12V_TACH*
X110850000Y-96525000D03*
G04 #@! TO.P,U4,2,FB_2*
G04 #@! TO.N,/SCH-06 Hall Tach/TACH_FB*
X110850000Y-97175000D03*
G04 #@! TO.P,U4,3,PG_3*
G04 #@! TO.N,OVERSPEED_N*
X110850000Y-97825000D03*
G04 #@! TO.P,U4,4,GND_4*
G04 #@! TO.N,AGND*
X110850000Y-98475000D03*
G04 #@! TO.P,U4,5,EN_5*
G04 #@! TO.N,/SCH-06 Hall Tach/TACH_LDO_IN*
X115150000Y-98475000D03*
G04 #@! TO.P,U4,6,NC_6*
G04 #@! TO.N,unconnected-(U4-NC-Pad6)*
X115150000Y-97825000D03*
G04 #@! TO.P,U4,7,DELAY_7*
G04 #@! TO.N,/SCH-06 Hall Tach/TACH_DELAY*
X115150000Y-97175000D03*
G04 #@! TO.P,U4,8,IN_8*
G04 #@! TO.N,/SCH-06 Hall Tach/TACH_LDO_IN*
X115150000Y-96525000D03*
D59*
G04 #@! TO.P,U4,9,EP_9*
G04 #@! TO.N,AGND*
X112450000Y-96850000D03*
X112450000Y-98150000D03*
D60*
X113000000Y-97500000D03*
D59*
X113550000Y-96850000D03*
X113550000Y-98150000D03*
G04 #@! TD*
D18*
G04 #@! TO.P,R26,1*
G04 #@! TO.N,U5_Q*
X94800000Y-87510000D03*
G04 #@! TO.P,R26,2*
G04 #@! TO.N,/SCH-05 Permission + Watchdog/Q2_GATE*
X94800000Y-86490000D03*
G04 #@! TD*
D48*
G04 #@! TO.P,H3,*
G04 #@! TO.N,*
X56000000Y-56000000D03*
G04 #@! TD*
D13*
G04 #@! TO.P,R52,1*
G04 #@! TO.N,3V3*
X126260000Y-90500000D03*
G04 #@! TO.P,R52,2*
G04 #@! TO.N,VREF*
X125240000Y-90500000D03*
G04 #@! TD*
D36*
G04 #@! TO.P,SW3,1,1_1*
G04 #@! TO.N,/SCH-05 Permission + Watchdog/SW_CLR*
X96220000Y-101650000D03*
X104180000Y-101650000D03*
G04 #@! TO.P,SW3,2,2_2*
G04 #@! TO.N,AGND*
X96220000Y-106150000D03*
X104180000Y-106150000D03*
G04 #@! TD*
D18*
G04 #@! TO.P,R34,1*
G04 #@! TO.N,3V3*
X107050000Y-93710000D03*
G04 #@! TO.P,R34,2*
G04 #@! TO.N,WD_MR*
X107050000Y-92690000D03*
G04 #@! TD*
D61*
G04 #@! TO.P,C41,1*
G04 #@! TO.N,3V3*
X126230000Y-89000000D03*
G04 #@! TO.P,C41,2*
G04 #@! TO.N,AGND*
X125270000Y-89000000D03*
G04 #@! TD*
D24*
G04 #@! TO.P,R8,1*
G04 #@! TO.N,/SCH-03 MCF Power Stage/MCF_BRAKE*
X69890000Y-89000000D03*
G04 #@! TO.P,R8,2*
G04 #@! TO.N,AGND*
X70910000Y-89000000D03*
G04 #@! TD*
D21*
G04 #@! TO.P,C37,1*
G04 #@! TO.N,/SCH-06 Hall Tach/VTACH_RAW*
X92000000Y-87450000D03*
G04 #@! TO.P,C37,2*
G04 #@! TO.N,AGND*
X92000000Y-85550000D03*
G04 #@! TD*
D18*
G04 #@! TO.P,R29,1*
G04 #@! TO.N,3V3*
X94800000Y-94110000D03*
G04 #@! TO.P,R29,2*
G04 #@! TO.N,U5_CLR_OR*
X94800000Y-93090000D03*
G04 #@! TD*
D21*
G04 #@! TO.P,C36,1*
G04 #@! TO.N,/SCH-06 Hall Tach/VTACH_RAW*
X89500000Y-87450000D03*
G04 #@! TO.P,C36,2*
G04 #@! TO.N,AGND*
X89500000Y-85550000D03*
G04 #@! TD*
D39*
G04 #@! TO.P,C15,1*
G04 #@! TO.N,MCF_DVDD*
X79325000Y-84900000D03*
G04 #@! TO.P,C15,2*
G04 #@! TO.N,AGND*
X80875000Y-84900000D03*
G04 #@! TD*
D16*
G04 #@! TO.P,TP12,1,1_1*
G04 #@! TO.N,DRVOFF*
X89600000Y-78200000D03*
G04 #@! TD*
D21*
G04 #@! TO.P,C40,1*
G04 #@! TO.N,/SCH-06 Hall Tach/VTACH_RAW*
X89500000Y-94450000D03*
G04 #@! TO.P,C40,2*
G04 #@! TO.N,AGND*
X89500000Y-92550000D03*
G04 #@! TD*
D24*
G04 #@! TO.P,R13,1*
G04 #@! TO.N,3V3*
X100790000Y-59900000D03*
G04 #@! TO.P,R13,2*
G04 #@! TO.N,/SCH-04 ESP32-C6 Supervisor/ESP_GPIO8*
X101810000Y-59900000D03*
G04 #@! TD*
G04 #@! TO.P,R20,1*
G04 #@! TO.N,/SCH-04 ESP32-C6 Supervisor/ESP_USB_DM*
X102990000Y-59900000D03*
G04 #@! TO.P,R20,2*
G04 #@! TO.N,USB_DM*
X104010000Y-59900000D03*
G04 #@! TD*
D16*
G04 #@! TO.P,TP7,1,1_1*
G04 #@! TO.N,MCF_AVDD*
X89600000Y-80350000D03*
G04 #@! TD*
D20*
G04 #@! TO.P,U11,1,NC_1*
G04 #@! TO.N,unconnected-(U11-NC-Pad1)*
X109642500Y-84300000D03*
G04 #@! TO.P,U11,2*
G04 #@! TO.N,/SCH-05 Permission + Watchdog/U6_PRE_RC*
X109642500Y-84950000D03*
G04 #@! TO.P,U11,3,GND_3*
G04 #@! TO.N,AGND*
X109642500Y-85600000D03*
G04 #@! TO.P,U11,4*
G04 #@! TO.N,/SCH-05 Permission + Watchdog/U6_PRE_BUF*
X111317500Y-85600000D03*
G04 #@! TO.P,U11,5,VCC_5*
G04 #@! TO.N,3V3*
X111317500Y-84300000D03*
G04 #@! TD*
D62*
G04 #@! TO.P,U5,1,C_1*
G04 #@! TO.N,/SCH-05 Permission + Watchdog/U5_CLK*
X97300000Y-79725000D03*
G04 #@! TO.P,U5,2,D_2*
G04 #@! TO.N,3V3*
X97300000Y-80375000D03*
G04 #@! TO.P,U5,3,~{Q}_3*
G04 #@! TO.N,unconnected-(U5-~{Q}-Pad3)*
X97300000Y-81025000D03*
G04 #@! TO.P,U5,4,GND_4*
G04 #@! TO.N,AGND*
X97300000Y-81675000D03*
G04 #@! TO.P,U5,5,Q_5*
G04 #@! TO.N,U5_Q*
X101100000Y-81675000D03*
G04 #@! TO.P,U5,6,~{CLR}_6*
G04 #@! TO.N,/SCH-05 Permission + Watchdog/U5_CLR_BUF*
X101100000Y-81025000D03*
G04 #@! TO.P,U5,7,~{PRE}_7*
G04 #@! TO.N,3V3*
X101100000Y-80375000D03*
G04 #@! TO.P,U5,8,VCC_8*
X101100000Y-79725000D03*
G04 #@! TD*
D18*
G04 #@! TO.P,R37,1*
G04 #@! TO.N,3V3*
X110950000Y-93710000D03*
G04 #@! TO.P,R37,2*
G04 #@! TO.N,WDO*
X110950000Y-92690000D03*
G04 #@! TD*
D48*
G04 #@! TO.P,H1,*
G04 #@! TO.N,*
X56000000Y-102000000D03*
G04 #@! TD*
D15*
G04 #@! TO.P,C43,1*
G04 #@! TO.N,3V3*
X112010000Y-82730000D03*
G04 #@! TO.P,C43,2*
G04 #@! TO.N,AGND*
X112010000Y-81770000D03*
G04 #@! TD*
D63*
G04 #@! TO.P,J2,1,Pin_1_1*
G04 #@! TO.N,PHASE_W*
X84100000Y-98480000D03*
D64*
G04 #@! TO.P,J2,2,Pin_2_2*
G04 #@! TO.N,PHASE_V*
X81100000Y-98480000D03*
G04 #@! TO.P,J2,3,Pin_3_3*
G04 #@! TO.N,PHASE_U*
X78100000Y-98480000D03*
G04 #@! TD*
D18*
G04 #@! TO.P,R53,1*
G04 #@! TO.N,VREF*
X119250000Y-91260000D03*
G04 #@! TO.P,R53,2*
G04 #@! TO.N,AGND*
X119250000Y-90240000D03*
G04 #@! TD*
D24*
G04 #@! TO.P,R49,1*
G04 #@! TO.N,VTACH*
X112740000Y-80000000D03*
G04 #@! TO.P,R49,2*
G04 #@! TO.N,AGND*
X113760000Y-80000000D03*
G04 #@! TD*
G04 #@! TO.P,R58,1*
G04 #@! TO.N,/SCH-07 Connectors/VBUS_SENSE*
X105190000Y-58300000D03*
G04 #@! TO.P,R58,2*
G04 #@! TO.N,AGND*
X106210000Y-58300000D03*
G04 #@! TD*
G04 #@! TO.P,R1,1*
G04 #@! TO.N,/SCH-01 24V Input/PMOS_GATE*
X52090000Y-71300000D03*
G04 #@! TO.P,R1,2*
G04 #@! TO.N,AGND*
X53110000Y-71300000D03*
G04 #@! TD*
D65*
G04 #@! TO.P,J6,A1,GND_A1*
G04 #@! TO.N,AGND*
X107200000Y-56680000D03*
G04 #@! TO.P,J6,A4,VBUS_A4*
G04 #@! TO.N,/SCH-07 Connectors/VBUS*
X106400000Y-56680000D03*
D66*
G04 #@! TO.P,J6,A5,CC1_A5*
G04 #@! TO.N,/SCH-07 Connectors/CC1*
X105250000Y-56680000D03*
G04 #@! TO.P,J6,A6,D+_A6*
G04 #@! TO.N,USB_DP*
X104250000Y-56680000D03*
G04 #@! TO.P,J6,A7,D-_A7*
G04 #@! TO.N,USB_DM*
X103750000Y-56680000D03*
G04 #@! TO.P,J6,A8,SBU1_A8*
G04 #@! TO.N,unconnected-(J6-SBU1-PadA8)*
X102750000Y-56680000D03*
D65*
G04 #@! TO.P,J6,A9,VBUS_A9*
G04 #@! TO.N,/SCH-07 Connectors/VBUS*
X101600000Y-56680000D03*
G04 #@! TO.P,J6,A12,GND_A12*
G04 #@! TO.N,AGND*
X100800000Y-56680000D03*
G04 #@! TO.P,J6,B1,GND_B1*
X100800000Y-56680000D03*
G04 #@! TO.P,J6,B4,VBUS_B4*
G04 #@! TO.N,/SCH-07 Connectors/VBUS*
X101600000Y-56680000D03*
D66*
G04 #@! TO.P,J6,B5,CC2_B5*
G04 #@! TO.N,/SCH-07 Connectors/CC2*
X102250000Y-56680000D03*
G04 #@! TO.P,J6,B6,D+_B6*
G04 #@! TO.N,USB_DP*
X103250000Y-56680000D03*
G04 #@! TO.P,J6,B7,D-_B7*
G04 #@! TO.N,USB_DM*
X104750000Y-56680000D03*
G04 #@! TO.P,J6,B8,SBU2_B8*
G04 #@! TO.N,unconnected-(J6-SBU2-PadB8)*
X105750000Y-56680000D03*
D65*
G04 #@! TO.P,J6,B9,VBUS_B9*
G04 #@! TO.N,/SCH-07 Connectors/VBUS*
X106400000Y-56680000D03*
G04 #@! TO.P,J6,B12,GND_B12*
G04 #@! TO.N,AGND*
X107200000Y-56680000D03*
D67*
G04 #@! TO.P,J6,SH,SHIELD_SH*
X108320000Y-56105000D03*
D68*
X108320000Y-51925000D03*
D67*
X99680000Y-56105000D03*
D68*
X99680000Y-51925000D03*
G04 #@! TD*
D48*
G04 #@! TO.P,H2,*
G04 #@! TO.N,*
X122000000Y-102000000D03*
G04 #@! TD*
D21*
G04 #@! TO.P,C39,1*
G04 #@! TO.N,/SCH-06 Hall Tach/VTACH_RAW*
X92000000Y-90950000D03*
G04 #@! TO.P,C39,2*
G04 #@! TO.N,AGND*
X92000000Y-89050000D03*
G04 #@! TD*
D24*
G04 #@! TO.P,R40,1*
G04 #@! TO.N,+12V_TACH*
X110490000Y-100750000D03*
G04 #@! TO.P,R40,2*
G04 #@! TO.N,/SCH-06 Hall Tach/TACH_FB*
X111510000Y-100750000D03*
G04 #@! TD*
D16*
G04 #@! TO.P,TP10,1,1_1*
G04 #@! TO.N,U5_CLR_OR*
X96650000Y-93600000D03*
G04 #@! TD*
D11*
G04 #@! TO.P,C6,1*
G04 #@! TO.N,VM24*
X66200000Y-102100000D03*
D12*
G04 #@! TO.P,C6,2*
G04 #@! TO.N,PGND*
X71200000Y-102100000D03*
G04 #@! TD*
D69*
G04 #@! TO.P,U9,1,IN+_1*
G04 #@! TO.N,VREF*
X121112500Y-90300000D03*
G04 #@! TO.P,U9,2,V-_2*
G04 #@! TO.N,AGND*
X121112500Y-91250000D03*
G04 #@! TO.P,U9,3,IN-_3*
G04 #@! TO.N,/SCH-06 Hall Tach/TLV_INN*
X121112500Y-92200000D03*
G04 #@! TO.P,U9,4,OUT_4*
G04 #@! TO.N,OVERSPEED_N*
X123387500Y-92200000D03*
G04 #@! TO.P,U9,5,V+_5*
G04 #@! TO.N,3V3*
X123387500Y-90300000D03*
G04 #@! TD*
D22*
G04 #@! TO.P,C4,1*
G04 #@! TO.N,VM24*
X79150000Y-83175000D03*
G04 #@! TO.P,C4,2*
G04 #@! TO.N,PGND*
X79150000Y-80225000D03*
G04 #@! TD*
D24*
G04 #@! TO.P,R15,1*
G04 #@! TO.N,/SCH-04 ESP32-C6 Supervisor/ESP_DIR*
X98790000Y-76600000D03*
G04 #@! TO.P,R15,2*
G04 #@! TO.N,DIR*
X99810000Y-76600000D03*
G04 #@! TD*
D70*
G04 #@! TO.P,NT1,1,1_1*
G04 #@! TO.N,PGND*
X75000000Y-77950000D03*
G04 #@! TO.P,NT1,2,2_2*
G04 #@! TO.N,AGND*
X79000000Y-77950000D03*
G04 #@! TD*
D18*
G04 #@! TO.P,R35,1*
G04 #@! TO.N,3V3*
X108350000Y-93710000D03*
G04 #@! TO.P,R35,2*
G04 #@! TO.N,/SCH-05 Permission + Watchdog/WD_EN*
X108350000Y-92690000D03*
G04 #@! TD*
D34*
G04 #@! TO.P,C34,1*
G04 #@! TO.N,/SCH-06 Hall Tach/TACH_CP1*
X113470000Y-83025000D03*
G04 #@! TO.P,C34,2*
G04 #@! TO.N,AGND*
X113470000Y-81475000D03*
G04 #@! TD*
D21*
G04 #@! TO.P,C35,1*
G04 #@! TO.N,/SCH-06 Hall Tach/VTACH_RAW*
X113250000Y-86950000D03*
G04 #@! TO.P,C35,2*
G04 #@! TO.N,AGND*
X113250000Y-85050000D03*
G04 #@! TD*
D71*
G04 #@! TO.P,F1,1*
G04 #@! TO.N,/SCH-07 Connectors/RAW24_IN*
X67200000Y-72500000D03*
G04 #@! TO.P,F1,2*
G04 #@! TO.N,RAW24*
X70000000Y-72500000D03*
G04 #@! TD*
D16*
G04 #@! TO.P,TP19,1,1_1*
G04 #@! TO.N,SCL*
X92900000Y-79500000D03*
G04 #@! TD*
D72*
G04 #@! TO.P,U7,1,SET0_1*
G04 #@! TO.N,/SCH-05 Permission + Watchdog/SET0*
X105012500Y-89275000D03*
G04 #@! TO.P,U7,2,MR_2*
G04 #@! TO.N,WD_MR*
X105012500Y-89925000D03*
G04 #@! TO.P,U7,3,WDI_3*
G04 #@! TO.N,/SCH-05 Permission + Watchdog/U7_WDI*
X105012500Y-90575000D03*
G04 #@! TO.P,U7,4,GND_4*
G04 #@! TO.N,AGND*
X105012500Y-91225000D03*
G04 #@! TO.P,U7,5,SET1_5*
G04 #@! TO.N,/SCH-05 Permission + Watchdog/SET1*
X107287500Y-91225000D03*
G04 #@! TO.P,U7,6,WD-EN_6*
G04 #@! TO.N,/SCH-05 Permission + Watchdog/WD_EN*
X107287500Y-90575000D03*
G04 #@! TO.P,U7,7,WDO_7*
G04 #@! TO.N,WDO*
X107287500Y-89925000D03*
G04 #@! TO.P,U7,8,VDD_8*
G04 #@! TO.N,3V3*
X107287500Y-89275000D03*
G04 #@! TD*
D16*
G04 #@! TO.P,TP20,1,1_1*
G04 #@! TO.N,FG*
X92900000Y-73050000D03*
G04 #@! TD*
D62*
G04 #@! TO.P,U6,1,C_1*
G04 #@! TO.N,AGND*
X106700000Y-81225000D03*
G04 #@! TO.P,U6,2,D_2*
G04 #@! TO.N,3V3*
X106700000Y-81875000D03*
G04 #@! TO.P,U6,3,~{Q}_3*
G04 #@! TO.N,unconnected-(U6-~{Q}-Pad3)*
X106700000Y-82525000D03*
G04 #@! TO.P,U6,4,GND_4*
G04 #@! TO.N,AGND*
X106700000Y-83175000D03*
G04 #@! TO.P,U6,5,Q_5*
G04 #@! TO.N,OS_LOCK_OK*
X110500000Y-83175000D03*
G04 #@! TO.P,U6,6,~{CLR}_6*
G04 #@! TO.N,OVERSPEED_N*
X110500000Y-82525000D03*
G04 #@! TO.P,U6,7,~{PRE}_7*
G04 #@! TO.N,/SCH-05 Permission + Watchdog/U6_PRE_BUF*
X110500000Y-81875000D03*
G04 #@! TO.P,U6,8,VCC_8*
G04 #@! TO.N,3V3*
X110500000Y-81225000D03*
G04 #@! TD*
D17*
G04 #@! TO.P,C24,1*
G04 #@! TO.N,3V3*
X110400000Y-86950000D03*
G04 #@! TO.P,C24,2*
G04 #@! TO.N,AGND*
X111360000Y-86950000D03*
G04 #@! TD*
D18*
G04 #@! TO.P,R51,1*
G04 #@! TO.N,VTACH*
X122750000Y-88010000D03*
G04 #@! TO.P,R51,2*
G04 #@! TO.N,/SCH-06 Hall Tach/TLV_INN*
X122750000Y-86990000D03*
G04 #@! TD*
D24*
G04 #@! TO.P,R9,1*
G04 #@! TO.N,DIR*
X69890000Y-90700000D03*
G04 #@! TO.P,R9,2*
G04 #@! TO.N,AGND*
X70910000Y-90700000D03*
G04 #@! TD*
G04 #@! TO.P,R14,1*
G04 #@! TO.N,/SCH-04 ESP32-C6 Supervisor/ESP_SPEED*
X96590000Y-76600000D03*
G04 #@! TO.P,R14,2*
G04 #@! TO.N,SPEED*
X97610000Y-76600000D03*
G04 #@! TD*
G04 #@! TO.P,R18,1*
G04 #@! TO.N,3V3*
X100990000Y-77900000D03*
G04 #@! TO.P,R18,2*
G04 #@! TO.N,MCU_CLEAR_N*
X102010000Y-77900000D03*
G04 #@! TD*
D73*
G04 #@! TO.P,R39,1*
G04 #@! TO.N,VM24*
X87962500Y-78500000D03*
G04 #@! TO.P,R39,2*
G04 #@! TO.N,/SCH-06 Hall Tach/TACH_LDO_IN*
X82037500Y-78500000D03*
G04 #@! TD*
D74*
G04 #@! TO.P,U1,1,DVDD_1*
G04 #@! TO.N,MCF_DVDD*
X82600000Y-85250000D03*
G04 #@! TO.P,U1,2,DGND_2*
G04 #@! TO.N,AGND*
X82600000Y-85750000D03*
G04 #@! TO.P,U1,3,FB_BK_3*
G04 #@! TO.N,/SCH-03 MCF Power Stage/MCF_BUCK*
X82600000Y-86250000D03*
G04 #@! TO.P,U1,4,GND_BK_4*
G04 #@! TO.N,AGND*
X82600000Y-86750000D03*
G04 #@! TO.P,U1,5,SW_BK_5*
G04 #@! TO.N,/SCH-03 MCF Power Stage/BUCK_SW*
X82600000Y-87250000D03*
G04 #@! TO.P,U1,6,CPL_6*
G04 #@! TO.N,/SCH-03 MCF Power Stage/MCF_CPL*
X82600000Y-87750000D03*
G04 #@! TO.P,U1,7,CPH_7*
G04 #@! TO.N,/SCH-03 MCF Power Stage/MCF_CPH*
X82600000Y-88250000D03*
G04 #@! TO.P,U1,8,CP_8*
G04 #@! TO.N,/SCH-03 MCF Power Stage/MCF_CP*
X82600000Y-88750000D03*
G04 #@! TO.P,U1,9,VM_9*
G04 #@! TO.N,VM24*
X82600000Y-89250000D03*
G04 #@! TO.P,U1,10,VM_10*
X82600000Y-89750000D03*
G04 #@! TO.P,U1,11,VM_11*
X82600000Y-90250000D03*
G04 #@! TO.P,U1,12,PGND_12*
G04 #@! TO.N,PGND*
X82600000Y-90750000D03*
D75*
G04 #@! TO.P,U1,13,OUTA_13*
G04 #@! TO.N,PHASE_U*
X83250000Y-91400000D03*
G04 #@! TO.P,U1,14,OUTA_14*
X83750000Y-91400000D03*
G04 #@! TO.P,U1,15,PGND_15*
G04 #@! TO.N,PGND*
X84250000Y-91400000D03*
G04 #@! TO.P,U1,16,OUTB_16*
G04 #@! TO.N,PHASE_V*
X84750000Y-91400000D03*
G04 #@! TO.P,U1,17,OUTB_17*
X85250000Y-91400000D03*
G04 #@! TO.P,U1,18,PGND_18*
G04 #@! TO.N,PGND*
X85750000Y-91400000D03*
G04 #@! TO.P,U1,19,OUTC_19*
G04 #@! TO.N,PHASE_W*
X86250000Y-91400000D03*
G04 #@! TO.P,U1,20,OUTC_20*
X86750000Y-91400000D03*
D74*
G04 #@! TO.P,U1,21,DRVOFF_21*
G04 #@! TO.N,DRVOFF*
X87400000Y-90750000D03*
G04 #@! TO.P,U1,22,NC_22*
G04 #@! TO.N,unconnected-(U1-NC-Pad22)*
X87400000Y-90250000D03*
G04 #@! TO.P,U1,23,NC_23*
G04 #@! TO.N,unconnected-(U1-NC-Pad23)*
X87400000Y-89750000D03*
G04 #@! TO.P,U1,24,NC_24*
G04 #@! TO.N,unconnected-(U1-NC-Pad24)*
X87400000Y-89250000D03*
G04 #@! TO.P,U1,25,NC_25*
G04 #@! TO.N,unconnected-(U1-NC-Pad25)*
X87400000Y-88750000D03*
G04 #@! TO.P,U1,26,AGND_26*
G04 #@! TO.N,AGND*
X87400000Y-88250000D03*
G04 #@! TO.P,U1,27,AVDD_27*
G04 #@! TO.N,MCF_AVDD*
X87400000Y-87750000D03*
G04 #@! TO.P,U1,28,SPEED/WAKE_28*
G04 #@! TO.N,SPEED*
X87400000Y-87250000D03*
G04 #@! TO.P,U1,29,FG_29*
G04 #@! TO.N,FG*
X87400000Y-86750000D03*
G04 #@! TO.P,U1,30,SDA_30*
G04 #@! TO.N,SDA*
X87400000Y-86250000D03*
G04 #@! TO.P,U1,31,SCL_31*
G04 #@! TO.N,SCL*
X87400000Y-85750000D03*
G04 #@! TO.P,U1,32,EXT_WD_32*
G04 #@! TO.N,MCF_EXT_WD*
X87400000Y-85250000D03*
D75*
G04 #@! TO.P,U1,33,EXT_CLK_33*
G04 #@! TO.N,unconnected-(U1-EXT_CLK-Pad33)*
X86750000Y-84600000D03*
G04 #@! TO.P,U1,34,DIR_34*
G04 #@! TO.N,DIR*
X86250000Y-84600000D03*
G04 #@! TO.P,U1,35,BRAKE_35*
G04 #@! TO.N,/SCH-03 MCF Power Stage/MCF_BRAKE*
X85750000Y-84600000D03*
G04 #@! TO.P,U1,36,DACOUT1_36*
G04 #@! TO.N,unconnected-(U1-DACOUT1-Pad36)*
X85250000Y-84600000D03*
G04 #@! TO.P,U1,37,DACOUT2_37*
G04 #@! TO.N,unconnected-(U1-DACOUT2-Pad37)*
X84750000Y-84600000D03*
G04 #@! TO.P,U1,38,DACOUT2/SOX_38*
G04 #@! TO.N,SOX*
X84250000Y-84600000D03*
G04 #@! TO.P,U1,39,ALARM_39*
G04 #@! TO.N,ALARM*
X83750000Y-84600000D03*
G04 #@! TO.P,U1,40,nFAULT_40*
G04 #@! TO.N,NFAULT*
X83250000Y-84600000D03*
D76*
G04 #@! TO.P,U1,41,EP_41*
G04 #@! TO.N,AGND*
X83850000Y-86050000D03*
X83850000Y-87350000D03*
X83850000Y-88650000D03*
X83850000Y-89950000D03*
X85000000Y-86050000D03*
X85000000Y-87350000D03*
D77*
X85000000Y-88000000D03*
D76*
X85000000Y-88650000D03*
X85000000Y-89950000D03*
X86150000Y-86050000D03*
X86150000Y-87350000D03*
X86150000Y-88650000D03*
X86150000Y-89950000D03*
G04 #@! TD*
D13*
G04 #@! TO.P,R48,1*
G04 #@! TO.N,/SCH-06 Hall Tach/VTACH_RAW*
X113760000Y-88500000D03*
G04 #@! TO.P,R48,2*
G04 #@! TO.N,/SCH-06 Hall Tach/RSCALE_MID*
X112740000Y-88500000D03*
G04 #@! TD*
D16*
G04 #@! TO.P,TP21,1,1_1*
G04 #@! TO.N,HALL_TACH*
X126000000Y-85500000D03*
G04 #@! TD*
G04 #@! TO.P,TP5,1,1_1*
G04 #@! TO.N,3V3*
X77200000Y-53500000D03*
G04 #@! TD*
D18*
G04 #@! TO.P,R42,1*
G04 #@! TO.N,3V3*
X118000000Y-77760000D03*
G04 #@! TO.P,R42,2*
G04 #@! TO.N,OVERSPEED_N*
X118000000Y-76740000D03*
G04 #@! TD*
G04 #@! TO.P,R24,1*
G04 #@! TO.N,ARM_PULSE*
X93500000Y-82510000D03*
G04 #@! TO.P,R24,2*
G04 #@! TO.N,/SCH-05 Permission + Watchdog/U5_CLK*
X93500000Y-81490000D03*
G04 #@! TD*
D24*
G04 #@! TO.P,R4,1*
G04 #@! TO.N,3V3*
X89090000Y-72600000D03*
G04 #@! TO.P,R4,2*
G04 #@! TO.N,FG*
X90110000Y-72600000D03*
G04 #@! TD*
D13*
G04 #@! TO.P,R47,1*
G04 #@! TO.N,/SCH-06 Hall Tach/TACH_BIAS*
X124010000Y-85750000D03*
G04 #@! TO.P,R47,2*
G04 #@! TO.N,AGND*
X122990000Y-85750000D03*
G04 #@! TD*
D16*
G04 #@! TO.P,TP27,1,1_1*
G04 #@! TO.N,PGND*
X96650000Y-91400000D03*
G04 #@! TD*
D24*
G04 #@! TO.P,R2,1*
G04 #@! TO.N,VM24*
X54390000Y-71300000D03*
G04 #@! TO.P,R2,2*
G04 #@! TO.N,/SCH-01 24V Input/PMOS_GATE*
X55410000Y-71300000D03*
G04 #@! TD*
D78*
G04 #@! TO.P,U2,1,GND_1*
G04 #@! TO.N,AGND*
X121000000Y-62100000D03*
G04 #@! TO.P,U2,2,GND_2*
X120200000Y-62100000D03*
G04 #@! TO.P,U2,3,3V3_3*
G04 #@! TO.N,3V3*
X119400000Y-62100000D03*
G04 #@! TO.P,U2,4,NC_4*
G04 #@! TO.N,unconnected-(U2-NC-Pad4)*
X118600000Y-62100000D03*
G04 #@! TO.P,U2,5,IO2_5*
G04 #@! TO.N,/SCH-04 ESP32-C6 Supervisor/ESP_SPEED*
X117800000Y-62100000D03*
G04 #@! TO.P,U2,6,IO3_6*
G04 #@! TO.N,/SCH-04 ESP32-C6 Supervisor/ESP_DIR*
X117000000Y-62100000D03*
G04 #@! TO.P,U2,7,NC_7*
G04 #@! TO.N,unconnected-(U2-NC-Pad7)*
X116200000Y-62100000D03*
G04 #@! TO.P,U2,8,EN_8*
G04 #@! TO.N,ESP_EN*
X115400000Y-62100000D03*
G04 #@! TO.P,U2,9,IO4_9*
G04 #@! TO.N,unconnected-(U2-IO4-Pad9)*
X114600000Y-62100000D03*
G04 #@! TO.P,U2,10,IO5_10*
G04 #@! TO.N,unconnected-(U2-IO5-Pad10)*
X113800000Y-62100000D03*
G04 #@! TO.P,U2,11,GND_11*
G04 #@! TO.N,AGND*
X113000000Y-62100000D03*
D79*
G04 #@! TO.P,U2,12,IO0_12*
G04 #@! TO.N,/SCH-04 ESP32-C6 Supervisor/ESP_SDA*
X112100000Y-63200000D03*
G04 #@! TO.P,U2,13,IO1_13*
G04 #@! TO.N,/SCH-04 ESP32-C6 Supervisor/ESP_SCL*
X112100000Y-64000000D03*
G04 #@! TO.P,U2,14,GND_14*
G04 #@! TO.N,AGND*
X112100000Y-64800000D03*
G04 #@! TO.P,U2,15,IO6_15*
G04 #@! TO.N,TEMP_SENSE*
X112100000Y-65600000D03*
G04 #@! TO.P,U2,16,IO7_16*
G04 #@! TO.N,HALL_TACH*
X112100000Y-66400000D03*
G04 #@! TO.P,U2,17,IO12_17*
G04 #@! TO.N,/SCH-04 ESP32-C6 Supervisor/ESP_USB_DM*
X112100000Y-67200000D03*
G04 #@! TO.P,U2,18,IO13_18*
G04 #@! TO.N,/SCH-04 ESP32-C6 Supervisor/ESP_USB_DP*
X112100000Y-68000000D03*
G04 #@! TO.P,U2,19,IO14_19*
G04 #@! TO.N,ALARM*
X112100000Y-68800000D03*
G04 #@! TO.P,U2,20,IO15_20*
G04 #@! TO.N,MCU_CLEAR_N*
X112100000Y-69600000D03*
G04 #@! TO.P,U2,21,NC_21*
G04 #@! TO.N,unconnected-(U2-NC-Pad21)*
X112100000Y-70400000D03*
G04 #@! TO.P,U2,22,IO8_22*
G04 #@! TO.N,/SCH-04 ESP32-C6 Supervisor/ESP_GPIO8*
X112100000Y-71200000D03*
G04 #@! TO.P,U2,23,IO9_23*
G04 #@! TO.N,ESP_BOOT*
X112100000Y-72000000D03*
G04 #@! TO.P,U2,24,IO18_24*
G04 #@! TO.N,ARM_PULSE*
X112100000Y-72800000D03*
D78*
G04 #@! TO.P,U2,25,IO19_25*
G04 #@! TO.N,WD_HEARTBEAT*
X113000000Y-73900000D03*
G04 #@! TO.P,U2,26,IO20_26*
G04 #@! TO.N,FG*
X113800000Y-73900000D03*
G04 #@! TO.P,U2,27,IO21_27*
G04 #@! TO.N,NFAULT*
X114600000Y-73900000D03*
G04 #@! TO.P,U2,28,IO22_28*
G04 #@! TO.N,PGOOD*
X115400000Y-73900000D03*
G04 #@! TO.P,U2,29,IO23_29*
G04 #@! TO.N,WDO*
X116200000Y-73900000D03*
G04 #@! TO.P,U2,30,RXD0_30*
G04 #@! TO.N,UART_RX*
X117000000Y-73900000D03*
G04 #@! TO.P,U2,31,TXD0_31*
G04 #@! TO.N,UART_TX*
X117800000Y-73900000D03*
G04 #@! TO.P,U2,32,NC_32*
G04 #@! TO.N,unconnected-(U2-NC-Pad32)*
X118600000Y-73900000D03*
G04 #@! TO.P,U2,33,NC_33*
G04 #@! TO.N,unconnected-(U2-NC-Pad33)*
X119400000Y-73900000D03*
G04 #@! TO.P,U2,34,NC_34*
G04 #@! TO.N,unconnected-(U2-NC-Pad34)*
X120200000Y-73900000D03*
G04 #@! TO.P,U2,35,NC_35*
G04 #@! TO.N,unconnected-(U2-NC-Pad35)*
X121000000Y-73900000D03*
D79*
G04 #@! TO.P,U2,36,GND_36*
G04 #@! TO.N,AGND*
X121900000Y-72800000D03*
G04 #@! TO.P,U2,37,GND_37*
X121900000Y-72000000D03*
G04 #@! TO.P,U2,38,GND_38*
X121900000Y-71200000D03*
G04 #@! TO.P,U2,39,GND_39*
X121900000Y-70400000D03*
G04 #@! TO.P,U2,40,GND_40*
X121900000Y-69600000D03*
G04 #@! TO.P,U2,41,GND_41*
X121900000Y-68800000D03*
G04 #@! TO.P,U2,42,GND_42*
X121900000Y-68000000D03*
G04 #@! TO.P,U2,43,GND_43*
X121900000Y-67200000D03*
G04 #@! TO.P,U2,44,GND_44*
X121900000Y-66400000D03*
G04 #@! TO.P,U2,45,GND_45*
X121900000Y-65600000D03*
G04 #@! TO.P,U2,46,GND_46*
X121900000Y-64800000D03*
G04 #@! TO.P,U2,47,GND_47*
X121900000Y-64000000D03*
G04 #@! TO.P,U2,48,GND_48*
X121900000Y-63200000D03*
D80*
G04 #@! TO.P,U2,49,GND_49*
X118975000Y-66025000D03*
D81*
X117000000Y-66025000D03*
X115025000Y-66025000D03*
X118975000Y-68000000D03*
X117000000Y-68000000D03*
X115025000Y-68000000D03*
X118975000Y-69975000D03*
X117000000Y-69975000D03*
X115025000Y-69975000D03*
D82*
G04 #@! TO.P,U2,50,GND_50*
X121950000Y-73950000D03*
G04 #@! TO.P,U2,51,GND_51*
X112050000Y-73950000D03*
G04 #@! TO.P,U2,52,GND_52*
X112050000Y-62050000D03*
G04 #@! TO.P,U2,53,GND_53*
X121950000Y-62050000D03*
G04 #@! TD*
D46*
G04 #@! TO.P,C10,1*
G04 #@! TO.N,3V3*
X88425000Y-61600000D03*
G04 #@! TO.P,C10,2*
G04 #@! TO.N,AGND*
X91375000Y-61600000D03*
G04 #@! TD*
D16*
G04 #@! TO.P,TP17,1,1_1*
G04 #@! TO.N,NFAULT*
X92900000Y-75200000D03*
G04 #@! TD*
D18*
G04 #@! TO.P,R41,1*
G04 #@! TO.N,/SCH-06 Hall Tach/TACH_FB*
X112750000Y-101260000D03*
G04 #@! TO.P,R41,2*
G04 #@! TO.N,AGND*
X112750000Y-100240000D03*
G04 #@! TD*
D83*
G04 #@! TO.P,J5,1,Pin_1_1*
G04 #@! TO.N,AGND*
X73300000Y-56000000D03*
G04 #@! TO.P,J5,2,Pin_2_2*
G04 #@! TO.N,3V3*
X72300000Y-56000000D03*
G04 #@! TO.P,J5,3,Pin_3_3*
G04 #@! TO.N,SDA*
X71300000Y-56000000D03*
G04 #@! TO.P,J5,4,Pin_4_4*
G04 #@! TO.N,SCL*
X70300000Y-56000000D03*
D84*
G04 #@! TO.P,J5,MP*
G04 #@! TO.N,N/C*
X74600000Y-52125000D03*
X69000000Y-52125000D03*
G04 #@! TD*
D85*
G04 #@! TO.N,VM24*
X74000000Y-75500000D03*
D86*
X105000000Y-95400000D03*
D85*
X76500000Y-82000000D03*
X53500000Y-73000000D03*
X58500000Y-64000000D03*
X69500000Y-64000000D03*
X53828248Y-70171752D03*
X88000000Y-81000000D03*
D87*
X97000000Y-98500000D03*
D85*
X68500000Y-82000000D03*
D86*
X118525000Y-89500000D03*
X104500000Y-97000000D03*
D85*
X80691471Y-94191471D03*
X66200000Y-100000000D03*
X81500000Y-62000000D03*
X60500000Y-64000000D03*
X71500000Y-64000000D03*
D86*
X121725000Y-89500000D03*
D85*
X62000000Y-90500000D03*
X68500000Y-80500000D03*
X62000000Y-92500000D03*
X76500000Y-84500000D03*
G04 #@! TO.N,PGND*
X74500000Y-68000000D03*
X62000000Y-85500000D03*
D87*
X97500000Y-92000000D03*
D85*
X61000000Y-79500000D03*
X62000000Y-83500000D03*
X65500000Y-68000000D03*
D87*
X74000000Y-79500000D03*
D86*
X121000000Y-89050000D03*
D87*
X82000000Y-92500000D03*
D85*
X70500000Y-104000000D03*
X72000000Y-104000000D03*
X73500000Y-77950000D03*
X76500000Y-68000000D03*
D88*
X85849999Y-92024581D03*
D85*
X74000000Y-72500000D03*
D87*
X82000000Y-91500000D03*
D86*
X118525000Y-88899997D03*
D88*
X84150001Y-92024581D03*
D85*
X63500000Y-68000000D03*
D87*
X77500000Y-79500000D03*
D85*
X61000000Y-78000000D03*
D87*
G04 #@! TO.N,PGOOD*
X115500000Y-75500000D03*
X83500000Y-58000000D03*
X104500000Y-84000000D03*
X95500000Y-78000000D03*
X87000000Y-65000000D03*
X96500000Y-83000000D03*
G04 #@! TO.N,3V3*
X102178440Y-95035933D03*
X100125000Y-80375001D03*
X102950000Y-96730000D03*
X87500000Y-57500000D03*
D88*
X126400000Y-88800000D03*
D87*
X109000000Y-88800000D03*
X93800000Y-94000000D03*
X118125000Y-77857233D03*
X98400000Y-80400000D03*
X110991131Y-88125000D03*
D88*
X110950000Y-93710000D03*
D87*
X98600929Y-59120000D03*
X119500000Y-60500000D03*
X87500000Y-60000000D03*
D88*
X110500000Y-86925000D03*
D87*
X102040000Y-80389791D03*
D88*
X111317500Y-84300000D03*
X107050000Y-93710000D03*
X106700000Y-81875000D03*
D87*
X104858058Y-86258058D03*
X99414999Y-74298883D03*
X100790924Y-59120000D03*
D88*
X108350000Y-93710000D03*
D87*
X104210000Y-95125000D03*
D88*
X117750000Y-91260000D03*
X124542078Y-90850000D03*
D87*
X120125000Y-79100000D03*
X107500000Y-69525006D03*
D88*
X125821460Y-83183753D03*
D87*
X101250000Y-75500000D03*
X107000000Y-67000000D03*
X126808058Y-90808058D03*
X103300000Y-80480000D03*
X106700000Y-79875000D03*
X88500000Y-76000000D03*
G04 #@! TO.N,AGND*
X106876391Y-58300000D03*
X99500000Y-97500000D03*
X86000000Y-55500000D03*
X100500000Y-52000000D03*
X107500000Y-52000000D03*
X97500000Y-66000000D03*
X96500000Y-85500000D03*
X101579711Y-58986510D03*
X125500000Y-106500000D03*
X100500000Y-61500000D03*
X104650000Y-92000000D03*
X97000000Y-61000000D03*
X91875000Y-85000000D03*
X115500000Y-102000000D03*
X81500000Y-63500000D03*
X112010000Y-81770000D03*
X110433058Y-71066942D03*
X84629232Y-60566684D03*
X121800000Y-60800000D03*
X109000000Y-77125000D03*
D86*
X118500000Y-91500000D03*
X97300000Y-81675000D03*
D87*
X108275000Y-100750000D03*
X125500000Y-82500000D03*
X119000000Y-64500000D03*
X117000000Y-105000000D03*
X125000000Y-87394426D03*
D86*
X113500000Y-91500000D03*
D87*
X108300086Y-97300086D03*
X90500000Y-56500000D03*
X80500000Y-76500000D03*
X90500000Y-60000000D03*
D86*
X116000000Y-94500000D03*
D87*
X103500000Y-70500000D03*
X121800000Y-75100000D03*
X90825000Y-83200000D03*
X89500000Y-85075000D03*
X107000000Y-64000000D03*
X115000000Y-64500000D03*
D86*
X115025000Y-93000000D03*
D87*
X104180000Y-106150000D03*
X108000000Y-57500000D03*
X107500000Y-104000000D03*
X108500000Y-81896073D03*
X66500000Y-86500000D03*
X116495558Y-79495558D03*
D86*
X94850000Y-79490000D03*
D87*
X52500000Y-70500000D03*
X99240000Y-57500000D03*
X79550000Y-59050000D03*
X107000000Y-68000000D03*
X78425000Y-55575000D03*
X119000000Y-71500000D03*
X110500000Y-74000000D03*
X112000000Y-60500000D03*
X115000000Y-71500000D03*
X108891173Y-60734822D03*
D85*
X80500000Y-78000000D03*
D87*
X88000000Y-96500000D03*
X112000000Y-99350000D03*
G04 #@! TO.N,SDA*
X87742556Y-76257444D03*
X91625000Y-81000000D03*
X91500000Y-76500000D03*
X91000000Y-75300000D03*
G04 #@! TO.N,WD_HEARTBEAT*
X117500000Y-87000000D03*
X117000000Y-78500000D03*
G04 #@! TO.N,/SCH-06 Hall Tach/TLV_INN*
X121112500Y-92200000D03*
X122770000Y-87019999D03*
X121500000Y-78625000D03*
G04 #@! TO.N,U5_CLR_OR*
X102575000Y-83500000D03*
X102395000Y-86080000D03*
G04 #@! TO.N,/SCH-05 Permission + Watchdog/U5_CLR_BUF*
X103400918Y-87599082D03*
X103500000Y-83884526D03*
G04 #@! TO.N,/SCH-06 Hall Tach/TACH_LDO_IN*
X91166942Y-93666942D03*
X81500000Y-83625000D03*
X92425000Y-95000000D03*
X114500000Y-96000000D03*
G04 #@! TO.N,+12V_TACH*
X123500000Y-83500000D03*
X121500000Y-87000000D03*
G04 #@! TO.N,/SCH-07 Connectors/VBUS*
X101982667Y-55636690D03*
X105832220Y-55584100D03*
X103000000Y-58970762D03*
G04 #@! TO.N,/SCH-04 ESP32-C6 Supervisor/ESP_SDA*
X103500000Y-75075000D03*
X96300003Y-78000000D03*
X113000000Y-63500000D03*
X107000000Y-71810000D03*
G04 #@! TO.N,/SCH-02 3V3 Rail/MODE_SYNC*
X84300003Y-58000000D03*
X82500000Y-63500000D03*
G04 #@! TO.N,TEMP_SENSE*
X90000000Y-102500000D03*
X101000000Y-70800000D03*
G04 #@! TO.N,ESP_BOOT*
X97375001Y-73643783D03*
X98808058Y-73691942D03*
D86*
G04 #@! TO.N,HALL_TACH*
X124106924Y-93106924D03*
D87*
X115000000Y-72300003D03*
D86*
X122000000Y-97500000D03*
D87*
X126500000Y-86500000D03*
D88*
G04 #@! TO.N,/SCH-06 Hall Tach/TACH_DELAY*
X115500000Y-97175000D03*
D87*
X117000000Y-102000000D03*
G04 #@! TO.N,MCU_CLEAR_N*
X98016942Y-86516942D03*
X111129442Y-69995558D03*
X102127603Y-78375000D03*
X102222389Y-74574639D03*
X103000000Y-72000000D03*
G04 #@! TO.N,ESP_EN*
X115000000Y-57500000D03*
X115000000Y-60500000D03*
G04 #@! TO.N,U5_Q*
X100461117Y-84154999D03*
X100500000Y-82500000D03*
G04 #@! TO.N,NFAULT*
X114437498Y-75500000D03*
D86*
X120450000Y-92975000D03*
D87*
X91500000Y-74000000D03*
X82625000Y-81000000D03*
X120500000Y-75000000D03*
X119500000Y-77200000D03*
X126108758Y-99391242D03*
D86*
X121500000Y-94025000D03*
D87*
G04 #@! TO.N,WDO*
X111845226Y-78416259D03*
X116500000Y-75500000D03*
X106354721Y-75875001D03*
X100000000Y-86000000D03*
G04 #@! TO.N,DRVOFF*
X85191942Y-82808058D03*
D86*
X123350000Y-94975000D03*
X114000000Y-102000000D03*
D87*
X90375000Y-79000000D03*
D86*
X116000000Y-99500000D03*
X117029270Y-98970730D03*
D87*
X86000000Y-79000000D03*
X88181836Y-89456577D03*
G04 #@! TO.N,SPEED*
X95500000Y-76000000D03*
X93000000Y-84000000D03*
D86*
X127500000Y-100000000D03*
D87*
X69000000Y-92000000D03*
X92500000Y-81500000D03*
X88275000Y-87345207D03*
G04 #@! TO.N,FG*
X126875000Y-101974873D03*
X91500000Y-72500000D03*
X88499685Y-86449626D03*
X113250000Y-76250000D03*
X91500000Y-70175000D03*
D86*
G04 #@! TO.N,SOX*
X83366698Y-77734162D03*
D87*
G04 #@! TO.N,MCF_DVDD*
X82600000Y-84600000D03*
X78500000Y-84500000D03*
X76000000Y-86500000D03*
D85*
G04 #@! TO.N,RAW24*
X56900000Y-69900000D03*
X64500000Y-77500000D03*
D87*
G04 #@! TO.N,UART_TX*
X117500000Y-75500000D03*
X106430001Y-77870878D03*
G04 #@! TO.N,UART_RX*
X117000000Y-72500000D03*
X108000000Y-79500000D03*
G04 #@! TO.N,/SCH-05 Permission + Watchdog/SET1*
X107523170Y-91476830D03*
X111073955Y-90927422D03*
G04 #@! TO.N,/SCH-05 Permission + Watchdog/U5_CLK*
X94875000Y-80465198D03*
X94511301Y-81730000D03*
G04 #@! TO.N,OVERSPEED_N*
X118500000Y-93500000D03*
X123387500Y-92200000D03*
X118500000Y-87000000D03*
D88*
X111509604Y-97825681D03*
D87*
X96650000Y-89200000D03*
X118750000Y-79115000D03*
X109741942Y-82541942D03*
G04 #@! TO.N,/SCH-05 Permission + Watchdog/SW_CLR*
X99095000Y-93730000D03*
X96500000Y-95000000D03*
G04 #@! TO.N,/SCH-05 Permission + Watchdog/Q2_GATE*
X95262500Y-83150000D03*
X95507619Y-88135000D03*
X95500000Y-86000000D03*
G04 #@! TO.N,USB_DP*
X104513909Y-55587596D03*
X107000000Y-59500000D03*
G04 #@! TO.N,/SCH-06 Hall Tach/VTACH_RAW*
X93285000Y-89375000D03*
X92000000Y-86720207D03*
X92000000Y-92000000D03*
X89500000Y-86720207D03*
X112500000Y-87500000D03*
G04 #@! TO.N,MCF_EXT_WD*
X76000000Y-88000000D03*
X104000000Y-81500000D03*
X87500000Y-84125000D03*
D88*
G04 #@! TO.N,/SCH-03 MCF Power Stage/MCF_BUCK*
X81760515Y-86144140D03*
X77000000Y-92500000D03*
D87*
G04 #@! TO.N,MCF_AVDD*
X90693977Y-85075000D03*
X93763058Y-90736942D03*
X90696833Y-88586369D03*
X88508883Y-83124999D03*
G04 #@! TO.N,OS_LOCK_OK*
X100000000Y-88500000D03*
X106500000Y-85000000D03*
G04 #@! TO.N,VTACH*
X118125000Y-85500000D03*
X117065114Y-77702655D03*
X113000000Y-80500000D03*
D88*
G04 #@! TO.N,/SCH-03 MCF Power Stage/BUCK_SW*
X75000000Y-92500000D03*
X81850431Y-86838342D03*
D87*
G04 #@! TO.N,VREF*
X121112500Y-90300000D03*
X124531789Y-89994426D03*
G04 #@! TO.N,/SCH-04 ESP32-C6 Supervisor/ESP_USB_DP*
X105500000Y-60500000D03*
X113000000Y-68100003D03*
G04 #@! TO.N,/SCH-05 Permission + Watchdog/SET0*
X110502980Y-91487771D03*
X105610140Y-88610140D03*
G04 #@! TO.N,/SCH-04 ESP32-C6 Supervisor/ESP_SCL*
X112894684Y-64293038D03*
X105306117Y-71810000D03*
X102847389Y-75786495D03*
X98500000Y-78000000D03*
G04 #@! TO.N,/SCH-04 ESP32-C6 Supervisor/ESP_GPIO8*
X111200000Y-67500000D03*
X106686828Y-62813175D03*
G04 #@! TO.N,/SCH-04 ESP32-C6 Supervisor/ESP_USB_DM*
X113000000Y-67000000D03*
X104387814Y-59080668D03*
G04 #@! TO.N,/SCH-05 Permission + Watchdog/U6_PRE_BUF*
X111000000Y-85000000D03*
X109000000Y-83146073D03*
D85*
G04 #@! TO.N,PHASE_W*
X87000000Y-92500000D03*
G04 #@! TO.N,PHASE_V*
X85000000Y-92500000D03*
G04 #@! TO.N,PHASE_U*
X83000000Y-92500000D03*
D87*
G04 #@! TO.N,DIR*
X100000000Y-75000000D03*
X86500000Y-83500000D03*
X69000000Y-90500000D03*
G04 #@! TO.N,ALARM*
X113000000Y-68900006D03*
X83701083Y-80817391D03*
G04 #@! TO.N,ARM_PULSE*
X107000000Y-75000000D03*
X110500000Y-73000000D03*
X103001302Y-77880000D03*
X106260140Y-73260140D03*
G04 #@! TD*
G04 #@! TO.N,VM24*
D89*
X70600000Y-66000000D02*
X70600000Y-65100000D01*
D90*
X104500000Y-97000000D02*
X104500000Y-95900000D01*
X104500000Y-95900000D02*
X105000000Y-95400000D01*
D91*
X82600000Y-89250000D02*
X82100000Y-89750000D01*
D89*
X59500000Y-66000000D02*
X59500000Y-65000000D01*
X77500000Y-82000000D02*
X76500000Y-82000000D01*
X66200000Y-100000000D02*
X66200000Y-102100000D01*
D92*
X81450000Y-60000000D02*
X81450000Y-57675000D01*
X83600000Y-59850000D02*
X83600000Y-60350000D01*
D89*
X54390000Y-71300000D02*
X54390000Y-70733504D01*
D92*
X77500000Y-87434010D02*
X78765990Y-88700000D01*
X81600000Y-60350000D02*
X81450000Y-60500000D01*
D89*
X67950000Y-81450000D02*
X66900000Y-81450000D01*
X81000000Y-93882942D02*
X80691471Y-94191471D01*
D92*
X81450000Y-61950000D02*
X81500000Y-62000000D01*
D89*
X70600000Y-64900000D02*
X71500000Y-64000000D01*
D90*
X118600000Y-89575000D02*
X121650000Y-89575000D01*
D89*
X68500000Y-82000000D02*
X67950000Y-81450000D01*
D92*
X81850000Y-90000000D02*
X79659010Y-90000000D01*
D89*
X59500000Y-65000000D02*
X58500000Y-64000000D01*
X62895000Y-91395000D02*
X62000000Y-90500000D01*
D92*
X81450000Y-60500000D02*
X81450000Y-61950000D01*
X87962500Y-80962500D02*
X88000000Y-81000000D01*
D89*
X77500000Y-84500000D02*
X76500000Y-84500000D01*
D92*
X77500000Y-83175000D02*
X75700000Y-83175000D01*
X81450000Y-57675000D02*
X81375000Y-57600000D01*
D89*
X52100000Y-73300000D02*
X53200000Y-73300000D01*
D92*
X77500000Y-83175000D02*
X77500000Y-82000000D01*
X81000000Y-93075000D02*
X80902040Y-93075000D01*
D89*
X64600000Y-91395000D02*
X63105000Y-91395000D01*
D92*
X81450000Y-60500000D02*
X81450000Y-60000000D01*
X77500000Y-83175000D02*
X77500000Y-84500000D01*
D89*
X54390000Y-70733504D02*
X53828248Y-70171752D01*
D92*
X79659010Y-90000000D02*
X79325000Y-89665990D01*
D91*
X82600000Y-90250000D02*
X82100000Y-89750000D01*
D89*
X63105000Y-91395000D02*
X62000000Y-92500000D01*
D92*
X79925000Y-92097960D02*
X79925000Y-90265990D01*
D89*
X53200000Y-73300000D02*
X53500000Y-73000000D01*
X59500000Y-65000000D02*
X60500000Y-64000000D01*
D92*
X81600000Y-59850000D02*
X81450000Y-60000000D01*
D90*
X118525000Y-89500000D02*
X118600000Y-89575000D01*
D92*
X79325000Y-89665990D02*
X79325000Y-88700000D01*
D89*
X67550000Y-81450000D02*
X66900000Y-81450000D01*
D92*
X80902040Y-93075000D02*
X79925000Y-92097960D01*
D89*
X70600000Y-66000000D02*
X70600000Y-64900000D01*
D92*
X77500000Y-84500000D02*
X77500000Y-87434010D01*
D90*
X121650000Y-89575000D02*
X121725000Y-89500000D01*
D89*
X64600000Y-91395000D02*
X62895000Y-91395000D01*
X72300000Y-75500000D02*
X74000000Y-75500000D01*
X81000000Y-93075000D02*
X81000000Y-93882942D01*
D91*
X82600000Y-89750000D02*
X82100000Y-89750000D01*
D92*
X87962500Y-78500000D02*
X87962500Y-80962500D01*
X79925000Y-90265990D02*
X79659010Y-90000000D01*
D89*
X68500000Y-80500000D02*
X67550000Y-81450000D01*
X70600000Y-65100000D02*
X69500000Y-64000000D01*
D92*
X82100000Y-89750000D02*
X81850000Y-90000000D01*
X78765990Y-88700000D02*
X79325000Y-88700000D01*
X83600000Y-59850000D02*
X81600000Y-59850000D01*
G04 #@! TO.N,PGND*
D89*
X73500000Y-77950000D02*
X75000000Y-77950000D01*
D91*
X81000000Y-91525000D02*
X81975000Y-91525000D01*
D90*
X85750000Y-91400000D02*
X85750000Y-91924582D01*
D89*
X71200000Y-102100000D02*
X71200000Y-103300000D01*
X60000000Y-79000000D02*
X61000000Y-78000000D01*
X59500000Y-79000000D02*
X60000000Y-79000000D01*
X75600000Y-66000000D02*
X75600000Y-66900000D01*
D91*
X81975000Y-91525000D02*
X82000000Y-91500000D01*
D89*
X64500000Y-67000000D02*
X63500000Y-68000000D01*
X75600000Y-66900000D02*
X74500000Y-68000000D01*
D91*
X77550000Y-79500000D02*
X78275000Y-80225000D01*
D90*
X118600003Y-88975000D02*
X118525000Y-88899997D01*
D91*
X74000000Y-79500000D02*
X74725000Y-80225000D01*
X81025000Y-91525000D02*
X82000000Y-92500000D01*
D90*
X120925000Y-88975000D02*
X118600003Y-88975000D01*
D91*
X74725000Y-80225000D02*
X75700000Y-80225000D01*
D89*
X75600000Y-66000000D02*
X75600000Y-67100000D01*
X64600000Y-84595000D02*
X62905000Y-84595000D01*
X64600000Y-84595000D02*
X63095000Y-84595000D01*
D91*
X77500000Y-79500000D02*
X77550000Y-79500000D01*
D89*
X75600000Y-67100000D02*
X76500000Y-68000000D01*
D90*
X84250000Y-91400000D02*
X84250000Y-91924582D01*
X85750000Y-91924582D02*
X85849999Y-92024581D01*
X84250000Y-91924582D02*
X84150001Y-92024581D01*
D89*
X63095000Y-84595000D02*
X62000000Y-83500000D01*
X64500000Y-66000000D02*
X64500000Y-67000000D01*
X59500000Y-79000000D02*
X60500000Y-79000000D01*
X60500000Y-79000000D02*
X61000000Y-79500000D01*
X62905000Y-84595000D02*
X62000000Y-85500000D01*
D91*
X82600000Y-90750000D02*
X81775000Y-90750000D01*
D89*
X71200000Y-103300000D02*
X70500000Y-104000000D01*
X64500000Y-67000000D02*
X65500000Y-68000000D01*
D91*
X81775000Y-90750000D02*
X81000000Y-91525000D01*
D90*
X121000000Y-89050000D02*
X120925000Y-88975000D01*
D91*
X96900000Y-91400000D02*
X97500000Y-92000000D01*
D89*
X72300000Y-72500000D02*
X74000000Y-72500000D01*
D91*
X81000000Y-91525000D02*
X81025000Y-91525000D01*
D89*
X71200000Y-103200000D02*
X72000000Y-104000000D01*
D91*
X78275000Y-80225000D02*
X79150000Y-80225000D01*
X96650000Y-91400000D02*
X96900000Y-91400000D01*
D89*
X71200000Y-102100000D02*
X71200000Y-103200000D01*
G04 #@! TO.N,/SCH-02 3V3 Rail/U3_VCC*
D91*
X86387500Y-59037000D02*
X86387500Y-57112500D01*
X87200000Y-56300000D02*
X86175000Y-57325000D01*
X89250000Y-56300000D02*
X89350000Y-56400000D01*
X89350000Y-64160000D02*
X89010000Y-64500000D01*
X87200000Y-56300000D02*
X89250000Y-56300000D01*
X86175000Y-57325000D02*
X85200000Y-57325000D01*
X89350000Y-56400000D02*
X89350000Y-64160000D01*
G04 #@! TO.N,PGOOD*
X87990000Y-64500000D02*
X87490000Y-65000000D01*
D90*
X104550000Y-85050000D02*
X104000000Y-84500000D01*
X93975000Y-76717396D02*
X95257604Y-78000000D01*
X103990474Y-84509526D02*
X104500000Y-84000000D01*
X95257604Y-78000000D02*
X95500000Y-78000000D01*
X90330000Y-65170000D02*
X91170000Y-65170000D01*
X91170000Y-65170000D02*
X93975000Y-67975000D01*
X115400000Y-75400000D02*
X115500000Y-75500000D01*
X93975000Y-67975000D02*
X93975000Y-76717396D01*
X115400000Y-73900000D02*
X115400000Y-75400000D01*
X96500000Y-83000000D02*
X98565000Y-83000000D01*
D91*
X83500000Y-58924500D02*
X83612500Y-59037000D01*
D90*
X101990474Y-84509526D02*
X101010948Y-83530000D01*
X104000000Y-84500000D02*
X103990474Y-84509526D01*
D91*
X87490000Y-65000000D02*
X87000000Y-65000000D01*
D90*
X101010948Y-83530000D02*
X99095000Y-83530000D01*
X103990474Y-84509526D02*
X101990474Y-84509526D01*
X98565000Y-83000000D02*
X99095000Y-83530000D01*
D91*
X83500000Y-58000000D02*
X83500000Y-58924500D01*
X90330000Y-65170000D02*
X91000000Y-64500000D01*
D90*
X104785000Y-85050000D02*
X104550000Y-85050000D01*
D91*
X88660000Y-65170000D02*
X90330000Y-65170000D01*
X87990000Y-64500000D02*
X88660000Y-65170000D01*
G04 #@! TO.N,3V3*
X101100000Y-80375000D02*
X102025209Y-80375000D01*
X118027767Y-77760000D02*
X118125000Y-77857233D01*
D90*
X86500000Y-64000000D02*
X84000000Y-66500000D01*
D92*
X88425000Y-62575000D02*
X88425000Y-61600000D01*
D90*
X126500000Y-90500000D02*
X126808058Y-90808058D01*
X126260000Y-90500000D02*
X126500000Y-90500000D01*
D92*
X83800000Y-62025000D02*
X83800000Y-62800000D01*
D91*
X100790924Y-59120000D02*
X100790924Y-59416527D01*
X98600929Y-59120000D02*
X98590000Y-59130929D01*
D93*
X83800000Y-62025000D02*
X83800000Y-64800000D01*
D91*
X88425000Y-61600000D02*
X88425000Y-60925000D01*
D90*
X111375000Y-82106490D02*
X111998510Y-82730000D01*
D91*
X89090000Y-75410000D02*
X88500000Y-76000000D01*
X104630000Y-86486116D02*
X104858058Y-86258058D01*
X104848249Y-80480000D02*
X105453249Y-79875000D01*
X94800000Y-94110000D02*
X94130000Y-94780000D01*
D90*
X111998510Y-82730000D02*
X112010000Y-82730000D01*
D91*
X100790924Y-59416527D02*
X100790000Y-59417451D01*
X100218122Y-74298883D02*
X99414999Y-74298883D01*
X101587500Y-95600000D02*
X101614373Y-95600000D01*
X76200000Y-54100000D02*
X76800000Y-53500000D01*
D92*
X86500000Y-64000000D02*
X87000000Y-64000000D01*
D91*
X88500000Y-76000000D02*
X88590000Y-76000000D01*
X94130000Y-95640000D02*
X94800000Y-96310000D01*
X98590000Y-59130929D02*
X98590000Y-59900000D01*
X101250000Y-75500000D02*
X101250000Y-75330761D01*
X123387500Y-90300000D02*
X123937500Y-90850000D01*
X107025000Y-66975000D02*
X107000000Y-67000000D01*
X104630000Y-86970000D02*
X104630000Y-86486116D01*
X107764994Y-69790000D02*
X107500000Y-69525006D01*
D90*
X80636396Y-66500000D02*
X72300000Y-58163604D01*
D91*
X110400000Y-86950000D02*
X110475000Y-86950000D01*
D90*
X111049999Y-81225000D02*
X111375000Y-81550001D01*
D91*
X100990000Y-76600000D02*
X100990000Y-75760000D01*
X120062500Y-78200000D02*
X120062500Y-79037500D01*
X93800000Y-94000000D02*
X94690000Y-94000000D01*
D94*
X85500000Y-60544445D02*
X84019445Y-62025000D01*
D91*
X108420000Y-69760000D02*
X108390000Y-69790000D01*
D90*
X110500000Y-81225000D02*
X111049999Y-81225000D01*
D91*
X119400000Y-62100000D02*
X119400000Y-60600000D01*
X118000000Y-77760000D02*
X118027767Y-77760000D01*
X101100000Y-79725000D02*
X101100000Y-80375000D01*
D92*
X87000000Y-64000000D02*
X88425000Y-62575000D01*
D90*
X111375000Y-81550001D02*
X111375000Y-82106490D01*
D91*
X100990000Y-77900000D02*
X100819634Y-77900000D01*
X107462500Y-89100000D02*
X107287500Y-89275000D01*
X123937500Y-90850000D02*
X124542078Y-90850000D01*
X110500000Y-87633869D02*
X110991131Y-88125000D01*
X88425000Y-58000000D02*
X88000000Y-58000000D01*
X101100000Y-80375000D02*
X100125000Y-80375001D01*
X72300000Y-56000000D02*
X72300000Y-55225001D01*
X98400000Y-80319634D02*
X98400000Y-80400000D01*
X102025209Y-80375000D02*
X102040000Y-80389791D01*
D89*
X88425000Y-61600000D02*
X88425000Y-58000000D01*
D91*
X73425001Y-54100000D02*
X76200000Y-54100000D01*
X100790000Y-59417451D02*
X100790000Y-59900000D01*
X108920000Y-88880000D02*
X109000000Y-88800000D01*
D94*
X85500000Y-58950000D02*
X85500000Y-60544445D01*
D93*
X88000000Y-58000000D02*
X87500000Y-57500000D01*
D91*
X108390000Y-69790000D02*
X107764994Y-69790000D01*
X101614373Y-95600000D02*
X102178440Y-95035933D01*
X88590000Y-76000000D02*
X89090000Y-76500000D01*
X72300000Y-55225001D02*
X73425001Y-54100000D01*
X76800000Y-53500000D02*
X77200000Y-53500000D01*
X110475000Y-86950000D02*
X110500000Y-86925000D01*
X94130000Y-94780000D02*
X94130000Y-95640000D01*
D90*
X84000000Y-66500000D02*
X80636396Y-66500000D01*
D91*
X108920000Y-89100000D02*
X107462500Y-89100000D01*
X112010000Y-83607500D02*
X112010000Y-82730000D01*
X105453249Y-79875000D02*
X106700000Y-79875000D01*
X107601834Y-81875000D02*
X108251834Y-81225000D01*
X119400000Y-60600000D02*
X119500000Y-60500000D01*
X108900000Y-66975000D02*
X107025000Y-66975000D01*
X100990000Y-75760000D02*
X101250000Y-75500000D01*
X106730000Y-79845000D02*
X106700000Y-79875000D01*
X126260000Y-83622293D02*
X125821460Y-83183753D01*
X126260000Y-83750000D02*
X126260000Y-83622293D01*
X120062500Y-79037500D02*
X120125000Y-79100000D01*
X103300000Y-80480000D02*
X104848249Y-80480000D01*
X106730000Y-79135000D02*
X106730000Y-79845000D01*
X108920000Y-89100000D02*
X108920000Y-88880000D01*
D93*
X88425000Y-60925000D02*
X87500000Y-60000000D01*
D91*
X108251834Y-81225000D02*
X110500000Y-81225000D01*
D92*
X85000000Y-64000000D02*
X86500000Y-64000000D01*
D91*
X111317500Y-84300000D02*
X112010000Y-83607500D01*
D94*
X84019445Y-62025000D02*
X83800000Y-62025000D01*
D91*
X126230000Y-89000000D02*
X126230000Y-88970000D01*
X126230000Y-88970000D02*
X126400000Y-88800000D01*
X97300000Y-80375000D02*
X98375000Y-80375000D01*
X110500000Y-86925000D02*
X110500000Y-87633869D01*
X89090000Y-73900000D02*
X89090000Y-72600000D01*
X101250000Y-75330761D02*
X100218122Y-74298883D01*
X94690000Y-94000000D02*
X94800000Y-94110000D01*
X98375000Y-80375000D02*
X98400000Y-80400000D01*
D92*
X83800000Y-62800000D02*
X85000000Y-64000000D01*
D91*
X106700000Y-81875000D02*
X107601834Y-81875000D01*
X89090000Y-75200000D02*
X89090000Y-73900000D01*
D90*
X72300000Y-58163604D02*
X72300000Y-56000000D01*
D91*
X100819634Y-77900000D02*
X98400000Y-80319634D01*
X89090000Y-75200000D02*
X89090000Y-75410000D01*
X108420000Y-68510000D02*
X108420000Y-69760000D01*
G04 #@! TO.N,AGND*
X86000000Y-55500000D02*
X85550000Y-55500000D01*
X66500000Y-86619634D02*
X66500000Y-86500000D01*
X82600000Y-86750000D02*
X83250000Y-86750000D01*
D90*
X112645000Y-82095001D02*
X112645000Y-84445000D01*
D91*
X108000000Y-96025000D02*
X108000000Y-97000000D01*
X80850000Y-78350000D02*
X80500000Y-78000000D01*
X112450000Y-98900000D02*
X112000000Y-99350000D01*
X112050000Y-62050000D02*
X112050000Y-60550000D01*
X112450000Y-96850000D02*
X112450000Y-98150000D01*
X91375000Y-60875000D02*
X90500000Y-60000000D01*
D90*
X110430000Y-71070000D02*
X109380000Y-71070000D01*
X119700001Y-83230000D02*
X119375000Y-83555001D01*
D91*
X121900000Y-68800000D02*
X121900000Y-69600000D01*
D89*
X118975000Y-66025000D02*
X117000000Y-66025000D01*
D90*
X92000000Y-85550000D02*
X92000000Y-85125000D01*
D94*
X89100000Y-88650000D02*
X89500000Y-89050000D01*
D91*
X82392893Y-85750000D02*
X82367893Y-85725000D01*
X121900000Y-67200000D02*
X121900000Y-68000000D01*
D90*
X102665000Y-81299280D02*
X104540720Y-83175000D01*
D91*
X81950000Y-85485096D02*
X81950000Y-85156806D01*
D94*
X87400000Y-88250000D02*
X87765578Y-88250000D01*
D91*
X120200000Y-62100000D02*
X120850000Y-62100000D01*
X101810000Y-58300000D02*
X101810000Y-58756221D01*
X100800000Y-56680000D02*
X100800000Y-57110000D01*
X121900000Y-62100000D02*
X121950000Y-62050000D01*
X113050000Y-92750000D02*
X113050000Y-91950000D01*
X100978856Y-96375000D02*
X100453856Y-96900000D01*
X82600000Y-85750000D02*
X83550000Y-85750000D01*
X53110000Y-71300000D02*
X53110000Y-71110000D01*
X88575000Y-92550000D02*
X89500000Y-92550000D01*
X80500000Y-78000000D02*
X80500000Y-76500000D01*
X99680000Y-56105000D02*
X99680000Y-57060000D01*
X126062500Y-81937500D02*
X125500000Y-82500000D01*
D89*
X117000000Y-68000000D02*
X117000000Y-66025000D01*
D91*
X111360000Y-86950000D02*
X111360000Y-86805001D01*
X105012500Y-91637500D02*
X104650000Y-92000000D01*
X85550000Y-55500000D02*
X85275000Y-55775000D01*
D94*
X107150000Y-67850000D02*
X107000000Y-68000000D01*
D89*
X118975000Y-69975000D02*
X118975000Y-68000000D01*
D91*
X121112500Y-91250000D02*
X120450001Y-91250000D01*
X113000000Y-62100000D02*
X112100000Y-62100000D01*
X118975000Y-71475000D02*
X119000000Y-71500000D01*
X91375000Y-61600000D02*
X91375000Y-60875000D01*
X97170000Y-70210000D02*
X97170000Y-67660000D01*
X111360000Y-86805001D02*
X110154999Y-85600000D01*
X91813631Y-89236369D02*
X92000000Y-89050000D01*
X96050000Y-85050000D02*
X96500000Y-85500000D01*
D90*
X118500000Y-90990000D02*
X118500000Y-91500000D01*
D89*
X79000000Y-77950000D02*
X80450000Y-77950000D01*
D91*
X111820000Y-91520000D02*
X113050000Y-92750000D01*
D89*
X115025000Y-68000000D02*
X115025000Y-66025000D01*
D90*
X107203812Y-83175000D02*
X106700000Y-83175000D01*
D91*
X120200000Y-63300000D02*
X120200000Y-62100000D01*
X89500000Y-85550000D02*
X89500000Y-85075000D01*
X99610000Y-58300000D02*
X99610000Y-57870000D01*
X70910000Y-90700000D02*
X70910000Y-92400000D01*
X112750000Y-100100000D02*
X112000000Y-99350000D01*
X121950000Y-62050000D02*
X121950000Y-60950000D01*
X117000000Y-105000000D02*
X119000000Y-107000000D01*
X80850000Y-84875000D02*
X80850000Y-78350000D01*
X100250000Y-61250000D02*
X100500000Y-61500000D01*
D90*
X105800000Y-81621188D02*
X105800000Y-83175000D01*
D91*
X86650000Y-95150000D02*
X88000000Y-96500000D01*
X99912500Y-96900000D02*
X99912500Y-97087500D01*
X110850000Y-98475000D02*
X111125000Y-98475000D01*
D90*
X104840000Y-70500000D02*
X105130000Y-70210000D01*
D91*
X107025000Y-64025000D02*
X107000000Y-64000000D01*
D90*
X107439406Y-82939406D02*
X108482739Y-81896073D01*
X117250000Y-100270000D02*
X116940001Y-100270000D01*
D89*
X117000000Y-69975000D02*
X118975000Y-69975000D01*
D91*
X53110000Y-71110000D02*
X52500000Y-70500000D01*
X119900000Y-91800001D02*
X119900000Y-93125000D01*
D94*
X94160000Y-88050000D02*
X94160000Y-86152500D01*
D91*
X115025000Y-69975000D02*
X115025000Y-71475000D01*
X115025000Y-64525000D02*
X115000000Y-64500000D01*
X109270000Y-77395000D02*
X109000000Y-77125000D01*
X115950000Y-92075000D02*
X115025000Y-93000000D01*
X85000000Y-60195916D02*
X85000000Y-59325000D01*
X82189904Y-85725000D02*
X81950000Y-85485096D01*
X113760000Y-81185000D02*
X113470000Y-81475000D01*
X105130000Y-70210000D02*
X105130000Y-67660000D01*
X91375000Y-57375000D02*
X90500000Y-56500000D01*
X112350000Y-65050000D02*
X114050000Y-65050000D01*
X121900000Y-70400000D02*
X121900000Y-71200000D01*
X121900000Y-63200000D02*
X121900000Y-64000000D01*
X82367893Y-85725000D02*
X82189904Y-85725000D01*
D90*
X110433058Y-71066942D02*
X110430000Y-71070000D01*
D91*
X92540000Y-104400000D02*
X94470000Y-104400000D01*
X109880000Y-88290000D02*
X109880000Y-89100000D01*
X102035001Y-96375000D02*
X100978856Y-96375000D01*
D90*
X103300000Y-79520000D02*
X103288510Y-79520000D01*
D91*
X121900000Y-64800000D02*
X121900000Y-65600000D01*
X108900000Y-61575000D02*
X108900000Y-60743649D01*
X104180000Y-106150000D02*
X105350000Y-106150000D01*
D90*
X115980000Y-79160000D02*
X116160000Y-79160000D01*
D91*
X89500000Y-89050000D02*
X89686369Y-89236369D01*
X106876391Y-58300000D02*
X106210000Y-58300000D01*
X97170000Y-66330000D02*
X97500000Y-66000000D01*
X113760000Y-80000000D02*
X113760000Y-81185000D01*
X108320000Y-56105000D02*
X108320000Y-57180000D01*
X69550366Y-89670000D02*
X66500000Y-86619634D01*
X100453856Y-96900000D02*
X99912500Y-96900000D01*
D94*
X87400000Y-88250000D02*
X86550000Y-88250000D01*
D91*
X79550000Y-59050000D02*
X79550000Y-60500000D01*
X70240000Y-89670000D02*
X69550366Y-89670000D01*
D90*
X112319999Y-81770000D02*
X112645000Y-82095001D01*
X112645000Y-84445000D02*
X113250000Y-85050000D01*
D91*
X118975000Y-64525000D02*
X119000000Y-64500000D01*
X73300000Y-56000000D02*
X73725000Y-55575000D01*
D90*
X119649092Y-85125000D02*
X122365000Y-85125000D01*
D91*
X112100000Y-62100000D02*
X112050000Y-62050000D01*
X119000000Y-107000000D02*
X125000000Y-107000000D01*
D89*
X115025000Y-69975000D02*
X117000000Y-69975000D01*
D91*
X125270000Y-89000000D02*
X125270000Y-87795000D01*
X113000000Y-62500000D02*
X115000000Y-64500000D01*
D90*
X116160000Y-79160000D02*
X116495558Y-79495558D01*
D91*
X125270000Y-87795000D02*
X124975000Y-87500000D01*
X115950000Y-92975000D02*
X118000000Y-95025000D01*
X121900000Y-71200000D02*
X121900000Y-72000000D01*
X94470000Y-104400000D02*
X96220000Y-106150000D01*
X118975000Y-69975000D02*
X118975000Y-71475000D01*
X85275000Y-55775000D02*
X85200000Y-55775000D01*
D90*
X108482739Y-81896073D02*
X108500000Y-81896073D01*
D91*
X112305000Y-81475000D02*
X112010000Y-81770000D01*
D90*
X125600908Y-79000000D02*
X126200000Y-79599092D01*
D91*
X103500000Y-70500000D02*
X104840000Y-70500000D01*
X85975000Y-95150000D02*
X88575000Y-92550000D01*
X96600000Y-59300000D02*
X96600000Y-60600000D01*
X101810000Y-58756221D02*
X101579711Y-58986510D01*
X109880000Y-89100000D02*
X109880000Y-89810000D01*
D90*
X122365000Y-85125000D02*
X122990000Y-85750000D01*
D91*
X121950000Y-74950000D02*
X121800000Y-75100000D01*
X81200000Y-63800000D02*
X81500000Y-63500000D01*
X99610000Y-57870000D02*
X99240000Y-57500000D01*
X115950000Y-91500000D02*
X115950000Y-92075000D01*
D94*
X94160000Y-86152500D02*
X95262500Y-85050000D01*
D91*
X96600000Y-60600000D02*
X97000000Y-61000000D01*
X112050000Y-73950000D02*
X110550000Y-73950000D01*
X95262500Y-85050000D02*
X96050000Y-85050000D01*
X108970000Y-87380000D02*
X108970000Y-86272500D01*
X115950000Y-91500000D02*
X115950000Y-92975000D01*
X99580000Y-61250000D02*
X100250000Y-61250000D01*
X102950000Y-95770000D02*
X102640001Y-95770000D01*
X114050000Y-65050000D02*
X115025000Y-66025000D01*
X121900000Y-72000000D02*
X121900000Y-72800000D01*
X73725000Y-55575000D02*
X78425000Y-55575000D01*
X99680000Y-51925000D02*
X100425000Y-51925000D01*
X108970000Y-87380000D02*
X109880000Y-88290000D01*
D89*
X117000000Y-68000000D02*
X117000000Y-69975000D01*
D91*
X112750000Y-100240000D02*
X112750000Y-100100000D01*
D90*
X106700000Y-81225000D02*
X106196188Y-81225000D01*
D91*
X113550000Y-96850000D02*
X113550000Y-98150000D01*
X121000000Y-62100000D02*
X121900000Y-62100000D01*
X70910000Y-89000000D02*
X70240000Y-89670000D01*
X108320000Y-51925000D02*
X107575000Y-51925000D01*
X78425000Y-55575000D02*
X78425000Y-57600000D01*
D90*
X107439406Y-82939406D02*
X107203812Y-83175000D01*
D91*
X113550000Y-96850000D02*
X112450000Y-96850000D01*
X121900000Y-63200000D02*
X121900000Y-62100000D01*
X97170000Y-67660000D02*
X97170000Y-66330000D01*
D94*
X94800000Y-88690000D02*
X94160000Y-88050000D01*
D90*
X103288510Y-79520000D02*
X102665000Y-80143510D01*
X116550000Y-100660001D02*
X116550000Y-101234052D01*
X115784052Y-102000000D02*
X115500000Y-102000000D01*
D91*
X107200000Y-56700000D02*
X108000000Y-57500000D01*
X111360000Y-86940000D02*
X113250000Y-85050000D01*
X107200000Y-56680000D02*
X107200000Y-56700000D01*
X109270000Y-77865000D02*
X109270000Y-77395000D01*
X126200000Y-81937500D02*
X126062500Y-81937500D01*
D90*
X123000000Y-76899092D02*
X123000000Y-77500000D01*
D94*
X108720000Y-67850000D02*
X107150000Y-67850000D01*
D91*
X111360000Y-86950000D02*
X111360000Y-86940000D01*
X121900000Y-68000000D02*
X121900000Y-68800000D01*
X108900000Y-64025000D02*
X107025000Y-64025000D01*
D90*
X120675000Y-83230000D02*
X119700001Y-83230000D01*
D91*
X86000000Y-54500000D02*
X85000000Y-53500000D01*
X97380000Y-58520000D02*
X96600000Y-59300000D01*
X108000000Y-97000000D02*
X108300086Y-97300086D01*
D94*
X87765578Y-88250000D02*
X88165579Y-88650000D01*
D91*
X82600000Y-85750000D02*
X82392893Y-85750000D01*
X121900000Y-64000000D02*
X121900000Y-64800000D01*
D90*
X122990000Y-85750000D02*
X124634426Y-87394426D01*
D91*
X115025000Y-71475000D02*
X115000000Y-71500000D01*
D90*
X119375000Y-84850908D02*
X119649092Y-85125000D01*
D91*
X105350000Y-106150000D02*
X107500000Y-104000000D01*
D94*
X88165579Y-88650000D02*
X89100000Y-88650000D01*
D90*
X102665000Y-80143510D02*
X102665000Y-81299280D01*
D91*
X110550000Y-73950000D02*
X110500000Y-74000000D01*
X109880000Y-89810000D02*
X109400000Y-90290000D01*
X81200000Y-64800000D02*
X81200000Y-63800000D01*
D90*
X105800000Y-83175000D02*
X106700000Y-83175000D01*
D91*
X121950000Y-73950000D02*
X121950000Y-74950000D01*
X85200000Y-55775000D02*
X85200000Y-55700000D01*
X108900000Y-60743649D02*
X108891173Y-60734822D01*
D90*
X116550000Y-101234052D02*
X115784052Y-102000000D01*
D91*
X119900000Y-93125000D02*
X118000000Y-95025000D01*
X113050000Y-91950000D02*
X113500000Y-91500000D01*
X118000000Y-95025000D02*
X120725000Y-95025000D01*
D89*
X118975000Y-68000000D02*
X118975000Y-66025000D01*
D94*
X86550000Y-88250000D02*
X86150000Y-88650000D01*
D89*
X117000000Y-66025000D02*
X115025000Y-66025000D01*
D91*
X105130000Y-67660000D02*
X106660000Y-67660000D01*
X112100000Y-64800000D02*
X112350000Y-65050000D01*
D90*
X124500000Y-79000000D02*
X125600908Y-79000000D01*
X124634426Y-87394426D02*
X125000000Y-87394426D01*
D91*
X119350000Y-69600000D02*
X118975000Y-69975000D01*
X99680000Y-57060000D02*
X99240000Y-57500000D01*
X120450001Y-91250000D02*
X119900000Y-91800001D01*
X121900000Y-66400000D02*
X121900000Y-67200000D01*
X113000000Y-62100000D02*
X113000000Y-62500000D01*
X112050000Y-60550000D02*
X112000000Y-60500000D01*
D90*
X123000000Y-77500000D02*
X124500000Y-79000000D01*
D91*
X81693194Y-84900000D02*
X80875000Y-84900000D01*
D90*
X119375000Y-83555001D02*
X119375000Y-84850908D01*
X106196188Y-81225000D02*
X105800000Y-81621188D01*
D91*
X100425000Y-51925000D02*
X100500000Y-52000000D01*
D90*
X116940001Y-100270000D02*
X116550000Y-100660001D01*
D91*
X121950000Y-60950000D02*
X121800000Y-60800000D01*
X105012500Y-91225000D02*
X105012500Y-91637500D01*
X119000000Y-64500000D02*
X120200000Y-63300000D01*
X86000000Y-55500000D02*
X86000000Y-54500000D01*
X112450000Y-98150000D02*
X112450000Y-98900000D01*
X91375000Y-58000000D02*
X91375000Y-57375000D01*
X70910000Y-89000000D02*
X70910000Y-90700000D01*
D90*
X112010000Y-81770000D02*
X112319999Y-81770000D01*
D91*
X115025000Y-66025000D02*
X115025000Y-64525000D01*
X81950000Y-85156806D02*
X81693194Y-84900000D01*
X85975000Y-95150000D02*
X86650000Y-95150000D01*
D90*
X120062500Y-76300000D02*
X122400908Y-76300000D01*
D91*
X106660000Y-67660000D02*
X107000000Y-68000000D01*
X113550000Y-98150000D02*
X112450000Y-98150000D01*
D90*
X116000000Y-94500000D02*
X116000000Y-93975000D01*
D91*
X111125000Y-98475000D02*
X112000000Y-99350000D01*
D89*
X115025000Y-69975000D02*
X115025000Y-68000000D01*
D90*
X119250000Y-90240000D02*
X118500000Y-90990000D01*
D91*
X108970000Y-86272500D02*
X109642500Y-85600000D01*
X121900000Y-65600000D02*
X121900000Y-66400000D01*
X84629232Y-60566684D02*
X85000000Y-60195916D01*
D90*
X126200000Y-79599092D02*
X126200000Y-81937500D01*
D91*
X120725000Y-95025000D02*
X120750000Y-95050000D01*
X107575000Y-51925000D02*
X107500000Y-52000000D01*
D90*
X116000000Y-93975000D02*
X115025000Y-93000000D01*
D91*
X118975000Y-66025000D02*
X118975000Y-64525000D01*
D89*
X115025000Y-68000000D02*
X117000000Y-68000000D01*
D94*
X109380000Y-68510000D02*
X108720000Y-67850000D01*
D91*
X121900000Y-73900000D02*
X121950000Y-73950000D01*
X121900000Y-72800000D02*
X121900000Y-73900000D01*
X121900000Y-69600000D02*
X119350000Y-69600000D01*
X109990000Y-88990000D02*
X109880000Y-89100000D01*
X111150000Y-88990000D02*
X111820000Y-89660000D01*
D90*
X92000000Y-85125000D02*
X91875000Y-85000000D01*
D91*
X100800000Y-57110000D02*
X99610000Y-58300000D01*
X80875000Y-84900000D02*
X80850000Y-84875000D01*
X99912500Y-97087500D02*
X99500000Y-97500000D01*
X108320000Y-57180000D02*
X108000000Y-57500000D01*
X113470000Y-81475000D02*
X112305000Y-81475000D01*
X111820000Y-89660000D02*
X111820000Y-91520000D01*
X89686369Y-89236369D02*
X91813631Y-89236369D01*
X110154999Y-85600000D02*
X109642500Y-85600000D01*
D90*
X122400908Y-76300000D02*
X123000000Y-76899092D01*
D91*
X121900000Y-69600000D02*
X121900000Y-70400000D01*
X102640001Y-95770000D02*
X102035001Y-96375000D01*
X97380000Y-56450000D02*
X97380000Y-58520000D01*
D89*
X80450000Y-77950000D02*
X80500000Y-78000000D01*
D91*
X125000000Y-107000000D02*
X125500000Y-106500000D01*
D90*
X104540720Y-83175000D02*
X105800000Y-83175000D01*
D91*
X111150000Y-88990000D02*
X109990000Y-88990000D01*
G04 #@! TO.N,SDA*
D90*
X87742556Y-76257444D02*
X87742556Y-74242556D01*
X91470448Y-84450000D02*
X92050000Y-83870448D01*
X92900000Y-77350000D02*
X91640000Y-76090000D01*
X88686396Y-84450000D02*
X91470448Y-84450000D01*
X91500000Y-76500000D02*
X91500000Y-76090000D01*
X94417396Y-78867396D02*
X92900000Y-77350000D01*
X91000000Y-76090000D02*
X90110000Y-75200000D01*
X91625000Y-81988604D02*
X91625000Y-81000000D01*
D94*
X88475000Y-85625781D02*
X88475000Y-85025000D01*
D90*
X96960000Y-78550000D02*
X96684792Y-78550000D01*
X88475000Y-84661396D02*
X88686396Y-84450000D01*
X87742556Y-74242556D02*
X71300000Y-57800000D01*
X88475000Y-85025000D02*
X88475000Y-84661396D01*
X92050000Y-82413604D02*
X91625000Y-81988604D01*
X91500000Y-76500000D02*
X91500000Y-75800000D01*
X96684792Y-78550000D02*
X96367396Y-78867396D01*
X91640000Y-76090000D02*
X91500000Y-76090000D01*
X91500000Y-76090000D02*
X91000000Y-76090000D01*
X97610000Y-77900000D02*
X96960000Y-78550000D01*
D94*
X87400000Y-86250000D02*
X87850781Y-86250000D01*
D90*
X96367396Y-78867396D02*
X94417396Y-78867396D01*
X71300000Y-57800000D02*
X71300000Y-56000000D01*
X92050000Y-83870448D02*
X92050000Y-82413604D01*
D94*
X87850781Y-86250000D02*
X88475000Y-85625781D01*
D90*
X91500000Y-75800000D02*
X91000000Y-75300000D01*
G04 #@! TO.N,/SCH-06 Hall Tach/LM_TACHIN*
X116185000Y-80690000D02*
X115725000Y-80690000D01*
X115725000Y-80690000D02*
X115020000Y-79985000D01*
X117135000Y-79740000D02*
X116185000Y-80690000D01*
X115020000Y-79985000D02*
X115020000Y-79160000D01*
X122750000Y-79740000D02*
X117135000Y-79740000D01*
G04 #@! TO.N,WD_HEARTBEAT*
X110440000Y-94500000D02*
X109650000Y-93710000D01*
X108900000Y-73283884D02*
X108900000Y-72780000D01*
X105300000Y-82200000D02*
X105300000Y-80700001D01*
X105300000Y-80700001D02*
X105500001Y-80500000D01*
X117000000Y-78500000D02*
X112500000Y-78500000D01*
X105500001Y-80500000D02*
X111000000Y-80500000D01*
X105240000Y-82260000D02*
X105300000Y-82200000D01*
X104600000Y-82260000D02*
X105240000Y-82260000D01*
X113000000Y-74550000D02*
X112925000Y-74625000D01*
X115570100Y-89500000D02*
X114500000Y-90570100D01*
X117500000Y-88592954D02*
X117500000Y-87000000D01*
X112500000Y-78500000D02*
X112500000Y-75050000D01*
X112500000Y-79000000D02*
X112500000Y-78500000D01*
X114500000Y-90570100D02*
X114500000Y-93500000D01*
X113500000Y-94500000D02*
X110440000Y-94500000D01*
X111000000Y-80500000D02*
X112500000Y-79000000D01*
X113000000Y-73900000D02*
X113000000Y-74550000D01*
X116592954Y-89500000D02*
X115570100Y-89500000D01*
X117500000Y-88592954D02*
X116592954Y-89500000D01*
X112925000Y-74625000D02*
X110241116Y-74625000D01*
X110241116Y-74625000D02*
X108900000Y-73283884D01*
X112500000Y-75050000D02*
X113000000Y-74550000D01*
X114500000Y-93500000D02*
X113500000Y-94500000D01*
G04 #@! TO.N,/SCH-05 Permission + Watchdog/U7_WDI*
X104350001Y-90575000D02*
X104025000Y-90900001D01*
X108729280Y-94305000D02*
X109000000Y-94034280D01*
X104934720Y-94305000D02*
X108729280Y-94305000D01*
X109000000Y-94034280D02*
X109000000Y-93340000D01*
X104025000Y-90900001D02*
X104025000Y-93395280D01*
X109000000Y-93340000D02*
X109650000Y-92690000D01*
X104025000Y-93395280D02*
X104934720Y-94305000D01*
X105012500Y-90575000D02*
X104350001Y-90575000D01*
G04 #@! TO.N,/SCH-06 Hall Tach/TLV_INN*
X121937500Y-78187500D02*
X121500000Y-78625000D01*
X121937500Y-77250000D02*
X121937500Y-78187500D01*
G04 #@! TO.N,U5_CLR_OR*
X102395000Y-93730000D02*
X101125000Y-95000000D01*
X99000000Y-95000000D02*
X98050000Y-95000000D01*
X102395000Y-86080000D02*
X102395000Y-88630000D01*
X98050000Y-95000000D02*
X96650000Y-93600000D01*
X101125000Y-95000000D02*
X99000000Y-95000000D01*
X99400001Y-96250000D02*
X99000000Y-95849999D01*
X99912500Y-96250000D02*
X99400001Y-96250000D01*
X96140000Y-93090000D02*
X96650000Y-93600000D01*
X102395000Y-91180000D02*
X102395000Y-93730000D01*
X94800000Y-93090000D02*
X96140000Y-93090000D01*
X99000000Y-95849999D02*
X99000000Y-95000000D01*
X102395000Y-88630000D02*
X102395000Y-91180000D01*
G04 #@! TO.N,/SCH-05 Permission + Watchdog/U5_CLR_BUF*
X101587500Y-96900000D02*
X102187500Y-97500000D01*
X103500000Y-82875001D02*
X103500000Y-83884526D01*
X103170000Y-94170000D02*
X103170000Y-87830000D01*
X103151490Y-97500000D02*
X103585000Y-97066490D01*
X102187500Y-97500000D02*
X103151490Y-97500000D01*
X101100000Y-81025000D02*
X101649999Y-81025000D01*
X103585000Y-94585000D02*
X103170000Y-94170000D01*
X103170000Y-87830000D02*
X103400918Y-87599082D01*
X103585000Y-97066490D02*
X103585000Y-94585000D01*
X101649999Y-81025000D02*
X103500000Y-82875001D01*
G04 #@! TO.N,/SCH-06 Hall Tach/TACH_LDO_IN*
D93*
X115150000Y-98475000D02*
X115934878Y-98475000D01*
X81500000Y-83625000D02*
X81500000Y-79037500D01*
X119725000Y-97975000D02*
X120750000Y-96950000D01*
X118000000Y-97975000D02*
X119725000Y-97975000D01*
X115934878Y-98475000D02*
X116275000Y-98134878D01*
X115150000Y-96525000D02*
X115025000Y-96525000D01*
X116300000Y-97975000D02*
X116275000Y-98000000D01*
X116275000Y-96865122D02*
X115934878Y-96525000D01*
X118000000Y-97975000D02*
X116300000Y-97975000D01*
X92425000Y-95000000D02*
X92425000Y-94925000D01*
X115025000Y-96525000D02*
X114500000Y-96000000D01*
X116275000Y-98134878D02*
X116275000Y-98000000D01*
X92425000Y-94925000D02*
X91166942Y-93666942D01*
X116275000Y-98000000D02*
X116275000Y-96865122D01*
X81500000Y-79037500D02*
X82037500Y-78500000D01*
X115934878Y-96525000D02*
X115150000Y-96525000D01*
G04 #@! TO.N,/SCH-06 Hall Tach/TACH_DRAIN*
D90*
X122750000Y-80760000D02*
X122750000Y-81990000D01*
X125250000Y-80062500D02*
X124552500Y-80760000D01*
X124552500Y-80760000D02*
X122750000Y-80760000D01*
G04 #@! TO.N,+12V_TACH*
D93*
X114225000Y-100865346D02*
X113160346Y-101930000D01*
X110065122Y-96525000D02*
X108000000Y-98590122D01*
X124010000Y-83950001D02*
X124010000Y-84250000D01*
X111350001Y-101930000D02*
X110490000Y-101069999D01*
X110490000Y-101069999D02*
X110490000Y-100750000D01*
X122750000Y-83010000D02*
X123069999Y-83010000D01*
X112075000Y-95300000D02*
X115923834Y-95300000D01*
X108000000Y-98975000D02*
X108715000Y-98975000D01*
X122325000Y-91181974D02*
X122643026Y-91500000D01*
X123069999Y-83010000D02*
X124010000Y-83950001D01*
X126542793Y-91500000D02*
X122643026Y-91500000D01*
X122325000Y-88825000D02*
X122325000Y-91181974D01*
X127470000Y-92427207D02*
X126542793Y-91500000D01*
X110850000Y-96525000D02*
X110065122Y-96525000D01*
X127277106Y-94070000D02*
X127470000Y-93877106D01*
X108000000Y-99475000D02*
X106725000Y-100750000D01*
X108715000Y-98975000D02*
X110490000Y-100750000D01*
X122300000Y-96050000D02*
X123000000Y-96750000D01*
X126570000Y-94070000D02*
X127277106Y-94070000D01*
X121460000Y-87040000D02*
X121500000Y-87000000D01*
X121810000Y-88310000D02*
X122325000Y-88825000D01*
X122643026Y-91500000D02*
X122300000Y-91843026D01*
X108000000Y-98590122D02*
X108000000Y-98975000D01*
X120675000Y-88310000D02*
X121810000Y-88310000D01*
X120675000Y-87040000D02*
X120675000Y-88310000D01*
X108000000Y-98975000D02*
X108000000Y-99475000D01*
X114225000Y-100750000D02*
X114225000Y-100865346D01*
X122300000Y-91843026D02*
X122300000Y-96050000D01*
X127470000Y-93877106D02*
X127470000Y-92427207D01*
X116673834Y-96050000D02*
X122300000Y-96050000D01*
X120675000Y-87040000D02*
X121460000Y-87040000D01*
X115923834Y-95300000D02*
X116673834Y-96050000D01*
X110850000Y-96525000D02*
X112075000Y-95300000D01*
X113160346Y-101930000D02*
X111350001Y-101930000D01*
G04 #@! TO.N,/SCH-05 Permission + Watchdog/U6_PRE_RC*
D90*
X106660000Y-86970000D02*
X107070000Y-87380000D01*
X109642500Y-84950000D02*
X108185000Y-84950000D01*
X108185000Y-84950000D02*
X108085000Y-85050000D01*
X107070000Y-86065000D02*
X108085000Y-85050000D01*
X105650000Y-86970000D02*
X106660000Y-86970000D01*
X107070000Y-87380000D02*
X107070000Y-86065000D01*
G04 #@! TO.N,/SCH-07 Connectors/VBUS*
D91*
X103000000Y-58310000D02*
X102990000Y-58300000D01*
X102000000Y-55705001D02*
X101600000Y-56105001D01*
X103000000Y-58970762D02*
X103000000Y-58310000D01*
X105832220Y-55584100D02*
X106400000Y-56151880D01*
X102000000Y-55654023D02*
X102000000Y-55705001D01*
X101600000Y-56105001D02*
X101600000Y-56680000D01*
X106400000Y-56151880D02*
X106400000Y-56680000D01*
X101982667Y-55636690D02*
X102000000Y-55654023D01*
G04 #@! TO.N,/SCH-07 Connectors/VBUS_SENSE*
D90*
X108560275Y-59100000D02*
X109300000Y-59100000D01*
X107115275Y-57655000D02*
X108560275Y-59100000D01*
X105190000Y-58300000D02*
X105835000Y-57655000D01*
D91*
X104010000Y-58300000D02*
X105190000Y-58300000D01*
D90*
X105835000Y-57655000D02*
X107115275Y-57655000D01*
G04 #@! TO.N,/SCH-04 ESP32-C6 Supervisor/ESP_SDA*
X106190000Y-71810000D02*
X107000000Y-71810000D01*
X103500000Y-74500000D02*
X106190000Y-71810000D01*
X96590000Y-77900000D02*
X96400003Y-77900000D01*
X96400003Y-77900000D02*
X96300003Y-78000000D01*
X112700000Y-63200000D02*
X113000000Y-63500000D01*
X112100000Y-63200000D02*
X112700000Y-63200000D01*
X103500000Y-75075000D02*
X103500000Y-74500000D01*
G04 #@! TO.N,/SCH-02 3V3 Rail/MODE_SYNC*
D94*
X84500000Y-58199997D02*
X84300003Y-58000000D01*
X84500000Y-58950000D02*
X84500000Y-58199997D01*
X82500000Y-63500000D02*
X82500000Y-64800000D01*
G04 #@! TO.N,TEMP_SENSE*
D90*
X101385000Y-71185000D02*
X108305000Y-71185000D01*
X110575000Y-68625000D02*
X110575000Y-65867892D01*
X108420000Y-70780000D02*
X109410000Y-69790000D01*
X109410000Y-69790000D02*
X110575000Y-68625000D01*
X110842892Y-65600000D02*
X112100000Y-65600000D01*
X101000000Y-70800000D02*
X101385000Y-71185000D01*
X108305000Y-71185000D02*
X108420000Y-71070000D01*
X90540000Y-103040000D02*
X90000000Y-102500000D01*
X90540000Y-104400000D02*
X90540000Y-103040000D01*
X110575000Y-65867892D02*
X110842892Y-65600000D01*
X108420000Y-71070000D02*
X108420000Y-70780000D01*
G04 #@! TO.N,ESP_BOOT*
X107625000Y-72045000D02*
X107965000Y-71705000D01*
X106201396Y-72435000D02*
X107258884Y-72435000D01*
X107625000Y-72068884D02*
X107625000Y-72045000D01*
X110859069Y-78254300D02*
X111310300Y-77803069D01*
X97170000Y-74710000D02*
X97170000Y-73848784D01*
X110645369Y-76500000D02*
X106000000Y-76500000D01*
X111310300Y-77164931D02*
X110645369Y-76500000D01*
X107258884Y-72435000D02*
X107625000Y-72068884D01*
X102010000Y-75376116D02*
X102010000Y-76600000D01*
X100307767Y-73673883D02*
X102010000Y-75376116D01*
X109270000Y-79135000D02*
X110150700Y-78254300D01*
X98808058Y-73691942D02*
X98826117Y-73673883D01*
X102010000Y-76600000D02*
X104160000Y-76600000D01*
X105130000Y-75630000D02*
X105130000Y-74710000D01*
X107965000Y-71705000D02*
X109345280Y-71705000D01*
X109345280Y-71705000D02*
X109640280Y-72000000D01*
X109640280Y-72000000D02*
X112100000Y-72000000D01*
X104160000Y-76600000D02*
X105130000Y-75630000D01*
X105130000Y-73506396D02*
X106201396Y-72435000D01*
X98826117Y-73673883D02*
X100307767Y-73673883D01*
X106000000Y-76500000D02*
X105130000Y-75630000D01*
X105130000Y-74710000D02*
X105130000Y-73506396D01*
X97170000Y-73848784D02*
X97375001Y-73643783D01*
X111310300Y-77803069D02*
X111310300Y-77164931D01*
X110150700Y-78254300D02*
X110859069Y-78254300D01*
G04 #@! TO.N,HALL_TACH*
X114800003Y-72300003D02*
X115000000Y-72300003D01*
X123500000Y-95500000D02*
X122825000Y-95500000D01*
X113033884Y-66150000D02*
X113625000Y-66741116D01*
X122000000Y-97500000D02*
X122375000Y-97875000D01*
X113625000Y-71125000D02*
X114800003Y-72300003D01*
X124300000Y-82810000D02*
X125240000Y-83750000D01*
X122825000Y-95500000D02*
X122825000Y-94388848D01*
X124300000Y-81937500D02*
X124300000Y-82810000D01*
X113625000Y-66741116D02*
X113625000Y-71125000D01*
X112100000Y-66400000D02*
X112350000Y-66150000D01*
X122375000Y-97875000D02*
X123395280Y-97875000D01*
X123395280Y-97875000D02*
X124106924Y-97163356D01*
X124106924Y-93106924D02*
X122825000Y-94388848D01*
X112350000Y-66150000D02*
X113033884Y-66150000D01*
X124106924Y-96106924D02*
X123500000Y-95500000D01*
X124106924Y-97163356D02*
X124106924Y-96106924D01*
X125240000Y-84740000D02*
X126000000Y-85500000D01*
X125240000Y-83750000D02*
X125240000Y-84740000D01*
X126000000Y-85500000D02*
X126500000Y-86000000D01*
X126500000Y-86000000D02*
X126500000Y-86500000D01*
G04 #@! TO.N,/SCH-06 Hall Tach/TACH_DELAY*
X115500000Y-97175000D02*
X115150000Y-97175000D01*
X117000000Y-102000000D02*
X117000000Y-101480000D01*
X117000000Y-101480000D02*
X117250000Y-101230000D01*
G04 #@! TO.N,MCU_CLEAR_N*
X102010000Y-78257397D02*
X102127603Y-78375000D01*
X98016942Y-90101942D02*
X99095000Y-91180000D01*
X98016942Y-86516942D02*
X98016942Y-90101942D01*
X111525000Y-69600000D02*
X111129442Y-69995558D01*
X103000000Y-72000000D02*
X102500000Y-72000000D01*
X112100000Y-69600000D02*
X111525000Y-69600000D01*
X102222389Y-72277611D02*
X102222389Y-74574639D01*
X102010000Y-77900000D02*
X102010000Y-78257397D01*
X102500000Y-72000000D02*
X102222389Y-72277611D01*
G04 #@! TO.N,ESP_EN*
X98079720Y-54230000D02*
X111730000Y-54230000D01*
X95525000Y-56784720D02*
X98079720Y-54230000D01*
X115400000Y-60900000D02*
X115000000Y-60500000D01*
X111730000Y-54230000D02*
X115000000Y-57500000D01*
X106323604Y-77255000D02*
X96000000Y-77255000D01*
X98620000Y-60890000D02*
X98620000Y-61250000D01*
X97170000Y-63160000D02*
X95525000Y-61515000D01*
X98620000Y-61710000D02*
X97170000Y-63160000D01*
X96000000Y-77255000D02*
X96000000Y-77075000D01*
X95054720Y-77075000D02*
X94425000Y-76445280D01*
X115400000Y-62100000D02*
X115400000Y-60900000D01*
X95525000Y-61515000D02*
X95525000Y-56784720D01*
X99610000Y-59900000D02*
X98620000Y-60890000D01*
X107281300Y-77146300D02*
X106432304Y-77146300D01*
X94425000Y-76445280D02*
X94425000Y-65905000D01*
X106432304Y-77146300D02*
X106323604Y-77255000D01*
X108000000Y-77865000D02*
X107281300Y-77146300D01*
X97170000Y-63160000D02*
X105130000Y-63160000D01*
X96000000Y-77075000D02*
X95054720Y-77075000D01*
X98620000Y-61250000D02*
X98620000Y-61710000D01*
X94425000Y-65905000D02*
X97170000Y-63160000D01*
G04 #@! TO.N,U5_Q*
X100500000Y-82500000D02*
X100500000Y-82275000D01*
X99195000Y-84455000D02*
X100161116Y-84455000D01*
X100161116Y-84455000D02*
X100461117Y-84154999D01*
X96650000Y-87000000D02*
X99195000Y-84455000D01*
X100500000Y-82275000D02*
X101100000Y-81675000D01*
X96140000Y-87510000D02*
X96650000Y-87000000D01*
X94800000Y-87510000D02*
X96140000Y-87510000D01*
G04 #@! TO.N,NFAULT*
X119949092Y-75000000D02*
X120500000Y-75000000D01*
X114600000Y-73900000D02*
X114600000Y-75337498D01*
X120450000Y-92975000D02*
X121500000Y-94025000D01*
X126608758Y-99391242D02*
X127395000Y-98605000D01*
X90210000Y-74000000D02*
X90110000Y-73900000D01*
X118825476Y-76123616D02*
X119949092Y-75000000D01*
X126108758Y-99391242D02*
X126608758Y-99391242D01*
X119500000Y-77200000D02*
X119452204Y-77200000D01*
X127395000Y-97435000D02*
X126570000Y-96610000D01*
X119452204Y-77200000D02*
X118825476Y-76573272D01*
X127395000Y-98605000D02*
X127395000Y-97435000D01*
X83250000Y-84600000D02*
X83250000Y-83700000D01*
X114437498Y-75500000D02*
X114437498Y-75437499D01*
X91500000Y-74000000D02*
X91700000Y-74000000D01*
X83050000Y-81425000D02*
X82625000Y-81000000D01*
X118825476Y-76573272D02*
X118825476Y-76123616D01*
X91500000Y-74000000D02*
X90210000Y-74000000D01*
X114600000Y-75337498D02*
X114437498Y-75500000D01*
X83250000Y-83700000D02*
X83050000Y-83500000D01*
X91700000Y-74000000D02*
X92900000Y-75200000D01*
X83050000Y-83500000D02*
X83050000Y-81425000D01*
G04 #@! TO.N,/SCH-06 Hall Tach/TACH_BIAS*
X122990000Y-84250000D02*
X122990000Y-84730000D01*
X120675000Y-84500000D02*
X122740000Y-84500000D01*
X122740000Y-84500000D02*
X122990000Y-84250000D01*
X125600000Y-86575000D02*
X126525000Y-87500000D01*
X124835000Y-86575000D02*
X125600000Y-86575000D01*
X122990000Y-84730000D02*
X124010000Y-85750000D01*
X124010000Y-85750000D02*
X124835000Y-86575000D01*
G04 #@! TO.N,/SCH-06 Hall Tach/RSCALE_MID*
X112740000Y-89940000D02*
X113050000Y-90250000D01*
X112740000Y-88500000D02*
X112740000Y-89940000D01*
G04 #@! TO.N,/SCH-06 Hall Tach/TACH_FB*
X113450000Y-100265948D02*
X113765948Y-99950000D01*
X113450000Y-100897884D02*
X113450000Y-100265948D01*
X110171188Y-97175000D02*
X109675000Y-97671188D01*
X113087884Y-101260000D02*
X113450000Y-100897884D01*
X109675000Y-97671188D02*
X109675000Y-98915000D01*
X112750000Y-101260000D02*
X112020000Y-101260000D01*
X109675000Y-98915000D02*
X111510000Y-100750000D01*
X113765948Y-99950000D02*
X114975000Y-99950000D01*
X112750000Y-101260000D02*
X113087884Y-101260000D01*
X112020000Y-101260000D02*
X111510000Y-100750000D01*
X110850000Y-97175000D02*
X110171188Y-97175000D01*
X114975000Y-99950000D02*
X115775000Y-100750000D01*
G04 #@! TO.N,WDO*
X109711765Y-74930000D02*
X111845226Y-77063461D01*
X106300000Y-89589860D02*
X106300000Y-88300000D01*
X109210720Y-92095000D02*
X108755000Y-91639280D01*
X108900000Y-74930000D02*
X109711765Y-74930000D01*
X116200000Y-75200000D02*
X116500000Y-75500000D01*
X110355000Y-92095000D02*
X109210720Y-92095000D01*
X106300000Y-88300000D02*
X105615000Y-87615000D01*
X108755000Y-91639280D02*
X108755000Y-90500000D01*
X106635140Y-89925000D02*
X106300000Y-89589860D01*
X108755000Y-90500000D02*
X108180000Y-89925000D01*
X103500000Y-86814280D02*
X103500000Y-85500000D01*
X108180000Y-89925000D02*
X107287500Y-89925000D01*
X107954999Y-75875001D02*
X108900000Y-74930000D01*
X104300720Y-87615000D02*
X103500000Y-86814280D01*
X106354721Y-75875001D02*
X107954999Y-75875001D01*
X99920000Y-86080000D02*
X100000000Y-86000000D01*
X110950000Y-92690000D02*
X110355000Y-92095000D01*
X107287500Y-89925000D02*
X106635140Y-89925000D01*
X101040474Y-84959526D02*
X100000000Y-86000000D01*
X99095000Y-86080000D02*
X99920000Y-86080000D01*
X102959526Y-84959526D02*
X101040474Y-84959526D01*
X105615000Y-87615000D02*
X104300720Y-87615000D01*
X103500000Y-85500000D02*
X102959526Y-84959526D01*
X116200000Y-73900000D02*
X116200000Y-75200000D01*
X111845226Y-77063461D02*
X111845226Y-78416259D01*
G04 #@! TO.N,/SCH-03 MCF Power Stage/MCF_CPH*
D91*
X82600000Y-88250000D02*
X81750000Y-88250000D01*
X79875000Y-87875000D02*
X79150000Y-87150000D01*
X81375000Y-87875000D02*
X79875000Y-87875000D01*
X79150000Y-87150000D02*
X79150000Y-86800000D01*
X81750000Y-88250000D02*
X81375000Y-87875000D01*
G04 #@! TO.N,/SCH-03 MCF Power Stage/MCF_CPL*
X81275000Y-87375000D02*
X81050000Y-87150000D01*
X81957106Y-87750000D02*
X81582106Y-87375000D01*
X81050000Y-87150000D02*
X81050000Y-86800000D01*
X82600000Y-87750000D02*
X81957106Y-87750000D01*
X81582106Y-87375000D02*
X81275000Y-87375000D01*
G04 #@! TO.N,DRVOFF*
D90*
X93910000Y-90000000D02*
X94800000Y-90890000D01*
X93000000Y-90000000D02*
X93910000Y-90000000D01*
X113000000Y-102500000D02*
X113500000Y-102500000D01*
X88181836Y-90723064D02*
X88181836Y-89456577D01*
X93050000Y-90050000D02*
X93050000Y-101413604D01*
X124935000Y-94975000D02*
X125300000Y-95340000D01*
X87400000Y-90750000D02*
X88154900Y-90750000D01*
X88154900Y-90750000D02*
X88904900Y-90000000D01*
X93735000Y-88941116D02*
X93735000Y-84714546D01*
X113500000Y-102500000D02*
X114000000Y-102000000D01*
X89600000Y-78225000D02*
X90375000Y-79000000D01*
X106863604Y-102500000D02*
X113000000Y-102500000D01*
X93735000Y-84714546D02*
X94349546Y-84100000D01*
X93050000Y-101413604D02*
X94686396Y-103050000D01*
X86000000Y-79000000D02*
X86000000Y-82000000D01*
X93910000Y-89116116D02*
X93735000Y-88941116D01*
X94686396Y-103050000D02*
X106313604Y-103050000D01*
X86000000Y-82000000D02*
X85191942Y-82808058D01*
X93000000Y-90000000D02*
X93050000Y-90050000D01*
X106313604Y-103050000D02*
X106863604Y-102500000D01*
X94349546Y-84100000D02*
X97137500Y-84100000D01*
X88904900Y-90000000D02*
X93000000Y-90000000D01*
X88154900Y-90750000D02*
X88181836Y-90723064D01*
X116000000Y-99500000D02*
X116500000Y-99500000D01*
X89600000Y-78200000D02*
X89600000Y-78225000D01*
X116500000Y-99500000D02*
X117029270Y-98970730D01*
X93910000Y-90000000D02*
X93910000Y-89116116D01*
X123350000Y-94975000D02*
X124935000Y-94975000D01*
G04 #@! TO.N,SPEED*
X69000000Y-92270100D02*
X77229900Y-100500000D01*
X117116369Y-102950000D02*
X120291369Y-106125000D01*
X92500000Y-83500000D02*
X92500000Y-81500000D01*
X69000000Y-92000000D02*
X69000000Y-92270100D01*
X123708631Y-106125000D02*
X127500000Y-102333631D01*
X106500000Y-103500000D02*
X107050000Y-102950000D01*
X120291369Y-106125000D02*
X123708631Y-106125000D01*
X107050000Y-102950000D02*
X117116369Y-102950000D01*
X93000000Y-84000000D02*
X92500000Y-83500000D01*
X96965000Y-75955000D02*
X95545000Y-75955000D01*
X69490000Y-92000000D02*
X69890000Y-92400000D01*
D94*
X87400000Y-87250000D02*
X88179793Y-87250000D01*
D90*
X91500000Y-100500000D02*
X94500000Y-103500000D01*
X69000000Y-92000000D02*
X69490000Y-92000000D01*
X94500000Y-103500000D02*
X106500000Y-103500000D01*
X77229900Y-100500000D02*
X91500000Y-100500000D01*
X127500000Y-102333631D02*
X127500000Y-100000000D01*
X97610000Y-76600000D02*
X96965000Y-75955000D01*
X95545000Y-75955000D02*
X95500000Y-76000000D01*
D94*
X88179793Y-87250000D02*
X88275000Y-87345207D01*
G04 #@! TO.N,FG*
D90*
X113250000Y-76250000D02*
X113800000Y-75700000D01*
X126875000Y-101041369D02*
X126875000Y-101974873D01*
X113250000Y-76250000D02*
X113500000Y-76000000D01*
D94*
X88199311Y-86750000D02*
X88499685Y-86449626D01*
D90*
X124475000Y-98641369D02*
X126875000Y-101041369D01*
X90210000Y-72500000D02*
X90110000Y-72600000D01*
X125300000Y-96610000D02*
X124475000Y-97435000D01*
X92900000Y-71575000D02*
X91500000Y-70175000D01*
X92900000Y-73050000D02*
X92900000Y-71575000D01*
X113800000Y-75700000D02*
X113800000Y-73900000D01*
X92350000Y-72500000D02*
X92900000Y-73050000D01*
X91500000Y-72500000D02*
X92350000Y-72500000D01*
X91500000Y-72500000D02*
X90210000Y-72500000D01*
X124475000Y-97435000D02*
X124475000Y-98641369D01*
D94*
X87400000Y-86750000D02*
X88199311Y-86750000D01*
G04 #@! TO.N,SOX*
D90*
X84000000Y-83136396D02*
X84000000Y-82363604D01*
X84925000Y-81438604D02*
X84925000Y-79186396D01*
X84250000Y-84600000D02*
X84250000Y-83386396D01*
X84000000Y-82363604D02*
X84925000Y-81438604D01*
X125380000Y-97880000D02*
X125500000Y-98000000D01*
X84250000Y-83386396D02*
X84000000Y-83136396D01*
X84925000Y-79186396D02*
X83472766Y-77734162D01*
X125300000Y-97880000D02*
X125380000Y-97880000D01*
X83472766Y-77734162D02*
X83366698Y-77734162D01*
G04 #@! TO.N,MCF_DVDD*
D91*
X82500000Y-84500000D02*
X82600000Y-84600000D01*
X82600000Y-85250000D02*
X82600000Y-84600000D01*
X74775000Y-85725000D02*
X74750000Y-85700000D01*
X75200000Y-85700000D02*
X76000000Y-86500000D01*
X78500000Y-84500000D02*
X78925000Y-84500000D01*
X78925000Y-84500000D02*
X79325000Y-84900000D01*
X74750000Y-85700000D02*
X75200000Y-85700000D01*
G04 #@! TO.N,/SCH-01 24V Input/PMOS_GATE*
X52790000Y-72000000D02*
X55400000Y-72000000D01*
X55400000Y-73300000D02*
X55400000Y-72000000D01*
X55950000Y-81450000D02*
X62300000Y-81450000D01*
X54500000Y-80000000D02*
X55950000Y-81450000D01*
X52090000Y-71300000D02*
X52790000Y-72000000D01*
X55400000Y-72000000D02*
X55400000Y-71310000D01*
X54500000Y-72000000D02*
X54500000Y-80000000D01*
X55400000Y-71310000D02*
X55410000Y-71300000D01*
G04 #@! TO.N,RAW24*
D95*
X70000000Y-73375000D02*
X68225000Y-75150000D01*
X52528248Y-68471752D02*
X55471752Y-68471752D01*
X55471752Y-68471752D02*
X56900000Y-69900000D01*
X52500000Y-68500000D02*
X52528248Y-68471752D01*
X68225000Y-75150000D02*
X64600000Y-75150000D01*
X64600000Y-81450000D02*
X64600000Y-75150000D01*
X70000000Y-72500000D02*
X70000000Y-73375000D01*
G04 #@! TO.N,SCL*
D90*
X92900000Y-79534280D02*
X94470720Y-81105000D01*
X90110000Y-76710000D02*
X90110000Y-76500000D01*
X91284052Y-84000000D02*
X91600000Y-83684052D01*
X86625000Y-82125000D02*
X86625000Y-80375000D01*
X96871188Y-79000000D02*
X98710000Y-79000000D01*
X88000000Y-84500000D02*
X88500000Y-84000000D01*
D94*
X88000000Y-85500000D02*
X88000000Y-85000000D01*
D90*
X70300000Y-57436396D02*
X86625000Y-73761396D01*
X96553792Y-79317396D02*
X96871188Y-79000000D01*
X70300000Y-56000000D02*
X70300000Y-57436396D01*
X91600000Y-82600000D02*
X91000000Y-82000000D01*
X86625000Y-73761396D02*
X86625000Y-80375000D01*
X91000000Y-82000000D02*
X91000000Y-77600000D01*
D94*
X87400000Y-85750000D02*
X87750000Y-85750000D01*
D90*
X88500000Y-84000000D02*
X91284052Y-84000000D01*
X94470720Y-81105000D02*
X95229280Y-81105000D01*
X98710000Y-79000000D02*
X99810000Y-77900000D01*
X91000000Y-77600000D02*
X90110000Y-76710000D01*
X95500000Y-79317396D02*
X96553792Y-79317396D01*
X88000000Y-85000000D02*
X88000000Y-84500000D01*
X95500000Y-80834280D02*
X95500000Y-79317396D01*
X92900000Y-79500000D02*
X92900000Y-79534280D01*
X88500000Y-84000000D02*
X86625000Y-82125000D01*
D94*
X87750000Y-85750000D02*
X88000000Y-85500000D01*
D90*
X95229280Y-81105000D02*
X95500000Y-80834280D01*
X91600000Y-83684052D02*
X91600000Y-82600000D01*
X92900000Y-79500000D02*
X91000000Y-77600000D01*
X87400000Y-85750000D02*
X87749740Y-85750000D01*
G04 #@! TO.N,UART_TX*
X106730000Y-77865000D02*
X106435879Y-77865000D01*
X106435879Y-77865000D02*
X106430001Y-77870878D01*
X117800000Y-73900000D02*
X117800000Y-75200000D01*
X117800000Y-75200000D02*
X117500000Y-75500000D01*
G04 #@! TO.N,UART_RX*
X117000000Y-72500000D02*
X117000000Y-73900000D01*
X108000000Y-79135000D02*
X108000000Y-79500000D01*
G04 #@! TO.N,/SCH-05 Permission + Watchdog/SET1*
X107523170Y-91476830D02*
X107287500Y-91241160D01*
X111073955Y-90927422D02*
X111073955Y-90086045D01*
X107287500Y-91241160D02*
X107287500Y-91225000D01*
X111073955Y-90086045D02*
X111150000Y-90010000D01*
G04 #@! TO.N,/SCH-05 Permission + Watchdog/U5_CLK*
X95950000Y-80557584D02*
X95950000Y-81020676D01*
X94500000Y-81555000D02*
X94500000Y-81718699D01*
X94500000Y-81718699D02*
X94511301Y-81730000D01*
X93565000Y-81555000D02*
X93500000Y-81490000D01*
X95415676Y-81555000D02*
X94500000Y-81555000D01*
X96782584Y-79725000D02*
X95950000Y-80557584D01*
X97300000Y-79725000D02*
X96782584Y-79725000D01*
X95950000Y-81020676D02*
X95415676Y-81555000D01*
X94500000Y-81555000D02*
X93565000Y-81555000D01*
G04 #@! TO.N,/SCH-07 Connectors/RAW24_IN*
D95*
X56500000Y-79000000D02*
X56500000Y-76500000D01*
X60500000Y-72500000D02*
X67200000Y-72500000D01*
X56500000Y-76500000D02*
X60500000Y-72500000D01*
G04 #@! TO.N,OVERSPEED_N*
D90*
X118240000Y-92500000D02*
X118240000Y-93240000D01*
X118000000Y-76740000D02*
X118750000Y-77490000D01*
X117970001Y-92500000D02*
X117075000Y-91604999D01*
X118000000Y-87500000D02*
X118000000Y-89990000D01*
X118500000Y-87000000D02*
X118000000Y-87500000D01*
X118750000Y-77490000D02*
X118750000Y-79115000D01*
X118240000Y-92500000D02*
X117970001Y-92500000D01*
X117075000Y-90915000D02*
X117750000Y-90240000D01*
X118240000Y-93240000D02*
X118500000Y-93500000D01*
X109758884Y-82525000D02*
X109741942Y-82541942D01*
X110500000Y-82525000D02*
X109758884Y-82525000D01*
X111508923Y-97825000D02*
X111509604Y-97825681D01*
X117075000Y-91604999D02*
X117075000Y-90915000D01*
X110850000Y-97825000D02*
X111508923Y-97825000D01*
X118000000Y-89990000D02*
X117750000Y-90240000D01*
G04 #@! TO.N,/SCH-05 Permission + Watchdog/SW_CLR*
X96210000Y-95290000D02*
X96500000Y-95000000D01*
X94800000Y-95290000D02*
X96210000Y-95290000D01*
X96220000Y-95280000D02*
X96220000Y-101650000D01*
X96220000Y-101650000D02*
X104180000Y-101650000D01*
X96500000Y-95000000D02*
X96220000Y-95280000D01*
G04 #@! TO.N,/SCH-05 Permission + Watchdog/Q2_GATE*
X95500000Y-86000000D02*
X95290000Y-86000000D01*
X94800000Y-89710000D02*
X95507619Y-89002381D01*
X95290000Y-86000000D02*
X94800000Y-86490000D01*
X95507619Y-89002381D02*
X95507619Y-88135000D01*
G04 #@! TO.N,USB_DP*
D94*
X104500000Y-55601505D02*
X104513909Y-55587596D01*
D91*
X106210000Y-59900000D02*
X106905000Y-60595000D01*
X107000000Y-59500000D02*
X106905000Y-59595000D01*
X108550000Y-62240000D02*
X106905000Y-60595000D01*
D94*
X103250000Y-56072590D02*
X103658681Y-55663909D01*
X104250000Y-55913909D02*
X104500000Y-55663909D01*
D91*
X108550000Y-62425000D02*
X108550000Y-62240000D01*
D94*
X103658681Y-55663909D02*
X104500000Y-55663909D01*
D91*
X106905000Y-59595000D02*
X106905000Y-60595000D01*
D94*
X103250000Y-56680000D02*
X103250000Y-56072590D01*
X104250000Y-56680000D02*
X104250000Y-55913909D01*
X104500000Y-55663909D02*
X104500000Y-55601505D01*
G04 #@! TO.N,USB_DM*
X104357410Y-57680000D02*
X103750000Y-57680000D01*
D91*
X106709620Y-61209620D02*
X105290380Y-61209620D01*
X109250000Y-62425000D02*
X109250000Y-62574999D01*
D94*
X104750000Y-57287410D02*
X104357410Y-57680000D01*
X104750000Y-56680000D02*
X104750000Y-57287410D01*
D91*
X104630000Y-60520000D02*
X104000000Y-60520000D01*
D94*
X104010000Y-60510000D02*
X104000000Y-60520000D01*
X102400000Y-57951076D02*
X102400000Y-60248924D01*
X102400000Y-60248924D02*
X102671076Y-60520000D01*
D91*
X109250000Y-62574999D02*
X108899999Y-62925000D01*
X108000000Y-62925000D02*
X108000000Y-62500000D01*
D94*
X103750000Y-56680000D02*
X103750000Y-57680000D01*
D91*
X108000000Y-62500000D02*
X106709620Y-61209620D01*
D94*
X102671076Y-60520000D02*
X104000000Y-60520000D01*
D91*
X104630000Y-60549239D02*
X104630000Y-60520000D01*
X104010000Y-59900000D02*
X104010000Y-60510000D01*
X108899999Y-62925000D02*
X108000000Y-62925000D01*
D94*
X103750000Y-57680000D02*
X102671076Y-57680000D01*
X102671076Y-57680000D02*
X102400000Y-57951076D01*
D91*
X105290380Y-61209620D02*
X104630000Y-60549239D01*
G04 #@! TO.N,/SCH-06 Hall Tach/VTACH_RAW*
D90*
X114425000Y-84825001D02*
X114425000Y-85775000D01*
X89500000Y-90950000D02*
X92000000Y-90950000D01*
X93285000Y-87325000D02*
X93285000Y-89375000D01*
X114425000Y-85775000D02*
X113250000Y-86950000D01*
X89500000Y-87450000D02*
X89500000Y-86720207D01*
X114750001Y-84500000D02*
X114425000Y-84825001D01*
X115725000Y-84500000D02*
X114750001Y-84500000D01*
X115725000Y-83230000D02*
X115725000Y-84500000D01*
X113250000Y-87990000D02*
X113760000Y-88500000D01*
X112500000Y-87500000D02*
X112700000Y-87500000D01*
X112700000Y-87500000D02*
X113250000Y-86950000D01*
X113250000Y-86950000D02*
X113250000Y-87990000D01*
X92000000Y-91950000D02*
X89500000Y-94450000D01*
X92000000Y-86720207D02*
X92680207Y-86720207D01*
X92000000Y-90950000D02*
X92000000Y-91950000D01*
X92680207Y-86720207D02*
X93285000Y-87325000D01*
G04 #@! TO.N,/SCH-03 MCF Power Stage/MCF_CP*
D91*
X82600000Y-88750000D02*
X80925000Y-88750000D01*
X80925000Y-88750000D02*
X80875000Y-88700000D01*
G04 #@! TO.N,MCF_EXT_WD*
D90*
X104260000Y-81240000D02*
X104000000Y-81500000D01*
X87400000Y-84225000D02*
X87500000Y-84125000D01*
X87400000Y-85250000D02*
X87400000Y-84225000D01*
X76000000Y-88000000D02*
X74950000Y-88000000D01*
X104600000Y-81240000D02*
X104260000Y-81240000D01*
X74950000Y-88000000D02*
X74750000Y-88200000D01*
G04 #@! TO.N,/SCH-07 Connectors/CC2*
D91*
X102250000Y-57316262D02*
X101961262Y-57605000D01*
X101485000Y-57605000D02*
X100790000Y-58300000D01*
X101961262Y-57605000D02*
X101485000Y-57605000D01*
X102250000Y-56680000D02*
X102250000Y-57316262D01*
G04 #@! TO.N,/SCH-03 MCF Power Stage/MCF_BUCK*
D93*
X78250000Y-93022793D02*
X78250000Y-93000000D01*
D91*
X82600000Y-86250000D02*
X82110618Y-86250000D01*
D93*
X83025000Y-95150000D02*
X80377207Y-95150000D01*
D91*
X82110618Y-86250000D02*
X82098960Y-86238342D01*
D93*
X77750000Y-92500000D02*
X78250000Y-93000000D01*
D91*
X82098960Y-86238342D02*
X81854717Y-86238342D01*
D93*
X80377207Y-95150000D02*
X78250000Y-93022793D01*
X77000000Y-92500000D02*
X77750000Y-92500000D01*
D91*
X81854717Y-86238342D02*
X81760515Y-86144140D01*
G04 #@! TO.N,MCF_AVDD*
D90*
X88508883Y-83124999D02*
X89199999Y-83124999D01*
X89275000Y-83200000D02*
X89275000Y-80675000D01*
X90696833Y-88586369D02*
X90696833Y-88096833D01*
X93763058Y-90873058D02*
X93763058Y-90736942D01*
X89199999Y-83124999D02*
X89275000Y-83200000D01*
X89275000Y-80675000D02*
X89600000Y-80350000D01*
X94800000Y-91910000D02*
X93763058Y-90873058D01*
D94*
X87831264Y-87750000D02*
X88331264Y-88250000D01*
D90*
X90550000Y-87950000D02*
X90550000Y-85218977D01*
X90696833Y-88096833D02*
X90550000Y-87950000D01*
D94*
X88331264Y-88250000D02*
X90250000Y-88250000D01*
D90*
X90550000Y-85218977D02*
X90693977Y-85075000D01*
D94*
X87400000Y-87750000D02*
X87831264Y-87750000D01*
D90*
X90250000Y-88250000D02*
X90550000Y-87950000D01*
G04 #@! TO.N,OS_LOCK_OK*
X109875000Y-83800000D02*
X110500000Y-83175000D01*
X107700000Y-83800000D02*
X109875000Y-83800000D01*
X106500000Y-85000000D02*
X107700000Y-83800000D01*
X100000000Y-88500000D02*
X99225000Y-88500000D01*
X99225000Y-88500000D02*
X99095000Y-88630000D01*
G04 #@! TO.N,/SCH-06 Hall Tach/TACH_CP1*
X114535000Y-81960000D02*
X113470000Y-83025000D01*
X115725000Y-81960000D02*
X114535000Y-81960000D01*
G04 #@! TO.N,VTACH*
X112740000Y-80000000D02*
X112740000Y-80240000D01*
X116512459Y-77150000D02*
X117065114Y-77702655D01*
X112740000Y-80240000D02*
X113000000Y-80500000D01*
X118125000Y-85500000D02*
X118230000Y-85500000D01*
D94*
X120675000Y-85770000D02*
X121649999Y-85770000D01*
D90*
X115000000Y-77150000D02*
X116512459Y-77150000D01*
D94*
X122130000Y-86250001D02*
X122130000Y-87390000D01*
D90*
X115725000Y-85770000D02*
X120675000Y-85770000D01*
D94*
X121649999Y-85770000D02*
X122130000Y-86250001D01*
X122130000Y-87390000D02*
X122750000Y-88010000D01*
G04 #@! TO.N,/SCH-03 MCF Power Stage/BUCK_SW*
D93*
X74250000Y-92500000D02*
X73750000Y-93000000D01*
D91*
X81850431Y-86885527D02*
X81850431Y-86838342D01*
X82600000Y-87250000D02*
X82214904Y-87250000D01*
D93*
X75000000Y-92500000D02*
X74250000Y-92500000D01*
D91*
X82214904Y-87250000D02*
X81850431Y-86885527D01*
G04 #@! TO.N,VREF*
D90*
X119250000Y-91260000D02*
X120210000Y-90300000D01*
X125037363Y-90500000D02*
X124531789Y-89994426D01*
X125240000Y-90500000D02*
X126105000Y-89635000D01*
X119250000Y-91260000D02*
X119250000Y-92490000D01*
X125240000Y-90500000D02*
X125037363Y-90500000D01*
X126105000Y-89635000D02*
X126566490Y-89635000D01*
X127500000Y-88701490D02*
X127500000Y-80250000D01*
X119250000Y-92490000D02*
X119260000Y-92500000D01*
X126566490Y-89635000D02*
X127500000Y-88701490D01*
X120210000Y-90300000D02*
X121112500Y-90300000D01*
X127500000Y-80250000D02*
X124500000Y-77250000D01*
G04 #@! TO.N,/SCH-07 Connectors/CC1*
D91*
X99327918Y-54705000D02*
X98590000Y-55442918D01*
X98590000Y-55442918D02*
X98590000Y-58300000D01*
X105250000Y-56680000D02*
X105250000Y-55921119D01*
X105250000Y-55921119D02*
X105163909Y-55835028D01*
X105163909Y-55163909D02*
X104705000Y-54705000D01*
X104705000Y-54705000D02*
X99327918Y-54705000D01*
X105163909Y-55835028D02*
X105163909Y-55163909D01*
G04 #@! TO.N,/SCH-04 ESP32-C6 Supervisor/ESP_USB_DP*
D90*
X112899997Y-68000000D02*
X113000000Y-68100003D01*
X112100000Y-68000000D02*
X112899997Y-68000000D01*
D91*
X105190000Y-59900000D02*
X105190000Y-60190000D01*
X105190000Y-60190000D02*
X105500000Y-60500000D01*
G04 #@! TO.N,WD_MR*
D90*
X106300000Y-90550001D02*
X106300000Y-91940000D01*
X106300000Y-92250000D02*
X105350000Y-93200000D01*
X105674999Y-89925000D02*
X106300000Y-90550001D01*
X105012500Y-89925000D02*
X105674999Y-89925000D01*
X106300000Y-91940000D02*
X107050000Y-92690000D01*
X106300000Y-91940000D02*
X106300000Y-92250000D01*
G04 #@! TO.N,/SCH-05 Permission + Watchdog/SET0*
X110502980Y-91487771D02*
X109577771Y-91487771D01*
X109577771Y-91487771D02*
X109400000Y-91310000D01*
X105012500Y-89207780D02*
X105610140Y-88610140D01*
X105012500Y-89275000D02*
X105012500Y-89207780D01*
G04 #@! TO.N,/SCH-04 ESP32-C6 Supervisor/ESP_SCL*
X112601646Y-64000000D02*
X112894684Y-64293038D01*
X112100000Y-64000000D02*
X112601646Y-64000000D01*
X102847389Y-74268728D02*
X102847389Y-75786495D01*
X98790000Y-77900000D02*
X98600000Y-77900000D01*
X105306117Y-71810000D02*
X102847389Y-74268728D01*
X98600000Y-77900000D02*
X98500000Y-78000000D01*
G04 #@! TO.N,/SCH-03 MCF Power Stage/MCF_BRAKE*
X74025090Y-76641637D02*
X73641637Y-76641637D01*
X84500000Y-83000000D02*
X84500000Y-82500000D01*
X85750000Y-84600000D02*
X85750000Y-84250000D01*
X85375000Y-79000000D02*
X82250000Y-75875000D01*
X85750000Y-84250000D02*
X84500000Y-83000000D01*
X69890000Y-80393273D02*
X69890000Y-89000000D01*
X74791727Y-75875000D02*
X74025090Y-76641637D01*
X85375000Y-81625000D02*
X85375000Y-79000000D01*
X73641637Y-76641637D02*
X69890000Y-80393273D01*
X82250000Y-75875000D02*
X74791727Y-75875000D01*
X84500000Y-82500000D02*
X85375000Y-81625000D01*
G04 #@! TO.N,/SCH-04 ESP32-C6 Supervisor/ESP_GPIO8*
X111025000Y-67675000D02*
X111025000Y-68811396D01*
X106686828Y-62371448D02*
X106686828Y-62813175D01*
X110500000Y-70250000D02*
X111450000Y-71200000D01*
X111200000Y-67500000D02*
X111025000Y-67675000D01*
X110500000Y-69336396D02*
X110500000Y-70250000D01*
X111025000Y-68811396D02*
X110500000Y-69336396D01*
X103234656Y-61684620D02*
X106000000Y-61684620D01*
X106000000Y-61684620D02*
X106686828Y-62371448D01*
X111450000Y-71200000D02*
X112100000Y-71200000D01*
X101810000Y-60259964D02*
X103234656Y-61684620D01*
X101810000Y-59900000D02*
X101810000Y-60259964D01*
G04 #@! TO.N,/SCH-04 ESP32-C6 Supervisor/ESP_USB_DM*
D91*
X112800000Y-67200000D02*
X113000000Y-67000000D01*
X103809332Y-59080668D02*
X102990000Y-59900000D01*
X112100000Y-67200000D02*
X112800000Y-67200000D01*
X104387814Y-59080668D02*
X103809332Y-59080668D01*
G04 #@! TO.N,/SCH-05 Permission + Watchdog/U6_PRE_BUF*
D90*
X111317500Y-85600000D02*
X111317500Y-85317500D01*
X111317500Y-85317500D02*
X111000000Y-85000000D01*
X109000000Y-82400000D02*
X109000000Y-83146073D01*
X109525000Y-81875000D02*
X109000000Y-82400000D01*
X110500000Y-81875000D02*
X109525000Y-81875000D01*
G04 #@! TO.N,PHASE_W*
D91*
X86449999Y-91599999D02*
X86449999Y-91949999D01*
X87000000Y-92500000D02*
X87000000Y-91650000D01*
X87000000Y-91650000D02*
X86750000Y-91400000D01*
X87000000Y-92500000D02*
X86449999Y-91949999D01*
X86250000Y-91400000D02*
X86449999Y-91599999D01*
G04 #@! TO.N,PHASE_V*
X85250000Y-92250000D02*
X85250000Y-91400000D01*
X85000000Y-92500000D02*
X85250000Y-92250000D01*
X85000000Y-92500000D02*
X84750000Y-92250000D01*
X84750000Y-92250000D02*
X84750000Y-91400000D01*
G04 #@! TO.N,PHASE_U*
X83000000Y-91650000D02*
X83250000Y-91400000D01*
X83750000Y-91400000D02*
X83550001Y-91599999D01*
X83000000Y-92500000D02*
X83550001Y-91949999D01*
X83000000Y-92500000D02*
X83000000Y-91650000D01*
X83550001Y-91599999D02*
X83550001Y-91949999D01*
G04 #@! TO.N,/SCH-04 ESP32-C6 Supervisor/ESP_DIR*
D90*
X98000000Y-72771296D02*
X104821296Y-65950000D01*
X104821296Y-65950000D02*
X109856496Y-65950000D01*
X111025000Y-64781496D02*
X111025000Y-60591116D01*
X111741116Y-59875000D02*
X115875000Y-59875000D01*
X98790000Y-74557768D02*
X98000000Y-73767768D01*
X111025000Y-60591116D02*
X111741116Y-59875000D01*
X109856496Y-65950000D02*
X111025000Y-64781496D01*
X117000000Y-61000000D02*
X117000000Y-62100000D01*
X98000000Y-73767768D02*
X98000000Y-72771296D01*
X98790000Y-76600000D02*
X98790000Y-74557768D01*
X115875000Y-59875000D02*
X117000000Y-61000000D01*
G04 #@! TO.N,DIR*
X100000000Y-75000000D02*
X99810000Y-75190000D01*
X86250000Y-83750000D02*
X86500000Y-83500000D01*
X86250000Y-84600000D02*
X86250000Y-83750000D01*
X99810000Y-75190000D02*
X99810000Y-76600000D01*
X69000000Y-90500000D02*
X69690000Y-90500000D01*
X69690000Y-90500000D02*
X69890000Y-90700000D01*
G04 #@! TO.N,/SCH-05 Permission + Watchdog/WD_EN*
X107287500Y-90575000D02*
X108075000Y-90575000D01*
X108305000Y-92645000D02*
X108350000Y-92690000D01*
X108305000Y-90805000D02*
X108305000Y-92645000D01*
X108075000Y-90575000D02*
X108305000Y-90805000D01*
G04 #@! TO.N,/SCH-04 ESP32-C6 Supervisor/ESP_SPEED*
X94875000Y-76258884D02*
X94875000Y-75259900D01*
X94875000Y-75259900D02*
X104634900Y-65500000D01*
X110575000Y-60404720D02*
X111554720Y-59425000D01*
X96590000Y-76600000D02*
X96565000Y-76625000D01*
X96565000Y-76625000D02*
X95241116Y-76625000D01*
X109670100Y-65500000D02*
X110575000Y-64595100D01*
X104634900Y-65500000D02*
X109670100Y-65500000D01*
X116061396Y-59425000D02*
X117800000Y-61163604D01*
X95241116Y-76625000D02*
X94875000Y-76258884D01*
X111554720Y-59425000D02*
X116061396Y-59425000D01*
X117800000Y-61163604D02*
X117800000Y-62100000D01*
X110575000Y-64595100D02*
X110575000Y-60404720D01*
G04 #@! TO.N,ALARM*
X112899994Y-68800000D02*
X113000000Y-68900006D01*
X83750000Y-84600000D02*
X83750000Y-83522792D01*
X83750000Y-83522792D02*
X83500000Y-83272792D01*
X112100000Y-68800000D02*
X112899994Y-68800000D01*
X83500000Y-83272792D02*
X83500000Y-81018474D01*
X83500000Y-81018474D02*
X83701083Y-80817391D01*
G04 #@! TO.N,ARM_PULSE*
X93635000Y-82375000D02*
X93500000Y-82510000D01*
X110700000Y-72800000D02*
X110500000Y-73000000D01*
X103001302Y-77880000D02*
X103001302Y-78498698D01*
X99500000Y-81000000D02*
X98125000Y-82375000D01*
X112100000Y-72800000D02*
X110700000Y-72800000D01*
X100500000Y-79000000D02*
X99500000Y-80000000D01*
X98125000Y-82375000D02*
X93635000Y-82375000D01*
X99500000Y-80000000D02*
X99500000Y-81000000D01*
X103001302Y-78498698D02*
X102500000Y-79000000D01*
X106260140Y-73260140D02*
X107000000Y-74000000D01*
X102500000Y-79000000D02*
X100500000Y-79000000D01*
X107000000Y-74000000D02*
X107000000Y-75000000D01*
G04 #@! TD*
M02*
