G04 #@! TF.GenerationSoftware,KiCad,Pcbnew,10.0.5*
G04 #@! TF.CreationDate,2026-08-31T01:13:03-07:00*
G04 #@! TF.ProjectId,pcb-01-v2,7063622d-3031-42d7-9632-2e6b69636164,V2*
G04 #@! TF.SameCoordinates,Original*
G04 #@! TF.FileFunction,Soldermask,Bot*
G04 #@! TF.FilePolarity,Negative*
%FSLAX46Y46*%
G04 Gerber Fmt 4.6, Leading zero omitted, Abs format (unit mm)*
G04 Created by KiCad (PCBNEW 10.0.5) date 2026-08-31 01:13:03*
%MOMM*%
%LPD*%
G01*
G04 APERTURE LIST*
G04 Aperture macros list*
%AMRoundRect*
0 Rectangle with rounded corners*
0 $1 Rounding radius*
0 $2 $3 $4 $5 $6 $7 $8 $9 X,Y pos of 4 corners*
0 Add a 4 corners polygon primitive as box body*
4,1,4,$2,$3,$4,$5,$6,$7,$8,$9,$2,$3,0*
0 Add four circle primitives for the rounded corners*
1,1,$1+$1,$2,$3*
1,1,$1+$1,$4,$5*
1,1,$1+$1,$6,$7*
1,1,$1+$1,$8,$9*
0 Add four rect primitives between the rounded corners*
20,1,$1+$1,$2,$3,$4,$5,0*
20,1,$1+$1,$4,$5,$6,$7,0*
20,1,$1+$1,$6,$7,$8,$9,0*
20,1,$1+$1,$8,$9,$2,$3,0*%
G04 Aperture macros list end*
%ADD10C,2.400000*%
%ADD11RoundRect,0.250000X-0.750000X-0.750000X0.750000X-0.750000X0.750000X0.750000X-0.750000X0.750000X0*%
%ADD12C,2.000000*%
%ADD13C,3.200000*%
%ADD14C,3.000000*%
%ADD15RoundRect,0.250001X0.499999X-0.499999X0.499999X0.499999X-0.499999X0.499999X-0.499999X-0.499999X0*%
%ADD16C,1.500000*%
%ADD17RoundRect,0.250000X-0.350000X-0.625000X0.350000X-0.625000X0.350000X0.625000X-0.350000X0.625000X0*%
%ADD18O,1.200000X1.750000*%
%ADD19C,0.650000*%
%ADD20O,1.000000X2.100000*%
%ADD21O,1.000000X1.800000*%
%ADD22RoundRect,0.250001X0.499999X0.759999X-0.499999X0.759999X-0.499999X-0.759999X0.499999X-0.759999X0*%
%ADD23O,1.500000X2.020000*%
G04 APERTURE END LIST*
D10*
G04 #@! TO.C,TP18*
X70000000Y-111500000D03*
G04 #@! TD*
D11*
G04 #@! TO.C,C2*
X71500000Y-64500000D03*
D12*
X76500000Y-64500000D03*
G04 #@! TD*
D10*
G04 #@! TO.C,TP10*
X61500000Y-53000000D03*
G04 #@! TD*
G04 #@! TO.C,TP15*
X136000000Y-94000000D03*
G04 #@! TD*
G04 #@! TO.C,TP20*
X77000000Y-111500000D03*
G04 #@! TD*
G04 #@! TO.C,TP4*
X52000000Y-89000000D03*
G04 #@! TD*
G04 #@! TO.C,TP5*
X52000000Y-93000000D03*
G04 #@! TD*
G04 #@! TO.C,TP7*
X62000000Y-111500000D03*
G04 #@! TD*
D13*
G04 #@! TO.C,H1*
X55000000Y-55000000D03*
G04 #@! TD*
D11*
G04 #@! TO.C,C1*
X58500000Y-64500000D03*
D12*
X63500000Y-64500000D03*
G04 #@! TD*
D10*
G04 #@! TO.C,TP21*
X136000000Y-98000000D03*
G04 #@! TD*
G04 #@! TO.C,TP14*
X77000000Y-53000000D03*
G04 #@! TD*
G04 #@! TO.C,TP12*
X69000000Y-53000000D03*
G04 #@! TD*
G04 #@! TO.C,TP25*
X79000000Y-73500000D03*
G04 #@! TD*
G04 #@! TO.C,TP29*
X58500000Y-92000000D03*
G04 #@! TD*
G04 #@! TO.C,TP31*
X98000000Y-53000000D03*
G04 #@! TD*
G04 #@! TO.C,TP9*
X85000000Y-53000000D03*
G04 #@! TD*
G04 #@! TO.C,TP17*
X69500000Y-106500000D03*
G04 #@! TD*
G04 #@! TO.C,TP26*
X75000000Y-73500000D03*
G04 #@! TD*
G04 #@! TO.C,TP28*
X58500000Y-96000000D03*
G04 #@! TD*
D14*
G04 #@! TO.C,J1*
X52180000Y-77000000D03*
D15*
X56500000Y-77000000D03*
D16*
X59500000Y-77000000D03*
G04 #@! TD*
D13*
G04 #@! TO.C,H4*
X133000000Y-109000000D03*
G04 #@! TD*
D10*
G04 #@! TO.C,TP30*
X94000000Y-53000000D03*
G04 #@! TD*
G04 #@! TO.C,TP13*
X73000000Y-53000000D03*
G04 #@! TD*
G04 #@! TO.C,TP6*
X136000000Y-88000000D03*
G04 #@! TD*
G04 #@! TO.C,TP11*
X65000000Y-53000000D03*
G04 #@! TD*
G04 #@! TO.C,TP27*
X52000000Y-97000000D03*
G04 #@! TD*
G04 #@! TO.C,TP2*
X52000000Y-66000000D03*
G04 #@! TD*
D17*
G04 #@! TO.C,J3*
X118000000Y-110500000D03*
D18*
X120000000Y-110500000D03*
X122000000Y-110500000D03*
G04 #@! TD*
D19*
G04 #@! TO.C,J4*
X114890000Y-56280000D03*
X109110000Y-56280000D03*
D20*
X116320000Y-56780000D03*
D21*
X116320000Y-52600000D03*
D20*
X107680000Y-56780000D03*
D21*
X107680000Y-52600000D03*
G04 #@! TD*
D10*
G04 #@! TO.C,TP19*
X74000000Y-111500000D03*
G04 #@! TD*
G04 #@! TO.C,TP23*
X127000000Y-111500000D03*
G04 #@! TD*
D14*
G04 #@! TO.C,J2*
X85500000Y-108820000D03*
D22*
X88500000Y-104500000D03*
D23*
X85500000Y-104500000D03*
X82500000Y-104500000D03*
G04 #@! TD*
D10*
G04 #@! TO.C,TP8*
X66000000Y-111500000D03*
G04 #@! TD*
D13*
G04 #@! TO.C,H3*
X55000000Y-109000000D03*
G04 #@! TD*
D10*
G04 #@! TO.C,TP22*
X136000000Y-102000000D03*
G04 #@! TD*
G04 #@! TO.C,TP16*
X81000000Y-53000000D03*
G04 #@! TD*
G04 #@! TO.C,TP3*
X52000000Y-85000000D03*
G04 #@! TD*
G04 #@! TO.C,TP24*
X83000000Y-73500000D03*
G04 #@! TD*
G04 #@! TO.C,TP1*
X52000000Y-62000000D03*
G04 #@! TD*
D13*
G04 #@! TO.C,H2*
X133000000Y-55000000D03*
G04 #@! TD*
M02*
