G04 #@! TF.GenerationSoftware,KiCad,Pcbnew,10.0.5*
G04 #@! TF.CreationDate,2026-08-31T01:13:03-07:00*
G04 #@! TF.ProjectId,pcb-01-v2,7063622d-3031-42d7-9632-2e6b69636164,V2*
G04 #@! TF.SameCoordinates,Original*
G04 #@! TF.FileFunction,Legend,Bot*
G04 #@! TF.FilePolarity,Positive*
%FSLAX46Y46*%
G04 Gerber Fmt 4.6, Leading zero omitted, Abs format (unit mm)*
G04 Created by KiCad (PCBNEW 10.0.5) date 2026-08-31 01:13:03*
%MOMM*%
%LPD*%
G01*
G04 APERTURE LIST*
G04 Aperture macros list*
%AMRoundRect*
0 Rectangle with rounded corners*
0 $1 Rounding radius*
0 $2 $3 $4 $5 $6 $7 $8 $9 X,Y pos of 4 corners*
0 Add a 4 corners polygon primitive as box body*
4,1,4,$2,$3,$4,$5,$6,$7,$8,$9,$2,$3,0*
0 Add four circle primitives for the rounded corners*
1,1,$1+$1,$2,$3*
1,1,$1+$1,$4,$5*
1,1,$1+$1,$6,$7*
1,1,$1+$1,$8,$9*
0 Add four rect primitives between the rounded corners*
20,1,$1+$1,$2,$3,$4,$5,0*
20,1,$1+$1,$4,$5,$6,$7,0*
20,1,$1+$1,$6,$7,$8,$9,0*
20,1,$1+$1,$8,$9,$2,$3,0*%
G04 Aperture macros list end*
%ADD10C,0.200000*%
%ADD11C,0.150000*%
%ADD12C,2.400000*%
%ADD13RoundRect,0.250000X-0.750000X-0.750000X0.750000X-0.750000X0.750000X0.750000X-0.750000X0.750000X0*%
%ADD14C,2.000000*%
%ADD15C,3.200000*%
%ADD16C,3.000000*%
%ADD17RoundRect,0.250001X0.499999X-0.499999X0.499999X0.499999X-0.499999X0.499999X-0.499999X-0.499999X0*%
%ADD18C,1.500000*%
%ADD19RoundRect,0.250000X-0.350000X-0.625000X0.350000X-0.625000X0.350000X0.625000X-0.350000X0.625000X0*%
%ADD20O,1.200000X1.750000*%
%ADD21C,0.650000*%
%ADD22O,1.000000X2.100000*%
%ADD23O,1.000000X1.800000*%
%ADD24RoundRect,0.250001X0.499999X0.759999X-0.499999X0.759999X-0.499999X-0.759999X0.499999X-0.759999X0*%
%ADD25O,1.500000X2.020000*%
G04 APERTURE END LIST*
D10*
X76637669Y-57739294D02*
X77878042Y-57536308D01*
X76833284Y-58805900D02*
X76637669Y-57739294D01*
X77019402Y-55086644D02*
X78040917Y-55450540D01*
X77596522Y-56626227D02*
X77019402Y-55086644D01*
X77878042Y-57536308D02*
X76833284Y-58805900D01*
X78450000Y-57000000D02*
G75*
G02*
X77550000Y-57000000I-450000J0D01*
G01*
X77550000Y-57000000D02*
G75*
G02*
X78450000Y-57000000I450000J0D01*
G01*
X78040917Y-55450540D02*
X77596522Y-56626227D01*
X78525435Y-56837463D02*
X80147313Y-57107455D01*
X79321413Y-57810165D02*
X78525435Y-56837463D01*
X80147313Y-57107455D02*
X79321413Y-57810165D01*
D11*
X96819047Y-80562295D02*
X96361904Y-80562295D01*
X96590476Y-81362295D02*
X96590476Y-80562295D01*
X96095237Y-81362295D02*
X96095237Y-80562295D01*
X96095237Y-80562295D02*
X95790475Y-80562295D01*
X95790475Y-80562295D02*
X95714285Y-80600390D01*
X95714285Y-80600390D02*
X95676190Y-80638485D01*
X95676190Y-80638485D02*
X95638094Y-80714676D01*
X95638094Y-80714676D02*
X95638094Y-80828961D01*
X95638094Y-80828961D02*
X95676190Y-80905152D01*
X95676190Y-80905152D02*
X95714285Y-80943247D01*
X95714285Y-80943247D02*
X95790475Y-80981342D01*
X95790475Y-80981342D02*
X96095237Y-80981342D01*
X94876190Y-81362295D02*
X95333333Y-81362295D01*
X95104761Y-81362295D02*
X95104761Y-80562295D01*
X95104761Y-80562295D02*
X95180952Y-80676580D01*
X95180952Y-80676580D02*
X95257142Y-80752771D01*
X95257142Y-80752771D02*
X95333333Y-80790866D01*
X94419047Y-80905152D02*
X94495237Y-80867057D01*
X94495237Y-80867057D02*
X94533332Y-80828961D01*
X94533332Y-80828961D02*
X94571428Y-80752771D01*
X94571428Y-80752771D02*
X94571428Y-80714676D01*
X94571428Y-80714676D02*
X94533332Y-80638485D01*
X94533332Y-80638485D02*
X94495237Y-80600390D01*
X94495237Y-80600390D02*
X94419047Y-80562295D01*
X94419047Y-80562295D02*
X94266666Y-80562295D01*
X94266666Y-80562295D02*
X94190475Y-80600390D01*
X94190475Y-80600390D02*
X94152380Y-80638485D01*
X94152380Y-80638485D02*
X94114285Y-80714676D01*
X94114285Y-80714676D02*
X94114285Y-80752771D01*
X94114285Y-80752771D02*
X94152380Y-80828961D01*
X94152380Y-80828961D02*
X94190475Y-80867057D01*
X94190475Y-80867057D02*
X94266666Y-80905152D01*
X94266666Y-80905152D02*
X94419047Y-80905152D01*
X94419047Y-80905152D02*
X94495237Y-80943247D01*
X94495237Y-80943247D02*
X94533332Y-80981342D01*
X94533332Y-80981342D02*
X94571428Y-81057533D01*
X94571428Y-81057533D02*
X94571428Y-81209914D01*
X94571428Y-81209914D02*
X94533332Y-81286104D01*
X94533332Y-81286104D02*
X94495237Y-81324200D01*
X94495237Y-81324200D02*
X94419047Y-81362295D01*
X94419047Y-81362295D02*
X94266666Y-81362295D01*
X94266666Y-81362295D02*
X94190475Y-81324200D01*
X94190475Y-81324200D02*
X94152380Y-81286104D01*
X94152380Y-81286104D02*
X94114285Y-81209914D01*
X94114285Y-81209914D02*
X94114285Y-81057533D01*
X94114285Y-81057533D02*
X94152380Y-80981342D01*
X94152380Y-80981342D02*
X94190475Y-80943247D01*
X94190475Y-80943247D02*
X94266666Y-80905152D01*
X93199999Y-81324200D02*
X93085713Y-81362295D01*
X93085713Y-81362295D02*
X92895237Y-81362295D01*
X92895237Y-81362295D02*
X92819046Y-81324200D01*
X92819046Y-81324200D02*
X92780951Y-81286104D01*
X92780951Y-81286104D02*
X92742856Y-81209914D01*
X92742856Y-81209914D02*
X92742856Y-81133723D01*
X92742856Y-81133723D02*
X92780951Y-81057533D01*
X92780951Y-81057533D02*
X92819046Y-81019438D01*
X92819046Y-81019438D02*
X92895237Y-80981342D01*
X92895237Y-80981342D02*
X93047618Y-80943247D01*
X93047618Y-80943247D02*
X93123808Y-80905152D01*
X93123808Y-80905152D02*
X93161903Y-80867057D01*
X93161903Y-80867057D02*
X93199999Y-80790866D01*
X93199999Y-80790866D02*
X93199999Y-80714676D01*
X93199999Y-80714676D02*
X93161903Y-80638485D01*
X93161903Y-80638485D02*
X93123808Y-80600390D01*
X93123808Y-80600390D02*
X93047618Y-80562295D01*
X93047618Y-80562295D02*
X92857141Y-80562295D01*
X92857141Y-80562295D02*
X92742856Y-80600390D01*
X92399998Y-81362295D02*
X92399998Y-80562295D01*
X92399998Y-80562295D02*
X92209522Y-80562295D01*
X92209522Y-80562295D02*
X92095236Y-80600390D01*
X92095236Y-80600390D02*
X92019046Y-80676580D01*
X92019046Y-80676580D02*
X91980951Y-80752771D01*
X91980951Y-80752771D02*
X91942855Y-80905152D01*
X91942855Y-80905152D02*
X91942855Y-81019438D01*
X91942855Y-81019438D02*
X91980951Y-81171819D01*
X91980951Y-81171819D02*
X92019046Y-81248009D01*
X92019046Y-81248009D02*
X92095236Y-81324200D01*
X92095236Y-81324200D02*
X92209522Y-81362295D01*
X92209522Y-81362295D02*
X92399998Y-81362295D01*
X91638094Y-81133723D02*
X91257141Y-81133723D01*
X91714284Y-81362295D02*
X91447617Y-80562295D01*
X91447617Y-80562295D02*
X91180951Y-81362295D01*
X96800000Y-83562295D02*
X96342857Y-83562295D01*
X96571429Y-84362295D02*
X96571429Y-83562295D01*
X96076190Y-84362295D02*
X96076190Y-83562295D01*
X96076190Y-83562295D02*
X95771428Y-83562295D01*
X95771428Y-83562295D02*
X95695238Y-83600390D01*
X95695238Y-83600390D02*
X95657143Y-83638485D01*
X95657143Y-83638485D02*
X95619047Y-83714676D01*
X95619047Y-83714676D02*
X95619047Y-83828961D01*
X95619047Y-83828961D02*
X95657143Y-83905152D01*
X95657143Y-83905152D02*
X95695238Y-83943247D01*
X95695238Y-83943247D02*
X95771428Y-83981342D01*
X95771428Y-83981342D02*
X96076190Y-83981342D01*
X94857143Y-84362295D02*
X95314286Y-84362295D01*
X95085714Y-84362295D02*
X95085714Y-83562295D01*
X95085714Y-83562295D02*
X95161905Y-83676580D01*
X95161905Y-83676580D02*
X95238095Y-83752771D01*
X95238095Y-83752771D02*
X95314286Y-83790866D01*
X94476190Y-84362295D02*
X94323809Y-84362295D01*
X94323809Y-84362295D02*
X94247619Y-84324200D01*
X94247619Y-84324200D02*
X94209523Y-84286104D01*
X94209523Y-84286104D02*
X94133333Y-84171819D01*
X94133333Y-84171819D02*
X94095238Y-84019438D01*
X94095238Y-84019438D02*
X94095238Y-83714676D01*
X94095238Y-83714676D02*
X94133333Y-83638485D01*
X94133333Y-83638485D02*
X94171428Y-83600390D01*
X94171428Y-83600390D02*
X94247619Y-83562295D01*
X94247619Y-83562295D02*
X94400000Y-83562295D01*
X94400000Y-83562295D02*
X94476190Y-83600390D01*
X94476190Y-83600390D02*
X94514285Y-83638485D01*
X94514285Y-83638485D02*
X94552381Y-83714676D01*
X94552381Y-83714676D02*
X94552381Y-83905152D01*
X94552381Y-83905152D02*
X94514285Y-83981342D01*
X94514285Y-83981342D02*
X94476190Y-84019438D01*
X94476190Y-84019438D02*
X94400000Y-84057533D01*
X94400000Y-84057533D02*
X94247619Y-84057533D01*
X94247619Y-84057533D02*
X94171428Y-84019438D01*
X94171428Y-84019438D02*
X94133333Y-83981342D01*
X94133333Y-83981342D02*
X94095238Y-83905152D01*
X93180952Y-84324200D02*
X93066666Y-84362295D01*
X93066666Y-84362295D02*
X92876190Y-84362295D01*
X92876190Y-84362295D02*
X92799999Y-84324200D01*
X92799999Y-84324200D02*
X92761904Y-84286104D01*
X92761904Y-84286104D02*
X92723809Y-84209914D01*
X92723809Y-84209914D02*
X92723809Y-84133723D01*
X92723809Y-84133723D02*
X92761904Y-84057533D01*
X92761904Y-84057533D02*
X92799999Y-84019438D01*
X92799999Y-84019438D02*
X92876190Y-83981342D01*
X92876190Y-83981342D02*
X93028571Y-83943247D01*
X93028571Y-83943247D02*
X93104761Y-83905152D01*
X93104761Y-83905152D02*
X93142856Y-83867057D01*
X93142856Y-83867057D02*
X93180952Y-83790866D01*
X93180952Y-83790866D02*
X93180952Y-83714676D01*
X93180952Y-83714676D02*
X93142856Y-83638485D01*
X93142856Y-83638485D02*
X93104761Y-83600390D01*
X93104761Y-83600390D02*
X93028571Y-83562295D01*
X93028571Y-83562295D02*
X92838094Y-83562295D01*
X92838094Y-83562295D02*
X92723809Y-83600390D01*
X91923808Y-84286104D02*
X91961904Y-84324200D01*
X91961904Y-84324200D02*
X92076189Y-84362295D01*
X92076189Y-84362295D02*
X92152380Y-84362295D01*
X92152380Y-84362295D02*
X92266666Y-84324200D01*
X92266666Y-84324200D02*
X92342856Y-84248009D01*
X92342856Y-84248009D02*
X92380951Y-84171819D01*
X92380951Y-84171819D02*
X92419047Y-84019438D01*
X92419047Y-84019438D02*
X92419047Y-83905152D01*
X92419047Y-83905152D02*
X92380951Y-83752771D01*
X92380951Y-83752771D02*
X92342856Y-83676580D01*
X92342856Y-83676580D02*
X92266666Y-83600390D01*
X92266666Y-83600390D02*
X92152380Y-83562295D01*
X92152380Y-83562295D02*
X92076189Y-83562295D01*
X92076189Y-83562295D02*
X91961904Y-83600390D01*
X91961904Y-83600390D02*
X91923808Y-83638485D01*
X91199999Y-84362295D02*
X91580951Y-84362295D01*
X91580951Y-84362295D02*
X91580951Y-83562295D01*
X96438095Y-86562295D02*
X95980952Y-86562295D01*
X96209524Y-87362295D02*
X96209524Y-86562295D01*
X95714285Y-87362295D02*
X95714285Y-86562295D01*
X95714285Y-86562295D02*
X95409523Y-86562295D01*
X95409523Y-86562295D02*
X95333333Y-86600390D01*
X95333333Y-86600390D02*
X95295238Y-86638485D01*
X95295238Y-86638485D02*
X95257142Y-86714676D01*
X95257142Y-86714676D02*
X95257142Y-86828961D01*
X95257142Y-86828961D02*
X95295238Y-86905152D01*
X95295238Y-86905152D02*
X95333333Y-86943247D01*
X95333333Y-86943247D02*
X95409523Y-86981342D01*
X95409523Y-86981342D02*
X95714285Y-86981342D01*
X94952381Y-86638485D02*
X94914285Y-86600390D01*
X94914285Y-86600390D02*
X94838095Y-86562295D01*
X94838095Y-86562295D02*
X94647619Y-86562295D01*
X94647619Y-86562295D02*
X94571428Y-86600390D01*
X94571428Y-86600390D02*
X94533333Y-86638485D01*
X94533333Y-86638485D02*
X94495238Y-86714676D01*
X94495238Y-86714676D02*
X94495238Y-86790866D01*
X94495238Y-86790866D02*
X94533333Y-86905152D01*
X94533333Y-86905152D02*
X94990476Y-87362295D01*
X94990476Y-87362295D02*
X94495238Y-87362295D01*
X93999999Y-86562295D02*
X93923809Y-86562295D01*
X93923809Y-86562295D02*
X93847618Y-86600390D01*
X93847618Y-86600390D02*
X93809523Y-86638485D01*
X93809523Y-86638485D02*
X93771428Y-86714676D01*
X93771428Y-86714676D02*
X93733333Y-86867057D01*
X93733333Y-86867057D02*
X93733333Y-87057533D01*
X93733333Y-87057533D02*
X93771428Y-87209914D01*
X93771428Y-87209914D02*
X93809523Y-87286104D01*
X93809523Y-87286104D02*
X93847618Y-87324200D01*
X93847618Y-87324200D02*
X93923809Y-87362295D01*
X93923809Y-87362295D02*
X93999999Y-87362295D01*
X93999999Y-87362295D02*
X94076190Y-87324200D01*
X94076190Y-87324200D02*
X94114285Y-87286104D01*
X94114285Y-87286104D02*
X94152380Y-87209914D01*
X94152380Y-87209914D02*
X94190476Y-87057533D01*
X94190476Y-87057533D02*
X94190476Y-86867057D01*
X94190476Y-86867057D02*
X94152380Y-86714676D01*
X94152380Y-86714676D02*
X94114285Y-86638485D01*
X94114285Y-86638485D02*
X94076190Y-86600390D01*
X94076190Y-86600390D02*
X93999999Y-86562295D01*
X92514285Y-86943247D02*
X92780951Y-86943247D01*
X92780951Y-87362295D02*
X92780951Y-86562295D01*
X92780951Y-86562295D02*
X92399999Y-86562295D01*
X91676190Y-86600390D02*
X91752380Y-86562295D01*
X91752380Y-86562295D02*
X91866666Y-86562295D01*
X91866666Y-86562295D02*
X91980952Y-86600390D01*
X91980952Y-86600390D02*
X92057142Y-86676580D01*
X92057142Y-86676580D02*
X92095237Y-86752771D01*
X92095237Y-86752771D02*
X92133333Y-86905152D01*
X92133333Y-86905152D02*
X92133333Y-87019438D01*
X92133333Y-87019438D02*
X92095237Y-87171819D01*
X92095237Y-87171819D02*
X92057142Y-87248009D01*
X92057142Y-87248009D02*
X91980952Y-87324200D01*
X91980952Y-87324200D02*
X91866666Y-87362295D01*
X91866666Y-87362295D02*
X91790475Y-87362295D01*
X91790475Y-87362295D02*
X91676190Y-87324200D01*
X91676190Y-87324200D02*
X91638094Y-87286104D01*
X91638094Y-87286104D02*
X91638094Y-87019438D01*
X91638094Y-87019438D02*
X91790475Y-87019438D01*
X108114285Y-105562295D02*
X108114285Y-106133723D01*
X108114285Y-106133723D02*
X108152380Y-106248009D01*
X108152380Y-106248009D02*
X108228571Y-106324200D01*
X108228571Y-106324200D02*
X108342856Y-106362295D01*
X108342856Y-106362295D02*
X108419047Y-106362295D01*
X107771428Y-105638485D02*
X107733332Y-105600390D01*
X107733332Y-105600390D02*
X107657142Y-105562295D01*
X107657142Y-105562295D02*
X107466666Y-105562295D01*
X107466666Y-105562295D02*
X107390475Y-105600390D01*
X107390475Y-105600390D02*
X107352380Y-105638485D01*
X107352380Y-105638485D02*
X107314285Y-105714676D01*
X107314285Y-105714676D02*
X107314285Y-105790866D01*
X107314285Y-105790866D02*
X107352380Y-105905152D01*
X107352380Y-105905152D02*
X107809523Y-106362295D01*
X107809523Y-106362295D02*
X107314285Y-106362295D01*
X106438094Y-105562295D02*
X105942856Y-105562295D01*
X105942856Y-105562295D02*
X106209522Y-105867057D01*
X106209522Y-105867057D02*
X106095237Y-105867057D01*
X106095237Y-105867057D02*
X106019046Y-105905152D01*
X106019046Y-105905152D02*
X105980951Y-105943247D01*
X105980951Y-105943247D02*
X105942856Y-106019438D01*
X105942856Y-106019438D02*
X105942856Y-106209914D01*
X105942856Y-106209914D02*
X105980951Y-106286104D01*
X105980951Y-106286104D02*
X106019046Y-106324200D01*
X106019046Y-106324200D02*
X106095237Y-106362295D01*
X106095237Y-106362295D02*
X106323808Y-106362295D01*
X106323808Y-106362295D02*
X106399999Y-106324200D01*
X106399999Y-106324200D02*
X106438094Y-106286104D01*
X105599998Y-106286104D02*
X105561903Y-106324200D01*
X105561903Y-106324200D02*
X105599998Y-106362295D01*
X105599998Y-106362295D02*
X105638094Y-106324200D01*
X105638094Y-106324200D02*
X105599998Y-106286104D01*
X105599998Y-106286104D02*
X105599998Y-106362295D01*
X105599998Y-105867057D02*
X105561903Y-105905152D01*
X105561903Y-105905152D02*
X105599998Y-105943247D01*
X105599998Y-105943247D02*
X105638094Y-105905152D01*
X105638094Y-105905152D02*
X105599998Y-105867057D01*
X105599998Y-105867057D02*
X105599998Y-105943247D01*
X105219046Y-105562295D02*
X105219046Y-106209914D01*
X105219046Y-106209914D02*
X105180951Y-106286104D01*
X105180951Y-106286104D02*
X105142856Y-106324200D01*
X105142856Y-106324200D02*
X105066665Y-106362295D01*
X105066665Y-106362295D02*
X104914284Y-106362295D01*
X104914284Y-106362295D02*
X104838094Y-106324200D01*
X104838094Y-106324200D02*
X104799999Y-106286104D01*
X104799999Y-106286104D02*
X104761903Y-106209914D01*
X104761903Y-106209914D02*
X104761903Y-105562295D01*
X103809523Y-105638485D02*
X103771427Y-105600390D01*
X103771427Y-105600390D02*
X103695237Y-105562295D01*
X103695237Y-105562295D02*
X103504761Y-105562295D01*
X103504761Y-105562295D02*
X103428570Y-105600390D01*
X103428570Y-105600390D02*
X103390475Y-105638485D01*
X103390475Y-105638485D02*
X103352380Y-105714676D01*
X103352380Y-105714676D02*
X103352380Y-105790866D01*
X103352380Y-105790866D02*
X103390475Y-105905152D01*
X103390475Y-105905152D02*
X103847618Y-106362295D01*
X103847618Y-106362295D02*
X103352380Y-106362295D01*
X103009522Y-106286104D02*
X102971427Y-106324200D01*
X102971427Y-106324200D02*
X103009522Y-106362295D01*
X103009522Y-106362295D02*
X103047618Y-106324200D01*
X103047618Y-106324200D02*
X103009522Y-106286104D01*
X103009522Y-106286104D02*
X103009522Y-106362295D01*
X103009522Y-105867057D02*
X102971427Y-105905152D01*
X102971427Y-105905152D02*
X103009522Y-105943247D01*
X103009522Y-105943247D02*
X103047618Y-105905152D01*
X103047618Y-105905152D02*
X103009522Y-105867057D01*
X103009522Y-105867057D02*
X103009522Y-105943247D01*
X102742856Y-105562295D02*
X102476189Y-106362295D01*
X102476189Y-106362295D02*
X102209523Y-105562295D01*
X100914285Y-106362295D02*
X101371428Y-106362295D01*
X101142856Y-106362295D02*
X101142856Y-105562295D01*
X101142856Y-105562295D02*
X101219047Y-105676580D01*
X101219047Y-105676580D02*
X101295237Y-105752771D01*
X101295237Y-105752771D02*
X101371428Y-105790866D01*
X100571427Y-106286104D02*
X100533332Y-106324200D01*
X100533332Y-106324200D02*
X100571427Y-106362295D01*
X100571427Y-106362295D02*
X100609523Y-106324200D01*
X100609523Y-106324200D02*
X100571427Y-106286104D01*
X100571427Y-106286104D02*
X100571427Y-106362295D01*
X100571427Y-105867057D02*
X100533332Y-105905152D01*
X100533332Y-105905152D02*
X100571427Y-105943247D01*
X100571427Y-105943247D02*
X100609523Y-105905152D01*
X100609523Y-105905152D02*
X100571427Y-105867057D01*
X100571427Y-105867057D02*
X100571427Y-105943247D01*
X100266666Y-105562295D02*
X100076190Y-106362295D01*
X100076190Y-106362295D02*
X99923809Y-105790866D01*
X99923809Y-105790866D02*
X99771428Y-106362295D01*
X99771428Y-106362295D02*
X99580952Y-105562295D01*
X112961903Y-110362295D02*
X112961903Y-109562295D01*
X112961903Y-109562295D02*
X112657141Y-109562295D01*
X112657141Y-109562295D02*
X112580951Y-109600390D01*
X112580951Y-109600390D02*
X112542856Y-109638485D01*
X112542856Y-109638485D02*
X112504760Y-109714676D01*
X112504760Y-109714676D02*
X112504760Y-109828961D01*
X112504760Y-109828961D02*
X112542856Y-109905152D01*
X112542856Y-109905152D02*
X112580951Y-109943247D01*
X112580951Y-109943247D02*
X112657141Y-109981342D01*
X112657141Y-109981342D02*
X112961903Y-109981342D01*
X112161903Y-110362295D02*
X112161903Y-109562295D01*
X112161903Y-109943247D02*
X111704760Y-109943247D01*
X111704760Y-110362295D02*
X111704760Y-109562295D01*
X111361904Y-110133723D02*
X110980951Y-110133723D01*
X111438094Y-110362295D02*
X111171427Y-109562295D01*
X111171427Y-109562295D02*
X110904761Y-110362295D01*
X110676190Y-110324200D02*
X110561904Y-110362295D01*
X110561904Y-110362295D02*
X110371428Y-110362295D01*
X110371428Y-110362295D02*
X110295237Y-110324200D01*
X110295237Y-110324200D02*
X110257142Y-110286104D01*
X110257142Y-110286104D02*
X110219047Y-110209914D01*
X110219047Y-110209914D02*
X110219047Y-110133723D01*
X110219047Y-110133723D02*
X110257142Y-110057533D01*
X110257142Y-110057533D02*
X110295237Y-110019438D01*
X110295237Y-110019438D02*
X110371428Y-109981342D01*
X110371428Y-109981342D02*
X110523809Y-109943247D01*
X110523809Y-109943247D02*
X110599999Y-109905152D01*
X110599999Y-109905152D02*
X110638094Y-109867057D01*
X110638094Y-109867057D02*
X110676190Y-109790866D01*
X110676190Y-109790866D02*
X110676190Y-109714676D01*
X110676190Y-109714676D02*
X110638094Y-109638485D01*
X110638094Y-109638485D02*
X110599999Y-109600390D01*
X110599999Y-109600390D02*
X110523809Y-109562295D01*
X110523809Y-109562295D02*
X110333332Y-109562295D01*
X110333332Y-109562295D02*
X110219047Y-109600390D01*
X109876189Y-109943247D02*
X109609523Y-109943247D01*
X109495237Y-110362295D02*
X109876189Y-110362295D01*
X109876189Y-110362295D02*
X109876189Y-109562295D01*
X109876189Y-109562295D02*
X109495237Y-109562295D01*
X109190475Y-110324200D02*
X109076189Y-110362295D01*
X109076189Y-110362295D02*
X108885713Y-110362295D01*
X108885713Y-110362295D02*
X108809522Y-110324200D01*
X108809522Y-110324200D02*
X108771427Y-110286104D01*
X108771427Y-110286104D02*
X108733332Y-110209914D01*
X108733332Y-110209914D02*
X108733332Y-110133723D01*
X108733332Y-110133723D02*
X108771427Y-110057533D01*
X108771427Y-110057533D02*
X108809522Y-110019438D01*
X108809522Y-110019438D02*
X108885713Y-109981342D01*
X108885713Y-109981342D02*
X109038094Y-109943247D01*
X109038094Y-109943247D02*
X109114284Y-109905152D01*
X109114284Y-109905152D02*
X109152379Y-109867057D01*
X109152379Y-109867057D02*
X109190475Y-109790866D01*
X109190475Y-109790866D02*
X109190475Y-109714676D01*
X109190475Y-109714676D02*
X109152379Y-109638485D01*
X109152379Y-109638485D02*
X109114284Y-109600390D01*
X109114284Y-109600390D02*
X109038094Y-109562295D01*
X109038094Y-109562295D02*
X108847617Y-109562295D01*
X108847617Y-109562295D02*
X108733332Y-109600390D01*
X108390474Y-110286104D02*
X108352379Y-110324200D01*
X108352379Y-110324200D02*
X108390474Y-110362295D01*
X108390474Y-110362295D02*
X108428570Y-110324200D01*
X108428570Y-110324200D02*
X108390474Y-110286104D01*
X108390474Y-110286104D02*
X108390474Y-110362295D01*
X108390474Y-109867057D02*
X108352379Y-109905152D01*
X108352379Y-109905152D02*
X108390474Y-109943247D01*
X108390474Y-109943247D02*
X108428570Y-109905152D01*
X108428570Y-109905152D02*
X108390474Y-109867057D01*
X108390474Y-109867057D02*
X108390474Y-109943247D01*
X107399998Y-110362295D02*
X107399998Y-109562295D01*
X107399998Y-109562295D02*
X107209522Y-109562295D01*
X107209522Y-109562295D02*
X107095236Y-109600390D01*
X107095236Y-109600390D02*
X107019046Y-109676580D01*
X107019046Y-109676580D02*
X106980951Y-109752771D01*
X106980951Y-109752771D02*
X106942855Y-109905152D01*
X106942855Y-109905152D02*
X106942855Y-110019438D01*
X106942855Y-110019438D02*
X106980951Y-110171819D01*
X106980951Y-110171819D02*
X107019046Y-110248009D01*
X107019046Y-110248009D02*
X107095236Y-110324200D01*
X107095236Y-110324200D02*
X107209522Y-110362295D01*
X107209522Y-110362295D02*
X107399998Y-110362295D01*
X106599998Y-110362295D02*
X106599998Y-109562295D01*
X105952380Y-109943247D02*
X106219046Y-109943247D01*
X106219046Y-110362295D02*
X106219046Y-109562295D01*
X106219046Y-109562295D02*
X105838094Y-109562295D01*
X105266666Y-109943247D02*
X105533332Y-109943247D01*
X105533332Y-110362295D02*
X105533332Y-109562295D01*
X105533332Y-109562295D02*
X105152380Y-109562295D01*
X104238094Y-110362295D02*
X104238094Y-109562295D01*
X104238094Y-109562295D02*
X103933332Y-109562295D01*
X103933332Y-109562295D02*
X103857142Y-109600390D01*
X103857142Y-109600390D02*
X103819047Y-109638485D01*
X103819047Y-109638485D02*
X103780951Y-109714676D01*
X103780951Y-109714676D02*
X103780951Y-109828961D01*
X103780951Y-109828961D02*
X103819047Y-109905152D01*
X103819047Y-109905152D02*
X103857142Y-109943247D01*
X103857142Y-109943247D02*
X103933332Y-109981342D01*
X103933332Y-109981342D02*
X104238094Y-109981342D01*
X102980951Y-110362295D02*
X103247618Y-109981342D01*
X103438094Y-110362295D02*
X103438094Y-109562295D01*
X103438094Y-109562295D02*
X103133332Y-109562295D01*
X103133332Y-109562295D02*
X103057142Y-109600390D01*
X103057142Y-109600390D02*
X103019047Y-109638485D01*
X103019047Y-109638485D02*
X102980951Y-109714676D01*
X102980951Y-109714676D02*
X102980951Y-109828961D01*
X102980951Y-109828961D02*
X103019047Y-109905152D01*
X103019047Y-109905152D02*
X103057142Y-109943247D01*
X103057142Y-109943247D02*
X103133332Y-109981342D01*
X103133332Y-109981342D02*
X103438094Y-109981342D01*
X102485713Y-109562295D02*
X102333332Y-109562295D01*
X102333332Y-109562295D02*
X102257142Y-109600390D01*
X102257142Y-109600390D02*
X102180951Y-109676580D01*
X102180951Y-109676580D02*
X102142856Y-109828961D01*
X102142856Y-109828961D02*
X102142856Y-110095628D01*
X102142856Y-110095628D02*
X102180951Y-110248009D01*
X102180951Y-110248009D02*
X102257142Y-110324200D01*
X102257142Y-110324200D02*
X102333332Y-110362295D01*
X102333332Y-110362295D02*
X102485713Y-110362295D01*
X102485713Y-110362295D02*
X102561904Y-110324200D01*
X102561904Y-110324200D02*
X102638094Y-110248009D01*
X102638094Y-110248009D02*
X102676190Y-110095628D01*
X102676190Y-110095628D02*
X102676190Y-109828961D01*
X102676190Y-109828961D02*
X102638094Y-109676580D01*
X102638094Y-109676580D02*
X102561904Y-109600390D01*
X102561904Y-109600390D02*
X102485713Y-109562295D01*
X101533333Y-109943247D02*
X101419047Y-109981342D01*
X101419047Y-109981342D02*
X101380952Y-110019438D01*
X101380952Y-110019438D02*
X101342856Y-110095628D01*
X101342856Y-110095628D02*
X101342856Y-110209914D01*
X101342856Y-110209914D02*
X101380952Y-110286104D01*
X101380952Y-110286104D02*
X101419047Y-110324200D01*
X101419047Y-110324200D02*
X101495237Y-110362295D01*
X101495237Y-110362295D02*
X101799999Y-110362295D01*
X101799999Y-110362295D02*
X101799999Y-109562295D01*
X101799999Y-109562295D02*
X101533333Y-109562295D01*
X101533333Y-109562295D02*
X101457142Y-109600390D01*
X101457142Y-109600390D02*
X101419047Y-109638485D01*
X101419047Y-109638485D02*
X101380952Y-109714676D01*
X101380952Y-109714676D02*
X101380952Y-109790866D01*
X101380952Y-109790866D02*
X101419047Y-109867057D01*
X101419047Y-109867057D02*
X101457142Y-109905152D01*
X101457142Y-109905152D02*
X101533333Y-109943247D01*
X101533333Y-109943247D02*
X101799999Y-109943247D01*
X100999999Y-109943247D02*
X100733333Y-109943247D01*
X100619047Y-110362295D02*
X100999999Y-110362295D01*
X100999999Y-110362295D02*
X100999999Y-109562295D01*
X100999999Y-109562295D02*
X100619047Y-109562295D01*
X99514284Y-109562295D02*
X99361903Y-109562295D01*
X99361903Y-109562295D02*
X99285713Y-109600390D01*
X99285713Y-109600390D02*
X99209522Y-109676580D01*
X99209522Y-109676580D02*
X99171427Y-109828961D01*
X99171427Y-109828961D02*
X99171427Y-110095628D01*
X99171427Y-110095628D02*
X99209522Y-110248009D01*
X99209522Y-110248009D02*
X99285713Y-110324200D01*
X99285713Y-110324200D02*
X99361903Y-110362295D01*
X99361903Y-110362295D02*
X99514284Y-110362295D01*
X99514284Y-110362295D02*
X99590475Y-110324200D01*
X99590475Y-110324200D02*
X99666665Y-110248009D01*
X99666665Y-110248009D02*
X99704761Y-110095628D01*
X99704761Y-110095628D02*
X99704761Y-109828961D01*
X99704761Y-109828961D02*
X99666665Y-109676580D01*
X99666665Y-109676580D02*
X99590475Y-109600390D01*
X99590475Y-109600390D02*
X99514284Y-109562295D01*
X98828570Y-110362295D02*
X98828570Y-109562295D01*
X98828570Y-109562295D02*
X98371427Y-110362295D01*
X98371427Y-110362295D02*
X98371427Y-109562295D01*
X97609523Y-110362295D02*
X97990475Y-110362295D01*
X97990475Y-110362295D02*
X97990475Y-109562295D01*
X97190475Y-109981342D02*
X97190475Y-110362295D01*
X97457142Y-109562295D02*
X97190475Y-109981342D01*
X97190475Y-109981342D02*
X96923809Y-109562295D01*
X123447618Y-106862295D02*
X123904761Y-106862295D01*
X123676189Y-106862295D02*
X123676189Y-106062295D01*
X123676189Y-106062295D02*
X123752380Y-106176580D01*
X123752380Y-106176580D02*
X123828570Y-106252771D01*
X123828570Y-106252771D02*
X123904761Y-106290866D01*
X123104760Y-106786104D02*
X123066665Y-106824200D01*
X123066665Y-106824200D02*
X123104760Y-106862295D01*
X123104760Y-106862295D02*
X123142856Y-106824200D01*
X123142856Y-106824200D02*
X123104760Y-106786104D01*
X123104760Y-106786104D02*
X123104760Y-106862295D01*
X123104760Y-106367057D02*
X123066665Y-106405152D01*
X123066665Y-106405152D02*
X123104760Y-106443247D01*
X123104760Y-106443247D02*
X123142856Y-106405152D01*
X123142856Y-106405152D02*
X123104760Y-106367057D01*
X123104760Y-106367057D02*
X123104760Y-106443247D01*
X122799999Y-106062295D02*
X122304761Y-106062295D01*
X122304761Y-106062295D02*
X122571427Y-106367057D01*
X122571427Y-106367057D02*
X122457142Y-106367057D01*
X122457142Y-106367057D02*
X122380951Y-106405152D01*
X122380951Y-106405152D02*
X122342856Y-106443247D01*
X122342856Y-106443247D02*
X122304761Y-106519438D01*
X122304761Y-106519438D02*
X122304761Y-106709914D01*
X122304761Y-106709914D02*
X122342856Y-106786104D01*
X122342856Y-106786104D02*
X122380951Y-106824200D01*
X122380951Y-106824200D02*
X122457142Y-106862295D01*
X122457142Y-106862295D02*
X122685713Y-106862295D01*
X122685713Y-106862295D02*
X122761904Y-106824200D01*
X122761904Y-106824200D02*
X122799999Y-106786104D01*
X122076189Y-106062295D02*
X121809522Y-106862295D01*
X121809522Y-106862295D02*
X121542856Y-106062295D01*
X121352380Y-106062295D02*
X120857142Y-106062295D01*
X120857142Y-106062295D02*
X121123808Y-106367057D01*
X121123808Y-106367057D02*
X121009523Y-106367057D01*
X121009523Y-106367057D02*
X120933332Y-106405152D01*
X120933332Y-106405152D02*
X120895237Y-106443247D01*
X120895237Y-106443247D02*
X120857142Y-106519438D01*
X120857142Y-106519438D02*
X120857142Y-106709914D01*
X120857142Y-106709914D02*
X120895237Y-106786104D01*
X120895237Y-106786104D02*
X120933332Y-106824200D01*
X120933332Y-106824200D02*
X121009523Y-106862295D01*
X121009523Y-106862295D02*
X121238094Y-106862295D01*
X121238094Y-106862295D02*
X121314285Y-106824200D01*
X121314285Y-106824200D02*
X121352380Y-106786104D01*
X119942856Y-106138485D02*
X119904760Y-106100390D01*
X119904760Y-106100390D02*
X119828570Y-106062295D01*
X119828570Y-106062295D02*
X119638094Y-106062295D01*
X119638094Y-106062295D02*
X119561903Y-106100390D01*
X119561903Y-106100390D02*
X119523808Y-106138485D01*
X119523808Y-106138485D02*
X119485713Y-106214676D01*
X119485713Y-106214676D02*
X119485713Y-106290866D01*
X119485713Y-106290866D02*
X119523808Y-106405152D01*
X119523808Y-106405152D02*
X119980951Y-106862295D01*
X119980951Y-106862295D02*
X119485713Y-106862295D01*
X119142855Y-106786104D02*
X119104760Y-106824200D01*
X119104760Y-106824200D02*
X119142855Y-106862295D01*
X119142855Y-106862295D02*
X119180951Y-106824200D01*
X119180951Y-106824200D02*
X119142855Y-106786104D01*
X119142855Y-106786104D02*
X119142855Y-106862295D01*
X119142855Y-106367057D02*
X119104760Y-106405152D01*
X119104760Y-106405152D02*
X119142855Y-106443247D01*
X119142855Y-106443247D02*
X119180951Y-106405152D01*
X119180951Y-106405152D02*
X119142855Y-106367057D01*
X119142855Y-106367057D02*
X119142855Y-106443247D01*
X118761903Y-106862295D02*
X118761903Y-106062295D01*
X118761903Y-106443247D02*
X118304760Y-106443247D01*
X118304760Y-106862295D02*
X118304760Y-106062295D01*
X117961904Y-106633723D02*
X117580951Y-106633723D01*
X118038094Y-106862295D02*
X117771427Y-106062295D01*
X117771427Y-106062295D02*
X117504761Y-106862295D01*
X116857142Y-106862295D02*
X117238094Y-106862295D01*
X117238094Y-106862295D02*
X117238094Y-106062295D01*
X116209523Y-106862295D02*
X116590475Y-106862295D01*
X116590475Y-106862295D02*
X116590475Y-106062295D01*
X115409523Y-106062295D02*
X114914285Y-106062295D01*
X114914285Y-106062295D02*
X115180951Y-106367057D01*
X115180951Y-106367057D02*
X115066666Y-106367057D01*
X115066666Y-106367057D02*
X114990475Y-106405152D01*
X114990475Y-106405152D02*
X114952380Y-106443247D01*
X114952380Y-106443247D02*
X114914285Y-106519438D01*
X114914285Y-106519438D02*
X114914285Y-106709914D01*
X114914285Y-106709914D02*
X114952380Y-106786104D01*
X114952380Y-106786104D02*
X114990475Y-106824200D01*
X114990475Y-106824200D02*
X115066666Y-106862295D01*
X115066666Y-106862295D02*
X115295237Y-106862295D01*
X115295237Y-106862295D02*
X115371428Y-106824200D01*
X115371428Y-106824200D02*
X115409523Y-106786104D01*
X114571427Y-106786104D02*
X114533332Y-106824200D01*
X114533332Y-106824200D02*
X114571427Y-106862295D01*
X114571427Y-106862295D02*
X114609523Y-106824200D01*
X114609523Y-106824200D02*
X114571427Y-106786104D01*
X114571427Y-106786104D02*
X114571427Y-106862295D01*
X114571427Y-106367057D02*
X114533332Y-106405152D01*
X114533332Y-106405152D02*
X114571427Y-106443247D01*
X114571427Y-106443247D02*
X114609523Y-106405152D01*
X114609523Y-106405152D02*
X114571427Y-106367057D01*
X114571427Y-106367057D02*
X114571427Y-106443247D01*
X113771428Y-106100390D02*
X113847618Y-106062295D01*
X113847618Y-106062295D02*
X113961904Y-106062295D01*
X113961904Y-106062295D02*
X114076190Y-106100390D01*
X114076190Y-106100390D02*
X114152380Y-106176580D01*
X114152380Y-106176580D02*
X114190475Y-106252771D01*
X114190475Y-106252771D02*
X114228571Y-106405152D01*
X114228571Y-106405152D02*
X114228571Y-106519438D01*
X114228571Y-106519438D02*
X114190475Y-106671819D01*
X114190475Y-106671819D02*
X114152380Y-106748009D01*
X114152380Y-106748009D02*
X114076190Y-106824200D01*
X114076190Y-106824200D02*
X113961904Y-106862295D01*
X113961904Y-106862295D02*
X113885713Y-106862295D01*
X113885713Y-106862295D02*
X113771428Y-106824200D01*
X113771428Y-106824200D02*
X113733332Y-106786104D01*
X113733332Y-106786104D02*
X113733332Y-106519438D01*
X113733332Y-106519438D02*
X113885713Y-106519438D01*
X113390475Y-106862295D02*
X113390475Y-106062295D01*
X113390475Y-106062295D02*
X112933332Y-106862295D01*
X112933332Y-106862295D02*
X112933332Y-106062295D01*
X112552380Y-106862295D02*
X112552380Y-106062295D01*
X112552380Y-106062295D02*
X112361904Y-106062295D01*
X112361904Y-106062295D02*
X112247618Y-106100390D01*
X112247618Y-106100390D02*
X112171428Y-106176580D01*
X112171428Y-106176580D02*
X112133333Y-106252771D01*
X112133333Y-106252771D02*
X112095237Y-106405152D01*
X112095237Y-106405152D02*
X112095237Y-106519438D01*
X112095237Y-106519438D02*
X112133333Y-106671819D01*
X112133333Y-106671819D02*
X112171428Y-106748009D01*
X112171428Y-106748009D02*
X112247618Y-106824200D01*
X112247618Y-106824200D02*
X112361904Y-106862295D01*
X112361904Y-106862295D02*
X112552380Y-106862295D01*
X121609523Y-86562295D02*
X121609523Y-87209914D01*
X121609523Y-87209914D02*
X121571428Y-87286104D01*
X121571428Y-87286104D02*
X121533333Y-87324200D01*
X121533333Y-87324200D02*
X121457142Y-87362295D01*
X121457142Y-87362295D02*
X121304761Y-87362295D01*
X121304761Y-87362295D02*
X121228571Y-87324200D01*
X121228571Y-87324200D02*
X121190476Y-87286104D01*
X121190476Y-87286104D02*
X121152380Y-87209914D01*
X121152380Y-87209914D02*
X121152380Y-86562295D01*
X120657143Y-86905152D02*
X120733333Y-86867057D01*
X120733333Y-86867057D02*
X120771428Y-86828961D01*
X120771428Y-86828961D02*
X120809524Y-86752771D01*
X120809524Y-86752771D02*
X120809524Y-86714676D01*
X120809524Y-86714676D02*
X120771428Y-86638485D01*
X120771428Y-86638485D02*
X120733333Y-86600390D01*
X120733333Y-86600390D02*
X120657143Y-86562295D01*
X120657143Y-86562295D02*
X120504762Y-86562295D01*
X120504762Y-86562295D02*
X120428571Y-86600390D01*
X120428571Y-86600390D02*
X120390476Y-86638485D01*
X120390476Y-86638485D02*
X120352381Y-86714676D01*
X120352381Y-86714676D02*
X120352381Y-86752771D01*
X120352381Y-86752771D02*
X120390476Y-86828961D01*
X120390476Y-86828961D02*
X120428571Y-86867057D01*
X120428571Y-86867057D02*
X120504762Y-86905152D01*
X120504762Y-86905152D02*
X120657143Y-86905152D01*
X120657143Y-86905152D02*
X120733333Y-86943247D01*
X120733333Y-86943247D02*
X120771428Y-86981342D01*
X120771428Y-86981342D02*
X120809524Y-87057533D01*
X120809524Y-87057533D02*
X120809524Y-87209914D01*
X120809524Y-87209914D02*
X120771428Y-87286104D01*
X120771428Y-87286104D02*
X120733333Y-87324200D01*
X120733333Y-87324200D02*
X120657143Y-87362295D01*
X120657143Y-87362295D02*
X120504762Y-87362295D01*
X120504762Y-87362295D02*
X120428571Y-87324200D01*
X120428571Y-87324200D02*
X120390476Y-87286104D01*
X120390476Y-87286104D02*
X120352381Y-87209914D01*
X120352381Y-87209914D02*
X120352381Y-87057533D01*
X120352381Y-87057533D02*
X120390476Y-86981342D01*
X120390476Y-86981342D02*
X120428571Y-86943247D01*
X120428571Y-86943247D02*
X120504762Y-86905152D01*
X119399999Y-87362295D02*
X119399999Y-86562295D01*
X119399999Y-86562295D02*
X119095237Y-86562295D01*
X119095237Y-86562295D02*
X119019047Y-86600390D01*
X119019047Y-86600390D02*
X118980952Y-86638485D01*
X118980952Y-86638485D02*
X118942856Y-86714676D01*
X118942856Y-86714676D02*
X118942856Y-86828961D01*
X118942856Y-86828961D02*
X118980952Y-86905152D01*
X118980952Y-86905152D02*
X119019047Y-86943247D01*
X119019047Y-86943247D02*
X119095237Y-86981342D01*
X119095237Y-86981342D02*
X119399999Y-86981342D01*
X118599999Y-87362295D02*
X118599999Y-86562295D01*
X118219047Y-87362295D02*
X118219047Y-86562295D01*
X118219047Y-86562295D02*
X117761904Y-87362295D01*
X117761904Y-87362295D02*
X117761904Y-86562295D01*
X116352381Y-87362295D02*
X116809524Y-87362295D01*
X116580952Y-87362295D02*
X116580952Y-86562295D01*
X116580952Y-86562295D02*
X116657143Y-86676580D01*
X116657143Y-86676580D02*
X116733333Y-86752771D01*
X116733333Y-86752771D02*
X116809524Y-86790866D01*
X110557142Y-60408557D02*
X110557142Y-59508557D01*
X110557142Y-59508557D02*
X110214285Y-59508557D01*
X110214285Y-59508557D02*
X110128570Y-59551414D01*
X110128570Y-59551414D02*
X110085713Y-59594271D01*
X110085713Y-59594271D02*
X110042856Y-59679985D01*
X110042856Y-59679985D02*
X110042856Y-59808557D01*
X110042856Y-59808557D02*
X110085713Y-59894271D01*
X110085713Y-59894271D02*
X110128570Y-59937128D01*
X110128570Y-59937128D02*
X110214285Y-59979985D01*
X110214285Y-59979985D02*
X110557142Y-59979985D01*
X109142856Y-60322842D02*
X109185713Y-60365700D01*
X109185713Y-60365700D02*
X109314285Y-60408557D01*
X109314285Y-60408557D02*
X109399999Y-60408557D01*
X109399999Y-60408557D02*
X109528570Y-60365700D01*
X109528570Y-60365700D02*
X109614285Y-60279985D01*
X109614285Y-60279985D02*
X109657142Y-60194271D01*
X109657142Y-60194271D02*
X109699999Y-60022842D01*
X109699999Y-60022842D02*
X109699999Y-59894271D01*
X109699999Y-59894271D02*
X109657142Y-59722842D01*
X109657142Y-59722842D02*
X109614285Y-59637128D01*
X109614285Y-59637128D02*
X109528570Y-59551414D01*
X109528570Y-59551414D02*
X109399999Y-59508557D01*
X109399999Y-59508557D02*
X109314285Y-59508557D01*
X109314285Y-59508557D02*
X109185713Y-59551414D01*
X109185713Y-59551414D02*
X109142856Y-59594271D01*
X108457142Y-59937128D02*
X108328570Y-59979985D01*
X108328570Y-59979985D02*
X108285713Y-60022842D01*
X108285713Y-60022842D02*
X108242856Y-60108557D01*
X108242856Y-60108557D02*
X108242856Y-60237128D01*
X108242856Y-60237128D02*
X108285713Y-60322842D01*
X108285713Y-60322842D02*
X108328570Y-60365700D01*
X108328570Y-60365700D02*
X108414285Y-60408557D01*
X108414285Y-60408557D02*
X108757142Y-60408557D01*
X108757142Y-60408557D02*
X108757142Y-59508557D01*
X108757142Y-59508557D02*
X108457142Y-59508557D01*
X108457142Y-59508557D02*
X108371428Y-59551414D01*
X108371428Y-59551414D02*
X108328570Y-59594271D01*
X108328570Y-59594271D02*
X108285713Y-59679985D01*
X108285713Y-59679985D02*
X108285713Y-59765700D01*
X108285713Y-59765700D02*
X108328570Y-59851414D01*
X108328570Y-59851414D02*
X108371428Y-59894271D01*
X108371428Y-59894271D02*
X108457142Y-59937128D01*
X108457142Y-59937128D02*
X108757142Y-59937128D01*
X107857142Y-60065700D02*
X107171428Y-60065700D01*
X106571427Y-59508557D02*
X106485713Y-59508557D01*
X106485713Y-59508557D02*
X106399999Y-59551414D01*
X106399999Y-59551414D02*
X106357142Y-59594271D01*
X106357142Y-59594271D02*
X106314284Y-59679985D01*
X106314284Y-59679985D02*
X106271427Y-59851414D01*
X106271427Y-59851414D02*
X106271427Y-60065700D01*
X106271427Y-60065700D02*
X106314284Y-60237128D01*
X106314284Y-60237128D02*
X106357142Y-60322842D01*
X106357142Y-60322842D02*
X106399999Y-60365700D01*
X106399999Y-60365700D02*
X106485713Y-60408557D01*
X106485713Y-60408557D02*
X106571427Y-60408557D01*
X106571427Y-60408557D02*
X106657142Y-60365700D01*
X106657142Y-60365700D02*
X106699999Y-60322842D01*
X106699999Y-60322842D02*
X106742856Y-60237128D01*
X106742856Y-60237128D02*
X106785713Y-60065700D01*
X106785713Y-60065700D02*
X106785713Y-59851414D01*
X106785713Y-59851414D02*
X106742856Y-59679985D01*
X106742856Y-59679985D02*
X106699999Y-59594271D01*
X106699999Y-59594271D02*
X106657142Y-59551414D01*
X106657142Y-59551414D02*
X106571427Y-59508557D01*
X105414284Y-60408557D02*
X105928570Y-60408557D01*
X105671427Y-60408557D02*
X105671427Y-59508557D01*
X105671427Y-59508557D02*
X105757141Y-59637128D01*
X105757141Y-59637128D02*
X105842856Y-59722842D01*
X105842856Y-59722842D02*
X105928570Y-59765700D01*
X104471427Y-59508557D02*
X104171427Y-60408557D01*
X104171427Y-60408557D02*
X103871427Y-59508557D01*
X103614284Y-59594271D02*
X103571427Y-59551414D01*
X103571427Y-59551414D02*
X103485713Y-59508557D01*
X103485713Y-59508557D02*
X103271427Y-59508557D01*
X103271427Y-59508557D02*
X103185713Y-59551414D01*
X103185713Y-59551414D02*
X103142855Y-59594271D01*
X103142855Y-59594271D02*
X103099998Y-59679985D01*
X103099998Y-59679985D02*
X103099998Y-59765700D01*
X103099998Y-59765700D02*
X103142855Y-59894271D01*
X103142855Y-59894271D02*
X103657141Y-60408557D01*
X103657141Y-60408557D02*
X103099998Y-60408557D01*
X102157141Y-59508557D02*
X101642856Y-59508557D01*
X101899998Y-60408557D02*
X101899998Y-59508557D01*
X101342856Y-59937128D02*
X101042856Y-59937128D01*
X100914284Y-60408557D02*
X101342856Y-60408557D01*
X101342856Y-60408557D02*
X101342856Y-59508557D01*
X101342856Y-59508557D02*
X100914284Y-59508557D01*
X100571427Y-60365700D02*
X100442856Y-60408557D01*
X100442856Y-60408557D02*
X100228570Y-60408557D01*
X100228570Y-60408557D02*
X100142856Y-60365700D01*
X100142856Y-60365700D02*
X100099998Y-60322842D01*
X100099998Y-60322842D02*
X100057141Y-60237128D01*
X100057141Y-60237128D02*
X100057141Y-60151414D01*
X100057141Y-60151414D02*
X100099998Y-60065700D01*
X100099998Y-60065700D02*
X100142856Y-60022842D01*
X100142856Y-60022842D02*
X100228570Y-59979985D01*
X100228570Y-59979985D02*
X100399998Y-59937128D01*
X100399998Y-59937128D02*
X100485713Y-59894271D01*
X100485713Y-59894271D02*
X100528570Y-59851414D01*
X100528570Y-59851414D02*
X100571427Y-59765700D01*
X100571427Y-59765700D02*
X100571427Y-59679985D01*
X100571427Y-59679985D02*
X100528570Y-59594271D01*
X100528570Y-59594271D02*
X100485713Y-59551414D01*
X100485713Y-59551414D02*
X100399998Y-59508557D01*
X100399998Y-59508557D02*
X100185713Y-59508557D01*
X100185713Y-59508557D02*
X100057141Y-59551414D01*
X99799998Y-59508557D02*
X99285713Y-59508557D01*
X99542855Y-60408557D02*
X99542855Y-59508557D01*
X98299999Y-60408557D02*
X98299999Y-59508557D01*
X98299999Y-59508557D02*
X97957142Y-59508557D01*
X97957142Y-59508557D02*
X97871427Y-59551414D01*
X97871427Y-59551414D02*
X97828570Y-59594271D01*
X97828570Y-59594271D02*
X97785713Y-59679985D01*
X97785713Y-59679985D02*
X97785713Y-59808557D01*
X97785713Y-59808557D02*
X97828570Y-59894271D01*
X97828570Y-59894271D02*
X97871427Y-59937128D01*
X97871427Y-59937128D02*
X97957142Y-59979985D01*
X97957142Y-59979985D02*
X98299999Y-59979985D01*
X97228570Y-59508557D02*
X97057142Y-59508557D01*
X97057142Y-59508557D02*
X96971427Y-59551414D01*
X96971427Y-59551414D02*
X96885713Y-59637128D01*
X96885713Y-59637128D02*
X96842856Y-59808557D01*
X96842856Y-59808557D02*
X96842856Y-60108557D01*
X96842856Y-60108557D02*
X96885713Y-60279985D01*
X96885713Y-60279985D02*
X96971427Y-60365700D01*
X96971427Y-60365700D02*
X97057142Y-60408557D01*
X97057142Y-60408557D02*
X97228570Y-60408557D01*
X97228570Y-60408557D02*
X97314285Y-60365700D01*
X97314285Y-60365700D02*
X97399999Y-60279985D01*
X97399999Y-60279985D02*
X97442856Y-60108557D01*
X97442856Y-60108557D02*
X97442856Y-59808557D01*
X97442856Y-59808557D02*
X97399999Y-59637128D01*
X97399999Y-59637128D02*
X97314285Y-59551414D01*
X97314285Y-59551414D02*
X97228570Y-59508557D01*
X96457142Y-60408557D02*
X96457142Y-59508557D01*
X96028571Y-60408557D02*
X96028571Y-59508557D01*
X96028571Y-59508557D02*
X95514285Y-60408557D01*
X95514285Y-60408557D02*
X95514285Y-59508557D01*
X95214285Y-59508557D02*
X94700000Y-59508557D01*
X94957142Y-60408557D02*
X94957142Y-59508557D01*
X93714286Y-60408557D02*
X93714286Y-59508557D01*
X93714286Y-59508557D02*
X93414286Y-60151414D01*
X93414286Y-60151414D02*
X93114286Y-59508557D01*
X93114286Y-59508557D02*
X93114286Y-60408557D01*
X92728572Y-60151414D02*
X92300001Y-60151414D01*
X92814286Y-60408557D02*
X92514286Y-59508557D01*
X92514286Y-59508557D02*
X92214286Y-60408557D01*
X91914286Y-60408557D02*
X91914286Y-59508557D01*
X91914286Y-59508557D02*
X91571429Y-59508557D01*
X91571429Y-59508557D02*
X91485714Y-59551414D01*
X91485714Y-59551414D02*
X91442857Y-59594271D01*
X91442857Y-59594271D02*
X91400000Y-59679985D01*
X91400000Y-59679985D02*
X91400000Y-59808557D01*
X91400000Y-59808557D02*
X91442857Y-59894271D01*
X91442857Y-59894271D02*
X91485714Y-59937128D01*
X91485714Y-59937128D02*
X91571429Y-59979985D01*
X91571429Y-59979985D02*
X91914286Y-59979985D01*
X71666666Y-68454819D02*
X71095238Y-68454819D01*
X71380952Y-69454819D02*
X71380952Y-68454819D01*
X70761904Y-69454819D02*
X70761904Y-68454819D01*
X70761904Y-68454819D02*
X70380952Y-68454819D01*
X70380952Y-68454819D02*
X70285714Y-68502438D01*
X70285714Y-68502438D02*
X70238095Y-68550057D01*
X70238095Y-68550057D02*
X70190476Y-68645295D01*
X70190476Y-68645295D02*
X70190476Y-68788152D01*
X70190476Y-68788152D02*
X70238095Y-68883390D01*
X70238095Y-68883390D02*
X70285714Y-68931009D01*
X70285714Y-68931009D02*
X70380952Y-68978628D01*
X70380952Y-68978628D02*
X70761904Y-68978628D01*
X69857142Y-68454819D02*
X69238095Y-68454819D01*
X69238095Y-68454819D02*
X69571428Y-68835771D01*
X69571428Y-68835771D02*
X69428571Y-68835771D01*
X69428571Y-68835771D02*
X69333333Y-68883390D01*
X69333333Y-68883390D02*
X69285714Y-68931009D01*
X69285714Y-68931009D02*
X69238095Y-69026247D01*
X69238095Y-69026247D02*
X69238095Y-69264342D01*
X69238095Y-69264342D02*
X69285714Y-69359580D01*
X69285714Y-69359580D02*
X69333333Y-69407200D01*
X69333333Y-69407200D02*
X69428571Y-69454819D01*
X69428571Y-69454819D02*
X69714285Y-69454819D01*
X69714285Y-69454819D02*
X69809523Y-69407200D01*
X69809523Y-69407200D02*
X69857142Y-69359580D01*
X68047618Y-69454819D02*
X68047618Y-68454819D01*
X68047618Y-68454819D02*
X67666666Y-68454819D01*
X67666666Y-68454819D02*
X67571428Y-68502438D01*
X67571428Y-68502438D02*
X67523809Y-68550057D01*
X67523809Y-68550057D02*
X67476190Y-68645295D01*
X67476190Y-68645295D02*
X67476190Y-68788152D01*
X67476190Y-68788152D02*
X67523809Y-68883390D01*
X67523809Y-68883390D02*
X67571428Y-68931009D01*
X67571428Y-68931009D02*
X67666666Y-68978628D01*
X67666666Y-68978628D02*
X68047618Y-68978628D01*
X66523809Y-68502438D02*
X66619047Y-68454819D01*
X66619047Y-68454819D02*
X66761904Y-68454819D01*
X66761904Y-68454819D02*
X66904761Y-68502438D01*
X66904761Y-68502438D02*
X66999999Y-68597676D01*
X66999999Y-68597676D02*
X67047618Y-68692914D01*
X67047618Y-68692914D02*
X67095237Y-68883390D01*
X67095237Y-68883390D02*
X67095237Y-69026247D01*
X67095237Y-69026247D02*
X67047618Y-69216723D01*
X67047618Y-69216723D02*
X66999999Y-69311961D01*
X66999999Y-69311961D02*
X66904761Y-69407200D01*
X66904761Y-69407200D02*
X66761904Y-69454819D01*
X66761904Y-69454819D02*
X66666666Y-69454819D01*
X66666666Y-69454819D02*
X66523809Y-69407200D01*
X66523809Y-69407200D02*
X66476190Y-69359580D01*
X66476190Y-69359580D02*
X66476190Y-69026247D01*
X66476190Y-69026247D02*
X66666666Y-69026247D01*
X66047618Y-69454819D02*
X66047618Y-68454819D01*
X66047618Y-68454819D02*
X65476190Y-69454819D01*
X65476190Y-69454819D02*
X65476190Y-68454819D01*
X64999999Y-69454819D02*
X64999999Y-68454819D01*
X64999999Y-68454819D02*
X64761904Y-68454819D01*
X64761904Y-68454819D02*
X64619047Y-68502438D01*
X64619047Y-68502438D02*
X64523809Y-68597676D01*
X64523809Y-68597676D02*
X64476190Y-68692914D01*
X64476190Y-68692914D02*
X64428571Y-68883390D01*
X64428571Y-68883390D02*
X64428571Y-69026247D01*
X64428571Y-69026247D02*
X64476190Y-69216723D01*
X64476190Y-69216723D02*
X64523809Y-69311961D01*
X64523809Y-69311961D02*
X64619047Y-69407200D01*
X64619047Y-69407200D02*
X64761904Y-69454819D01*
X64761904Y-69454819D02*
X64999999Y-69454819D01*
X71595237Y-71454819D02*
X71023809Y-71454819D01*
X71309523Y-72454819D02*
X71309523Y-71454819D01*
X70690475Y-72454819D02*
X70690475Y-71454819D01*
X70690475Y-71454819D02*
X70309523Y-71454819D01*
X70309523Y-71454819D02*
X70214285Y-71502438D01*
X70214285Y-71502438D02*
X70166666Y-71550057D01*
X70166666Y-71550057D02*
X70119047Y-71645295D01*
X70119047Y-71645295D02*
X70119047Y-71788152D01*
X70119047Y-71788152D02*
X70166666Y-71883390D01*
X70166666Y-71883390D02*
X70214285Y-71931009D01*
X70214285Y-71931009D02*
X70309523Y-71978628D01*
X70309523Y-71978628D02*
X70690475Y-71978628D01*
X69261904Y-71788152D02*
X69261904Y-72454819D01*
X69499999Y-71407200D02*
X69738094Y-72121485D01*
X69738094Y-72121485D02*
X69119047Y-72121485D01*
X68023808Y-72169104D02*
X67547618Y-72169104D01*
X68119046Y-72454819D02*
X67785713Y-71454819D01*
X67785713Y-71454819D02*
X67452380Y-72454819D01*
X66595237Y-71502438D02*
X66690475Y-71454819D01*
X66690475Y-71454819D02*
X66833332Y-71454819D01*
X66833332Y-71454819D02*
X66976189Y-71502438D01*
X66976189Y-71502438D02*
X67071427Y-71597676D01*
X67071427Y-71597676D02*
X67119046Y-71692914D01*
X67119046Y-71692914D02*
X67166665Y-71883390D01*
X67166665Y-71883390D02*
X67166665Y-72026247D01*
X67166665Y-72026247D02*
X67119046Y-72216723D01*
X67119046Y-72216723D02*
X67071427Y-72311961D01*
X67071427Y-72311961D02*
X66976189Y-72407200D01*
X66976189Y-72407200D02*
X66833332Y-72454819D01*
X66833332Y-72454819D02*
X66738094Y-72454819D01*
X66738094Y-72454819D02*
X66595237Y-72407200D01*
X66595237Y-72407200D02*
X66547618Y-72359580D01*
X66547618Y-72359580D02*
X66547618Y-72026247D01*
X66547618Y-72026247D02*
X66738094Y-72026247D01*
X66119046Y-72454819D02*
X66119046Y-71454819D01*
X66119046Y-71454819D02*
X65547618Y-72454819D01*
X65547618Y-72454819D02*
X65547618Y-71454819D01*
X65071427Y-72454819D02*
X65071427Y-71454819D01*
X65071427Y-71454819D02*
X64833332Y-71454819D01*
X64833332Y-71454819D02*
X64690475Y-71502438D01*
X64690475Y-71502438D02*
X64595237Y-71597676D01*
X64595237Y-71597676D02*
X64547618Y-71692914D01*
X64547618Y-71692914D02*
X64499999Y-71883390D01*
X64499999Y-71883390D02*
X64499999Y-72026247D01*
X64499999Y-72026247D02*
X64547618Y-72216723D01*
X64547618Y-72216723D02*
X64595237Y-72311961D01*
X64595237Y-72311961D02*
X64690475Y-72407200D01*
X64690475Y-72407200D02*
X64833332Y-72454819D01*
X64833332Y-72454819D02*
X65071427Y-72454819D01*
X71023809Y-74454819D02*
X70452381Y-74454819D01*
X70738095Y-75454819D02*
X70738095Y-74454819D01*
X70119047Y-75454819D02*
X70119047Y-74454819D01*
X70119047Y-74454819D02*
X69738095Y-74454819D01*
X69738095Y-74454819D02*
X69642857Y-74502438D01*
X69642857Y-74502438D02*
X69595238Y-74550057D01*
X69595238Y-74550057D02*
X69547619Y-74645295D01*
X69547619Y-74645295D02*
X69547619Y-74788152D01*
X69547619Y-74788152D02*
X69595238Y-74883390D01*
X69595238Y-74883390D02*
X69642857Y-74931009D01*
X69642857Y-74931009D02*
X69738095Y-74978628D01*
X69738095Y-74978628D02*
X70119047Y-74978628D01*
X68642857Y-74454819D02*
X69119047Y-74454819D01*
X69119047Y-74454819D02*
X69166666Y-74931009D01*
X69166666Y-74931009D02*
X69119047Y-74883390D01*
X69119047Y-74883390D02*
X69023809Y-74835771D01*
X69023809Y-74835771D02*
X68785714Y-74835771D01*
X68785714Y-74835771D02*
X68690476Y-74883390D01*
X68690476Y-74883390D02*
X68642857Y-74931009D01*
X68642857Y-74931009D02*
X68595238Y-75026247D01*
X68595238Y-75026247D02*
X68595238Y-75264342D01*
X68595238Y-75264342D02*
X68642857Y-75359580D01*
X68642857Y-75359580D02*
X68690476Y-75407200D01*
X68690476Y-75407200D02*
X68785714Y-75454819D01*
X68785714Y-75454819D02*
X69023809Y-75454819D01*
X69023809Y-75454819D02*
X69119047Y-75407200D01*
X69119047Y-75407200D02*
X69166666Y-75359580D01*
X67499999Y-74454819D02*
X66880952Y-74454819D01*
X66880952Y-74454819D02*
X67214285Y-74835771D01*
X67214285Y-74835771D02*
X67071428Y-74835771D01*
X67071428Y-74835771D02*
X66976190Y-74883390D01*
X66976190Y-74883390D02*
X66928571Y-74931009D01*
X66928571Y-74931009D02*
X66880952Y-75026247D01*
X66880952Y-75026247D02*
X66880952Y-75264342D01*
X66880952Y-75264342D02*
X66928571Y-75359580D01*
X66928571Y-75359580D02*
X66976190Y-75407200D01*
X66976190Y-75407200D02*
X67071428Y-75454819D01*
X67071428Y-75454819D02*
X67357142Y-75454819D01*
X67357142Y-75454819D02*
X67452380Y-75407200D01*
X67452380Y-75407200D02*
X67499999Y-75359580D01*
X66595237Y-74454819D02*
X66261904Y-75454819D01*
X66261904Y-75454819D02*
X65928571Y-74454819D01*
X65690475Y-74454819D02*
X65071428Y-74454819D01*
X65071428Y-74454819D02*
X65404761Y-74835771D01*
X65404761Y-74835771D02*
X65261904Y-74835771D01*
X65261904Y-74835771D02*
X65166666Y-74883390D01*
X65166666Y-74883390D02*
X65119047Y-74931009D01*
X65119047Y-74931009D02*
X65071428Y-75026247D01*
X65071428Y-75026247D02*
X65071428Y-75264342D01*
X65071428Y-75264342D02*
X65119047Y-75359580D01*
X65119047Y-75359580D02*
X65166666Y-75407200D01*
X65166666Y-75407200D02*
X65261904Y-75454819D01*
X65261904Y-75454819D02*
X65547618Y-75454819D01*
X65547618Y-75454819D02*
X65642856Y-75407200D01*
X65642856Y-75407200D02*
X65690475Y-75359580D01*
X73857142Y-77454819D02*
X73285714Y-77454819D01*
X73571428Y-78454819D02*
X73571428Y-77454819D01*
X72952380Y-78454819D02*
X72952380Y-77454819D01*
X72952380Y-77454819D02*
X72571428Y-77454819D01*
X72571428Y-77454819D02*
X72476190Y-77502438D01*
X72476190Y-77502438D02*
X72428571Y-77550057D01*
X72428571Y-77550057D02*
X72380952Y-77645295D01*
X72380952Y-77645295D02*
X72380952Y-77788152D01*
X72380952Y-77788152D02*
X72428571Y-77883390D01*
X72428571Y-77883390D02*
X72476190Y-77931009D01*
X72476190Y-77931009D02*
X72571428Y-77978628D01*
X72571428Y-77978628D02*
X72952380Y-77978628D01*
X71523809Y-77454819D02*
X71714285Y-77454819D01*
X71714285Y-77454819D02*
X71809523Y-77502438D01*
X71809523Y-77502438D02*
X71857142Y-77550057D01*
X71857142Y-77550057D02*
X71952380Y-77692914D01*
X71952380Y-77692914D02*
X71999999Y-77883390D01*
X71999999Y-77883390D02*
X71999999Y-78264342D01*
X71999999Y-78264342D02*
X71952380Y-78359580D01*
X71952380Y-78359580D02*
X71904761Y-78407200D01*
X71904761Y-78407200D02*
X71809523Y-78454819D01*
X71809523Y-78454819D02*
X71619047Y-78454819D01*
X71619047Y-78454819D02*
X71523809Y-78407200D01*
X71523809Y-78407200D02*
X71476190Y-78359580D01*
X71476190Y-78359580D02*
X71428571Y-78264342D01*
X71428571Y-78264342D02*
X71428571Y-78026247D01*
X71428571Y-78026247D02*
X71476190Y-77931009D01*
X71476190Y-77931009D02*
X71523809Y-77883390D01*
X71523809Y-77883390D02*
X71619047Y-77835771D01*
X71619047Y-77835771D02*
X71809523Y-77835771D01*
X71809523Y-77835771D02*
X71904761Y-77883390D01*
X71904761Y-77883390D02*
X71952380Y-77931009D01*
X71952380Y-77931009D02*
X71999999Y-78026247D01*
X70238094Y-78073866D02*
X69476190Y-78073866D01*
X69857142Y-78454819D02*
X69857142Y-77692914D01*
X68476190Y-78454819D02*
X69047618Y-78454819D01*
X68761904Y-78454819D02*
X68761904Y-77454819D01*
X68761904Y-77454819D02*
X68857142Y-77597676D01*
X68857142Y-77597676D02*
X68952380Y-77692914D01*
X68952380Y-77692914D02*
X69047618Y-77740533D01*
X68095237Y-77550057D02*
X68047618Y-77502438D01*
X68047618Y-77502438D02*
X67952380Y-77454819D01*
X67952380Y-77454819D02*
X67714285Y-77454819D01*
X67714285Y-77454819D02*
X67619047Y-77502438D01*
X67619047Y-77502438D02*
X67571428Y-77550057D01*
X67571428Y-77550057D02*
X67523809Y-77645295D01*
X67523809Y-77645295D02*
X67523809Y-77740533D01*
X67523809Y-77740533D02*
X67571428Y-77883390D01*
X67571428Y-77883390D02*
X68142856Y-78454819D01*
X68142856Y-78454819D02*
X67523809Y-78454819D01*
X67238094Y-77454819D02*
X66904761Y-78454819D01*
X66904761Y-78454819D02*
X66571428Y-77454819D01*
X66476190Y-78550057D02*
X65714285Y-78550057D01*
X65619046Y-77454819D02*
X65047618Y-77454819D01*
X65333332Y-78454819D02*
X65333332Y-77454819D01*
X64761903Y-78169104D02*
X64285713Y-78169104D01*
X64857141Y-78454819D02*
X64523808Y-77454819D01*
X64523808Y-77454819D02*
X64190475Y-78454819D01*
X63285713Y-78359580D02*
X63333332Y-78407200D01*
X63333332Y-78407200D02*
X63476189Y-78454819D01*
X63476189Y-78454819D02*
X63571427Y-78454819D01*
X63571427Y-78454819D02*
X63714284Y-78407200D01*
X63714284Y-78407200D02*
X63809522Y-78311961D01*
X63809522Y-78311961D02*
X63857141Y-78216723D01*
X63857141Y-78216723D02*
X63904760Y-78026247D01*
X63904760Y-78026247D02*
X63904760Y-77883390D01*
X63904760Y-77883390D02*
X63857141Y-77692914D01*
X63857141Y-77692914D02*
X63809522Y-77597676D01*
X63809522Y-77597676D02*
X63714284Y-77502438D01*
X63714284Y-77502438D02*
X63571427Y-77454819D01*
X63571427Y-77454819D02*
X63476189Y-77454819D01*
X63476189Y-77454819D02*
X63333332Y-77502438D01*
X63333332Y-77502438D02*
X63285713Y-77550057D01*
X62857141Y-78454819D02*
X62857141Y-77454819D01*
X62857141Y-77931009D02*
X62285713Y-77931009D01*
X62285713Y-78454819D02*
X62285713Y-77454819D01*
X73380952Y-80454819D02*
X72809524Y-80454819D01*
X73095238Y-81454819D02*
X73095238Y-80454819D01*
X72476190Y-81454819D02*
X72476190Y-80454819D01*
X72476190Y-80454819D02*
X72095238Y-80454819D01*
X72095238Y-80454819D02*
X72000000Y-80502438D01*
X72000000Y-80502438D02*
X71952381Y-80550057D01*
X71952381Y-80550057D02*
X71904762Y-80645295D01*
X71904762Y-80645295D02*
X71904762Y-80788152D01*
X71904762Y-80788152D02*
X71952381Y-80883390D01*
X71952381Y-80883390D02*
X72000000Y-80931009D01*
X72000000Y-80931009D02*
X72095238Y-80978628D01*
X72095238Y-80978628D02*
X72476190Y-80978628D01*
X71571428Y-80454819D02*
X70904762Y-80454819D01*
X70904762Y-80454819D02*
X71333333Y-81454819D01*
X69761904Y-81454819D02*
X69761904Y-80454819D01*
X69761904Y-80454819D02*
X69428571Y-81169104D01*
X69428571Y-81169104D02*
X69095238Y-80454819D01*
X69095238Y-80454819D02*
X69095238Y-81454819D01*
X68047619Y-81359580D02*
X68095238Y-81407200D01*
X68095238Y-81407200D02*
X68238095Y-81454819D01*
X68238095Y-81454819D02*
X68333333Y-81454819D01*
X68333333Y-81454819D02*
X68476190Y-81407200D01*
X68476190Y-81407200D02*
X68571428Y-81311961D01*
X68571428Y-81311961D02*
X68619047Y-81216723D01*
X68619047Y-81216723D02*
X68666666Y-81026247D01*
X68666666Y-81026247D02*
X68666666Y-80883390D01*
X68666666Y-80883390D02*
X68619047Y-80692914D01*
X68619047Y-80692914D02*
X68571428Y-80597676D01*
X68571428Y-80597676D02*
X68476190Y-80502438D01*
X68476190Y-80502438D02*
X68333333Y-80454819D01*
X68333333Y-80454819D02*
X68238095Y-80454819D01*
X68238095Y-80454819D02*
X68095238Y-80502438D01*
X68095238Y-80502438D02*
X68047619Y-80550057D01*
X67285714Y-80931009D02*
X67619047Y-80931009D01*
X67619047Y-81454819D02*
X67619047Y-80454819D01*
X67619047Y-80454819D02*
X67142857Y-80454819D01*
X67000000Y-81550057D02*
X66238095Y-81550057D01*
X66047618Y-81169104D02*
X65571428Y-81169104D01*
X66142856Y-81454819D02*
X65809523Y-80454819D01*
X65809523Y-80454819D02*
X65476190Y-81454819D01*
X65285713Y-80454819D02*
X64952380Y-81454819D01*
X64952380Y-81454819D02*
X64619047Y-80454819D01*
X64285713Y-81454819D02*
X64285713Y-80454819D01*
X64285713Y-80454819D02*
X64047618Y-80454819D01*
X64047618Y-80454819D02*
X63904761Y-80502438D01*
X63904761Y-80502438D02*
X63809523Y-80597676D01*
X63809523Y-80597676D02*
X63761904Y-80692914D01*
X63761904Y-80692914D02*
X63714285Y-80883390D01*
X63714285Y-80883390D02*
X63714285Y-81026247D01*
X63714285Y-81026247D02*
X63761904Y-81216723D01*
X63761904Y-81216723D02*
X63809523Y-81311961D01*
X63809523Y-81311961D02*
X63904761Y-81407200D01*
X63904761Y-81407200D02*
X64047618Y-81454819D01*
X64047618Y-81454819D02*
X64285713Y-81454819D01*
X63285713Y-81454819D02*
X63285713Y-80454819D01*
X63285713Y-80454819D02*
X63047618Y-80454819D01*
X63047618Y-80454819D02*
X62904761Y-80502438D01*
X62904761Y-80502438D02*
X62809523Y-80597676D01*
X62809523Y-80597676D02*
X62761904Y-80692914D01*
X62761904Y-80692914D02*
X62714285Y-80883390D01*
X62714285Y-80883390D02*
X62714285Y-81026247D01*
X62714285Y-81026247D02*
X62761904Y-81216723D01*
X62761904Y-81216723D02*
X62809523Y-81311961D01*
X62809523Y-81311961D02*
X62904761Y-81407200D01*
X62904761Y-81407200D02*
X63047618Y-81454819D01*
X63047618Y-81454819D02*
X63285713Y-81454819D01*
X73452380Y-83454819D02*
X72880952Y-83454819D01*
X73166666Y-84454819D02*
X73166666Y-83454819D01*
X72547618Y-84454819D02*
X72547618Y-83454819D01*
X72547618Y-83454819D02*
X72166666Y-83454819D01*
X72166666Y-83454819D02*
X72071428Y-83502438D01*
X72071428Y-83502438D02*
X72023809Y-83550057D01*
X72023809Y-83550057D02*
X71976190Y-83645295D01*
X71976190Y-83645295D02*
X71976190Y-83788152D01*
X71976190Y-83788152D02*
X72023809Y-83883390D01*
X72023809Y-83883390D02*
X72071428Y-83931009D01*
X72071428Y-83931009D02*
X72166666Y-83978628D01*
X72166666Y-83978628D02*
X72547618Y-83978628D01*
X71404761Y-83883390D02*
X71499999Y-83835771D01*
X71499999Y-83835771D02*
X71547618Y-83788152D01*
X71547618Y-83788152D02*
X71595237Y-83692914D01*
X71595237Y-83692914D02*
X71595237Y-83645295D01*
X71595237Y-83645295D02*
X71547618Y-83550057D01*
X71547618Y-83550057D02*
X71499999Y-83502438D01*
X71499999Y-83502438D02*
X71404761Y-83454819D01*
X71404761Y-83454819D02*
X71214285Y-83454819D01*
X71214285Y-83454819D02*
X71119047Y-83502438D01*
X71119047Y-83502438D02*
X71071428Y-83550057D01*
X71071428Y-83550057D02*
X71023809Y-83645295D01*
X71023809Y-83645295D02*
X71023809Y-83692914D01*
X71023809Y-83692914D02*
X71071428Y-83788152D01*
X71071428Y-83788152D02*
X71119047Y-83835771D01*
X71119047Y-83835771D02*
X71214285Y-83883390D01*
X71214285Y-83883390D02*
X71404761Y-83883390D01*
X71404761Y-83883390D02*
X71499999Y-83931009D01*
X71499999Y-83931009D02*
X71547618Y-83978628D01*
X71547618Y-83978628D02*
X71595237Y-84073866D01*
X71595237Y-84073866D02*
X71595237Y-84264342D01*
X71595237Y-84264342D02*
X71547618Y-84359580D01*
X71547618Y-84359580D02*
X71499999Y-84407200D01*
X71499999Y-84407200D02*
X71404761Y-84454819D01*
X71404761Y-84454819D02*
X71214285Y-84454819D01*
X71214285Y-84454819D02*
X71119047Y-84407200D01*
X71119047Y-84407200D02*
X71071428Y-84359580D01*
X71071428Y-84359580D02*
X71023809Y-84264342D01*
X71023809Y-84264342D02*
X71023809Y-84073866D01*
X71023809Y-84073866D02*
X71071428Y-83978628D01*
X71071428Y-83978628D02*
X71119047Y-83931009D01*
X71119047Y-83931009D02*
X71214285Y-83883390D01*
X69833332Y-84454819D02*
X69833332Y-83454819D01*
X69833332Y-83454819D02*
X69499999Y-84169104D01*
X69499999Y-84169104D02*
X69166666Y-83454819D01*
X69166666Y-83454819D02*
X69166666Y-84454819D01*
X68119047Y-84359580D02*
X68166666Y-84407200D01*
X68166666Y-84407200D02*
X68309523Y-84454819D01*
X68309523Y-84454819D02*
X68404761Y-84454819D01*
X68404761Y-84454819D02*
X68547618Y-84407200D01*
X68547618Y-84407200D02*
X68642856Y-84311961D01*
X68642856Y-84311961D02*
X68690475Y-84216723D01*
X68690475Y-84216723D02*
X68738094Y-84026247D01*
X68738094Y-84026247D02*
X68738094Y-83883390D01*
X68738094Y-83883390D02*
X68690475Y-83692914D01*
X68690475Y-83692914D02*
X68642856Y-83597676D01*
X68642856Y-83597676D02*
X68547618Y-83502438D01*
X68547618Y-83502438D02*
X68404761Y-83454819D01*
X68404761Y-83454819D02*
X68309523Y-83454819D01*
X68309523Y-83454819D02*
X68166666Y-83502438D01*
X68166666Y-83502438D02*
X68119047Y-83550057D01*
X67357142Y-83931009D02*
X67690475Y-83931009D01*
X67690475Y-84454819D02*
X67690475Y-83454819D01*
X67690475Y-83454819D02*
X67214285Y-83454819D01*
X67071428Y-84550057D02*
X66309523Y-84550057D01*
X66071427Y-84454819D02*
X66071427Y-83454819D01*
X66071427Y-83454819D02*
X65833332Y-83454819D01*
X65833332Y-83454819D02*
X65690475Y-83502438D01*
X65690475Y-83502438D02*
X65595237Y-83597676D01*
X65595237Y-83597676D02*
X65547618Y-83692914D01*
X65547618Y-83692914D02*
X65499999Y-83883390D01*
X65499999Y-83883390D02*
X65499999Y-84026247D01*
X65499999Y-84026247D02*
X65547618Y-84216723D01*
X65547618Y-84216723D02*
X65595237Y-84311961D01*
X65595237Y-84311961D02*
X65690475Y-84407200D01*
X65690475Y-84407200D02*
X65833332Y-84454819D01*
X65833332Y-84454819D02*
X66071427Y-84454819D01*
X65214284Y-83454819D02*
X64880951Y-84454819D01*
X64880951Y-84454819D02*
X64547618Y-83454819D01*
X64214284Y-84454819D02*
X64214284Y-83454819D01*
X64214284Y-83454819D02*
X63976189Y-83454819D01*
X63976189Y-83454819D02*
X63833332Y-83502438D01*
X63833332Y-83502438D02*
X63738094Y-83597676D01*
X63738094Y-83597676D02*
X63690475Y-83692914D01*
X63690475Y-83692914D02*
X63642856Y-83883390D01*
X63642856Y-83883390D02*
X63642856Y-84026247D01*
X63642856Y-84026247D02*
X63690475Y-84216723D01*
X63690475Y-84216723D02*
X63738094Y-84311961D01*
X63738094Y-84311961D02*
X63833332Y-84407200D01*
X63833332Y-84407200D02*
X63976189Y-84454819D01*
X63976189Y-84454819D02*
X64214284Y-84454819D01*
X63214284Y-84454819D02*
X63214284Y-83454819D01*
X63214284Y-83454819D02*
X62976189Y-83454819D01*
X62976189Y-83454819D02*
X62833332Y-83502438D01*
X62833332Y-83502438D02*
X62738094Y-83597676D01*
X62738094Y-83597676D02*
X62690475Y-83692914D01*
X62690475Y-83692914D02*
X62642856Y-83883390D01*
X62642856Y-83883390D02*
X62642856Y-84026247D01*
X62642856Y-84026247D02*
X62690475Y-84216723D01*
X62690475Y-84216723D02*
X62738094Y-84311961D01*
X62738094Y-84311961D02*
X62833332Y-84407200D01*
X62833332Y-84407200D02*
X62976189Y-84454819D01*
X62976189Y-84454819D02*
X63214284Y-84454819D01*
X72190475Y-86454819D02*
X71619047Y-86454819D01*
X71904761Y-87454819D02*
X71904761Y-86454819D01*
X71285713Y-87454819D02*
X71285713Y-86454819D01*
X71285713Y-86454819D02*
X70904761Y-86454819D01*
X70904761Y-86454819D02*
X70809523Y-86502438D01*
X70809523Y-86502438D02*
X70761904Y-86550057D01*
X70761904Y-86550057D02*
X70714285Y-86645295D01*
X70714285Y-86645295D02*
X70714285Y-86788152D01*
X70714285Y-86788152D02*
X70761904Y-86883390D01*
X70761904Y-86883390D02*
X70809523Y-86931009D01*
X70809523Y-86931009D02*
X70904761Y-86978628D01*
X70904761Y-86978628D02*
X71285713Y-86978628D01*
X70238094Y-87454819D02*
X70047618Y-87454819D01*
X70047618Y-87454819D02*
X69952380Y-87407200D01*
X69952380Y-87407200D02*
X69904761Y-87359580D01*
X69904761Y-87359580D02*
X69809523Y-87216723D01*
X69809523Y-87216723D02*
X69761904Y-87026247D01*
X69761904Y-87026247D02*
X69761904Y-86645295D01*
X69761904Y-86645295D02*
X69809523Y-86550057D01*
X69809523Y-86550057D02*
X69857142Y-86502438D01*
X69857142Y-86502438D02*
X69952380Y-86454819D01*
X69952380Y-86454819D02*
X70142856Y-86454819D01*
X70142856Y-86454819D02*
X70238094Y-86502438D01*
X70238094Y-86502438D02*
X70285713Y-86550057D01*
X70285713Y-86550057D02*
X70333332Y-86645295D01*
X70333332Y-86645295D02*
X70333332Y-86883390D01*
X70333332Y-86883390D02*
X70285713Y-86978628D01*
X70285713Y-86978628D02*
X70238094Y-87026247D01*
X70238094Y-87026247D02*
X70142856Y-87073866D01*
X70142856Y-87073866D02*
X69952380Y-87073866D01*
X69952380Y-87073866D02*
X69857142Y-87026247D01*
X69857142Y-87026247D02*
X69809523Y-86978628D01*
X69809523Y-86978628D02*
X69761904Y-86883390D01*
X68571427Y-87454819D02*
X68571427Y-86454819D01*
X68571427Y-86454819D02*
X68190475Y-86454819D01*
X68190475Y-86454819D02*
X68095237Y-86502438D01*
X68095237Y-86502438D02*
X68047618Y-86550057D01*
X68047618Y-86550057D02*
X67999999Y-86645295D01*
X67999999Y-86645295D02*
X67999999Y-86788152D01*
X67999999Y-86788152D02*
X68047618Y-86883390D01*
X68047618Y-86883390D02*
X68095237Y-86931009D01*
X68095237Y-86931009D02*
X68190475Y-86978628D01*
X68190475Y-86978628D02*
X68571427Y-86978628D01*
X67047618Y-86502438D02*
X67142856Y-86454819D01*
X67142856Y-86454819D02*
X67285713Y-86454819D01*
X67285713Y-86454819D02*
X67428570Y-86502438D01*
X67428570Y-86502438D02*
X67523808Y-86597676D01*
X67523808Y-86597676D02*
X67571427Y-86692914D01*
X67571427Y-86692914D02*
X67619046Y-86883390D01*
X67619046Y-86883390D02*
X67619046Y-87026247D01*
X67619046Y-87026247D02*
X67571427Y-87216723D01*
X67571427Y-87216723D02*
X67523808Y-87311961D01*
X67523808Y-87311961D02*
X67428570Y-87407200D01*
X67428570Y-87407200D02*
X67285713Y-87454819D01*
X67285713Y-87454819D02*
X67190475Y-87454819D01*
X67190475Y-87454819D02*
X67047618Y-87407200D01*
X67047618Y-87407200D02*
X66999999Y-87359580D01*
X66999999Y-87359580D02*
X66999999Y-87026247D01*
X66999999Y-87026247D02*
X67190475Y-87026247D01*
X66380951Y-86454819D02*
X66190475Y-86454819D01*
X66190475Y-86454819D02*
X66095237Y-86502438D01*
X66095237Y-86502438D02*
X65999999Y-86597676D01*
X65999999Y-86597676D02*
X65952380Y-86788152D01*
X65952380Y-86788152D02*
X65952380Y-87121485D01*
X65952380Y-87121485D02*
X65999999Y-87311961D01*
X65999999Y-87311961D02*
X66095237Y-87407200D01*
X66095237Y-87407200D02*
X66190475Y-87454819D01*
X66190475Y-87454819D02*
X66380951Y-87454819D01*
X66380951Y-87454819D02*
X66476189Y-87407200D01*
X66476189Y-87407200D02*
X66571427Y-87311961D01*
X66571427Y-87311961D02*
X66619046Y-87121485D01*
X66619046Y-87121485D02*
X66619046Y-86788152D01*
X66619046Y-86788152D02*
X66571427Y-86597676D01*
X66571427Y-86597676D02*
X66476189Y-86502438D01*
X66476189Y-86502438D02*
X66380951Y-86454819D01*
X65333332Y-86454819D02*
X65142856Y-86454819D01*
X65142856Y-86454819D02*
X65047618Y-86502438D01*
X65047618Y-86502438D02*
X64952380Y-86597676D01*
X64952380Y-86597676D02*
X64904761Y-86788152D01*
X64904761Y-86788152D02*
X64904761Y-87121485D01*
X64904761Y-87121485D02*
X64952380Y-87311961D01*
X64952380Y-87311961D02*
X65047618Y-87407200D01*
X65047618Y-87407200D02*
X65142856Y-87454819D01*
X65142856Y-87454819D02*
X65333332Y-87454819D01*
X65333332Y-87454819D02*
X65428570Y-87407200D01*
X65428570Y-87407200D02*
X65523808Y-87311961D01*
X65523808Y-87311961D02*
X65571427Y-87121485D01*
X65571427Y-87121485D02*
X65571427Y-86788152D01*
X65571427Y-86788152D02*
X65523808Y-86597676D01*
X65523808Y-86597676D02*
X65428570Y-86502438D01*
X65428570Y-86502438D02*
X65333332Y-86454819D01*
X64476189Y-87454819D02*
X64476189Y-86454819D01*
X64476189Y-86454819D02*
X64238094Y-86454819D01*
X64238094Y-86454819D02*
X64095237Y-86502438D01*
X64095237Y-86502438D02*
X63999999Y-86597676D01*
X63999999Y-86597676D02*
X63952380Y-86692914D01*
X63952380Y-86692914D02*
X63904761Y-86883390D01*
X63904761Y-86883390D02*
X63904761Y-87026247D01*
X63904761Y-87026247D02*
X63952380Y-87216723D01*
X63952380Y-87216723D02*
X63999999Y-87311961D01*
X63999999Y-87311961D02*
X64095237Y-87407200D01*
X64095237Y-87407200D02*
X64238094Y-87454819D01*
X64238094Y-87454819D02*
X64476189Y-87454819D01*
X74309523Y-89454819D02*
X73738095Y-89454819D01*
X74023809Y-90454819D02*
X74023809Y-89454819D01*
X73404761Y-90454819D02*
X73404761Y-89454819D01*
X73404761Y-89454819D02*
X73023809Y-89454819D01*
X73023809Y-89454819D02*
X72928571Y-89502438D01*
X72928571Y-89502438D02*
X72880952Y-89550057D01*
X72880952Y-89550057D02*
X72833333Y-89645295D01*
X72833333Y-89645295D02*
X72833333Y-89788152D01*
X72833333Y-89788152D02*
X72880952Y-89883390D01*
X72880952Y-89883390D02*
X72928571Y-89931009D01*
X72928571Y-89931009D02*
X73023809Y-89978628D01*
X73023809Y-89978628D02*
X73404761Y-89978628D01*
X71880952Y-90454819D02*
X72452380Y-90454819D01*
X72166666Y-90454819D02*
X72166666Y-89454819D01*
X72166666Y-89454819D02*
X72261904Y-89597676D01*
X72261904Y-89597676D02*
X72357142Y-89692914D01*
X72357142Y-89692914D02*
X72452380Y-89740533D01*
X71261904Y-89454819D02*
X71166666Y-89454819D01*
X71166666Y-89454819D02*
X71071428Y-89502438D01*
X71071428Y-89502438D02*
X71023809Y-89550057D01*
X71023809Y-89550057D02*
X70976190Y-89645295D01*
X70976190Y-89645295D02*
X70928571Y-89835771D01*
X70928571Y-89835771D02*
X70928571Y-90073866D01*
X70928571Y-90073866D02*
X70976190Y-90264342D01*
X70976190Y-90264342D02*
X71023809Y-90359580D01*
X71023809Y-90359580D02*
X71071428Y-90407200D01*
X71071428Y-90407200D02*
X71166666Y-90454819D01*
X71166666Y-90454819D02*
X71261904Y-90454819D01*
X71261904Y-90454819D02*
X71357142Y-90407200D01*
X71357142Y-90407200D02*
X71404761Y-90359580D01*
X71404761Y-90359580D02*
X71452380Y-90264342D01*
X71452380Y-90264342D02*
X71499999Y-90073866D01*
X71499999Y-90073866D02*
X71499999Y-89835771D01*
X71499999Y-89835771D02*
X71452380Y-89645295D01*
X71452380Y-89645295D02*
X71404761Y-89550057D01*
X71404761Y-89550057D02*
X71357142Y-89502438D01*
X71357142Y-89502438D02*
X71261904Y-89454819D01*
X69738094Y-89454819D02*
X69738094Y-90264342D01*
X69738094Y-90264342D02*
X69690475Y-90359580D01*
X69690475Y-90359580D02*
X69642856Y-90407200D01*
X69642856Y-90407200D02*
X69547618Y-90454819D01*
X69547618Y-90454819D02*
X69357142Y-90454819D01*
X69357142Y-90454819D02*
X69261904Y-90407200D01*
X69261904Y-90407200D02*
X69214285Y-90359580D01*
X69214285Y-90359580D02*
X69166666Y-90264342D01*
X69166666Y-90264342D02*
X69166666Y-89454819D01*
X68214285Y-89454819D02*
X68690475Y-89454819D01*
X68690475Y-89454819D02*
X68738094Y-89931009D01*
X68738094Y-89931009D02*
X68690475Y-89883390D01*
X68690475Y-89883390D02*
X68595237Y-89835771D01*
X68595237Y-89835771D02*
X68357142Y-89835771D01*
X68357142Y-89835771D02*
X68261904Y-89883390D01*
X68261904Y-89883390D02*
X68214285Y-89931009D01*
X68214285Y-89931009D02*
X68166666Y-90026247D01*
X68166666Y-90026247D02*
X68166666Y-90264342D01*
X68166666Y-90264342D02*
X68214285Y-90359580D01*
X68214285Y-90359580D02*
X68261904Y-90407200D01*
X68261904Y-90407200D02*
X68357142Y-90454819D01*
X68357142Y-90454819D02*
X68595237Y-90454819D01*
X68595237Y-90454819D02*
X68690475Y-90407200D01*
X68690475Y-90407200D02*
X68738094Y-90359580D01*
X67976190Y-90550057D02*
X67214285Y-90550057D01*
X66404761Y-90359580D02*
X66452380Y-90407200D01*
X66452380Y-90407200D02*
X66595237Y-90454819D01*
X66595237Y-90454819D02*
X66690475Y-90454819D01*
X66690475Y-90454819D02*
X66833332Y-90407200D01*
X66833332Y-90407200D02*
X66928570Y-90311961D01*
X66928570Y-90311961D02*
X66976189Y-90216723D01*
X66976189Y-90216723D02*
X67023808Y-90026247D01*
X67023808Y-90026247D02*
X67023808Y-89883390D01*
X67023808Y-89883390D02*
X66976189Y-89692914D01*
X66976189Y-89692914D02*
X66928570Y-89597676D01*
X66928570Y-89597676D02*
X66833332Y-89502438D01*
X66833332Y-89502438D02*
X66690475Y-89454819D01*
X66690475Y-89454819D02*
X66595237Y-89454819D01*
X66595237Y-89454819D02*
X66452380Y-89502438D01*
X66452380Y-89502438D02*
X66404761Y-89550057D01*
X65499999Y-90454819D02*
X65976189Y-90454819D01*
X65976189Y-90454819D02*
X65976189Y-89454819D01*
X64595237Y-90454819D02*
X64928570Y-89978628D01*
X65166665Y-90454819D02*
X65166665Y-89454819D01*
X65166665Y-89454819D02*
X64785713Y-89454819D01*
X64785713Y-89454819D02*
X64690475Y-89502438D01*
X64690475Y-89502438D02*
X64642856Y-89550057D01*
X64642856Y-89550057D02*
X64595237Y-89645295D01*
X64595237Y-89645295D02*
X64595237Y-89788152D01*
X64595237Y-89788152D02*
X64642856Y-89883390D01*
X64642856Y-89883390D02*
X64690475Y-89931009D01*
X64690475Y-89931009D02*
X64785713Y-89978628D01*
X64785713Y-89978628D02*
X65166665Y-89978628D01*
X64404761Y-90550057D02*
X63642856Y-90550057D01*
X63214284Y-89454819D02*
X63023808Y-89454819D01*
X63023808Y-89454819D02*
X62928570Y-89502438D01*
X62928570Y-89502438D02*
X62833332Y-89597676D01*
X62833332Y-89597676D02*
X62785713Y-89788152D01*
X62785713Y-89788152D02*
X62785713Y-90121485D01*
X62785713Y-90121485D02*
X62833332Y-90311961D01*
X62833332Y-90311961D02*
X62928570Y-90407200D01*
X62928570Y-90407200D02*
X63023808Y-90454819D01*
X63023808Y-90454819D02*
X63214284Y-90454819D01*
X63214284Y-90454819D02*
X63309522Y-90407200D01*
X63309522Y-90407200D02*
X63404760Y-90311961D01*
X63404760Y-90311961D02*
X63452379Y-90121485D01*
X63452379Y-90121485D02*
X63452379Y-89788152D01*
X63452379Y-89788152D02*
X63404760Y-89597676D01*
X63404760Y-89597676D02*
X63309522Y-89502438D01*
X63309522Y-89502438D02*
X63214284Y-89454819D01*
X61785713Y-90454819D02*
X62119046Y-89978628D01*
X62357141Y-90454819D02*
X62357141Y-89454819D01*
X62357141Y-89454819D02*
X61976189Y-89454819D01*
X61976189Y-89454819D02*
X61880951Y-89502438D01*
X61880951Y-89502438D02*
X61833332Y-89550057D01*
X61833332Y-89550057D02*
X61785713Y-89645295D01*
X61785713Y-89645295D02*
X61785713Y-89788152D01*
X61785713Y-89788152D02*
X61833332Y-89883390D01*
X61833332Y-89883390D02*
X61880951Y-89931009D01*
X61880951Y-89931009D02*
X61976189Y-89978628D01*
X61976189Y-89978628D02*
X62357141Y-89978628D01*
X72023809Y-92454819D02*
X71452381Y-92454819D01*
X71738095Y-93454819D02*
X71738095Y-92454819D01*
X71119047Y-93454819D02*
X71119047Y-92454819D01*
X71119047Y-92454819D02*
X70738095Y-92454819D01*
X70738095Y-92454819D02*
X70642857Y-92502438D01*
X70642857Y-92502438D02*
X70595238Y-92550057D01*
X70595238Y-92550057D02*
X70547619Y-92645295D01*
X70547619Y-92645295D02*
X70547619Y-92788152D01*
X70547619Y-92788152D02*
X70595238Y-92883390D01*
X70595238Y-92883390D02*
X70642857Y-92931009D01*
X70642857Y-92931009D02*
X70738095Y-92978628D01*
X70738095Y-92978628D02*
X71119047Y-92978628D01*
X69595238Y-93454819D02*
X70166666Y-93454819D01*
X69880952Y-93454819D02*
X69880952Y-92454819D01*
X69880952Y-92454819D02*
X69976190Y-92597676D01*
X69976190Y-92597676D02*
X70071428Y-92692914D01*
X70071428Y-92692914D02*
X70166666Y-92740533D01*
X68642857Y-93454819D02*
X69214285Y-93454819D01*
X68928571Y-93454819D02*
X68928571Y-92454819D01*
X68928571Y-92454819D02*
X69023809Y-92597676D01*
X69023809Y-92597676D02*
X69119047Y-92692914D01*
X69119047Y-92692914D02*
X69214285Y-92740533D01*
X67452380Y-92454819D02*
X67452380Y-93264342D01*
X67452380Y-93264342D02*
X67404761Y-93359580D01*
X67404761Y-93359580D02*
X67357142Y-93407200D01*
X67357142Y-93407200D02*
X67261904Y-93454819D01*
X67261904Y-93454819D02*
X67071428Y-93454819D01*
X67071428Y-93454819D02*
X66976190Y-93407200D01*
X66976190Y-93407200D02*
X66928571Y-93359580D01*
X66928571Y-93359580D02*
X66880952Y-93264342D01*
X66880952Y-93264342D02*
X66880952Y-92454819D01*
X65928571Y-92454819D02*
X66404761Y-92454819D01*
X66404761Y-92454819D02*
X66452380Y-92931009D01*
X66452380Y-92931009D02*
X66404761Y-92883390D01*
X66404761Y-92883390D02*
X66309523Y-92835771D01*
X66309523Y-92835771D02*
X66071428Y-92835771D01*
X66071428Y-92835771D02*
X65976190Y-92883390D01*
X65976190Y-92883390D02*
X65928571Y-92931009D01*
X65928571Y-92931009D02*
X65880952Y-93026247D01*
X65880952Y-93026247D02*
X65880952Y-93264342D01*
X65880952Y-93264342D02*
X65928571Y-93359580D01*
X65928571Y-93359580D02*
X65976190Y-93407200D01*
X65976190Y-93407200D02*
X66071428Y-93454819D01*
X66071428Y-93454819D02*
X66309523Y-93454819D01*
X66309523Y-93454819D02*
X66404761Y-93407200D01*
X66404761Y-93407200D02*
X66452380Y-93359580D01*
X65690476Y-93550057D02*
X64928571Y-93550057D01*
X64023809Y-93550057D02*
X64119047Y-93502438D01*
X64119047Y-93502438D02*
X64214285Y-93407200D01*
X64214285Y-93407200D02*
X64357142Y-93264342D01*
X64357142Y-93264342D02*
X64452380Y-93216723D01*
X64452380Y-93216723D02*
X64547618Y-93216723D01*
X64499999Y-93454819D02*
X64595237Y-93407200D01*
X64595237Y-93407200D02*
X64690475Y-93311961D01*
X64690475Y-93311961D02*
X64738094Y-93121485D01*
X64738094Y-93121485D02*
X64738094Y-92788152D01*
X64738094Y-92788152D02*
X64690475Y-92597676D01*
X64690475Y-92597676D02*
X64595237Y-92502438D01*
X64595237Y-92502438D02*
X64499999Y-92454819D01*
X64499999Y-92454819D02*
X64309523Y-92454819D01*
X64309523Y-92454819D02*
X64214285Y-92502438D01*
X64214285Y-92502438D02*
X64119047Y-92597676D01*
X64119047Y-92597676D02*
X64071428Y-92788152D01*
X64071428Y-92788152D02*
X64071428Y-93121485D01*
X64071428Y-93121485D02*
X64119047Y-93311961D01*
X64119047Y-93311961D02*
X64214285Y-93407200D01*
X64214285Y-93407200D02*
X64309523Y-93454819D01*
X64309523Y-93454819D02*
X64499999Y-93454819D01*
X83571428Y-99454819D02*
X83380952Y-99454819D01*
X83380952Y-99454819D02*
X83285714Y-99502438D01*
X83285714Y-99502438D02*
X83190476Y-99597676D01*
X83190476Y-99597676D02*
X83142857Y-99788152D01*
X83142857Y-99788152D02*
X83142857Y-100121485D01*
X83142857Y-100121485D02*
X83190476Y-100311961D01*
X83190476Y-100311961D02*
X83285714Y-100407200D01*
X83285714Y-100407200D02*
X83380952Y-100454819D01*
X83380952Y-100454819D02*
X83571428Y-100454819D01*
X83571428Y-100454819D02*
X83666666Y-100407200D01*
X83666666Y-100407200D02*
X83761904Y-100311961D01*
X83761904Y-100311961D02*
X83809523Y-100121485D01*
X83809523Y-100121485D02*
X83809523Y-99788152D01*
X83809523Y-99788152D02*
X83761904Y-99597676D01*
X83761904Y-99597676D02*
X83666666Y-99502438D01*
X83666666Y-99502438D02*
X83571428Y-99454819D01*
X82857142Y-99454819D02*
X82523809Y-100454819D01*
X82523809Y-100454819D02*
X82190476Y-99454819D01*
X81857142Y-99931009D02*
X81523809Y-99931009D01*
X81380952Y-100454819D02*
X81857142Y-100454819D01*
X81857142Y-100454819D02*
X81857142Y-99454819D01*
X81857142Y-99454819D02*
X81380952Y-99454819D01*
X80380952Y-100454819D02*
X80714285Y-99978628D01*
X80952380Y-100454819D02*
X80952380Y-99454819D01*
X80952380Y-99454819D02*
X80571428Y-99454819D01*
X80571428Y-99454819D02*
X80476190Y-99502438D01*
X80476190Y-99502438D02*
X80428571Y-99550057D01*
X80428571Y-99550057D02*
X80380952Y-99645295D01*
X80380952Y-99645295D02*
X80380952Y-99788152D01*
X80380952Y-99788152D02*
X80428571Y-99883390D01*
X80428571Y-99883390D02*
X80476190Y-99931009D01*
X80476190Y-99931009D02*
X80571428Y-99978628D01*
X80571428Y-99978628D02*
X80952380Y-99978628D01*
X79999999Y-100407200D02*
X79857142Y-100454819D01*
X79857142Y-100454819D02*
X79619047Y-100454819D01*
X79619047Y-100454819D02*
X79523809Y-100407200D01*
X79523809Y-100407200D02*
X79476190Y-100359580D01*
X79476190Y-100359580D02*
X79428571Y-100264342D01*
X79428571Y-100264342D02*
X79428571Y-100169104D01*
X79428571Y-100169104D02*
X79476190Y-100073866D01*
X79476190Y-100073866D02*
X79523809Y-100026247D01*
X79523809Y-100026247D02*
X79619047Y-99978628D01*
X79619047Y-99978628D02*
X79809523Y-99931009D01*
X79809523Y-99931009D02*
X79904761Y-99883390D01*
X79904761Y-99883390D02*
X79952380Y-99835771D01*
X79952380Y-99835771D02*
X79999999Y-99740533D01*
X79999999Y-99740533D02*
X79999999Y-99645295D01*
X79999999Y-99645295D02*
X79952380Y-99550057D01*
X79952380Y-99550057D02*
X79904761Y-99502438D01*
X79904761Y-99502438D02*
X79809523Y-99454819D01*
X79809523Y-99454819D02*
X79571428Y-99454819D01*
X79571428Y-99454819D02*
X79428571Y-99502438D01*
X78999999Y-100454819D02*
X78999999Y-99454819D01*
X78999999Y-99454819D02*
X78619047Y-99454819D01*
X78619047Y-99454819D02*
X78523809Y-99502438D01*
X78523809Y-99502438D02*
X78476190Y-99550057D01*
X78476190Y-99550057D02*
X78428571Y-99645295D01*
X78428571Y-99645295D02*
X78428571Y-99788152D01*
X78428571Y-99788152D02*
X78476190Y-99883390D01*
X78476190Y-99883390D02*
X78523809Y-99931009D01*
X78523809Y-99931009D02*
X78619047Y-99978628D01*
X78619047Y-99978628D02*
X78999999Y-99978628D01*
X77999999Y-99931009D02*
X77666666Y-99931009D01*
X77523809Y-100454819D02*
X77999999Y-100454819D01*
X77999999Y-100454819D02*
X77999999Y-99454819D01*
X77999999Y-99454819D02*
X77523809Y-99454819D01*
X77095237Y-99931009D02*
X76761904Y-99931009D01*
X76619047Y-100454819D02*
X77095237Y-100454819D01*
X77095237Y-100454819D02*
X77095237Y-99454819D01*
X77095237Y-99454819D02*
X76619047Y-99454819D01*
X76190475Y-100454819D02*
X76190475Y-99454819D01*
X76190475Y-99454819D02*
X75952380Y-99454819D01*
X75952380Y-99454819D02*
X75809523Y-99502438D01*
X75809523Y-99502438D02*
X75714285Y-99597676D01*
X75714285Y-99597676D02*
X75666666Y-99692914D01*
X75666666Y-99692914D02*
X75619047Y-99883390D01*
X75619047Y-99883390D02*
X75619047Y-100026247D01*
X75619047Y-100026247D02*
X75666666Y-100216723D01*
X75666666Y-100216723D02*
X75714285Y-100311961D01*
X75714285Y-100311961D02*
X75809523Y-100407200D01*
X75809523Y-100407200D02*
X75952380Y-100454819D01*
X75952380Y-100454819D02*
X76190475Y-100454819D01*
X73857142Y-100359580D02*
X73904761Y-100407200D01*
X73904761Y-100407200D02*
X74047618Y-100454819D01*
X74047618Y-100454819D02*
X74142856Y-100454819D01*
X74142856Y-100454819D02*
X74285713Y-100407200D01*
X74285713Y-100407200D02*
X74380951Y-100311961D01*
X74380951Y-100311961D02*
X74428570Y-100216723D01*
X74428570Y-100216723D02*
X74476189Y-100026247D01*
X74476189Y-100026247D02*
X74476189Y-99883390D01*
X74476189Y-99883390D02*
X74428570Y-99692914D01*
X74428570Y-99692914D02*
X74380951Y-99597676D01*
X74380951Y-99597676D02*
X74285713Y-99502438D01*
X74285713Y-99502438D02*
X74142856Y-99454819D01*
X74142856Y-99454819D02*
X74047618Y-99454819D01*
X74047618Y-99454819D02*
X73904761Y-99502438D01*
X73904761Y-99502438D02*
X73857142Y-99550057D01*
X73476189Y-100169104D02*
X72999999Y-100169104D01*
X73571427Y-100454819D02*
X73238094Y-99454819D01*
X73238094Y-99454819D02*
X72904761Y-100454819D01*
X72095237Y-100454819D02*
X72571427Y-100454819D01*
X72571427Y-100454819D02*
X72571427Y-99454819D01*
X87095237Y-62454819D02*
X86523809Y-62454819D01*
X86809523Y-63454819D02*
X86809523Y-62454819D01*
X86190475Y-63454819D02*
X86190475Y-62454819D01*
X86190475Y-62454819D02*
X85809523Y-62454819D01*
X85809523Y-62454819D02*
X85714285Y-62502438D01*
X85714285Y-62502438D02*
X85666666Y-62550057D01*
X85666666Y-62550057D02*
X85619047Y-62645295D01*
X85619047Y-62645295D02*
X85619047Y-62788152D01*
X85619047Y-62788152D02*
X85666666Y-62883390D01*
X85666666Y-62883390D02*
X85714285Y-62931009D01*
X85714285Y-62931009D02*
X85809523Y-62978628D01*
X85809523Y-62978628D02*
X86190475Y-62978628D01*
X84666666Y-63454819D02*
X85238094Y-63454819D01*
X84952380Y-63454819D02*
X84952380Y-62454819D01*
X84952380Y-62454819D02*
X85047618Y-62597676D01*
X85047618Y-62597676D02*
X85142856Y-62692914D01*
X85142856Y-62692914D02*
X85238094Y-62740533D01*
X82904761Y-63454819D02*
X83238094Y-62978628D01*
X83476189Y-63454819D02*
X83476189Y-62454819D01*
X83476189Y-62454819D02*
X83095237Y-62454819D01*
X83095237Y-62454819D02*
X82999999Y-62502438D01*
X82999999Y-62502438D02*
X82952380Y-62550057D01*
X82952380Y-62550057D02*
X82904761Y-62645295D01*
X82904761Y-62645295D02*
X82904761Y-62788152D01*
X82904761Y-62788152D02*
X82952380Y-62883390D01*
X82952380Y-62883390D02*
X82999999Y-62931009D01*
X82999999Y-62931009D02*
X83095237Y-62978628D01*
X83095237Y-62978628D02*
X83476189Y-62978628D01*
X82523808Y-63169104D02*
X82047618Y-63169104D01*
X82619046Y-63454819D02*
X82285713Y-62454819D01*
X82285713Y-62454819D02*
X81952380Y-63454819D01*
X81714284Y-62454819D02*
X81476189Y-63454819D01*
X81476189Y-63454819D02*
X81285713Y-62740533D01*
X81285713Y-62740533D02*
X81095237Y-63454819D01*
X81095237Y-63454819D02*
X80857142Y-62454819D01*
X80523808Y-62550057D02*
X80476189Y-62502438D01*
X80476189Y-62502438D02*
X80380951Y-62454819D01*
X80380951Y-62454819D02*
X80142856Y-62454819D01*
X80142856Y-62454819D02*
X80047618Y-62502438D01*
X80047618Y-62502438D02*
X79999999Y-62550057D01*
X79999999Y-62550057D02*
X79952380Y-62645295D01*
X79952380Y-62645295D02*
X79952380Y-62740533D01*
X79952380Y-62740533D02*
X79999999Y-62883390D01*
X79999999Y-62883390D02*
X80571427Y-63454819D01*
X80571427Y-63454819D02*
X79952380Y-63454819D01*
X79095237Y-62788152D02*
X79095237Y-63454819D01*
X79333332Y-62407200D02*
X79571427Y-63121485D01*
X79571427Y-63121485D02*
X78952380Y-63121485D01*
X86595237Y-65454819D02*
X86023809Y-65454819D01*
X86309523Y-66454819D02*
X86309523Y-65454819D01*
X85690475Y-66454819D02*
X85690475Y-65454819D01*
X85690475Y-65454819D02*
X85309523Y-65454819D01*
X85309523Y-65454819D02*
X85214285Y-65502438D01*
X85214285Y-65502438D02*
X85166666Y-65550057D01*
X85166666Y-65550057D02*
X85119047Y-65645295D01*
X85119047Y-65645295D02*
X85119047Y-65788152D01*
X85119047Y-65788152D02*
X85166666Y-65883390D01*
X85166666Y-65883390D02*
X85214285Y-65931009D01*
X85214285Y-65931009D02*
X85309523Y-65978628D01*
X85309523Y-65978628D02*
X85690475Y-65978628D01*
X84738094Y-65550057D02*
X84690475Y-65502438D01*
X84690475Y-65502438D02*
X84595237Y-65454819D01*
X84595237Y-65454819D02*
X84357142Y-65454819D01*
X84357142Y-65454819D02*
X84261904Y-65502438D01*
X84261904Y-65502438D02*
X84214285Y-65550057D01*
X84214285Y-65550057D02*
X84166666Y-65645295D01*
X84166666Y-65645295D02*
X84166666Y-65740533D01*
X84166666Y-65740533D02*
X84214285Y-65883390D01*
X84214285Y-65883390D02*
X84785713Y-66454819D01*
X84785713Y-66454819D02*
X84166666Y-66454819D01*
X83119046Y-65454819D02*
X82785713Y-66454819D01*
X82785713Y-66454819D02*
X82452380Y-65454819D01*
X82119046Y-66454819D02*
X82119046Y-65454819D01*
X82119046Y-65454819D02*
X81785713Y-66169104D01*
X81785713Y-66169104D02*
X81452380Y-65454819D01*
X81452380Y-65454819D02*
X81452380Y-66454819D01*
X81023808Y-65550057D02*
X80976189Y-65502438D01*
X80976189Y-65502438D02*
X80880951Y-65454819D01*
X80880951Y-65454819D02*
X80642856Y-65454819D01*
X80642856Y-65454819D02*
X80547618Y-65502438D01*
X80547618Y-65502438D02*
X80499999Y-65550057D01*
X80499999Y-65550057D02*
X80452380Y-65645295D01*
X80452380Y-65645295D02*
X80452380Y-65740533D01*
X80452380Y-65740533D02*
X80499999Y-65883390D01*
X80499999Y-65883390D02*
X81071427Y-66454819D01*
X81071427Y-66454819D02*
X80452380Y-66454819D01*
X79595237Y-65788152D02*
X79595237Y-66454819D01*
X79833332Y-65407200D02*
X80071427Y-66121485D01*
X80071427Y-66121485D02*
X79452380Y-66121485D01*
X98928571Y-62454819D02*
X98357143Y-62454819D01*
X98642857Y-63454819D02*
X98642857Y-62454819D01*
X98023809Y-63454819D02*
X98023809Y-62454819D01*
X98023809Y-62454819D02*
X97642857Y-62454819D01*
X97642857Y-62454819D02*
X97547619Y-62502438D01*
X97547619Y-62502438D02*
X97500000Y-62550057D01*
X97500000Y-62550057D02*
X97452381Y-62645295D01*
X97452381Y-62645295D02*
X97452381Y-62788152D01*
X97452381Y-62788152D02*
X97500000Y-62883390D01*
X97500000Y-62883390D02*
X97547619Y-62931009D01*
X97547619Y-62931009D02*
X97642857Y-62978628D01*
X97642857Y-62978628D02*
X98023809Y-62978628D01*
X96500000Y-63454819D02*
X97071428Y-63454819D01*
X96785714Y-63454819D02*
X96785714Y-62454819D01*
X96785714Y-62454819D02*
X96880952Y-62597676D01*
X96880952Y-62597676D02*
X96976190Y-62692914D01*
X96976190Y-62692914D02*
X97071428Y-62740533D01*
X96119047Y-62550057D02*
X96071428Y-62502438D01*
X96071428Y-62502438D02*
X95976190Y-62454819D01*
X95976190Y-62454819D02*
X95738095Y-62454819D01*
X95738095Y-62454819D02*
X95642857Y-62502438D01*
X95642857Y-62502438D02*
X95595238Y-62550057D01*
X95595238Y-62550057D02*
X95547619Y-62645295D01*
X95547619Y-62645295D02*
X95547619Y-62740533D01*
X95547619Y-62740533D02*
X95595238Y-62883390D01*
X95595238Y-62883390D02*
X96166666Y-63454819D01*
X96166666Y-63454819D02*
X95547619Y-63454819D01*
X94357142Y-63454819D02*
X94357142Y-62454819D01*
X94357142Y-62454819D02*
X94119047Y-62454819D01*
X94119047Y-62454819D02*
X93976190Y-62502438D01*
X93976190Y-62502438D02*
X93880952Y-62597676D01*
X93880952Y-62597676D02*
X93833333Y-62692914D01*
X93833333Y-62692914D02*
X93785714Y-62883390D01*
X93785714Y-62883390D02*
X93785714Y-63026247D01*
X93785714Y-63026247D02*
X93833333Y-63216723D01*
X93833333Y-63216723D02*
X93880952Y-63311961D01*
X93880952Y-63311961D02*
X93976190Y-63407200D01*
X93976190Y-63407200D02*
X94119047Y-63454819D01*
X94119047Y-63454819D02*
X94357142Y-63454819D01*
X92785714Y-63454819D02*
X93119047Y-62978628D01*
X93357142Y-63454819D02*
X93357142Y-62454819D01*
X93357142Y-62454819D02*
X92976190Y-62454819D01*
X92976190Y-62454819D02*
X92880952Y-62502438D01*
X92880952Y-62502438D02*
X92833333Y-62550057D01*
X92833333Y-62550057D02*
X92785714Y-62645295D01*
X92785714Y-62645295D02*
X92785714Y-62788152D01*
X92785714Y-62788152D02*
X92833333Y-62883390D01*
X92833333Y-62883390D02*
X92880952Y-62931009D01*
X92880952Y-62931009D02*
X92976190Y-62978628D01*
X92976190Y-62978628D02*
X93357142Y-62978628D01*
X92499999Y-62454819D02*
X92166666Y-63454819D01*
X92166666Y-63454819D02*
X91833333Y-62454819D01*
X91309523Y-62454819D02*
X91119047Y-62454819D01*
X91119047Y-62454819D02*
X91023809Y-62502438D01*
X91023809Y-62502438D02*
X90928571Y-62597676D01*
X90928571Y-62597676D02*
X90880952Y-62788152D01*
X90880952Y-62788152D02*
X90880952Y-63121485D01*
X90880952Y-63121485D02*
X90928571Y-63311961D01*
X90928571Y-63311961D02*
X91023809Y-63407200D01*
X91023809Y-63407200D02*
X91119047Y-63454819D01*
X91119047Y-63454819D02*
X91309523Y-63454819D01*
X91309523Y-63454819D02*
X91404761Y-63407200D01*
X91404761Y-63407200D02*
X91499999Y-63311961D01*
X91499999Y-63311961D02*
X91547618Y-63121485D01*
X91547618Y-63121485D02*
X91547618Y-62788152D01*
X91547618Y-62788152D02*
X91499999Y-62597676D01*
X91499999Y-62597676D02*
X91404761Y-62502438D01*
X91404761Y-62502438D02*
X91309523Y-62454819D01*
X90119047Y-62931009D02*
X90452380Y-62931009D01*
X90452380Y-63454819D02*
X90452380Y-62454819D01*
X90452380Y-62454819D02*
X89976190Y-62454819D01*
X89261904Y-62931009D02*
X89595237Y-62931009D01*
X89595237Y-63454819D02*
X89595237Y-62454819D01*
X89595237Y-62454819D02*
X89119047Y-62454819D01*
X97714285Y-68454819D02*
X97142857Y-68454819D01*
X97428571Y-69454819D02*
X97428571Y-68454819D01*
X96809523Y-69454819D02*
X96809523Y-68454819D01*
X96809523Y-68454819D02*
X96428571Y-68454819D01*
X96428571Y-68454819D02*
X96333333Y-68502438D01*
X96333333Y-68502438D02*
X96285714Y-68550057D01*
X96285714Y-68550057D02*
X96238095Y-68645295D01*
X96238095Y-68645295D02*
X96238095Y-68788152D01*
X96238095Y-68788152D02*
X96285714Y-68883390D01*
X96285714Y-68883390D02*
X96333333Y-68931009D01*
X96333333Y-68931009D02*
X96428571Y-68978628D01*
X96428571Y-68978628D02*
X96809523Y-68978628D01*
X95285714Y-69454819D02*
X95857142Y-69454819D01*
X95571428Y-69454819D02*
X95571428Y-68454819D01*
X95571428Y-68454819D02*
X95666666Y-68597676D01*
X95666666Y-68597676D02*
X95761904Y-68692914D01*
X95761904Y-68692914D02*
X95857142Y-68740533D01*
X94428571Y-68788152D02*
X94428571Y-69454819D01*
X94666666Y-68407200D02*
X94904761Y-69121485D01*
X94904761Y-69121485D02*
X94285714Y-69121485D01*
X93238094Y-68454819D02*
X92999999Y-69454819D01*
X92999999Y-69454819D02*
X92809523Y-68740533D01*
X92809523Y-68740533D02*
X92619047Y-69454819D01*
X92619047Y-69454819D02*
X92380952Y-68454819D01*
X91999999Y-69454819D02*
X91999999Y-68454819D01*
X91999999Y-68454819D02*
X91761904Y-68454819D01*
X91761904Y-68454819D02*
X91619047Y-68502438D01*
X91619047Y-68502438D02*
X91523809Y-68597676D01*
X91523809Y-68597676D02*
X91476190Y-68692914D01*
X91476190Y-68692914D02*
X91428571Y-68883390D01*
X91428571Y-68883390D02*
X91428571Y-69026247D01*
X91428571Y-69026247D02*
X91476190Y-69216723D01*
X91476190Y-69216723D02*
X91523809Y-69311961D01*
X91523809Y-69311961D02*
X91619047Y-69407200D01*
X91619047Y-69407200D02*
X91761904Y-69454819D01*
X91761904Y-69454819D02*
X91999999Y-69454819D01*
X90809523Y-68454819D02*
X90619047Y-68454819D01*
X90619047Y-68454819D02*
X90523809Y-68502438D01*
X90523809Y-68502438D02*
X90428571Y-68597676D01*
X90428571Y-68597676D02*
X90380952Y-68788152D01*
X90380952Y-68788152D02*
X90380952Y-69121485D01*
X90380952Y-69121485D02*
X90428571Y-69311961D01*
X90428571Y-69311961D02*
X90523809Y-69407200D01*
X90523809Y-69407200D02*
X90619047Y-69454819D01*
X90619047Y-69454819D02*
X90809523Y-69454819D01*
X90809523Y-69454819D02*
X90904761Y-69407200D01*
X90904761Y-69407200D02*
X90999999Y-69311961D01*
X90999999Y-69311961D02*
X91047618Y-69121485D01*
X91047618Y-69121485D02*
X91047618Y-68788152D01*
X91047618Y-68788152D02*
X90999999Y-68597676D01*
X90999999Y-68597676D02*
X90904761Y-68502438D01*
X90904761Y-68502438D02*
X90809523Y-68454819D01*
X101309523Y-71454819D02*
X100738095Y-71454819D01*
X101023809Y-72454819D02*
X101023809Y-71454819D01*
X100404761Y-72454819D02*
X100404761Y-71454819D01*
X100404761Y-71454819D02*
X100023809Y-71454819D01*
X100023809Y-71454819D02*
X99928571Y-71502438D01*
X99928571Y-71502438D02*
X99880952Y-71550057D01*
X99880952Y-71550057D02*
X99833333Y-71645295D01*
X99833333Y-71645295D02*
X99833333Y-71788152D01*
X99833333Y-71788152D02*
X99880952Y-71883390D01*
X99880952Y-71883390D02*
X99928571Y-71931009D01*
X99928571Y-71931009D02*
X100023809Y-71978628D01*
X100023809Y-71978628D02*
X100404761Y-71978628D01*
X98880952Y-72454819D02*
X99452380Y-72454819D01*
X99166666Y-72454819D02*
X99166666Y-71454819D01*
X99166666Y-71454819D02*
X99261904Y-71597676D01*
X99261904Y-71597676D02*
X99357142Y-71692914D01*
X99357142Y-71692914D02*
X99452380Y-71740533D01*
X97976190Y-71454819D02*
X98452380Y-71454819D01*
X98452380Y-71454819D02*
X98499999Y-71931009D01*
X98499999Y-71931009D02*
X98452380Y-71883390D01*
X98452380Y-71883390D02*
X98357142Y-71835771D01*
X98357142Y-71835771D02*
X98119047Y-71835771D01*
X98119047Y-71835771D02*
X98023809Y-71883390D01*
X98023809Y-71883390D02*
X97976190Y-71931009D01*
X97976190Y-71931009D02*
X97928571Y-72026247D01*
X97928571Y-72026247D02*
X97928571Y-72264342D01*
X97928571Y-72264342D02*
X97976190Y-72359580D01*
X97976190Y-72359580D02*
X98023809Y-72407200D01*
X98023809Y-72407200D02*
X98119047Y-72454819D01*
X98119047Y-72454819D02*
X98357142Y-72454819D01*
X98357142Y-72454819D02*
X98452380Y-72407200D01*
X98452380Y-72407200D02*
X98499999Y-72359580D01*
X96547618Y-71454819D02*
X96357142Y-71454819D01*
X96357142Y-71454819D02*
X96261904Y-71502438D01*
X96261904Y-71502438D02*
X96166666Y-71597676D01*
X96166666Y-71597676D02*
X96119047Y-71788152D01*
X96119047Y-71788152D02*
X96119047Y-72121485D01*
X96119047Y-72121485D02*
X96166666Y-72311961D01*
X96166666Y-72311961D02*
X96261904Y-72407200D01*
X96261904Y-72407200D02*
X96357142Y-72454819D01*
X96357142Y-72454819D02*
X96547618Y-72454819D01*
X96547618Y-72454819D02*
X96642856Y-72407200D01*
X96642856Y-72407200D02*
X96738094Y-72311961D01*
X96738094Y-72311961D02*
X96785713Y-72121485D01*
X96785713Y-72121485D02*
X96785713Y-71788152D01*
X96785713Y-71788152D02*
X96738094Y-71597676D01*
X96738094Y-71597676D02*
X96642856Y-71502438D01*
X96642856Y-71502438D02*
X96547618Y-71454819D01*
X95833332Y-71454819D02*
X95499999Y-72454819D01*
X95499999Y-72454819D02*
X95166666Y-71454819D01*
X94833332Y-71931009D02*
X94499999Y-71931009D01*
X94357142Y-72454819D02*
X94833332Y-72454819D01*
X94833332Y-72454819D02*
X94833332Y-71454819D01*
X94833332Y-71454819D02*
X94357142Y-71454819D01*
X93357142Y-72454819D02*
X93690475Y-71978628D01*
X93928570Y-72454819D02*
X93928570Y-71454819D01*
X93928570Y-71454819D02*
X93547618Y-71454819D01*
X93547618Y-71454819D02*
X93452380Y-71502438D01*
X93452380Y-71502438D02*
X93404761Y-71550057D01*
X93404761Y-71550057D02*
X93357142Y-71645295D01*
X93357142Y-71645295D02*
X93357142Y-71788152D01*
X93357142Y-71788152D02*
X93404761Y-71883390D01*
X93404761Y-71883390D02*
X93452380Y-71931009D01*
X93452380Y-71931009D02*
X93547618Y-71978628D01*
X93547618Y-71978628D02*
X93928570Y-71978628D01*
X92976189Y-72407200D02*
X92833332Y-72454819D01*
X92833332Y-72454819D02*
X92595237Y-72454819D01*
X92595237Y-72454819D02*
X92499999Y-72407200D01*
X92499999Y-72407200D02*
X92452380Y-72359580D01*
X92452380Y-72359580D02*
X92404761Y-72264342D01*
X92404761Y-72264342D02*
X92404761Y-72169104D01*
X92404761Y-72169104D02*
X92452380Y-72073866D01*
X92452380Y-72073866D02*
X92499999Y-72026247D01*
X92499999Y-72026247D02*
X92595237Y-71978628D01*
X92595237Y-71978628D02*
X92785713Y-71931009D01*
X92785713Y-71931009D02*
X92880951Y-71883390D01*
X92880951Y-71883390D02*
X92928570Y-71835771D01*
X92928570Y-71835771D02*
X92976189Y-71740533D01*
X92976189Y-71740533D02*
X92976189Y-71645295D01*
X92976189Y-71645295D02*
X92928570Y-71550057D01*
X92928570Y-71550057D02*
X92880951Y-71502438D01*
X92880951Y-71502438D02*
X92785713Y-71454819D01*
X92785713Y-71454819D02*
X92547618Y-71454819D01*
X92547618Y-71454819D02*
X92404761Y-71502438D01*
X91976189Y-72454819D02*
X91976189Y-71454819D01*
X91976189Y-71454819D02*
X91595237Y-71454819D01*
X91595237Y-71454819D02*
X91499999Y-71502438D01*
X91499999Y-71502438D02*
X91452380Y-71550057D01*
X91452380Y-71550057D02*
X91404761Y-71645295D01*
X91404761Y-71645295D02*
X91404761Y-71788152D01*
X91404761Y-71788152D02*
X91452380Y-71883390D01*
X91452380Y-71883390D02*
X91499999Y-71931009D01*
X91499999Y-71931009D02*
X91595237Y-71978628D01*
X91595237Y-71978628D02*
X91976189Y-71978628D01*
X90976189Y-71931009D02*
X90642856Y-71931009D01*
X90499999Y-72454819D02*
X90976189Y-72454819D01*
X90976189Y-72454819D02*
X90976189Y-71454819D01*
X90976189Y-71454819D02*
X90499999Y-71454819D01*
X90071427Y-71931009D02*
X89738094Y-71931009D01*
X89595237Y-72454819D02*
X90071427Y-72454819D01*
X90071427Y-72454819D02*
X90071427Y-71454819D01*
X90071427Y-71454819D02*
X89595237Y-71454819D01*
X89166665Y-72454819D02*
X89166665Y-71454819D01*
X89166665Y-71454819D02*
X88928570Y-71454819D01*
X88928570Y-71454819D02*
X88785713Y-71502438D01*
X88785713Y-71502438D02*
X88690475Y-71597676D01*
X88690475Y-71597676D02*
X88642856Y-71692914D01*
X88642856Y-71692914D02*
X88595237Y-71883390D01*
X88595237Y-71883390D02*
X88595237Y-72026247D01*
X88595237Y-72026247D02*
X88642856Y-72216723D01*
X88642856Y-72216723D02*
X88690475Y-72311961D01*
X88690475Y-72311961D02*
X88785713Y-72407200D01*
X88785713Y-72407200D02*
X88928570Y-72454819D01*
X88928570Y-72454819D02*
X89166665Y-72454819D01*
X88404761Y-72550057D02*
X87642856Y-72550057D01*
X87404760Y-72454819D02*
X87404760Y-71454819D01*
X87404760Y-71454819D02*
X86833332Y-72454819D01*
X86833332Y-72454819D02*
X86833332Y-71454819D01*
X100761904Y-74454819D02*
X100190476Y-74454819D01*
X100476190Y-75454819D02*
X100476190Y-74454819D01*
X99857142Y-75454819D02*
X99857142Y-74454819D01*
X99857142Y-74454819D02*
X99476190Y-74454819D01*
X99476190Y-74454819D02*
X99380952Y-74502438D01*
X99380952Y-74502438D02*
X99333333Y-74550057D01*
X99333333Y-74550057D02*
X99285714Y-74645295D01*
X99285714Y-74645295D02*
X99285714Y-74788152D01*
X99285714Y-74788152D02*
X99333333Y-74883390D01*
X99333333Y-74883390D02*
X99380952Y-74931009D01*
X99380952Y-74931009D02*
X99476190Y-74978628D01*
X99476190Y-74978628D02*
X99857142Y-74978628D01*
X98333333Y-75454819D02*
X98904761Y-75454819D01*
X98619047Y-75454819D02*
X98619047Y-74454819D01*
X98619047Y-74454819D02*
X98714285Y-74597676D01*
X98714285Y-74597676D02*
X98809523Y-74692914D01*
X98809523Y-74692914D02*
X98904761Y-74740533D01*
X97476190Y-74454819D02*
X97666666Y-74454819D01*
X97666666Y-74454819D02*
X97761904Y-74502438D01*
X97761904Y-74502438D02*
X97809523Y-74550057D01*
X97809523Y-74550057D02*
X97904761Y-74692914D01*
X97904761Y-74692914D02*
X97952380Y-74883390D01*
X97952380Y-74883390D02*
X97952380Y-75264342D01*
X97952380Y-75264342D02*
X97904761Y-75359580D01*
X97904761Y-75359580D02*
X97857142Y-75407200D01*
X97857142Y-75407200D02*
X97761904Y-75454819D01*
X97761904Y-75454819D02*
X97571428Y-75454819D01*
X97571428Y-75454819D02*
X97476190Y-75407200D01*
X97476190Y-75407200D02*
X97428571Y-75359580D01*
X97428571Y-75359580D02*
X97380952Y-75264342D01*
X97380952Y-75264342D02*
X97380952Y-75026247D01*
X97380952Y-75026247D02*
X97428571Y-74931009D01*
X97428571Y-74931009D02*
X97476190Y-74883390D01*
X97476190Y-74883390D02*
X97571428Y-74835771D01*
X97571428Y-74835771D02*
X97761904Y-74835771D01*
X97761904Y-74835771D02*
X97857142Y-74883390D01*
X97857142Y-74883390D02*
X97904761Y-74931009D01*
X97904761Y-74931009D02*
X97952380Y-75026247D01*
X96190475Y-75454819D02*
X96190475Y-74454819D01*
X96190475Y-74454819D02*
X95857142Y-75169104D01*
X95857142Y-75169104D02*
X95523809Y-74454819D01*
X95523809Y-74454819D02*
X95523809Y-75454819D01*
X94476190Y-75359580D02*
X94523809Y-75407200D01*
X94523809Y-75407200D02*
X94666666Y-75454819D01*
X94666666Y-75454819D02*
X94761904Y-75454819D01*
X94761904Y-75454819D02*
X94904761Y-75407200D01*
X94904761Y-75407200D02*
X94999999Y-75311961D01*
X94999999Y-75311961D02*
X95047618Y-75216723D01*
X95047618Y-75216723D02*
X95095237Y-75026247D01*
X95095237Y-75026247D02*
X95095237Y-74883390D01*
X95095237Y-74883390D02*
X95047618Y-74692914D01*
X95047618Y-74692914D02*
X94999999Y-74597676D01*
X94999999Y-74597676D02*
X94904761Y-74502438D01*
X94904761Y-74502438D02*
X94761904Y-74454819D01*
X94761904Y-74454819D02*
X94666666Y-74454819D01*
X94666666Y-74454819D02*
X94523809Y-74502438D01*
X94523809Y-74502438D02*
X94476190Y-74550057D01*
X93714285Y-74931009D02*
X94047618Y-74931009D01*
X94047618Y-75454819D02*
X94047618Y-74454819D01*
X94047618Y-74454819D02*
X93571428Y-74454819D01*
X93428571Y-75550057D02*
X92666666Y-75550057D01*
X92428570Y-74931009D02*
X92095237Y-74931009D01*
X91952380Y-75454819D02*
X92428570Y-75454819D01*
X92428570Y-75454819D02*
X92428570Y-74454819D01*
X92428570Y-74454819D02*
X91952380Y-74454819D01*
X91619046Y-74454819D02*
X90952380Y-75454819D01*
X90952380Y-74454819D02*
X91619046Y-75454819D01*
X90714284Y-74454819D02*
X90142856Y-74454819D01*
X90428570Y-75454819D02*
X90428570Y-74454819D01*
X90047618Y-75550057D02*
X89285713Y-75550057D01*
X89142855Y-74454819D02*
X88904760Y-75454819D01*
X88904760Y-75454819D02*
X88714284Y-74740533D01*
X88714284Y-74740533D02*
X88523808Y-75454819D01*
X88523808Y-75454819D02*
X88285713Y-74454819D01*
X87904760Y-75454819D02*
X87904760Y-74454819D01*
X87904760Y-74454819D02*
X87666665Y-74454819D01*
X87666665Y-74454819D02*
X87523808Y-74502438D01*
X87523808Y-74502438D02*
X87428570Y-74597676D01*
X87428570Y-74597676D02*
X87380951Y-74692914D01*
X87380951Y-74692914D02*
X87333332Y-74883390D01*
X87333332Y-74883390D02*
X87333332Y-75026247D01*
X87333332Y-75026247D02*
X87380951Y-75216723D01*
X87380951Y-75216723D02*
X87428570Y-75311961D01*
X87428570Y-75311961D02*
X87523808Y-75407200D01*
X87523808Y-75407200D02*
X87666665Y-75454819D01*
X87666665Y-75454819D02*
X87904760Y-75454819D01*
X98809523Y-77454819D02*
X98238095Y-77454819D01*
X98523809Y-78454819D02*
X98523809Y-77454819D01*
X97904761Y-78454819D02*
X97904761Y-77454819D01*
X97904761Y-77454819D02*
X97523809Y-77454819D01*
X97523809Y-77454819D02*
X97428571Y-77502438D01*
X97428571Y-77502438D02*
X97380952Y-77550057D01*
X97380952Y-77550057D02*
X97333333Y-77645295D01*
X97333333Y-77645295D02*
X97333333Y-77788152D01*
X97333333Y-77788152D02*
X97380952Y-77883390D01*
X97380952Y-77883390D02*
X97428571Y-77931009D01*
X97428571Y-77931009D02*
X97523809Y-77978628D01*
X97523809Y-77978628D02*
X97904761Y-77978628D01*
X96380952Y-78454819D02*
X96952380Y-78454819D01*
X96666666Y-78454819D02*
X96666666Y-77454819D01*
X96666666Y-77454819D02*
X96761904Y-77597676D01*
X96761904Y-77597676D02*
X96857142Y-77692914D01*
X96857142Y-77692914D02*
X96952380Y-77740533D01*
X96047618Y-77454819D02*
X95380952Y-77454819D01*
X95380952Y-77454819D02*
X95809523Y-78454819D01*
X94238094Y-78454819D02*
X94238094Y-77454819D01*
X94238094Y-77454819D02*
X93666666Y-78454819D01*
X93666666Y-78454819D02*
X93666666Y-77454819D01*
X92857142Y-77931009D02*
X93190475Y-77931009D01*
X93190475Y-78454819D02*
X93190475Y-77454819D01*
X93190475Y-77454819D02*
X92714285Y-77454819D01*
X92380951Y-78169104D02*
X91904761Y-78169104D01*
X92476189Y-78454819D02*
X92142856Y-77454819D01*
X92142856Y-77454819D02*
X91809523Y-78454819D01*
X91476189Y-77454819D02*
X91476189Y-78264342D01*
X91476189Y-78264342D02*
X91428570Y-78359580D01*
X91428570Y-78359580D02*
X91380951Y-78407200D01*
X91380951Y-78407200D02*
X91285713Y-78454819D01*
X91285713Y-78454819D02*
X91095237Y-78454819D01*
X91095237Y-78454819D02*
X90999999Y-78407200D01*
X90999999Y-78407200D02*
X90952380Y-78359580D01*
X90952380Y-78359580D02*
X90904761Y-78264342D01*
X90904761Y-78264342D02*
X90904761Y-77454819D01*
X89952380Y-78454819D02*
X90428570Y-78454819D01*
X90428570Y-78454819D02*
X90428570Y-77454819D01*
X89761903Y-77454819D02*
X89190475Y-77454819D01*
X89476189Y-78454819D02*
X89476189Y-77454819D01*
X100095238Y-89454819D02*
X99523810Y-89454819D01*
X99809524Y-90454819D02*
X99809524Y-89454819D01*
X99190476Y-90454819D02*
X99190476Y-89454819D01*
X99190476Y-89454819D02*
X98809524Y-89454819D01*
X98809524Y-89454819D02*
X98714286Y-89502438D01*
X98714286Y-89502438D02*
X98666667Y-89550057D01*
X98666667Y-89550057D02*
X98619048Y-89645295D01*
X98619048Y-89645295D02*
X98619048Y-89788152D01*
X98619048Y-89788152D02*
X98666667Y-89883390D01*
X98666667Y-89883390D02*
X98714286Y-89931009D01*
X98714286Y-89931009D02*
X98809524Y-89978628D01*
X98809524Y-89978628D02*
X99190476Y-89978628D01*
X98238095Y-89550057D02*
X98190476Y-89502438D01*
X98190476Y-89502438D02*
X98095238Y-89454819D01*
X98095238Y-89454819D02*
X97857143Y-89454819D01*
X97857143Y-89454819D02*
X97761905Y-89502438D01*
X97761905Y-89502438D02*
X97714286Y-89550057D01*
X97714286Y-89550057D02*
X97666667Y-89645295D01*
X97666667Y-89645295D02*
X97666667Y-89740533D01*
X97666667Y-89740533D02*
X97714286Y-89883390D01*
X97714286Y-89883390D02*
X98285714Y-90454819D01*
X98285714Y-90454819D02*
X97666667Y-90454819D01*
X96714286Y-90454819D02*
X97285714Y-90454819D01*
X97000000Y-90454819D02*
X97000000Y-89454819D01*
X97000000Y-89454819D02*
X97095238Y-89597676D01*
X97095238Y-89597676D02*
X97190476Y-89692914D01*
X97190476Y-89692914D02*
X97285714Y-89740533D01*
X95523809Y-90454819D02*
X95523809Y-89454819D01*
X95523809Y-89931009D02*
X94952381Y-89931009D01*
X94952381Y-90454819D02*
X94952381Y-89454819D01*
X94523809Y-90169104D02*
X94047619Y-90169104D01*
X94619047Y-90454819D02*
X94285714Y-89454819D01*
X94285714Y-89454819D02*
X93952381Y-90454819D01*
X93142857Y-90454819D02*
X93619047Y-90454819D01*
X93619047Y-90454819D02*
X93619047Y-89454819D01*
X92333333Y-90454819D02*
X92809523Y-90454819D01*
X92809523Y-90454819D02*
X92809523Y-89454819D01*
X92238095Y-90550057D02*
X91476190Y-90550057D01*
X91380951Y-89454819D02*
X90809523Y-89454819D01*
X91095237Y-90454819D02*
X91095237Y-89454819D01*
X90523808Y-90169104D02*
X90047618Y-90169104D01*
X90619046Y-90454819D02*
X90285713Y-89454819D01*
X90285713Y-89454819D02*
X89952380Y-90454819D01*
X89047618Y-90359580D02*
X89095237Y-90407200D01*
X89095237Y-90407200D02*
X89238094Y-90454819D01*
X89238094Y-90454819D02*
X89333332Y-90454819D01*
X89333332Y-90454819D02*
X89476189Y-90407200D01*
X89476189Y-90407200D02*
X89571427Y-90311961D01*
X89571427Y-90311961D02*
X89619046Y-90216723D01*
X89619046Y-90216723D02*
X89666665Y-90026247D01*
X89666665Y-90026247D02*
X89666665Y-89883390D01*
X89666665Y-89883390D02*
X89619046Y-89692914D01*
X89619046Y-89692914D02*
X89571427Y-89597676D01*
X89571427Y-89597676D02*
X89476189Y-89502438D01*
X89476189Y-89502438D02*
X89333332Y-89454819D01*
X89333332Y-89454819D02*
X89238094Y-89454819D01*
X89238094Y-89454819D02*
X89095237Y-89502438D01*
X89095237Y-89502438D02*
X89047618Y-89550057D01*
X88619046Y-90454819D02*
X88619046Y-89454819D01*
X88619046Y-89931009D02*
X88047618Y-89931009D01*
X88047618Y-90454819D02*
X88047618Y-89454819D01*
X98380952Y-92454819D02*
X97809524Y-92454819D01*
X98095238Y-93454819D02*
X98095238Y-92454819D01*
X97476190Y-93454819D02*
X97476190Y-92454819D01*
X97476190Y-92454819D02*
X97095238Y-92454819D01*
X97095238Y-92454819D02*
X97000000Y-92502438D01*
X97000000Y-92502438D02*
X96952381Y-92550057D01*
X96952381Y-92550057D02*
X96904762Y-92645295D01*
X96904762Y-92645295D02*
X96904762Y-92788152D01*
X96904762Y-92788152D02*
X96952381Y-92883390D01*
X96952381Y-92883390D02*
X97000000Y-92931009D01*
X97000000Y-92931009D02*
X97095238Y-92978628D01*
X97095238Y-92978628D02*
X97476190Y-92978628D01*
X96523809Y-92550057D02*
X96476190Y-92502438D01*
X96476190Y-92502438D02*
X96380952Y-92454819D01*
X96380952Y-92454819D02*
X96142857Y-92454819D01*
X96142857Y-92454819D02*
X96047619Y-92502438D01*
X96047619Y-92502438D02*
X96000000Y-92550057D01*
X96000000Y-92550057D02*
X95952381Y-92645295D01*
X95952381Y-92645295D02*
X95952381Y-92740533D01*
X95952381Y-92740533D02*
X96000000Y-92883390D01*
X96000000Y-92883390D02*
X96571428Y-93454819D01*
X96571428Y-93454819D02*
X95952381Y-93454819D01*
X95571428Y-92550057D02*
X95523809Y-92502438D01*
X95523809Y-92502438D02*
X95428571Y-92454819D01*
X95428571Y-92454819D02*
X95190476Y-92454819D01*
X95190476Y-92454819D02*
X95095238Y-92502438D01*
X95095238Y-92502438D02*
X95047619Y-92550057D01*
X95047619Y-92550057D02*
X95000000Y-92645295D01*
X95000000Y-92645295D02*
X95000000Y-92740533D01*
X95000000Y-92740533D02*
X95047619Y-92883390D01*
X95047619Y-92883390D02*
X95619047Y-93454819D01*
X95619047Y-93454819D02*
X95000000Y-93454819D01*
X93952380Y-92454819D02*
X93619047Y-93454819D01*
X93619047Y-93454819D02*
X93285714Y-92454819D01*
X93095237Y-92454819D02*
X92523809Y-92454819D01*
X92809523Y-93454819D02*
X92809523Y-92454819D01*
X92238094Y-93169104D02*
X91761904Y-93169104D01*
X92333332Y-93454819D02*
X91999999Y-92454819D01*
X91999999Y-92454819D02*
X91666666Y-93454819D01*
X90761904Y-93359580D02*
X90809523Y-93407200D01*
X90809523Y-93407200D02*
X90952380Y-93454819D01*
X90952380Y-93454819D02*
X91047618Y-93454819D01*
X91047618Y-93454819D02*
X91190475Y-93407200D01*
X91190475Y-93407200D02*
X91285713Y-93311961D01*
X91285713Y-93311961D02*
X91333332Y-93216723D01*
X91333332Y-93216723D02*
X91380951Y-93026247D01*
X91380951Y-93026247D02*
X91380951Y-92883390D01*
X91380951Y-92883390D02*
X91333332Y-92692914D01*
X91333332Y-92692914D02*
X91285713Y-92597676D01*
X91285713Y-92597676D02*
X91190475Y-92502438D01*
X91190475Y-92502438D02*
X91047618Y-92454819D01*
X91047618Y-92454819D02*
X90952380Y-92454819D01*
X90952380Y-92454819D02*
X90809523Y-92502438D01*
X90809523Y-92502438D02*
X90761904Y-92550057D01*
X90333332Y-93454819D02*
X90333332Y-92454819D01*
X90333332Y-92931009D02*
X89761904Y-92931009D01*
X89761904Y-93454819D02*
X89761904Y-92454819D01*
X108619047Y-65454819D02*
X108047619Y-65454819D01*
X108333333Y-66454819D02*
X108333333Y-65454819D01*
X107714285Y-66454819D02*
X107714285Y-65454819D01*
X107714285Y-65454819D02*
X107333333Y-65454819D01*
X107333333Y-65454819D02*
X107238095Y-65502438D01*
X107238095Y-65502438D02*
X107190476Y-65550057D01*
X107190476Y-65550057D02*
X107142857Y-65645295D01*
X107142857Y-65645295D02*
X107142857Y-65788152D01*
X107142857Y-65788152D02*
X107190476Y-65883390D01*
X107190476Y-65883390D02*
X107238095Y-65931009D01*
X107238095Y-65931009D02*
X107333333Y-65978628D01*
X107333333Y-65978628D02*
X107714285Y-65978628D01*
X106190476Y-66454819D02*
X106761904Y-66454819D01*
X106476190Y-66454819D02*
X106476190Y-65454819D01*
X106476190Y-65454819D02*
X106571428Y-65597676D01*
X106571428Y-65597676D02*
X106666666Y-65692914D01*
X106666666Y-65692914D02*
X106761904Y-65740533D01*
X105857142Y-65454819D02*
X105238095Y-65454819D01*
X105238095Y-65454819D02*
X105571428Y-65835771D01*
X105571428Y-65835771D02*
X105428571Y-65835771D01*
X105428571Y-65835771D02*
X105333333Y-65883390D01*
X105333333Y-65883390D02*
X105285714Y-65931009D01*
X105285714Y-65931009D02*
X105238095Y-66026247D01*
X105238095Y-66026247D02*
X105238095Y-66264342D01*
X105238095Y-66264342D02*
X105285714Y-66359580D01*
X105285714Y-66359580D02*
X105333333Y-66407200D01*
X105333333Y-66407200D02*
X105428571Y-66454819D01*
X105428571Y-66454819D02*
X105714285Y-66454819D01*
X105714285Y-66454819D02*
X105809523Y-66407200D01*
X105809523Y-66407200D02*
X105857142Y-66359580D01*
X104142856Y-65454819D02*
X103904761Y-66454819D01*
X103904761Y-66454819D02*
X103714285Y-65740533D01*
X103714285Y-65740533D02*
X103523809Y-66454819D01*
X103523809Y-66454819D02*
X103285714Y-65454819D01*
X102904761Y-66454819D02*
X102904761Y-65454819D01*
X102904761Y-65454819D02*
X102666666Y-65454819D01*
X102666666Y-65454819D02*
X102523809Y-65502438D01*
X102523809Y-65502438D02*
X102428571Y-65597676D01*
X102428571Y-65597676D02*
X102380952Y-65692914D01*
X102380952Y-65692914D02*
X102333333Y-65883390D01*
X102333333Y-65883390D02*
X102333333Y-66026247D01*
X102333333Y-66026247D02*
X102380952Y-66216723D01*
X102380952Y-66216723D02*
X102428571Y-66311961D01*
X102428571Y-66311961D02*
X102523809Y-66407200D01*
X102523809Y-66407200D02*
X102666666Y-66454819D01*
X102666666Y-66454819D02*
X102904761Y-66454819D01*
X102142857Y-66550057D02*
X101380952Y-66550057D01*
X101142856Y-66454819D02*
X101142856Y-65454819D01*
X101142856Y-65931009D02*
X100571428Y-65931009D01*
X100571428Y-66454819D02*
X100571428Y-65454819D01*
X100095237Y-65931009D02*
X99761904Y-65931009D01*
X99619047Y-66454819D02*
X100095237Y-66454819D01*
X100095237Y-66454819D02*
X100095237Y-65454819D01*
X100095237Y-65454819D02*
X99619047Y-65454819D01*
X99238094Y-66169104D02*
X98761904Y-66169104D01*
X99333332Y-66454819D02*
X98999999Y-65454819D01*
X98999999Y-65454819D02*
X98666666Y-66454819D01*
X97761904Y-66454819D02*
X98095237Y-65978628D01*
X98333332Y-66454819D02*
X98333332Y-65454819D01*
X98333332Y-65454819D02*
X97952380Y-65454819D01*
X97952380Y-65454819D02*
X97857142Y-65502438D01*
X97857142Y-65502438D02*
X97809523Y-65550057D01*
X97809523Y-65550057D02*
X97761904Y-65645295D01*
X97761904Y-65645295D02*
X97761904Y-65788152D01*
X97761904Y-65788152D02*
X97809523Y-65883390D01*
X97809523Y-65883390D02*
X97857142Y-65931009D01*
X97857142Y-65931009D02*
X97952380Y-65978628D01*
X97952380Y-65978628D02*
X98333332Y-65978628D01*
X97476189Y-65454819D02*
X96904761Y-65454819D01*
X97190475Y-66454819D02*
X97190475Y-65454819D01*
X96238094Y-65931009D02*
X96095237Y-65978628D01*
X96095237Y-65978628D02*
X96047618Y-66026247D01*
X96047618Y-66026247D02*
X95999999Y-66121485D01*
X95999999Y-66121485D02*
X95999999Y-66264342D01*
X95999999Y-66264342D02*
X96047618Y-66359580D01*
X96047618Y-66359580D02*
X96095237Y-66407200D01*
X96095237Y-66407200D02*
X96190475Y-66454819D01*
X96190475Y-66454819D02*
X96571427Y-66454819D01*
X96571427Y-66454819D02*
X96571427Y-65454819D01*
X96571427Y-65454819D02*
X96238094Y-65454819D01*
X96238094Y-65454819D02*
X96142856Y-65502438D01*
X96142856Y-65502438D02*
X96095237Y-65550057D01*
X96095237Y-65550057D02*
X96047618Y-65645295D01*
X96047618Y-65645295D02*
X96047618Y-65740533D01*
X96047618Y-65740533D02*
X96095237Y-65835771D01*
X96095237Y-65835771D02*
X96142856Y-65883390D01*
X96142856Y-65883390D02*
X96238094Y-65931009D01*
X96238094Y-65931009D02*
X96571427Y-65931009D01*
X95571427Y-65931009D02*
X95238094Y-65931009D01*
X95095237Y-66454819D02*
X95571427Y-66454819D01*
X95571427Y-66454819D02*
X95571427Y-65454819D01*
X95571427Y-65454819D02*
X95095237Y-65454819D01*
X94714284Y-66169104D02*
X94238094Y-66169104D01*
X94809522Y-66454819D02*
X94476189Y-65454819D01*
X94476189Y-65454819D02*
X94142856Y-66454819D01*
X93952379Y-65454819D02*
X93380951Y-65454819D01*
X93666665Y-66454819D02*
X93666665Y-65454819D01*
X126928571Y-62454819D02*
X126357143Y-62454819D01*
X126642857Y-63454819D02*
X126642857Y-62454819D01*
X126023809Y-63454819D02*
X126023809Y-62454819D01*
X126023809Y-62454819D02*
X125642857Y-62454819D01*
X125642857Y-62454819D02*
X125547619Y-62502438D01*
X125547619Y-62502438D02*
X125500000Y-62550057D01*
X125500000Y-62550057D02*
X125452381Y-62645295D01*
X125452381Y-62645295D02*
X125452381Y-62788152D01*
X125452381Y-62788152D02*
X125500000Y-62883390D01*
X125500000Y-62883390D02*
X125547619Y-62931009D01*
X125547619Y-62931009D02*
X125642857Y-62978628D01*
X125642857Y-62978628D02*
X126023809Y-62978628D01*
X125071428Y-62550057D02*
X125023809Y-62502438D01*
X125023809Y-62502438D02*
X124928571Y-62454819D01*
X124928571Y-62454819D02*
X124690476Y-62454819D01*
X124690476Y-62454819D02*
X124595238Y-62502438D01*
X124595238Y-62502438D02*
X124547619Y-62550057D01*
X124547619Y-62550057D02*
X124500000Y-62645295D01*
X124500000Y-62645295D02*
X124500000Y-62740533D01*
X124500000Y-62740533D02*
X124547619Y-62883390D01*
X124547619Y-62883390D02*
X125119047Y-63454819D01*
X125119047Y-63454819D02*
X124500000Y-63454819D01*
X124166666Y-62454819D02*
X123547619Y-62454819D01*
X123547619Y-62454819D02*
X123880952Y-62835771D01*
X123880952Y-62835771D02*
X123738095Y-62835771D01*
X123738095Y-62835771D02*
X123642857Y-62883390D01*
X123642857Y-62883390D02*
X123595238Y-62931009D01*
X123595238Y-62931009D02*
X123547619Y-63026247D01*
X123547619Y-63026247D02*
X123547619Y-63264342D01*
X123547619Y-63264342D02*
X123595238Y-63359580D01*
X123595238Y-63359580D02*
X123642857Y-63407200D01*
X123642857Y-63407200D02*
X123738095Y-63454819D01*
X123738095Y-63454819D02*
X124023809Y-63454819D01*
X124023809Y-63454819D02*
X124119047Y-63407200D01*
X124119047Y-63407200D02*
X124166666Y-63359580D01*
X122499999Y-62454819D02*
X122166666Y-63454819D01*
X122166666Y-63454819D02*
X121833333Y-62454819D01*
X120928571Y-63454819D02*
X121261904Y-62978628D01*
X121499999Y-63454819D02*
X121499999Y-62454819D01*
X121499999Y-62454819D02*
X121119047Y-62454819D01*
X121119047Y-62454819D02*
X121023809Y-62502438D01*
X121023809Y-62502438D02*
X120976190Y-62550057D01*
X120976190Y-62550057D02*
X120928571Y-62645295D01*
X120928571Y-62645295D02*
X120928571Y-62788152D01*
X120928571Y-62788152D02*
X120976190Y-62883390D01*
X120976190Y-62883390D02*
X121023809Y-62931009D01*
X121023809Y-62931009D02*
X121119047Y-62978628D01*
X121119047Y-62978628D02*
X121499999Y-62978628D01*
X120499999Y-62931009D02*
X120166666Y-62931009D01*
X120023809Y-63454819D02*
X120499999Y-63454819D01*
X120499999Y-63454819D02*
X120499999Y-62454819D01*
X120499999Y-62454819D02*
X120023809Y-62454819D01*
X119261904Y-62931009D02*
X119595237Y-62931009D01*
X119595237Y-63454819D02*
X119595237Y-62454819D01*
X119595237Y-62454819D02*
X119119047Y-62454819D01*
X126595237Y-65454819D02*
X126023809Y-65454819D01*
X126309523Y-66454819D02*
X126309523Y-65454819D01*
X125690475Y-66454819D02*
X125690475Y-65454819D01*
X125690475Y-65454819D02*
X125309523Y-65454819D01*
X125309523Y-65454819D02*
X125214285Y-65502438D01*
X125214285Y-65502438D02*
X125166666Y-65550057D01*
X125166666Y-65550057D02*
X125119047Y-65645295D01*
X125119047Y-65645295D02*
X125119047Y-65788152D01*
X125119047Y-65788152D02*
X125166666Y-65883390D01*
X125166666Y-65883390D02*
X125214285Y-65931009D01*
X125214285Y-65931009D02*
X125309523Y-65978628D01*
X125309523Y-65978628D02*
X125690475Y-65978628D01*
X124738094Y-65550057D02*
X124690475Y-65502438D01*
X124690475Y-65502438D02*
X124595237Y-65454819D01*
X124595237Y-65454819D02*
X124357142Y-65454819D01*
X124357142Y-65454819D02*
X124261904Y-65502438D01*
X124261904Y-65502438D02*
X124214285Y-65550057D01*
X124214285Y-65550057D02*
X124166666Y-65645295D01*
X124166666Y-65645295D02*
X124166666Y-65740533D01*
X124166666Y-65740533D02*
X124214285Y-65883390D01*
X124214285Y-65883390D02*
X124785713Y-66454819D01*
X124785713Y-66454819D02*
X124166666Y-66454819D01*
X123309523Y-65788152D02*
X123309523Y-66454819D01*
X123547618Y-65407200D02*
X123785713Y-66121485D01*
X123785713Y-66121485D02*
X123166666Y-66121485D01*
X122071427Y-66407200D02*
X121928570Y-66454819D01*
X121928570Y-66454819D02*
X121690475Y-66454819D01*
X121690475Y-66454819D02*
X121595237Y-66407200D01*
X121595237Y-66407200D02*
X121547618Y-66359580D01*
X121547618Y-66359580D02*
X121499999Y-66264342D01*
X121499999Y-66264342D02*
X121499999Y-66169104D01*
X121499999Y-66169104D02*
X121547618Y-66073866D01*
X121547618Y-66073866D02*
X121595237Y-66026247D01*
X121595237Y-66026247D02*
X121690475Y-65978628D01*
X121690475Y-65978628D02*
X121880951Y-65931009D01*
X121880951Y-65931009D02*
X121976189Y-65883390D01*
X121976189Y-65883390D02*
X122023808Y-65835771D01*
X122023808Y-65835771D02*
X122071427Y-65740533D01*
X122071427Y-65740533D02*
X122071427Y-65645295D01*
X122071427Y-65645295D02*
X122023808Y-65550057D01*
X122023808Y-65550057D02*
X121976189Y-65502438D01*
X121976189Y-65502438D02*
X121880951Y-65454819D01*
X121880951Y-65454819D02*
X121642856Y-65454819D01*
X121642856Y-65454819D02*
X121499999Y-65502438D01*
X120880951Y-65454819D02*
X120690475Y-65454819D01*
X120690475Y-65454819D02*
X120595237Y-65502438D01*
X120595237Y-65502438D02*
X120499999Y-65597676D01*
X120499999Y-65597676D02*
X120452380Y-65788152D01*
X120452380Y-65788152D02*
X120452380Y-66121485D01*
X120452380Y-66121485D02*
X120499999Y-66311961D01*
X120499999Y-66311961D02*
X120595237Y-66407200D01*
X120595237Y-66407200D02*
X120690475Y-66454819D01*
X120690475Y-66454819D02*
X120880951Y-66454819D01*
X120880951Y-66454819D02*
X120976189Y-66407200D01*
X120976189Y-66407200D02*
X121071427Y-66311961D01*
X121071427Y-66311961D02*
X121119046Y-66121485D01*
X121119046Y-66121485D02*
X121119046Y-65788152D01*
X121119046Y-65788152D02*
X121071427Y-65597676D01*
X121071427Y-65597676D02*
X120976189Y-65502438D01*
X120976189Y-65502438D02*
X120880951Y-65454819D01*
X120119046Y-65454819D02*
X119452380Y-66454819D01*
X119452380Y-65454819D02*
X120119046Y-66454819D01*
X127499999Y-68454819D02*
X126928571Y-68454819D01*
X127214285Y-69454819D02*
X127214285Y-68454819D01*
X126595237Y-69454819D02*
X126595237Y-68454819D01*
X126595237Y-68454819D02*
X126214285Y-68454819D01*
X126214285Y-68454819D02*
X126119047Y-68502438D01*
X126119047Y-68502438D02*
X126071428Y-68550057D01*
X126071428Y-68550057D02*
X126023809Y-68645295D01*
X126023809Y-68645295D02*
X126023809Y-68788152D01*
X126023809Y-68788152D02*
X126071428Y-68883390D01*
X126071428Y-68883390D02*
X126119047Y-68931009D01*
X126119047Y-68931009D02*
X126214285Y-68978628D01*
X126214285Y-68978628D02*
X126595237Y-68978628D01*
X125642856Y-68550057D02*
X125595237Y-68502438D01*
X125595237Y-68502438D02*
X125499999Y-68454819D01*
X125499999Y-68454819D02*
X125261904Y-68454819D01*
X125261904Y-68454819D02*
X125166666Y-68502438D01*
X125166666Y-68502438D02*
X125119047Y-68550057D01*
X125119047Y-68550057D02*
X125071428Y-68645295D01*
X125071428Y-68645295D02*
X125071428Y-68740533D01*
X125071428Y-68740533D02*
X125119047Y-68883390D01*
X125119047Y-68883390D02*
X125690475Y-69454819D01*
X125690475Y-69454819D02*
X125071428Y-69454819D01*
X124166666Y-68454819D02*
X124642856Y-68454819D01*
X124642856Y-68454819D02*
X124690475Y-68931009D01*
X124690475Y-68931009D02*
X124642856Y-68883390D01*
X124642856Y-68883390D02*
X124547618Y-68835771D01*
X124547618Y-68835771D02*
X124309523Y-68835771D01*
X124309523Y-68835771D02*
X124214285Y-68883390D01*
X124214285Y-68883390D02*
X124166666Y-68931009D01*
X124166666Y-68931009D02*
X124119047Y-69026247D01*
X124119047Y-69026247D02*
X124119047Y-69264342D01*
X124119047Y-69264342D02*
X124166666Y-69359580D01*
X124166666Y-69359580D02*
X124214285Y-69407200D01*
X124214285Y-69407200D02*
X124309523Y-69454819D01*
X124309523Y-69454819D02*
X124547618Y-69454819D01*
X124547618Y-69454819D02*
X124642856Y-69407200D01*
X124642856Y-69407200D02*
X124690475Y-69359580D01*
X122976189Y-69407200D02*
X122833332Y-69454819D01*
X122833332Y-69454819D02*
X122595237Y-69454819D01*
X122595237Y-69454819D02*
X122499999Y-69407200D01*
X122499999Y-69407200D02*
X122452380Y-69359580D01*
X122452380Y-69359580D02*
X122404761Y-69264342D01*
X122404761Y-69264342D02*
X122404761Y-69169104D01*
X122404761Y-69169104D02*
X122452380Y-69073866D01*
X122452380Y-69073866D02*
X122499999Y-69026247D01*
X122499999Y-69026247D02*
X122595237Y-68978628D01*
X122595237Y-68978628D02*
X122785713Y-68931009D01*
X122785713Y-68931009D02*
X122880951Y-68883390D01*
X122880951Y-68883390D02*
X122928570Y-68835771D01*
X122928570Y-68835771D02*
X122976189Y-68740533D01*
X122976189Y-68740533D02*
X122976189Y-68645295D01*
X122976189Y-68645295D02*
X122928570Y-68550057D01*
X122928570Y-68550057D02*
X122880951Y-68502438D01*
X122880951Y-68502438D02*
X122785713Y-68454819D01*
X122785713Y-68454819D02*
X122547618Y-68454819D01*
X122547618Y-68454819D02*
X122404761Y-68502438D01*
X121976189Y-69454819D02*
X121976189Y-68454819D01*
X121976189Y-68454819D02*
X121595237Y-68454819D01*
X121595237Y-68454819D02*
X121499999Y-68502438D01*
X121499999Y-68502438D02*
X121452380Y-68550057D01*
X121452380Y-68550057D02*
X121404761Y-68645295D01*
X121404761Y-68645295D02*
X121404761Y-68788152D01*
X121404761Y-68788152D02*
X121452380Y-68883390D01*
X121452380Y-68883390D02*
X121499999Y-68931009D01*
X121499999Y-68931009D02*
X121595237Y-68978628D01*
X121595237Y-68978628D02*
X121976189Y-68978628D01*
X120976189Y-68931009D02*
X120642856Y-68931009D01*
X120499999Y-69454819D02*
X120976189Y-69454819D01*
X120976189Y-69454819D02*
X120976189Y-68454819D01*
X120976189Y-68454819D02*
X120499999Y-68454819D01*
X120071427Y-68931009D02*
X119738094Y-68931009D01*
X119595237Y-69454819D02*
X120071427Y-69454819D01*
X120071427Y-69454819D02*
X120071427Y-68454819D01*
X120071427Y-68454819D02*
X119595237Y-68454819D01*
X119166665Y-69454819D02*
X119166665Y-68454819D01*
X119166665Y-68454819D02*
X118928570Y-68454819D01*
X118928570Y-68454819D02*
X118785713Y-68502438D01*
X118785713Y-68502438D02*
X118690475Y-68597676D01*
X118690475Y-68597676D02*
X118642856Y-68692914D01*
X118642856Y-68692914D02*
X118595237Y-68883390D01*
X118595237Y-68883390D02*
X118595237Y-69026247D01*
X118595237Y-69026247D02*
X118642856Y-69216723D01*
X118642856Y-69216723D02*
X118690475Y-69311961D01*
X118690475Y-69311961D02*
X118785713Y-69407200D01*
X118785713Y-69407200D02*
X118928570Y-69454819D01*
X118928570Y-69454819D02*
X119166665Y-69454819D01*
X127452380Y-71454819D02*
X126880952Y-71454819D01*
X127166666Y-72454819D02*
X127166666Y-71454819D01*
X126547618Y-72454819D02*
X126547618Y-71454819D01*
X126547618Y-71454819D02*
X126166666Y-71454819D01*
X126166666Y-71454819D02*
X126071428Y-71502438D01*
X126071428Y-71502438D02*
X126023809Y-71550057D01*
X126023809Y-71550057D02*
X125976190Y-71645295D01*
X125976190Y-71645295D02*
X125976190Y-71788152D01*
X125976190Y-71788152D02*
X126023809Y-71883390D01*
X126023809Y-71883390D02*
X126071428Y-71931009D01*
X126071428Y-71931009D02*
X126166666Y-71978628D01*
X126166666Y-71978628D02*
X126547618Y-71978628D01*
X125595237Y-71550057D02*
X125547618Y-71502438D01*
X125547618Y-71502438D02*
X125452380Y-71454819D01*
X125452380Y-71454819D02*
X125214285Y-71454819D01*
X125214285Y-71454819D02*
X125119047Y-71502438D01*
X125119047Y-71502438D02*
X125071428Y-71550057D01*
X125071428Y-71550057D02*
X125023809Y-71645295D01*
X125023809Y-71645295D02*
X125023809Y-71740533D01*
X125023809Y-71740533D02*
X125071428Y-71883390D01*
X125071428Y-71883390D02*
X125642856Y-72454819D01*
X125642856Y-72454819D02*
X125023809Y-72454819D01*
X124166666Y-71454819D02*
X124357142Y-71454819D01*
X124357142Y-71454819D02*
X124452380Y-71502438D01*
X124452380Y-71502438D02*
X124499999Y-71550057D01*
X124499999Y-71550057D02*
X124595237Y-71692914D01*
X124595237Y-71692914D02*
X124642856Y-71883390D01*
X124642856Y-71883390D02*
X124642856Y-72264342D01*
X124642856Y-72264342D02*
X124595237Y-72359580D01*
X124595237Y-72359580D02*
X124547618Y-72407200D01*
X124547618Y-72407200D02*
X124452380Y-72454819D01*
X124452380Y-72454819D02*
X124261904Y-72454819D01*
X124261904Y-72454819D02*
X124166666Y-72407200D01*
X124166666Y-72407200D02*
X124119047Y-72359580D01*
X124119047Y-72359580D02*
X124071428Y-72264342D01*
X124071428Y-72264342D02*
X124071428Y-72026247D01*
X124071428Y-72026247D02*
X124119047Y-71931009D01*
X124119047Y-71931009D02*
X124166666Y-71883390D01*
X124166666Y-71883390D02*
X124261904Y-71835771D01*
X124261904Y-71835771D02*
X124452380Y-71835771D01*
X124452380Y-71835771D02*
X124547618Y-71883390D01*
X124547618Y-71883390D02*
X124595237Y-71931009D01*
X124595237Y-71931009D02*
X124642856Y-72026247D01*
X122928570Y-72169104D02*
X122452380Y-72169104D01*
X123023808Y-72454819D02*
X122690475Y-71454819D01*
X122690475Y-71454819D02*
X122357142Y-72454819D01*
X121547618Y-72454819D02*
X122023808Y-72454819D01*
X122023808Y-72454819D02*
X122023808Y-71454819D01*
X121261903Y-72169104D02*
X120785713Y-72169104D01*
X121357141Y-72454819D02*
X121023808Y-71454819D01*
X121023808Y-71454819D02*
X120690475Y-72454819D01*
X119785713Y-72454819D02*
X120119046Y-71978628D01*
X120357141Y-72454819D02*
X120357141Y-71454819D01*
X120357141Y-71454819D02*
X119976189Y-71454819D01*
X119976189Y-71454819D02*
X119880951Y-71502438D01*
X119880951Y-71502438D02*
X119833332Y-71550057D01*
X119833332Y-71550057D02*
X119785713Y-71645295D01*
X119785713Y-71645295D02*
X119785713Y-71788152D01*
X119785713Y-71788152D02*
X119833332Y-71883390D01*
X119833332Y-71883390D02*
X119880951Y-71931009D01*
X119880951Y-71931009D02*
X119976189Y-71978628D01*
X119976189Y-71978628D02*
X120357141Y-71978628D01*
X119357141Y-72454819D02*
X119357141Y-71454819D01*
X119357141Y-71454819D02*
X119023808Y-72169104D01*
X119023808Y-72169104D02*
X118690475Y-71454819D01*
X118690475Y-71454819D02*
X118690475Y-72454819D01*
X127642856Y-89454819D02*
X127071428Y-89454819D01*
X127357142Y-90454819D02*
X127357142Y-89454819D01*
X126738094Y-90454819D02*
X126738094Y-89454819D01*
X126738094Y-89454819D02*
X126357142Y-89454819D01*
X126357142Y-89454819D02*
X126261904Y-89502438D01*
X126261904Y-89502438D02*
X126214285Y-89550057D01*
X126214285Y-89550057D02*
X126166666Y-89645295D01*
X126166666Y-89645295D02*
X126166666Y-89788152D01*
X126166666Y-89788152D02*
X126214285Y-89883390D01*
X126214285Y-89883390D02*
X126261904Y-89931009D01*
X126261904Y-89931009D02*
X126357142Y-89978628D01*
X126357142Y-89978628D02*
X126738094Y-89978628D01*
X125785713Y-89550057D02*
X125738094Y-89502438D01*
X125738094Y-89502438D02*
X125642856Y-89454819D01*
X125642856Y-89454819D02*
X125404761Y-89454819D01*
X125404761Y-89454819D02*
X125309523Y-89502438D01*
X125309523Y-89502438D02*
X125261904Y-89550057D01*
X125261904Y-89550057D02*
X125214285Y-89645295D01*
X125214285Y-89645295D02*
X125214285Y-89740533D01*
X125214285Y-89740533D02*
X125261904Y-89883390D01*
X125261904Y-89883390D02*
X125833332Y-90454819D01*
X125833332Y-90454819D02*
X125214285Y-90454819D01*
X124880951Y-89454819D02*
X124214285Y-89454819D01*
X124214285Y-89454819D02*
X124642856Y-90454819D01*
X123166665Y-89454819D02*
X122928570Y-90454819D01*
X122928570Y-90454819D02*
X122738094Y-89740533D01*
X122738094Y-89740533D02*
X122547618Y-90454819D01*
X122547618Y-90454819D02*
X122309523Y-89454819D01*
X121928570Y-90454819D02*
X121928570Y-89454819D01*
X121928570Y-89454819D02*
X121690475Y-89454819D01*
X121690475Y-89454819D02*
X121547618Y-89502438D01*
X121547618Y-89502438D02*
X121452380Y-89597676D01*
X121452380Y-89597676D02*
X121404761Y-89692914D01*
X121404761Y-89692914D02*
X121357142Y-89883390D01*
X121357142Y-89883390D02*
X121357142Y-90026247D01*
X121357142Y-90026247D02*
X121404761Y-90216723D01*
X121404761Y-90216723D02*
X121452380Y-90311961D01*
X121452380Y-90311961D02*
X121547618Y-90407200D01*
X121547618Y-90407200D02*
X121690475Y-90454819D01*
X121690475Y-90454819D02*
X121928570Y-90454819D01*
X121166666Y-90550057D02*
X120404761Y-90550057D01*
X120166665Y-90454819D02*
X120166665Y-89454819D01*
X120166665Y-89454819D02*
X119833332Y-90169104D01*
X119833332Y-90169104D02*
X119499999Y-89454819D01*
X119499999Y-89454819D02*
X119499999Y-90454819D01*
X118452380Y-90454819D02*
X118785713Y-89978628D01*
X119023808Y-90454819D02*
X119023808Y-89454819D01*
X119023808Y-89454819D02*
X118642856Y-89454819D01*
X118642856Y-89454819D02*
X118547618Y-89502438D01*
X118547618Y-89502438D02*
X118499999Y-89550057D01*
X118499999Y-89550057D02*
X118452380Y-89645295D01*
X118452380Y-89645295D02*
X118452380Y-89788152D01*
X118452380Y-89788152D02*
X118499999Y-89883390D01*
X118499999Y-89883390D02*
X118547618Y-89931009D01*
X118547618Y-89931009D02*
X118642856Y-89978628D01*
X118642856Y-89978628D02*
X119023808Y-89978628D01*
X127809523Y-92454819D02*
X127238095Y-92454819D01*
X127523809Y-93454819D02*
X127523809Y-92454819D01*
X126904761Y-93454819D02*
X126904761Y-92454819D01*
X126904761Y-92454819D02*
X126523809Y-92454819D01*
X126523809Y-92454819D02*
X126428571Y-92502438D01*
X126428571Y-92502438D02*
X126380952Y-92550057D01*
X126380952Y-92550057D02*
X126333333Y-92645295D01*
X126333333Y-92645295D02*
X126333333Y-92788152D01*
X126333333Y-92788152D02*
X126380952Y-92883390D01*
X126380952Y-92883390D02*
X126428571Y-92931009D01*
X126428571Y-92931009D02*
X126523809Y-92978628D01*
X126523809Y-92978628D02*
X126904761Y-92978628D01*
X125952380Y-92550057D02*
X125904761Y-92502438D01*
X125904761Y-92502438D02*
X125809523Y-92454819D01*
X125809523Y-92454819D02*
X125571428Y-92454819D01*
X125571428Y-92454819D02*
X125476190Y-92502438D01*
X125476190Y-92502438D02*
X125428571Y-92550057D01*
X125428571Y-92550057D02*
X125380952Y-92645295D01*
X125380952Y-92645295D02*
X125380952Y-92740533D01*
X125380952Y-92740533D02*
X125428571Y-92883390D01*
X125428571Y-92883390D02*
X125999999Y-93454819D01*
X125999999Y-93454819D02*
X125380952Y-93454819D01*
X124809523Y-92883390D02*
X124904761Y-92835771D01*
X124904761Y-92835771D02*
X124952380Y-92788152D01*
X124952380Y-92788152D02*
X124999999Y-92692914D01*
X124999999Y-92692914D02*
X124999999Y-92645295D01*
X124999999Y-92645295D02*
X124952380Y-92550057D01*
X124952380Y-92550057D02*
X124904761Y-92502438D01*
X124904761Y-92502438D02*
X124809523Y-92454819D01*
X124809523Y-92454819D02*
X124619047Y-92454819D01*
X124619047Y-92454819D02*
X124523809Y-92502438D01*
X124523809Y-92502438D02*
X124476190Y-92550057D01*
X124476190Y-92550057D02*
X124428571Y-92645295D01*
X124428571Y-92645295D02*
X124428571Y-92692914D01*
X124428571Y-92692914D02*
X124476190Y-92788152D01*
X124476190Y-92788152D02*
X124523809Y-92835771D01*
X124523809Y-92835771D02*
X124619047Y-92883390D01*
X124619047Y-92883390D02*
X124809523Y-92883390D01*
X124809523Y-92883390D02*
X124904761Y-92931009D01*
X124904761Y-92931009D02*
X124952380Y-92978628D01*
X124952380Y-92978628D02*
X124999999Y-93073866D01*
X124999999Y-93073866D02*
X124999999Y-93264342D01*
X124999999Y-93264342D02*
X124952380Y-93359580D01*
X124952380Y-93359580D02*
X124904761Y-93407200D01*
X124904761Y-93407200D02*
X124809523Y-93454819D01*
X124809523Y-93454819D02*
X124619047Y-93454819D01*
X124619047Y-93454819D02*
X124523809Y-93407200D01*
X124523809Y-93407200D02*
X124476190Y-93359580D01*
X124476190Y-93359580D02*
X124428571Y-93264342D01*
X124428571Y-93264342D02*
X124428571Y-93073866D01*
X124428571Y-93073866D02*
X124476190Y-92978628D01*
X124476190Y-92978628D02*
X124523809Y-92931009D01*
X124523809Y-92931009D02*
X124619047Y-92883390D01*
X123238094Y-92454819D02*
X123238094Y-93264342D01*
X123238094Y-93264342D02*
X123190475Y-93359580D01*
X123190475Y-93359580D02*
X123142856Y-93407200D01*
X123142856Y-93407200D02*
X123047618Y-93454819D01*
X123047618Y-93454819D02*
X122857142Y-93454819D01*
X122857142Y-93454819D02*
X122761904Y-93407200D01*
X122761904Y-93407200D02*
X122714285Y-93359580D01*
X122714285Y-93359580D02*
X122666666Y-93264342D01*
X122666666Y-93264342D02*
X122666666Y-92454819D01*
X122285713Y-92454819D02*
X121619047Y-92454819D01*
X121619047Y-92454819D02*
X122047618Y-93454819D01*
X121476190Y-93550057D02*
X120714285Y-93550057D01*
X120571427Y-92454819D02*
X120333332Y-93454819D01*
X120333332Y-93454819D02*
X120142856Y-92740533D01*
X120142856Y-92740533D02*
X119952380Y-93454819D01*
X119952380Y-93454819D02*
X119714285Y-92454819D01*
X119333332Y-93454819D02*
X119333332Y-92454819D01*
X119333332Y-92454819D02*
X119095237Y-92454819D01*
X119095237Y-92454819D02*
X118952380Y-92502438D01*
X118952380Y-92502438D02*
X118857142Y-92597676D01*
X118857142Y-92597676D02*
X118809523Y-92692914D01*
X118809523Y-92692914D02*
X118761904Y-92883390D01*
X118761904Y-92883390D02*
X118761904Y-93026247D01*
X118761904Y-93026247D02*
X118809523Y-93216723D01*
X118809523Y-93216723D02*
X118857142Y-93311961D01*
X118857142Y-93311961D02*
X118952380Y-93407200D01*
X118952380Y-93407200D02*
X119095237Y-93454819D01*
X119095237Y-93454819D02*
X119333332Y-93454819D01*
X118333332Y-93454819D02*
X118333332Y-92454819D01*
X127547618Y-95454819D02*
X126976190Y-95454819D01*
X127261904Y-96454819D02*
X127261904Y-95454819D01*
X126642856Y-96454819D02*
X126642856Y-95454819D01*
X126642856Y-95454819D02*
X126261904Y-95454819D01*
X126261904Y-95454819D02*
X126166666Y-95502438D01*
X126166666Y-95502438D02*
X126119047Y-95550057D01*
X126119047Y-95550057D02*
X126071428Y-95645295D01*
X126071428Y-95645295D02*
X126071428Y-95788152D01*
X126071428Y-95788152D02*
X126119047Y-95883390D01*
X126119047Y-95883390D02*
X126166666Y-95931009D01*
X126166666Y-95931009D02*
X126261904Y-95978628D01*
X126261904Y-95978628D02*
X126642856Y-95978628D01*
X125690475Y-95550057D02*
X125642856Y-95502438D01*
X125642856Y-95502438D02*
X125547618Y-95454819D01*
X125547618Y-95454819D02*
X125309523Y-95454819D01*
X125309523Y-95454819D02*
X125214285Y-95502438D01*
X125214285Y-95502438D02*
X125166666Y-95550057D01*
X125166666Y-95550057D02*
X125119047Y-95645295D01*
X125119047Y-95645295D02*
X125119047Y-95740533D01*
X125119047Y-95740533D02*
X125166666Y-95883390D01*
X125166666Y-95883390D02*
X125738094Y-96454819D01*
X125738094Y-96454819D02*
X125119047Y-96454819D01*
X124642856Y-96454819D02*
X124452380Y-96454819D01*
X124452380Y-96454819D02*
X124357142Y-96407200D01*
X124357142Y-96407200D02*
X124309523Y-96359580D01*
X124309523Y-96359580D02*
X124214285Y-96216723D01*
X124214285Y-96216723D02*
X124166666Y-96026247D01*
X124166666Y-96026247D02*
X124166666Y-95645295D01*
X124166666Y-95645295D02*
X124214285Y-95550057D01*
X124214285Y-95550057D02*
X124261904Y-95502438D01*
X124261904Y-95502438D02*
X124357142Y-95454819D01*
X124357142Y-95454819D02*
X124547618Y-95454819D01*
X124547618Y-95454819D02*
X124642856Y-95502438D01*
X124642856Y-95502438D02*
X124690475Y-95550057D01*
X124690475Y-95550057D02*
X124738094Y-95645295D01*
X124738094Y-95645295D02*
X124738094Y-95883390D01*
X124738094Y-95883390D02*
X124690475Y-95978628D01*
X124690475Y-95978628D02*
X124642856Y-96026247D01*
X124642856Y-96026247D02*
X124547618Y-96073866D01*
X124547618Y-96073866D02*
X124357142Y-96073866D01*
X124357142Y-96073866D02*
X124261904Y-96026247D01*
X124261904Y-96026247D02*
X124214285Y-95978628D01*
X124214285Y-95978628D02*
X124166666Y-95883390D01*
X123071427Y-95454819D02*
X122833332Y-96454819D01*
X122833332Y-96454819D02*
X122642856Y-95740533D01*
X122642856Y-95740533D02*
X122452380Y-96454819D01*
X122452380Y-96454819D02*
X122214285Y-95454819D01*
X121833332Y-96454819D02*
X121833332Y-95454819D01*
X121833332Y-95454819D02*
X121595237Y-95454819D01*
X121595237Y-95454819D02*
X121452380Y-95502438D01*
X121452380Y-95502438D02*
X121357142Y-95597676D01*
X121357142Y-95597676D02*
X121309523Y-95692914D01*
X121309523Y-95692914D02*
X121261904Y-95883390D01*
X121261904Y-95883390D02*
X121261904Y-96026247D01*
X121261904Y-96026247D02*
X121309523Y-96216723D01*
X121309523Y-96216723D02*
X121357142Y-96311961D01*
X121357142Y-96311961D02*
X121452380Y-96407200D01*
X121452380Y-96407200D02*
X121595237Y-96454819D01*
X121595237Y-96454819D02*
X121833332Y-96454819D01*
X121071428Y-96550057D02*
X120309523Y-96550057D01*
X120071427Y-95931009D02*
X119738094Y-95931009D01*
X119595237Y-96454819D02*
X120071427Y-96454819D01*
X120071427Y-96454819D02*
X120071427Y-95454819D01*
X120071427Y-95454819D02*
X119595237Y-95454819D01*
X119166665Y-96454819D02*
X119166665Y-95454819D01*
X119166665Y-95454819D02*
X118595237Y-96454819D01*
X118595237Y-96454819D02*
X118595237Y-95454819D01*
X128809523Y-98454819D02*
X128238095Y-98454819D01*
X128523809Y-99454819D02*
X128523809Y-98454819D01*
X127904761Y-99454819D02*
X127904761Y-98454819D01*
X127904761Y-98454819D02*
X127523809Y-98454819D01*
X127523809Y-98454819D02*
X127428571Y-98502438D01*
X127428571Y-98502438D02*
X127380952Y-98550057D01*
X127380952Y-98550057D02*
X127333333Y-98645295D01*
X127333333Y-98645295D02*
X127333333Y-98788152D01*
X127333333Y-98788152D02*
X127380952Y-98883390D01*
X127380952Y-98883390D02*
X127428571Y-98931009D01*
X127428571Y-98931009D02*
X127523809Y-98978628D01*
X127523809Y-98978628D02*
X127904761Y-98978628D01*
X126999999Y-98454819D02*
X126380952Y-98454819D01*
X126380952Y-98454819D02*
X126714285Y-98835771D01*
X126714285Y-98835771D02*
X126571428Y-98835771D01*
X126571428Y-98835771D02*
X126476190Y-98883390D01*
X126476190Y-98883390D02*
X126428571Y-98931009D01*
X126428571Y-98931009D02*
X126380952Y-99026247D01*
X126380952Y-99026247D02*
X126380952Y-99264342D01*
X126380952Y-99264342D02*
X126428571Y-99359580D01*
X126428571Y-99359580D02*
X126476190Y-99407200D01*
X126476190Y-99407200D02*
X126571428Y-99454819D01*
X126571428Y-99454819D02*
X126857142Y-99454819D01*
X126857142Y-99454819D02*
X126952380Y-99407200D01*
X126952380Y-99407200D02*
X126999999Y-99359580D01*
X125761904Y-98454819D02*
X125666666Y-98454819D01*
X125666666Y-98454819D02*
X125571428Y-98502438D01*
X125571428Y-98502438D02*
X125523809Y-98550057D01*
X125523809Y-98550057D02*
X125476190Y-98645295D01*
X125476190Y-98645295D02*
X125428571Y-98835771D01*
X125428571Y-98835771D02*
X125428571Y-99073866D01*
X125428571Y-99073866D02*
X125476190Y-99264342D01*
X125476190Y-99264342D02*
X125523809Y-99359580D01*
X125523809Y-99359580D02*
X125571428Y-99407200D01*
X125571428Y-99407200D02*
X125666666Y-99454819D01*
X125666666Y-99454819D02*
X125761904Y-99454819D01*
X125761904Y-99454819D02*
X125857142Y-99407200D01*
X125857142Y-99407200D02*
X125904761Y-99359580D01*
X125904761Y-99359580D02*
X125952380Y-99264342D01*
X125952380Y-99264342D02*
X125999999Y-99073866D01*
X125999999Y-99073866D02*
X125999999Y-98835771D01*
X125999999Y-98835771D02*
X125952380Y-98645295D01*
X125952380Y-98645295D02*
X125904761Y-98550057D01*
X125904761Y-98550057D02*
X125857142Y-98502438D01*
X125857142Y-98502438D02*
X125761904Y-98454819D01*
X124380951Y-98454819D02*
X123809523Y-98454819D01*
X124095237Y-99454819D02*
X124095237Y-98454819D01*
X123476189Y-98931009D02*
X123142856Y-98931009D01*
X122999999Y-99454819D02*
X123476189Y-99454819D01*
X123476189Y-99454819D02*
X123476189Y-98454819D01*
X123476189Y-98454819D02*
X122999999Y-98454819D01*
X122571427Y-99454819D02*
X122571427Y-98454819D01*
X122571427Y-98454819D02*
X122238094Y-99169104D01*
X122238094Y-99169104D02*
X121904761Y-98454819D01*
X121904761Y-98454819D02*
X121904761Y-99454819D01*
X121428570Y-99454819D02*
X121428570Y-98454819D01*
X121428570Y-98454819D02*
X121047618Y-98454819D01*
X121047618Y-98454819D02*
X120952380Y-98502438D01*
X120952380Y-98502438D02*
X120904761Y-98550057D01*
X120904761Y-98550057D02*
X120857142Y-98645295D01*
X120857142Y-98645295D02*
X120857142Y-98788152D01*
X120857142Y-98788152D02*
X120904761Y-98883390D01*
X120904761Y-98883390D02*
X120952380Y-98931009D01*
X120952380Y-98931009D02*
X121047618Y-98978628D01*
X121047618Y-98978628D02*
X121428570Y-98978628D01*
X120666666Y-99550057D02*
X119904761Y-99550057D01*
X119714284Y-99407200D02*
X119571427Y-99454819D01*
X119571427Y-99454819D02*
X119333332Y-99454819D01*
X119333332Y-99454819D02*
X119238094Y-99407200D01*
X119238094Y-99407200D02*
X119190475Y-99359580D01*
X119190475Y-99359580D02*
X119142856Y-99264342D01*
X119142856Y-99264342D02*
X119142856Y-99169104D01*
X119142856Y-99169104D02*
X119190475Y-99073866D01*
X119190475Y-99073866D02*
X119238094Y-99026247D01*
X119238094Y-99026247D02*
X119333332Y-98978628D01*
X119333332Y-98978628D02*
X119523808Y-98931009D01*
X119523808Y-98931009D02*
X119619046Y-98883390D01*
X119619046Y-98883390D02*
X119666665Y-98835771D01*
X119666665Y-98835771D02*
X119714284Y-98740533D01*
X119714284Y-98740533D02*
X119714284Y-98645295D01*
X119714284Y-98645295D02*
X119666665Y-98550057D01*
X119666665Y-98550057D02*
X119619046Y-98502438D01*
X119619046Y-98502438D02*
X119523808Y-98454819D01*
X119523808Y-98454819D02*
X119285713Y-98454819D01*
X119285713Y-98454819D02*
X119142856Y-98502438D01*
X118714284Y-99454819D02*
X118714284Y-98454819D01*
X118714284Y-98454819D02*
X118476189Y-98454819D01*
X118476189Y-98454819D02*
X118333332Y-98502438D01*
X118333332Y-98502438D02*
X118238094Y-98597676D01*
X118238094Y-98597676D02*
X118190475Y-98692914D01*
X118190475Y-98692914D02*
X118142856Y-98883390D01*
X118142856Y-98883390D02*
X118142856Y-99026247D01*
X118142856Y-99026247D02*
X118190475Y-99216723D01*
X118190475Y-99216723D02*
X118238094Y-99311961D01*
X118238094Y-99311961D02*
X118333332Y-99407200D01*
X118333332Y-99407200D02*
X118476189Y-99454819D01*
X118476189Y-99454819D02*
X118714284Y-99454819D01*
X117761903Y-99169104D02*
X117285713Y-99169104D01*
X117857141Y-99454819D02*
X117523808Y-98454819D01*
X117523808Y-98454819D02*
X117190475Y-99454819D01*
X128785714Y-101454819D02*
X128214286Y-101454819D01*
X128500000Y-102454819D02*
X128500000Y-101454819D01*
X127880952Y-102454819D02*
X127880952Y-101454819D01*
X127880952Y-101454819D02*
X127500000Y-101454819D01*
X127500000Y-101454819D02*
X127404762Y-101502438D01*
X127404762Y-101502438D02*
X127357143Y-101550057D01*
X127357143Y-101550057D02*
X127309524Y-101645295D01*
X127309524Y-101645295D02*
X127309524Y-101788152D01*
X127309524Y-101788152D02*
X127357143Y-101883390D01*
X127357143Y-101883390D02*
X127404762Y-101931009D01*
X127404762Y-101931009D02*
X127500000Y-101978628D01*
X127500000Y-101978628D02*
X127880952Y-101978628D01*
X126976190Y-101454819D02*
X126357143Y-101454819D01*
X126357143Y-101454819D02*
X126690476Y-101835771D01*
X126690476Y-101835771D02*
X126547619Y-101835771D01*
X126547619Y-101835771D02*
X126452381Y-101883390D01*
X126452381Y-101883390D02*
X126404762Y-101931009D01*
X126404762Y-101931009D02*
X126357143Y-102026247D01*
X126357143Y-102026247D02*
X126357143Y-102264342D01*
X126357143Y-102264342D02*
X126404762Y-102359580D01*
X126404762Y-102359580D02*
X126452381Y-102407200D01*
X126452381Y-102407200D02*
X126547619Y-102454819D01*
X126547619Y-102454819D02*
X126833333Y-102454819D01*
X126833333Y-102454819D02*
X126928571Y-102407200D01*
X126928571Y-102407200D02*
X126976190Y-102359580D01*
X125404762Y-102454819D02*
X125976190Y-102454819D01*
X125690476Y-102454819D02*
X125690476Y-101454819D01*
X125690476Y-101454819D02*
X125785714Y-101597676D01*
X125785714Y-101597676D02*
X125880952Y-101692914D01*
X125880952Y-101692914D02*
X125976190Y-101740533D01*
X124357142Y-101454819D02*
X123785714Y-101454819D01*
X124071428Y-102454819D02*
X124071428Y-101454819D01*
X123452380Y-101931009D02*
X123119047Y-101931009D01*
X122976190Y-102454819D02*
X123452380Y-102454819D01*
X123452380Y-102454819D02*
X123452380Y-101454819D01*
X123452380Y-101454819D02*
X122976190Y-101454819D01*
X122547618Y-102454819D02*
X122547618Y-101454819D01*
X122547618Y-101454819D02*
X122214285Y-102169104D01*
X122214285Y-102169104D02*
X121880952Y-101454819D01*
X121880952Y-101454819D02*
X121880952Y-102454819D01*
X121404761Y-102454819D02*
X121404761Y-101454819D01*
X121404761Y-101454819D02*
X121023809Y-101454819D01*
X121023809Y-101454819D02*
X120928571Y-101502438D01*
X120928571Y-101502438D02*
X120880952Y-101550057D01*
X120880952Y-101550057D02*
X120833333Y-101645295D01*
X120833333Y-101645295D02*
X120833333Y-101788152D01*
X120833333Y-101788152D02*
X120880952Y-101883390D01*
X120880952Y-101883390D02*
X120928571Y-101931009D01*
X120928571Y-101931009D02*
X121023809Y-101978628D01*
X121023809Y-101978628D02*
X121404761Y-101978628D01*
X120642857Y-102550057D02*
X119880952Y-102550057D01*
X119690475Y-102407200D02*
X119547618Y-102454819D01*
X119547618Y-102454819D02*
X119309523Y-102454819D01*
X119309523Y-102454819D02*
X119214285Y-102407200D01*
X119214285Y-102407200D02*
X119166666Y-102359580D01*
X119166666Y-102359580D02*
X119119047Y-102264342D01*
X119119047Y-102264342D02*
X119119047Y-102169104D01*
X119119047Y-102169104D02*
X119166666Y-102073866D01*
X119166666Y-102073866D02*
X119214285Y-102026247D01*
X119214285Y-102026247D02*
X119309523Y-101978628D01*
X119309523Y-101978628D02*
X119499999Y-101931009D01*
X119499999Y-101931009D02*
X119595237Y-101883390D01*
X119595237Y-101883390D02*
X119642856Y-101835771D01*
X119642856Y-101835771D02*
X119690475Y-101740533D01*
X119690475Y-101740533D02*
X119690475Y-101645295D01*
X119690475Y-101645295D02*
X119642856Y-101550057D01*
X119642856Y-101550057D02*
X119595237Y-101502438D01*
X119595237Y-101502438D02*
X119499999Y-101454819D01*
X119499999Y-101454819D02*
X119261904Y-101454819D01*
X119261904Y-101454819D02*
X119119047Y-101502438D01*
X118119047Y-102359580D02*
X118166666Y-102407200D01*
X118166666Y-102407200D02*
X118309523Y-102454819D01*
X118309523Y-102454819D02*
X118404761Y-102454819D01*
X118404761Y-102454819D02*
X118547618Y-102407200D01*
X118547618Y-102407200D02*
X118642856Y-102311961D01*
X118642856Y-102311961D02*
X118690475Y-102216723D01*
X118690475Y-102216723D02*
X118738094Y-102026247D01*
X118738094Y-102026247D02*
X118738094Y-101883390D01*
X118738094Y-101883390D02*
X118690475Y-101692914D01*
X118690475Y-101692914D02*
X118642856Y-101597676D01*
X118642856Y-101597676D02*
X118547618Y-101502438D01*
X118547618Y-101502438D02*
X118404761Y-101454819D01*
X118404761Y-101454819D02*
X118309523Y-101454819D01*
X118309523Y-101454819D02*
X118166666Y-101502438D01*
X118166666Y-101502438D02*
X118119047Y-101550057D01*
X117214285Y-102454819D02*
X117690475Y-102454819D01*
X117690475Y-102454819D02*
X117690475Y-101454819D01*
D10*
X90533333Y-57570600D02*
X90333333Y-57637266D01*
X90333333Y-57637266D02*
X90000000Y-57637266D01*
X90000000Y-57637266D02*
X89866666Y-57570600D01*
X89866666Y-57570600D02*
X89800000Y-57503933D01*
X89800000Y-57503933D02*
X89733333Y-57370600D01*
X89733333Y-57370600D02*
X89733333Y-57237266D01*
X89733333Y-57237266D02*
X89800000Y-57103933D01*
X89800000Y-57103933D02*
X89866666Y-57037266D01*
X89866666Y-57037266D02*
X90000000Y-56970600D01*
X90000000Y-56970600D02*
X90266666Y-56903933D01*
X90266666Y-56903933D02*
X90400000Y-56837266D01*
X90400000Y-56837266D02*
X90466666Y-56770600D01*
X90466666Y-56770600D02*
X90533333Y-56637266D01*
X90533333Y-56637266D02*
X90533333Y-56503933D01*
X90533333Y-56503933D02*
X90466666Y-56370600D01*
X90466666Y-56370600D02*
X90400000Y-56303933D01*
X90400000Y-56303933D02*
X90266666Y-56237266D01*
X90266666Y-56237266D02*
X89933333Y-56237266D01*
X89933333Y-56237266D02*
X89733333Y-56303933D01*
X89333333Y-56237266D02*
X88533333Y-56237266D01*
X88933333Y-57637266D02*
X88933333Y-56237266D01*
X88066666Y-57637266D02*
X88066666Y-56237266D01*
X86733333Y-57637266D02*
X87399999Y-57637266D01*
X87399999Y-57637266D02*
X87399999Y-56237266D01*
X85600000Y-57637266D02*
X86266666Y-57637266D01*
X86266666Y-57637266D02*
X86266666Y-56237266D01*
X85200000Y-57237266D02*
X84533333Y-57237266D01*
X85333333Y-57637266D02*
X84866667Y-56237266D01*
X84866667Y-56237266D02*
X84400000Y-57637266D01*
X83933333Y-57637266D02*
X83933333Y-56237266D01*
X82466666Y-57637266D02*
X82933333Y-56970600D01*
X83266666Y-57637266D02*
X83266666Y-56237266D01*
X83266666Y-56237266D02*
X82733333Y-56237266D01*
X82733333Y-56237266D02*
X82600000Y-56303933D01*
X82600000Y-56303933D02*
X82533333Y-56370600D01*
X82533333Y-56370600D02*
X82466666Y-56503933D01*
X82466666Y-56503933D02*
X82466666Y-56703933D01*
X82466666Y-56703933D02*
X82533333Y-56837266D01*
X82533333Y-56837266D02*
X82600000Y-56903933D01*
X82600000Y-56903933D02*
X82733333Y-56970600D01*
X82733333Y-56970600D02*
X83266666Y-56970600D01*
%LPC*%
D12*
G04 #@! TO.C,TP18*
X70000000Y-111500000D03*
G04 #@! TD*
D13*
G04 #@! TO.C,C2*
X71500000Y-64500000D03*
D14*
X76500000Y-64500000D03*
G04 #@! TD*
D12*
G04 #@! TO.C,TP10*
X61500000Y-53000000D03*
G04 #@! TD*
G04 #@! TO.C,TP15*
X136000000Y-94000000D03*
G04 #@! TD*
G04 #@! TO.C,TP20*
X77000000Y-111500000D03*
G04 #@! TD*
G04 #@! TO.C,TP4*
X52000000Y-89000000D03*
G04 #@! TD*
G04 #@! TO.C,TP5*
X52000000Y-93000000D03*
G04 #@! TD*
G04 #@! TO.C,TP7*
X62000000Y-111500000D03*
G04 #@! TD*
D15*
G04 #@! TO.C,H1*
X55000000Y-55000000D03*
G04 #@! TD*
D13*
G04 #@! TO.C,C1*
X58500000Y-64500000D03*
D14*
X63500000Y-64500000D03*
G04 #@! TD*
D12*
G04 #@! TO.C,TP21*
X136000000Y-98000000D03*
G04 #@! TD*
G04 #@! TO.C,TP14*
X77000000Y-53000000D03*
G04 #@! TD*
G04 #@! TO.C,TP12*
X69000000Y-53000000D03*
G04 #@! TD*
G04 #@! TO.C,TP25*
X79000000Y-73500000D03*
G04 #@! TD*
G04 #@! TO.C,TP29*
X58500000Y-92000000D03*
G04 #@! TD*
G04 #@! TO.C,TP31*
X98000000Y-53000000D03*
G04 #@! TD*
G04 #@! TO.C,TP9*
X85000000Y-53000000D03*
G04 #@! TD*
G04 #@! TO.C,TP17*
X69500000Y-106500000D03*
G04 #@! TD*
G04 #@! TO.C,TP26*
X75000000Y-73500000D03*
G04 #@! TD*
G04 #@! TO.C,TP28*
X58500000Y-96000000D03*
G04 #@! TD*
D16*
G04 #@! TO.C,J1*
X52180000Y-77000000D03*
D17*
X56500000Y-77000000D03*
D18*
X59500000Y-77000000D03*
G04 #@! TD*
D15*
G04 #@! TO.C,H4*
X133000000Y-109000000D03*
G04 #@! TD*
D12*
G04 #@! TO.C,TP30*
X94000000Y-53000000D03*
G04 #@! TD*
G04 #@! TO.C,TP13*
X73000000Y-53000000D03*
G04 #@! TD*
G04 #@! TO.C,TP6*
X136000000Y-88000000D03*
G04 #@! TD*
G04 #@! TO.C,TP11*
X65000000Y-53000000D03*
G04 #@! TD*
G04 #@! TO.C,TP27*
X52000000Y-97000000D03*
G04 #@! TD*
G04 #@! TO.C,TP2*
X52000000Y-66000000D03*
G04 #@! TD*
D19*
G04 #@! TO.C,J3*
X118000000Y-110500000D03*
D20*
X120000000Y-110500000D03*
X122000000Y-110500000D03*
G04 #@! TD*
D21*
G04 #@! TO.C,J4*
X114890000Y-56280000D03*
X109110000Y-56280000D03*
D22*
X116320000Y-56780000D03*
D23*
X116320000Y-52600000D03*
D22*
X107680000Y-56780000D03*
D23*
X107680000Y-52600000D03*
G04 #@! TD*
D12*
G04 #@! TO.C,TP19*
X74000000Y-111500000D03*
G04 #@! TD*
G04 #@! TO.C,TP23*
X127000000Y-111500000D03*
G04 #@! TD*
D16*
G04 #@! TO.C,J2*
X85500000Y-108820000D03*
D24*
X88500000Y-104500000D03*
D25*
X85500000Y-104500000D03*
X82500000Y-104500000D03*
G04 #@! TD*
D12*
G04 #@! TO.C,TP8*
X66000000Y-111500000D03*
G04 #@! TD*
D15*
G04 #@! TO.C,H3*
X55000000Y-109000000D03*
G04 #@! TD*
D12*
G04 #@! TO.C,TP22*
X136000000Y-102000000D03*
G04 #@! TD*
G04 #@! TO.C,TP16*
X81000000Y-53000000D03*
G04 #@! TD*
G04 #@! TO.C,TP3*
X52000000Y-85000000D03*
G04 #@! TD*
G04 #@! TO.C,TP24*
X83000000Y-73500000D03*
G04 #@! TD*
G04 #@! TO.C,TP1*
X52000000Y-62000000D03*
G04 #@! TD*
D15*
G04 #@! TO.C,H2*
X133000000Y-55000000D03*
G04 #@! TD*
%LPD*%
M02*
