G04 #@! TF.GenerationSoftware,KiCad,Pcbnew,10.0.5*
G04 #@! TF.CreationDate,2026-08-31T01:13:03-07:00*
G04 #@! TF.ProjectId,pcb-01-v2,7063622d-3031-42d7-9632-2e6b69636164,V2*
G04 #@! TF.SameCoordinates,Original*
G04 #@! TF.FileFunction,Legend,Top*
G04 #@! TF.FilePolarity,Positive*
%FSLAX46Y46*%
G04 Gerber Fmt 4.6, Leading zero omitted, Abs format (unit mm)*
G04 Created by KiCad (PCBNEW 10.0.5) date 2026-08-31 01:13:03*
%MOMM*%
%LPD*%
G01*
G04 APERTURE LIST*
G04 Aperture macros list*
%AMRoundRect*
0 Rectangle with rounded corners*
0 $1 Rounding radius*
0 $2 $3 $4 $5 $6 $7 $8 $9 X,Y pos of 4 corners*
0 Add a 4 corners polygon primitive as box body*
4,1,4,$2,$3,$4,$5,$6,$7,$8,$9,$2,$3,0*
0 Add four circle primitives for the rounded corners*
1,1,$1+$1,$2,$3*
1,1,$1+$1,$4,$5*
1,1,$1+$1,$6,$7*
1,1,$1+$1,$8,$9*
0 Add four rect primitives between the rounded corners*
20,1,$1+$1,$2,$3,$4,$5,0*
20,1,$1+$1,$4,$5,$6,$7,0*
20,1,$1+$1,$6,$7,$8,$9,0*
20,1,$1+$1,$8,$9,$2,$3,0*%
G04 Aperture macros list end*
%ADD10C,0.350000*%
%ADD11C,0.150000*%
%ADD12C,0.225000*%
%ADD13RoundRect,0.135000X0.185000X-0.135000X0.185000X0.135000X-0.185000X0.135000X-0.185000X-0.135000X0*%
%ADD14RoundRect,0.135000X-0.135000X-0.185000X0.135000X-0.185000X0.135000X0.185000X-0.135000X0.185000X0*%
%ADD15RoundRect,0.225000X-0.225000X-0.375000X0.225000X-0.375000X0.225000X0.375000X-0.225000X0.375000X0*%
%ADD16C,2.400000*%
%ADD17RoundRect,0.250000X-0.750000X-0.750000X0.750000X-0.750000X0.750000X0.750000X-0.750000X0.750000X0*%
%ADD18C,2.000000*%
%ADD19RoundRect,0.225000X-0.225000X-0.250000X0.225000X-0.250000X0.225000X0.250000X-0.225000X0.250000X0*%
%ADD20RoundRect,0.140000X-0.140000X-0.170000X0.140000X-0.170000X0.140000X0.170000X-0.140000X0.170000X0*%
%ADD21RoundRect,0.075000X0.075000X0.075000X-0.075000X0.075000X-0.075000X-0.075000X0.075000X-0.075000X0*%
%ADD22RoundRect,0.087500X-0.425000X-0.087500X0.425000X-0.087500X0.425000X0.087500X-0.425000X0.087500X0*%
%ADD23RoundRect,0.250000X-0.325000X-1.100000X0.325000X-1.100000X0.325000X1.100000X-0.325000X1.100000X0*%
%ADD24RoundRect,0.140000X0.170000X-0.140000X0.170000X0.140000X-0.170000X0.140000X-0.170000X-0.140000X0*%
%ADD25RoundRect,0.250000X-0.250000X-0.475000X0.250000X-0.475000X0.250000X0.475000X-0.250000X0.475000X0*%
%ADD26RoundRect,0.150000X0.150000X-0.587500X0.150000X0.587500X-0.150000X0.587500X-0.150000X-0.587500X0*%
%ADD27RoundRect,0.225000X-0.250000X0.225000X-0.250000X-0.225000X0.250000X-0.225000X0.250000X0.225000X0*%
%ADD28C,3.200000*%
%ADD29RoundRect,0.112500X-0.700000X-0.112500X0.700000X-0.112500X0.700000X0.112500X-0.700000X0.112500X0*%
%ADD30RoundRect,0.250000X-0.525000X-0.400000X0.525000X-0.400000X0.525000X0.400000X-0.525000X0.400000X0*%
%ADD31RoundRect,0.062500X-0.237500X-0.062500X0.237500X-0.062500X0.237500X0.062500X-0.237500X0.062500X0*%
%ADD32RoundRect,0.062500X-0.062500X-0.237500X0.062500X-0.237500X0.062500X0.237500X-0.062500X0.237500X0*%
%ADD33R,3.700000X5.700000*%
%ADD34RoundRect,0.250000X-0.362500X-1.425000X0.362500X-1.425000X0.362500X1.425000X-0.362500X1.425000X0*%
%ADD35RoundRect,0.250000X-1.100000X0.325000X-1.100000X-0.325000X1.100000X-0.325000X1.100000X0.325000X0*%
%ADD36RoundRect,0.250000X0.650000X-0.325000X0.650000X0.325000X-0.650000X0.325000X-0.650000X-0.325000X0*%
%ADD37RoundRect,0.250000X1.100000X-0.325000X1.100000X0.325000X-1.100000X0.325000X-1.100000X-0.325000X0*%
%ADD38RoundRect,0.375000X0.375000X-0.625000X0.375000X0.625000X-0.375000X0.625000X-0.375000X-0.625000X0*%
%ADD39RoundRect,0.500000X1.400000X-0.500000X1.400000X0.500000X-1.400000X0.500000X-1.400000X-0.500000X0*%
%ADD40RoundRect,0.225000X0.250000X-0.225000X0.250000X0.225000X-0.250000X0.225000X-0.250000X-0.225000X0*%
%ADD41RoundRect,0.225000X-0.225000X0.525000X-0.225000X-0.525000X0.225000X-0.525000X0.225000X0.525000X0*%
%ADD42R,0.900000X1.500000*%
%ADD43R,0.800000X0.800000*%
%ADD44RoundRect,0.250000X-0.400000X-0.550000X0.400000X-0.550000X0.400000X0.550000X-0.400000X0.550000X0*%
%ADD45RoundRect,0.250000X-0.750000X-0.550000X0.750000X-0.550000X0.750000X0.550000X-0.750000X0.550000X0*%
%ADD46C,3.000000*%
%ADD47RoundRect,0.250001X0.499999X-0.499999X0.499999X0.499999X-0.499999X0.499999X-0.499999X-0.499999X0*%
%ADD48C,1.500000*%
%ADD49RoundRect,0.100000X-0.450000X-0.100000X0.450000X-0.100000X0.450000X0.100000X-0.450000X0.100000X0*%
%ADD50RoundRect,0.250000X0.250000X0.475000X-0.250000X0.475000X-0.250000X-0.475000X0.250000X-0.475000X0*%
%ADD51RoundRect,0.150000X-0.825000X-0.150000X0.825000X-0.150000X0.825000X0.150000X-0.825000X0.150000X0*%
%ADD52RoundRect,0.250000X0.600000X2.600000X-0.600000X2.600000X-0.600000X-2.600000X0.600000X-2.600000X0*%
%ADD53RoundRect,0.100000X-0.625000X-0.100000X0.625000X-0.100000X0.625000X0.100000X-0.625000X0.100000X0*%
%ADD54R,1.680000X1.880000*%
%ADD55RoundRect,0.150000X-0.587500X-0.150000X0.587500X-0.150000X0.587500X0.150000X-0.587500X0.150000X0*%
%ADD56RoundRect,0.250000X-0.350000X-0.625000X0.350000X-0.625000X0.350000X0.625000X-0.350000X0.625000X0*%
%ADD57O,1.200000X1.750000*%
%ADD58RoundRect,0.250000X0.475000X-0.250000X0.475000X0.250000X-0.475000X0.250000X-0.475000X-0.250000X0*%
%ADD59C,0.650000*%
%ADD60RoundRect,0.150000X0.150000X0.425000X-0.150000X0.425000X-0.150000X-0.425000X0.150000X-0.425000X0*%
%ADD61RoundRect,0.075000X0.075000X0.500000X-0.075000X0.500000X-0.075000X-0.500000X0.075000X-0.500000X0*%
%ADD62O,1.000000X2.100000*%
%ADD63O,1.000000X1.800000*%
%ADD64RoundRect,0.250000X1.400000X1.000000X-1.400000X1.000000X-1.400000X-1.000000X1.400000X-1.000000X0*%
%ADD65RoundRect,0.075000X-0.075000X-0.075000X0.075000X-0.075000X0.075000X0.075000X-0.075000X0.075000X0*%
%ADD66RoundRect,0.250001X0.499999X0.759999X-0.499999X0.759999X-0.499999X-0.759999X0.499999X-0.759999X0*%
%ADD67O,1.500000X2.020000*%
%ADD68RoundRect,0.112500X-0.550000X-0.112500X0.550000X-0.112500X0.550000X0.112500X-0.550000X0.112500X0*%
%ADD69RoundRect,0.150000X-0.512500X-0.150000X0.512500X-0.150000X0.512500X0.150000X-0.512500X0.150000X0*%
%ADD70RoundRect,0.093750X-0.468750X-0.093750X0.468750X-0.093750X0.468750X0.093750X-0.468750X0.093750X0*%
%ADD71RoundRect,0.062500X-0.487500X-0.062500X0.487500X-0.062500X0.487500X0.062500X-0.487500X0.062500X0*%
%ADD72RoundRect,0.295000X-0.375000X-0.625000X0.375000X-0.625000X0.375000X0.625000X-0.375000X0.625000X0*%
%ADD73RoundRect,0.062500X-0.062500X-0.337500X0.062500X-0.337500X0.062500X0.337500X-0.062500X0.337500X0*%
%ADD74RoundRect,0.075000X-0.075000X-0.700000X0.075000X-0.700000X0.075000X0.700000X-0.075000X0.700000X0*%
%ADD75RoundRect,0.250000X0.325000X1.100000X-0.325000X1.100000X-0.325000X-1.100000X0.325000X-1.100000X0*%
G04 APERTURE END LIST*
D10*
X81314726Y-90722602D02*
G75*
G02*
X80964726Y-90722602I-175000J0D01*
G01*
X80964726Y-90722602D02*
G75*
G02*
X81314726Y-90722602I175000J0D01*
G01*
X118318670Y-91602983D02*
G75*
G02*
X117968670Y-91602983I-175000J0D01*
G01*
X117968670Y-91602983D02*
G75*
G02*
X118318670Y-91602983I175000J0D01*
G01*
D11*
X60109523Y-50362295D02*
X60566666Y-50362295D01*
X60338094Y-51162295D02*
X60338094Y-50362295D01*
X60833333Y-51162295D02*
X60833333Y-50362295D01*
X60833333Y-50362295D02*
X61138095Y-50362295D01*
X61138095Y-50362295D02*
X61214285Y-50400390D01*
X61214285Y-50400390D02*
X61252380Y-50438485D01*
X61252380Y-50438485D02*
X61290476Y-50514676D01*
X61290476Y-50514676D02*
X61290476Y-50628961D01*
X61290476Y-50628961D02*
X61252380Y-50705152D01*
X61252380Y-50705152D02*
X61214285Y-50743247D01*
X61214285Y-50743247D02*
X61138095Y-50781342D01*
X61138095Y-50781342D02*
X60833333Y-50781342D01*
X62052380Y-51162295D02*
X61595237Y-51162295D01*
X61823809Y-51162295D02*
X61823809Y-50362295D01*
X61823809Y-50362295D02*
X61747618Y-50476580D01*
X61747618Y-50476580D02*
X61671428Y-50552771D01*
X61671428Y-50552771D02*
X61595237Y-50590866D01*
X62547619Y-50362295D02*
X62623809Y-50362295D01*
X62623809Y-50362295D02*
X62700000Y-50400390D01*
X62700000Y-50400390D02*
X62738095Y-50438485D01*
X62738095Y-50438485D02*
X62776190Y-50514676D01*
X62776190Y-50514676D02*
X62814285Y-50667057D01*
X62814285Y-50667057D02*
X62814285Y-50857533D01*
X62814285Y-50857533D02*
X62776190Y-51009914D01*
X62776190Y-51009914D02*
X62738095Y-51086104D01*
X62738095Y-51086104D02*
X62700000Y-51124200D01*
X62700000Y-51124200D02*
X62623809Y-51162295D01*
X62623809Y-51162295D02*
X62547619Y-51162295D01*
X62547619Y-51162295D02*
X62471428Y-51124200D01*
X62471428Y-51124200D02*
X62433333Y-51086104D01*
X62433333Y-51086104D02*
X62395238Y-51009914D01*
X62395238Y-51009914D02*
X62357142Y-50857533D01*
X62357142Y-50857533D02*
X62357142Y-50667057D01*
X62357142Y-50667057D02*
X62395238Y-50514676D01*
X62395238Y-50514676D02*
X62433333Y-50438485D01*
X62433333Y-50438485D02*
X62471428Y-50400390D01*
X62471428Y-50400390D02*
X62547619Y-50362295D01*
X59390475Y-69118318D02*
X59390475Y-69689746D01*
X59390475Y-69689746D02*
X59352380Y-69804032D01*
X59352380Y-69804032D02*
X59276189Y-69880223D01*
X59276189Y-69880223D02*
X59161904Y-69918318D01*
X59161904Y-69918318D02*
X59085713Y-69918318D01*
X60190475Y-69918318D02*
X59733332Y-69918318D01*
X59961904Y-69918318D02*
X59961904Y-69118318D01*
X59961904Y-69118318D02*
X59885713Y-69232603D01*
X59885713Y-69232603D02*
X59809523Y-69308794D01*
X59809523Y-69308794D02*
X59733332Y-69346889D01*
X61142857Y-69918318D02*
X61142857Y-69118318D01*
X61142857Y-69118318D02*
X61447619Y-69118318D01*
X61447619Y-69118318D02*
X61523809Y-69156413D01*
X61523809Y-69156413D02*
X61561904Y-69194508D01*
X61561904Y-69194508D02*
X61600000Y-69270699D01*
X61600000Y-69270699D02*
X61600000Y-69384984D01*
X61600000Y-69384984D02*
X61561904Y-69461175D01*
X61561904Y-69461175D02*
X61523809Y-69499270D01*
X61523809Y-69499270D02*
X61447619Y-69537365D01*
X61447619Y-69537365D02*
X61142857Y-69537365D01*
X62095238Y-69118318D02*
X62247619Y-69118318D01*
X62247619Y-69118318D02*
X62323809Y-69156413D01*
X62323809Y-69156413D02*
X62400000Y-69232603D01*
X62400000Y-69232603D02*
X62438095Y-69384984D01*
X62438095Y-69384984D02*
X62438095Y-69651651D01*
X62438095Y-69651651D02*
X62400000Y-69804032D01*
X62400000Y-69804032D02*
X62323809Y-69880223D01*
X62323809Y-69880223D02*
X62247619Y-69918318D01*
X62247619Y-69918318D02*
X62095238Y-69918318D01*
X62095238Y-69918318D02*
X62019047Y-69880223D01*
X62019047Y-69880223D02*
X61942857Y-69804032D01*
X61942857Y-69804032D02*
X61904761Y-69651651D01*
X61904761Y-69651651D02*
X61904761Y-69384984D01*
X61904761Y-69384984D02*
X61942857Y-69232603D01*
X61942857Y-69232603D02*
X62019047Y-69156413D01*
X62019047Y-69156413D02*
X62095238Y-69118318D01*
X62704761Y-69118318D02*
X62895237Y-69918318D01*
X62895237Y-69918318D02*
X63047618Y-69346889D01*
X63047618Y-69346889D02*
X63199999Y-69918318D01*
X63199999Y-69918318D02*
X63390476Y-69118318D01*
X63695238Y-69499270D02*
X63961904Y-69499270D01*
X64076190Y-69918318D02*
X63695238Y-69918318D01*
X63695238Y-69918318D02*
X63695238Y-69118318D01*
X63695238Y-69118318D02*
X64076190Y-69118318D01*
X64876191Y-69918318D02*
X64609524Y-69537365D01*
X64419048Y-69918318D02*
X64419048Y-69118318D01*
X64419048Y-69118318D02*
X64723810Y-69118318D01*
X64723810Y-69118318D02*
X64800000Y-69156413D01*
X64800000Y-69156413D02*
X64838095Y-69194508D01*
X64838095Y-69194508D02*
X64876191Y-69270699D01*
X64876191Y-69270699D02*
X64876191Y-69384984D01*
X64876191Y-69384984D02*
X64838095Y-69461175D01*
X64838095Y-69461175D02*
X64800000Y-69499270D01*
X64800000Y-69499270D02*
X64723810Y-69537365D01*
X64723810Y-69537365D02*
X64419048Y-69537365D01*
X58285714Y-71206273D02*
X57828571Y-71206273D01*
X58057143Y-71206273D02*
X58057143Y-70406273D01*
X58057143Y-70406273D02*
X57980952Y-70520558D01*
X57980952Y-70520558D02*
X57904762Y-70596749D01*
X57904762Y-70596749D02*
X57828571Y-70634844D01*
X58628572Y-71130082D02*
X58666667Y-71168178D01*
X58666667Y-71168178D02*
X58628572Y-71206273D01*
X58628572Y-71206273D02*
X58590476Y-71168178D01*
X58590476Y-71168178D02*
X58628572Y-71130082D01*
X58628572Y-71130082D02*
X58628572Y-71206273D01*
X58628572Y-70711035D02*
X58666667Y-70749130D01*
X58666667Y-70749130D02*
X58628572Y-70787225D01*
X58628572Y-70787225D02*
X58590476Y-70749130D01*
X58590476Y-70749130D02*
X58628572Y-70711035D01*
X58628572Y-70711035D02*
X58628572Y-70787225D01*
X59009524Y-70901511D02*
X59619048Y-70901511D01*
X59314286Y-71206273D02*
X59314286Y-70596749D01*
X59961904Y-70482463D02*
X60000000Y-70444368D01*
X60000000Y-70444368D02*
X60076190Y-70406273D01*
X60076190Y-70406273D02*
X60266666Y-70406273D01*
X60266666Y-70406273D02*
X60342857Y-70444368D01*
X60342857Y-70444368D02*
X60380952Y-70482463D01*
X60380952Y-70482463D02*
X60419047Y-70558654D01*
X60419047Y-70558654D02*
X60419047Y-70634844D01*
X60419047Y-70634844D02*
X60380952Y-70749130D01*
X60380952Y-70749130D02*
X59923809Y-71206273D01*
X59923809Y-71206273D02*
X60419047Y-71206273D01*
X61104762Y-70672939D02*
X61104762Y-71206273D01*
X60914286Y-70368178D02*
X60723809Y-70939606D01*
X60723809Y-70939606D02*
X61219048Y-70939606D01*
X62095238Y-70482463D02*
X62133334Y-70444368D01*
X62133334Y-70444368D02*
X62209524Y-70406273D01*
X62209524Y-70406273D02*
X62400000Y-70406273D01*
X62400000Y-70406273D02*
X62476191Y-70444368D01*
X62476191Y-70444368D02*
X62514286Y-70482463D01*
X62514286Y-70482463D02*
X62552381Y-70558654D01*
X62552381Y-70558654D02*
X62552381Y-70634844D01*
X62552381Y-70634844D02*
X62514286Y-70749130D01*
X62514286Y-70749130D02*
X62057143Y-71206273D01*
X62057143Y-71206273D02*
X62552381Y-71206273D01*
X62895239Y-71130082D02*
X62933334Y-71168178D01*
X62933334Y-71168178D02*
X62895239Y-71206273D01*
X62895239Y-71206273D02*
X62857143Y-71168178D01*
X62857143Y-71168178D02*
X62895239Y-71130082D01*
X62895239Y-71130082D02*
X62895239Y-71206273D01*
X62895239Y-70711035D02*
X62933334Y-70749130D01*
X62933334Y-70749130D02*
X62895239Y-70787225D01*
X62895239Y-70787225D02*
X62857143Y-70749130D01*
X62857143Y-70749130D02*
X62895239Y-70711035D01*
X62895239Y-70711035D02*
X62895239Y-70787225D01*
X63276191Y-71206273D02*
X63276191Y-70406273D01*
X63276191Y-70406273D02*
X63580953Y-70406273D01*
X63580953Y-70406273D02*
X63657143Y-70444368D01*
X63657143Y-70444368D02*
X63695238Y-70482463D01*
X63695238Y-70482463D02*
X63733334Y-70558654D01*
X63733334Y-70558654D02*
X63733334Y-70672939D01*
X63733334Y-70672939D02*
X63695238Y-70749130D01*
X63695238Y-70749130D02*
X63657143Y-70787225D01*
X63657143Y-70787225D02*
X63580953Y-70825320D01*
X63580953Y-70825320D02*
X63276191Y-70825320D01*
X64495238Y-70444368D02*
X64419048Y-70406273D01*
X64419048Y-70406273D02*
X64304762Y-70406273D01*
X64304762Y-70406273D02*
X64190476Y-70444368D01*
X64190476Y-70444368D02*
X64114286Y-70520558D01*
X64114286Y-70520558D02*
X64076191Y-70596749D01*
X64076191Y-70596749D02*
X64038095Y-70749130D01*
X64038095Y-70749130D02*
X64038095Y-70863416D01*
X64038095Y-70863416D02*
X64076191Y-71015797D01*
X64076191Y-71015797D02*
X64114286Y-71091987D01*
X64114286Y-71091987D02*
X64190476Y-71168178D01*
X64190476Y-71168178D02*
X64304762Y-71206273D01*
X64304762Y-71206273D02*
X64380953Y-71206273D01*
X64380953Y-71206273D02*
X64495238Y-71168178D01*
X64495238Y-71168178D02*
X64533334Y-71130082D01*
X64533334Y-71130082D02*
X64533334Y-70863416D01*
X64533334Y-70863416D02*
X64380953Y-70863416D01*
X64876191Y-71206273D02*
X64876191Y-70406273D01*
X64876191Y-70406273D02*
X65333334Y-71206273D01*
X65333334Y-71206273D02*
X65333334Y-70406273D01*
X65714286Y-71206273D02*
X65714286Y-70406273D01*
X65714286Y-70406273D02*
X65904762Y-70406273D01*
X65904762Y-70406273D02*
X66019048Y-70444368D01*
X66019048Y-70444368D02*
X66095238Y-70520558D01*
X66095238Y-70520558D02*
X66133333Y-70596749D01*
X66133333Y-70596749D02*
X66171429Y-70749130D01*
X66171429Y-70749130D02*
X66171429Y-70863416D01*
X66171429Y-70863416D02*
X66133333Y-71015797D01*
X66133333Y-71015797D02*
X66095238Y-71091987D01*
X66095238Y-71091987D02*
X66019048Y-71168178D01*
X66019048Y-71168178D02*
X65904762Y-71206273D01*
X65904762Y-71206273D02*
X65714286Y-71206273D01*
X63609523Y-50362295D02*
X64066666Y-50362295D01*
X63838094Y-51162295D02*
X63838094Y-50362295D01*
X64333333Y-51162295D02*
X64333333Y-50362295D01*
X64333333Y-50362295D02*
X64638095Y-50362295D01*
X64638095Y-50362295D02*
X64714285Y-50400390D01*
X64714285Y-50400390D02*
X64752380Y-50438485D01*
X64752380Y-50438485D02*
X64790476Y-50514676D01*
X64790476Y-50514676D02*
X64790476Y-50628961D01*
X64790476Y-50628961D02*
X64752380Y-50705152D01*
X64752380Y-50705152D02*
X64714285Y-50743247D01*
X64714285Y-50743247D02*
X64638095Y-50781342D01*
X64638095Y-50781342D02*
X64333333Y-50781342D01*
X65552380Y-51162295D02*
X65095237Y-51162295D01*
X65323809Y-51162295D02*
X65323809Y-50362295D01*
X65323809Y-50362295D02*
X65247618Y-50476580D01*
X65247618Y-50476580D02*
X65171428Y-50552771D01*
X65171428Y-50552771D02*
X65095237Y-50590866D01*
X66314285Y-51162295D02*
X65857142Y-51162295D01*
X66085714Y-51162295D02*
X66085714Y-50362295D01*
X66085714Y-50362295D02*
X66009523Y-50476580D01*
X66009523Y-50476580D02*
X65933333Y-50552771D01*
X65933333Y-50552771D02*
X65857142Y-50590866D01*
X67609523Y-50362295D02*
X68066666Y-50362295D01*
X67838094Y-51162295D02*
X67838094Y-50362295D01*
X68333333Y-51162295D02*
X68333333Y-50362295D01*
X68333333Y-50362295D02*
X68638095Y-50362295D01*
X68638095Y-50362295D02*
X68714285Y-50400390D01*
X68714285Y-50400390D02*
X68752380Y-50438485D01*
X68752380Y-50438485D02*
X68790476Y-50514676D01*
X68790476Y-50514676D02*
X68790476Y-50628961D01*
X68790476Y-50628961D02*
X68752380Y-50705152D01*
X68752380Y-50705152D02*
X68714285Y-50743247D01*
X68714285Y-50743247D02*
X68638095Y-50781342D01*
X68638095Y-50781342D02*
X68333333Y-50781342D01*
X69552380Y-51162295D02*
X69095237Y-51162295D01*
X69323809Y-51162295D02*
X69323809Y-50362295D01*
X69323809Y-50362295D02*
X69247618Y-50476580D01*
X69247618Y-50476580D02*
X69171428Y-50552771D01*
X69171428Y-50552771D02*
X69095237Y-50590866D01*
X69857142Y-50438485D02*
X69895238Y-50400390D01*
X69895238Y-50400390D02*
X69971428Y-50362295D01*
X69971428Y-50362295D02*
X70161904Y-50362295D01*
X70161904Y-50362295D02*
X70238095Y-50400390D01*
X70238095Y-50400390D02*
X70276190Y-50438485D01*
X70276190Y-50438485D02*
X70314285Y-50514676D01*
X70314285Y-50514676D02*
X70314285Y-50590866D01*
X70314285Y-50590866D02*
X70276190Y-50705152D01*
X70276190Y-50705152D02*
X69819047Y-51162295D01*
X69819047Y-51162295D02*
X70314285Y-51162295D01*
X71609523Y-50362295D02*
X72066666Y-50362295D01*
X71838094Y-51162295D02*
X71838094Y-50362295D01*
X72333333Y-51162295D02*
X72333333Y-50362295D01*
X72333333Y-50362295D02*
X72638095Y-50362295D01*
X72638095Y-50362295D02*
X72714285Y-50400390D01*
X72714285Y-50400390D02*
X72752380Y-50438485D01*
X72752380Y-50438485D02*
X72790476Y-50514676D01*
X72790476Y-50514676D02*
X72790476Y-50628961D01*
X72790476Y-50628961D02*
X72752380Y-50705152D01*
X72752380Y-50705152D02*
X72714285Y-50743247D01*
X72714285Y-50743247D02*
X72638095Y-50781342D01*
X72638095Y-50781342D02*
X72333333Y-50781342D01*
X73552380Y-51162295D02*
X73095237Y-51162295D01*
X73323809Y-51162295D02*
X73323809Y-50362295D01*
X73323809Y-50362295D02*
X73247618Y-50476580D01*
X73247618Y-50476580D02*
X73171428Y-50552771D01*
X73171428Y-50552771D02*
X73095237Y-50590866D01*
X73819047Y-50362295D02*
X74314285Y-50362295D01*
X74314285Y-50362295D02*
X74047619Y-50667057D01*
X74047619Y-50667057D02*
X74161904Y-50667057D01*
X74161904Y-50667057D02*
X74238095Y-50705152D01*
X74238095Y-50705152D02*
X74276190Y-50743247D01*
X74276190Y-50743247D02*
X74314285Y-50819438D01*
X74314285Y-50819438D02*
X74314285Y-51009914D01*
X74314285Y-51009914D02*
X74276190Y-51086104D01*
X74276190Y-51086104D02*
X74238095Y-51124200D01*
X74238095Y-51124200D02*
X74161904Y-51162295D01*
X74161904Y-51162295D02*
X73933333Y-51162295D01*
X73933333Y-51162295D02*
X73857142Y-51124200D01*
X73857142Y-51124200D02*
X73819047Y-51086104D01*
X75609523Y-50362295D02*
X76066666Y-50362295D01*
X75838094Y-51162295D02*
X75838094Y-50362295D01*
X76333333Y-51162295D02*
X76333333Y-50362295D01*
X76333333Y-50362295D02*
X76638095Y-50362295D01*
X76638095Y-50362295D02*
X76714285Y-50400390D01*
X76714285Y-50400390D02*
X76752380Y-50438485D01*
X76752380Y-50438485D02*
X76790476Y-50514676D01*
X76790476Y-50514676D02*
X76790476Y-50628961D01*
X76790476Y-50628961D02*
X76752380Y-50705152D01*
X76752380Y-50705152D02*
X76714285Y-50743247D01*
X76714285Y-50743247D02*
X76638095Y-50781342D01*
X76638095Y-50781342D02*
X76333333Y-50781342D01*
X77552380Y-51162295D02*
X77095237Y-51162295D01*
X77323809Y-51162295D02*
X77323809Y-50362295D01*
X77323809Y-50362295D02*
X77247618Y-50476580D01*
X77247618Y-50476580D02*
X77171428Y-50552771D01*
X77171428Y-50552771D02*
X77095237Y-50590866D01*
X78238095Y-50628961D02*
X78238095Y-51162295D01*
X78047619Y-50324200D02*
X77857142Y-50895628D01*
X77857142Y-50895628D02*
X78352381Y-50895628D01*
X79609523Y-50362295D02*
X80066666Y-50362295D01*
X79838094Y-51162295D02*
X79838094Y-50362295D01*
X80333333Y-51162295D02*
X80333333Y-50362295D01*
X80333333Y-50362295D02*
X80638095Y-50362295D01*
X80638095Y-50362295D02*
X80714285Y-50400390D01*
X80714285Y-50400390D02*
X80752380Y-50438485D01*
X80752380Y-50438485D02*
X80790476Y-50514676D01*
X80790476Y-50514676D02*
X80790476Y-50628961D01*
X80790476Y-50628961D02*
X80752380Y-50705152D01*
X80752380Y-50705152D02*
X80714285Y-50743247D01*
X80714285Y-50743247D02*
X80638095Y-50781342D01*
X80638095Y-50781342D02*
X80333333Y-50781342D01*
X81552380Y-51162295D02*
X81095237Y-51162295D01*
X81323809Y-51162295D02*
X81323809Y-50362295D01*
X81323809Y-50362295D02*
X81247618Y-50476580D01*
X81247618Y-50476580D02*
X81171428Y-50552771D01*
X81171428Y-50552771D02*
X81095237Y-50590866D01*
X82238095Y-50362295D02*
X82085714Y-50362295D01*
X82085714Y-50362295D02*
X82009523Y-50400390D01*
X82009523Y-50400390D02*
X81971428Y-50438485D01*
X81971428Y-50438485D02*
X81895238Y-50552771D01*
X81895238Y-50552771D02*
X81857142Y-50705152D01*
X81857142Y-50705152D02*
X81857142Y-51009914D01*
X81857142Y-51009914D02*
X81895238Y-51086104D01*
X81895238Y-51086104D02*
X81933333Y-51124200D01*
X81933333Y-51124200D02*
X82009523Y-51162295D01*
X82009523Y-51162295D02*
X82161904Y-51162295D01*
X82161904Y-51162295D02*
X82238095Y-51124200D01*
X82238095Y-51124200D02*
X82276190Y-51086104D01*
X82276190Y-51086104D02*
X82314285Y-51009914D01*
X82314285Y-51009914D02*
X82314285Y-50819438D01*
X82314285Y-50819438D02*
X82276190Y-50743247D01*
X82276190Y-50743247D02*
X82238095Y-50705152D01*
X82238095Y-50705152D02*
X82161904Y-50667057D01*
X82161904Y-50667057D02*
X82009523Y-50667057D01*
X82009523Y-50667057D02*
X81933333Y-50705152D01*
X81933333Y-50705152D02*
X81895238Y-50743247D01*
X81895238Y-50743247D02*
X81857142Y-50819438D01*
X83990476Y-50362295D02*
X84447619Y-50362295D01*
X84219047Y-51162295D02*
X84219047Y-50362295D01*
X84714286Y-51162295D02*
X84714286Y-50362295D01*
X84714286Y-50362295D02*
X85019048Y-50362295D01*
X85019048Y-50362295D02*
X85095238Y-50400390D01*
X85095238Y-50400390D02*
X85133333Y-50438485D01*
X85133333Y-50438485D02*
X85171429Y-50514676D01*
X85171429Y-50514676D02*
X85171429Y-50628961D01*
X85171429Y-50628961D02*
X85133333Y-50705152D01*
X85133333Y-50705152D02*
X85095238Y-50743247D01*
X85095238Y-50743247D02*
X85019048Y-50781342D01*
X85019048Y-50781342D02*
X84714286Y-50781342D01*
X85552381Y-51162295D02*
X85704762Y-51162295D01*
X85704762Y-51162295D02*
X85780952Y-51124200D01*
X85780952Y-51124200D02*
X85819048Y-51086104D01*
X85819048Y-51086104D02*
X85895238Y-50971819D01*
X85895238Y-50971819D02*
X85933333Y-50819438D01*
X85933333Y-50819438D02*
X85933333Y-50514676D01*
X85933333Y-50514676D02*
X85895238Y-50438485D01*
X85895238Y-50438485D02*
X85857143Y-50400390D01*
X85857143Y-50400390D02*
X85780952Y-50362295D01*
X85780952Y-50362295D02*
X85628571Y-50362295D01*
X85628571Y-50362295D02*
X85552381Y-50400390D01*
X85552381Y-50400390D02*
X85514286Y-50438485D01*
X85514286Y-50438485D02*
X85476190Y-50514676D01*
X85476190Y-50514676D02*
X85476190Y-50705152D01*
X85476190Y-50705152D02*
X85514286Y-50781342D01*
X85514286Y-50781342D02*
X85552381Y-50819438D01*
X85552381Y-50819438D02*
X85628571Y-50857533D01*
X85628571Y-50857533D02*
X85780952Y-50857533D01*
X85780952Y-50857533D02*
X85857143Y-50819438D01*
X85857143Y-50819438D02*
X85895238Y-50781342D01*
X85895238Y-50781342D02*
X85933333Y-50705152D01*
X92609523Y-50362295D02*
X93066666Y-50362295D01*
X92838094Y-51162295D02*
X92838094Y-50362295D01*
X93333333Y-51162295D02*
X93333333Y-50362295D01*
X93333333Y-50362295D02*
X93638095Y-50362295D01*
X93638095Y-50362295D02*
X93714285Y-50400390D01*
X93714285Y-50400390D02*
X93752380Y-50438485D01*
X93752380Y-50438485D02*
X93790476Y-50514676D01*
X93790476Y-50514676D02*
X93790476Y-50628961D01*
X93790476Y-50628961D02*
X93752380Y-50705152D01*
X93752380Y-50705152D02*
X93714285Y-50743247D01*
X93714285Y-50743247D02*
X93638095Y-50781342D01*
X93638095Y-50781342D02*
X93333333Y-50781342D01*
X94057142Y-50362295D02*
X94552380Y-50362295D01*
X94552380Y-50362295D02*
X94285714Y-50667057D01*
X94285714Y-50667057D02*
X94399999Y-50667057D01*
X94399999Y-50667057D02*
X94476190Y-50705152D01*
X94476190Y-50705152D02*
X94514285Y-50743247D01*
X94514285Y-50743247D02*
X94552380Y-50819438D01*
X94552380Y-50819438D02*
X94552380Y-51009914D01*
X94552380Y-51009914D02*
X94514285Y-51086104D01*
X94514285Y-51086104D02*
X94476190Y-51124200D01*
X94476190Y-51124200D02*
X94399999Y-51162295D01*
X94399999Y-51162295D02*
X94171428Y-51162295D01*
X94171428Y-51162295D02*
X94095237Y-51124200D01*
X94095237Y-51124200D02*
X94057142Y-51086104D01*
X95047619Y-50362295D02*
X95123809Y-50362295D01*
X95123809Y-50362295D02*
X95200000Y-50400390D01*
X95200000Y-50400390D02*
X95238095Y-50438485D01*
X95238095Y-50438485D02*
X95276190Y-50514676D01*
X95276190Y-50514676D02*
X95314285Y-50667057D01*
X95314285Y-50667057D02*
X95314285Y-50857533D01*
X95314285Y-50857533D02*
X95276190Y-51009914D01*
X95276190Y-51009914D02*
X95238095Y-51086104D01*
X95238095Y-51086104D02*
X95200000Y-51124200D01*
X95200000Y-51124200D02*
X95123809Y-51162295D01*
X95123809Y-51162295D02*
X95047619Y-51162295D01*
X95047619Y-51162295D02*
X94971428Y-51124200D01*
X94971428Y-51124200D02*
X94933333Y-51086104D01*
X94933333Y-51086104D02*
X94895238Y-51009914D01*
X94895238Y-51009914D02*
X94857142Y-50857533D01*
X94857142Y-50857533D02*
X94857142Y-50667057D01*
X94857142Y-50667057D02*
X94895238Y-50514676D01*
X94895238Y-50514676D02*
X94933333Y-50438485D01*
X94933333Y-50438485D02*
X94971428Y-50400390D01*
X94971428Y-50400390D02*
X95047619Y-50362295D01*
X96609523Y-50362295D02*
X97066666Y-50362295D01*
X96838094Y-51162295D02*
X96838094Y-50362295D01*
X97333333Y-51162295D02*
X97333333Y-50362295D01*
X97333333Y-50362295D02*
X97638095Y-50362295D01*
X97638095Y-50362295D02*
X97714285Y-50400390D01*
X97714285Y-50400390D02*
X97752380Y-50438485D01*
X97752380Y-50438485D02*
X97790476Y-50514676D01*
X97790476Y-50514676D02*
X97790476Y-50628961D01*
X97790476Y-50628961D02*
X97752380Y-50705152D01*
X97752380Y-50705152D02*
X97714285Y-50743247D01*
X97714285Y-50743247D02*
X97638095Y-50781342D01*
X97638095Y-50781342D02*
X97333333Y-50781342D01*
X98057142Y-50362295D02*
X98552380Y-50362295D01*
X98552380Y-50362295D02*
X98285714Y-50667057D01*
X98285714Y-50667057D02*
X98399999Y-50667057D01*
X98399999Y-50667057D02*
X98476190Y-50705152D01*
X98476190Y-50705152D02*
X98514285Y-50743247D01*
X98514285Y-50743247D02*
X98552380Y-50819438D01*
X98552380Y-50819438D02*
X98552380Y-51009914D01*
X98552380Y-51009914D02*
X98514285Y-51086104D01*
X98514285Y-51086104D02*
X98476190Y-51124200D01*
X98476190Y-51124200D02*
X98399999Y-51162295D01*
X98399999Y-51162295D02*
X98171428Y-51162295D01*
X98171428Y-51162295D02*
X98095237Y-51124200D01*
X98095237Y-51124200D02*
X98057142Y-51086104D01*
X99314285Y-51162295D02*
X98857142Y-51162295D01*
X99085714Y-51162295D02*
X99085714Y-50362295D01*
X99085714Y-50362295D02*
X99009523Y-50476580D01*
X99009523Y-50476580D02*
X98933333Y-50552771D01*
X98933333Y-50552771D02*
X98857142Y-50590866D01*
X126019047Y-103562295D02*
X126019047Y-104133723D01*
X126019047Y-104133723D02*
X125980952Y-104248009D01*
X125980952Y-104248009D02*
X125904761Y-104324200D01*
X125904761Y-104324200D02*
X125790476Y-104362295D01*
X125790476Y-104362295D02*
X125714285Y-104362295D01*
X126323809Y-103562295D02*
X126819047Y-103562295D01*
X126819047Y-103562295D02*
X126552381Y-103867057D01*
X126552381Y-103867057D02*
X126666666Y-103867057D01*
X126666666Y-103867057D02*
X126742857Y-103905152D01*
X126742857Y-103905152D02*
X126780952Y-103943247D01*
X126780952Y-103943247D02*
X126819047Y-104019438D01*
X126819047Y-104019438D02*
X126819047Y-104209914D01*
X126819047Y-104209914D02*
X126780952Y-104286104D01*
X126780952Y-104286104D02*
X126742857Y-104324200D01*
X126742857Y-104324200D02*
X126666666Y-104362295D01*
X126666666Y-104362295D02*
X126438095Y-104362295D01*
X126438095Y-104362295D02*
X126361904Y-104324200D01*
X126361904Y-104324200D02*
X126323809Y-104286104D01*
X127771429Y-104362295D02*
X127771429Y-103562295D01*
X127771429Y-103943247D02*
X128228572Y-103943247D01*
X128228572Y-104362295D02*
X128228572Y-103562295D01*
X128571428Y-104133723D02*
X128952381Y-104133723D01*
X128495238Y-104362295D02*
X128761905Y-103562295D01*
X128761905Y-103562295D02*
X129028571Y-104362295D01*
X129676190Y-104362295D02*
X129295238Y-104362295D01*
X129295238Y-104362295D02*
X129295238Y-103562295D01*
X130323809Y-104362295D02*
X129942857Y-104362295D01*
X129942857Y-104362295D02*
X129942857Y-103562295D01*
X125542857Y-91762295D02*
X125695238Y-91762295D01*
X125695238Y-91762295D02*
X125771428Y-91800390D01*
X125771428Y-91800390D02*
X125847619Y-91876580D01*
X125847619Y-91876580D02*
X125885714Y-92028961D01*
X125885714Y-92028961D02*
X125885714Y-92295628D01*
X125885714Y-92295628D02*
X125847619Y-92448009D01*
X125847619Y-92448009D02*
X125771428Y-92524200D01*
X125771428Y-92524200D02*
X125695238Y-92562295D01*
X125695238Y-92562295D02*
X125542857Y-92562295D01*
X125542857Y-92562295D02*
X125466666Y-92524200D01*
X125466666Y-92524200D02*
X125390476Y-92448009D01*
X125390476Y-92448009D02*
X125352380Y-92295628D01*
X125352380Y-92295628D02*
X125352380Y-92028961D01*
X125352380Y-92028961D02*
X125390476Y-91876580D01*
X125390476Y-91876580D02*
X125466666Y-91800390D01*
X125466666Y-91800390D02*
X125542857Y-91762295D01*
X126114285Y-91762295D02*
X126380952Y-92562295D01*
X126380952Y-92562295D02*
X126647618Y-91762295D01*
X126914285Y-92143247D02*
X127180951Y-92143247D01*
X127295237Y-92562295D02*
X126914285Y-92562295D01*
X126914285Y-92562295D02*
X126914285Y-91762295D01*
X126914285Y-91762295D02*
X127295237Y-91762295D01*
X128095238Y-92562295D02*
X127828571Y-92181342D01*
X127638095Y-92562295D02*
X127638095Y-91762295D01*
X127638095Y-91762295D02*
X127942857Y-91762295D01*
X127942857Y-91762295D02*
X128019047Y-91800390D01*
X128019047Y-91800390D02*
X128057142Y-91838485D01*
X128057142Y-91838485D02*
X128095238Y-91914676D01*
X128095238Y-91914676D02*
X128095238Y-92028961D01*
X128095238Y-92028961D02*
X128057142Y-92105152D01*
X128057142Y-92105152D02*
X128019047Y-92143247D01*
X128019047Y-92143247D02*
X127942857Y-92181342D01*
X127942857Y-92181342D02*
X127638095Y-92181342D01*
X128399999Y-92524200D02*
X128514285Y-92562295D01*
X128514285Y-92562295D02*
X128704761Y-92562295D01*
X128704761Y-92562295D02*
X128780952Y-92524200D01*
X128780952Y-92524200D02*
X128819047Y-92486104D01*
X128819047Y-92486104D02*
X128857142Y-92409914D01*
X128857142Y-92409914D02*
X128857142Y-92333723D01*
X128857142Y-92333723D02*
X128819047Y-92257533D01*
X128819047Y-92257533D02*
X128780952Y-92219438D01*
X128780952Y-92219438D02*
X128704761Y-92181342D01*
X128704761Y-92181342D02*
X128552380Y-92143247D01*
X128552380Y-92143247D02*
X128476190Y-92105152D01*
X128476190Y-92105152D02*
X128438095Y-92067057D01*
X128438095Y-92067057D02*
X128399999Y-91990866D01*
X128399999Y-91990866D02*
X128399999Y-91914676D01*
X128399999Y-91914676D02*
X128438095Y-91838485D01*
X128438095Y-91838485D02*
X128476190Y-91800390D01*
X128476190Y-91800390D02*
X128552380Y-91762295D01*
X128552380Y-91762295D02*
X128742857Y-91762295D01*
X128742857Y-91762295D02*
X128857142Y-91800390D01*
X129200000Y-92562295D02*
X129200000Y-91762295D01*
X129200000Y-91762295D02*
X129504762Y-91762295D01*
X129504762Y-91762295D02*
X129580952Y-91800390D01*
X129580952Y-91800390D02*
X129619047Y-91838485D01*
X129619047Y-91838485D02*
X129657143Y-91914676D01*
X129657143Y-91914676D02*
X129657143Y-92028961D01*
X129657143Y-92028961D02*
X129619047Y-92105152D01*
X129619047Y-92105152D02*
X129580952Y-92143247D01*
X129580952Y-92143247D02*
X129504762Y-92181342D01*
X129504762Y-92181342D02*
X129200000Y-92181342D01*
X130000000Y-92143247D02*
X130266666Y-92143247D01*
X130380952Y-92562295D02*
X130000000Y-92562295D01*
X130000000Y-92562295D02*
X130000000Y-91762295D01*
X130000000Y-91762295D02*
X130380952Y-91762295D01*
X130723810Y-92143247D02*
X130990476Y-92143247D01*
X131104762Y-92562295D02*
X130723810Y-92562295D01*
X130723810Y-92562295D02*
X130723810Y-91762295D01*
X130723810Y-91762295D02*
X131104762Y-91762295D01*
X131447620Y-92562295D02*
X131447620Y-91762295D01*
X131447620Y-91762295D02*
X131638096Y-91762295D01*
X131638096Y-91762295D02*
X131752382Y-91800390D01*
X131752382Y-91800390D02*
X131828572Y-91876580D01*
X131828572Y-91876580D02*
X131866667Y-91952771D01*
X131866667Y-91952771D02*
X131904763Y-92105152D01*
X131904763Y-92105152D02*
X131904763Y-92219438D01*
X131904763Y-92219438D02*
X131866667Y-92371819D01*
X131866667Y-92371819D02*
X131828572Y-92448009D01*
X131828572Y-92448009D02*
X131752382Y-92524200D01*
X131752382Y-92524200D02*
X131638096Y-92562295D01*
X131638096Y-92562295D02*
X131447620Y-92562295D01*
X133314287Y-92486104D02*
X133276191Y-92524200D01*
X133276191Y-92524200D02*
X133161906Y-92562295D01*
X133161906Y-92562295D02*
X133085715Y-92562295D01*
X133085715Y-92562295D02*
X132971429Y-92524200D01*
X132971429Y-92524200D02*
X132895239Y-92448009D01*
X132895239Y-92448009D02*
X132857144Y-92371819D01*
X132857144Y-92371819D02*
X132819048Y-92219438D01*
X132819048Y-92219438D02*
X132819048Y-92105152D01*
X132819048Y-92105152D02*
X132857144Y-91952771D01*
X132857144Y-91952771D02*
X132895239Y-91876580D01*
X132895239Y-91876580D02*
X132971429Y-91800390D01*
X132971429Y-91800390D02*
X133085715Y-91762295D01*
X133085715Y-91762295D02*
X133161906Y-91762295D01*
X133161906Y-91762295D02*
X133276191Y-91800390D01*
X133276191Y-91800390D02*
X133314287Y-91838485D01*
X133619048Y-92333723D02*
X134000001Y-92333723D01*
X133542858Y-92562295D02*
X133809525Y-91762295D01*
X133809525Y-91762295D02*
X134076191Y-92562295D01*
X134723810Y-92562295D02*
X134342858Y-92562295D01*
X134342858Y-92562295D02*
X134342858Y-91762295D01*
X97062295Y-107571428D02*
X97633723Y-107571428D01*
X97633723Y-107571428D02*
X97748009Y-107609523D01*
X97748009Y-107609523D02*
X97824200Y-107685714D01*
X97824200Y-107685714D02*
X97862295Y-107799999D01*
X97862295Y-107799999D02*
X97862295Y-107876190D01*
X97138485Y-107228571D02*
X97100390Y-107190475D01*
X97100390Y-107190475D02*
X97062295Y-107114285D01*
X97062295Y-107114285D02*
X97062295Y-106923809D01*
X97062295Y-106923809D02*
X97100390Y-106847618D01*
X97100390Y-106847618D02*
X97138485Y-106809523D01*
X97138485Y-106809523D02*
X97214676Y-106771428D01*
X97214676Y-106771428D02*
X97290866Y-106771428D01*
X97290866Y-106771428D02*
X97405152Y-106809523D01*
X97405152Y-106809523D02*
X97862295Y-107266666D01*
X97862295Y-107266666D02*
X97862295Y-106771428D01*
X97862295Y-105819046D02*
X97062295Y-105819046D01*
X97062295Y-105819046D02*
X97633723Y-105552380D01*
X97633723Y-105552380D02*
X97062295Y-105285713D01*
X97062295Y-105285713D02*
X97862295Y-105285713D01*
X97062295Y-104752379D02*
X97062295Y-104599998D01*
X97062295Y-104599998D02*
X97100390Y-104523808D01*
X97100390Y-104523808D02*
X97176580Y-104447617D01*
X97176580Y-104447617D02*
X97328961Y-104409522D01*
X97328961Y-104409522D02*
X97595628Y-104409522D01*
X97595628Y-104409522D02*
X97748009Y-104447617D01*
X97748009Y-104447617D02*
X97824200Y-104523808D01*
X97824200Y-104523808D02*
X97862295Y-104599998D01*
X97862295Y-104599998D02*
X97862295Y-104752379D01*
X97862295Y-104752379D02*
X97824200Y-104828570D01*
X97824200Y-104828570D02*
X97748009Y-104904760D01*
X97748009Y-104904760D02*
X97595628Y-104942856D01*
X97595628Y-104942856D02*
X97328961Y-104942856D01*
X97328961Y-104942856D02*
X97176580Y-104904760D01*
X97176580Y-104904760D02*
X97100390Y-104828570D01*
X97100390Y-104828570D02*
X97062295Y-104752379D01*
X97062295Y-104180951D02*
X97062295Y-103723808D01*
X97862295Y-103952380D02*
X97062295Y-103952380D01*
X97062295Y-103304760D02*
X97062295Y-103152379D01*
X97062295Y-103152379D02*
X97100390Y-103076189D01*
X97100390Y-103076189D02*
X97176580Y-102999998D01*
X97176580Y-102999998D02*
X97328961Y-102961903D01*
X97328961Y-102961903D02*
X97595628Y-102961903D01*
X97595628Y-102961903D02*
X97748009Y-102999998D01*
X97748009Y-102999998D02*
X97824200Y-103076189D01*
X97824200Y-103076189D02*
X97862295Y-103152379D01*
X97862295Y-103152379D02*
X97862295Y-103304760D01*
X97862295Y-103304760D02*
X97824200Y-103380951D01*
X97824200Y-103380951D02*
X97748009Y-103457141D01*
X97748009Y-103457141D02*
X97595628Y-103495237D01*
X97595628Y-103495237D02*
X97328961Y-103495237D01*
X97328961Y-103495237D02*
X97176580Y-103457141D01*
X97176580Y-103457141D02*
X97100390Y-103380951D01*
X97100390Y-103380951D02*
X97062295Y-103304760D01*
X97862295Y-102161903D02*
X97481342Y-102428570D01*
X97862295Y-102619046D02*
X97062295Y-102619046D01*
X97062295Y-102619046D02*
X97062295Y-102314284D01*
X97062295Y-102314284D02*
X97100390Y-102238094D01*
X97100390Y-102238094D02*
X97138485Y-102199999D01*
X97138485Y-102199999D02*
X97214676Y-102161903D01*
X97214676Y-102161903D02*
X97328961Y-102161903D01*
X97328961Y-102161903D02*
X97405152Y-102199999D01*
X97405152Y-102199999D02*
X97443247Y-102238094D01*
X97443247Y-102238094D02*
X97481342Y-102314284D01*
X97481342Y-102314284D02*
X97481342Y-102619046D01*
X119762295Y-60014284D02*
X120409914Y-60014284D01*
X120409914Y-60014284D02*
X120486104Y-59976189D01*
X120486104Y-59976189D02*
X120524200Y-59938094D01*
X120524200Y-59938094D02*
X120562295Y-59861903D01*
X120562295Y-59861903D02*
X120562295Y-59709522D01*
X120562295Y-59709522D02*
X120524200Y-59633332D01*
X120524200Y-59633332D02*
X120486104Y-59595237D01*
X120486104Y-59595237D02*
X120409914Y-59557141D01*
X120409914Y-59557141D02*
X119762295Y-59557141D01*
X120524200Y-59214285D02*
X120562295Y-59099999D01*
X120562295Y-59099999D02*
X120562295Y-58909523D01*
X120562295Y-58909523D02*
X120524200Y-58833332D01*
X120524200Y-58833332D02*
X120486104Y-58795237D01*
X120486104Y-58795237D02*
X120409914Y-58757142D01*
X120409914Y-58757142D02*
X120333723Y-58757142D01*
X120333723Y-58757142D02*
X120257533Y-58795237D01*
X120257533Y-58795237D02*
X120219438Y-58833332D01*
X120219438Y-58833332D02*
X120181342Y-58909523D01*
X120181342Y-58909523D02*
X120143247Y-59061904D01*
X120143247Y-59061904D02*
X120105152Y-59138094D01*
X120105152Y-59138094D02*
X120067057Y-59176189D01*
X120067057Y-59176189D02*
X119990866Y-59214285D01*
X119990866Y-59214285D02*
X119914676Y-59214285D01*
X119914676Y-59214285D02*
X119838485Y-59176189D01*
X119838485Y-59176189D02*
X119800390Y-59138094D01*
X119800390Y-59138094D02*
X119762295Y-59061904D01*
X119762295Y-59061904D02*
X119762295Y-58871427D01*
X119762295Y-58871427D02*
X119800390Y-58757142D01*
X120143247Y-58147618D02*
X120181342Y-58033332D01*
X120181342Y-58033332D02*
X120219438Y-57995237D01*
X120219438Y-57995237D02*
X120295628Y-57957141D01*
X120295628Y-57957141D02*
X120409914Y-57957141D01*
X120409914Y-57957141D02*
X120486104Y-57995237D01*
X120486104Y-57995237D02*
X120524200Y-58033332D01*
X120524200Y-58033332D02*
X120562295Y-58109522D01*
X120562295Y-58109522D02*
X120562295Y-58414284D01*
X120562295Y-58414284D02*
X119762295Y-58414284D01*
X119762295Y-58414284D02*
X119762295Y-58147618D01*
X119762295Y-58147618D02*
X119800390Y-58071427D01*
X119800390Y-58071427D02*
X119838485Y-58033332D01*
X119838485Y-58033332D02*
X119914676Y-57995237D01*
X119914676Y-57995237D02*
X119990866Y-57995237D01*
X119990866Y-57995237D02*
X120067057Y-58033332D01*
X120067057Y-58033332D02*
X120105152Y-58071427D01*
X120105152Y-58071427D02*
X120143247Y-58147618D01*
X120143247Y-58147618D02*
X120143247Y-58414284D01*
X120562295Y-57004760D02*
X119762295Y-57004760D01*
X119762295Y-57004760D02*
X119762295Y-56814284D01*
X119762295Y-56814284D02*
X119800390Y-56699998D01*
X119800390Y-56699998D02*
X119876580Y-56623808D01*
X119876580Y-56623808D02*
X119952771Y-56585713D01*
X119952771Y-56585713D02*
X120105152Y-56547617D01*
X120105152Y-56547617D02*
X120219438Y-56547617D01*
X120219438Y-56547617D02*
X120371819Y-56585713D01*
X120371819Y-56585713D02*
X120448009Y-56623808D01*
X120448009Y-56623808D02*
X120524200Y-56699998D01*
X120524200Y-56699998D02*
X120562295Y-56814284D01*
X120562295Y-56814284D02*
X120562295Y-57004760D01*
X120333723Y-56242856D02*
X120333723Y-55861903D01*
X120562295Y-56319046D02*
X119762295Y-56052379D01*
X119762295Y-56052379D02*
X120562295Y-55785713D01*
X119762295Y-55633332D02*
X119762295Y-55176189D01*
X120562295Y-55404761D02*
X119762295Y-55404761D01*
X120333723Y-54947618D02*
X120333723Y-54566665D01*
X120562295Y-55023808D02*
X119762295Y-54757141D01*
X119762295Y-54757141D02*
X120562295Y-54490475D01*
X119762295Y-53461903D02*
X119762295Y-53309522D01*
X119762295Y-53309522D02*
X119800390Y-53233332D01*
X119800390Y-53233332D02*
X119876580Y-53157141D01*
X119876580Y-53157141D02*
X120028961Y-53119046D01*
X120028961Y-53119046D02*
X120295628Y-53119046D01*
X120295628Y-53119046D02*
X120448009Y-53157141D01*
X120448009Y-53157141D02*
X120524200Y-53233332D01*
X120524200Y-53233332D02*
X120562295Y-53309522D01*
X120562295Y-53309522D02*
X120562295Y-53461903D01*
X120562295Y-53461903D02*
X120524200Y-53538094D01*
X120524200Y-53538094D02*
X120448009Y-53614284D01*
X120448009Y-53614284D02*
X120295628Y-53652380D01*
X120295628Y-53652380D02*
X120028961Y-53652380D01*
X120028961Y-53652380D02*
X119876580Y-53614284D01*
X119876580Y-53614284D02*
X119800390Y-53538094D01*
X119800390Y-53538094D02*
X119762295Y-53461903D01*
X120562295Y-52776189D02*
X119762295Y-52776189D01*
X119762295Y-52776189D02*
X120562295Y-52319046D01*
X120562295Y-52319046D02*
X119762295Y-52319046D01*
X120562295Y-51557142D02*
X120562295Y-51938094D01*
X120562295Y-51938094D02*
X119762295Y-51938094D01*
X120181342Y-51138094D02*
X120562295Y-51138094D01*
X119762295Y-51404761D02*
X120181342Y-51138094D01*
X120181342Y-51138094D02*
X119762295Y-50871428D01*
X121062295Y-59061905D02*
X121633723Y-59061905D01*
X121633723Y-59061905D02*
X121748009Y-59100000D01*
X121748009Y-59100000D02*
X121824200Y-59176191D01*
X121824200Y-59176191D02*
X121862295Y-59290476D01*
X121862295Y-59290476D02*
X121862295Y-59366667D01*
X121862295Y-58261905D02*
X121862295Y-58719048D01*
X121862295Y-58490476D02*
X121062295Y-58490476D01*
X121062295Y-58490476D02*
X121176580Y-58566667D01*
X121176580Y-58566667D02*
X121252771Y-58642857D01*
X121252771Y-58642857D02*
X121290866Y-58719048D01*
X121138485Y-57347619D02*
X121100390Y-57309523D01*
X121100390Y-57309523D02*
X121062295Y-57233333D01*
X121062295Y-57233333D02*
X121062295Y-57042857D01*
X121062295Y-57042857D02*
X121100390Y-56966666D01*
X121100390Y-56966666D02*
X121138485Y-56928571D01*
X121138485Y-56928571D02*
X121214676Y-56890476D01*
X121214676Y-56890476D02*
X121290866Y-56890476D01*
X121290866Y-56890476D02*
X121405152Y-56928571D01*
X121405152Y-56928571D02*
X121862295Y-57385714D01*
X121862295Y-57385714D02*
X121862295Y-56890476D01*
X121328961Y-56204761D02*
X121862295Y-56204761D01*
X121024200Y-56395237D02*
X121595628Y-56585714D01*
X121595628Y-56585714D02*
X121595628Y-56090475D01*
X121062295Y-55899999D02*
X121862295Y-55633332D01*
X121862295Y-55633332D02*
X121062295Y-55366666D01*
X121862295Y-54033332D02*
X121481342Y-54299999D01*
X121862295Y-54490475D02*
X121062295Y-54490475D01*
X121062295Y-54490475D02*
X121062295Y-54185713D01*
X121062295Y-54185713D02*
X121100390Y-54109523D01*
X121100390Y-54109523D02*
X121138485Y-54071428D01*
X121138485Y-54071428D02*
X121214676Y-54033332D01*
X121214676Y-54033332D02*
X121328961Y-54033332D01*
X121328961Y-54033332D02*
X121405152Y-54071428D01*
X121405152Y-54071428D02*
X121443247Y-54109523D01*
X121443247Y-54109523D02*
X121481342Y-54185713D01*
X121481342Y-54185713D02*
X121481342Y-54490475D01*
X121443247Y-53690475D02*
X121443247Y-53423809D01*
X121862295Y-53309523D02*
X121862295Y-53690475D01*
X121862295Y-53690475D02*
X121062295Y-53690475D01*
X121062295Y-53690475D02*
X121062295Y-53309523D01*
X121938485Y-52433332D02*
X121900390Y-52509522D01*
X121900390Y-52509522D02*
X121824200Y-52585713D01*
X121824200Y-52585713D02*
X121709914Y-52699999D01*
X121709914Y-52699999D02*
X121671819Y-52776189D01*
X121671819Y-52776189D02*
X121671819Y-52852380D01*
X121862295Y-52814284D02*
X121824200Y-52890475D01*
X121824200Y-52890475D02*
X121748009Y-52966665D01*
X121748009Y-52966665D02*
X121595628Y-53004761D01*
X121595628Y-53004761D02*
X121328961Y-53004761D01*
X121328961Y-53004761D02*
X121176580Y-52966665D01*
X121176580Y-52966665D02*
X121100390Y-52890475D01*
X121100390Y-52890475D02*
X121062295Y-52814284D01*
X121062295Y-52814284D02*
X121062295Y-52661903D01*
X121062295Y-52661903D02*
X121100390Y-52585713D01*
X121100390Y-52585713D02*
X121176580Y-52509522D01*
X121176580Y-52509522D02*
X121328961Y-52471427D01*
X121328961Y-52471427D02*
X121595628Y-52471427D01*
X121595628Y-52471427D02*
X121748009Y-52509522D01*
X121748009Y-52509522D02*
X121824200Y-52585713D01*
X121824200Y-52585713D02*
X121862295Y-52661903D01*
X121862295Y-52661903D02*
X121862295Y-52814284D01*
X121862295Y-52128570D02*
X121062295Y-52128570D01*
X121062295Y-52128570D02*
X121062295Y-51938094D01*
X121062295Y-51938094D02*
X121100390Y-51823808D01*
X121100390Y-51823808D02*
X121176580Y-51747618D01*
X121176580Y-51747618D02*
X121252771Y-51709523D01*
X121252771Y-51709523D02*
X121405152Y-51671427D01*
X121405152Y-51671427D02*
X121519438Y-51671427D01*
X121519438Y-51671427D02*
X121671819Y-51709523D01*
X121671819Y-51709523D02*
X121748009Y-51747618D01*
X121748009Y-51747618D02*
X121824200Y-51823808D01*
X121824200Y-51823808D02*
X121862295Y-51938094D01*
X121862295Y-51938094D02*
X121862295Y-52128570D01*
X124986104Y-90423808D02*
X125024200Y-90461904D01*
X125024200Y-90461904D02*
X125062295Y-90576189D01*
X125062295Y-90576189D02*
X125062295Y-90652380D01*
X125062295Y-90652380D02*
X125024200Y-90766666D01*
X125024200Y-90766666D02*
X124948009Y-90842856D01*
X124948009Y-90842856D02*
X124871819Y-90880951D01*
X124871819Y-90880951D02*
X124719438Y-90919047D01*
X124719438Y-90919047D02*
X124605152Y-90919047D01*
X124605152Y-90919047D02*
X124452771Y-90880951D01*
X124452771Y-90880951D02*
X124376580Y-90842856D01*
X124376580Y-90842856D02*
X124300390Y-90766666D01*
X124300390Y-90766666D02*
X124262295Y-90652380D01*
X124262295Y-90652380D02*
X124262295Y-90576189D01*
X124262295Y-90576189D02*
X124300390Y-90461904D01*
X124300390Y-90461904D02*
X124338485Y-90423808D01*
X124986104Y-89623808D02*
X125024200Y-89661904D01*
X125024200Y-89661904D02*
X125062295Y-89776189D01*
X125062295Y-89776189D02*
X125062295Y-89852380D01*
X125062295Y-89852380D02*
X125024200Y-89966666D01*
X125024200Y-89966666D02*
X124948009Y-90042856D01*
X124948009Y-90042856D02*
X124871819Y-90080951D01*
X124871819Y-90080951D02*
X124719438Y-90119047D01*
X124719438Y-90119047D02*
X124605152Y-90119047D01*
X124605152Y-90119047D02*
X124452771Y-90080951D01*
X124452771Y-90080951D02*
X124376580Y-90042856D01*
X124376580Y-90042856D02*
X124300390Y-89966666D01*
X124300390Y-89966666D02*
X124262295Y-89852380D01*
X124262295Y-89852380D02*
X124262295Y-89776189D01*
X124262295Y-89776189D02*
X124300390Y-89661904D01*
X124300390Y-89661904D02*
X124338485Y-89623808D01*
X124262295Y-89357142D02*
X125062295Y-89166666D01*
X125062295Y-89166666D02*
X124490866Y-89014285D01*
X124490866Y-89014285D02*
X125062295Y-88861904D01*
X125062295Y-88861904D02*
X124262295Y-88671428D01*
X125062295Y-87757141D02*
X124262295Y-87757141D01*
X125062295Y-87376189D02*
X124262295Y-87376189D01*
X124262295Y-87376189D02*
X125062295Y-86919046D01*
X125062295Y-86919046D02*
X124262295Y-86919046D01*
X124986104Y-86080951D02*
X125024200Y-86119047D01*
X125024200Y-86119047D02*
X125062295Y-86233332D01*
X125062295Y-86233332D02*
X125062295Y-86309523D01*
X125062295Y-86309523D02*
X125024200Y-86423809D01*
X125024200Y-86423809D02*
X124948009Y-86499999D01*
X124948009Y-86499999D02*
X124871819Y-86538094D01*
X124871819Y-86538094D02*
X124719438Y-86576190D01*
X124719438Y-86576190D02*
X124605152Y-86576190D01*
X124605152Y-86576190D02*
X124452771Y-86538094D01*
X124452771Y-86538094D02*
X124376580Y-86499999D01*
X124376580Y-86499999D02*
X124300390Y-86423809D01*
X124300390Y-86423809D02*
X124262295Y-86309523D01*
X124262295Y-86309523D02*
X124262295Y-86233332D01*
X124262295Y-86233332D02*
X124300390Y-86119047D01*
X124300390Y-86119047D02*
X124338485Y-86080951D01*
X126286104Y-90176190D02*
X126324200Y-90214286D01*
X126324200Y-90214286D02*
X126362295Y-90328571D01*
X126362295Y-90328571D02*
X126362295Y-90404762D01*
X126362295Y-90404762D02*
X126324200Y-90519048D01*
X126324200Y-90519048D02*
X126248009Y-90595238D01*
X126248009Y-90595238D02*
X126171819Y-90633333D01*
X126171819Y-90633333D02*
X126019438Y-90671429D01*
X126019438Y-90671429D02*
X125905152Y-90671429D01*
X125905152Y-90671429D02*
X125752771Y-90633333D01*
X125752771Y-90633333D02*
X125676580Y-90595238D01*
X125676580Y-90595238D02*
X125600390Y-90519048D01*
X125600390Y-90519048D02*
X125562295Y-90404762D01*
X125562295Y-90404762D02*
X125562295Y-90328571D01*
X125562295Y-90328571D02*
X125600390Y-90214286D01*
X125600390Y-90214286D02*
X125638485Y-90176190D01*
X125562295Y-89909524D02*
X126362295Y-89719048D01*
X126362295Y-89719048D02*
X125790866Y-89566667D01*
X125790866Y-89566667D02*
X126362295Y-89414286D01*
X126362295Y-89414286D02*
X125562295Y-89223810D01*
X126362295Y-88309523D02*
X125562295Y-88309523D01*
X125562295Y-88309523D02*
X125562295Y-88119047D01*
X125562295Y-88119047D02*
X125600390Y-88004761D01*
X125600390Y-88004761D02*
X125676580Y-87928571D01*
X125676580Y-87928571D02*
X125752771Y-87890476D01*
X125752771Y-87890476D02*
X125905152Y-87852380D01*
X125905152Y-87852380D02*
X126019438Y-87852380D01*
X126019438Y-87852380D02*
X126171819Y-87890476D01*
X126171819Y-87890476D02*
X126248009Y-87928571D01*
X126248009Y-87928571D02*
X126324200Y-88004761D01*
X126324200Y-88004761D02*
X126362295Y-88119047D01*
X126362295Y-88119047D02*
X126362295Y-88309523D01*
X125943247Y-87509523D02*
X125943247Y-87242857D01*
X126362295Y-87128571D02*
X126362295Y-87509523D01*
X126362295Y-87509523D02*
X125562295Y-87509523D01*
X125562295Y-87509523D02*
X125562295Y-87128571D01*
X126286104Y-86328570D02*
X126324200Y-86366666D01*
X126324200Y-86366666D02*
X126362295Y-86480951D01*
X126362295Y-86480951D02*
X126362295Y-86557142D01*
X126362295Y-86557142D02*
X126324200Y-86671428D01*
X126324200Y-86671428D02*
X126248009Y-86747618D01*
X126248009Y-86747618D02*
X126171819Y-86785713D01*
X126171819Y-86785713D02*
X126019438Y-86823809D01*
X126019438Y-86823809D02*
X125905152Y-86823809D01*
X125905152Y-86823809D02*
X125752771Y-86785713D01*
X125752771Y-86785713D02*
X125676580Y-86747618D01*
X125676580Y-86747618D02*
X125600390Y-86671428D01*
X125600390Y-86671428D02*
X125562295Y-86557142D01*
X125562295Y-86557142D02*
X125562295Y-86480951D01*
X125562295Y-86480951D02*
X125600390Y-86366666D01*
X125600390Y-86366666D02*
X125638485Y-86328570D01*
X53738095Y-61454819D02*
X54309523Y-61454819D01*
X54023809Y-62454819D02*
X54023809Y-61454819D01*
X54642857Y-62454819D02*
X54642857Y-61454819D01*
X54642857Y-61454819D02*
X55023809Y-61454819D01*
X55023809Y-61454819D02*
X55119047Y-61502438D01*
X55119047Y-61502438D02*
X55166666Y-61550057D01*
X55166666Y-61550057D02*
X55214285Y-61645295D01*
X55214285Y-61645295D02*
X55214285Y-61788152D01*
X55214285Y-61788152D02*
X55166666Y-61883390D01*
X55166666Y-61883390D02*
X55119047Y-61931009D01*
X55119047Y-61931009D02*
X55023809Y-61978628D01*
X55023809Y-61978628D02*
X54642857Y-61978628D01*
X56166666Y-62454819D02*
X55595238Y-62454819D01*
X55880952Y-62454819D02*
X55880952Y-61454819D01*
X55880952Y-61454819D02*
X55785714Y-61597676D01*
X55785714Y-61597676D02*
X55690476Y-61692914D01*
X55690476Y-61692914D02*
X55595238Y-61740533D01*
X53738095Y-65454819D02*
X54309523Y-65454819D01*
X54023809Y-66454819D02*
X54023809Y-65454819D01*
X54642857Y-66454819D02*
X54642857Y-65454819D01*
X54642857Y-65454819D02*
X55023809Y-65454819D01*
X55023809Y-65454819D02*
X55119047Y-65502438D01*
X55119047Y-65502438D02*
X55166666Y-65550057D01*
X55166666Y-65550057D02*
X55214285Y-65645295D01*
X55214285Y-65645295D02*
X55214285Y-65788152D01*
X55214285Y-65788152D02*
X55166666Y-65883390D01*
X55166666Y-65883390D02*
X55119047Y-65931009D01*
X55119047Y-65931009D02*
X55023809Y-65978628D01*
X55023809Y-65978628D02*
X54642857Y-65978628D01*
X55595238Y-65550057D02*
X55642857Y-65502438D01*
X55642857Y-65502438D02*
X55738095Y-65454819D01*
X55738095Y-65454819D02*
X55976190Y-65454819D01*
X55976190Y-65454819D02*
X56071428Y-65502438D01*
X56071428Y-65502438D02*
X56119047Y-65550057D01*
X56119047Y-65550057D02*
X56166666Y-65645295D01*
X56166666Y-65645295D02*
X56166666Y-65740533D01*
X56166666Y-65740533D02*
X56119047Y-65883390D01*
X56119047Y-65883390D02*
X55547619Y-66454819D01*
X55547619Y-66454819D02*
X56166666Y-66454819D01*
X53738095Y-81454819D02*
X54309523Y-81454819D01*
X54023809Y-82454819D02*
X54023809Y-81454819D01*
X54642857Y-82454819D02*
X54642857Y-81454819D01*
X54642857Y-81454819D02*
X55023809Y-81454819D01*
X55023809Y-81454819D02*
X55119047Y-81502438D01*
X55119047Y-81502438D02*
X55166666Y-81550057D01*
X55166666Y-81550057D02*
X55214285Y-81645295D01*
X55214285Y-81645295D02*
X55214285Y-81788152D01*
X55214285Y-81788152D02*
X55166666Y-81883390D01*
X55166666Y-81883390D02*
X55119047Y-81931009D01*
X55119047Y-81931009D02*
X55023809Y-81978628D01*
X55023809Y-81978628D02*
X54642857Y-81978628D01*
X55547619Y-81454819D02*
X56166666Y-81454819D01*
X56166666Y-81454819D02*
X55833333Y-81835771D01*
X55833333Y-81835771D02*
X55976190Y-81835771D01*
X55976190Y-81835771D02*
X56071428Y-81883390D01*
X56071428Y-81883390D02*
X56119047Y-81931009D01*
X56119047Y-81931009D02*
X56166666Y-82026247D01*
X56166666Y-82026247D02*
X56166666Y-82264342D01*
X56166666Y-82264342D02*
X56119047Y-82359580D01*
X56119047Y-82359580D02*
X56071428Y-82407200D01*
X56071428Y-82407200D02*
X55976190Y-82454819D01*
X55976190Y-82454819D02*
X55690476Y-82454819D01*
X55690476Y-82454819D02*
X55595238Y-82407200D01*
X55595238Y-82407200D02*
X55547619Y-82359580D01*
X53738095Y-88454819D02*
X54309523Y-88454819D01*
X54023809Y-89454819D02*
X54023809Y-88454819D01*
X54642857Y-89454819D02*
X54642857Y-88454819D01*
X54642857Y-88454819D02*
X55023809Y-88454819D01*
X55023809Y-88454819D02*
X55119047Y-88502438D01*
X55119047Y-88502438D02*
X55166666Y-88550057D01*
X55166666Y-88550057D02*
X55214285Y-88645295D01*
X55214285Y-88645295D02*
X55214285Y-88788152D01*
X55214285Y-88788152D02*
X55166666Y-88883390D01*
X55166666Y-88883390D02*
X55119047Y-88931009D01*
X55119047Y-88931009D02*
X55023809Y-88978628D01*
X55023809Y-88978628D02*
X54642857Y-88978628D01*
X56071428Y-88788152D02*
X56071428Y-89454819D01*
X55833333Y-88407200D02*
X55595238Y-89121485D01*
X55595238Y-89121485D02*
X56214285Y-89121485D01*
X53738095Y-92454819D02*
X54309523Y-92454819D01*
X54023809Y-93454819D02*
X54023809Y-92454819D01*
X54642857Y-93454819D02*
X54642857Y-92454819D01*
X54642857Y-92454819D02*
X55023809Y-92454819D01*
X55023809Y-92454819D02*
X55119047Y-92502438D01*
X55119047Y-92502438D02*
X55166666Y-92550057D01*
X55166666Y-92550057D02*
X55214285Y-92645295D01*
X55214285Y-92645295D02*
X55214285Y-92788152D01*
X55214285Y-92788152D02*
X55166666Y-92883390D01*
X55166666Y-92883390D02*
X55119047Y-92931009D01*
X55119047Y-92931009D02*
X55023809Y-92978628D01*
X55023809Y-92978628D02*
X54642857Y-92978628D01*
X56119047Y-92454819D02*
X55642857Y-92454819D01*
X55642857Y-92454819D02*
X55595238Y-92931009D01*
X55595238Y-92931009D02*
X55642857Y-92883390D01*
X55642857Y-92883390D02*
X55738095Y-92835771D01*
X55738095Y-92835771D02*
X55976190Y-92835771D01*
X55976190Y-92835771D02*
X56071428Y-92883390D01*
X56071428Y-92883390D02*
X56119047Y-92931009D01*
X56119047Y-92931009D02*
X56166666Y-93026247D01*
X56166666Y-93026247D02*
X56166666Y-93264342D01*
X56166666Y-93264342D02*
X56119047Y-93359580D01*
X56119047Y-93359580D02*
X56071428Y-93407200D01*
X56071428Y-93407200D02*
X55976190Y-93454819D01*
X55976190Y-93454819D02*
X55738095Y-93454819D01*
X55738095Y-93454819D02*
X55642857Y-93407200D01*
X55642857Y-93407200D02*
X55595238Y-93359580D01*
X53261905Y-96454819D02*
X53833333Y-96454819D01*
X53547619Y-97454819D02*
X53547619Y-96454819D01*
X54166667Y-97454819D02*
X54166667Y-96454819D01*
X54166667Y-96454819D02*
X54547619Y-96454819D01*
X54547619Y-96454819D02*
X54642857Y-96502438D01*
X54642857Y-96502438D02*
X54690476Y-96550057D01*
X54690476Y-96550057D02*
X54738095Y-96645295D01*
X54738095Y-96645295D02*
X54738095Y-96788152D01*
X54738095Y-96788152D02*
X54690476Y-96883390D01*
X54690476Y-96883390D02*
X54642857Y-96931009D01*
X54642857Y-96931009D02*
X54547619Y-96978628D01*
X54547619Y-96978628D02*
X54166667Y-96978628D01*
X55119048Y-96550057D02*
X55166667Y-96502438D01*
X55166667Y-96502438D02*
X55261905Y-96454819D01*
X55261905Y-96454819D02*
X55500000Y-96454819D01*
X55500000Y-96454819D02*
X55595238Y-96502438D01*
X55595238Y-96502438D02*
X55642857Y-96550057D01*
X55642857Y-96550057D02*
X55690476Y-96645295D01*
X55690476Y-96645295D02*
X55690476Y-96740533D01*
X55690476Y-96740533D02*
X55642857Y-96883390D01*
X55642857Y-96883390D02*
X55071429Y-97454819D01*
X55071429Y-97454819D02*
X55690476Y-97454819D01*
X56023810Y-96454819D02*
X56690476Y-96454819D01*
X56690476Y-96454819D02*
X56261905Y-97454819D01*
X54819048Y-64573866D02*
X55580953Y-64573866D01*
X55200000Y-64954819D02*
X55200000Y-64192914D01*
X59761905Y-91454819D02*
X60333333Y-91454819D01*
X60047619Y-92454819D02*
X60047619Y-91454819D01*
X60666667Y-92454819D02*
X60666667Y-91454819D01*
X60666667Y-91454819D02*
X61047619Y-91454819D01*
X61047619Y-91454819D02*
X61142857Y-91502438D01*
X61142857Y-91502438D02*
X61190476Y-91550057D01*
X61190476Y-91550057D02*
X61238095Y-91645295D01*
X61238095Y-91645295D02*
X61238095Y-91788152D01*
X61238095Y-91788152D02*
X61190476Y-91883390D01*
X61190476Y-91883390D02*
X61142857Y-91931009D01*
X61142857Y-91931009D02*
X61047619Y-91978628D01*
X61047619Y-91978628D02*
X60666667Y-91978628D01*
X61619048Y-91550057D02*
X61666667Y-91502438D01*
X61666667Y-91502438D02*
X61761905Y-91454819D01*
X61761905Y-91454819D02*
X62000000Y-91454819D01*
X62000000Y-91454819D02*
X62095238Y-91502438D01*
X62095238Y-91502438D02*
X62142857Y-91550057D01*
X62142857Y-91550057D02*
X62190476Y-91645295D01*
X62190476Y-91645295D02*
X62190476Y-91740533D01*
X62190476Y-91740533D02*
X62142857Y-91883390D01*
X62142857Y-91883390D02*
X61571429Y-92454819D01*
X61571429Y-92454819D02*
X62190476Y-92454819D01*
X62666667Y-92454819D02*
X62857143Y-92454819D01*
X62857143Y-92454819D02*
X62952381Y-92407200D01*
X62952381Y-92407200D02*
X63000000Y-92359580D01*
X63000000Y-92359580D02*
X63095238Y-92216723D01*
X63095238Y-92216723D02*
X63142857Y-92026247D01*
X63142857Y-92026247D02*
X63142857Y-91645295D01*
X63142857Y-91645295D02*
X63095238Y-91550057D01*
X63095238Y-91550057D02*
X63047619Y-91502438D01*
X63047619Y-91502438D02*
X62952381Y-91454819D01*
X62952381Y-91454819D02*
X62761905Y-91454819D01*
X62761905Y-91454819D02*
X62666667Y-91502438D01*
X62666667Y-91502438D02*
X62619048Y-91550057D01*
X62619048Y-91550057D02*
X62571429Y-91645295D01*
X62571429Y-91645295D02*
X62571429Y-91883390D01*
X62571429Y-91883390D02*
X62619048Y-91978628D01*
X62619048Y-91978628D02*
X62666667Y-92026247D01*
X62666667Y-92026247D02*
X62761905Y-92073866D01*
X62761905Y-92073866D02*
X62952381Y-92073866D01*
X62952381Y-92073866D02*
X63047619Y-92026247D01*
X63047619Y-92026247D02*
X63095238Y-91978628D01*
X63095238Y-91978628D02*
X63142857Y-91883390D01*
X59761905Y-95454819D02*
X60333333Y-95454819D01*
X60047619Y-96454819D02*
X60047619Y-95454819D01*
X60666667Y-96454819D02*
X60666667Y-95454819D01*
X60666667Y-95454819D02*
X61047619Y-95454819D01*
X61047619Y-95454819D02*
X61142857Y-95502438D01*
X61142857Y-95502438D02*
X61190476Y-95550057D01*
X61190476Y-95550057D02*
X61238095Y-95645295D01*
X61238095Y-95645295D02*
X61238095Y-95788152D01*
X61238095Y-95788152D02*
X61190476Y-95883390D01*
X61190476Y-95883390D02*
X61142857Y-95931009D01*
X61142857Y-95931009D02*
X61047619Y-95978628D01*
X61047619Y-95978628D02*
X60666667Y-95978628D01*
X61619048Y-95550057D02*
X61666667Y-95502438D01*
X61666667Y-95502438D02*
X61761905Y-95454819D01*
X61761905Y-95454819D02*
X62000000Y-95454819D01*
X62000000Y-95454819D02*
X62095238Y-95502438D01*
X62095238Y-95502438D02*
X62142857Y-95550057D01*
X62142857Y-95550057D02*
X62190476Y-95645295D01*
X62190476Y-95645295D02*
X62190476Y-95740533D01*
X62190476Y-95740533D02*
X62142857Y-95883390D01*
X62142857Y-95883390D02*
X61571429Y-96454819D01*
X61571429Y-96454819D02*
X62190476Y-96454819D01*
X62761905Y-95883390D02*
X62666667Y-95835771D01*
X62666667Y-95835771D02*
X62619048Y-95788152D01*
X62619048Y-95788152D02*
X62571429Y-95692914D01*
X62571429Y-95692914D02*
X62571429Y-95645295D01*
X62571429Y-95645295D02*
X62619048Y-95550057D01*
X62619048Y-95550057D02*
X62666667Y-95502438D01*
X62666667Y-95502438D02*
X62761905Y-95454819D01*
X62761905Y-95454819D02*
X62952381Y-95454819D01*
X62952381Y-95454819D02*
X63047619Y-95502438D01*
X63047619Y-95502438D02*
X63095238Y-95550057D01*
X63095238Y-95550057D02*
X63142857Y-95645295D01*
X63142857Y-95645295D02*
X63142857Y-95692914D01*
X63142857Y-95692914D02*
X63095238Y-95788152D01*
X63095238Y-95788152D02*
X63047619Y-95835771D01*
X63047619Y-95835771D02*
X62952381Y-95883390D01*
X62952381Y-95883390D02*
X62761905Y-95883390D01*
X62761905Y-95883390D02*
X62666667Y-95931009D01*
X62666667Y-95931009D02*
X62619048Y-95978628D01*
X62619048Y-95978628D02*
X62571429Y-96073866D01*
X62571429Y-96073866D02*
X62571429Y-96264342D01*
X62571429Y-96264342D02*
X62619048Y-96359580D01*
X62619048Y-96359580D02*
X62666667Y-96407200D01*
X62666667Y-96407200D02*
X62761905Y-96454819D01*
X62761905Y-96454819D02*
X62952381Y-96454819D01*
X62952381Y-96454819D02*
X63047619Y-96407200D01*
X63047619Y-96407200D02*
X63095238Y-96359580D01*
X63095238Y-96359580D02*
X63142857Y-96264342D01*
X63142857Y-96264342D02*
X63142857Y-96073866D01*
X63142857Y-96073866D02*
X63095238Y-95978628D01*
X63095238Y-95978628D02*
X63047619Y-95931009D01*
X63047619Y-95931009D02*
X62952381Y-95883390D01*
X66785714Y-109907200D02*
X66928571Y-109954819D01*
X66928571Y-109954819D02*
X67166666Y-109954819D01*
X67166666Y-109954819D02*
X67261904Y-109907200D01*
X67261904Y-109907200D02*
X67309523Y-109859580D01*
X67309523Y-109859580D02*
X67357142Y-109764342D01*
X67357142Y-109764342D02*
X67357142Y-109669104D01*
X67357142Y-109669104D02*
X67309523Y-109573866D01*
X67309523Y-109573866D02*
X67261904Y-109526247D01*
X67261904Y-109526247D02*
X67166666Y-109478628D01*
X67166666Y-109478628D02*
X66976190Y-109431009D01*
X66976190Y-109431009D02*
X66880952Y-109383390D01*
X66880952Y-109383390D02*
X66833333Y-109335771D01*
X66833333Y-109335771D02*
X66785714Y-109240533D01*
X66785714Y-109240533D02*
X66785714Y-109145295D01*
X66785714Y-109145295D02*
X66833333Y-109050057D01*
X66833333Y-109050057D02*
X66880952Y-109002438D01*
X66880952Y-109002438D02*
X66976190Y-108954819D01*
X66976190Y-108954819D02*
X67214285Y-108954819D01*
X67214285Y-108954819D02*
X67357142Y-109002438D01*
X67785714Y-109954819D02*
X67785714Y-108954819D01*
X67785714Y-108954819D02*
X68023809Y-108954819D01*
X68023809Y-108954819D02*
X68166666Y-109002438D01*
X68166666Y-109002438D02*
X68261904Y-109097676D01*
X68261904Y-109097676D02*
X68309523Y-109192914D01*
X68309523Y-109192914D02*
X68357142Y-109383390D01*
X68357142Y-109383390D02*
X68357142Y-109526247D01*
X68357142Y-109526247D02*
X68309523Y-109716723D01*
X68309523Y-109716723D02*
X68261904Y-109811961D01*
X68261904Y-109811961D02*
X68166666Y-109907200D01*
X68166666Y-109907200D02*
X68023809Y-109954819D01*
X68023809Y-109954819D02*
X67785714Y-109954819D01*
X68738095Y-109669104D02*
X69214285Y-109669104D01*
X68642857Y-109954819D02*
X68976190Y-108954819D01*
X68976190Y-108954819D02*
X69309523Y-109954819D01*
X67819048Y-64573866D02*
X68580953Y-64573866D01*
X68200000Y-64954819D02*
X68200000Y-64192914D01*
X70761905Y-105954819D02*
X71333333Y-105954819D01*
X71047619Y-106954819D02*
X71047619Y-105954819D01*
X71666667Y-106954819D02*
X71666667Y-105954819D01*
X71666667Y-105954819D02*
X72047619Y-105954819D01*
X72047619Y-105954819D02*
X72142857Y-106002438D01*
X72142857Y-106002438D02*
X72190476Y-106050057D01*
X72190476Y-106050057D02*
X72238095Y-106145295D01*
X72238095Y-106145295D02*
X72238095Y-106288152D01*
X72238095Y-106288152D02*
X72190476Y-106383390D01*
X72190476Y-106383390D02*
X72142857Y-106431009D01*
X72142857Y-106431009D02*
X72047619Y-106478628D01*
X72047619Y-106478628D02*
X71666667Y-106478628D01*
X73190476Y-106954819D02*
X72619048Y-106954819D01*
X72904762Y-106954819D02*
X72904762Y-105954819D01*
X72904762Y-105954819D02*
X72809524Y-106097676D01*
X72809524Y-106097676D02*
X72714286Y-106192914D01*
X72714286Y-106192914D02*
X72619048Y-106240533D01*
X73523810Y-105954819D02*
X74190476Y-105954819D01*
X74190476Y-105954819D02*
X73761905Y-106954819D01*
X72809524Y-109407200D02*
X72952381Y-109454819D01*
X72952381Y-109454819D02*
X73190476Y-109454819D01*
X73190476Y-109454819D02*
X73285714Y-109407200D01*
X73285714Y-109407200D02*
X73333333Y-109359580D01*
X73333333Y-109359580D02*
X73380952Y-109264342D01*
X73380952Y-109264342D02*
X73380952Y-109169104D01*
X73380952Y-109169104D02*
X73333333Y-109073866D01*
X73333333Y-109073866D02*
X73285714Y-109026247D01*
X73285714Y-109026247D02*
X73190476Y-108978628D01*
X73190476Y-108978628D02*
X73000000Y-108931009D01*
X73000000Y-108931009D02*
X72904762Y-108883390D01*
X72904762Y-108883390D02*
X72857143Y-108835771D01*
X72857143Y-108835771D02*
X72809524Y-108740533D01*
X72809524Y-108740533D02*
X72809524Y-108645295D01*
X72809524Y-108645295D02*
X72857143Y-108550057D01*
X72857143Y-108550057D02*
X72904762Y-108502438D01*
X72904762Y-108502438D02*
X73000000Y-108454819D01*
X73000000Y-108454819D02*
X73238095Y-108454819D01*
X73238095Y-108454819D02*
X73380952Y-108502438D01*
X74380952Y-109359580D02*
X74333333Y-109407200D01*
X74333333Y-109407200D02*
X74190476Y-109454819D01*
X74190476Y-109454819D02*
X74095238Y-109454819D01*
X74095238Y-109454819D02*
X73952381Y-109407200D01*
X73952381Y-109407200D02*
X73857143Y-109311961D01*
X73857143Y-109311961D02*
X73809524Y-109216723D01*
X73809524Y-109216723D02*
X73761905Y-109026247D01*
X73761905Y-109026247D02*
X73761905Y-108883390D01*
X73761905Y-108883390D02*
X73809524Y-108692914D01*
X73809524Y-108692914D02*
X73857143Y-108597676D01*
X73857143Y-108597676D02*
X73952381Y-108502438D01*
X73952381Y-108502438D02*
X74095238Y-108454819D01*
X74095238Y-108454819D02*
X74190476Y-108454819D01*
X74190476Y-108454819D02*
X74333333Y-108502438D01*
X74333333Y-108502438D02*
X74380952Y-108550057D01*
X75285714Y-109454819D02*
X74809524Y-109454819D01*
X74809524Y-109454819D02*
X74809524Y-108454819D01*
X79142857Y-109431009D02*
X78809524Y-109431009D01*
X78809524Y-109954819D02*
X78809524Y-108954819D01*
X78809524Y-108954819D02*
X79285714Y-108954819D01*
X80190476Y-109002438D02*
X80095238Y-108954819D01*
X80095238Y-108954819D02*
X79952381Y-108954819D01*
X79952381Y-108954819D02*
X79809524Y-109002438D01*
X79809524Y-109002438D02*
X79714286Y-109097676D01*
X79714286Y-109097676D02*
X79666667Y-109192914D01*
X79666667Y-109192914D02*
X79619048Y-109383390D01*
X79619048Y-109383390D02*
X79619048Y-109526247D01*
X79619048Y-109526247D02*
X79666667Y-109716723D01*
X79666667Y-109716723D02*
X79714286Y-109811961D01*
X79714286Y-109811961D02*
X79809524Y-109907200D01*
X79809524Y-109907200D02*
X79952381Y-109954819D01*
X79952381Y-109954819D02*
X80047619Y-109954819D01*
X80047619Y-109954819D02*
X80190476Y-109907200D01*
X80190476Y-109907200D02*
X80238095Y-109859580D01*
X80238095Y-109859580D02*
X80238095Y-109526247D01*
X80238095Y-109526247D02*
X80047619Y-109526247D01*
X102142857Y-71931009D02*
X102285714Y-71978628D01*
X102285714Y-71978628D02*
X102333333Y-72026247D01*
X102333333Y-72026247D02*
X102380952Y-72121485D01*
X102380952Y-72121485D02*
X102380952Y-72264342D01*
X102380952Y-72264342D02*
X102333333Y-72359580D01*
X102333333Y-72359580D02*
X102285714Y-72407200D01*
X102285714Y-72407200D02*
X102190476Y-72454819D01*
X102190476Y-72454819D02*
X101809524Y-72454819D01*
X101809524Y-72454819D02*
X101809524Y-71454819D01*
X101809524Y-71454819D02*
X102142857Y-71454819D01*
X102142857Y-71454819D02*
X102238095Y-71502438D01*
X102238095Y-71502438D02*
X102285714Y-71550057D01*
X102285714Y-71550057D02*
X102333333Y-71645295D01*
X102333333Y-71645295D02*
X102333333Y-71740533D01*
X102333333Y-71740533D02*
X102285714Y-71835771D01*
X102285714Y-71835771D02*
X102238095Y-71883390D01*
X102238095Y-71883390D02*
X102142857Y-71931009D01*
X102142857Y-71931009D02*
X101809524Y-71931009D01*
X103000000Y-71454819D02*
X103190476Y-71454819D01*
X103190476Y-71454819D02*
X103285714Y-71502438D01*
X103285714Y-71502438D02*
X103380952Y-71597676D01*
X103380952Y-71597676D02*
X103428571Y-71788152D01*
X103428571Y-71788152D02*
X103428571Y-72121485D01*
X103428571Y-72121485D02*
X103380952Y-72311961D01*
X103380952Y-72311961D02*
X103285714Y-72407200D01*
X103285714Y-72407200D02*
X103190476Y-72454819D01*
X103190476Y-72454819D02*
X103000000Y-72454819D01*
X103000000Y-72454819D02*
X102904762Y-72407200D01*
X102904762Y-72407200D02*
X102809524Y-72311961D01*
X102809524Y-72311961D02*
X102761905Y-72121485D01*
X102761905Y-72121485D02*
X102761905Y-71788152D01*
X102761905Y-71788152D02*
X102809524Y-71597676D01*
X102809524Y-71597676D02*
X102904762Y-71502438D01*
X102904762Y-71502438D02*
X103000000Y-71454819D01*
X104047619Y-71454819D02*
X104238095Y-71454819D01*
X104238095Y-71454819D02*
X104333333Y-71502438D01*
X104333333Y-71502438D02*
X104428571Y-71597676D01*
X104428571Y-71597676D02*
X104476190Y-71788152D01*
X104476190Y-71788152D02*
X104476190Y-72121485D01*
X104476190Y-72121485D02*
X104428571Y-72311961D01*
X104428571Y-72311961D02*
X104333333Y-72407200D01*
X104333333Y-72407200D02*
X104238095Y-72454819D01*
X104238095Y-72454819D02*
X104047619Y-72454819D01*
X104047619Y-72454819D02*
X103952381Y-72407200D01*
X103952381Y-72407200D02*
X103857143Y-72311961D01*
X103857143Y-72311961D02*
X103809524Y-72121485D01*
X103809524Y-72121485D02*
X103809524Y-71788152D01*
X103809524Y-71788152D02*
X103857143Y-71597676D01*
X103857143Y-71597676D02*
X103952381Y-71502438D01*
X103952381Y-71502438D02*
X104047619Y-71454819D01*
X104761905Y-71454819D02*
X105333333Y-71454819D01*
X105047619Y-72454819D02*
X105047619Y-71454819D01*
X122261905Y-108454819D02*
X122833333Y-108454819D01*
X122547619Y-109454819D02*
X122547619Y-108454819D01*
X123166667Y-109454819D02*
X123166667Y-108454819D01*
X123166667Y-108454819D02*
X123547619Y-108454819D01*
X123547619Y-108454819D02*
X123642857Y-108502438D01*
X123642857Y-108502438D02*
X123690476Y-108550057D01*
X123690476Y-108550057D02*
X123738095Y-108645295D01*
X123738095Y-108645295D02*
X123738095Y-108788152D01*
X123738095Y-108788152D02*
X123690476Y-108883390D01*
X123690476Y-108883390D02*
X123642857Y-108931009D01*
X123642857Y-108931009D02*
X123547619Y-108978628D01*
X123547619Y-108978628D02*
X123166667Y-108978628D01*
X124119048Y-108550057D02*
X124166667Y-108502438D01*
X124166667Y-108502438D02*
X124261905Y-108454819D01*
X124261905Y-108454819D02*
X124500000Y-108454819D01*
X124500000Y-108454819D02*
X124595238Y-108502438D01*
X124595238Y-108502438D02*
X124642857Y-108550057D01*
X124642857Y-108550057D02*
X124690476Y-108645295D01*
X124690476Y-108645295D02*
X124690476Y-108740533D01*
X124690476Y-108740533D02*
X124642857Y-108883390D01*
X124642857Y-108883390D02*
X124071429Y-109454819D01*
X124071429Y-109454819D02*
X124690476Y-109454819D01*
X125023810Y-108454819D02*
X125642857Y-108454819D01*
X125642857Y-108454819D02*
X125309524Y-108835771D01*
X125309524Y-108835771D02*
X125452381Y-108835771D01*
X125452381Y-108835771D02*
X125547619Y-108883390D01*
X125547619Y-108883390D02*
X125595238Y-108931009D01*
X125595238Y-108931009D02*
X125642857Y-109026247D01*
X125642857Y-109026247D02*
X125642857Y-109264342D01*
X125642857Y-109264342D02*
X125595238Y-109359580D01*
X125595238Y-109359580D02*
X125547619Y-109407200D01*
X125547619Y-109407200D02*
X125452381Y-109454819D01*
X125452381Y-109454819D02*
X125166667Y-109454819D01*
X125166667Y-109454819D02*
X125071429Y-109407200D01*
X125071429Y-109407200D02*
X125023810Y-109359580D01*
X131261905Y-93454819D02*
X131833333Y-93454819D01*
X131547619Y-94454819D02*
X131547619Y-93454819D01*
X132166667Y-94454819D02*
X132166667Y-93454819D01*
X132166667Y-93454819D02*
X132547619Y-93454819D01*
X132547619Y-93454819D02*
X132642857Y-93502438D01*
X132642857Y-93502438D02*
X132690476Y-93550057D01*
X132690476Y-93550057D02*
X132738095Y-93645295D01*
X132738095Y-93645295D02*
X132738095Y-93788152D01*
X132738095Y-93788152D02*
X132690476Y-93883390D01*
X132690476Y-93883390D02*
X132642857Y-93931009D01*
X132642857Y-93931009D02*
X132547619Y-93978628D01*
X132547619Y-93978628D02*
X132166667Y-93978628D01*
X133690476Y-94454819D02*
X133119048Y-94454819D01*
X133404762Y-94454819D02*
X133404762Y-93454819D01*
X133404762Y-93454819D02*
X133309524Y-93597676D01*
X133309524Y-93597676D02*
X133214286Y-93692914D01*
X133214286Y-93692914D02*
X133119048Y-93740533D01*
X134595238Y-93454819D02*
X134119048Y-93454819D01*
X134119048Y-93454819D02*
X134071429Y-93931009D01*
X134071429Y-93931009D02*
X134119048Y-93883390D01*
X134119048Y-93883390D02*
X134214286Y-93835771D01*
X134214286Y-93835771D02*
X134452381Y-93835771D01*
X134452381Y-93835771D02*
X134547619Y-93883390D01*
X134547619Y-93883390D02*
X134595238Y-93931009D01*
X134595238Y-93931009D02*
X134642857Y-94026247D01*
X134642857Y-94026247D02*
X134642857Y-94264342D01*
X134642857Y-94264342D02*
X134595238Y-94359580D01*
X134595238Y-94359580D02*
X134547619Y-94407200D01*
X134547619Y-94407200D02*
X134452381Y-94454819D01*
X134452381Y-94454819D02*
X134214286Y-94454819D01*
X134214286Y-94454819D02*
X134119048Y-94407200D01*
X134119048Y-94407200D02*
X134071429Y-94359580D01*
X131261905Y-97454819D02*
X131833333Y-97454819D01*
X131547619Y-98454819D02*
X131547619Y-97454819D01*
X132166667Y-98454819D02*
X132166667Y-97454819D01*
X132166667Y-97454819D02*
X132547619Y-97454819D01*
X132547619Y-97454819D02*
X132642857Y-97502438D01*
X132642857Y-97502438D02*
X132690476Y-97550057D01*
X132690476Y-97550057D02*
X132738095Y-97645295D01*
X132738095Y-97645295D02*
X132738095Y-97788152D01*
X132738095Y-97788152D02*
X132690476Y-97883390D01*
X132690476Y-97883390D02*
X132642857Y-97931009D01*
X132642857Y-97931009D02*
X132547619Y-97978628D01*
X132547619Y-97978628D02*
X132166667Y-97978628D01*
X133119048Y-97550057D02*
X133166667Y-97502438D01*
X133166667Y-97502438D02*
X133261905Y-97454819D01*
X133261905Y-97454819D02*
X133500000Y-97454819D01*
X133500000Y-97454819D02*
X133595238Y-97502438D01*
X133595238Y-97502438D02*
X133642857Y-97550057D01*
X133642857Y-97550057D02*
X133690476Y-97645295D01*
X133690476Y-97645295D02*
X133690476Y-97740533D01*
X133690476Y-97740533D02*
X133642857Y-97883390D01*
X133642857Y-97883390D02*
X133071429Y-98454819D01*
X133071429Y-98454819D02*
X133690476Y-98454819D01*
X134642857Y-98454819D02*
X134071429Y-98454819D01*
X134357143Y-98454819D02*
X134357143Y-97454819D01*
X134357143Y-97454819D02*
X134261905Y-97597676D01*
X134261905Y-97597676D02*
X134166667Y-97692914D01*
X134166667Y-97692914D02*
X134071429Y-97740533D01*
X131261905Y-103454819D02*
X131833333Y-103454819D01*
X131547619Y-104454819D02*
X131547619Y-103454819D01*
X132166667Y-104454819D02*
X132166667Y-103454819D01*
X132166667Y-103454819D02*
X132547619Y-103454819D01*
X132547619Y-103454819D02*
X132642857Y-103502438D01*
X132642857Y-103502438D02*
X132690476Y-103550057D01*
X132690476Y-103550057D02*
X132738095Y-103645295D01*
X132738095Y-103645295D02*
X132738095Y-103788152D01*
X132738095Y-103788152D02*
X132690476Y-103883390D01*
X132690476Y-103883390D02*
X132642857Y-103931009D01*
X132642857Y-103931009D02*
X132547619Y-103978628D01*
X132547619Y-103978628D02*
X132166667Y-103978628D01*
X133119048Y-103550057D02*
X133166667Y-103502438D01*
X133166667Y-103502438D02*
X133261905Y-103454819D01*
X133261905Y-103454819D02*
X133500000Y-103454819D01*
X133500000Y-103454819D02*
X133595238Y-103502438D01*
X133595238Y-103502438D02*
X133642857Y-103550057D01*
X133642857Y-103550057D02*
X133690476Y-103645295D01*
X133690476Y-103645295D02*
X133690476Y-103740533D01*
X133690476Y-103740533D02*
X133642857Y-103883390D01*
X133642857Y-103883390D02*
X133071429Y-104454819D01*
X133071429Y-104454819D02*
X133690476Y-104454819D01*
X134071429Y-103550057D02*
X134119048Y-103502438D01*
X134119048Y-103502438D02*
X134214286Y-103454819D01*
X134214286Y-103454819D02*
X134452381Y-103454819D01*
X134452381Y-103454819D02*
X134547619Y-103502438D01*
X134547619Y-103502438D02*
X134595238Y-103550057D01*
X134595238Y-103550057D02*
X134642857Y-103645295D01*
X134642857Y-103645295D02*
X134642857Y-103740533D01*
X134642857Y-103740533D02*
X134595238Y-103883390D01*
X134595238Y-103883390D02*
X134023810Y-104454819D01*
X134023810Y-104454819D02*
X134642857Y-104454819D01*
X133738095Y-85254819D02*
X134309523Y-85254819D01*
X134023809Y-86254819D02*
X134023809Y-85254819D01*
X134642857Y-86254819D02*
X134642857Y-85254819D01*
X134642857Y-85254819D02*
X135023809Y-85254819D01*
X135023809Y-85254819D02*
X135119047Y-85302438D01*
X135119047Y-85302438D02*
X135166666Y-85350057D01*
X135166666Y-85350057D02*
X135214285Y-85445295D01*
X135214285Y-85445295D02*
X135214285Y-85588152D01*
X135214285Y-85588152D02*
X135166666Y-85683390D01*
X135166666Y-85683390D02*
X135119047Y-85731009D01*
X135119047Y-85731009D02*
X135023809Y-85778628D01*
X135023809Y-85778628D02*
X134642857Y-85778628D01*
X136071428Y-85254819D02*
X135880952Y-85254819D01*
X135880952Y-85254819D02*
X135785714Y-85302438D01*
X135785714Y-85302438D02*
X135738095Y-85350057D01*
X135738095Y-85350057D02*
X135642857Y-85492914D01*
X135642857Y-85492914D02*
X135595238Y-85683390D01*
X135595238Y-85683390D02*
X135595238Y-86064342D01*
X135595238Y-86064342D02*
X135642857Y-86159580D01*
X135642857Y-86159580D02*
X135690476Y-86207200D01*
X135690476Y-86207200D02*
X135785714Y-86254819D01*
X135785714Y-86254819D02*
X135976190Y-86254819D01*
X135976190Y-86254819D02*
X136071428Y-86207200D01*
X136071428Y-86207200D02*
X136119047Y-86159580D01*
X136119047Y-86159580D02*
X136166666Y-86064342D01*
X136166666Y-86064342D02*
X136166666Y-85826247D01*
X136166666Y-85826247D02*
X136119047Y-85731009D01*
X136119047Y-85731009D02*
X136071428Y-85683390D01*
X136071428Y-85683390D02*
X135976190Y-85635771D01*
X135976190Y-85635771D02*
X135785714Y-85635771D01*
X135785714Y-85635771D02*
X135690476Y-85683390D01*
X135690476Y-85683390D02*
X135642857Y-85731009D01*
X135642857Y-85731009D02*
X135595238Y-85826247D01*
X61454819Y-109761904D02*
X61454819Y-109190476D01*
X62454819Y-109476190D02*
X61454819Y-109476190D01*
X62454819Y-108857142D02*
X61454819Y-108857142D01*
X61454819Y-108857142D02*
X61454819Y-108476190D01*
X61454819Y-108476190D02*
X61502438Y-108380952D01*
X61502438Y-108380952D02*
X61550057Y-108333333D01*
X61550057Y-108333333D02*
X61645295Y-108285714D01*
X61645295Y-108285714D02*
X61788152Y-108285714D01*
X61788152Y-108285714D02*
X61883390Y-108333333D01*
X61883390Y-108333333D02*
X61931009Y-108380952D01*
X61931009Y-108380952D02*
X61978628Y-108476190D01*
X61978628Y-108476190D02*
X61978628Y-108857142D01*
X61454819Y-107952380D02*
X61454819Y-107285714D01*
X61454819Y-107285714D02*
X62454819Y-107714285D01*
X65454819Y-109761904D02*
X65454819Y-109190476D01*
X66454819Y-109476190D02*
X65454819Y-109476190D01*
X66454819Y-108857142D02*
X65454819Y-108857142D01*
X65454819Y-108857142D02*
X65454819Y-108476190D01*
X65454819Y-108476190D02*
X65502438Y-108380952D01*
X65502438Y-108380952D02*
X65550057Y-108333333D01*
X65550057Y-108333333D02*
X65645295Y-108285714D01*
X65645295Y-108285714D02*
X65788152Y-108285714D01*
X65788152Y-108285714D02*
X65883390Y-108333333D01*
X65883390Y-108333333D02*
X65931009Y-108380952D01*
X65931009Y-108380952D02*
X65978628Y-108476190D01*
X65978628Y-108476190D02*
X65978628Y-108857142D01*
X65883390Y-107714285D02*
X65835771Y-107809523D01*
X65835771Y-107809523D02*
X65788152Y-107857142D01*
X65788152Y-107857142D02*
X65692914Y-107904761D01*
X65692914Y-107904761D02*
X65645295Y-107904761D01*
X65645295Y-107904761D02*
X65550057Y-107857142D01*
X65550057Y-107857142D02*
X65502438Y-107809523D01*
X65502438Y-107809523D02*
X65454819Y-107714285D01*
X65454819Y-107714285D02*
X65454819Y-107523809D01*
X65454819Y-107523809D02*
X65502438Y-107428571D01*
X65502438Y-107428571D02*
X65550057Y-107380952D01*
X65550057Y-107380952D02*
X65645295Y-107333333D01*
X65645295Y-107333333D02*
X65692914Y-107333333D01*
X65692914Y-107333333D02*
X65788152Y-107380952D01*
X65788152Y-107380952D02*
X65835771Y-107428571D01*
X65835771Y-107428571D02*
X65883390Y-107523809D01*
X65883390Y-107523809D02*
X65883390Y-107714285D01*
X65883390Y-107714285D02*
X65931009Y-107809523D01*
X65931009Y-107809523D02*
X65978628Y-107857142D01*
X65978628Y-107857142D02*
X66073866Y-107904761D01*
X66073866Y-107904761D02*
X66264342Y-107904761D01*
X66264342Y-107904761D02*
X66359580Y-107857142D01*
X66359580Y-107857142D02*
X66407200Y-107809523D01*
X66407200Y-107809523D02*
X66454819Y-107714285D01*
X66454819Y-107714285D02*
X66454819Y-107523809D01*
X66454819Y-107523809D02*
X66407200Y-107428571D01*
X66407200Y-107428571D02*
X66359580Y-107380952D01*
X66359580Y-107380952D02*
X66264342Y-107333333D01*
X66264342Y-107333333D02*
X66073866Y-107333333D01*
X66073866Y-107333333D02*
X65978628Y-107380952D01*
X65978628Y-107380952D02*
X65931009Y-107428571D01*
X65931009Y-107428571D02*
X65883390Y-107523809D01*
X74454819Y-71738094D02*
X74454819Y-71166666D01*
X75454819Y-71452380D02*
X74454819Y-71452380D01*
X75454819Y-70833332D02*
X74454819Y-70833332D01*
X74454819Y-70833332D02*
X74454819Y-70452380D01*
X74454819Y-70452380D02*
X74502438Y-70357142D01*
X74502438Y-70357142D02*
X74550057Y-70309523D01*
X74550057Y-70309523D02*
X74645295Y-70261904D01*
X74645295Y-70261904D02*
X74788152Y-70261904D01*
X74788152Y-70261904D02*
X74883390Y-70309523D01*
X74883390Y-70309523D02*
X74931009Y-70357142D01*
X74931009Y-70357142D02*
X74978628Y-70452380D01*
X74978628Y-70452380D02*
X74978628Y-70833332D01*
X74550057Y-69880951D02*
X74502438Y-69833332D01*
X74502438Y-69833332D02*
X74454819Y-69738094D01*
X74454819Y-69738094D02*
X74454819Y-69499999D01*
X74454819Y-69499999D02*
X74502438Y-69404761D01*
X74502438Y-69404761D02*
X74550057Y-69357142D01*
X74550057Y-69357142D02*
X74645295Y-69309523D01*
X74645295Y-69309523D02*
X74740533Y-69309523D01*
X74740533Y-69309523D02*
X74883390Y-69357142D01*
X74883390Y-69357142D02*
X75454819Y-69928570D01*
X75454819Y-69928570D02*
X75454819Y-69309523D01*
X74454819Y-68452380D02*
X74454819Y-68642856D01*
X74454819Y-68642856D02*
X74502438Y-68738094D01*
X74502438Y-68738094D02*
X74550057Y-68785713D01*
X74550057Y-68785713D02*
X74692914Y-68880951D01*
X74692914Y-68880951D02*
X74883390Y-68928570D01*
X74883390Y-68928570D02*
X75264342Y-68928570D01*
X75264342Y-68928570D02*
X75359580Y-68880951D01*
X75359580Y-68880951D02*
X75407200Y-68833332D01*
X75407200Y-68833332D02*
X75454819Y-68738094D01*
X75454819Y-68738094D02*
X75454819Y-68547618D01*
X75454819Y-68547618D02*
X75407200Y-68452380D01*
X75407200Y-68452380D02*
X75359580Y-68404761D01*
X75359580Y-68404761D02*
X75264342Y-68357142D01*
X75264342Y-68357142D02*
X75026247Y-68357142D01*
X75026247Y-68357142D02*
X74931009Y-68404761D01*
X74931009Y-68404761D02*
X74883390Y-68452380D01*
X74883390Y-68452380D02*
X74835771Y-68547618D01*
X74835771Y-68547618D02*
X74835771Y-68738094D01*
X74835771Y-68738094D02*
X74883390Y-68833332D01*
X74883390Y-68833332D02*
X74931009Y-68880951D01*
X74931009Y-68880951D02*
X75026247Y-68928570D01*
X78454819Y-71738094D02*
X78454819Y-71166666D01*
X79454819Y-71452380D02*
X78454819Y-71452380D01*
X79454819Y-70833332D02*
X78454819Y-70833332D01*
X78454819Y-70833332D02*
X78454819Y-70452380D01*
X78454819Y-70452380D02*
X78502438Y-70357142D01*
X78502438Y-70357142D02*
X78550057Y-70309523D01*
X78550057Y-70309523D02*
X78645295Y-70261904D01*
X78645295Y-70261904D02*
X78788152Y-70261904D01*
X78788152Y-70261904D02*
X78883390Y-70309523D01*
X78883390Y-70309523D02*
X78931009Y-70357142D01*
X78931009Y-70357142D02*
X78978628Y-70452380D01*
X78978628Y-70452380D02*
X78978628Y-70833332D01*
X78550057Y-69880951D02*
X78502438Y-69833332D01*
X78502438Y-69833332D02*
X78454819Y-69738094D01*
X78454819Y-69738094D02*
X78454819Y-69499999D01*
X78454819Y-69499999D02*
X78502438Y-69404761D01*
X78502438Y-69404761D02*
X78550057Y-69357142D01*
X78550057Y-69357142D02*
X78645295Y-69309523D01*
X78645295Y-69309523D02*
X78740533Y-69309523D01*
X78740533Y-69309523D02*
X78883390Y-69357142D01*
X78883390Y-69357142D02*
X79454819Y-69928570D01*
X79454819Y-69928570D02*
X79454819Y-69309523D01*
X78454819Y-68404761D02*
X78454819Y-68880951D01*
X78454819Y-68880951D02*
X78931009Y-68928570D01*
X78931009Y-68928570D02*
X78883390Y-68880951D01*
X78883390Y-68880951D02*
X78835771Y-68785713D01*
X78835771Y-68785713D02*
X78835771Y-68547618D01*
X78835771Y-68547618D02*
X78883390Y-68452380D01*
X78883390Y-68452380D02*
X78931009Y-68404761D01*
X78931009Y-68404761D02*
X79026247Y-68357142D01*
X79026247Y-68357142D02*
X79264342Y-68357142D01*
X79264342Y-68357142D02*
X79359580Y-68404761D01*
X79359580Y-68404761D02*
X79407200Y-68452380D01*
X79407200Y-68452380D02*
X79454819Y-68547618D01*
X79454819Y-68547618D02*
X79454819Y-68785713D01*
X79454819Y-68785713D02*
X79407200Y-68880951D01*
X79407200Y-68880951D02*
X79359580Y-68928570D01*
X82454819Y-78238094D02*
X82454819Y-77666666D01*
X83454819Y-77952380D02*
X82454819Y-77952380D01*
X83454819Y-77333332D02*
X82454819Y-77333332D01*
X82454819Y-77333332D02*
X82454819Y-76952380D01*
X82454819Y-76952380D02*
X82502438Y-76857142D01*
X82502438Y-76857142D02*
X82550057Y-76809523D01*
X82550057Y-76809523D02*
X82645295Y-76761904D01*
X82645295Y-76761904D02*
X82788152Y-76761904D01*
X82788152Y-76761904D02*
X82883390Y-76809523D01*
X82883390Y-76809523D02*
X82931009Y-76857142D01*
X82931009Y-76857142D02*
X82978628Y-76952380D01*
X82978628Y-76952380D02*
X82978628Y-77333332D01*
X82550057Y-76380951D02*
X82502438Y-76333332D01*
X82502438Y-76333332D02*
X82454819Y-76238094D01*
X82454819Y-76238094D02*
X82454819Y-75999999D01*
X82454819Y-75999999D02*
X82502438Y-75904761D01*
X82502438Y-75904761D02*
X82550057Y-75857142D01*
X82550057Y-75857142D02*
X82645295Y-75809523D01*
X82645295Y-75809523D02*
X82740533Y-75809523D01*
X82740533Y-75809523D02*
X82883390Y-75857142D01*
X82883390Y-75857142D02*
X83454819Y-76428570D01*
X83454819Y-76428570D02*
X83454819Y-75809523D01*
X82788152Y-74952380D02*
X83454819Y-74952380D01*
X82407200Y-75190475D02*
X83121485Y-75428570D01*
X83121485Y-75428570D02*
X83121485Y-74809523D01*
X99254819Y-72252381D02*
X98778628Y-72585714D01*
X99254819Y-72823809D02*
X98254819Y-72823809D01*
X98254819Y-72823809D02*
X98254819Y-72442857D01*
X98254819Y-72442857D02*
X98302438Y-72347619D01*
X98302438Y-72347619D02*
X98350057Y-72300000D01*
X98350057Y-72300000D02*
X98445295Y-72252381D01*
X98445295Y-72252381D02*
X98588152Y-72252381D01*
X98588152Y-72252381D02*
X98683390Y-72300000D01*
X98683390Y-72300000D02*
X98731009Y-72347619D01*
X98731009Y-72347619D02*
X98778628Y-72442857D01*
X98778628Y-72442857D02*
X98778628Y-72823809D01*
X98731009Y-71823809D02*
X98731009Y-71490476D01*
X99254819Y-71347619D02*
X99254819Y-71823809D01*
X99254819Y-71823809D02*
X98254819Y-71823809D01*
X98254819Y-71823809D02*
X98254819Y-71347619D01*
X99207200Y-70966666D02*
X99254819Y-70823809D01*
X99254819Y-70823809D02*
X99254819Y-70585714D01*
X99254819Y-70585714D02*
X99207200Y-70490476D01*
X99207200Y-70490476D02*
X99159580Y-70442857D01*
X99159580Y-70442857D02*
X99064342Y-70395238D01*
X99064342Y-70395238D02*
X98969104Y-70395238D01*
X98969104Y-70395238D02*
X98873866Y-70442857D01*
X98873866Y-70442857D02*
X98826247Y-70490476D01*
X98826247Y-70490476D02*
X98778628Y-70585714D01*
X98778628Y-70585714D02*
X98731009Y-70776190D01*
X98731009Y-70776190D02*
X98683390Y-70871428D01*
X98683390Y-70871428D02*
X98635771Y-70919047D01*
X98635771Y-70919047D02*
X98540533Y-70966666D01*
X98540533Y-70966666D02*
X98445295Y-70966666D01*
X98445295Y-70966666D02*
X98350057Y-70919047D01*
X98350057Y-70919047D02*
X98302438Y-70871428D01*
X98302438Y-70871428D02*
X98254819Y-70776190D01*
X98254819Y-70776190D02*
X98254819Y-70538095D01*
X98254819Y-70538095D02*
X98302438Y-70395238D01*
X98731009Y-69966666D02*
X98731009Y-69633333D01*
X99254819Y-69490476D02*
X99254819Y-69966666D01*
X99254819Y-69966666D02*
X98254819Y-69966666D01*
X98254819Y-69966666D02*
X98254819Y-69490476D01*
X98254819Y-69204761D02*
X98254819Y-68633333D01*
X99254819Y-68919047D02*
X98254819Y-68919047D01*
X105559580Y-111476190D02*
X105607200Y-111523809D01*
X105607200Y-111523809D02*
X105654819Y-111666666D01*
X105654819Y-111666666D02*
X105654819Y-111761904D01*
X105654819Y-111761904D02*
X105607200Y-111904761D01*
X105607200Y-111904761D02*
X105511961Y-111999999D01*
X105511961Y-111999999D02*
X105416723Y-112047618D01*
X105416723Y-112047618D02*
X105226247Y-112095237D01*
X105226247Y-112095237D02*
X105083390Y-112095237D01*
X105083390Y-112095237D02*
X104892914Y-112047618D01*
X104892914Y-112047618D02*
X104797676Y-111999999D01*
X104797676Y-111999999D02*
X104702438Y-111904761D01*
X104702438Y-111904761D02*
X104654819Y-111761904D01*
X104654819Y-111761904D02*
X104654819Y-111666666D01*
X104654819Y-111666666D02*
X104702438Y-111523809D01*
X104702438Y-111523809D02*
X104750057Y-111476190D01*
X105654819Y-110571428D02*
X105654819Y-111047618D01*
X105654819Y-111047618D02*
X104654819Y-111047618D01*
X105131009Y-110238094D02*
X105131009Y-109904761D01*
X105654819Y-109761904D02*
X105654819Y-110238094D01*
X105654819Y-110238094D02*
X104654819Y-110238094D01*
X104654819Y-110238094D02*
X104654819Y-109761904D01*
X105369104Y-109380951D02*
X105369104Y-108904761D01*
X105654819Y-109476189D02*
X104654819Y-109142856D01*
X104654819Y-109142856D02*
X105654819Y-108809523D01*
X105654819Y-107904761D02*
X105178628Y-108238094D01*
X105654819Y-108476189D02*
X104654819Y-108476189D01*
X104654819Y-108476189D02*
X104654819Y-108095237D01*
X104654819Y-108095237D02*
X104702438Y-107999999D01*
X104702438Y-107999999D02*
X104750057Y-107952380D01*
X104750057Y-107952380D02*
X104845295Y-107904761D01*
X104845295Y-107904761D02*
X104988152Y-107904761D01*
X104988152Y-107904761D02*
X105083390Y-107952380D01*
X105083390Y-107952380D02*
X105131009Y-107999999D01*
X105131009Y-107999999D02*
X105178628Y-108095237D01*
X105178628Y-108095237D02*
X105178628Y-108476189D01*
X135954819Y-72619047D02*
X134954819Y-72619047D01*
X134954819Y-72619047D02*
X134954819Y-72238095D01*
X134954819Y-72238095D02*
X135002438Y-72142857D01*
X135002438Y-72142857D02*
X135050057Y-72095238D01*
X135050057Y-72095238D02*
X135145295Y-72047619D01*
X135145295Y-72047619D02*
X135288152Y-72047619D01*
X135288152Y-72047619D02*
X135383390Y-72095238D01*
X135383390Y-72095238D02*
X135431009Y-72142857D01*
X135431009Y-72142857D02*
X135478628Y-72238095D01*
X135478628Y-72238095D02*
X135478628Y-72619047D01*
X135859580Y-71047619D02*
X135907200Y-71095238D01*
X135907200Y-71095238D02*
X135954819Y-71238095D01*
X135954819Y-71238095D02*
X135954819Y-71333333D01*
X135954819Y-71333333D02*
X135907200Y-71476190D01*
X135907200Y-71476190D02*
X135811961Y-71571428D01*
X135811961Y-71571428D02*
X135716723Y-71619047D01*
X135716723Y-71619047D02*
X135526247Y-71666666D01*
X135526247Y-71666666D02*
X135383390Y-71666666D01*
X135383390Y-71666666D02*
X135192914Y-71619047D01*
X135192914Y-71619047D02*
X135097676Y-71571428D01*
X135097676Y-71571428D02*
X135002438Y-71476190D01*
X135002438Y-71476190D02*
X134954819Y-71333333D01*
X134954819Y-71333333D02*
X134954819Y-71238095D01*
X134954819Y-71238095D02*
X135002438Y-71095238D01*
X135002438Y-71095238D02*
X135050057Y-71047619D01*
X135431009Y-70285714D02*
X135478628Y-70142857D01*
X135478628Y-70142857D02*
X135526247Y-70095238D01*
X135526247Y-70095238D02*
X135621485Y-70047619D01*
X135621485Y-70047619D02*
X135764342Y-70047619D01*
X135764342Y-70047619D02*
X135859580Y-70095238D01*
X135859580Y-70095238D02*
X135907200Y-70142857D01*
X135907200Y-70142857D02*
X135954819Y-70238095D01*
X135954819Y-70238095D02*
X135954819Y-70619047D01*
X135954819Y-70619047D02*
X134954819Y-70619047D01*
X134954819Y-70619047D02*
X134954819Y-70285714D01*
X134954819Y-70285714D02*
X135002438Y-70190476D01*
X135002438Y-70190476D02*
X135050057Y-70142857D01*
X135050057Y-70142857D02*
X135145295Y-70095238D01*
X135145295Y-70095238D02*
X135240533Y-70095238D01*
X135240533Y-70095238D02*
X135335771Y-70142857D01*
X135335771Y-70142857D02*
X135383390Y-70190476D01*
X135383390Y-70190476D02*
X135431009Y-70285714D01*
X135431009Y-70285714D02*
X135431009Y-70619047D01*
X135573866Y-69619047D02*
X135573866Y-68857143D01*
X134954819Y-68190476D02*
X134954819Y-68095238D01*
X134954819Y-68095238D02*
X135002438Y-68000000D01*
X135002438Y-68000000D02*
X135050057Y-67952381D01*
X135050057Y-67952381D02*
X135145295Y-67904762D01*
X135145295Y-67904762D02*
X135335771Y-67857143D01*
X135335771Y-67857143D02*
X135573866Y-67857143D01*
X135573866Y-67857143D02*
X135764342Y-67904762D01*
X135764342Y-67904762D02*
X135859580Y-67952381D01*
X135859580Y-67952381D02*
X135907200Y-68000000D01*
X135907200Y-68000000D02*
X135954819Y-68095238D01*
X135954819Y-68095238D02*
X135954819Y-68190476D01*
X135954819Y-68190476D02*
X135907200Y-68285714D01*
X135907200Y-68285714D02*
X135859580Y-68333333D01*
X135859580Y-68333333D02*
X135764342Y-68380952D01*
X135764342Y-68380952D02*
X135573866Y-68428571D01*
X135573866Y-68428571D02*
X135335771Y-68428571D01*
X135335771Y-68428571D02*
X135145295Y-68380952D01*
X135145295Y-68380952D02*
X135050057Y-68333333D01*
X135050057Y-68333333D02*
X135002438Y-68285714D01*
X135002438Y-68285714D02*
X134954819Y-68190476D01*
X135954819Y-66904762D02*
X135954819Y-67476190D01*
X135954819Y-67190476D02*
X134954819Y-67190476D01*
X134954819Y-67190476D02*
X135097676Y-67285714D01*
X135097676Y-67285714D02*
X135192914Y-67380952D01*
X135192914Y-67380952D02*
X135240533Y-67476190D01*
X134954819Y-65857142D02*
X135954819Y-65523809D01*
X135954819Y-65523809D02*
X134954819Y-65190476D01*
X135050057Y-64904761D02*
X135002438Y-64857142D01*
X135002438Y-64857142D02*
X134954819Y-64761904D01*
X134954819Y-64761904D02*
X134954819Y-64523809D01*
X134954819Y-64523809D02*
X135002438Y-64428571D01*
X135002438Y-64428571D02*
X135050057Y-64380952D01*
X135050057Y-64380952D02*
X135145295Y-64333333D01*
X135145295Y-64333333D02*
X135240533Y-64333333D01*
X135240533Y-64333333D02*
X135383390Y-64380952D01*
X135383390Y-64380952D02*
X135954819Y-64952380D01*
X135954819Y-64952380D02*
X135954819Y-64333333D01*
X135864132Y-81571428D02*
X135864132Y-81095238D01*
X136149847Y-81666666D02*
X135149847Y-81333333D01*
X135149847Y-81333333D02*
X136149847Y-81000000D01*
X136149847Y-80666666D02*
X135149847Y-80666666D01*
X135149847Y-80666666D02*
X136149847Y-80095238D01*
X136149847Y-80095238D02*
X135149847Y-80095238D01*
X135149847Y-79761904D02*
X135149847Y-79190476D01*
X136149847Y-79476190D02*
X135149847Y-79476190D01*
X135626037Y-78857142D02*
X135626037Y-78523809D01*
X136149847Y-78380952D02*
X136149847Y-78857142D01*
X136149847Y-78857142D02*
X135149847Y-78857142D01*
X135149847Y-78857142D02*
X135149847Y-78380952D01*
X136149847Y-77952380D02*
X135149847Y-77952380D01*
X135149847Y-77952380D02*
X136149847Y-77380952D01*
X136149847Y-77380952D02*
X135149847Y-77380952D01*
X136149847Y-76904761D02*
X135149847Y-76904761D01*
X135149847Y-76904761D02*
X136149847Y-76333333D01*
X136149847Y-76333333D02*
X135149847Y-76333333D01*
X135864132Y-75904761D02*
X135864132Y-75428571D01*
X136149847Y-75999999D02*
X135149847Y-75666666D01*
X135149847Y-75666666D02*
X136149847Y-75333333D01*
X137759791Y-82833333D02*
X136759791Y-82833333D01*
X137759791Y-82261905D02*
X137188362Y-82690476D01*
X136759791Y-82261905D02*
X137331219Y-82833333D01*
X137235981Y-81833333D02*
X137235981Y-81500000D01*
X137759791Y-81357143D02*
X137759791Y-81833333D01*
X137759791Y-81833333D02*
X136759791Y-81833333D01*
X136759791Y-81833333D02*
X136759791Y-81357143D01*
X137235981Y-80928571D02*
X137235981Y-80595238D01*
X137759791Y-80452381D02*
X137759791Y-80928571D01*
X137759791Y-80928571D02*
X136759791Y-80928571D01*
X136759791Y-80928571D02*
X136759791Y-80452381D01*
X137759791Y-80023809D02*
X136759791Y-80023809D01*
X136759791Y-80023809D02*
X136759791Y-79642857D01*
X136759791Y-79642857D02*
X136807410Y-79547619D01*
X136807410Y-79547619D02*
X136855029Y-79500000D01*
X136855029Y-79500000D02*
X136950267Y-79452381D01*
X136950267Y-79452381D02*
X137093124Y-79452381D01*
X137093124Y-79452381D02*
X137188362Y-79500000D01*
X137188362Y-79500000D02*
X137235981Y-79547619D01*
X137235981Y-79547619D02*
X137283600Y-79642857D01*
X137283600Y-79642857D02*
X137283600Y-80023809D01*
X137664552Y-77690476D02*
X137712172Y-77738095D01*
X137712172Y-77738095D02*
X137759791Y-77880952D01*
X137759791Y-77880952D02*
X137759791Y-77976190D01*
X137759791Y-77976190D02*
X137712172Y-78119047D01*
X137712172Y-78119047D02*
X137616933Y-78214285D01*
X137616933Y-78214285D02*
X137521695Y-78261904D01*
X137521695Y-78261904D02*
X137331219Y-78309523D01*
X137331219Y-78309523D02*
X137188362Y-78309523D01*
X137188362Y-78309523D02*
X136997886Y-78261904D01*
X136997886Y-78261904D02*
X136902648Y-78214285D01*
X136902648Y-78214285D02*
X136807410Y-78119047D01*
X136807410Y-78119047D02*
X136759791Y-77976190D01*
X136759791Y-77976190D02*
X136759791Y-77880952D01*
X136759791Y-77880952D02*
X136807410Y-77738095D01*
X136807410Y-77738095D02*
X136855029Y-77690476D01*
X137759791Y-76785714D02*
X137759791Y-77261904D01*
X137759791Y-77261904D02*
X136759791Y-77261904D01*
X137235981Y-76452380D02*
X137235981Y-76119047D01*
X137759791Y-75976190D02*
X137759791Y-76452380D01*
X137759791Y-76452380D02*
X136759791Y-76452380D01*
X136759791Y-76452380D02*
X136759791Y-75976190D01*
X137474076Y-75595237D02*
X137474076Y-75119047D01*
X137759791Y-75690475D02*
X136759791Y-75357142D01*
X136759791Y-75357142D02*
X137759791Y-75023809D01*
X137759791Y-74119047D02*
X137283600Y-74452380D01*
X137759791Y-74690475D02*
X136759791Y-74690475D01*
X136759791Y-74690475D02*
X136759791Y-74309523D01*
X136759791Y-74309523D02*
X136807410Y-74214285D01*
X136807410Y-74214285D02*
X136855029Y-74166666D01*
X136855029Y-74166666D02*
X136950267Y-74119047D01*
X136950267Y-74119047D02*
X137093124Y-74119047D01*
X137093124Y-74119047D02*
X137188362Y-74166666D01*
X137188362Y-74166666D02*
X137235981Y-74214285D01*
X137235981Y-74214285D02*
X137283600Y-74309523D01*
X137283600Y-74309523D02*
X137283600Y-74690475D01*
X83048095Y-98054819D02*
X83048095Y-98864342D01*
X83048095Y-98864342D02*
X83095714Y-98959580D01*
X83095714Y-98959580D02*
X83143333Y-99007200D01*
X83143333Y-99007200D02*
X83238571Y-99054819D01*
X83238571Y-99054819D02*
X83429047Y-99054819D01*
X83429047Y-99054819D02*
X83524285Y-99007200D01*
X83524285Y-99007200D02*
X83571904Y-98959580D01*
X83571904Y-98959580D02*
X83619523Y-98864342D01*
X83619523Y-98864342D02*
X83619523Y-98054819D01*
X84619523Y-99054819D02*
X84048095Y-99054819D01*
X84333809Y-99054819D02*
X84333809Y-98054819D01*
X84333809Y-98054819D02*
X84238571Y-98197676D01*
X84238571Y-98197676D02*
X84143333Y-98292914D01*
X84143333Y-98292914D02*
X84048095Y-98340533D01*
X128669819Y-75761904D02*
X129479342Y-75761904D01*
X129479342Y-75761904D02*
X129574580Y-75714285D01*
X129574580Y-75714285D02*
X129622200Y-75666666D01*
X129622200Y-75666666D02*
X129669819Y-75571428D01*
X129669819Y-75571428D02*
X129669819Y-75380952D01*
X129669819Y-75380952D02*
X129622200Y-75285714D01*
X129622200Y-75285714D02*
X129574580Y-75238095D01*
X129574580Y-75238095D02*
X129479342Y-75190476D01*
X129479342Y-75190476D02*
X128669819Y-75190476D01*
X128765057Y-74761904D02*
X128717438Y-74714285D01*
X128717438Y-74714285D02*
X128669819Y-74619047D01*
X128669819Y-74619047D02*
X128669819Y-74380952D01*
X128669819Y-74380952D02*
X128717438Y-74285714D01*
X128717438Y-74285714D02*
X128765057Y-74238095D01*
X128765057Y-74238095D02*
X128860295Y-74190476D01*
X128860295Y-74190476D02*
X128955533Y-74190476D01*
X128955533Y-74190476D02*
X129098390Y-74238095D01*
X129098390Y-74238095D02*
X129669819Y-74809523D01*
X129669819Y-74809523D02*
X129669819Y-74190476D01*
X84738095Y-57754819D02*
X84738095Y-58564342D01*
X84738095Y-58564342D02*
X84785714Y-58659580D01*
X84785714Y-58659580D02*
X84833333Y-58707200D01*
X84833333Y-58707200D02*
X84928571Y-58754819D01*
X84928571Y-58754819D02*
X85119047Y-58754819D01*
X85119047Y-58754819D02*
X85214285Y-58707200D01*
X85214285Y-58707200D02*
X85261904Y-58659580D01*
X85261904Y-58659580D02*
X85309523Y-58564342D01*
X85309523Y-58564342D02*
X85309523Y-57754819D01*
X85690476Y-57754819D02*
X86309523Y-57754819D01*
X86309523Y-57754819D02*
X85976190Y-58135771D01*
X85976190Y-58135771D02*
X86119047Y-58135771D01*
X86119047Y-58135771D02*
X86214285Y-58183390D01*
X86214285Y-58183390D02*
X86261904Y-58231009D01*
X86261904Y-58231009D02*
X86309523Y-58326247D01*
X86309523Y-58326247D02*
X86309523Y-58564342D01*
X86309523Y-58564342D02*
X86261904Y-58659580D01*
X86261904Y-58659580D02*
X86214285Y-58707200D01*
X86214285Y-58707200D02*
X86119047Y-58754819D01*
X86119047Y-58754819D02*
X85833333Y-58754819D01*
X85833333Y-58754819D02*
X85738095Y-58707200D01*
X85738095Y-58707200D02*
X85690476Y-58659580D01*
G04 #@! TO.C,R58*
X110620000Y-64053641D02*
X110620000Y-63746359D01*
X111380000Y-64053641D02*
X111380000Y-63746359D01*
G04 #@! TO.C,U14*
X115350000Y-60500000D02*
X115350000Y-61050000D01*
X115350000Y-61050000D02*
X115550000Y-61050000D01*
X116650000Y-60500000D02*
X116650000Y-61050000D01*
X116650000Y-61050000D02*
X116450000Y-61050000D01*
X116760000Y-60070000D02*
X116760000Y-59790000D01*
X117040000Y-60070000D01*
X116760000Y-60070000D01*
G36*
X117040000Y-60070000D02*
G01*
X116760000Y-60070000D01*
X116760000Y-59790000D01*
X117040000Y-60070000D01*
G37*
G04 #@! TO.C,C44*
X109240000Y-64007836D02*
X109240000Y-63792164D01*
X109960000Y-64007836D02*
X109960000Y-63792164D01*
G04 #@! TO.C,H1*
X53250000Y-53250000D02*
X56750000Y-53250000D01*
X56750000Y-56750000D01*
X53250000Y-56750000D01*
X53250000Y-53250000D01*
D12*
X57262500Y-55000000D02*
G75*
G02*
X57037500Y-55000000I-112500J0D01*
G01*
X57037500Y-55000000D02*
G75*
G02*
X57262500Y-55000000I112500J0D01*
G01*
G04 #@! TO.C,R61*
D11*
X114970000Y-63353641D02*
X114970000Y-63046359D01*
X115730000Y-63353641D02*
X115730000Y-63046359D01*
G04 #@! TO.C,C45*
X113340000Y-64007836D02*
X113340000Y-63792164D01*
X114060000Y-64007836D02*
X114060000Y-63792164D01*
G04 #@! TO.C,R60*
X116270000Y-63353641D02*
X116270000Y-63046359D01*
X117030000Y-63353641D02*
X117030000Y-63046359D01*
G04 #@! TO.C,U2*
D12*
X127627500Y-64950000D02*
G75*
G02*
X127402500Y-64950000I-112500J0D01*
G01*
X127402500Y-64950000D02*
G75*
G02*
X127627500Y-64950000I112500J0D01*
G01*
G04 #@! TO.C,H4*
D11*
X131250000Y-107250000D02*
X134750000Y-107250000D01*
X134750000Y-110750000D01*
X131250000Y-110750000D01*
X131250000Y-107250000D01*
D12*
X135262500Y-109000000D02*
G75*
G02*
X135037500Y-109000000I-112500J0D01*
G01*
X135037500Y-109000000D02*
G75*
G02*
X135262500Y-109000000I112500J0D01*
G01*
G04 #@! TO.C,J4*
D11*
X107330000Y-53775000D02*
X107330000Y-55475000D01*
X116670000Y-53775000D02*
X116670000Y-55475000D01*
G04 #@! TO.C,U13*
X111350000Y-59950000D02*
X111550000Y-59950000D01*
X111350000Y-60500000D02*
X111350000Y-59950000D01*
X112650000Y-59950000D02*
X112450000Y-59950000D01*
X112650000Y-60500000D02*
X112650000Y-59950000D01*
X111240000Y-60930000D02*
X111240000Y-61210000D01*
X110960000Y-60930000D01*
X111240000Y-60930000D01*
G36*
X111240000Y-61210000D02*
G01*
X110960000Y-60930000D01*
X111240000Y-60930000D01*
X111240000Y-61210000D01*
G37*
G04 #@! TO.C,H3*
X53250000Y-107250000D02*
X56750000Y-107250000D01*
X56750000Y-110750000D01*
X53250000Y-110750000D01*
X53250000Y-107250000D01*
D12*
X57262500Y-109000000D02*
G75*
G02*
X57037500Y-109000000I-112500J0D01*
G01*
X57037500Y-109000000D02*
G75*
G02*
X57262500Y-109000000I112500J0D01*
G01*
G04 #@! TO.C,U3*
D11*
X83400000Y-59400000D02*
X87600000Y-59400000D01*
X87600000Y-64175000D01*
X83400000Y-64175000D01*
X83400000Y-59400000D01*
D12*
X84225000Y-59000000D02*
G75*
G02*
X84000000Y-59000000I-112500J0D01*
G01*
X84000000Y-59000000D02*
G75*
G02*
X84225000Y-59000000I112500J0D01*
G01*
G04 #@! TO.C,R59*
D11*
X111920000Y-64053641D02*
X111920000Y-63746359D01*
X112680000Y-64053641D02*
X112680000Y-63746359D01*
G04 #@! TO.C,H2*
X131250000Y-53250000D02*
X134750000Y-53250000D01*
X134750000Y-56750000D01*
X131250000Y-56750000D01*
X131250000Y-53250000D01*
D12*
X135262500Y-55000000D02*
G75*
G02*
X135037500Y-55000000I-112500J0D01*
G01*
X135037500Y-55000000D02*
G75*
G02*
X135262500Y-55000000I112500J0D01*
G01*
G04 #@! TD*
%LPC*%
D13*
G04 #@! TO.C,R58*
X111000000Y-64410000D03*
X111000000Y-63390000D03*
G04 #@! TD*
D14*
G04 #@! TO.C,R11*
X99990000Y-69000000D03*
X101010000Y-69000000D03*
G04 #@! TD*
D13*
G04 #@! TO.C,R38*
X104000000Y-91510000D03*
X104000000Y-90490000D03*
G04 #@! TD*
D15*
G04 #@! TO.C,D3*
X87850000Y-75000000D03*
X91150000Y-75000000D03*
G04 #@! TD*
D16*
G04 #@! TO.C,TP18*
X70000000Y-111500000D03*
G04 #@! TD*
D17*
G04 #@! TO.C,C2*
X71500000Y-64500000D03*
D18*
X76500000Y-64500000D03*
G04 #@! TD*
D13*
G04 #@! TO.C,R25*
X96000000Y-86510000D03*
X96000000Y-85490000D03*
G04 #@! TD*
D19*
G04 #@! TO.C,C30*
X108025000Y-98800000D03*
X109575000Y-98800000D03*
G04 #@! TD*
D20*
G04 #@! TO.C,C41*
X132820000Y-100200000D03*
X133780000Y-100200000D03*
G04 #@! TD*
D16*
G04 #@! TO.C,TP10*
X61500000Y-53000000D03*
G04 #@! TD*
D14*
G04 #@! TO.C,R8*
X88490000Y-87000000D03*
X89510000Y-87000000D03*
G04 #@! TD*
D21*
G04 #@! TO.C,U14*
X116350000Y-60075000D03*
X115650000Y-60075000D03*
X116000000Y-60925000D03*
G04 #@! TD*
D16*
G04 #@! TO.C,TP15*
X136000000Y-94000000D03*
G04 #@! TD*
D14*
G04 #@! TO.C,R18*
X104490000Y-76500000D03*
X105510000Y-76500000D03*
G04 #@! TD*
D22*
G04 #@! TO.C,U11*
X100162500Y-101350000D03*
X100162500Y-102000000D03*
X100162500Y-102650000D03*
X101837500Y-102650000D03*
X101837500Y-101350000D03*
G04 #@! TD*
D15*
G04 #@! TO.C,D8*
X104350000Y-82000000D03*
X107650000Y-82000000D03*
G04 #@! TD*
D14*
G04 #@! TO.C,R20*
X100490000Y-59500000D03*
X101510000Y-59500000D03*
G04 #@! TD*
D23*
G04 #@! TO.C,C10*
X89525000Y-63000000D03*
X92475000Y-63000000D03*
G04 #@! TD*
D24*
G04 #@! TO.C,C44*
X109600000Y-64380000D03*
X109600000Y-63420000D03*
G04 #@! TD*
D16*
G04 #@! TO.C,TP20*
X77000000Y-111500000D03*
G04 #@! TD*
D14*
G04 #@! TO.C,R15*
X90190000Y-81000000D03*
X91210000Y-81000000D03*
G04 #@! TD*
D25*
G04 #@! TO.C,C23*
X103050000Y-85000000D03*
X104950000Y-85000000D03*
G04 #@! TD*
D16*
G04 #@! TO.C,TP4*
X52000000Y-89000000D03*
G04 #@! TD*
D23*
G04 #@! TO.C,C7*
X75025000Y-57500000D03*
X77975000Y-57500000D03*
G04 #@! TD*
D26*
G04 #@! TO.C,Q3*
X114050000Y-89437500D03*
X115950000Y-89437500D03*
X115000000Y-87562500D03*
G04 #@! TD*
D27*
G04 #@! TO.C,C12*
X77500000Y-92025000D03*
X77500000Y-93575000D03*
G04 #@! TD*
D14*
G04 #@! TO.C,R46*
X107490000Y-93000000D03*
X108510000Y-93000000D03*
G04 #@! TD*
G04 #@! TO.C,R47*
X109490000Y-93000000D03*
X110510000Y-93000000D03*
G04 #@! TD*
D24*
G04 #@! TO.C,C42*
X99200000Y-81980000D03*
X99200000Y-81020000D03*
G04 #@! TD*
D16*
G04 #@! TO.C,TP5*
X52000000Y-93000000D03*
G04 #@! TD*
D24*
G04 #@! TO.C,C31*
X112500000Y-101480000D03*
X112500000Y-100520000D03*
G04 #@! TD*
D19*
G04 #@! TO.C,C14*
X87625000Y-93750000D03*
X89175000Y-93750000D03*
G04 #@! TD*
D24*
G04 #@! TO.C,C22*
X97500000Y-99480000D03*
X97500000Y-98520000D03*
G04 #@! TD*
D14*
G04 #@! TO.C,R12*
X104990000Y-69000000D03*
X106010000Y-69000000D03*
G04 #@! TD*
G04 #@! TO.C,R51*
X120490000Y-105000000D03*
X121510000Y-105000000D03*
G04 #@! TD*
D16*
G04 #@! TO.C,TP7*
X62000000Y-111500000D03*
G04 #@! TD*
D14*
G04 #@! TO.C,R5*
X86690000Y-77000000D03*
X87710000Y-77000000D03*
G04 #@! TD*
D24*
G04 #@! TO.C,C43*
X106200000Y-87680000D03*
X106200000Y-86720000D03*
G04 #@! TD*
D14*
G04 #@! TO.C,R41*
X110390000Y-101000000D03*
X111410000Y-101000000D03*
G04 #@! TD*
D28*
G04 #@! TO.C,H1*
X55000000Y-55000000D03*
G04 #@! TD*
D22*
G04 #@! TO.C,U10*
X93162500Y-101350000D03*
X93162500Y-102000000D03*
X93162500Y-102650000D03*
X94837500Y-102650000D03*
X94837500Y-101350000D03*
G04 #@! TD*
D14*
G04 #@! TO.C,R14*
X87990000Y-81000000D03*
X89010000Y-81000000D03*
G04 #@! TD*
G04 #@! TO.C,R33*
X98490000Y-93000000D03*
X99510000Y-93000000D03*
G04 #@! TD*
D25*
G04 #@! TO.C,C8*
X80050000Y-61000000D03*
X81950000Y-61000000D03*
G04 #@! TD*
D29*
G04 #@! TO.C,U12*
X97887500Y-55525000D03*
X97887500Y-56175000D03*
X97887500Y-56825000D03*
X97887500Y-57475000D03*
X102112500Y-57475000D03*
X102112500Y-56825000D03*
X102112500Y-56175000D03*
X102112500Y-55525000D03*
G04 #@! TD*
D30*
G04 #@! TO.C,SW3*
X95520000Y-107750000D03*
X103480000Y-107750000D03*
X95520000Y-112250000D03*
X103480000Y-112250000D03*
G04 #@! TD*
D17*
G04 #@! TO.C,C1*
X58500000Y-64500000D03*
D18*
X63500000Y-64500000D03*
G04 #@! TD*
D31*
G04 #@! TO.C,U1*
X81600000Y-91250000D03*
X81600000Y-91750000D03*
X81600000Y-92250000D03*
X81600000Y-92750000D03*
X81600000Y-93250000D03*
X81600000Y-93750000D03*
X81600000Y-94250000D03*
X81600000Y-94750000D03*
X81600000Y-95250000D03*
X81600000Y-95750000D03*
X81600000Y-96250000D03*
X81600000Y-96750000D03*
D32*
X82250000Y-97400000D03*
X82750000Y-97400000D03*
X83250000Y-97400000D03*
X83750000Y-97400000D03*
X84250000Y-97400000D03*
X84750000Y-97400000D03*
X85250000Y-97400000D03*
X85750000Y-97400000D03*
D31*
X86400000Y-96750000D03*
X86400000Y-96250000D03*
X86400000Y-95750000D03*
X86400000Y-95250000D03*
X86400000Y-94750000D03*
X86400000Y-94250000D03*
X86400000Y-93750000D03*
X86400000Y-93250000D03*
X86400000Y-92750000D03*
X86400000Y-92250000D03*
X86400000Y-91750000D03*
X86400000Y-91250000D03*
D32*
X85750000Y-90600000D03*
X85250000Y-90600000D03*
X84750000Y-90600000D03*
X84250000Y-90600000D03*
X83750000Y-90600000D03*
X83250000Y-90600000D03*
X82750000Y-90600000D03*
X82250000Y-90600000D03*
D33*
X84000000Y-94000000D03*
G04 #@! TD*
D13*
G04 #@! TO.C,R30*
X93000000Y-96510000D03*
X93000000Y-95490000D03*
G04 #@! TD*
D14*
G04 #@! TO.C,R44*
X107490000Y-91000000D03*
X108510000Y-91000000D03*
G04 #@! TD*
G04 #@! TO.C,R37*
X98490000Y-97000000D03*
X99510000Y-97000000D03*
G04 #@! TD*
D16*
G04 #@! TO.C,TP21*
X136000000Y-98000000D03*
G04 #@! TD*
D34*
G04 #@! TO.C,R39*
X106937500Y-108550000D03*
X112862500Y-108550000D03*
G04 #@! TD*
D14*
G04 #@! TO.C,R3*
X90490000Y-65800000D03*
X91510000Y-65800000D03*
G04 #@! TD*
D16*
G04 #@! TO.C,TP14*
X77000000Y-53000000D03*
G04 #@! TD*
D14*
G04 #@! TO.C,R35*
X98490000Y-95000000D03*
X99510000Y-95000000D03*
G04 #@! TD*
D19*
G04 #@! TO.C,C33*
X125525000Y-96000000D03*
X127075000Y-96000000D03*
G04 #@! TD*
D16*
G04 #@! TO.C,TP12*
X69000000Y-53000000D03*
G04 #@! TD*
D13*
G04 #@! TO.C,R61*
X115350000Y-63710000D03*
X115350000Y-62690000D03*
G04 #@! TD*
D14*
G04 #@! TO.C,R4*
X84490000Y-77000000D03*
X85510000Y-77000000D03*
G04 #@! TD*
D35*
G04 #@! TO.C,C3*
X77000000Y-99025000D03*
X77000000Y-101975000D03*
G04 #@! TD*
D14*
G04 #@! TO.C,R10*
X92490000Y-88500000D03*
X93510000Y-88500000D03*
G04 #@! TD*
G04 #@! TO.C,R52*
X122490000Y-105000000D03*
X123510000Y-105000000D03*
G04 #@! TD*
D16*
G04 #@! TO.C,TP25*
X79000000Y-73500000D03*
G04 #@! TD*
G04 #@! TO.C,TP29*
X58500000Y-92000000D03*
G04 #@! TD*
G04 #@! TO.C,TP31*
X98000000Y-53000000D03*
G04 #@! TD*
D36*
G04 #@! TO.C,C34*
X115000000Y-95275000D03*
X115000000Y-92325000D03*
G04 #@! TD*
D16*
G04 #@! TO.C,TP9*
X85000000Y-53000000D03*
G04 #@! TD*
D37*
G04 #@! TO.C,C26*
X116000000Y-106975000D03*
X116000000Y-104025000D03*
G04 #@! TD*
D14*
G04 #@! TO.C,R17*
X90190000Y-83000000D03*
X91210000Y-83000000D03*
G04 #@! TD*
D19*
G04 #@! TO.C,C15*
X82825000Y-88300000D03*
X84375000Y-88300000D03*
G04 #@! TD*
D16*
G04 #@! TO.C,TP17*
X69500000Y-106500000D03*
G04 #@! TD*
D24*
G04 #@! TO.C,C45*
X113700000Y-64380000D03*
X113700000Y-63420000D03*
G04 #@! TD*
D13*
G04 #@! TO.C,R60*
X116650000Y-63710000D03*
X116650000Y-62690000D03*
G04 #@! TD*
D16*
G04 #@! TO.C,TP26*
X75000000Y-73500000D03*
G04 #@! TD*
D14*
G04 #@! TO.C,R49*
X122490000Y-103000000D03*
X123510000Y-103000000D03*
G04 #@! TD*
D38*
G04 #@! TO.C,Q1*
X64200000Y-80150000D03*
X66500000Y-80150000D03*
D39*
X66500000Y-73850000D03*
D38*
X68800000Y-80150000D03*
G04 #@! TD*
D15*
G04 #@! TO.C,D6*
X92350000Y-78500000D03*
X95650000Y-78500000D03*
G04 #@! TD*
D40*
G04 #@! TO.C,C11*
X84000000Y-58275000D03*
X84000000Y-56725000D03*
G04 #@! TD*
D41*
G04 #@! TO.C,U2*
X127515000Y-66250000D03*
D42*
X126245000Y-66250000D03*
X124975000Y-66250000D03*
X123705000Y-66250000D03*
X122435000Y-66250000D03*
X121165000Y-66250000D03*
X119895000Y-66250000D03*
X118625000Y-66250000D03*
X117355000Y-66250000D03*
X116085000Y-66250000D03*
X114815000Y-66250000D03*
X113545000Y-66250000D03*
X112275000Y-66250000D03*
X111005000Y-66250000D03*
X111005000Y-83750000D03*
X112275000Y-83750000D03*
X113545000Y-83750000D03*
X114815000Y-83750000D03*
X116085000Y-83750000D03*
X117355000Y-83750000D03*
X118625000Y-83750000D03*
X119895000Y-83750000D03*
X121165000Y-83750000D03*
X122435000Y-83750000D03*
X123705000Y-83750000D03*
X124975000Y-83750000D03*
X126245000Y-83750000D03*
X127515000Y-83750000D03*
D43*
X123045000Y-72495000D03*
X121795000Y-72495000D03*
X120545000Y-72495000D03*
X123045000Y-73745000D03*
X121795000Y-73745000D03*
X120545000Y-73745000D03*
X123045000Y-74995000D03*
X121795000Y-74995000D03*
X120545000Y-74995000D03*
G04 #@! TD*
D20*
G04 #@! TO.C,C20*
X103720000Y-56800000D03*
X104680000Y-56800000D03*
G04 #@! TD*
D18*
G04 #@! TO.C,FID3*
X63000000Y-103000000D03*
G04 #@! TD*
D14*
G04 #@! TO.C,R54*
X126490000Y-107000000D03*
X127510000Y-107000000D03*
G04 #@! TD*
D44*
G04 #@! TO.C,RV1*
X131250000Y-87050000D03*
D45*
X130000000Y-89950000D03*
D44*
X128750000Y-87050000D03*
G04 #@! TD*
D30*
G04 #@! TO.C,SW1*
X89020000Y-67950000D03*
X96980000Y-67950000D03*
X89020000Y-72450000D03*
X96980000Y-72450000D03*
G04 #@! TD*
D14*
G04 #@! TO.C,R32*
X96490000Y-93000000D03*
X97510000Y-93000000D03*
G04 #@! TD*
G04 #@! TO.C,R6*
X84490000Y-79000000D03*
X85510000Y-79000000D03*
G04 #@! TD*
D18*
G04 #@! TO.C,FID2*
X134150000Y-62000000D03*
G04 #@! TD*
D14*
G04 #@! TO.C,R53*
X124490000Y-105000000D03*
X125510000Y-105000000D03*
G04 #@! TD*
D16*
G04 #@! TO.C,TP28*
X58500000Y-96000000D03*
G04 #@! TD*
D46*
G04 #@! TO.C,J1*
X52180000Y-77000000D03*
D47*
X56500000Y-77000000D03*
D48*
X59500000Y-77000000D03*
G04 #@! TD*
D20*
G04 #@! TO.C,C25*
X104820000Y-95700000D03*
X105780000Y-95700000D03*
G04 #@! TD*
D28*
G04 #@! TO.C,H4*
X133000000Y-109000000D03*
G04 #@! TD*
D14*
G04 #@! TO.C,R50*
X124490000Y-103000000D03*
X125510000Y-103000000D03*
G04 #@! TD*
G04 #@! TO.C,R16*
X87990000Y-83000000D03*
X89010000Y-83000000D03*
G04 #@! TD*
D25*
G04 #@! TO.C,C27*
X114150000Y-101000000D03*
X116050000Y-101000000D03*
G04 #@! TD*
D49*
G04 #@! TO.C,U6*
X100100000Y-87025000D03*
X100100000Y-87675000D03*
X100100000Y-88325000D03*
X100100000Y-88975000D03*
X103900000Y-88975000D03*
X103900000Y-88325000D03*
X103900000Y-87675000D03*
X103900000Y-87025000D03*
G04 #@! TD*
D13*
G04 #@! TO.C,R31*
X95000000Y-96510000D03*
X95000000Y-95490000D03*
G04 #@! TD*
D16*
G04 #@! TO.C,TP30*
X94000000Y-53000000D03*
G04 #@! TD*
G04 #@! TO.C,TP13*
X73000000Y-53000000D03*
G04 #@! TD*
D14*
G04 #@! TO.C,R28*
X88490000Y-97500000D03*
X89510000Y-97500000D03*
G04 #@! TD*
G04 #@! TO.C,R36*
X96490000Y-97000000D03*
X97510000Y-97000000D03*
G04 #@! TD*
D16*
G04 #@! TO.C,TP6*
X136000000Y-88000000D03*
G04 #@! TD*
D14*
G04 #@! TO.C,R48*
X120490000Y-103000000D03*
X121510000Y-103000000D03*
G04 #@! TD*
D16*
G04 #@! TO.C,TP11*
X65000000Y-53000000D03*
G04 #@! TD*
D14*
G04 #@! TO.C,R40*
X108290000Y-101000000D03*
X109310000Y-101000000D03*
G04 #@! TD*
D13*
G04 #@! TO.C,R29*
X91000000Y-96510000D03*
X91000000Y-95490000D03*
G04 #@! TD*
D18*
G04 #@! TO.C,FID1*
X125000000Y-53850000D03*
G04 #@! TD*
D14*
G04 #@! TO.C,R9*
X90490000Y-87000000D03*
X91510000Y-87000000D03*
G04 #@! TD*
D16*
G04 #@! TO.C,TP27*
X52000000Y-97000000D03*
G04 #@! TD*
G04 #@! TO.C,TP2*
X52000000Y-66000000D03*
G04 #@! TD*
D50*
G04 #@! TO.C,C13*
X81050000Y-89150000D03*
X79150000Y-89150000D03*
G04 #@! TD*
D35*
G04 #@! TO.C,C28*
X105800000Y-101025000D03*
X105800000Y-103975000D03*
G04 #@! TD*
D51*
G04 #@! TO.C,U8*
X118525000Y-92190000D03*
X118525000Y-93460000D03*
X118525000Y-94730000D03*
X118525000Y-96000000D03*
X118525000Y-97270000D03*
X118525000Y-98540000D03*
X118525000Y-99810000D03*
X123475000Y-99810000D03*
X123475000Y-98540000D03*
X123475000Y-97270000D03*
X123475000Y-96000000D03*
X123475000Y-94730000D03*
X123475000Y-93460000D03*
X123475000Y-92190000D03*
G04 #@! TD*
D14*
G04 #@! TO.C,R1*
X59990000Y-83500000D03*
X61010000Y-83500000D03*
G04 #@! TD*
D24*
G04 #@! TO.C,C18*
X123000000Y-64280000D03*
X123000000Y-63320000D03*
G04 #@! TD*
D52*
G04 #@! TO.C,L1*
X74850000Y-94000000D03*
X70350000Y-94000000D03*
G04 #@! TD*
D15*
G04 #@! TO.C,D7*
X88350000Y-85000000D03*
X91650000Y-85000000D03*
G04 #@! TD*
D53*
G04 #@! TO.C,U4*
X108850000Y-103025000D03*
X108850000Y-103675000D03*
X108850000Y-104325000D03*
X108850000Y-104975000D03*
X113150000Y-104975000D03*
X113150000Y-104325000D03*
X113150000Y-103675000D03*
X113150000Y-103025000D03*
D54*
X111000000Y-104000000D03*
G04 #@! TD*
D55*
G04 #@! TO.C,D9*
X109062500Y-95050000D03*
X109062500Y-96950000D03*
X110937500Y-96000000D03*
G04 #@! TD*
D49*
G04 #@! TO.C,U5*
X94100000Y-81025000D03*
X94100000Y-81675000D03*
X94100000Y-82325000D03*
X94100000Y-82975000D03*
X97900000Y-82975000D03*
X97900000Y-82325000D03*
X97900000Y-81675000D03*
X97900000Y-81025000D03*
G04 #@! TD*
D14*
G04 #@! TO.C,R34*
X96490000Y-95000000D03*
X97510000Y-95000000D03*
G04 #@! TD*
G04 #@! TO.C,R7*
X86690000Y-79000000D03*
X87710000Y-79000000D03*
G04 #@! TD*
D56*
G04 #@! TO.C,J3*
X118000000Y-110500000D03*
D57*
X120000000Y-110500000D03*
X122000000Y-110500000D03*
G04 #@! TD*
D58*
G04 #@! TO.C,C35*
X116000000Y-98950000D03*
X116000000Y-97050000D03*
G04 #@! TD*
D14*
G04 #@! TO.C,R42*
X107490000Y-89000000D03*
X108510000Y-89000000D03*
G04 #@! TD*
D59*
G04 #@! TO.C,J4*
X114890000Y-56280000D03*
X109110000Y-56280000D03*
D60*
X115200000Y-57355000D03*
X114400000Y-57355000D03*
D61*
X113250000Y-57355000D03*
X112250000Y-57355000D03*
X111750000Y-57355000D03*
X110750000Y-57355000D03*
D60*
X109600000Y-57355000D03*
X108800000Y-57355000D03*
X108800000Y-57355000D03*
X109600000Y-57355000D03*
D61*
X110250000Y-57355000D03*
X111250000Y-57355000D03*
X112750000Y-57355000D03*
X113750000Y-57355000D03*
D60*
X114400000Y-57355000D03*
X115200000Y-57355000D03*
D62*
X116320000Y-56780000D03*
D63*
X116320000Y-52600000D03*
D62*
X107680000Y-56780000D03*
D63*
X107680000Y-52600000D03*
G04 #@! TD*
D64*
G04 #@! TO.C,D2*
X65500000Y-90400000D03*
X65500000Y-83600000D03*
G04 #@! TD*
D16*
G04 #@! TO.C,TP19*
X74000000Y-111500000D03*
G04 #@! TD*
D13*
G04 #@! TO.C,R24*
X93000000Y-86510000D03*
X93000000Y-85490000D03*
G04 #@! TD*
D65*
G04 #@! TO.C,U13*
X111650000Y-60925000D03*
X112350000Y-60925000D03*
X112000000Y-60075000D03*
G04 #@! TD*
D30*
G04 #@! TO.C,SW2*
X99520000Y-62250000D03*
X107480000Y-62250000D03*
X99520000Y-66750000D03*
X107480000Y-66750000D03*
G04 #@! TD*
D13*
G04 #@! TO.C,R26*
X91000000Y-90510000D03*
X91000000Y-89490000D03*
G04 #@! TD*
D16*
G04 #@! TO.C,TP23*
X127000000Y-111500000D03*
G04 #@! TD*
D15*
G04 #@! TO.C,D1*
X54850000Y-84500000D03*
X58150000Y-84500000D03*
G04 #@! TD*
D24*
G04 #@! TO.C,C19*
X103000000Y-69480000D03*
X103000000Y-68520000D03*
G04 #@! TD*
D46*
G04 #@! TO.C,J2*
X85500000Y-108820000D03*
D66*
X88500000Y-104500000D03*
D67*
X85500000Y-104500000D03*
X82500000Y-104500000D03*
G04 #@! TD*
D16*
G04 #@! TO.C,TP8*
X66000000Y-111500000D03*
G04 #@! TD*
D28*
G04 #@! TO.C,H3*
X55000000Y-109000000D03*
G04 #@! TD*
D68*
G04 #@! TO.C,U7*
X100862500Y-95025000D03*
X100862500Y-95675000D03*
X100862500Y-96325000D03*
X100862500Y-96975000D03*
X103137500Y-96975000D03*
X103137500Y-96325000D03*
X103137500Y-95675000D03*
X103137500Y-95025000D03*
G04 #@! TD*
D69*
G04 #@! TO.C,U9*
X128862500Y-100550000D03*
X128862500Y-101500000D03*
X128862500Y-102450000D03*
X131137500Y-102450000D03*
X131137500Y-100550000D03*
G04 #@! TD*
D23*
G04 #@! TO.C,C17*
X127025000Y-61500000D03*
X129975000Y-61500000D03*
G04 #@! TD*
D70*
G04 #@! TO.C,U3*
X84112500Y-60037000D03*
D71*
X84100000Y-60850000D03*
X84100000Y-61350000D03*
D72*
X84300000Y-63025000D03*
X86700000Y-63025000D03*
D71*
X86900000Y-61350000D03*
X86900000Y-60850000D03*
D70*
X86887500Y-60037000D03*
D73*
X86000000Y-59950000D03*
D74*
X85500000Y-60325000D03*
D73*
X85000000Y-59950000D03*
G04 #@! TD*
D16*
G04 #@! TO.C,TP22*
X136000000Y-102000000D03*
G04 #@! TD*
D13*
G04 #@! TO.C,R27*
X91000000Y-92510000D03*
X91000000Y-91490000D03*
G04 #@! TD*
D16*
G04 #@! TO.C,TP16*
X81000000Y-53000000D03*
G04 #@! TD*
D15*
G04 #@! TO.C,D5*
X97850000Y-75000000D03*
X101150000Y-75000000D03*
G04 #@! TD*
D13*
G04 #@! TO.C,R59*
X112300000Y-64410000D03*
X112300000Y-63390000D03*
G04 #@! TD*
D14*
G04 #@! TO.C,R43*
X109490000Y-89000000D03*
X110510000Y-89000000D03*
G04 #@! TD*
G04 #@! TO.C,R2*
X59990000Y-85500000D03*
X61010000Y-85500000D03*
G04 #@! TD*
D16*
G04 #@! TO.C,TP3*
X52000000Y-85000000D03*
G04 #@! TD*
D24*
G04 #@! TO.C,C24*
X103500000Y-100480000D03*
X103500000Y-99520000D03*
G04 #@! TD*
D75*
G04 #@! TO.C,C16*
X67875000Y-94000000D03*
X64925000Y-94000000D03*
G04 #@! TD*
D16*
G04 #@! TO.C,TP24*
X83000000Y-73500000D03*
G04 #@! TD*
D37*
G04 #@! TO.C,C4*
X78000000Y-79975000D03*
X78000000Y-77025000D03*
G04 #@! TD*
D55*
G04 #@! TO.C,Q2*
X93062500Y-90050000D03*
X93062500Y-91950000D03*
X94937500Y-91000000D03*
G04 #@! TD*
D23*
G04 #@! TO.C,C9*
X90025000Y-59000000D03*
X92975000Y-59000000D03*
G04 #@! TD*
D14*
G04 #@! TO.C,R19*
X97990000Y-59500000D03*
X99010000Y-59500000D03*
G04 #@! TD*
D16*
G04 #@! TO.C,TP1*
X52000000Y-62000000D03*
G04 #@! TD*
D15*
G04 #@! TO.C,D4*
X92850000Y-75000000D03*
X96150000Y-75000000D03*
G04 #@! TD*
D40*
G04 #@! TO.C,C29*
X125800000Y-101275000D03*
X125800000Y-99725000D03*
G04 #@! TD*
D28*
G04 #@! TO.C,H2*
X133000000Y-55000000D03*
G04 #@! TD*
D14*
G04 #@! TO.C,R13*
X107490000Y-69000000D03*
X108510000Y-69000000D03*
G04 #@! TD*
D27*
G04 #@! TO.C,C5*
X77500000Y-95225000D03*
X77500000Y-96775000D03*
G04 #@! TD*
D14*
G04 #@! TO.C,R45*
X109490000Y-91000000D03*
X110510000Y-91000000D03*
G04 #@! TD*
%LPD*%
M02*
