M48
; DRILL file KiCad 10.0.5 date 2026-08-31T01:13:03
; FORMAT={-:-/ absolute / metric / decimal}
; #@! TF.CreationDate,2026-08-31T01:13:03-07:00
; #@! TF.GenerationSoftware,Kicad,Pcbnew,10.0.5
; #@! TF.FileFunction,MixedPlating,1,4
FMAT,2
METRIC
; #@! TA.AperFunction,Plated,PTH,ViaDrill
T1C0.300
; #@! TA.AperFunction,Plated,PTH,ComponentDrill
T2C0.300
; #@! TA.AperFunction,Plated,PTH,ViaDrill
T3C0.400
; #@! TA.AperFunction,Plated,PTH,ComponentDrill
T4C0.450
; #@! TA.AperFunction,Plated,PTH,ViaDrill
T5C0.500
; #@! TA.AperFunction,Plated,PTH,ComponentDrill
T6C0.600
; #@! TA.AperFunction,Plated,PTH,ComponentDrill
T7C0.750
; #@! TA.AperFunction,Plated,PTH,ComponentDrill
T8C1.000
; #@! TA.AperFunction,Plated,PTH,ComponentDrill
T9C1.020
; #@! TA.AperFunction,NonPlated,NPTH,ComponentDrill
T10C0.650
; #@! TA.AperFunction,NonPlated,NPTH,ComponentDrill
T11C3.000
; #@! TA.AperFunction,NonPlated,NPTH,ComponentDrill
T12C3.200
%
G90
G05
T1
X66.2Y-98.7
X67.3Y-108.05
X68.15Y-100.2
X70.65Y-108.05
X78.15Y-89.635
X79.15Y-89.25
X79.8Y-108.05
X79.85Y-110.9
X80.025Y-93.896
X80.65Y-94.396
X81.05Y-89.15
X81.541Y-96.925
X81.95Y-61.0
X82.338Y-77.504
X82.6Y-83.85
X82.825Y-88.3
X82.852Y-108.698
X83.05Y-51.5
X83.101Y-98.179
X83.358Y-69.992
X83.55Y-81.65
X83.6Y-84.0
X83.725Y-89.326
X84.0Y-56.725
X84.112Y-60.037
X84.338Y-81.488
X84.375Y-88.3
X84.49Y-77.0
X84.49Y-79.0
X84.899Y-98.179
X85.625Y-58.936
X85.8Y-70.25
X85.85Y-87.769
X86.425Y-58.951
X86.69Y-77.0
X86.69Y-79.0
X87.1Y-88.8
X87.297Y-91.575
X87.625Y-93.75
X87.7Y-78.0
X87.71Y-79.0
X87.74Y-95.95
X87.85Y-75.0
X88.187Y-81.818
X88.3Y-89.75
X88.95Y-89.15
X88.98Y-83.82
X89.05Y-92.375
X89.175Y-93.75
X89.24Y-95.95
X89.51Y-87.0
X89.612Y-80.262
X89.65Y-90.75
X89.942Y-86.242
X90.229Y-92.908
X90.35Y-83.85
X90.968Y-93.28
X91.0Y-91.49
X91.0Y-95.49
X91.0Y-96.51
X91.058Y-98.658
X91.15Y-76.35
X91.21Y-83.0
X91.25Y-82.0
X91.51Y-65.8
X91.51Y-87.0
X92.09Y-99.79
X92.2Y-82.55
X92.325Y-92.91
X92.4Y-81.075
X92.9Y-66.7
X93.062Y-91.95
X93.1Y-90.85
X93.111Y-107.0
X93.51Y-88.5
X93.525Y-92.954
X93.55Y-68.75
X94.185Y-101.981
X94.65Y-84.65
X94.8Y-76.2
X94.8Y-103.5
X94.837Y-101.35
X94.837Y-102.65
X95.0Y-95.49
X95.0Y-96.51
X95.4Y-82.45
X95.45Y-68.7
X95.65Y-60.1
X95.66Y-97.07
X95.75Y-83.4
X95.95Y-89.5
X96.0Y-85.49
X96.15Y-77.1
X96.49Y-95.0
X96.6Y-82.7
X96.85Y-78.8
X96.996Y-85.471
X97.0Y-88.2
X97.008Y-89.992
X97.45Y-76.15
X97.5Y-98.52
X97.5Y-99.48
X97.51Y-93.0
X97.51Y-97.0
X97.948Y-94.325
X97.99Y-59.5
X98.49Y-93.0
X98.49Y-95.0
X98.49Y-97.0
X98.725Y-85.15
X99.01Y-59.5
X99.2Y-81.02
X99.383Y-77.917
X99.5Y-95.0
X99.51Y-93.0
X99.99Y-69.0
X100.15Y-103.15
X100.49Y-59.5
X100.85Y-97.5
X101.15Y-75.0
X101.15Y-77.425
X101.85Y-103.15
X102.65Y-88.6
X103.0Y-68.52
X103.05Y-85.0
X103.15Y-94.5
X103.45Y-60.45
X103.5Y-99.52
X103.72Y-56.8
X104.3Y-96.45
X104.35Y-82.0
X104.49Y-76.5
X104.68Y-56.8
X104.8Y-78.8
X104.82Y-95.7
X104.95Y-85.0
X104.99Y-69.0
X105.05Y-93.25
X105.154Y-91.204
X105.3Y-88.2
X105.78Y-95.7
X106.01Y-70.85
X106.2Y-86.72
X106.65Y-78.8
X106.878Y-99.004
X106.983Y-74.575
X107.325Y-94.675
X107.49Y-69.0
X107.49Y-89.0
X107.49Y-91.0
X107.49Y-93.0
X107.525Y-64.525
X107.65Y-82.0
X107.7Y-77.7
X108.025Y-98.8
X108.29Y-101.0
X108.51Y-89.0
X108.844Y-98.024
X108.85Y-102.5
X108.85Y-105.5
X108.9Y-67.775
X109.062Y-95.05
X109.062Y-96.95
X109.49Y-89.0
X109.6Y-62.7
X110.51Y-91.0
X110.51Y-93.0
X110.65Y-60.1
X111.0Y-82.15
X111.15Y-92.05
X111.41Y-101.0
X111.5Y-73.15
X111.6Y-78.3
X112.425Y-92.05
X112.5Y-100.52
X112.5Y-101.48
X112.551Y-72.938
X113.15Y-82.25
X113.35Y-60.05
X113.643Y-91.716
X113.7Y-62.7
X113.745Y-87.445
X114.05Y-89.438
X114.162Y-78.287
X114.7Y-105.3
X114.75Y-81.45
X115.0Y-87.562
X115.95Y-89.438
X116.0Y-97.05
X116.05Y-101.0
X116.644Y-86.844
X117.05Y-90.1
X117.112Y-81.237
X117.4Y-79.0
X117.55Y-58.7
X117.75Y-85.3
X118.525Y-97.27
X119.55Y-81.15
X119.75Y-107.625
X119.85Y-79.275
X120.49Y-105.0
X120.5Y-100.2
X120.85Y-96.45
X120.85Y-98.05
X121.51Y-103.0
X122.0Y-99.5
X122.0Y-100.9
X122.49Y-103.0
X122.49Y-105.0
X123.0Y-63.32
X123.0Y-64.28
X123.475Y-94.73
X123.475Y-97.27
X123.51Y-103.0
X124.49Y-105.0
X125.51Y-105.0
X125.8Y-99.725
X126.85Y-99.5
X126.975Y-104.605
X127.075Y-96.0
X127.51Y-107.0
X128.1Y-90.2
X128.862Y-100.55
X128.862Y-101.5
X128.862Y-102.45
X131.137Y-100.55
X131.8Y-91.575
X132.05Y-95.65
X132.84Y-99.26
X133.45Y-93.0
X133.78Y-100.2
T2
X82.85Y-92.05
X82.85Y-93.35
X82.85Y-94.65
X82.85Y-95.95
X84.0Y-92.05
X84.0Y-93.35
X84.0Y-94.65
X84.0Y-95.95
X85.15Y-92.05
X85.15Y-93.35
X85.15Y-94.65
X85.15Y-95.95
T3
X112.0Y-59.4
X116.0Y-61.6
T4
X121.17Y-73.12
X121.17Y-74.37
X122.42Y-73.12
X122.42Y-74.37
T5
X53.55Y-67.55
X54.35Y-68.35
X54.85Y-84.5
X56.85Y-85.9
X56.85Y-88.05
X59.99Y-85.5
X60.075Y-66.075
X60.9Y-66.9
X61.01Y-83.5
X64.925Y-94.0
X65.5Y-83.6
X65.5Y-90.4
X68.8Y-76.75
X68.8Y-77.7
X73.55Y-62.45
X74.375Y-61.625
X74.85Y-94.0
X76.7Y-83.1
X77.0Y-101.15
X77.0Y-102.8
X77.5Y-96.775
X78.0Y-77.025
X79.75Y-95.75
X79.75Y-97.5
X79.75Y-99.25
X79.775Y-92.4
X80.5Y-85.5
X82.275Y-57.275
X84.3Y-63.025
X85.05Y-83.95
X89.02Y-72.45
X89.15Y-112.0
X89.525Y-63.0
X90.025Y-59.0
X90.25Y-110.9
X92.475Y-63.0
X92.975Y-59.0
X95.52Y-112.25
X96.3Y-81.675
X96.98Y-72.45
X98.75Y-88.0
X99.52Y-66.75
X100.0Y-57.5
X102.0Y-87.35
X103.48Y-112.25
X105.8Y-101.025
X105.8Y-103.975
X106.938Y-108.55
X106.95Y-107.5
X107.48Y-66.75
X111.0Y-104.0
X115.0Y-92.325
X116.0Y-104.025
X126.245Y-66.25
X127.025Y-61.5
X127.515Y-66.25
X127.515Y-83.75
X128.75Y-87.05
X129.975Y-61.5
X130.0Y-89.95
T7
X118.0Y-110.5
X120.0Y-110.5
X122.0Y-110.5
T8
X52.0Y-62.0
X52.0Y-66.0
X52.0Y-85.0
X52.0Y-89.0
X52.0Y-93.0
X52.0Y-97.0
X58.5Y-64.5
X58.5Y-92.0
X58.5Y-96.0
X61.5Y-53.0
X62.0Y-111.5
X63.5Y-64.5
X65.0Y-53.0
X66.0Y-111.5
X69.0Y-53.0
X69.5Y-106.5
X70.0Y-111.5
X71.5Y-64.5
X73.0Y-53.0
X74.0Y-111.5
X75.0Y-73.5
X76.5Y-64.5
X77.0Y-53.0
X77.0Y-111.5
X79.0Y-73.5
X81.0Y-53.0
X83.0Y-73.5
X85.0Y-53.0
X94.0Y-53.0
X98.0Y-53.0
X127.0Y-111.5
X136.0Y-88.0
X136.0Y-94.0
X136.0Y-98.0
X136.0Y-102.0
T9
X56.5Y-77.0
X59.5Y-77.0
X82.5Y-104.5
X85.5Y-104.5
X88.5Y-104.5
T10
X109.11Y-56.28
X114.89Y-56.28
T11
X52.18Y-77.0
X85.5Y-108.82
T12
X55.0Y-55.0
X55.0Y-109.0
X133.0Y-55.0
X133.0Y-109.0
T6
X107.68Y-53.0G85X107.68Y-52.2
G05
X107.68Y-57.33G85X107.68Y-56.23
G05
X116.32Y-53.0G85X116.32Y-52.2
G05
X116.32Y-57.33G85X116.32Y-56.23
G05
M30
