G04 #@! TF.GenerationSoftware,KiCad,Pcbnew,10.0.5*
G04 #@! TF.CreationDate,2026-08-31T01:13:03-07:00*
G04 #@! TF.ProjectId,pcb-01-v2,7063622d-3031-42d7-9632-2e6b69636164,V2*
G04 #@! TF.SameCoordinates,Original*
G04 #@! TF.FileFunction,Copper,L1,Top*
G04 #@! TF.FilePolarity,Positive*
%FSLAX46Y46*%
G04 Gerber Fmt 4.6, Leading zero omitted, Abs format (unit mm)*
G04 Created by KiCad (PCBNEW 10.0.5) date 2026-08-31 01:13:03*
%MOMM*%
%LPD*%
G01*
G04 APERTURE LIST*
G04 Aperture macros list*
%AMRoundRect*
0 Rectangle with rounded corners*
0 $1 Rounding radius*
0 $2 $3 $4 $5 $6 $7 $8 $9 X,Y pos of 4 corners*
0 Add a 4 corners polygon primitive as box body*
4,1,4,$2,$3,$4,$5,$6,$7,$8,$9,$2,$3,0*
0 Add four circle primitives for the rounded corners*
1,1,$1+$1,$2,$3*
1,1,$1+$1,$4,$5*
1,1,$1+$1,$6,$7*
1,1,$1+$1,$8,$9*
0 Add four rect primitives between the rounded corners*
20,1,$1+$1,$2,$3,$4,$5,0*
20,1,$1+$1,$4,$5,$6,$7,0*
20,1,$1+$1,$6,$7,$8,$9,0*
20,1,$1+$1,$8,$9,$2,$3,0*%
G04 Aperture macros list end*
G04 #@! TA.AperFunction,EtchedComponent*
%ADD10C,0.000000*%
G04 #@! TD*
G04 #@! TA.AperFunction,SMDPad,CuDef*
%ADD11RoundRect,0.135000X0.185000X-0.135000X0.185000X0.135000X-0.185000X0.135000X-0.185000X-0.135000X0*%
G04 #@! TD*
G04 #@! TA.AperFunction,SMDPad,CuDef*
%ADD12RoundRect,0.135000X-0.135000X-0.185000X0.135000X-0.185000X0.135000X0.185000X-0.135000X0.185000X0*%
G04 #@! TD*
G04 #@! TA.AperFunction,SMDPad,CuDef*
%ADD13RoundRect,0.225000X-0.225000X-0.375000X0.225000X-0.375000X0.225000X0.375000X-0.225000X0.375000X0*%
G04 #@! TD*
G04 #@! TA.AperFunction,ComponentPad*
%ADD14C,2.400000*%
G04 #@! TD*
G04 #@! TA.AperFunction,ComponentPad*
%ADD15RoundRect,0.250000X-0.750000X-0.750000X0.750000X-0.750000X0.750000X0.750000X-0.750000X0.750000X0*%
G04 #@! TD*
G04 #@! TA.AperFunction,ComponentPad*
%ADD16C,2.000000*%
G04 #@! TD*
G04 #@! TA.AperFunction,SMDPad,CuDef*
%ADD17RoundRect,0.225000X-0.225000X-0.250000X0.225000X-0.250000X0.225000X0.250000X-0.225000X0.250000X0*%
G04 #@! TD*
G04 #@! TA.AperFunction,SMDPad,CuDef*
%ADD18RoundRect,0.140000X-0.140000X-0.170000X0.140000X-0.170000X0.140000X0.170000X-0.140000X0.170000X0*%
G04 #@! TD*
G04 #@! TA.AperFunction,SMDPad,CuDef*
%ADD19RoundRect,0.075000X0.075000X0.075000X-0.075000X0.075000X-0.075000X-0.075000X0.075000X-0.075000X0*%
G04 #@! TD*
G04 #@! TA.AperFunction,SMDPad,CuDef*
%ADD20RoundRect,0.087500X-0.425000X-0.087500X0.425000X-0.087500X0.425000X0.087500X-0.425000X0.087500X0*%
G04 #@! TD*
G04 #@! TA.AperFunction,SMDPad,CuDef*
%ADD21RoundRect,0.250000X-0.325000X-1.100000X0.325000X-1.100000X0.325000X1.100000X-0.325000X1.100000X0*%
G04 #@! TD*
G04 #@! TA.AperFunction,SMDPad,CuDef*
%ADD22RoundRect,0.140000X0.170000X-0.140000X0.170000X0.140000X-0.170000X0.140000X-0.170000X-0.140000X0*%
G04 #@! TD*
G04 #@! TA.AperFunction,SMDPad,CuDef*
%ADD23RoundRect,0.250000X-0.250000X-0.475000X0.250000X-0.475000X0.250000X0.475000X-0.250000X0.475000X0*%
G04 #@! TD*
G04 #@! TA.AperFunction,SMDPad,CuDef*
%ADD24RoundRect,0.150000X0.150000X-0.587500X0.150000X0.587500X-0.150000X0.587500X-0.150000X-0.587500X0*%
G04 #@! TD*
G04 #@! TA.AperFunction,SMDPad,CuDef*
%ADD25RoundRect,0.225000X-0.250000X0.225000X-0.250000X-0.225000X0.250000X-0.225000X0.250000X0.225000X0*%
G04 #@! TD*
G04 #@! TA.AperFunction,SMDPad,CuDef*
%ADD26RoundRect,0.112500X-0.700000X-0.112500X0.700000X-0.112500X0.700000X0.112500X-0.700000X0.112500X0*%
G04 #@! TD*
G04 #@! TA.AperFunction,SMDPad,CuDef*
%ADD27RoundRect,0.250000X-0.525000X-0.400000X0.525000X-0.400000X0.525000X0.400000X-0.525000X0.400000X0*%
G04 #@! TD*
G04 #@! TA.AperFunction,SMDPad,CuDef*
%ADD28RoundRect,0.062500X-0.237500X-0.062500X0.237500X-0.062500X0.237500X0.062500X-0.237500X0.062500X0*%
G04 #@! TD*
G04 #@! TA.AperFunction,SMDPad,CuDef*
%ADD29RoundRect,0.062500X-0.062500X-0.237500X0.062500X-0.237500X0.062500X0.237500X-0.062500X0.237500X0*%
G04 #@! TD*
G04 #@! TA.AperFunction,ComponentPad*
%ADD30C,0.600000*%
G04 #@! TD*
G04 #@! TA.AperFunction,SMDPad,CuDef*
%ADD31R,3.700000X5.700000*%
G04 #@! TD*
G04 #@! TA.AperFunction,SMDPad,CuDef*
%ADD32RoundRect,0.250000X-0.362500X-1.425000X0.362500X-1.425000X0.362500X1.425000X-0.362500X1.425000X0*%
G04 #@! TD*
G04 #@! TA.AperFunction,SMDPad,CuDef*
%ADD33C,2.000000*%
G04 #@! TD*
G04 #@! TA.AperFunction,SMDPad,CuDef*
%ADD34RoundRect,0.250000X-1.100000X0.325000X-1.100000X-0.325000X1.100000X-0.325000X1.100000X0.325000X0*%
G04 #@! TD*
G04 #@! TA.AperFunction,SMDPad,CuDef*
%ADD35RoundRect,0.250000X0.650000X-0.325000X0.650000X0.325000X-0.650000X0.325000X-0.650000X-0.325000X0*%
G04 #@! TD*
G04 #@! TA.AperFunction,SMDPad,CuDef*
%ADD36RoundRect,0.250000X1.100000X-0.325000X1.100000X0.325000X-1.100000X0.325000X-1.100000X-0.325000X0*%
G04 #@! TD*
G04 #@! TA.AperFunction,SMDPad,CuDef*
%ADD37RoundRect,0.375000X0.375000X-0.625000X0.375000X0.625000X-0.375000X0.625000X-0.375000X-0.625000X0*%
G04 #@! TD*
G04 #@! TA.AperFunction,SMDPad,CuDef*
%ADD38RoundRect,0.500000X1.400000X-0.500000X1.400000X0.500000X-1.400000X0.500000X-1.400000X-0.500000X0*%
G04 #@! TD*
G04 #@! TA.AperFunction,SMDPad,CuDef*
%ADD39RoundRect,0.225000X0.250000X-0.225000X0.250000X0.225000X-0.250000X0.225000X-0.250000X-0.225000X0*%
G04 #@! TD*
G04 #@! TA.AperFunction,SMDPad,CuDef*
%ADD40RoundRect,0.225000X-0.225000X0.525000X-0.225000X-0.525000X0.225000X-0.525000X0.225000X0.525000X0*%
G04 #@! TD*
G04 #@! TA.AperFunction,SMDPad,CuDef*
%ADD41R,0.900000X1.500000*%
G04 #@! TD*
G04 #@! TA.AperFunction,SMDPad,CuDef*
%ADD42R,0.800000X0.800000*%
G04 #@! TD*
G04 #@! TA.AperFunction,ComponentPad*
%ADD43C,0.800000*%
G04 #@! TD*
G04 #@! TA.AperFunction,SMDPad,CuDef*
%ADD44C,1.000000*%
G04 #@! TD*
G04 #@! TA.AperFunction,SMDPad,CuDef*
%ADD45RoundRect,0.250000X-0.400000X-0.550000X0.400000X-0.550000X0.400000X0.550000X-0.400000X0.550000X0*%
G04 #@! TD*
G04 #@! TA.AperFunction,SMDPad,CuDef*
%ADD46RoundRect,0.250000X-0.750000X-0.550000X0.750000X-0.550000X0.750000X0.550000X-0.750000X0.550000X0*%
G04 #@! TD*
G04 #@! TA.AperFunction,ComponentPad*
%ADD47RoundRect,0.250001X0.499999X-0.499999X0.499999X0.499999X-0.499999X0.499999X-0.499999X-0.499999X0*%
G04 #@! TD*
G04 #@! TA.AperFunction,ComponentPad*
%ADD48C,1.500000*%
G04 #@! TD*
G04 #@! TA.AperFunction,SMDPad,CuDef*
%ADD49RoundRect,0.100000X-0.450000X-0.100000X0.450000X-0.100000X0.450000X0.100000X-0.450000X0.100000X0*%
G04 #@! TD*
G04 #@! TA.AperFunction,SMDPad,CuDef*
%ADD50RoundRect,0.250000X0.250000X0.475000X-0.250000X0.475000X-0.250000X-0.475000X0.250000X-0.475000X0*%
G04 #@! TD*
G04 #@! TA.AperFunction,SMDPad,CuDef*
%ADD51RoundRect,0.150000X-0.825000X-0.150000X0.825000X-0.150000X0.825000X0.150000X-0.825000X0.150000X0*%
G04 #@! TD*
G04 #@! TA.AperFunction,SMDPad,CuDef*
%ADD52RoundRect,0.250000X0.600000X2.600000X-0.600000X2.600000X-0.600000X-2.600000X0.600000X-2.600000X0*%
G04 #@! TD*
G04 #@! TA.AperFunction,SMDPad,CuDef*
%ADD53RoundRect,0.100000X-0.625000X-0.100000X0.625000X-0.100000X0.625000X0.100000X-0.625000X0.100000X0*%
G04 #@! TD*
G04 #@! TA.AperFunction,HeatsinkPad*
%ADD54R,1.680000X1.880000*%
G04 #@! TD*
G04 #@! TA.AperFunction,SMDPad,CuDef*
%ADD55RoundRect,0.150000X-0.587500X-0.150000X0.587500X-0.150000X0.587500X0.150000X-0.587500X0.150000X0*%
G04 #@! TD*
G04 #@! TA.AperFunction,ComponentPad*
%ADD56RoundRect,0.250000X-0.350000X-0.625000X0.350000X-0.625000X0.350000X0.625000X-0.350000X0.625000X0*%
G04 #@! TD*
G04 #@! TA.AperFunction,ComponentPad*
%ADD57O,1.200000X1.750000*%
G04 #@! TD*
G04 #@! TA.AperFunction,SMDPad,CuDef*
%ADD58RoundRect,0.250000X0.475000X-0.250000X0.475000X0.250000X-0.475000X0.250000X-0.475000X-0.250000X0*%
G04 #@! TD*
G04 #@! TA.AperFunction,SMDPad,CuDef*
%ADD59RoundRect,0.150000X0.150000X0.425000X-0.150000X0.425000X-0.150000X-0.425000X0.150000X-0.425000X0*%
G04 #@! TD*
G04 #@! TA.AperFunction,SMDPad,CuDef*
%ADD60RoundRect,0.075000X0.075000X0.500000X-0.075000X0.500000X-0.075000X-0.500000X0.075000X-0.500000X0*%
G04 #@! TD*
G04 #@! TA.AperFunction,ComponentPad*
%ADD61O,1.000000X2.100000*%
G04 #@! TD*
G04 #@! TA.AperFunction,ComponentPad*
%ADD62O,1.000000X1.800000*%
G04 #@! TD*
G04 #@! TA.AperFunction,SMDPad,CuDef*
%ADD63RoundRect,0.250000X1.400000X1.000000X-1.400000X1.000000X-1.400000X-1.000000X1.400000X-1.000000X0*%
G04 #@! TD*
G04 #@! TA.AperFunction,SMDPad,CuDef*
%ADD64RoundRect,0.075000X-0.075000X-0.075000X0.075000X-0.075000X0.075000X0.075000X-0.075000X0.075000X0*%
G04 #@! TD*
G04 #@! TA.AperFunction,ComponentPad*
%ADD65RoundRect,0.250001X0.499999X0.759999X-0.499999X0.759999X-0.499999X-0.759999X0.499999X-0.759999X0*%
G04 #@! TD*
G04 #@! TA.AperFunction,ComponentPad*
%ADD66O,1.500000X2.020000*%
G04 #@! TD*
G04 #@! TA.AperFunction,SMDPad,CuDef*
%ADD67RoundRect,0.112500X-0.550000X-0.112500X0.550000X-0.112500X0.550000X0.112500X-0.550000X0.112500X0*%
G04 #@! TD*
G04 #@! TA.AperFunction,SMDPad,CuDef*
%ADD68RoundRect,0.150000X-0.512500X-0.150000X0.512500X-0.150000X0.512500X0.150000X-0.512500X0.150000X0*%
G04 #@! TD*
G04 #@! TA.AperFunction,SMDPad,CuDef*
%ADD69RoundRect,0.093750X-0.468750X-0.093750X0.468750X-0.093750X0.468750X0.093750X-0.468750X0.093750X0*%
G04 #@! TD*
G04 #@! TA.AperFunction,SMDPad,CuDef*
%ADD70RoundRect,0.062500X-0.487500X-0.062500X0.487500X-0.062500X0.487500X0.062500X-0.487500X0.062500X0*%
G04 #@! TD*
G04 #@! TA.AperFunction,SMDPad,CuDef*
%ADD71RoundRect,0.375000X-0.375000X-0.625000X0.375000X-0.625000X0.375000X0.625000X-0.375000X0.625000X0*%
G04 #@! TD*
G04 #@! TA.AperFunction,SMDPad,CuDef*
%ADD72RoundRect,0.062500X-0.062500X-0.337500X0.062500X-0.337500X0.062500X0.337500X-0.062500X0.337500X0*%
G04 #@! TD*
G04 #@! TA.AperFunction,SMDPad,CuDef*
%ADD73RoundRect,0.075000X-0.075000X-0.700000X0.075000X-0.700000X0.075000X0.700000X-0.075000X0.700000X0*%
G04 #@! TD*
G04 #@! TA.AperFunction,SMDPad,CuDef*
%ADD74RoundRect,0.250000X0.325000X1.100000X-0.325000X1.100000X-0.325000X-1.100000X0.325000X-1.100000X0*%
G04 #@! TD*
G04 #@! TA.AperFunction,ViaPad*
%ADD75C,1.000000*%
G04 #@! TD*
G04 #@! TA.AperFunction,ViaPad*
%ADD76C,0.600000*%
G04 #@! TD*
G04 #@! TA.AperFunction,ViaPad*
%ADD77C,0.800000*%
G04 #@! TD*
G04 #@! TA.AperFunction,Conductor*
%ADD78C,0.200000*%
G04 #@! TD*
G04 #@! TA.AperFunction,Conductor*
%ADD79C,0.500000*%
G04 #@! TD*
G04 #@! TA.AperFunction,Conductor*
%ADD80C,0.250000*%
G04 #@! TD*
G04 #@! TA.AperFunction,Conductor*
%ADD81C,0.300000*%
G04 #@! TD*
G04 #@! TA.AperFunction,Conductor*
%ADD82C,2.000000*%
G04 #@! TD*
G04 #@! TA.AperFunction,Conductor*
%ADD83C,1.500000*%
G04 #@! TD*
G04 #@! TA.AperFunction,Conductor*
%ADD84C,0.400000*%
G04 #@! TD*
G04 APERTURE END LIST*
D10*
G04 #@! TA.AperFunction,EtchedComponent*
G04 #@! TO.C,NT1*
G36*
X86000000Y-86500000D02*
G01*
X82000000Y-86500000D01*
X82000000Y-84500000D01*
X86000000Y-84500000D01*
X86000000Y-86500000D01*
G37*
G04 #@! TD.AperFunction*
G04 #@! TD*
D11*
G04 #@! TO.P,R58,1*
G04 #@! TO.N,/SCH-04 Supervisor + Service/USB_D_MCU_P*
X111000000Y-64410000D03*
G04 #@! TO.P,R58,2*
G04 #@! TO.N,/SCH-04 Supervisor + Service/USB_DP*
X111000000Y-63390000D03*
G04 #@! TD*
D12*
G04 #@! TO.P,R11,1*
G04 #@! TO.N,3V3*
X99990000Y-69000000D03*
G04 #@! TO.P,R11,2*
G04 #@! TO.N,ESP_EN*
X101010000Y-69000000D03*
G04 #@! TD*
D11*
G04 #@! TO.P,R38,1*
G04 #@! TO.N,WD_HEARTBEAT*
X104000000Y-91510000D03*
G04 #@! TO.P,R38,2*
G04 #@! TO.N,MCF_EXT_WD*
X104000000Y-90490000D03*
G04 #@! TD*
D13*
G04 #@! TO.P,D3,1,K_1*
G04 #@! TO.N,PGOOD*
X87850000Y-75000000D03*
G04 #@! TO.P,D3,2,A_2*
G04 #@! TO.N,U5_CLR_OR*
X91150000Y-75000000D03*
G04 #@! TD*
D14*
G04 #@! TO.P,TP18,1,1_1*
G04 #@! TO.N,SDA*
X70000000Y-111500000D03*
G04 #@! TD*
D15*
G04 #@! TO.P,C2,1*
G04 #@! TO.N,VM24*
X71500000Y-64500000D03*
D16*
G04 #@! TO.P,C2,2*
G04 #@! TO.N,PGND*
X76500000Y-64500000D03*
G04 #@! TD*
D11*
G04 #@! TO.P,R25,1*
G04 #@! TO.N,U5_CLK*
X96000000Y-86510000D03*
G04 #@! TO.P,R25,2*
G04 #@! TO.N,AGND*
X96000000Y-85490000D03*
G04 #@! TD*
D17*
G04 #@! TO.P,C30,1*
G04 #@! TO.N,+12V_TACH*
X108025000Y-98800000D03*
G04 #@! TO.P,C30,2*
G04 #@! TO.N,TACH_FB*
X109575000Y-98800000D03*
G04 #@! TD*
D18*
G04 #@! TO.P,C41,1*
G04 #@! TO.N,3V3*
X132820000Y-100200000D03*
G04 #@! TO.P,C41,2*
G04 #@! TO.N,AGND*
X133780000Y-100200000D03*
G04 #@! TD*
D14*
G04 #@! TO.P,TP10,1,1_1*
G04 #@! TO.N,U5_CLR_OR*
X61500000Y-53000000D03*
G04 #@! TD*
D12*
G04 #@! TO.P,R8,1*
G04 #@! TO.N,MCF_BRAKE*
X88490000Y-87000000D03*
G04 #@! TO.P,R8,2*
G04 #@! TO.N,AGND*
X89510000Y-87000000D03*
G04 #@! TD*
D19*
G04 #@! TO.P,U14,1,D+_1*
G04 #@! TO.N,/SCH-04 Supervisor + Service/USB_CC1*
X116350000Y-60075000D03*
G04 #@! TO.P,U14,2,D-_2*
G04 #@! TO.N,/SCH-04 Supervisor + Service/USB_CC2*
X115650000Y-60075000D03*
G04 #@! TO.P,U14,3,GND_3*
G04 #@! TO.N,AGND*
X116000000Y-60925000D03*
G04 #@! TD*
D14*
G04 #@! TO.P,TP15,1,1_1*
G04 #@! TO.N,OVERSPEED_N*
X136000000Y-94000000D03*
G04 #@! TD*
D12*
G04 #@! TO.P,R18,1*
G04 #@! TO.N,3V3*
X104490000Y-76500000D03*
G04 #@! TO.P,R18,2*
G04 #@! TO.N,MCU_CLEAR_N*
X105510000Y-76500000D03*
G04 #@! TD*
D20*
G04 #@! TO.P,U11,1,NC_1*
G04 #@! TO.N,unconnected-(U11-NC-Pad1)*
X100162500Y-101350000D03*
G04 #@! TO.P,U11,2*
G04 #@! TO.N,U6_PRE_RC*
X100162500Y-102000000D03*
G04 #@! TO.P,U11,3,GND_3*
G04 #@! TO.N,AGND*
X100162500Y-102650000D03*
G04 #@! TO.P,U11,4*
G04 #@! TO.N,U6_PRE_BUF*
X101837500Y-102650000D03*
G04 #@! TO.P,U11,5,VCC_5*
G04 #@! TO.N,3V3*
X101837500Y-101350000D03*
G04 #@! TD*
D13*
G04 #@! TO.P,D8,1,K_1*
G04 #@! TO.N,PGOOD*
X104350000Y-82000000D03*
G04 #@! TO.P,D8,2,A_2*
G04 #@! TO.N,U6_PRE_RC*
X107650000Y-82000000D03*
G04 #@! TD*
D12*
G04 #@! TO.P,R20,1*
G04 #@! TO.N,3V3*
X100490000Y-59500000D03*
G04 #@! TO.P,R20,2*
G04 #@! TO.N,TEMP_SCL*
X101510000Y-59500000D03*
G04 #@! TD*
D21*
G04 #@! TO.P,C10,1*
G04 #@! TO.N,3V3*
X89525000Y-63000000D03*
G04 #@! TO.P,C10,2*
G04 #@! TO.N,AGND*
X92475000Y-63000000D03*
G04 #@! TD*
D22*
G04 #@! TO.P,C44,1*
G04 #@! TO.N,/SCH-04 Supervisor + Service/USB_D_MCU_P*
X109600000Y-64380000D03*
G04 #@! TO.P,C44,2*
G04 #@! TO.N,AGND*
X109600000Y-63420000D03*
G04 #@! TD*
D14*
G04 #@! TO.P,TP20,1,1_1*
G04 #@! TO.N,FG*
X77000000Y-111500000D03*
G04 #@! TD*
D12*
G04 #@! TO.P,R15,1*
G04 #@! TO.N,ESP_DIR*
X90190000Y-81000000D03*
G04 #@! TO.P,R15,2*
G04 #@! TO.N,DIR*
X91210000Y-81000000D03*
G04 #@! TD*
D23*
G04 #@! TO.P,C23,1*
G04 #@! TO.N,U6_PRE_RC*
X103050000Y-85000000D03*
G04 #@! TO.P,C23,2*
G04 #@! TO.N,AGND*
X104950000Y-85000000D03*
G04 #@! TD*
D14*
G04 #@! TO.P,TP4,1,1_1*
G04 #@! TO.N,AGND*
X52000000Y-89000000D03*
G04 #@! TD*
D21*
G04 #@! TO.P,C7,1*
G04 #@! TO.N,VM24*
X75025000Y-57500000D03*
G04 #@! TO.P,C7,2*
G04 #@! TO.N,AGND*
X77975000Y-57500000D03*
G04 #@! TD*
D24*
G04 #@! TO.P,Q3,1,G_1*
G04 #@! TO.N,HALL_TACH*
X114050000Y-89437500D03*
G04 #@! TO.P,Q3,2,S_2*
G04 #@! TO.N,AGND*
X115950000Y-89437500D03*
G04 #@! TO.P,Q3,3,D_3*
G04 #@! TO.N,TACH_DRAIN*
X115000000Y-87562500D03*
G04 #@! TD*
D25*
G04 #@! TO.P,C12,1*
G04 #@! TO.N,MCF_CP*
X77500000Y-92025000D03*
G04 #@! TO.P,C12,2*
G04 #@! TO.N,VM24*
X77500000Y-93575000D03*
G04 #@! TD*
D12*
G04 #@! TO.P,R46,1*
G04 #@! TO.N,+12V_TACH*
X107490000Y-93000000D03*
G04 #@! TO.P,R46,2*
G04 #@! TO.N,TACH_BIAS*
X108510000Y-93000000D03*
G04 #@! TD*
G04 #@! TO.P,R47,1*
G04 #@! TO.N,TACH_BIAS*
X109490000Y-93000000D03*
G04 #@! TO.P,R47,2*
G04 #@! TO.N,AGND*
X110510000Y-93000000D03*
G04 #@! TD*
D22*
G04 #@! TO.P,C42,1*
G04 #@! TO.N,3V3*
X99200000Y-81980000D03*
G04 #@! TO.P,C42,2*
G04 #@! TO.N,AGND*
X99200000Y-81020000D03*
G04 #@! TD*
D14*
G04 #@! TO.P,TP5,1,1_1*
G04 #@! TO.N,3V3*
X52000000Y-93000000D03*
G04 #@! TD*
D22*
G04 #@! TO.P,C31,1*
G04 #@! TO.N,TACH_DELAY*
X112500000Y-101480000D03*
G04 #@! TO.P,C31,2*
G04 #@! TO.N,AGND*
X112500000Y-100520000D03*
G04 #@! TD*
D17*
G04 #@! TO.P,C14,1*
G04 #@! TO.N,MCF_AVDD*
X87625000Y-93750000D03*
G04 #@! TO.P,C14,2*
G04 #@! TO.N,AGND*
X89175000Y-93750000D03*
G04 #@! TD*
D22*
G04 #@! TO.P,C22,1*
G04 #@! TO.N,3V3*
X97500000Y-99480000D03*
G04 #@! TO.P,C22,2*
G04 #@! TO.N,AGND*
X97500000Y-98520000D03*
G04 #@! TD*
D12*
G04 #@! TO.P,R12,1*
G04 #@! TO.N,3V3*
X104990000Y-69000000D03*
G04 #@! TO.P,R12,2*
G04 #@! TO.N,ESP_BOOT*
X106010000Y-69000000D03*
G04 #@! TD*
G04 #@! TO.P,R51,1*
G04 #@! TO.N,VTACH*
X120490000Y-105000000D03*
G04 #@! TO.P,R51,2*
G04 #@! TO.N,TLV_INN*
X121510000Y-105000000D03*
G04 #@! TD*
D14*
G04 #@! TO.P,TP7,1,1_1*
G04 #@! TO.N,MCF_AVDD*
X62000000Y-111500000D03*
G04 #@! TD*
D12*
G04 #@! TO.P,R5,1*
G04 #@! TO.N,3V3*
X86690000Y-77000000D03*
G04 #@! TO.P,R5,2*
G04 #@! TO.N,NFAULT*
X87710000Y-77000000D03*
G04 #@! TD*
D22*
G04 #@! TO.P,C43,1*
G04 #@! TO.N,3V3*
X106200000Y-87680000D03*
G04 #@! TO.P,C43,2*
G04 #@! TO.N,AGND*
X106200000Y-86720000D03*
G04 #@! TD*
D12*
G04 #@! TO.P,R41,1*
G04 #@! TO.N,TACH_FB*
X110390000Y-101000000D03*
G04 #@! TO.P,R41,2*
G04 #@! TO.N,AGND*
X111410000Y-101000000D03*
G04 #@! TD*
D20*
G04 #@! TO.P,U10,1,NC_1*
G04 #@! TO.N,unconnected-(U10-NC-Pad1)*
X93162500Y-101350000D03*
G04 #@! TO.P,U10,2*
G04 #@! TO.N,U5_CLR_OR*
X93162500Y-102000000D03*
G04 #@! TO.P,U10,3,GND_3*
G04 #@! TO.N,AGND*
X93162500Y-102650000D03*
G04 #@! TO.P,U10,4*
G04 #@! TO.N,U5_CLR_BUF*
X94837500Y-102650000D03*
G04 #@! TO.P,U10,5,VCC_5*
G04 #@! TO.N,3V3*
X94837500Y-101350000D03*
G04 #@! TD*
D12*
G04 #@! TO.P,R14,1*
G04 #@! TO.N,ESP_SPEED*
X87990000Y-81000000D03*
G04 #@! TO.P,R14,2*
G04 #@! TO.N,SPEED*
X89010000Y-81000000D03*
G04 #@! TD*
G04 #@! TO.P,R33,1*
G04 #@! TO.N,SET1*
X98490000Y-93000000D03*
G04 #@! TO.P,R33,2*
G04 #@! TO.N,AGND*
X99510000Y-93000000D03*
G04 #@! TD*
D23*
G04 #@! TO.P,C8,1*
G04 #@! TO.N,VM24*
X80050000Y-61000000D03*
G04 #@! TO.P,C8,2*
G04 #@! TO.N,AGND*
X81950000Y-61000000D03*
G04 #@! TD*
D26*
G04 #@! TO.P,U12,1,SDA_1*
G04 #@! TO.N,TEMP_SDA*
X97887500Y-55525000D03*
G04 #@! TO.P,U12,2,SCL_2*
G04 #@! TO.N,TEMP_SCL*
X97887500Y-56175000D03*
G04 #@! TO.P,U12,3,ALERT_3*
G04 #@! TO.N,unconnected-(U12-ALERT-Pad3)*
X97887500Y-56825000D03*
G04 #@! TO.P,U12,4,GND_4*
G04 #@! TO.N,AGND*
X97887500Y-57475000D03*
G04 #@! TO.P,U12,5,A2_5*
X102112500Y-57475000D03*
G04 #@! TO.P,U12,6,A1_6*
X102112500Y-56825000D03*
G04 #@! TO.P,U12,7,A0_7*
X102112500Y-56175000D03*
G04 #@! TO.P,U12,8,V+_8*
G04 #@! TO.N,3V3*
X102112500Y-55525000D03*
G04 #@! TD*
D27*
G04 #@! TO.P,SW3,1,1_1*
G04 #@! TO.N,SW_CLR*
X95520000Y-107750000D03*
X103480000Y-107750000D03*
G04 #@! TO.P,SW3,2,2_2*
G04 #@! TO.N,AGND*
X95520000Y-112250000D03*
X103480000Y-112250000D03*
G04 #@! TD*
D15*
G04 #@! TO.P,C1,1*
G04 #@! TO.N,VM24*
X58500000Y-64500000D03*
D16*
G04 #@! TO.P,C1,2*
G04 #@! TO.N,PGND*
X63500000Y-64500000D03*
G04 #@! TD*
D28*
G04 #@! TO.P,U1,1,DVDD_1*
G04 #@! TO.N,MCF_DVDD*
X81600000Y-91250000D03*
G04 #@! TO.P,U1,2,DGND_2*
G04 #@! TO.N,AGND*
X81600000Y-91750000D03*
G04 #@! TO.P,U1,3,FB_BK_3*
G04 #@! TO.N,MCF_BUCK*
X81600000Y-92250000D03*
G04 #@! TO.P,U1,4,GND_BK_4*
G04 #@! TO.N,AGND*
X81600000Y-92750000D03*
G04 #@! TO.P,U1,5,SW_BK_5*
G04 #@! TO.N,BUCK_SW*
X81600000Y-93250000D03*
G04 #@! TO.P,U1,6,CPL_6*
G04 #@! TO.N,MCF_CPL*
X81600000Y-93750000D03*
G04 #@! TO.P,U1,7,CPH_7*
G04 #@! TO.N,MCF_CPH*
X81600000Y-94250000D03*
G04 #@! TO.P,U1,8,CP_8*
G04 #@! TO.N,MCF_CP*
X81600000Y-94750000D03*
G04 #@! TO.P,U1,9,VM_9*
G04 #@! TO.N,VM24*
X81600000Y-95250000D03*
G04 #@! TO.P,U1,10,VM_10*
X81600000Y-95750000D03*
G04 #@! TO.P,U1,11,VM_11*
X81600000Y-96250000D03*
G04 #@! TO.P,U1,12,PGND_12*
G04 #@! TO.N,PGND*
X81600000Y-96750000D03*
D29*
G04 #@! TO.P,U1,13,OUTA_13*
G04 #@! TO.N,PHASE_U*
X82250000Y-97400000D03*
G04 #@! TO.P,U1,14,OUTA_14*
X82750000Y-97400000D03*
G04 #@! TO.P,U1,15,PGND_15*
G04 #@! TO.N,PGND*
X83250000Y-97400000D03*
G04 #@! TO.P,U1,16,OUTB_16*
G04 #@! TO.N,PHASE_V*
X83750000Y-97400000D03*
G04 #@! TO.P,U1,17,OUTB_17*
X84250000Y-97400000D03*
G04 #@! TO.P,U1,18,PGND_18*
G04 #@! TO.N,PGND*
X84750000Y-97400000D03*
G04 #@! TO.P,U1,19,OUTC_19*
G04 #@! TO.N,PHASE_W*
X85250000Y-97400000D03*
G04 #@! TO.P,U1,20,OUTC_20*
X85750000Y-97400000D03*
D28*
G04 #@! TO.P,U1,21,DRVOFF_21*
G04 #@! TO.N,DRVOFF*
X86400000Y-96750000D03*
G04 #@! TO.P,U1,22,NC_22*
G04 #@! TO.N,unconnected-(U1-NC-Pad22)*
X86400000Y-96250000D03*
G04 #@! TO.P,U1,23,NC_23*
G04 #@! TO.N,unconnected-(U1-NC-Pad23)*
X86400000Y-95750000D03*
G04 #@! TO.P,U1,24,NC_24*
G04 #@! TO.N,unconnected-(U1-NC-Pad24)*
X86400000Y-95250000D03*
G04 #@! TO.P,U1,25,NC_25*
G04 #@! TO.N,unconnected-(U1-NC-Pad25)*
X86400000Y-94750000D03*
G04 #@! TO.P,U1,26,AGND_26*
G04 #@! TO.N,AGND*
X86400000Y-94250000D03*
G04 #@! TO.P,U1,27,AVDD_27*
G04 #@! TO.N,MCF_AVDD*
X86400000Y-93750000D03*
G04 #@! TO.P,U1,28,SPEED/WAKE_28*
G04 #@! TO.N,SPEED*
X86400000Y-93250000D03*
G04 #@! TO.P,U1,29,FG_29*
G04 #@! TO.N,FG*
X86400000Y-92750000D03*
G04 #@! TO.P,U1,30,SDA_30*
G04 #@! TO.N,SDA*
X86400000Y-92250000D03*
G04 #@! TO.P,U1,31,SCL_31*
G04 #@! TO.N,SCL*
X86400000Y-91750000D03*
G04 #@! TO.P,U1,32,EXT_WD_32*
G04 #@! TO.N,MCF_EXT_WD*
X86400000Y-91250000D03*
D29*
G04 #@! TO.P,U1,33,EXT_CLK_33*
G04 #@! TO.N,unconnected-(U1-EXT_CLK-Pad33)*
X85750000Y-90600000D03*
G04 #@! TO.P,U1,34,DIR_34*
G04 #@! TO.N,DIR*
X85250000Y-90600000D03*
G04 #@! TO.P,U1,35,BRAKE_35*
G04 #@! TO.N,MCF_BRAKE*
X84750000Y-90600000D03*
G04 #@! TO.P,U1,36,DACOUT1_36*
G04 #@! TO.N,unconnected-(U1-DACOUT1-Pad36)*
X84250000Y-90600000D03*
G04 #@! TO.P,U1,37,DACOUT2_37*
G04 #@! TO.N,unconnected-(U1-DACOUT2-Pad37)*
X83750000Y-90600000D03*
G04 #@! TO.P,U1,38,DACOUT2/SOX_38*
G04 #@! TO.N,SOX*
X83250000Y-90600000D03*
G04 #@! TO.P,U1,39,ALARM_39*
G04 #@! TO.N,ALARM*
X82750000Y-90600000D03*
G04 #@! TO.P,U1,40,nFAULT_40*
G04 #@! TO.N,NFAULT*
X82250000Y-90600000D03*
D30*
G04 #@! TO.P,U1,41,EP_41*
G04 #@! TO.N,AGND*
X82850000Y-92050000D03*
X82850000Y-93350000D03*
X82850000Y-94650000D03*
X82850000Y-95950000D03*
X84000000Y-92050000D03*
X84000000Y-93350000D03*
D31*
X84000000Y-94000000D03*
D30*
X84000000Y-94650000D03*
X84000000Y-95950000D03*
X85150000Y-92050000D03*
X85150000Y-93350000D03*
X85150000Y-94650000D03*
X85150000Y-95950000D03*
G04 #@! TD*
D11*
G04 #@! TO.P,R30,1*
G04 #@! TO.N,3V3*
X93000000Y-96510000D03*
G04 #@! TO.P,R30,2*
G04 #@! TO.N,SW_CLR*
X93000000Y-95490000D03*
G04 #@! TD*
D12*
G04 #@! TO.P,R44,1*
G04 #@! TO.N,+12V_TACH*
X107490000Y-91000000D03*
G04 #@! TO.P,R44,2*
G04 #@! TO.N,TACH_DRAIN*
X108510000Y-91000000D03*
G04 #@! TD*
G04 #@! TO.P,R37,1*
G04 #@! TO.N,3V3*
X98490000Y-97000000D03*
G04 #@! TO.P,R37,2*
G04 #@! TO.N,WDO*
X99510000Y-97000000D03*
G04 #@! TD*
D14*
G04 #@! TO.P,TP21,1,1_1*
G04 #@! TO.N,HALL_TACH*
X136000000Y-98000000D03*
G04 #@! TD*
D32*
G04 #@! TO.P,R39,1*
G04 #@! TO.N,VM24*
X106937500Y-108550000D03*
G04 #@! TO.P,R39,2*
G04 #@! TO.N,TACH_LDO_IN*
X112862500Y-108550000D03*
G04 #@! TD*
D12*
G04 #@! TO.P,R3,1*
G04 #@! TO.N,U3_VCC*
X90490000Y-65800000D03*
G04 #@! TO.P,R3,2*
G04 #@! TO.N,PGOOD*
X91510000Y-65800000D03*
G04 #@! TD*
D14*
G04 #@! TO.P,TP14,1,1_1*
G04 #@! TO.N,WDO*
X77000000Y-53000000D03*
G04 #@! TD*
D12*
G04 #@! TO.P,R35,1*
G04 #@! TO.N,3V3*
X98490000Y-95000000D03*
G04 #@! TO.P,R35,2*
G04 #@! TO.N,WD_EN*
X99510000Y-95000000D03*
G04 #@! TD*
D17*
G04 #@! TO.P,C33,1*
G04 #@! TO.N,TACH_BIAS*
X125525000Y-96000000D03*
G04 #@! TO.P,C33,2*
G04 #@! TO.N,AGND*
X127075000Y-96000000D03*
G04 #@! TD*
D14*
G04 #@! TO.P,TP12,1,1_1*
G04 #@! TO.N,DRVOFF*
X69000000Y-53000000D03*
G04 #@! TD*
D11*
G04 #@! TO.P,R61,1*
G04 #@! TO.N,/SCH-04 Supervisor + Service/USB_CC2*
X115350000Y-63710000D03*
G04 #@! TO.P,R61,2*
G04 #@! TO.N,AGND*
X115350000Y-62690000D03*
G04 #@! TD*
D12*
G04 #@! TO.P,R4,1*
G04 #@! TO.N,3V3*
X84490000Y-77000000D03*
G04 #@! TO.P,R4,2*
G04 #@! TO.N,FG*
X85510000Y-77000000D03*
G04 #@! TD*
D33*
G04 #@! TO.P,NT1,1,1_1*
G04 #@! TO.N,PGND*
X82000000Y-85500000D03*
G04 #@! TO.P,NT1,2,2_2*
G04 #@! TO.N,AGND*
X86000000Y-85500000D03*
G04 #@! TD*
D34*
G04 #@! TO.P,C3,1*
G04 #@! TO.N,VM24*
X77000000Y-99025000D03*
G04 #@! TO.P,C3,2*
G04 #@! TO.N,PGND*
X77000000Y-101975000D03*
G04 #@! TD*
D12*
G04 #@! TO.P,R10,1*
G04 #@! TO.N,SPEED*
X92490000Y-88500000D03*
G04 #@! TO.P,R10,2*
G04 #@! TO.N,AGND*
X93510000Y-88500000D03*
G04 #@! TD*
G04 #@! TO.P,R52,1*
G04 #@! TO.N,3V3*
X122490000Y-105000000D03*
G04 #@! TO.P,R52,2*
G04 #@! TO.N,VREF*
X123510000Y-105000000D03*
G04 #@! TD*
D14*
G04 #@! TO.P,TP25,1,1_1*
G04 #@! TO.N,SPEED*
X79000000Y-73500000D03*
G04 #@! TD*
G04 #@! TO.P,TP29,1,1_1*
G04 #@! TO.N,WD_EN*
X58500000Y-92000000D03*
G04 #@! TD*
G04 #@! TO.P,TP31,1,1_1*
G04 #@! TO.N,TEMP_SCL*
X98000000Y-53000000D03*
G04 #@! TD*
D35*
G04 #@! TO.P,C34,1*
G04 #@! TO.N,TACH_CP1*
X115000000Y-95275000D03*
G04 #@! TO.P,C34,2*
G04 #@! TO.N,AGND*
X115000000Y-92325000D03*
G04 #@! TD*
D14*
G04 #@! TO.P,TP9,1,1_1*
G04 #@! TO.N,PGOOD*
X85000000Y-53000000D03*
G04 #@! TD*
D36*
G04 #@! TO.P,C26,1*
G04 #@! TO.N,TACH_LDO_IN*
X116000000Y-106975000D03*
G04 #@! TO.P,C26,2*
G04 #@! TO.N,AGND*
X116000000Y-104025000D03*
G04 #@! TD*
D12*
G04 #@! TO.P,R17,1*
G04 #@! TO.N,ESP_SCL*
X90190000Y-83000000D03*
G04 #@! TO.P,R17,2*
G04 #@! TO.N,SCL*
X91210000Y-83000000D03*
G04 #@! TD*
D17*
G04 #@! TO.P,C15,1*
G04 #@! TO.N,MCF_DVDD*
X82825000Y-88300000D03*
G04 #@! TO.P,C15,2*
G04 #@! TO.N,AGND*
X84375000Y-88300000D03*
G04 #@! TD*
D14*
G04 #@! TO.P,TP17,1,1_1*
G04 #@! TO.N,NFAULT*
X69500000Y-106500000D03*
G04 #@! TD*
D22*
G04 #@! TO.P,C45,1*
G04 #@! TO.N,/SCH-04 Supervisor + Service/USB_D_MCU_N*
X113700000Y-64380000D03*
G04 #@! TO.P,C45,2*
G04 #@! TO.N,AGND*
X113700000Y-63420000D03*
G04 #@! TD*
D11*
G04 #@! TO.P,R60,1*
G04 #@! TO.N,/SCH-04 Supervisor + Service/USB_CC1*
X116650000Y-63710000D03*
G04 #@! TO.P,R60,2*
G04 #@! TO.N,AGND*
X116650000Y-62690000D03*
G04 #@! TD*
D14*
G04 #@! TO.P,TP26,1,1_1*
G04 #@! TO.N,ALARM*
X75000000Y-73500000D03*
G04 #@! TD*
D12*
G04 #@! TO.P,R49,1*
G04 #@! TO.N,VTACH*
X122490000Y-103000000D03*
G04 #@! TO.P,R49,2*
G04 #@! TO.N,AGND*
X123510000Y-103000000D03*
G04 #@! TD*
D37*
G04 #@! TO.P,Q1,1,G_1*
G04 #@! TO.N,PMOS_GATE*
X64200000Y-80150000D03*
G04 #@! TO.P,Q1,2,D_2*
G04 #@! TO.N,RAW24*
X66500000Y-80150000D03*
D38*
X66500000Y-73850000D03*
D37*
G04 #@! TO.P,Q1,3,S_3*
G04 #@! TO.N,VM24*
X68800000Y-80150000D03*
G04 #@! TD*
D13*
G04 #@! TO.P,D6,1,K_1*
G04 #@! TO.N,MCU_CLEAR_N*
X92350000Y-78500000D03*
G04 #@! TO.P,D6,2,A_2*
G04 #@! TO.N,U5_CLR_OR*
X95650000Y-78500000D03*
G04 #@! TD*
D39*
G04 #@! TO.P,C11,1*
G04 #@! TO.N,U3_VCC*
X84000000Y-58275000D03*
G04 #@! TO.P,C11,2*
G04 #@! TO.N,AGND*
X84000000Y-56725000D03*
G04 #@! TD*
D40*
G04 #@! TO.P,U2,1,GND_1*
G04 #@! TO.N,AGND*
X127515000Y-66250000D03*
D41*
G04 #@! TO.P,U2,2,3V3_2*
G04 #@! TO.N,3V3*
X126245000Y-66250000D03*
G04 #@! TO.P,U2,3,EN_3*
G04 #@! TO.N,ESP_EN*
X124975000Y-66250000D03*
G04 #@! TO.P,U2,4,IO4_4*
G04 #@! TO.N,unconnected-(U2-IO4-Pad4)*
X123705000Y-66250000D03*
G04 #@! TO.P,U2,5,IO5_5*
G04 #@! TO.N,unconnected-(U2-IO5-Pad5)*
X122435000Y-66250000D03*
G04 #@! TO.P,U2,6,IO6_6*
G04 #@! TO.N,TEMP_SDA*
X121165000Y-66250000D03*
G04 #@! TO.P,U2,7,IO7_7*
G04 #@! TO.N,HALL_TACH*
X119895000Y-66250000D03*
G04 #@! TO.P,U2,8,IO0_8*
G04 #@! TO.N,ESP_SDA*
X118625000Y-66250000D03*
G04 #@! TO.P,U2,9,IO1_9*
G04 #@! TO.N,ESP_SCL*
X117355000Y-66250000D03*
G04 #@! TO.P,U2,10,IO8_10*
G04 #@! TO.N,ESP_GPIO8*
X116085000Y-66250000D03*
G04 #@! TO.P,U2,11,IO10_11*
G04 #@! TO.N,ALARM*
X114815000Y-66250000D03*
G04 #@! TO.P,U2,12,IO11_12*
G04 #@! TO.N,TEMP_SCL*
X113545000Y-66250000D03*
G04 #@! TO.P,U2,13,IO12_13*
G04 #@! TO.N,/SCH-04 Supervisor + Service/USB_D_MCU_N*
X112275000Y-66250000D03*
G04 #@! TO.P,U2,14,IO13_14*
G04 #@! TO.N,/SCH-04 Supervisor + Service/USB_D_MCU_P*
X111005000Y-66250000D03*
G04 #@! TO.P,U2,15,IO9_15*
G04 #@! TO.N,ESP_BOOT*
X111005000Y-83750000D03*
G04 #@! TO.P,U2,16,IO18_16*
G04 #@! TO.N,ARM_PULSE*
X112275000Y-83750000D03*
G04 #@! TO.P,U2,17,IO19_17*
G04 #@! TO.N,WD_HEARTBEAT*
X113545000Y-83750000D03*
G04 #@! TO.P,U2,18,IO20_18*
G04 #@! TO.N,FG*
X114815000Y-83750000D03*
G04 #@! TO.P,U2,19,IO21_19*
G04 #@! TO.N,NFAULT*
X116085000Y-83750000D03*
G04 #@! TO.P,U2,20,IO22_20*
G04 #@! TO.N,PGOOD*
X117355000Y-83750000D03*
G04 #@! TO.P,U2,21,IO23_21*
G04 #@! TO.N,WDO*
X118625000Y-83750000D03*
G04 #@! TO.P,U2,22,NC_22*
G04 #@! TO.N,unconnected-(U2-NC-Pad22)*
X119895000Y-83750000D03*
G04 #@! TO.P,U2,23,IO15_23*
G04 #@! TO.N,MCU_CLEAR_N*
X121165000Y-83750000D03*
G04 #@! TO.P,U2,24,RXD0_24*
G04 #@! TO.N,unconnected-(U2-RXD0-Pad24)*
X122435000Y-83750000D03*
G04 #@! TO.P,U2,25,TXD0_25*
G04 #@! TO.N,unconnected-(U2-TXD0-Pad25)*
X123705000Y-83750000D03*
G04 #@! TO.P,U2,26,IO3_26*
G04 #@! TO.N,ESP_DIR*
X124975000Y-83750000D03*
G04 #@! TO.P,U2,27,IO2_27*
G04 #@! TO.N,ESP_SPEED*
X126245000Y-83750000D03*
G04 #@! TO.P,U2,28,GND_28*
G04 #@! TO.N,AGND*
X127515000Y-83750000D03*
D42*
G04 #@! TO.P,U2,29,EPAD_29*
X123045000Y-72495000D03*
X121795000Y-72495000D03*
X120545000Y-72495000D03*
D43*
X122420000Y-73120000D03*
X121170000Y-73120000D03*
D42*
X123045000Y-73745000D03*
X121795000Y-73745000D03*
X120545000Y-73745000D03*
D43*
X122420000Y-74370000D03*
X121170000Y-74370000D03*
D42*
X123045000Y-74995000D03*
X121795000Y-74995000D03*
X120545000Y-74995000D03*
G04 #@! TD*
D18*
G04 #@! TO.P,C20,1*
G04 #@! TO.N,3V3*
X103720000Y-56800000D03*
G04 #@! TO.P,C20,2*
G04 #@! TO.N,AGND*
X104680000Y-56800000D03*
G04 #@! TD*
D44*
G04 #@! TO.P,FID3,*
G04 #@! TO.N,*
X63000000Y-103000000D03*
G04 #@! TD*
D12*
G04 #@! TO.P,R54,1*
G04 #@! TO.N,OVERSPEED_N*
X126490000Y-107000000D03*
G04 #@! TO.P,R54,2*
G04 #@! TO.N,VREF*
X127510000Y-107000000D03*
G04 #@! TD*
D45*
G04 #@! TO.P,RV1,1,1_1*
G04 #@! TO.N,RSCALE_MID*
X131250000Y-87050000D03*
D46*
G04 #@! TO.P,RV1,2,2_2*
G04 #@! TO.N,AGND*
X130000000Y-89950000D03*
D45*
G04 #@! TO.P,RV1,3,3_3*
X128750000Y-87050000D03*
G04 #@! TD*
D27*
G04 #@! TO.P,SW1,1,1_1*
G04 #@! TO.N,ESP_EN*
X89020000Y-67950000D03*
X96980000Y-67950000D03*
G04 #@! TO.P,SW1,2,2_2*
G04 #@! TO.N,AGND*
X89020000Y-72450000D03*
X96980000Y-72450000D03*
G04 #@! TD*
D12*
G04 #@! TO.P,R32,1*
G04 #@! TO.N,SET0*
X96490000Y-93000000D03*
G04 #@! TO.P,R32,2*
G04 #@! TO.N,AGND*
X97510000Y-93000000D03*
G04 #@! TD*
G04 #@! TO.P,R6,1*
G04 #@! TO.N,3V3*
X84490000Y-79000000D03*
G04 #@! TO.P,R6,2*
G04 #@! TO.N,SDA*
X85510000Y-79000000D03*
G04 #@! TD*
D44*
G04 #@! TO.P,FID2,*
G04 #@! TO.N,*
X134150000Y-62000000D03*
G04 #@! TD*
D12*
G04 #@! TO.P,R53,1*
G04 #@! TO.N,VREF*
X124490000Y-105000000D03*
G04 #@! TO.P,R53,2*
G04 #@! TO.N,AGND*
X125510000Y-105000000D03*
G04 #@! TD*
D14*
G04 #@! TO.P,TP28,1,1_1*
G04 #@! TO.N,U7_WDI*
X58500000Y-96000000D03*
G04 #@! TD*
D47*
G04 #@! TO.P,J1,1,Pin_1_1*
G04 #@! TO.N,RAW24*
X56500000Y-77000000D03*
D48*
G04 #@! TO.P,J1,2,Pin_2_2*
G04 #@! TO.N,PGND*
X59500000Y-77000000D03*
G04 #@! TD*
D18*
G04 #@! TO.P,C25,1*
G04 #@! TO.N,3V3*
X104820000Y-95700000D03*
G04 #@! TO.P,C25,2*
G04 #@! TO.N,AGND*
X105780000Y-95700000D03*
G04 #@! TD*
D12*
G04 #@! TO.P,R50,1*
G04 #@! TO.N,3V3*
X124490000Y-103000000D03*
G04 #@! TO.P,R50,2*
G04 #@! TO.N,OVERSPEED_N*
X125510000Y-103000000D03*
G04 #@! TD*
G04 #@! TO.P,R16,1*
G04 #@! TO.N,ESP_SDA*
X87990000Y-83000000D03*
G04 #@! TO.P,R16,2*
G04 #@! TO.N,SDA*
X89010000Y-83000000D03*
G04 #@! TD*
D23*
G04 #@! TO.P,C27,1*
G04 #@! TO.N,TACH_LDO_IN*
X114150000Y-101000000D03*
G04 #@! TO.P,C27,2*
G04 #@! TO.N,AGND*
X116050000Y-101000000D03*
G04 #@! TD*
D49*
G04 #@! TO.P,U6,1,C_1*
G04 #@! TO.N,AGND*
X100100000Y-87025000D03*
G04 #@! TO.P,U6,2,D_2*
G04 #@! TO.N,3V3*
X100100000Y-87675000D03*
G04 #@! TO.P,U6,3,~{Q}_3*
G04 #@! TO.N,unconnected-(U6-~{Q}-Pad3)*
X100100000Y-88325000D03*
G04 #@! TO.P,U6,4,GND_4*
G04 #@! TO.N,AGND*
X100100000Y-88975000D03*
G04 #@! TO.P,U6,5,Q_5*
G04 #@! TO.N,OS_LOCK_OK*
X103900000Y-88975000D03*
G04 #@! TO.P,U6,6,~{CLR}_6*
G04 #@! TO.N,OVERSPEED_N*
X103900000Y-88325000D03*
G04 #@! TO.P,U6,7,~{PRE}_7*
G04 #@! TO.N,U6_PRE_BUF*
X103900000Y-87675000D03*
G04 #@! TO.P,U6,8,VCC_8*
G04 #@! TO.N,3V3*
X103900000Y-87025000D03*
G04 #@! TD*
D11*
G04 #@! TO.P,R31,1*
G04 #@! TO.N,3V3*
X95000000Y-96510000D03*
G04 #@! TO.P,R31,2*
G04 #@! TO.N,U6_PRE_RC*
X95000000Y-95490000D03*
G04 #@! TD*
D14*
G04 #@! TO.P,TP30,1,1_1*
G04 #@! TO.N,TEMP_SDA*
X94000000Y-53000000D03*
G04 #@! TD*
G04 #@! TO.P,TP13,1,1_1*
G04 #@! TO.N,WD_HEARTBEAT*
X73000000Y-53000000D03*
G04 #@! TD*
D12*
G04 #@! TO.P,R28,1*
G04 #@! TO.N,MCF_AVDD*
X88490000Y-97500000D03*
G04 #@! TO.P,R28,2*
G04 #@! TO.N,DRVOFF*
X89510000Y-97500000D03*
G04 #@! TD*
G04 #@! TO.P,R36,1*
G04 #@! TO.N,WD_HEARTBEAT*
X96490000Y-97000000D03*
G04 #@! TO.P,R36,2*
G04 #@! TO.N,U7_WDI*
X97510000Y-97000000D03*
G04 #@! TD*
D14*
G04 #@! TO.P,TP6,1,1_1*
G04 #@! TO.N,+12V_TACH*
X136000000Y-88000000D03*
G04 #@! TD*
D12*
G04 #@! TO.P,R48,1*
G04 #@! TO.N,VTACH_RAW*
X120490000Y-103000000D03*
G04 #@! TO.P,R48,2*
G04 #@! TO.N,RSCALE_MID*
X121510000Y-103000000D03*
G04 #@! TD*
D14*
G04 #@! TO.P,TP11,1,1_1*
G04 #@! TO.N,U5_Q*
X65000000Y-53000000D03*
G04 #@! TD*
D12*
G04 #@! TO.P,R40,1*
G04 #@! TO.N,+12V_TACH*
X108290000Y-101000000D03*
G04 #@! TO.P,R40,2*
G04 #@! TO.N,TACH_FB*
X109310000Y-101000000D03*
G04 #@! TD*
D11*
G04 #@! TO.P,R29,1*
G04 #@! TO.N,3V3*
X91000000Y-96510000D03*
G04 #@! TO.P,R29,2*
G04 #@! TO.N,U5_CLR_OR*
X91000000Y-95490000D03*
G04 #@! TD*
D44*
G04 #@! TO.P,FID1,*
G04 #@! TO.N,*
X125000000Y-53850000D03*
G04 #@! TD*
D12*
G04 #@! TO.P,R9,1*
G04 #@! TO.N,DIR*
X90490000Y-87000000D03*
G04 #@! TO.P,R9,2*
G04 #@! TO.N,AGND*
X91510000Y-87000000D03*
G04 #@! TD*
D14*
G04 #@! TO.P,TP27,1,1_1*
G04 #@! TO.N,WD_MR*
X52000000Y-97000000D03*
G04 #@! TD*
G04 #@! TO.P,TP2,1,1_1*
G04 #@! TO.N,VM24*
X52000000Y-66000000D03*
G04 #@! TD*
D50*
G04 #@! TO.P,C13,1*
G04 #@! TO.N,MCF_CPH*
X81050000Y-89150000D03*
G04 #@! TO.P,C13,2*
G04 #@! TO.N,MCF_CPL*
X79150000Y-89150000D03*
G04 #@! TD*
D34*
G04 #@! TO.P,C28,1*
G04 #@! TO.N,+12V_TACH*
X105800000Y-101025000D03*
G04 #@! TO.P,C28,2*
G04 #@! TO.N,AGND*
X105800000Y-103975000D03*
G04 #@! TD*
D51*
G04 #@! TO.P,U8,1,TACH+_1*
G04 #@! TO.N,LM_TACHIN*
X118525000Y-92190000D03*
G04 #@! TO.P,U8,2,CP1_2*
G04 #@! TO.N,TACH_CP1*
X118525000Y-93460000D03*
G04 #@! TO.P,U8,3,CP2_3*
G04 #@! TO.N,VTACH_RAW*
X118525000Y-94730000D03*
G04 #@! TO.P,U8,4,IN+_4*
X118525000Y-96000000D03*
G04 #@! TO.P,U8,5,EMIT_5*
G04 #@! TO.N,VTACH*
X118525000Y-97270000D03*
G04 #@! TO.P,U8,6,NC_6*
G04 #@! TO.N,unconnected-(U8-NC-Pad6)*
X118525000Y-98540000D03*
G04 #@! TO.P,U8,7,NC_7*
G04 #@! TO.N,unconnected-(U8-NC-Pad7)*
X118525000Y-99810000D03*
G04 #@! TO.P,U8,8,COL_8*
G04 #@! TO.N,+12V_TACH*
X123475000Y-99810000D03*
G04 #@! TO.P,U8,9,V+_9*
X123475000Y-98540000D03*
G04 #@! TO.P,U8,10,IN-_10*
G04 #@! TO.N,VTACH*
X123475000Y-97270000D03*
G04 #@! TO.P,U8,11,TACH-_11*
G04 #@! TO.N,TACH_BIAS*
X123475000Y-96000000D03*
G04 #@! TO.P,U8,12,GND_12*
G04 #@! TO.N,AGND*
X123475000Y-94730000D03*
G04 #@! TO.P,U8,13,NC_13*
G04 #@! TO.N,unconnected-(U8-NC-Pad13)*
X123475000Y-93460000D03*
G04 #@! TO.P,U8,14,NC_14*
G04 #@! TO.N,unconnected-(U8-NC-Pad14)*
X123475000Y-92190000D03*
G04 #@! TD*
D12*
G04 #@! TO.P,R1,1*
G04 #@! TO.N,PMOS_GATE*
X59990000Y-83500000D03*
G04 #@! TO.P,R1,2*
G04 #@! TO.N,AGND*
X61010000Y-83500000D03*
G04 #@! TD*
D22*
G04 #@! TO.P,C18,1*
G04 #@! TO.N,3V3*
X123000000Y-64280000D03*
G04 #@! TO.P,C18,2*
G04 #@! TO.N,AGND*
X123000000Y-63320000D03*
G04 #@! TD*
D52*
G04 #@! TO.P,L1,1,1_1*
G04 #@! TO.N,BUCK_SW*
X74850000Y-94000000D03*
G04 #@! TO.P,L1,2,2_2*
G04 #@! TO.N,MCF_BUCK*
X70350000Y-94000000D03*
G04 #@! TD*
D13*
G04 #@! TO.P,D7,1,K_1*
G04 #@! TO.N,SW_CLR*
X88350000Y-85000000D03*
G04 #@! TO.P,D7,2,A_2*
G04 #@! TO.N,U5_CLR_OR*
X91650000Y-85000000D03*
G04 #@! TD*
D53*
G04 #@! TO.P,U4,1,OUT_1*
G04 #@! TO.N,+12V_TACH*
X108850000Y-103025000D03*
G04 #@! TO.P,U4,2,FB_2*
G04 #@! TO.N,TACH_FB*
X108850000Y-103675000D03*
G04 #@! TO.P,U4,3,PG_3*
G04 #@! TO.N,OVERSPEED_N*
X108850000Y-104325000D03*
G04 #@! TO.P,U4,4,GND_4*
G04 #@! TO.N,AGND*
X108850000Y-104975000D03*
G04 #@! TO.P,U4,5,EN_5*
G04 #@! TO.N,TACH_LDO_IN*
X113150000Y-104975000D03*
G04 #@! TO.P,U4,6,NC_6*
G04 #@! TO.N,unconnected-(U4-NC-Pad6)*
X113150000Y-104325000D03*
G04 #@! TO.P,U4,7,DELAY_7*
G04 #@! TO.N,TACH_DELAY*
X113150000Y-103675000D03*
G04 #@! TO.P,U4,8,IN_8*
G04 #@! TO.N,TACH_LDO_IN*
X113150000Y-103025000D03*
D54*
G04 #@! TO.P,U4,9,EP_9*
G04 #@! TO.N,AGND*
X111000000Y-104000000D03*
G04 #@! TD*
D55*
G04 #@! TO.P,D9,1,A_1*
G04 #@! TO.N,AGND*
X109062500Y-95050000D03*
G04 #@! TO.P,D9,2,K_2*
G04 #@! TO.N,3V3*
X109062500Y-96950000D03*
G04 #@! TO.P,D9,3,COM_3*
G04 #@! TO.N,TLV_INN*
X110937500Y-96000000D03*
G04 #@! TD*
D49*
G04 #@! TO.P,U5,1,C_1*
G04 #@! TO.N,U5_CLK*
X94100000Y-81025000D03*
G04 #@! TO.P,U5,2,D_2*
G04 #@! TO.N,3V3*
X94100000Y-81675000D03*
G04 #@! TO.P,U5,3,~{Q}_3*
G04 #@! TO.N,unconnected-(U5-~{Q}-Pad3)*
X94100000Y-82325000D03*
G04 #@! TO.P,U5,4,GND_4*
G04 #@! TO.N,AGND*
X94100000Y-82975000D03*
G04 #@! TO.P,U5,5,Q_5*
G04 #@! TO.N,U5_Q*
X97900000Y-82975000D03*
G04 #@! TO.P,U5,6,~{CLR}_6*
G04 #@! TO.N,U5_CLR_BUF*
X97900000Y-82325000D03*
G04 #@! TO.P,U5,7,~{PRE}_7*
G04 #@! TO.N,3V3*
X97900000Y-81675000D03*
G04 #@! TO.P,U5,8,VCC_8*
X97900000Y-81025000D03*
G04 #@! TD*
D12*
G04 #@! TO.P,R34,1*
G04 #@! TO.N,3V3*
X96490000Y-95000000D03*
G04 #@! TO.P,R34,2*
G04 #@! TO.N,WD_MR*
X97510000Y-95000000D03*
G04 #@! TD*
G04 #@! TO.P,R7,1*
G04 #@! TO.N,3V3*
X86690000Y-79000000D03*
G04 #@! TO.P,R7,2*
G04 #@! TO.N,SCL*
X87710000Y-79000000D03*
G04 #@! TD*
D56*
G04 #@! TO.P,J3,1,Pin_1_1*
G04 #@! TO.N,3V3*
X118000000Y-110500000D03*
D57*
G04 #@! TO.P,J3,2,Pin_2_2*
G04 #@! TO.N,HALL_TACH*
X120000000Y-110500000D03*
G04 #@! TO.P,J3,3,Pin_3_3*
G04 #@! TO.N,AGND*
X122000000Y-110500000D03*
G04 #@! TD*
D58*
G04 #@! TO.P,C35,1*
G04 #@! TO.N,VTACH_RAW*
X116000000Y-98950000D03*
G04 #@! TO.P,C35,2*
G04 #@! TO.N,AGND*
X116000000Y-97050000D03*
G04 #@! TD*
D12*
G04 #@! TO.P,R42,1*
G04 #@! TO.N,3V3*
X107490000Y-89000000D03*
G04 #@! TO.P,R42,2*
G04 #@! TO.N,OVERSPEED_N*
X108510000Y-89000000D03*
G04 #@! TD*
D59*
G04 #@! TO.P,J4,A1,GND_A1*
G04 #@! TO.N,AGND*
X115200000Y-57355000D03*
G04 #@! TO.P,J4,A4,VBUS_A4*
G04 #@! TO.N,/SCH-04 Supervisor + Service/USB_VBUS*
X114400000Y-57355000D03*
D60*
G04 #@! TO.P,J4,A5,CC1_A5*
G04 #@! TO.N,/SCH-04 Supervisor + Service/USB_CC1*
X113250000Y-57355000D03*
G04 #@! TO.P,J4,A6,D+_A6*
G04 #@! TO.N,/SCH-04 Supervisor + Service/USB_DP*
X112250000Y-57355000D03*
G04 #@! TO.P,J4,A7,D-_A7*
G04 #@! TO.N,/SCH-04 Supervisor + Service/USB_DN*
X111750000Y-57355000D03*
G04 #@! TO.P,J4,A8,SBU1_A8*
G04 #@! TO.N,unconnected-(J4-SBU1-PadA8)*
X110750000Y-57355000D03*
D59*
G04 #@! TO.P,J4,A9,VBUS_A9*
G04 #@! TO.N,/SCH-04 Supervisor + Service/USB_VBUS*
X109600000Y-57355000D03*
G04 #@! TO.P,J4,A12,GND_A12*
G04 #@! TO.N,AGND*
X108800000Y-57355000D03*
G04 #@! TO.P,J4,B1,GND_B1*
X108800000Y-57355000D03*
G04 #@! TO.P,J4,B4,VBUS_B4*
G04 #@! TO.N,/SCH-04 Supervisor + Service/USB_VBUS*
X109600000Y-57355000D03*
D60*
G04 #@! TO.P,J4,B5,CC2_B5*
G04 #@! TO.N,/SCH-04 Supervisor + Service/USB_CC2*
X110250000Y-57355000D03*
G04 #@! TO.P,J4,B6,D+_B6*
G04 #@! TO.N,/SCH-04 Supervisor + Service/USB_DP*
X111250000Y-57355000D03*
G04 #@! TO.P,J4,B7,D-_B7*
G04 #@! TO.N,/SCH-04 Supervisor + Service/USB_DN*
X112750000Y-57355000D03*
G04 #@! TO.P,J4,B8,SBU2_B8*
G04 #@! TO.N,unconnected-(J4-SBU2-PadB8)*
X113750000Y-57355000D03*
D59*
G04 #@! TO.P,J4,B9,VBUS_B9*
G04 #@! TO.N,/SCH-04 Supervisor + Service/USB_VBUS*
X114400000Y-57355000D03*
G04 #@! TO.P,J4,B12,GND_B12*
G04 #@! TO.N,AGND*
X115200000Y-57355000D03*
D61*
G04 #@! TO.P,J4,SH,SHIELD_SH*
X116320000Y-56780000D03*
D62*
X116320000Y-52600000D03*
D61*
X107680000Y-56780000D03*
D62*
X107680000Y-52600000D03*
G04 #@! TD*
D63*
G04 #@! TO.P,D2,1,K_1*
G04 #@! TO.N,VM24*
X65500000Y-90400000D03*
G04 #@! TO.P,D2,2,A_2*
G04 #@! TO.N,PGND*
X65500000Y-83600000D03*
G04 #@! TD*
D14*
G04 #@! TO.P,TP19,1,1_1*
G04 #@! TO.N,SCL*
X74000000Y-111500000D03*
G04 #@! TD*
D11*
G04 #@! TO.P,R24,1*
G04 #@! TO.N,ARM_PULSE*
X93000000Y-86510000D03*
G04 #@! TO.P,R24,2*
G04 #@! TO.N,U5_CLK*
X93000000Y-85490000D03*
G04 #@! TD*
D64*
G04 #@! TO.P,U13,1,D+_1*
G04 #@! TO.N,/SCH-04 Supervisor + Service/USB_DP*
X111650000Y-60925000D03*
G04 #@! TO.P,U13,2,D-_2*
G04 #@! TO.N,/SCH-04 Supervisor + Service/USB_DN*
X112350000Y-60925000D03*
G04 #@! TO.P,U13,3,GND_3*
G04 #@! TO.N,AGND*
X112000000Y-60075000D03*
G04 #@! TD*
D27*
G04 #@! TO.P,SW2,1,1_1*
G04 #@! TO.N,ESP_BOOT*
X99520000Y-62250000D03*
X107480000Y-62250000D03*
G04 #@! TO.P,SW2,2,2_2*
G04 #@! TO.N,AGND*
X99520000Y-66750000D03*
X107480000Y-66750000D03*
G04 #@! TD*
D11*
G04 #@! TO.P,R26,1*
G04 #@! TO.N,U5_Q*
X91000000Y-90510000D03*
G04 #@! TO.P,R26,2*
G04 #@! TO.N,Q2_GATE*
X91000000Y-89490000D03*
G04 #@! TD*
D14*
G04 #@! TO.P,TP23,1,1_1*
G04 #@! TO.N,VREF*
X127000000Y-111500000D03*
G04 #@! TD*
D13*
G04 #@! TO.P,D1,1,K_1*
G04 #@! TO.N,VM24*
X54850000Y-84500000D03*
G04 #@! TO.P,D1,2,A_2*
G04 #@! TO.N,PMOS_GATE*
X58150000Y-84500000D03*
G04 #@! TD*
D22*
G04 #@! TO.P,C19,1*
G04 #@! TO.N,ESP_EN*
X103000000Y-69480000D03*
G04 #@! TO.P,C19,2*
G04 #@! TO.N,AGND*
X103000000Y-68520000D03*
G04 #@! TD*
D65*
G04 #@! TO.P,J2,1,Pin_1_1*
G04 #@! TO.N,PHASE_W*
X88500000Y-104500000D03*
D66*
G04 #@! TO.P,J2,2,Pin_2_2*
G04 #@! TO.N,PHASE_V*
X85500000Y-104500000D03*
G04 #@! TO.P,J2,3,Pin_3_3*
G04 #@! TO.N,PHASE_U*
X82500000Y-104500000D03*
G04 #@! TD*
D14*
G04 #@! TO.P,TP8,1,1_1*
G04 #@! TO.N,MCF_DVDD*
X66000000Y-111500000D03*
G04 #@! TD*
D67*
G04 #@! TO.P,U7,1,SET0_1*
G04 #@! TO.N,SET0*
X100862500Y-95025000D03*
G04 #@! TO.P,U7,2,MR_2*
G04 #@! TO.N,WD_MR*
X100862500Y-95675000D03*
G04 #@! TO.P,U7,3,WDI_3*
G04 #@! TO.N,U7_WDI*
X100862500Y-96325000D03*
G04 #@! TO.P,U7,4,GND_4*
G04 #@! TO.N,AGND*
X100862500Y-96975000D03*
G04 #@! TO.P,U7,5,SET1_5*
G04 #@! TO.N,SET1*
X103137500Y-96975000D03*
G04 #@! TO.P,U7,6,WD-EN_6*
G04 #@! TO.N,WD_EN*
X103137500Y-96325000D03*
G04 #@! TO.P,U7,7,WDO_7*
G04 #@! TO.N,WDO*
X103137500Y-95675000D03*
G04 #@! TO.P,U7,8,VDD_8*
G04 #@! TO.N,3V3*
X103137500Y-95025000D03*
G04 #@! TD*
D68*
G04 #@! TO.P,U9,1,IN+_1*
G04 #@! TO.N,VREF*
X128862500Y-100550000D03*
G04 #@! TO.P,U9,2,V-_2*
G04 #@! TO.N,AGND*
X128862500Y-101500000D03*
G04 #@! TO.P,U9,3,IN-_3*
G04 #@! TO.N,TLV_INN*
X128862500Y-102450000D03*
G04 #@! TO.P,U9,4,OUT_4*
G04 #@! TO.N,OVERSPEED_N*
X131137500Y-102450000D03*
G04 #@! TO.P,U9,5,V+_5*
G04 #@! TO.N,3V3*
X131137500Y-100550000D03*
G04 #@! TD*
D21*
G04 #@! TO.P,C17,1*
G04 #@! TO.N,3V3*
X127025000Y-61500000D03*
G04 #@! TO.P,C17,2*
G04 #@! TO.N,AGND*
X129975000Y-61500000D03*
G04 #@! TD*
D69*
G04 #@! TO.P,U3,1,PGOOD_1*
G04 #@! TO.N,PGOOD*
X84112500Y-60037000D03*
D70*
G04 #@! TO.P,U3,2,EN_2*
G04 #@! TO.N,VM24*
X84100000Y-60850000D03*
G04 #@! TO.P,U3,3,VIN_3*
X84100000Y-61350000D03*
D71*
G04 #@! TO.P,U3,4,VOUT_4*
G04 #@! TO.N,3V3*
X84300000Y-63025000D03*
G04 #@! TO.P,U3,5,SW_5*
G04 #@! TO.N,unconnected-(U3-SW-Pad5)*
X86700000Y-63025000D03*
D70*
G04 #@! TO.P,U3,6,SW_6*
G04 #@! TO.N,unconnected-(U3-SW-Pad6)*
X86900000Y-61350000D03*
G04 #@! TO.P,U3,7,BOOT_7*
G04 #@! TO.N,unconnected-(U3-BOOT-Pad7)*
X86900000Y-60850000D03*
D69*
G04 #@! TO.P,U3,8,VCC_8*
G04 #@! TO.N,U3_VCC*
X86887500Y-60037000D03*
D72*
G04 #@! TO.P,U3,9,BIAS_9*
G04 #@! TO.N,3V3*
X86000000Y-59950000D03*
D73*
G04 #@! TO.P,U3,10,GND_10*
G04 #@! TO.N,AGND*
X85500000Y-60325000D03*
D72*
G04 #@! TO.P,U3,11,MODE/SYNC_11*
X85000000Y-59950000D03*
G04 #@! TD*
D14*
G04 #@! TO.P,TP22,1,1_1*
G04 #@! TO.N,VTACH*
X136000000Y-102000000D03*
G04 #@! TD*
D11*
G04 #@! TO.P,R27,1*
G04 #@! TO.N,Q2_GATE*
X91000000Y-92510000D03*
G04 #@! TO.P,R27,2*
G04 #@! TO.N,AGND*
X91000000Y-91490000D03*
G04 #@! TD*
D14*
G04 #@! TO.P,TP16,1,1_1*
G04 #@! TO.N,MCF_EXT_WD*
X81000000Y-53000000D03*
G04 #@! TD*
D13*
G04 #@! TO.P,D5,1,K_1*
G04 #@! TO.N,OS_LOCK_OK*
X97850000Y-75000000D03*
G04 #@! TO.P,D5,2,A_2*
G04 #@! TO.N,U5_CLR_OR*
X101150000Y-75000000D03*
G04 #@! TD*
D11*
G04 #@! TO.P,R59,1*
G04 #@! TO.N,/SCH-04 Supervisor + Service/USB_D_MCU_N*
X112300000Y-64410000D03*
G04 #@! TO.P,R59,2*
G04 #@! TO.N,/SCH-04 Supervisor + Service/USB_DN*
X112300000Y-63390000D03*
G04 #@! TD*
D12*
G04 #@! TO.P,R43,1*
G04 #@! TO.N,HALL_TACH*
X109490000Y-89000000D03*
G04 #@! TO.P,R43,2*
G04 #@! TO.N,3V3*
X110510000Y-89000000D03*
G04 #@! TD*
G04 #@! TO.P,R2,1*
G04 #@! TO.N,VM24*
X59990000Y-85500000D03*
G04 #@! TO.P,R2,2*
G04 #@! TO.N,PMOS_GATE*
X61010000Y-85500000D03*
G04 #@! TD*
D14*
G04 #@! TO.P,TP3,1,1_1*
G04 #@! TO.N,PGND*
X52000000Y-85000000D03*
G04 #@! TD*
D22*
G04 #@! TO.P,C24,1*
G04 #@! TO.N,3V3*
X103500000Y-100480000D03*
G04 #@! TO.P,C24,2*
G04 #@! TO.N,AGND*
X103500000Y-99520000D03*
G04 #@! TD*
D74*
G04 #@! TO.P,C16,1*
G04 #@! TO.N,MCF_BUCK*
X67875000Y-94000000D03*
G04 #@! TO.P,C16,2*
G04 #@! TO.N,AGND*
X64925000Y-94000000D03*
G04 #@! TD*
D14*
G04 #@! TO.P,TP24,1,1_1*
G04 #@! TO.N,SOX*
X83000000Y-73500000D03*
G04 #@! TD*
D36*
G04 #@! TO.P,C4,1*
G04 #@! TO.N,VM24*
X78000000Y-79975000D03*
G04 #@! TO.P,C4,2*
G04 #@! TO.N,PGND*
X78000000Y-77025000D03*
G04 #@! TD*
D55*
G04 #@! TO.P,Q2,1,G_1*
G04 #@! TO.N,Q2_GATE*
X93062500Y-90050000D03*
G04 #@! TO.P,Q2,2,S_2*
G04 #@! TO.N,AGND*
X93062500Y-91950000D03*
G04 #@! TO.P,Q2,3,D_3*
G04 #@! TO.N,DRVOFF*
X94937500Y-91000000D03*
G04 #@! TD*
D21*
G04 #@! TO.P,C9,1*
G04 #@! TO.N,3V3*
X90025000Y-59000000D03*
G04 #@! TO.P,C9,2*
G04 #@! TO.N,AGND*
X92975000Y-59000000D03*
G04 #@! TD*
D12*
G04 #@! TO.P,R19,1*
G04 #@! TO.N,3V3*
X97990000Y-59500000D03*
G04 #@! TO.P,R19,2*
G04 #@! TO.N,TEMP_SDA*
X99010000Y-59500000D03*
G04 #@! TD*
D14*
G04 #@! TO.P,TP1,1,1_1*
G04 #@! TO.N,RAW24*
X52000000Y-62000000D03*
G04 #@! TD*
D13*
G04 #@! TO.P,D4,1,K_1*
G04 #@! TO.N,WDO*
X92850000Y-75000000D03*
G04 #@! TO.P,D4,2,A_2*
G04 #@! TO.N,U5_CLR_OR*
X96150000Y-75000000D03*
G04 #@! TD*
D39*
G04 #@! TO.P,C29,1*
G04 #@! TO.N,+12V_TACH*
X125800000Y-101275000D03*
G04 #@! TO.P,C29,2*
G04 #@! TO.N,AGND*
X125800000Y-99725000D03*
G04 #@! TD*
D12*
G04 #@! TO.P,R13,1*
G04 #@! TO.N,3V3*
X107490000Y-69000000D03*
G04 #@! TO.P,R13,2*
G04 #@! TO.N,ESP_GPIO8*
X108510000Y-69000000D03*
G04 #@! TD*
D25*
G04 #@! TO.P,C5,1*
G04 #@! TO.N,VM24*
X77500000Y-95225000D03*
G04 #@! TO.P,C5,2*
G04 #@! TO.N,PGND*
X77500000Y-96775000D03*
G04 #@! TD*
D12*
G04 #@! TO.P,R45,1*
G04 #@! TO.N,TACH_DRAIN*
X109490000Y-91000000D03*
G04 #@! TO.P,R45,2*
G04 #@! TO.N,LM_TACHIN*
X110510000Y-91000000D03*
G04 #@! TD*
D75*
G04 #@! TO.N,3V3*
X56850000Y-85900000D03*
D76*
X104990000Y-69000000D03*
X86690000Y-79000000D03*
D75*
X102000000Y-87350000D03*
D76*
X99990000Y-69000000D03*
X91000000Y-96510000D03*
X100490000Y-59500000D03*
X109062500Y-96950000D03*
X122490000Y-105000000D03*
X123000000Y-64280000D03*
X131137500Y-100550000D03*
X98490000Y-97000000D03*
X119750000Y-107625000D03*
X104820000Y-95700000D03*
D75*
X89525000Y-63000000D03*
D76*
X97500000Y-99480000D03*
X132840000Y-99259999D03*
D75*
X90025000Y-59000000D03*
X76700000Y-83100000D03*
D76*
X86424861Y-58951406D03*
X107490000Y-69000000D03*
X95000000Y-96510000D03*
D75*
X96300000Y-81675000D03*
D76*
X103720000Y-56800000D03*
X107490000Y-89000000D03*
X97990000Y-59500000D03*
X84490000Y-79000000D03*
X98490000Y-95000000D03*
X94837500Y-101350000D03*
D75*
X56850000Y-88050000D03*
X84300000Y-63025000D03*
D76*
X86690000Y-77000000D03*
X104490000Y-76500000D03*
D75*
X126245000Y-66250000D03*
D76*
X103150000Y-94500000D03*
X84490000Y-77000000D03*
X96490000Y-95000000D03*
D75*
X127025000Y-61500000D03*
D76*
G04 #@! TO.N,ESP_EN*
X93550000Y-68750000D03*
X95450000Y-68700000D03*
G04 #@! TO.N,WD_HEARTBEAT*
X83050000Y-51500000D03*
X113150000Y-82250000D03*
X95650000Y-60100000D03*
G04 #@! TO.N,MCF_EXT_WD*
X87100000Y-88800000D03*
G04 #@! TO.N,PGOOD*
X91510000Y-65800000D03*
X84112500Y-60037000D03*
X104350000Y-82000000D03*
X87850000Y-75000000D03*
G04 #@! TO.N,U5_CLR_OR*
X96995558Y-85470558D03*
X101150000Y-77425000D03*
X91150000Y-76350000D03*
X91058058Y-98658058D03*
X92089860Y-99789860D03*
X98725000Y-85150000D03*
X92400000Y-81075000D03*
X101150000Y-75000000D03*
X99383058Y-77916942D03*
X91000000Y-95490000D03*
X94185372Y-101981178D03*
X94800000Y-76200000D03*
G04 #@! TO.N,SDA*
X84338058Y-81488058D03*
X87700000Y-78000000D03*
X89611942Y-80261942D03*
X90228859Y-92907871D03*
X79850000Y-110900000D03*
X88950000Y-89150000D03*
D75*
G04 #@! TO.N,VM24*
X79750000Y-95750000D03*
X90250000Y-110900000D03*
X89150000Y-112000000D03*
X60900000Y-66900000D03*
X68800000Y-77700000D03*
X79750000Y-97500000D03*
X106937500Y-108550000D03*
X65500000Y-90400000D03*
X60075000Y-66075000D03*
X68800000Y-76750000D03*
X54850000Y-84500000D03*
X54350000Y-68350000D03*
X73550000Y-62450000D03*
X59990000Y-85500000D03*
X53550000Y-67550000D03*
X79750000Y-99250000D03*
X106950000Y-107500000D03*
X74375000Y-61625000D03*
D76*
G04 #@! TO.N,PGND*
X83101162Y-98178720D03*
D75*
X80500000Y-85500000D03*
D76*
X81541060Y-96925000D03*
D75*
X78000000Y-77025000D03*
X77000000Y-102800000D03*
X77500000Y-96775000D03*
X65500000Y-83600000D03*
X77000000Y-101150000D03*
D76*
X84898867Y-98178736D03*
D75*
G04 #@! TO.N,AGND*
X127515000Y-66250000D03*
X130000000Y-89950000D03*
D76*
X93062500Y-91950000D03*
X123475000Y-94730000D03*
X127075000Y-96000000D03*
D77*
X112000000Y-59400000D03*
D76*
X125800000Y-99725000D03*
X110510000Y-93000000D03*
X97510000Y-93000000D03*
X109062500Y-95050000D03*
X115950000Y-89437500D03*
X100850000Y-97500000D03*
X105780000Y-95700000D03*
D75*
X82275000Y-57275000D03*
X100000000Y-57500000D03*
D76*
X97500000Y-98520000D03*
X111410000Y-101000000D03*
X95400000Y-82450000D03*
X96000000Y-85490000D03*
X109600000Y-62700000D03*
X125510000Y-105000000D03*
X99510000Y-93000000D03*
X128862500Y-101500000D03*
D75*
X115000000Y-92325000D03*
D76*
X108850000Y-105500000D03*
D75*
X95520000Y-112250000D03*
X92475000Y-63000000D03*
D76*
X103500000Y-99520000D03*
D75*
X96980000Y-72450000D03*
X89020000Y-72450000D03*
D77*
X116000000Y-61600000D03*
D76*
X100150000Y-103150000D03*
D75*
X61010000Y-83500000D03*
D76*
X94800000Y-103500000D03*
X112500000Y-100520000D03*
D75*
X105800000Y-103975000D03*
D76*
X113700000Y-62700000D03*
X103000000Y-68520000D03*
D75*
X85050000Y-83950000D03*
D76*
X89175000Y-93750000D03*
D75*
X98750000Y-88000000D03*
X129975000Y-61500000D03*
X111000000Y-104000000D03*
D76*
X91000000Y-91490000D03*
X85625000Y-58936382D03*
X123510000Y-103000000D03*
X84000000Y-56725000D03*
X116000000Y-97050000D03*
X123000000Y-63320000D03*
X89510000Y-87000000D03*
D75*
X107480000Y-66750000D03*
X92975000Y-59000000D03*
X116000000Y-104025000D03*
D76*
X84375000Y-88300000D03*
X104680000Y-56800000D03*
X133780000Y-100200000D03*
X91510000Y-87000000D03*
D75*
X64925000Y-94000000D03*
X103480000Y-112250000D03*
D76*
X93510000Y-88500000D03*
X106200000Y-86720000D03*
X99200000Y-81020000D03*
X81950000Y-61000000D03*
X104950000Y-85000000D03*
D75*
X127515000Y-83750000D03*
X128750000Y-87050000D03*
X99520000Y-66750000D03*
D76*
X116050000Y-101000000D03*
G04 #@! TO.N,+12V_TACH*
X108850000Y-102500000D03*
X108025000Y-98800000D03*
X120500000Y-100200000D03*
X107490000Y-91000000D03*
X108290000Y-101000000D03*
D75*
X105800000Y-101025000D03*
D76*
X107490000Y-93000000D03*
X133450000Y-93000000D03*
G04 #@! TO.N,/SCH-04 Supervisor + Service/USB_CC2*
X110650000Y-60100000D03*
X113350000Y-60050000D03*
G04 #@! TO.N,OVERSPEED_N*
X108510000Y-89000000D03*
X117050000Y-90100000D03*
G04 #@! TO.N,MCU_CLEAR_N*
X117400000Y-79000000D03*
X119550000Y-81150000D03*
G04 #@! TO.N,U6_PRE_RC*
X97000000Y-88200000D03*
X107650000Y-82000000D03*
X103050000Y-85000000D03*
X95000000Y-95490000D03*
X97008058Y-89991942D03*
X95660369Y-97069571D03*
G04 #@! TO.N,U6_PRE_BUF*
X105050000Y-93250000D03*
X105154265Y-91204265D03*
X105300000Y-88200000D03*
X101850000Y-103150000D03*
G04 #@! TO.N,TEMP_SCL*
X107525000Y-64525000D03*
X103450000Y-60450000D03*
G04 #@! TO.N,FG*
X94650000Y-84650000D03*
X90968175Y-93280000D03*
X83550000Y-81650000D03*
X89050000Y-92375000D03*
G04 #@! TO.N,HALL_TACH*
X131800000Y-91575000D03*
X114050000Y-89437500D03*
X119850000Y-79275000D03*
X116643750Y-86843750D03*
X109490000Y-89000000D03*
G04 #@! TO.N,TACH_DRAIN*
X113744877Y-87445331D03*
X115000000Y-87562500D03*
G04 #@! TO.N,TACH_BIAS*
X112425000Y-92050000D03*
X111150000Y-92050000D03*
G04 #@! TO.N,TACH_DELAY*
X114700000Y-105300000D03*
X112500000Y-101480000D03*
G04 #@! TO.N,MCF_AVDD*
X87625000Y-93750000D03*
G04 #@! TO.N,ESP_BOOT*
X106010000Y-70850000D03*
X111000000Y-82150000D03*
G04 #@! TO.N,VTACH*
X123475000Y-97270000D03*
X118525000Y-97270000D03*
X122000000Y-100900000D03*
X122490000Y-103000000D03*
X122000000Y-99500000D03*
X120490000Y-105000000D03*
G04 #@! TO.N,TLV_INN*
X126974721Y-104604999D03*
X128862500Y-102450000D03*
G04 #@! TO.N,NFAULT*
X117750000Y-85300000D03*
X111600000Y-78300000D03*
X120850000Y-98050000D03*
X114750000Y-81450000D03*
X120850000Y-96450000D03*
G04 #@! TO.N,U5_CLR_BUF*
X94837500Y-102650000D03*
X96600000Y-82700000D03*
G04 #@! TO.N,SPEED*
X82338281Y-77504396D03*
X88186698Y-81817651D03*
X89650000Y-90750000D03*
G04 #@! TO.N,SET1*
X107325000Y-94675000D03*
X98490000Y-93000000D03*
G04 #@! TO.N,TEMP_SDA*
X117550000Y-58700000D03*
X99010000Y-59500000D03*
G04 #@! TO.N,SW_CLR*
X89941942Y-86241942D03*
X92325000Y-92909557D03*
G04 #@! TO.N,MCF_DVDD*
X78150000Y-89634814D03*
X82825000Y-88300000D03*
D75*
G04 #@! TO.N,BUCK_SW*
X79775000Y-92400000D03*
X74850000Y-94000000D03*
D76*
G04 #@! TO.N,MCF_CPL*
X79150000Y-89250000D03*
X80025000Y-93896206D03*
G04 #@! TO.N,MCF_CPH*
X81050000Y-89150000D03*
X80649662Y-94396002D03*
G04 #@! TO.N,DRVOFF*
X93525000Y-92954192D03*
X95950000Y-89500000D03*
X89240000Y-95950000D03*
X87740000Y-95950000D03*
G04 #@! TO.N,SCL*
X88300000Y-89750000D03*
X87296573Y-91575001D03*
X82852082Y-108697918D03*
X91210000Y-83000000D03*
X87710000Y-79000000D03*
G04 #@! TO.N,SOX*
X83600000Y-84000000D03*
X85850000Y-87768629D03*
G04 #@! TO.N,ALARM*
X92900000Y-66700000D03*
X83725000Y-89326473D03*
X108900000Y-67775000D03*
X82600000Y-83850000D03*
G04 #@! TO.N,WDO*
X117112500Y-81237500D03*
X114162500Y-78287500D03*
G04 #@! TO.N,WD_EN*
X70650000Y-108050000D03*
X79800000Y-108050000D03*
X104300000Y-96450000D03*
X99500000Y-95000000D03*
X67300000Y-108050000D03*
G04 #@! TO.N,VREF*
X128862500Y-100550000D03*
X124490000Y-105000000D03*
X127510000Y-107000000D03*
G04 #@! TO.N,ESP_SCL*
X106983058Y-74575000D03*
X96150000Y-77100000D03*
X111500000Y-73150000D03*
X91250000Y-82000000D03*
G04 #@! TO.N,ESP_SDA*
X112551195Y-72937690D03*
X106650000Y-78800000D03*
X107700000Y-77700000D03*
X96850000Y-78800000D03*
X92200000Y-82550000D03*
X88980000Y-83820000D03*
X104800000Y-78800000D03*
X90350000Y-83850000D03*
G04 #@! TO.N,RSCALE_MID*
X126850000Y-99500000D03*
X121510000Y-103000000D03*
X132050000Y-95650000D03*
X128100000Y-90200000D03*
G04 #@! TO.N,U7_WDI*
X97510000Y-97000000D03*
X66200000Y-98700000D03*
X68150000Y-100200000D03*
G04 #@! TO.N,OS_LOCK_OK*
X97450000Y-76150000D03*
X102650000Y-88600000D03*
G04 #@! TO.N,U5_Q*
X83358058Y-69991942D03*
X85800000Y-70250000D03*
X95750000Y-83400000D03*
X93100000Y-90850000D03*
G04 #@! TO.N,WD_MR*
X108844465Y-98024283D03*
X97948138Y-94325000D03*
X106877835Y-99003722D03*
X93111117Y-107000000D03*
G04 #@! TO.N,LM_TACHIN*
X110510000Y-91000000D03*
X113642956Y-91715928D03*
G04 #@! TD*
G04 #@! TO.N,/SCH-04 Supervisor + Service/USB_D_MCU_P*
D78*
X111000000Y-66245000D02*
X111005000Y-66250000D01*
X110970000Y-64380000D02*
X111000000Y-64410000D01*
X111000000Y-64410000D02*
X111000000Y-66245000D01*
X109600000Y-64380000D02*
X110970000Y-64380000D01*
G04 #@! TO.N,/SCH-04 Supervisor + Service/USB_DP*
X112250000Y-57355000D02*
X112250000Y-56747590D01*
X111650000Y-62259999D02*
X111000000Y-62909999D01*
X111517590Y-56480000D02*
X111250000Y-56747590D01*
X111250000Y-57355000D02*
X111250000Y-60525000D01*
X111250000Y-56747590D02*
X111250000Y-57355000D01*
X111650000Y-60925000D02*
X111650000Y-62259999D01*
X111982410Y-56480000D02*
X111517590Y-56480000D01*
X112250000Y-56747590D02*
X111982410Y-56480000D01*
X111250000Y-60525000D02*
X111650000Y-60925000D01*
X111000000Y-62909999D02*
X111000000Y-63390000D01*
G04 #@! TO.N,3V3*
D79*
X126335828Y-102175000D02*
X127200000Y-101310828D01*
X105890001Y-87680000D02*
X106200000Y-87680000D01*
D78*
X86424861Y-58985050D02*
X86424861Y-58951406D01*
D79*
X127200000Y-100300000D02*
X127800000Y-99700000D01*
X98500000Y-100480000D02*
X97500000Y-99480000D01*
X105235001Y-87025000D02*
X105890001Y-87680000D01*
X101837500Y-100492500D02*
X101850000Y-100480000D01*
X103900000Y-87025000D02*
X105235001Y-87025000D01*
X123300000Y-104000000D02*
X122490000Y-104810000D01*
X127800000Y-99700000D02*
X130287500Y-99700000D01*
X117125000Y-111375000D02*
X106907412Y-111375000D01*
D80*
X86424861Y-59020405D02*
X86424861Y-58951406D01*
D79*
X122490000Y-104810000D02*
X122490000Y-105000000D01*
X101675000Y-87675000D02*
X102000000Y-87350000D01*
D81*
X103137500Y-94512500D02*
X103150000Y-94500000D01*
D79*
X124490000Y-103319999D02*
X123809999Y-104000000D01*
D81*
X102112500Y-55525000D02*
X102975000Y-55525000D01*
D79*
X106907412Y-111375000D02*
X105250000Y-109717588D01*
X102325000Y-87025000D02*
X103900000Y-87025000D01*
X99011734Y-81980000D02*
X99200000Y-81980000D01*
X110510000Y-89000000D02*
X110510000Y-88680001D01*
D81*
X103720000Y-56270000D02*
X103720000Y-56800000D01*
D80*
X86000000Y-59445266D02*
X86424861Y-59020405D01*
X86000000Y-59950000D02*
X86000000Y-59445266D01*
D79*
X118000000Y-110500000D02*
X117125000Y-111375000D01*
X103200000Y-105150000D02*
X103200000Y-102712500D01*
X107490000Y-89000000D02*
X107210001Y-89000000D01*
X97900000Y-81025000D02*
X97900000Y-81675000D01*
X105250000Y-109717588D02*
X105250000Y-107200000D01*
X130287500Y-99700000D02*
X131137500Y-100550000D01*
X94100000Y-81675000D02*
X96300000Y-81675000D01*
X118000000Y-110500000D02*
X118000000Y-109375000D01*
X124490000Y-103000000D02*
X124490000Y-103319999D01*
X110510000Y-88680001D02*
X109509999Y-87680000D01*
X123809999Y-104000000D02*
X123300000Y-104000000D01*
X132820000Y-100200000D02*
X132820000Y-99279999D01*
X105250000Y-107200000D02*
X103200000Y-105150000D01*
X124490000Y-103000000D02*
X124490000Y-102868944D01*
X98706734Y-81675000D02*
X99011734Y-81980000D01*
X118000000Y-109375000D02*
X119750000Y-107625000D01*
X103500000Y-100480000D02*
X101850000Y-100480000D01*
X96300000Y-81675000D02*
X97900000Y-81675000D01*
X101837500Y-101350000D02*
X101837500Y-100492500D01*
X93000000Y-96510000D02*
X95000000Y-96510000D01*
X132820000Y-99279999D02*
X132840000Y-99259999D01*
X124490000Y-102868944D02*
X125183944Y-102175000D01*
X101850000Y-100480000D02*
X98500000Y-100480000D01*
D81*
X103137500Y-95025000D02*
X103137500Y-94512500D01*
D79*
X109509999Y-87680000D02*
X106200000Y-87680000D01*
X102000000Y-87350000D02*
X102325000Y-87025000D01*
X100100000Y-87675000D02*
X101675000Y-87675000D01*
X125183944Y-102175000D02*
X126335828Y-102175000D01*
X127200000Y-101310828D02*
X127200000Y-100300000D01*
X97900000Y-81675000D02*
X98706734Y-81675000D01*
X103200000Y-102712500D02*
X101837500Y-101350000D01*
X107210001Y-89000000D02*
X105890001Y-87680000D01*
X56850000Y-85900000D02*
X56850000Y-88050000D01*
D81*
X102975000Y-55525000D02*
X103720000Y-56270000D01*
G04 #@! TO.N,ESP_EN*
D80*
X104143274Y-58600000D02*
X104143274Y-60640610D01*
X89550000Y-67950000D02*
X89020000Y-67950000D01*
X124975000Y-66250000D02*
X124975000Y-63718274D01*
X96980000Y-63044900D02*
X96980000Y-67950000D01*
X96200000Y-67950000D02*
X95450000Y-68700000D01*
X99960000Y-67950000D02*
X101010000Y-69000000D01*
X96980000Y-67950000D02*
X96200000Y-67950000D01*
X93550000Y-68750000D02*
X90350000Y-68750000D01*
X104143274Y-60640610D02*
X103683884Y-61100000D01*
X116661726Y-55405000D02*
X107338274Y-55405000D01*
X107338274Y-55405000D02*
X104143274Y-58600000D01*
X124975000Y-63718274D02*
X116661726Y-55405000D01*
X101490000Y-69480000D02*
X103000000Y-69480000D01*
X90350000Y-68750000D02*
X89550000Y-67950000D01*
X101010000Y-69000000D02*
X101490000Y-69480000D01*
X103683884Y-61100000D02*
X98924900Y-61100000D01*
X98924900Y-61100000D02*
X96980000Y-63044900D01*
X96980000Y-67950000D02*
X99960000Y-67950000D01*
G04 #@! TO.N,WD_HEARTBEAT*
D78*
X113545000Y-85205000D02*
X113545000Y-83750000D01*
D80*
X96490000Y-97000000D02*
X95865000Y-96375000D01*
X103200000Y-92350000D02*
X104000000Y-91550000D01*
D78*
X113545000Y-83750000D02*
X113545000Y-82645000D01*
X111450000Y-88998924D02*
X111450000Y-87300000D01*
X95650000Y-60100000D02*
X95650000Y-56898960D01*
X95650000Y-56898960D02*
X90251040Y-51500000D01*
X104000000Y-91510000D02*
X105130000Y-90380000D01*
D80*
X104000000Y-91550000D02*
X104000000Y-91510000D01*
D78*
X113545000Y-82645000D02*
X113150000Y-82250000D01*
X111450000Y-87300000D02*
X113545000Y-85205000D01*
X108461040Y-89650000D02*
X110798924Y-89650000D01*
X107731040Y-90380000D02*
X108461040Y-89650000D01*
D80*
X95865000Y-96375000D02*
X95865000Y-92650720D01*
D78*
X110798924Y-89650000D02*
X111450000Y-88998924D01*
X90251040Y-51500000D02*
X83050000Y-51500000D01*
X105130000Y-90380000D02*
X107731040Y-90380000D01*
D80*
X96165720Y-92350000D02*
X103200000Y-92350000D01*
X95865000Y-92650720D02*
X96165720Y-92350000D01*
G04 #@! TO.N,MCF_EXT_WD*
X89850000Y-88450000D02*
X90500000Y-87800000D01*
X86400000Y-90500000D02*
X87700000Y-89200000D01*
X87300000Y-88800000D02*
X87700000Y-89200000D01*
X95700000Y-87800000D02*
X98390000Y-90490000D01*
X87700000Y-89200000D02*
X88450000Y-88450000D01*
X88450000Y-88450000D02*
X89850000Y-88450000D01*
X87100000Y-88800000D02*
X87300000Y-88800000D01*
X98390000Y-90490000D02*
X104000000Y-90490000D01*
X86400000Y-91250000D02*
X86400000Y-90500000D01*
X90500000Y-87800000D02*
X95700000Y-87800000D01*
G04 #@! TO.N,PGOOD*
X117355000Y-82755000D02*
X115405000Y-80805000D01*
X115405000Y-80805000D02*
X105545000Y-80805000D01*
X105545000Y-80805000D02*
X104350000Y-82000000D01*
X117355000Y-83750000D02*
X117355000Y-82755000D01*
G04 #@! TO.N,U5_CLR_OR*
X92089860Y-99789860D02*
X91058058Y-98758058D01*
X77050000Y-55700000D02*
X75050000Y-53700000D01*
X97075000Y-74075000D02*
X100225000Y-74075000D01*
X75050000Y-53700000D02*
X75050000Y-51950000D01*
X99875000Y-77425000D02*
X99383058Y-77916942D01*
X94800000Y-76200000D02*
X94800000Y-77650000D01*
X91150000Y-76350000D02*
X91150000Y-75000000D01*
X93213604Y-55700000D02*
X77050000Y-55700000D01*
X91000000Y-95490000D02*
X91000000Y-95481942D01*
X94166550Y-102000000D02*
X94185372Y-101981178D01*
X94300000Y-56786396D02*
X93213604Y-55700000D01*
X98404442Y-85470558D02*
X98725000Y-85150000D01*
X94800000Y-77650000D02*
X95650000Y-78500000D01*
X94300000Y-71850000D02*
X94300000Y-56786396D01*
X96995558Y-85470558D02*
X98404442Y-85470558D01*
X96000000Y-75000000D02*
X94800000Y-76200000D01*
X96150000Y-75000000D02*
X97075000Y-74075000D01*
X91150000Y-75000000D02*
X94300000Y-71850000D01*
D78*
X92800000Y-83850000D02*
X92800000Y-81475000D01*
D80*
X93162500Y-102000000D02*
X94166550Y-102000000D01*
D78*
X91650000Y-85000000D02*
X92800000Y-83850000D01*
D80*
X100225000Y-74075000D02*
X101150000Y-75000000D01*
X75050000Y-51950000D02*
X74200000Y-51100000D01*
X101150000Y-77425000D02*
X99875000Y-77425000D01*
X74200000Y-51100000D02*
X63400000Y-51100000D01*
X91058058Y-98758058D02*
X91058058Y-98658058D01*
D78*
X92800000Y-81475000D02*
X92400000Y-81075000D01*
D80*
X96150000Y-75000000D02*
X96000000Y-75000000D01*
X63400000Y-51100000D02*
X61500000Y-53000000D01*
G04 #@! TO.N,SDA*
D78*
X90058058Y-99223744D02*
X90850000Y-100015686D01*
X88950000Y-91350000D02*
X88950000Y-89150000D01*
X90058058Y-98243844D02*
X90058058Y-99223744D01*
X85510000Y-79000000D02*
X85510000Y-80316116D01*
X89611942Y-81336982D02*
X89611942Y-80261942D01*
X90228859Y-98073043D02*
X90058058Y-98243844D01*
X86400000Y-92250000D02*
X86475000Y-92175000D01*
X86934314Y-110900000D02*
X79850000Y-110900000D01*
X90228859Y-92907871D02*
X90228859Y-98073043D01*
X86475000Y-92175000D02*
X88125000Y-92175000D01*
X88125000Y-92175000D02*
X88950000Y-91350000D01*
X85510000Y-80316116D02*
X84338058Y-81488058D01*
X85510000Y-79000000D02*
X86510000Y-78000000D01*
X89010000Y-83000000D02*
X89010000Y-81938924D01*
X86510000Y-78000000D02*
X87700000Y-78000000D01*
X90850000Y-100015686D02*
X90850000Y-106984314D01*
X90850000Y-106984314D02*
X86934314Y-110900000D01*
X89010000Y-81938924D02*
X89611942Y-81336982D01*
G04 #@! TO.N,VM24*
D82*
X58500000Y-64500000D02*
X60075000Y-66075000D01*
X53550000Y-67550000D02*
X54350000Y-68350000D01*
X68800000Y-80150000D02*
X68800000Y-77700000D01*
X68975000Y-79975000D02*
X68800000Y-80150000D01*
X75025000Y-57500000D02*
X75025000Y-60975000D01*
X78000000Y-79975000D02*
X68975000Y-79975000D01*
X73550000Y-62450000D02*
X74375000Y-61625000D01*
X60075000Y-66075000D02*
X60900000Y-66900000D01*
X75000000Y-61000000D02*
X80050000Y-61000000D01*
X71500000Y-64500000D02*
X73550000Y-62450000D01*
X68800000Y-77700000D02*
X68800000Y-76750000D01*
X75025000Y-60975000D02*
X75000000Y-61000000D01*
X74375000Y-61625000D02*
X75000000Y-61000000D01*
X52000000Y-66000000D02*
X53550000Y-67550000D01*
G04 #@! TO.N,PGND*
D79*
X77000000Y-101975000D02*
X77000000Y-102800000D01*
X77000000Y-101975000D02*
X77000000Y-101150000D01*
D80*
X81600000Y-96866060D02*
X81541060Y-96925000D01*
X83101162Y-98106254D02*
X83250000Y-97957416D01*
X81600000Y-96750000D02*
X81600000Y-96866060D01*
X84750000Y-98029869D02*
X84898867Y-98178736D01*
D83*
X82000000Y-85500000D02*
X80500000Y-85500000D01*
D80*
X84750000Y-97400000D02*
X84750000Y-98029869D01*
X83250000Y-97957416D02*
X83250000Y-97400000D01*
X83101162Y-98178720D02*
X83101162Y-98106254D01*
G04 #@! TO.N,U5_CLK*
D78*
X92380000Y-86828924D02*
X92631076Y-87080000D01*
X93000000Y-85490000D02*
X92380000Y-86110000D01*
X93200000Y-81375001D02*
X93550001Y-81025000D01*
X93550001Y-81025000D02*
X94100000Y-81025000D01*
X92631076Y-87080000D02*
X95430000Y-87080000D01*
X95430000Y-87080000D02*
X96000000Y-86510000D01*
X92380000Y-86110000D02*
X92380000Y-86828924D01*
X93200000Y-85290000D02*
X93200000Y-81375001D01*
X93000000Y-85490000D02*
X93200000Y-85290000D01*
G04 #@! TO.N,AGND*
D81*
X100100000Y-87025000D02*
X99560832Y-87025000D01*
D79*
X108255000Y-57355000D02*
X107680000Y-56780000D01*
X81525000Y-58025000D02*
X81950000Y-58450000D01*
X85850000Y-83950000D02*
X86000000Y-84100000D01*
X113700000Y-63420000D02*
X113700000Y-62700000D01*
D80*
X86400000Y-94250000D02*
X85550000Y-94250000D01*
D79*
X85050000Y-83950000D02*
X85850000Y-83950000D01*
D80*
X81600000Y-91750000D02*
X82550000Y-91750000D01*
D79*
X102050000Y-57500000D02*
X100000000Y-57500000D01*
X81000000Y-57500000D02*
X81525000Y-58025000D01*
X104592500Y-99520000D02*
X103500000Y-99520000D01*
X112000000Y-59400000D02*
X112000000Y-60075000D01*
X77975000Y-57500000D02*
X81000000Y-57500000D01*
D80*
X85000000Y-59950000D02*
X85000000Y-59561382D01*
D79*
X109062500Y-95050000D02*
X104592500Y-99520000D01*
X109600000Y-63420000D02*
X109600000Y-62700000D01*
X115350000Y-62690000D02*
X115350000Y-62250000D01*
X102075000Y-57475000D02*
X102050000Y-57500000D01*
X102112500Y-57475000D02*
X102112500Y-56200000D01*
X108850000Y-104975000D02*
X108850000Y-105500000D01*
D80*
X85500000Y-59061382D02*
X85625000Y-58936382D01*
D79*
X102112500Y-57475000D02*
X102075000Y-57475000D01*
X115200000Y-57355000D02*
X115745000Y-57355000D01*
D81*
X99200000Y-88000000D02*
X98750000Y-88000000D01*
D79*
X82275000Y-57275000D02*
X81525000Y-58025000D01*
D81*
X99200000Y-88624999D02*
X99550001Y-88975000D01*
D79*
X94012500Y-103500000D02*
X94800000Y-103500000D01*
X82825000Y-56725000D02*
X82275000Y-57275000D01*
X99270000Y-99520000D02*
X103500000Y-99520000D01*
X97500000Y-98520000D02*
X98270000Y-98520000D01*
X86000000Y-84100000D02*
X86000000Y-85500000D01*
D81*
X99560832Y-87025000D02*
X99200000Y-87385832D01*
D80*
X85500000Y-60325000D02*
X85500000Y-59061382D01*
X85550000Y-94250000D02*
X85150000Y-94650000D01*
D79*
X81950000Y-58450000D02*
X81950000Y-61000000D01*
X94800000Y-103500000D02*
X99800000Y-103500000D01*
D81*
X99200000Y-88000000D02*
X99200000Y-88624999D01*
D79*
X108800000Y-57355000D02*
X108255000Y-57355000D01*
X100162500Y-103137500D02*
X100150000Y-103150000D01*
X116000000Y-60925000D02*
X116000000Y-61600000D01*
D81*
X99550001Y-88975000D02*
X100100000Y-88975000D01*
D79*
X115350000Y-62250000D02*
X116000000Y-61600000D01*
X100000000Y-57500000D02*
X97887500Y-57500000D01*
D80*
X85000000Y-59561382D02*
X85625000Y-58936382D01*
D79*
X84000000Y-56725000D02*
X82825000Y-56725000D01*
X98270000Y-98520000D02*
X99270000Y-99520000D01*
D81*
X100862500Y-96975000D02*
X100862500Y-97487500D01*
D79*
X93162500Y-102650000D02*
X94012500Y-103500000D01*
D80*
X82550000Y-91750000D02*
X82850000Y-92050000D01*
D79*
X116650000Y-62250000D02*
X116000000Y-61600000D01*
D81*
X99200000Y-87385832D02*
X99200000Y-88000000D01*
D79*
X94875000Y-82975000D02*
X95400000Y-82450000D01*
D81*
X100862500Y-97487500D02*
X100850000Y-97500000D01*
D79*
X115745000Y-57355000D02*
X116320000Y-56780000D01*
X99800000Y-103500000D02*
X100150000Y-103150000D01*
X116650000Y-62690000D02*
X116650000Y-62250000D01*
D80*
X81600000Y-92750000D02*
X82250000Y-92750000D01*
D79*
X100162500Y-102650000D02*
X100162500Y-103137500D01*
D80*
X82250000Y-92750000D02*
X82850000Y-93350000D01*
D79*
X94100000Y-82975000D02*
X94875000Y-82975000D01*
G04 #@! TO.N,+12V_TACH*
D84*
X123085000Y-100200000D02*
X123475000Y-99810000D01*
X127910000Y-98540000D02*
X133450000Y-93000000D01*
X124940000Y-101275000D02*
X123475000Y-99810000D01*
X108850000Y-103025000D02*
X108850000Y-102500000D01*
X120500000Y-100200000D02*
X123085000Y-100200000D01*
X125800000Y-101275000D02*
X124940000Y-101275000D01*
X123475000Y-98540000D02*
X127910000Y-98540000D01*
X123475000Y-98540000D02*
X123475000Y-99810000D01*
G04 #@! TO.N,TACH_FB*
D80*
X110390000Y-101000000D02*
X109310000Y-101000000D01*
X108850000Y-103675000D02*
X108125001Y-103675000D01*
X109575000Y-98800000D02*
X109575000Y-100735000D01*
X109575000Y-100735000D02*
X109310000Y-101000000D01*
X107800000Y-102510000D02*
X109310000Y-101000000D01*
X108125001Y-103675000D02*
X107800000Y-103349999D01*
X107800000Y-103349999D02*
X107800000Y-102510000D01*
G04 #@! TO.N,MCF_BRAKE*
D78*
X84750000Y-89725000D02*
X87475000Y-87000000D01*
X84750000Y-90600000D02*
X84750000Y-89725000D01*
X87475000Y-87000000D02*
X88490000Y-87000000D01*
G04 #@! TO.N,/SCH-04 Supervisor + Service/USB_CC1*
D80*
X116350000Y-59925001D02*
X116350000Y-60075000D01*
X116650000Y-63710000D02*
X117295000Y-63065000D01*
X117295000Y-60870001D02*
X116350000Y-59925001D01*
X113507236Y-58255000D02*
X114679999Y-58255000D01*
X117295000Y-63065000D02*
X117295000Y-60870001D01*
X114679999Y-58255000D02*
X116350000Y-59925001D01*
X113250000Y-57997764D02*
X113507236Y-58255000D01*
X113250000Y-57355000D02*
X113250000Y-57997764D01*
G04 #@! TO.N,/SCH-04 Supervisor + Service/USB_CC2*
X114700000Y-63060000D02*
X114700000Y-60075000D01*
X114700000Y-60075000D02*
X113375000Y-60075000D01*
X115350000Y-63710000D02*
X114700000Y-63060000D01*
X113375000Y-60075000D02*
X113350000Y-60050000D01*
X110250000Y-59700000D02*
X110250000Y-57355000D01*
X110650000Y-60100000D02*
X110250000Y-59700000D01*
X115650000Y-60075000D02*
X114700000Y-60075000D01*
G04 #@! TO.N,OVERSPEED_N*
X128650000Y-103980000D02*
X128483604Y-103980000D01*
X132215000Y-97785000D02*
X136000000Y-94000000D01*
X119000000Y-107000000D02*
X115200000Y-110800000D01*
X108125001Y-104325000D02*
X107800000Y-104650001D01*
X134200000Y-92200000D02*
X128000000Y-92200000D01*
X107865000Y-89645000D02*
X108510000Y-89000000D01*
X125900000Y-90100000D02*
X128000000Y-92200000D01*
X131137500Y-102450000D02*
X132215000Y-101372500D01*
X109950000Y-108150000D02*
X109950000Y-108950000D01*
X126490000Y-103980000D02*
X125510000Y-103000000D01*
X136000000Y-94000000D02*
X134200000Y-92200000D01*
X115200000Y-110800000D02*
X111800000Y-110800000D01*
X117050000Y-90100000D02*
X125900000Y-90100000D01*
X108850000Y-104325000D02*
X108125001Y-104325000D01*
X126490000Y-107000000D02*
X119000000Y-107000000D01*
X105723812Y-89645000D02*
X107865000Y-89645000D01*
X109950000Y-108950000D02*
X111800000Y-110800000D01*
X128483604Y-103980000D02*
X126490000Y-105973604D01*
X131137500Y-102450000D02*
X129607500Y-103980000D01*
X104403812Y-88325000D02*
X105723812Y-89645000D01*
X107800000Y-104650001D02*
X107800000Y-106000000D01*
X103900000Y-88325000D02*
X104403812Y-88325000D01*
X107800000Y-106000000D02*
X109950000Y-108150000D01*
X128650000Y-103980000D02*
X126490000Y-103980000D01*
X129607500Y-103980000D02*
X128650000Y-103980000D01*
X132215000Y-101372500D02*
X132215000Y-97785000D01*
X126490000Y-105973604D02*
X126490000Y-107000000D01*
G04 #@! TO.N,MCU_CLEAR_N*
X105500000Y-79425000D02*
X102585000Y-79425000D01*
X116975000Y-79425000D02*
X105500000Y-79425000D01*
X92350000Y-78500000D02*
X93275000Y-79425000D01*
X121165000Y-82765000D02*
X119550000Y-81150000D01*
X105510000Y-76500000D02*
X105510000Y-79415000D01*
X121165000Y-83750000D02*
X121165000Y-82765000D01*
X117400000Y-79000000D02*
X116975000Y-79425000D01*
X105510000Y-79415000D02*
X105500000Y-79425000D01*
X93275000Y-79425000D02*
X102585000Y-79425000D01*
G04 #@! TO.N,U6_PRE_RC*
X99048510Y-102000000D02*
X100162500Y-102000000D01*
X95660369Y-97069571D02*
X95660369Y-98611859D01*
X100200000Y-85000000D02*
X103050000Y-85000000D01*
X95660369Y-98611859D02*
X99048510Y-102000000D01*
X97000000Y-88200000D02*
X100200000Y-85000000D01*
X97008058Y-90641942D02*
X97008058Y-89991942D01*
X95000000Y-95490000D02*
X95000000Y-92650000D01*
X95000000Y-92650000D02*
X97008058Y-90641942D01*
G04 #@! TO.N,U6_PRE_BUF*
X105050000Y-91308530D02*
X105154265Y-91204265D01*
X103900000Y-87675000D02*
X104775000Y-87675000D01*
X101837500Y-103137500D02*
X101850000Y-103150000D01*
X105050000Y-93250000D02*
X105050000Y-91308530D01*
X101837500Y-102650000D02*
X101837500Y-103137500D01*
X104775000Y-87675000D02*
X105300000Y-88200000D01*
G04 #@! TO.N,TEMP_SCL*
X99200000Y-55646836D02*
X99200000Y-54200000D01*
X113050000Y-67325000D02*
X110325000Y-67325000D01*
X96750000Y-57771836D02*
X96750000Y-56528164D01*
X97887500Y-56175000D02*
X98671836Y-56175000D01*
X99200000Y-54200000D02*
X98000000Y-53000000D01*
X97828164Y-58850000D02*
X96750000Y-57771836D01*
X97103164Y-56175000D02*
X97887500Y-56175000D01*
X102500000Y-59500000D02*
X101510000Y-59500000D01*
X98671836Y-56175000D02*
X99200000Y-55646836D01*
X100860000Y-58850000D02*
X97828164Y-58850000D01*
X113545000Y-66830000D02*
X113050000Y-67325000D01*
X110325000Y-67325000D02*
X107525000Y-64525000D01*
X101510000Y-59500000D02*
X100860000Y-58850000D01*
X103450000Y-60450000D02*
X102500000Y-59500000D01*
X113545000Y-66250000D02*
X113545000Y-66830000D01*
X96750000Y-56528164D02*
X97103164Y-56175000D01*
G04 #@! TO.N,FG*
D78*
X90458058Y-98409529D02*
X91850000Y-97017587D01*
X90458058Y-99058058D02*
X91250000Y-99850000D01*
X86900000Y-111500000D02*
X77000000Y-111500000D01*
X90458058Y-99058058D02*
X90458058Y-98409529D01*
X113565000Y-81550000D02*
X114815000Y-82800000D01*
X87010619Y-92575000D02*
X88850000Y-92575000D01*
X90968175Y-93280000D02*
X91850000Y-94161825D01*
X85510000Y-77000000D02*
X83550000Y-78960000D01*
X91850000Y-97017587D02*
X91850000Y-94161825D01*
X91250000Y-107150000D02*
X86900000Y-111500000D01*
X88850000Y-92575000D02*
X89050000Y-92375000D01*
X86835618Y-92750000D02*
X87010619Y-92575000D01*
X83550000Y-78960000D02*
X83550000Y-81650000D01*
X91250000Y-99850000D02*
X91250000Y-107150000D01*
X109500000Y-81550000D02*
X113565000Y-81550000D01*
X95150000Y-84150000D02*
X99850000Y-84150000D01*
X86400000Y-92750000D02*
X86835618Y-92750000D01*
X94650000Y-84650000D02*
X95150000Y-84150000D01*
X107600000Y-83450000D02*
X109500000Y-81550000D01*
X114815000Y-82800000D02*
X114815000Y-83750000D01*
X100550000Y-83450000D02*
X107600000Y-83450000D01*
X99850000Y-84150000D02*
X100550000Y-83450000D01*
G04 #@! TO.N,ESP_DIR*
D80*
X90190000Y-81000000D02*
X90835000Y-80355000D01*
X90835000Y-80355000D02*
X122160000Y-80355000D01*
X122160000Y-80355000D02*
X124975000Y-83170000D01*
X124975000Y-83170000D02*
X124975000Y-83750000D01*
G04 #@! TO.N,DIR*
D78*
X91210000Y-81000000D02*
X89580000Y-82630000D01*
X85250000Y-90600000D02*
X85250000Y-89800000D01*
X85250000Y-89800000D02*
X87400000Y-87650000D01*
X90500000Y-87000000D02*
X90950000Y-86550000D01*
X89580000Y-82630000D02*
X89580000Y-84150000D01*
X90490000Y-87000000D02*
X90500000Y-87000000D01*
X90490000Y-85060000D02*
X89580000Y-84150000D01*
X90490000Y-85060000D02*
X90510000Y-85060000D01*
X90510000Y-85060000D02*
X90900000Y-85450000D01*
X90950000Y-86550000D02*
X90900000Y-86500000D01*
X89840000Y-87650000D02*
X90490000Y-87000000D01*
X87400000Y-87650000D02*
X89840000Y-87650000D01*
X90900000Y-86500000D02*
X90900000Y-85450000D01*
G04 #@! TO.N,HALL_TACH*
D80*
X136000000Y-99350000D02*
X130920000Y-104430000D01*
X119820000Y-66325000D02*
X119820000Y-79245000D01*
X119820000Y-79245000D02*
X119850000Y-79275000D01*
X130920000Y-104430000D02*
X128670000Y-104430000D01*
X123600000Y-86900000D02*
X116700000Y-86900000D01*
X127234280Y-108250000D02*
X122250000Y-108250000D01*
X119895000Y-66250000D02*
X119820000Y-66325000D01*
X128670000Y-104430000D02*
X128135000Y-104965000D01*
X122250000Y-108250000D02*
X120000000Y-110500000D01*
X131800000Y-91575000D02*
X128275000Y-91575000D01*
X128275000Y-91575000D02*
X123600000Y-86900000D01*
X128135000Y-107349280D02*
X127234280Y-108250000D01*
X116700000Y-86900000D02*
X116643750Y-86843750D01*
X136000000Y-98000000D02*
X136000000Y-99350000D01*
X128135000Y-104965000D02*
X128135000Y-107349280D01*
G04 #@! TO.N,TACH_DRAIN*
D79*
X113744877Y-87445331D02*
X113744877Y-87481865D01*
X113744877Y-87481865D02*
X111026742Y-90200000D01*
X108510000Y-91000000D02*
X109490000Y-91000000D01*
X110158944Y-90200000D02*
X111026742Y-90200000D01*
X109490000Y-90868944D02*
X110158944Y-90200000D01*
X109490000Y-91000000D02*
X109490000Y-90868944D01*
G04 #@! TO.N,MCF_CP*
D80*
X79400000Y-93280156D02*
X79400000Y-94600000D01*
X80390778Y-95021002D02*
X80908546Y-95021002D01*
X80908546Y-95021002D02*
X81179548Y-94750000D01*
X79400000Y-94600000D02*
X79675000Y-94875000D01*
X79675000Y-94875000D02*
X80244776Y-94875000D01*
X81179548Y-94750000D02*
X81600000Y-94750000D01*
X77500000Y-92025000D02*
X78144843Y-92025000D01*
X80244776Y-94875000D02*
X80390778Y-95021002D01*
X78144843Y-92025000D02*
X79400000Y-93280156D01*
G04 #@! TO.N,TACH_BIAS*
X112425000Y-92050000D02*
X113575000Y-90900000D01*
X121500000Y-94999999D02*
X122500001Y-96000000D01*
X123475000Y-96000000D02*
X125525000Y-96000000D01*
X120200000Y-90900000D02*
X121500000Y-92200000D01*
X121500000Y-92200000D02*
X121500000Y-94999999D01*
X109490000Y-93000000D02*
X110440000Y-92050000D01*
X113575000Y-90900000D02*
X120200000Y-90900000D01*
X110440000Y-92050000D02*
X111150000Y-92050000D01*
X122500001Y-96000000D02*
X123475000Y-96000000D01*
X108510000Y-93000000D02*
X109490000Y-93000000D01*
G04 #@! TO.N,TACH_DELAY*
X114308731Y-104108732D02*
X114308731Y-104908731D01*
X113150000Y-103675000D02*
X113874999Y-103675000D01*
X113874999Y-103675000D02*
X114308731Y-104108732D01*
X114308731Y-104908731D02*
X114700000Y-105300000D01*
G04 #@! TO.N,MCF_AVDD*
D79*
X88490000Y-97500000D02*
X88490000Y-94615000D01*
X88490000Y-94615000D02*
X87625000Y-93750000D01*
D80*
X86400000Y-93750000D02*
X87625000Y-93750000D01*
G04 #@! TO.N,ESP_BOOT*
X106010000Y-70850000D02*
X106010000Y-69000000D01*
X106050000Y-62250000D02*
X107480000Y-62250000D01*
X99520000Y-62250000D02*
X106050000Y-62250000D01*
X106010000Y-62290000D02*
X106050000Y-62250000D01*
X111005000Y-83750000D02*
X111005000Y-82155000D01*
X111005000Y-82155000D02*
X111000000Y-82150000D01*
X106010000Y-69000000D02*
X106010000Y-62290000D01*
G04 #@! TO.N,VTACH*
X123094092Y-97270000D02*
X122000000Y-98364092D01*
X122000000Y-98364092D02*
X122000000Y-99500000D01*
X122490000Y-103000000D02*
X122490000Y-101390000D01*
X123475000Y-97270000D02*
X123094092Y-97270000D01*
X122490000Y-101390000D02*
X122000000Y-100900000D01*
G04 #@! TO.N,TLV_INN*
X125934720Y-105645000D02*
X126974721Y-104604999D01*
X121500000Y-105000000D02*
X117900000Y-101400000D01*
X114837500Y-99900000D02*
X116864092Y-99900000D01*
X110937500Y-96000000D02*
X114837500Y-99900000D01*
X121510000Y-105000000D02*
X121500000Y-105000000D01*
X121510000Y-105000000D02*
X122155000Y-105645000D01*
X116864092Y-99900000D02*
X117900000Y-100935908D01*
X122155000Y-105645000D02*
X125934720Y-105645000D01*
X117900000Y-100935908D02*
X117900000Y-101400000D01*
G04 #@! TO.N,NFAULT*
X116085000Y-82785000D02*
X114750000Y-81450000D01*
X88550000Y-79250000D02*
X88550000Y-77000000D01*
X92450000Y-77000000D02*
X95850000Y-73600000D01*
X116085000Y-84185000D02*
X117200000Y-85300000D01*
X88550000Y-77000000D02*
X92450000Y-77000000D01*
X86550000Y-86950000D02*
X87325000Y-86175000D01*
X87325000Y-86175000D02*
X87325000Y-80475000D01*
X82250000Y-90600000D02*
X82050000Y-90400000D01*
X120850000Y-96450000D02*
X120850000Y-98050000D01*
X106900000Y-73600000D02*
X111600000Y-78300000D01*
X95850000Y-73600000D02*
X106900000Y-73600000D01*
X82050000Y-87815948D02*
X82915948Y-86950000D01*
X116085000Y-83750000D02*
X116085000Y-82785000D01*
X88550000Y-77000000D02*
X88300000Y-77000000D01*
X117200000Y-85300000D02*
X117750000Y-85300000D01*
X88300000Y-77000000D02*
X87710000Y-77000000D01*
X82915948Y-86950000D02*
X86550000Y-86950000D01*
X87325000Y-80475000D02*
X88550000Y-79250000D01*
X82050000Y-90400000D02*
X82050000Y-87815948D01*
X116085000Y-83750000D02*
X116085000Y-84185000D01*
G04 #@! TO.N,U5_CLR_BUF*
X96975000Y-82325000D02*
X96600000Y-82700000D01*
X97900000Y-82325000D02*
X96975000Y-82325000D01*
G04 #@! TO.N,ESP_SPEED*
X126245000Y-82750000D02*
X123395000Y-79900000D01*
X89886942Y-79636942D02*
X89353058Y-79636942D01*
X87990000Y-81000000D02*
X89353058Y-79636942D01*
X123395000Y-79900000D02*
X90150000Y-79900000D01*
X90150000Y-79900000D02*
X89886942Y-79636942D01*
X126245000Y-83750000D02*
X126245000Y-82750000D01*
G04 #@! TO.N,SPEED*
D78*
X89650000Y-92750000D02*
X89650000Y-89550000D01*
X88192349Y-81817651D02*
X89010000Y-81000000D01*
X82108058Y-77483058D02*
X79000000Y-74375000D01*
X89650000Y-89550000D02*
X90700000Y-88500000D01*
X79000000Y-74375000D02*
X79000000Y-73500000D01*
X82316943Y-77483058D02*
X82108058Y-77483058D01*
X87176304Y-92975000D02*
X89425000Y-92975000D01*
X86901304Y-93250000D02*
X87176304Y-92975000D01*
X82338281Y-77504396D02*
X82316943Y-77483058D01*
X89425000Y-92975000D02*
X89650000Y-92750000D01*
X88186698Y-81817651D02*
X88192349Y-81817651D01*
X90700000Y-88500000D02*
X92490000Y-88500000D01*
X86400000Y-93250000D02*
X86901304Y-93250000D01*
G04 #@! TO.N,SET1*
D80*
X103362499Y-97199999D02*
X105251491Y-97199999D01*
X107325000Y-95126490D02*
X107325000Y-94675000D01*
X103137500Y-96975000D02*
X103362499Y-97199999D01*
X105251491Y-97199999D02*
X107325000Y-95126490D01*
G04 #@! TO.N,TEMP_SDA*
X97660720Y-60145000D02*
X96300000Y-58784280D01*
X99010000Y-59500000D02*
X98365000Y-60145000D01*
X96300000Y-56300001D02*
X97075001Y-55525000D01*
X98365000Y-60145000D02*
X97660720Y-60145000D01*
X97075001Y-55525000D02*
X97887500Y-55525000D01*
X117550000Y-58700000D02*
X121165000Y-62315000D01*
X96300000Y-55300000D02*
X96300000Y-56300001D01*
X96300000Y-58784280D02*
X96300000Y-56300001D01*
X121165000Y-62315000D02*
X121165000Y-66250000D01*
X94000000Y-53000000D02*
X96300000Y-55300000D01*
G04 #@! TO.N,SW_CLR*
X92150000Y-105155000D02*
X94745000Y-107750000D01*
X92325000Y-92909557D02*
X93000000Y-93584557D01*
X94745000Y-107750000D02*
X95520000Y-107750000D01*
X95520000Y-107750000D02*
X103480000Y-107750000D01*
X92150000Y-101250000D02*
X92714860Y-100685140D01*
X93000000Y-93584557D02*
X93000000Y-95490000D01*
X88350000Y-85000000D02*
X88700000Y-85000000D01*
X88700000Y-85000000D02*
X89941942Y-86241942D01*
X92355000Y-96135000D02*
X92355000Y-96955000D01*
X92714860Y-100685140D02*
X92714860Y-97314860D01*
X92355000Y-96955000D02*
X92714860Y-97314860D01*
X92150000Y-101250000D02*
X92150000Y-105155000D01*
X93000000Y-95490000D02*
X92355000Y-96135000D01*
G04 #@! TO.N,MCF_DVDD*
X78150000Y-89695100D02*
X78150000Y-89634814D01*
X78654900Y-90200000D02*
X78150000Y-89695100D01*
X80375000Y-90776041D02*
X80848960Y-91250000D01*
X79798960Y-90200000D02*
X80375000Y-90776041D01*
X80848960Y-91250000D02*
X81600000Y-91250000D01*
X78654900Y-90200000D02*
X79798960Y-90200000D01*
G04 #@! TO.N,MCF_BUCK*
D79*
X79560787Y-90775000D02*
X81035787Y-92250000D01*
X70350000Y-92050000D02*
X72050000Y-90350000D01*
X77050000Y-90350000D02*
X77475000Y-90775000D01*
X70350000Y-94000000D02*
X67875000Y-94000000D01*
X77475000Y-90775000D02*
X79560787Y-90775000D01*
X72050000Y-90350000D02*
X77050000Y-90350000D01*
X70350000Y-94000000D02*
X70350000Y-92050000D01*
D81*
X81600000Y-92250000D02*
X81035787Y-92250000D01*
G04 #@! TO.N,BUCK_SW*
X81073482Y-93250000D02*
X80998482Y-93175000D01*
D79*
X79775000Y-92400000D02*
X80550000Y-93175000D01*
D81*
X81600000Y-93250000D02*
X81073482Y-93250000D01*
D79*
X80550000Y-93175000D02*
X80998482Y-93175000D01*
G04 #@! TO.N,MCF_CPL*
D80*
X80142653Y-93896206D02*
X80288859Y-93750000D01*
X80288859Y-93750000D02*
X81600000Y-93750000D01*
X80025000Y-93896206D02*
X80142653Y-93896206D01*
G04 #@! TO.N,MCF_CPH*
X80795664Y-94250000D02*
X80649662Y-94396002D01*
X81600000Y-94250000D02*
X80795664Y-94250000D01*
G04 #@! TO.N,PHASE_U*
D82*
X81950000Y-103950000D02*
X81950000Y-100350000D01*
X82500000Y-104500000D02*
X81950000Y-103950000D01*
G04 #@! TO.N,PHASE_V*
X85500000Y-104500000D02*
X85500000Y-101231980D01*
X85500000Y-101231980D02*
X84200000Y-99931980D01*
G04 #@! TO.N,PHASE_W*
X88500000Y-104500000D02*
X88500000Y-101050000D01*
X88500000Y-101050000D02*
X86300000Y-98850000D01*
G04 #@! TO.N,DRVOFF*
D80*
X89510000Y-95980000D02*
X89510000Y-97500000D01*
X87450000Y-96049740D02*
X86749740Y-96750000D01*
X94937500Y-91000000D02*
X94937500Y-91541692D01*
X87640260Y-96049740D02*
X87450000Y-96049740D01*
X86749740Y-96750000D02*
X86400000Y-96750000D01*
X94937500Y-91000000D02*
X94937500Y-90512500D01*
X94937500Y-90512500D02*
X95950000Y-89500000D01*
X89240000Y-95950000D02*
X89480000Y-95950000D01*
X94937500Y-91541692D02*
X93525000Y-92954192D01*
X87740000Y-95950000D02*
X87640260Y-96049740D01*
X89480000Y-95950000D02*
X89510000Y-95980000D01*
G04 #@! TO.N,SCL*
X81900000Y-109650000D02*
X75850000Y-109650000D01*
X86749740Y-91750000D02*
X87549870Y-90949870D01*
X75850000Y-109650000D02*
X74000000Y-111500000D01*
X87549870Y-90949870D02*
X87296573Y-91203167D01*
X87296573Y-91203167D02*
X87296573Y-91575001D01*
X87549870Y-90949870D02*
X88300000Y-90199740D01*
X82852082Y-108697918D02*
X81900000Y-109650000D01*
X86400000Y-91750000D02*
X86749740Y-91750000D01*
X88300000Y-90199740D02*
X88300000Y-89750000D01*
G04 #@! TO.N,SOX*
D78*
X83250000Y-90285614D02*
X83250000Y-90600000D01*
X82950000Y-83350000D02*
X83600000Y-84000000D01*
X82950000Y-73550000D02*
X82950000Y-83350000D01*
X85850000Y-87768629D02*
X85850000Y-88050000D01*
X83535614Y-90000000D02*
X83250000Y-90285614D01*
X83900000Y-90000000D02*
X83535614Y-90000000D01*
X85850000Y-88050000D02*
X83900000Y-90000000D01*
X83000000Y-73500000D02*
X82950000Y-73550000D01*
G04 #@! TO.N,ALARM*
X82600000Y-83850000D02*
X82550000Y-83800000D01*
D80*
X114815000Y-66250000D02*
X114815000Y-67250000D01*
X114290000Y-67775000D02*
X108900000Y-67775000D01*
D78*
X79350000Y-75450000D02*
X76950000Y-75450000D01*
X76950000Y-75450000D02*
X75000000Y-73500000D01*
X83623527Y-89326473D02*
X83725000Y-89326473D01*
X82550000Y-78650000D02*
X79350000Y-75450000D01*
D80*
X81800000Y-66700000D02*
X75000000Y-73500000D01*
D78*
X82550000Y-83800000D02*
X82550000Y-78650000D01*
X82750000Y-90600000D02*
X82750000Y-90200000D01*
X82750000Y-90200000D02*
X83623527Y-89326473D01*
D80*
X114815000Y-67250000D02*
X114290000Y-67775000D01*
X92900000Y-66700000D02*
X81800000Y-66700000D01*
G04 #@! TO.N,WDO*
X100575000Y-98125000D02*
X99510000Y-97060000D01*
X101850000Y-96028164D02*
X101850000Y-97383884D01*
X111800000Y-93200000D02*
X110950000Y-94050000D01*
X113350000Y-89700000D02*
X111800000Y-91250000D01*
X114374546Y-86774546D02*
X114374546Y-87699546D01*
X118625000Y-83750000D02*
X118625000Y-82750000D01*
X94750000Y-56600000D02*
X94750000Y-71450000D01*
X103137500Y-95675000D02*
X102203164Y-95675000D01*
X105498510Y-94050000D02*
X103873510Y-95675000D01*
X118625000Y-82750000D02*
X117112500Y-81237500D01*
X92850000Y-75000000D02*
X94750000Y-73100000D01*
X113350000Y-88724092D02*
X113350000Y-89700000D01*
X110950000Y-94050000D02*
X105498510Y-94050000D01*
X109712500Y-73837500D02*
X107350000Y-71475000D01*
X118000000Y-85950000D02*
X115199092Y-85950000D01*
X101850000Y-97383884D02*
X101108884Y-98125000D01*
X94750000Y-71450000D02*
X94750000Y-73100000D01*
X79250000Y-55250000D02*
X93400000Y-55250000D01*
X111800000Y-91250000D02*
X111800000Y-93200000D01*
X118625000Y-83750000D02*
X118625000Y-85325000D01*
X114162500Y-78287500D02*
X109712500Y-73837500D01*
X118625000Y-85325000D02*
X118000000Y-85950000D01*
X107350000Y-71475000D02*
X94775000Y-71475000D01*
X103873510Y-95675000D02*
X103137500Y-95675000D01*
X94775000Y-71475000D02*
X94750000Y-71450000D01*
X93400000Y-55250000D02*
X94750000Y-56600000D01*
X101108884Y-98125000D02*
X100575000Y-98125000D01*
X115199092Y-85950000D02*
X114374546Y-86774546D01*
X99510000Y-97060000D02*
X99510000Y-97000000D01*
X77000000Y-53000000D02*
X79250000Y-55250000D01*
X114374546Y-87699546D02*
X113350000Y-88724092D01*
X102203164Y-95675000D02*
X101850000Y-96028164D01*
G04 #@! TO.N,TACH_LDO_IN*
D84*
X114425000Y-108550000D02*
X116000000Y-106975000D01*
X114150000Y-101000000D02*
X114150000Y-103025000D01*
X117750000Y-105225000D02*
X116000000Y-106975000D01*
X117750000Y-103423834D02*
X117750000Y-105225000D01*
X115150000Y-106975000D02*
X113150000Y-104975000D01*
X112862500Y-108550000D02*
X114425000Y-108550000D01*
X117351166Y-103025000D02*
X117750000Y-103423834D01*
X113150000Y-103025000D02*
X114150000Y-103025000D01*
X116000000Y-106975000D02*
X115150000Y-106975000D01*
X114150000Y-103025000D02*
X117351166Y-103025000D01*
G04 #@! TO.N,U3_VCC*
D79*
X88250000Y-60837001D02*
X88250000Y-64146878D01*
X87449999Y-58915883D02*
X87449999Y-60037000D01*
X84000000Y-58275000D02*
X84088618Y-58186382D01*
X84088618Y-58186382D02*
X86720498Y-58186382D01*
X86887500Y-60037000D02*
X87449999Y-60037000D01*
X88250000Y-64146878D02*
X89903122Y-65800000D01*
X86720498Y-58186382D02*
X87449999Y-58915883D01*
X87449999Y-60037000D02*
X88250000Y-60837001D01*
X89903122Y-65800000D02*
X90490000Y-65800000D01*
G04 #@! TO.N,WD_EN*
D80*
X64923222Y-108100000D02*
X67250000Y-108100000D01*
X67250000Y-108100000D02*
X67300000Y-108050000D01*
X60750000Y-103926778D02*
X64923222Y-108100000D01*
X60750000Y-94250000D02*
X60750000Y-103926778D01*
X104175000Y-96325000D02*
X104300000Y-96450000D01*
X58500000Y-92000000D02*
X60750000Y-94250000D01*
X70650000Y-108050000D02*
X79750000Y-108050000D01*
X103137500Y-96325000D02*
X104175000Y-96325000D01*
G04 #@! TO.N,VREF*
X124490000Y-105000000D02*
X123510000Y-105000000D01*
G04 #@! TO.N,TACH_CP1*
X116815000Y-93460000D02*
X118525000Y-93460000D01*
X115000000Y-95275000D02*
X116815000Y-93460000D01*
G04 #@! TO.N,ESP_SCL*
X91190000Y-82000000D02*
X91250000Y-82000000D01*
X96150000Y-77100000D02*
X96450000Y-76800000D01*
X117355000Y-67250000D02*
X111955000Y-72650000D01*
X104125000Y-74575000D02*
X106983058Y-74575000D01*
X111955000Y-72650000D02*
X111955000Y-72695000D01*
X96450000Y-76800000D02*
X101900000Y-76800000D01*
X90190000Y-83000000D02*
X91190000Y-82000000D01*
X111955000Y-72695000D02*
X111500000Y-73150000D01*
X101900000Y-76800000D02*
X104125000Y-74575000D01*
X117355000Y-66250000D02*
X117355000Y-67250000D01*
G04 #@! TO.N,/SCH-04 Supervisor + Service/USB_D_MCU_N*
D78*
X112330000Y-64380000D02*
X112300000Y-64410000D01*
X113700000Y-64380000D02*
X112330000Y-64380000D01*
X112300000Y-66225000D02*
X112275000Y-66250000D01*
X112300000Y-64410000D02*
X112300000Y-66225000D01*
G04 #@! TO.N,PMOS_GATE*
D80*
X60000000Y-84500000D02*
X60329999Y-84500000D01*
X60329999Y-84500000D02*
X61010000Y-85180001D01*
X58150000Y-84500000D02*
X60000000Y-84500000D01*
X59990000Y-84490000D02*
X60000000Y-84500000D01*
X62500000Y-80150000D02*
X64200000Y-80150000D01*
X61010000Y-85180001D02*
X61010000Y-85500000D01*
X59990000Y-83500000D02*
X59990000Y-84490000D01*
X59990000Y-82660000D02*
X62500000Y-80150000D01*
X59990000Y-83500000D02*
X59990000Y-82660000D01*
G04 #@! TO.N,RAW24*
D82*
X66500000Y-80150000D02*
X66500000Y-73850000D01*
X56500000Y-75850000D02*
X58500000Y-73850000D01*
X56500000Y-77000000D02*
X56500000Y-75850000D01*
X58500000Y-68500000D02*
X58500000Y-73850000D01*
X52000000Y-62000000D02*
X58500000Y-68500000D01*
X58500000Y-73850000D02*
X66500000Y-73850000D01*
G04 #@! TO.N,ESP_SDA*
D80*
X96850000Y-78800000D02*
X104800000Y-78800000D01*
X87990000Y-83000000D02*
X88810000Y-83820000D01*
X91550000Y-83850000D02*
X90350000Y-83850000D01*
X118625000Y-66863885D02*
X112551195Y-72937690D01*
X88810000Y-83820000D02*
X88980000Y-83820000D01*
X107700000Y-77700000D02*
X107700000Y-77750000D01*
X92200000Y-83200000D02*
X91550000Y-83850000D01*
X107700000Y-77750000D02*
X106650000Y-78800000D01*
X118625000Y-66250000D02*
X118625000Y-66863885D01*
X92200000Y-82550000D02*
X92200000Y-83200000D01*
G04 #@! TO.N,ESP_GPIO8*
X108510000Y-69000000D02*
X113915000Y-69000000D01*
X113915000Y-69000000D02*
X116085000Y-66830000D01*
X116085000Y-66830000D02*
X116085000Y-66250000D01*
G04 #@! TO.N,ARM_PULSE*
D78*
X95598529Y-84550000D02*
X93638529Y-86510000D01*
X112275000Y-83750000D02*
X112275000Y-84280000D01*
X100015685Y-84550000D02*
X95598529Y-84550000D01*
X93638529Y-86510000D02*
X93000000Y-86510000D01*
X111755000Y-84800000D02*
X108550000Y-84800000D01*
X107600000Y-83850000D02*
X100715686Y-83850000D01*
X112275000Y-84280000D02*
X111755000Y-84800000D01*
X100715686Y-83850000D02*
X100015685Y-84550000D01*
X108550000Y-84800000D02*
X107600000Y-83850000D01*
G04 #@! TO.N,RSCALE_MID*
D80*
X127285000Y-99065000D02*
X126850000Y-99500000D01*
X130600000Y-87050000D02*
X128100000Y-89550000D01*
X131250000Y-87050000D02*
X130600000Y-87050000D01*
X128635000Y-99065000D02*
X127285000Y-99065000D01*
X132050000Y-95650000D02*
X128635000Y-99065000D01*
X128100000Y-89550000D02*
X128100000Y-90200000D01*
G04 #@! TO.N,SET0*
X97190000Y-93700000D02*
X96490000Y-93000000D01*
X100862500Y-95025000D02*
X99537500Y-93700000D01*
X99537500Y-93700000D02*
X97190000Y-93700000D01*
G04 #@! TO.N,U7_WDI*
X100862500Y-96325000D02*
X98185000Y-96325000D01*
X67700000Y-100200000D02*
X66200000Y-98700000D01*
X68150000Y-100200000D02*
X67700000Y-100200000D01*
X98185000Y-96325000D02*
X97510000Y-97000000D01*
G04 #@! TO.N,OS_LOCK_OK*
X97850000Y-75000000D02*
X97850000Y-75750000D01*
X103900000Y-88975000D02*
X103025000Y-88975000D01*
X103025000Y-88975000D02*
X102650000Y-88600000D01*
X97850000Y-75750000D02*
X97450000Y-76150000D01*
G04 #@! TO.N,VTACH_RAW*
X117150000Y-96994092D02*
X117150000Y-97800000D01*
X117150000Y-97800000D02*
X116000000Y-98950000D01*
X118144092Y-96000000D02*
X117150000Y-96994092D01*
X120490000Y-103000000D02*
X119875000Y-102385000D01*
X119875000Y-102385000D02*
X119875000Y-96925000D01*
X119875000Y-96925000D02*
X118950000Y-96000000D01*
X118525000Y-94730000D02*
X118525000Y-96000000D01*
X118525000Y-96000000D02*
X118144092Y-96000000D01*
X118950000Y-96000000D02*
X118525000Y-96000000D01*
G04 #@! TO.N,U5_Q*
X85541942Y-69991942D02*
X85800000Y-70250000D01*
X91850000Y-90850000D02*
X93100000Y-90850000D01*
X95750000Y-83400000D02*
X96950000Y-83400000D01*
X96950000Y-83400000D02*
X97375000Y-82975000D01*
X91650000Y-90850000D02*
X91850000Y-90850000D01*
X97375000Y-82975000D02*
X97900000Y-82975000D01*
X83358058Y-69991942D02*
X85541942Y-69991942D01*
X91340000Y-90850000D02*
X91650000Y-90850000D01*
X91000000Y-90510000D02*
X91340000Y-90850000D01*
G04 #@! TO.N,WD_MR*
X63687540Y-108687540D02*
X52000000Y-97000000D01*
X108820182Y-98000000D02*
X107565948Y-98000000D01*
X98185000Y-95675000D02*
X100862500Y-95675000D01*
X93111117Y-107000000D02*
X92133884Y-107000000D01*
X92133884Y-107000000D02*
X86108884Y-113025000D01*
X97510000Y-94763138D02*
X97948138Y-94325000D01*
X68050000Y-111050000D02*
X65687540Y-108687540D01*
X68050000Y-112050000D02*
X68050000Y-111050000D01*
X107565948Y-98000000D02*
X106877835Y-98688113D01*
X97510000Y-95000000D02*
X98185000Y-95675000D01*
X69025000Y-113025000D02*
X68050000Y-112050000D01*
X97510000Y-95000000D02*
X97510000Y-94763138D01*
X108844465Y-98024283D02*
X108820182Y-98000000D01*
X106877835Y-98688113D02*
X106877835Y-99003722D01*
X65687540Y-108687540D02*
X63687540Y-108687540D01*
X86108884Y-113025000D02*
X69025000Y-113025000D01*
G04 #@! TO.N,LM_TACHIN*
X117760000Y-91425000D02*
X113933884Y-91425000D01*
X118525000Y-92190000D02*
X117760000Y-91425000D01*
X113933884Y-91425000D02*
X113642956Y-91715928D01*
G04 #@! TO.N,/SCH-04 Supervisor + Service/USB_VBUS*
X113592764Y-56055000D02*
X114400000Y-56862236D01*
X114400000Y-56862236D02*
X114400000Y-57355000D01*
X109600000Y-57355000D02*
X109600000Y-56862236D01*
X109600000Y-56862236D02*
X110407236Y-56055000D01*
X110407236Y-56055000D02*
X113592764Y-56055000D01*
G04 #@! TO.N,/SCH-04 Supervisor + Service/USB_DN*
D78*
X112300000Y-60975000D02*
X112300000Y-63390000D01*
X112750000Y-57355000D02*
X112750000Y-58200000D01*
X112017590Y-58230000D02*
X112720000Y-58230000D01*
X112750000Y-58200000D02*
X112750000Y-60525000D01*
X112750000Y-60525000D02*
X112350000Y-60925000D01*
X111750000Y-57355000D02*
X111750000Y-57962410D01*
X112350000Y-60925000D02*
X112300000Y-60975000D01*
X112720000Y-58230000D02*
X112750000Y-58200000D01*
X111750000Y-57962410D02*
X112017590Y-58230000D01*
G04 #@! TO.N,Q2_GATE*
D80*
X92502500Y-89490000D02*
X93062500Y-90050000D01*
X91000000Y-89490000D02*
X92502500Y-89490000D01*
X91000000Y-92510000D02*
X90355000Y-91865000D01*
X90355000Y-90135000D02*
X91000000Y-89490000D01*
X90355000Y-91865000D02*
X90355000Y-90135000D01*
G04 #@! TD*
G04 #@! TA.AperFunction,Conductor*
G04 #@! TO.N,PHASE_U*
G36*
X82814091Y-97106129D02*
G01*
X82824503Y-97110442D01*
X82864553Y-97150485D01*
X82864556Y-97150492D01*
X82868867Y-97160900D01*
X82874500Y-97189218D01*
X82874500Y-97616477D01*
X82868866Y-97644796D01*
X82865108Y-97653868D01*
X82860852Y-97664144D01*
X82829487Y-97699907D01*
X82763149Y-97738208D01*
X82660651Y-97840705D01*
X82588177Y-97966233D01*
X82588174Y-97966243D01*
X82550662Y-98106239D01*
X82550662Y-98251199D01*
X82588174Y-98391195D01*
X82588177Y-98391205D01*
X82650700Y-98499498D01*
X82660650Y-98516731D01*
X82660651Y-98516732D01*
X82660653Y-98516735D01*
X82763147Y-98619229D01*
X82825252Y-98655085D01*
X82846957Y-98674119D01*
X82859709Y-98690736D01*
X82875000Y-98735783D01*
X82875000Y-100361281D01*
X82869367Y-100389599D01*
X82865056Y-100400007D01*
X82825008Y-100440055D01*
X82825007Y-100440056D01*
X82814599Y-100444367D01*
X82786281Y-100450000D01*
X81263719Y-100450000D01*
X81235404Y-100444368D01*
X81224995Y-100440057D01*
X81184946Y-100400013D01*
X81180629Y-100389591D01*
X81175000Y-100361281D01*
X81175000Y-98120370D01*
X81180631Y-98092056D01*
X81191042Y-98066921D01*
X81207078Y-98042921D01*
X82117421Y-97132578D01*
X82141424Y-97116541D01*
X82166555Y-97106131D01*
X82194871Y-97100500D01*
X82785781Y-97100500D01*
X82814091Y-97106129D01*
G37*
G04 #@! TD.AperFunction*
G04 #@! TD*
G04 #@! TA.AperFunction,Conductor*
G04 #@! TO.N,VM24*
G36*
X78604547Y-93055021D02*
G01*
X78629791Y-93062434D01*
X78682537Y-93093730D01*
X78975573Y-93386766D01*
X78996723Y-93415018D01*
X79009331Y-93438107D01*
X79024500Y-93497536D01*
X79024500Y-94649435D01*
X79030303Y-94671090D01*
X79030304Y-94671095D01*
X79050089Y-94744939D01*
X79058248Y-94759070D01*
X79058252Y-94759075D01*
X79096640Y-94825565D01*
X79096642Y-94825568D01*
X79099521Y-94830556D01*
X79099530Y-94830569D01*
X79099532Y-94830571D01*
X79391127Y-95122165D01*
X79444437Y-95175475D01*
X79530063Y-95224911D01*
X79625564Y-95250500D01*
X79625565Y-95250500D01*
X80020047Y-95250500D01*
X80054979Y-95255521D01*
X80080223Y-95262934D01*
X80132969Y-95294230D01*
X80160216Y-95321477D01*
X80160217Y-95321478D01*
X80160219Y-95321479D01*
X80242374Y-95368911D01*
X80244943Y-95370506D01*
X80245837Y-95370911D01*
X80245839Y-95370911D01*
X80245840Y-95370912D01*
X80293589Y-95383707D01*
X80293590Y-95383707D01*
X80301390Y-95385797D01*
X80301404Y-95385800D01*
X80303641Y-95386399D01*
X80303677Y-95386421D01*
X80303681Y-95386410D01*
X80341342Y-95396502D01*
X80341343Y-95396502D01*
X80341344Y-95396502D01*
X80957981Y-95396502D01*
X80957982Y-95396502D01*
X81005732Y-95383707D01*
X81053484Y-95370912D01*
X81139108Y-95321477D01*
X81209021Y-95251564D01*
X81209020Y-95251564D01*
X81235674Y-95224911D01*
X81267608Y-95192977D01*
X81267608Y-95192976D01*
X81286159Y-95174424D01*
X81314409Y-95153276D01*
X81337510Y-95140663D01*
X81396930Y-95125500D01*
X81667709Y-95125500D01*
X81667741Y-95125499D01*
X81757670Y-95125499D01*
X81792606Y-95130522D01*
X81807604Y-95134926D01*
X81866355Y-95172671D01*
X81867542Y-95174040D01*
X81895018Y-95228901D01*
X81896663Y-95236459D01*
X81899500Y-95262830D01*
X81899500Y-96232670D01*
X81894475Y-96267614D01*
X81890070Y-96282612D01*
X81852327Y-96341355D01*
X81850958Y-96342542D01*
X81796097Y-96370018D01*
X81788539Y-96371663D01*
X81762168Y-96374500D01*
X81325817Y-96374500D01*
X81280251Y-96380498D01*
X81280232Y-96380503D01*
X81280230Y-96380504D01*
X81180197Y-96427151D01*
X81180196Y-96427152D01*
X81124848Y-96482501D01*
X81114626Y-96491650D01*
X81076976Y-96521768D01*
X81023514Y-96546594D01*
X81021212Y-96547047D01*
X81018124Y-96547656D01*
X81000635Y-96549364D01*
X81000000Y-96550000D01*
X81000000Y-96817294D01*
X80990560Y-96852525D01*
X80990560Y-96997475D01*
X81000000Y-97032705D01*
X81000000Y-97855332D01*
X80980315Y-97922371D01*
X80979107Y-97924216D01*
X80978602Y-97924970D01*
X80978592Y-97924987D01*
X80954992Y-97969140D01*
X80954987Y-97969152D01*
X80944583Y-97994268D01*
X80944582Y-97994272D01*
X80930039Y-98042219D01*
X80924407Y-98070536D01*
X80919500Y-98120371D01*
X80919500Y-99379138D01*
X80899815Y-99446177D01*
X80883181Y-99466819D01*
X80698926Y-99651073D01*
X80670675Y-99672222D01*
X80647587Y-99684830D01*
X80588157Y-99700000D01*
X78341830Y-99700000D01*
X78306889Y-99694975D01*
X78291890Y-99690570D01*
X78233144Y-99652827D01*
X78231957Y-99651458D01*
X78204477Y-99596583D01*
X78202832Y-99589021D01*
X78200000Y-99562668D01*
X78200000Y-97187627D01*
X78201969Y-97165616D01*
X78202234Y-97164142D01*
X78205848Y-97144112D01*
X78211695Y-97122801D01*
X78219412Y-97102114D01*
X78221229Y-97085208D01*
X78225499Y-97045499D01*
X78225499Y-97045494D01*
X78225500Y-97045485D01*
X78225499Y-96992903D01*
X78226095Y-96980758D01*
X78227286Y-96968665D01*
X78229065Y-96956666D01*
X78250500Y-96848919D01*
X78250500Y-96701079D01*
X78229069Y-96593348D01*
X78227285Y-96581314D01*
X78226096Y-96569240D01*
X78225499Y-96557088D01*
X78225499Y-96504518D01*
X78225498Y-96504509D01*
X78225450Y-96504067D01*
X78219412Y-96447886D01*
X78219411Y-96447884D01*
X78218613Y-96445165D01*
X78217100Y-96441686D01*
X78211696Y-96427198D01*
X78205848Y-96405885D01*
X78201968Y-96384379D01*
X78200000Y-96362370D01*
X78200000Y-95850000D01*
X78199999Y-95849999D01*
X78041438Y-95823572D01*
X77421199Y-95720199D01*
X77387566Y-95709501D01*
X77373497Y-95702692D01*
X77321729Y-95655769D01*
X77321726Y-95655765D01*
X77318210Y-95650015D01*
X77300000Y-95585327D01*
X77300000Y-94872872D01*
X77305023Y-94837936D01*
X77309427Y-94822938D01*
X77347191Y-94764170D01*
X77347807Y-94763635D01*
X77352287Y-94759753D01*
X77413109Y-94731147D01*
X78200000Y-94600000D01*
X78200000Y-94250000D01*
X78199999Y-94249999D01*
X78199998Y-94249998D01*
X78199997Y-94249998D01*
X77365902Y-94074400D01*
X77332749Y-94062287D01*
X77318977Y-94054886D01*
X77269243Y-94005813D01*
X77265566Y-93999184D01*
X77250000Y-93939034D01*
X77250000Y-93191829D01*
X77255023Y-93156893D01*
X77259427Y-93141895D01*
X77297172Y-93083144D01*
X77298541Y-93081957D01*
X77353420Y-93054477D01*
X77360979Y-93052833D01*
X77387332Y-93050000D01*
X78569615Y-93050000D01*
X78604547Y-93055021D01*
G37*
G04 #@! TD.AperFunction*
G04 #@! TD*
G04 #@! TA.AperFunction,Conductor*
G04 #@! TO.N,VM24*
G36*
X84593039Y-60719685D02*
G01*
X84638794Y-60772489D01*
X84650000Y-60824000D01*
X84650000Y-61376000D01*
X84630315Y-61443039D01*
X84577511Y-61488794D01*
X84526000Y-61500000D01*
X83466128Y-61500000D01*
X83158863Y-62909345D01*
X83125350Y-62970653D01*
X83118407Y-62977079D01*
X82834827Y-63220148D01*
X82771117Y-63248831D01*
X82754129Y-63250000D01*
X80101362Y-63250000D01*
X80034323Y-63230315D01*
X80013681Y-63213681D01*
X79286319Y-62486319D01*
X79252834Y-62424996D01*
X79250000Y-62398638D01*
X79250000Y-61124000D01*
X79269685Y-61056961D01*
X79322489Y-61011206D01*
X79374000Y-61000000D01*
X81075501Y-61000000D01*
X81142540Y-61019685D01*
X81188295Y-61072489D01*
X81199501Y-61124000D01*
X81199501Y-61522876D01*
X81205908Y-61582483D01*
X81256202Y-61717328D01*
X81256206Y-61717335D01*
X81342452Y-61832544D01*
X81342455Y-61832547D01*
X81457664Y-61918793D01*
X81457671Y-61918797D01*
X81502618Y-61935561D01*
X81592517Y-61969091D01*
X81652127Y-61975500D01*
X82247872Y-61975499D01*
X82307483Y-61969091D01*
X82442331Y-61918796D01*
X82557546Y-61832546D01*
X82643796Y-61717331D01*
X82694091Y-61582483D01*
X82700500Y-61522873D01*
X82700499Y-60823998D01*
X82720183Y-60756961D01*
X82772987Y-60711206D01*
X82824499Y-60700000D01*
X84526000Y-60700000D01*
X84593039Y-60719685D01*
G37*
G04 #@! TD.AperFunction*
G04 #@! TD*
G04 #@! TA.AperFunction,Conductor*
G04 #@! TO.N,PHASE_W*
G36*
X85833443Y-97106131D02*
G01*
X85858575Y-97116541D01*
X85882581Y-97132581D01*
X86792918Y-98042918D01*
X86808957Y-98066921D01*
X86819368Y-98092055D01*
X86825000Y-98120370D01*
X86825000Y-99311281D01*
X86819367Y-99339599D01*
X86815056Y-99350007D01*
X86775008Y-99390055D01*
X86775007Y-99390056D01*
X86764599Y-99394367D01*
X86736281Y-99400000D01*
X85481865Y-99400000D01*
X85453547Y-99394367D01*
X85428418Y-99383958D01*
X85404412Y-99367918D01*
X85157081Y-99120587D01*
X85141041Y-99096581D01*
X85130631Y-99071449D01*
X85125000Y-99043135D01*
X85125000Y-98741282D01*
X85130632Y-98712966D01*
X85138646Y-98693618D01*
X85170011Y-98657852D01*
X85236882Y-98619245D01*
X85339376Y-98516751D01*
X85411851Y-98391221D01*
X85444234Y-98270364D01*
X85449367Y-98261475D01*
X85449367Y-98105272D01*
X85448111Y-98101572D01*
X85411853Y-97966259D01*
X85411852Y-97966254D01*
X85411850Y-97966249D01*
X85403641Y-97952031D01*
X85392430Y-97932611D01*
X85392430Y-97932612D01*
X85339378Y-97840724D01*
X85339377Y-97840723D01*
X85339376Y-97840721D01*
X85236882Y-97738227D01*
X85236881Y-97738226D01*
X85236877Y-97738222D01*
X85175244Y-97702637D01*
X85153538Y-97683601D01*
X85140790Y-97666988D01*
X85125500Y-97621942D01*
X85125500Y-97343288D01*
X85125499Y-97343259D01*
X85125499Y-97189218D01*
X85131128Y-97160909D01*
X85135442Y-97150494D01*
X85175481Y-97110448D01*
X85185910Y-97106128D01*
X85214218Y-97100500D01*
X85805129Y-97100500D01*
X85833443Y-97106131D01*
G37*
G04 #@! TD.AperFunction*
G04 #@! TD*
G04 #@! TA.AperFunction,Conductor*
G04 #@! TO.N,PHASE_V*
G36*
X84352826Y-97122174D02*
G01*
X84374500Y-97174500D01*
X84374500Y-97998990D01*
X84371978Y-98018143D01*
X84348367Y-98106258D01*
X84348367Y-98251213D01*
X84385881Y-98391217D01*
X84385883Y-98391222D01*
X84458349Y-98516735D01*
X84458358Y-98516751D01*
X84560852Y-98619245D01*
X84652743Y-98672299D01*
X84686352Y-98691703D01*
X84686382Y-98691720D01*
X84686383Y-98691720D01*
X84686385Y-98691721D01*
X84795153Y-98720866D01*
X84840086Y-98755344D01*
X84850000Y-98792344D01*
X84850000Y-100276000D01*
X84828326Y-100328326D01*
X84776000Y-100350000D01*
X83580652Y-100350000D01*
X83528326Y-100328326D01*
X83171674Y-99971674D01*
X83150000Y-99919348D01*
X83150000Y-98792335D01*
X83171674Y-98740009D01*
X83204844Y-98720857D01*
X83313647Y-98691704D01*
X83439177Y-98619229D01*
X83541671Y-98516735D01*
X83614146Y-98391205D01*
X83651661Y-98251197D01*
X83651662Y-98251197D01*
X83651662Y-98106243D01*
X83628022Y-98018023D01*
X83625500Y-97998869D01*
X83625500Y-97344607D01*
X83625499Y-97344593D01*
X83625499Y-97174500D01*
X83647173Y-97122174D01*
X83699499Y-97100500D01*
X84300500Y-97100500D01*
X84352826Y-97122174D01*
G37*
G04 #@! TD.AperFunction*
G04 #@! TD*
M02*
