G04 #@! TF.GenerationSoftware,KiCad,Pcbnew,10.0.4*
G04 #@! TF.CreationDate,2026-07-30T17:12:16-07:00*
G04 #@! TF.ProjectId,pcb-02,7063622d-3032-42e6-9b69-6361645f7063,rev?*
G04 #@! TF.SameCoordinates,Original*
G04 #@! TF.FileFunction,Legend,Top*
G04 #@! TF.FilePolarity,Positive*
%FSLAX46Y46*%
G04 Gerber Fmt 4.6, Leading zero omitted, Abs format (unit mm)*
G04 Created by KiCad (PCBNEW 10.0.4) date 2026-07-30 17:12:16*
%MOMM*%
%LPD*%
G01*
G04 APERTURE LIST*
G04 Aperture macros list*
%AMRoundRect*
0 Rectangle with rounded corners*
0 $1 Rounding radius*
0 $2 $3 $4 $5 $6 $7 $8 $9 X,Y pos of 4 corners*
0 Add a 4 corners polygon primitive as box body*
4,1,4,$2,$3,$4,$5,$6,$7,$8,$9,$2,$3,0*
0 Add four circle primitives for the rounded corners*
1,1,$1+$1,$2,$3*
1,1,$1+$1,$4,$5*
1,1,$1+$1,$6,$7*
1,1,$1+$1,$8,$9*
0 Add four rect primitives between the rounded corners*
20,1,$1+$1,$2,$3,$4,$5,0*
20,1,$1+$1,$4,$5,$6,$7,0*
20,1,$1+$1,$6,$7,$8,$9,0*
20,1,$1+$1,$8,$9,$2,$3,0*%
G04 Aperture macros list end*
%ADD10C,0.150000*%
%ADD11C,0.120000*%
%ADD12RoundRect,0.200000X-0.587500X-0.150000X0.587500X-0.150000X0.587500X0.150000X-0.587500X0.150000X0*%
%ADD13C,2.300000*%
%ADD14RoundRect,0.275000X-0.225000X-0.250000X0.225000X-0.250000X0.225000X0.250000X-0.225000X0.250000X0*%
%ADD15RoundRect,0.300000X0.625000X-0.350000X0.625000X0.350000X-0.625000X0.350000X-0.625000X-0.350000X0*%
%ADD16O,1.850000X1.300000*%
G04 APERTURE END LIST*
D10*
X51738095Y-56354819D02*
X51738095Y-57164342D01*
X51738095Y-57164342D02*
X51785714Y-57259580D01*
X51785714Y-57259580D02*
X51833333Y-57307200D01*
X51833333Y-57307200D02*
X51928571Y-57354819D01*
X51928571Y-57354819D02*
X52119047Y-57354819D01*
X52119047Y-57354819D02*
X52214285Y-57307200D01*
X52214285Y-57307200D02*
X52261904Y-57259580D01*
X52261904Y-57259580D02*
X52309523Y-57164342D01*
X52309523Y-57164342D02*
X52309523Y-56354819D01*
X53309523Y-57354819D02*
X52738095Y-57354819D01*
X53023809Y-57354819D02*
X53023809Y-56354819D01*
X53023809Y-56354819D02*
X52928571Y-56497676D01*
X52928571Y-56497676D02*
X52833333Y-56592914D01*
X52833333Y-56592914D02*
X52738095Y-56640533D01*
X54733333Y-51659580D02*
X54685714Y-51707200D01*
X54685714Y-51707200D02*
X54542857Y-51754819D01*
X54542857Y-51754819D02*
X54447619Y-51754819D01*
X54447619Y-51754819D02*
X54304762Y-51707200D01*
X54304762Y-51707200D02*
X54209524Y-51611961D01*
X54209524Y-51611961D02*
X54161905Y-51516723D01*
X54161905Y-51516723D02*
X54114286Y-51326247D01*
X54114286Y-51326247D02*
X54114286Y-51183390D01*
X54114286Y-51183390D02*
X54161905Y-50992914D01*
X54161905Y-50992914D02*
X54209524Y-50897676D01*
X54209524Y-50897676D02*
X54304762Y-50802438D01*
X54304762Y-50802438D02*
X54447619Y-50754819D01*
X54447619Y-50754819D02*
X54542857Y-50754819D01*
X54542857Y-50754819D02*
X54685714Y-50802438D01*
X54685714Y-50802438D02*
X54733333Y-50850057D01*
X55685714Y-51754819D02*
X55114286Y-51754819D01*
X55400000Y-51754819D02*
X55400000Y-50754819D01*
X55400000Y-50754819D02*
X55304762Y-50897676D01*
X55304762Y-50897676D02*
X55209524Y-50992914D01*
X55209524Y-50992914D02*
X55114286Y-51040533D01*
X64816666Y-53454819D02*
X64816666Y-54169104D01*
X64816666Y-54169104D02*
X64769047Y-54311961D01*
X64769047Y-54311961D02*
X64673809Y-54407200D01*
X64673809Y-54407200D02*
X64530952Y-54454819D01*
X64530952Y-54454819D02*
X64435714Y-54454819D01*
X65816666Y-54454819D02*
X65245238Y-54454819D01*
X65530952Y-54454819D02*
X65530952Y-53454819D01*
X65530952Y-53454819D02*
X65435714Y-53597676D01*
X65435714Y-53597676D02*
X65340476Y-53692914D01*
X65340476Y-53692914D02*
X65245238Y-53740533D01*
G04 #@! TO.C,U1*
D11*
X51740000Y-52440000D02*
X53260000Y-52440000D01*
X51740000Y-52490000D02*
X51740000Y-52440000D01*
X51740000Y-54390000D02*
X51740000Y-53610000D01*
X51740000Y-55560000D02*
X51740000Y-55510000D01*
X53260000Y-52440000D02*
X53260000Y-53440000D01*
X53260000Y-54560000D02*
X53260000Y-55560000D01*
X53260000Y-55560000D02*
X51740000Y-55560000D01*
X51200000Y-53620000D02*
X51440000Y-53950000D01*
X50960000Y-53950000D01*
X51200000Y-53620000D01*
G36*
X51440000Y-53950000D02*
G01*
X50960000Y-53950000D01*
X51200000Y-53620000D01*
X51440000Y-53950000D01*
G37*
G04 #@! TO.C,C1*
X52359420Y-50790000D02*
X52640580Y-50790000D01*
X52359420Y-51810000D02*
X52640580Y-51810000D01*
G04 #@! TO.C,J1*
X66240000Y-49940000D02*
X66240000Y-50860000D01*
X66240000Y-50860000D02*
X67840000Y-50860000D01*
X66240000Y-57140000D02*
X66240000Y-58060000D01*
X66240000Y-58060000D02*
X74060000Y-58060000D01*
X67840000Y-49940000D02*
X67840000Y-50860000D01*
X67840000Y-50860000D02*
X67840000Y-51140000D01*
X67840000Y-56860000D02*
X66625000Y-56860000D01*
X67840000Y-56860000D02*
X67840000Y-57140000D01*
X67840000Y-57140000D02*
X66240000Y-57140000D01*
X67840000Y-58060000D02*
X67840000Y-57140000D01*
X69700000Y-52500000D02*
X74060000Y-52500000D01*
X69700000Y-55500000D02*
X69700000Y-52500000D01*
X71800000Y-56300000D02*
X74060000Y-56300000D01*
X71800000Y-56800000D02*
X74060000Y-56800000D01*
X74060000Y-49940000D02*
X66240000Y-49940000D01*
X74060000Y-55500000D02*
X69700000Y-55500000D01*
X74060000Y-58060000D02*
X74060000Y-49940000D01*
X70200000Y-50700000D02*
X71800000Y-50700000D01*
X71800000Y-51700000D01*
X70200000Y-51700000D01*
X70200000Y-50700000D01*
X70200000Y-56300000D02*
X71800000Y-56300000D01*
X71800000Y-57300000D01*
X70200000Y-57300000D01*
X70200000Y-56300000D01*
G04 #@! TD*
%LPC*%
D12*
G04 #@! TO.C,U1*
X51562500Y-53050000D03*
X51562500Y-54950000D03*
X53437500Y-54000000D03*
G04 #@! TD*
D13*
G04 #@! TO.C,H2*
X63000000Y-54000000D03*
G04 #@! TD*
G04 #@! TO.C,H1*
X57000000Y-54000000D03*
G04 #@! TD*
D14*
G04 #@! TO.C,C1*
X51725000Y-51300000D03*
X53275000Y-51300000D03*
G04 #@! TD*
D15*
G04 #@! TO.C,J1*
X67700000Y-56000000D03*
D16*
X67700000Y-54000000D03*
X67700000Y-52000000D03*
G04 #@! TD*
%LPD*%
M02*
