G04 #@! TF.GenerationSoftware,KiCad,Pcbnew,10.0.4*
G04 #@! TF.CreationDate,2026-07-30T17:12:16-07:00*
G04 #@! TF.ProjectId,pcb-02,7063622d-3032-42e6-9b69-6361645f7063,rev?*
G04 #@! TF.SameCoordinates,Original*
G04 #@! TF.FileFunction,Copper,L2,Bot*
G04 #@! TF.FilePolarity,Positive*
%FSLAX46Y46*%
G04 Gerber Fmt 4.6, Leading zero omitted, Abs format (unit mm)*
G04 Created by KiCad (PCBNEW 10.0.4) date 2026-07-30 17:12:16*
%MOMM*%
%LPD*%
G01*
G04 APERTURE LIST*
G04 Aperture macros list*
%AMRoundRect*
0 Rectangle with rounded corners*
0 $1 Rounding radius*
0 $2 $3 $4 $5 $6 $7 $8 $9 X,Y pos of 4 corners*
0 Add a 4 corners polygon primitive as box body*
4,1,4,$2,$3,$4,$5,$6,$7,$8,$9,$2,$3,0*
0 Add four circle primitives for the rounded corners*
1,1,$1+$1,$2,$3*
1,1,$1+$1,$4,$5*
1,1,$1+$1,$6,$7*
1,1,$1+$1,$8,$9*
0 Add four rect primitives between the rounded corners*
20,1,$1+$1,$2,$3,$4,$5,0*
20,1,$1+$1,$4,$5,$6,$7,0*
20,1,$1+$1,$6,$7,$8,$9,0*
20,1,$1+$1,$8,$9,$2,$3,0*%
G04 Aperture macros list end*
G04 #@! TA.AperFunction,ComponentPad*
%ADD10RoundRect,0.250000X0.625000X-0.350000X0.625000X0.350000X-0.625000X0.350000X-0.625000X-0.350000X0*%
G04 #@! TD*
G04 #@! TA.AperFunction,ComponentPad*
%ADD11O,1.750000X1.200000*%
G04 #@! TD*
G04 #@! TA.AperFunction,ViaPad*
%ADD12C,0.600000*%
G04 #@! TD*
G04 APERTURE END LIST*
D10*
G04 #@! TO.P,J1,1,Pin_1_1*
G04 #@! TO.N,/3V3*
X67700000Y-56000000D03*
D11*
G04 #@! TO.P,J1,2,Pin_2_2*
G04 #@! TO.N,/HALL_TACH*
X67700000Y-54000000D03*
G04 #@! TO.P,J1,3,Pin_3_3*
G04 #@! TO.N,/AGND*
X67700000Y-52000000D03*
G04 #@! TD*
D12*
G04 #@! TO.N,/AGND*
X54300000Y-51300000D03*
X52100000Y-54000000D03*
G04 #@! TD*
G04 #@! TA.AperFunction,Conductor*
G04 #@! TO.N,/AGND*
G36*
X67843039Y-50320185D02*
G01*
X67888794Y-50372989D01*
X67900000Y-50424500D01*
X67900000Y-51682457D01*
X67844745Y-51650556D01*
X67749370Y-51625000D01*
X67650630Y-51625000D01*
X67555255Y-51650556D01*
X67469745Y-51699925D01*
X67450000Y-51719670D01*
X67450000Y-50900000D01*
X67338429Y-50900000D01*
X67167415Y-50927085D01*
X67002742Y-50980591D01*
X66848475Y-51059195D01*
X66708397Y-51160967D01*
X66585967Y-51283397D01*
X66484195Y-51423475D01*
X66405591Y-51577744D01*
X66352085Y-51742415D01*
X66350884Y-51749999D01*
X66350885Y-51750000D01*
X67419670Y-51750000D01*
X67399925Y-51769745D01*
X67350556Y-51855255D01*
X67325000Y-51950630D01*
X67325000Y-52049370D01*
X67350556Y-52144745D01*
X67399925Y-52230255D01*
X67419670Y-52250000D01*
X66350885Y-52250000D01*
X66351931Y-52256605D01*
X66342974Y-52325898D01*
X66297977Y-52379349D01*
X66231225Y-52399987D01*
X66229457Y-52400000D01*
X55117159Y-52400000D01*
X52853479Y-54663681D01*
X52792156Y-54697166D01*
X52765798Y-54700000D01*
X51524000Y-54700000D01*
X51456961Y-54680315D01*
X51411206Y-54627511D01*
X51400000Y-54576000D01*
X51400000Y-53251362D01*
X51419685Y-53184323D01*
X51436319Y-53163681D01*
X54263181Y-50336819D01*
X54324504Y-50303334D01*
X54350862Y-50300500D01*
X67776000Y-50300500D01*
X67843039Y-50320185D01*
G37*
G04 #@! TD.AperFunction*
G04 #@! TD*
M02*
