ISO-10303-21;
HEADER;
/* Generated by software containing ST-Developer
 * from STEP Tools, Inc. (www.steptools.com) 
 */
/* OPTION: using custom renumber hook */

FILE_DESCRIPTION(
/* description */ ('STEP AP242 Edition 2',
'CAx-IF Rec.Pracs.---Representation and Presentation of Product Manufa
cturing Information (PMI)---4.0---2014-10-13',
'CAx-IF Rec.Pracs.---3D Tessellated Geometry---0.4---2014-09-14','2;1',
'CAx-IF Rec.Pracs.---User Defined Attributes---1.5---2016-08-15'),
/* implementation_level */ '2;1');

FILE_NAME(
/* name */ 'Fan Parts Studio - MC-100',
/* time_stamp */ '2026-08-02T16:47:41Z',
/* author */ (''),
/* organization */ (''),
/* preprocessor_version */ 'ST-DEVELOPER v20',
/* originating_system */ 'ONSHAPE BY PTC INC, 1.218',
/* authorisation */ '  ');

FILE_SCHEMA (('AP242_MANAGED_MODEL_BASED_3D_ENGINEERING_MIM_LF { 1 0 10303 442 3 1 4 }'));
ENDSEC;

DATA;
#10=SHAPE_REPRESENTATION_RELATIONSHIP('','',#539,#11);
#11=ADVANCED_BREP_SHAPE_REPRESENTATION('',(#537),#919);
#12=CYLINDRICAL_SURFACE('',#577,0.09);
#13=CYLINDRICAL_SURFACE('',#578,0.0033);
#14=CYLINDRICAL_SURFACE('',#579,0.01025);
#15=CYLINDRICAL_SURFACE('',#580,0.0033);
#16=CYLINDRICAL_SURFACE('',#581,0.00425);
#17=CYLINDRICAL_SURFACE('',#582,0.00425);
#18=CYLINDRICAL_SURFACE('',#583,0.0033);
#19=CYLINDRICAL_SURFACE('',#584,0.00225);
#20=CYLINDRICAL_SURFACE('',#588,0.00375);
#21=CYLINDRICAL_SURFACE('',#589,0.00225);
#22=CYLINDRICAL_SURFACE('',#593,0.00375);
#23=CYLINDRICAL_SURFACE('',#594,0.00225);
#24=CYLINDRICAL_SURFACE('',#598,0.00375);
#25=CYLINDRICAL_SURFACE('',#599,0.00225);
#26=CYLINDRICAL_SURFACE('',#603,0.00375);
#27=CYLINDRICAL_SURFACE('',#605,0.003);
#28=CYLINDRICAL_SURFACE('',#607,0.003);
#29=CYLINDRICAL_SURFACE('',#609,0.003);
#30=CYLINDRICAL_SURFACE('',#611,0.003);
#31=CYLINDRICAL_SURFACE('',#612,0.00125);
#32=CYLINDRICAL_SURFACE('',#613,0.00125);
#33=LINE('',#809,#49);
#34=LINE('',#813,#50);
#35=LINE('',#817,#51);
#36=LINE('',#821,#52);
#37=LINE('',#849,#53);
#38=LINE('',#854,#54);
#39=LINE('',#858,#55);
#40=LINE('',#862,#56);
#41=LINE('',#901,#57);
#42=LINE('',#902,#58);
#43=LINE('',#904,#59);
#44=LINE('',#906,#60);
#45=LINE('',#908,#61);
#46=LINE('',#910,#62);
#47=LINE('',#912,#63);
#48=LINE('',#914,#64);
#49=VECTOR('',#646,1.);
#50=VECTOR('',#649,1.);
#51=VECTOR('',#652,1.);
#52=VECTOR('',#655,1.);
#53=VECTOR('',#684,1.);
#54=VECTOR('',#687,1.);
#55=VECTOR('',#690,1.);
#56=VECTOR('',#693,1.);
#57=VECTOR('',#752,1.);
#58=VECTOR('',#753,1.);
#59=VECTOR('',#756,1.);
#60=VECTOR('',#759,1.);
#61=VECTOR('',#762,1.);
#62=VECTOR('',#765,1.);
#63=VECTOR('',#768,1.);
#64=VECTOR('',#771,1.);
#65=ORIENTED_EDGE('',*,*,#181,.T.);
#66=ORIENTED_EDGE('',*,*,#182,.T.);
#67=ORIENTED_EDGE('',*,*,#183,.T.);
#68=ORIENTED_EDGE('',*,*,#184,.T.);
#69=ORIENTED_EDGE('',*,*,#185,.T.);
#70=ORIENTED_EDGE('',*,*,#186,.T.);
#71=ORIENTED_EDGE('',*,*,#187,.T.);
#72=ORIENTED_EDGE('',*,*,#188,.T.);
#73=ORIENTED_EDGE('',*,*,#189,.T.);
#74=ORIENTED_EDGE('',*,*,#190,.T.);
#75=ORIENTED_EDGE('',*,*,#191,.T.);
#76=ORIENTED_EDGE('',*,*,#192,.T.);
#77=ORIENTED_EDGE('',*,*,#193,.T.);
#78=ORIENTED_EDGE('',*,*,#194,.T.);
#79=ORIENTED_EDGE('',*,*,#195,.F.);
#80=ORIENTED_EDGE('',*,*,#196,.T.);
#81=ORIENTED_EDGE('',*,*,#197,.F.);
#82=ORIENTED_EDGE('',*,*,#198,.T.);
#83=ORIENTED_EDGE('',*,*,#199,.F.);
#84=ORIENTED_EDGE('',*,*,#200,.T.);
#85=ORIENTED_EDGE('',*,*,#201,.F.);
#86=ORIENTED_EDGE('',*,*,#202,.F.);
#87=ORIENTED_EDGE('',*,*,#203,.F.);
#88=ORIENTED_EDGE('',*,*,#204,.F.);
#89=ORIENTED_EDGE('',*,*,#205,.F.);
#90=ORIENTED_EDGE('',*,*,#206,.F.);
#91=ORIENTED_EDGE('',*,*,#207,.F.);
#92=ORIENTED_EDGE('',*,*,#208,.F.);
#93=ORIENTED_EDGE('',*,*,#209,.F.);
#94=ORIENTED_EDGE('',*,*,#210,.F.);
#95=ORIENTED_EDGE('',*,*,#211,.T.);
#96=ORIENTED_EDGE('',*,*,#212,.T.);
#97=ORIENTED_EDGE('',*,*,#213,.T.);
#98=ORIENTED_EDGE('',*,*,#214,.T.);
#99=ORIENTED_EDGE('',*,*,#215,.T.);
#100=ORIENTED_EDGE('',*,*,#216,.F.);
#101=ORIENTED_EDGE('',*,*,#217,.T.);
#102=ORIENTED_EDGE('',*,*,#218,.F.);
#103=ORIENTED_EDGE('',*,*,#219,.T.);
#104=ORIENTED_EDGE('',*,*,#220,.F.);
#105=ORIENTED_EDGE('',*,*,#221,.T.);
#106=ORIENTED_EDGE('',*,*,#222,.F.);
#107=ORIENTED_EDGE('',*,*,#193,.F.);
#108=ORIENTED_EDGE('',*,*,#204,.T.);
#109=ORIENTED_EDGE('',*,*,#192,.F.);
#110=ORIENTED_EDGE('',*,*,#205,.T.);
#111=ORIENTED_EDGE('',*,*,#191,.F.);
#112=ORIENTED_EDGE('',*,*,#206,.T.);
#113=ORIENTED_EDGE('',*,*,#190,.F.);
#114=ORIENTED_EDGE('',*,*,#207,.T.);
#115=ORIENTED_EDGE('',*,*,#189,.F.);
#116=ORIENTED_EDGE('',*,*,#208,.T.);
#117=ORIENTED_EDGE('',*,*,#188,.F.);
#118=ORIENTED_EDGE('',*,*,#209,.T.);
#119=ORIENTED_EDGE('',*,*,#187,.F.);
#120=ORIENTED_EDGE('',*,*,#210,.T.);
#121=ORIENTED_EDGE('',*,*,#186,.F.);
#122=ORIENTED_EDGE('',*,*,#223,.F.);
#123=ORIENTED_EDGE('',*,*,#223,.T.);
#124=ORIENTED_EDGE('',*,*,#224,.F.);
#125=ORIENTED_EDGE('',*,*,#224,.T.);
#126=ORIENTED_EDGE('',*,*,#211,.F.);
#127=ORIENTED_EDGE('',*,*,#185,.F.);
#128=ORIENTED_EDGE('',*,*,#225,.F.);
#129=ORIENTED_EDGE('',*,*,#225,.T.);
#130=ORIENTED_EDGE('',*,*,#226,.F.);
#131=ORIENTED_EDGE('',*,*,#226,.T.);
#132=ORIENTED_EDGE('',*,*,#212,.F.);
#133=ORIENTED_EDGE('',*,*,#184,.F.);
#134=ORIENTED_EDGE('',*,*,#227,.F.);
#135=ORIENTED_EDGE('',*,*,#227,.T.);
#136=ORIENTED_EDGE('',*,*,#228,.F.);
#137=ORIENTED_EDGE('',*,*,#228,.T.);
#138=ORIENTED_EDGE('',*,*,#213,.F.);
#139=ORIENTED_EDGE('',*,*,#183,.F.);
#140=ORIENTED_EDGE('',*,*,#229,.F.);
#141=ORIENTED_EDGE('',*,*,#229,.T.);
#142=ORIENTED_EDGE('',*,*,#230,.F.);
#143=ORIENTED_EDGE('',*,*,#230,.T.);
#144=ORIENTED_EDGE('',*,*,#214,.F.);
#145=ORIENTED_EDGE('',*,*,#215,.F.);
#146=ORIENTED_EDGE('',*,*,#231,.F.);
#147=ORIENTED_EDGE('',*,*,#195,.T.);
#148=ORIENTED_EDGE('',*,*,#232,.T.);
#149=ORIENTED_EDGE('',*,*,#222,.T.);
#150=ORIENTED_EDGE('',*,*,#233,.F.);
#151=ORIENTED_EDGE('',*,*,#196,.F.);
#152=ORIENTED_EDGE('',*,*,#231,.T.);
#153=ORIENTED_EDGE('',*,*,#221,.F.);
#154=ORIENTED_EDGE('',*,*,#234,.F.);
#155=ORIENTED_EDGE('',*,*,#197,.T.);
#156=ORIENTED_EDGE('',*,*,#233,.T.);
#157=ORIENTED_EDGE('',*,*,#220,.T.);
#158=ORIENTED_EDGE('',*,*,#235,.F.);
#159=ORIENTED_EDGE('',*,*,#198,.F.);
#160=ORIENTED_EDGE('',*,*,#234,.T.);
#161=ORIENTED_EDGE('',*,*,#219,.F.);
#162=ORIENTED_EDGE('',*,*,#236,.F.);
#163=ORIENTED_EDGE('',*,*,#199,.T.);
#164=ORIENTED_EDGE('',*,*,#235,.T.);
#165=ORIENTED_EDGE('',*,*,#218,.T.);
#166=ORIENTED_EDGE('',*,*,#237,.F.);
#167=ORIENTED_EDGE('',*,*,#200,.F.);
#168=ORIENTED_EDGE('',*,*,#236,.T.);
#169=ORIENTED_EDGE('',*,*,#217,.F.);
#170=ORIENTED_EDGE('',*,*,#238,.F.);
#171=ORIENTED_EDGE('',*,*,#201,.T.);
#172=ORIENTED_EDGE('',*,*,#237,.T.);
#173=ORIENTED_EDGE('',*,*,#216,.T.);
#174=ORIENTED_EDGE('',*,*,#232,.F.);
#175=ORIENTED_EDGE('',*,*,#194,.F.);
#176=ORIENTED_EDGE('',*,*,#238,.T.);
#177=ORIENTED_EDGE('',*,*,#203,.T.);
#178=ORIENTED_EDGE('',*,*,#182,.F.);
#179=ORIENTED_EDGE('',*,*,#202,.T.);
#180=ORIENTED_EDGE('',*,*,#181,.F.);
#181=EDGE_CURVE('',#239,#239,#289,.T.);
#182=EDGE_CURVE('',#240,#240,#290,.T.);
#183=EDGE_CURVE('',#241,#241,#291,.F.);
#184=EDGE_CURVE('',#242,#242,#292,.F.);
#185=EDGE_CURVE('',#243,#243,#293,.F.);
#186=EDGE_CURVE('',#244,#244,#294,.F.);
#187=EDGE_CURVE('',#245,#245,#295,.T.);
#188=EDGE_CURVE('',#246,#246,#296,.T.);
#189=EDGE_CURVE('',#247,#247,#297,.T.);
#190=EDGE_CURVE('',#248,#248,#298,.T.);
#191=EDGE_CURVE('',#249,#249,#299,.T.);
#192=EDGE_CURVE('',#250,#250,#300,.T.);
#193=EDGE_CURVE('',#251,#251,#301,.T.);
#194=EDGE_CURVE('',#252,#253,#302,.T.);
#195=EDGE_CURVE('',#254,#253,#33,.T.);
#196=EDGE_CURVE('',#254,#255,#303,.T.);
#197=EDGE_CURVE('',#256,#255,#34,.T.);
#198=EDGE_CURVE('',#256,#257,#304,.T.);
#199=EDGE_CURVE('',#258,#257,#35,.T.);
#200=EDGE_CURVE('',#258,#259,#305,.T.);
#201=EDGE_CURVE('',#252,#259,#36,.T.);
#202=EDGE_CURVE('',#260,#260,#306,.T.);
#203=EDGE_CURVE('',#261,#261,#307,.T.);
#204=EDGE_CURVE('',#262,#262,#308,.T.);
#205=EDGE_CURVE('',#263,#263,#309,.T.);
#206=EDGE_CURVE('',#264,#264,#310,.T.);
#207=EDGE_CURVE('',#265,#265,#311,.T.);
#208=EDGE_CURVE('',#266,#266,#312,.T.);
#209=EDGE_CURVE('',#267,#267,#313,.T.);
#210=EDGE_CURVE('',#268,#268,#314,.T.);
#211=EDGE_CURVE('',#269,#269,#315,.T.);
#212=EDGE_CURVE('',#270,#270,#316,.T.);
#213=EDGE_CURVE('',#271,#271,#317,.T.);
#214=EDGE_CURVE('',#272,#272,#318,.T.);
#215=EDGE_CURVE('',#273,#274,#37,.T.);
#216=EDGE_CURVE('',#275,#274,#319,.T.);
#217=EDGE_CURVE('',#275,#276,#38,.T.);
#218=EDGE_CURVE('',#277,#276,#320,.T.);
#219=EDGE_CURVE('',#277,#278,#39,.T.);
#220=EDGE_CURVE('',#279,#278,#321,.T.);
#221=EDGE_CURVE('',#279,#280,#40,.T.);
#222=EDGE_CURVE('',#273,#280,#322,.T.);
#223=EDGE_CURVE('',#281,#281,#323,.T.);
#224=EDGE_CURVE('',#282,#282,#324,.T.);
#225=EDGE_CURVE('',#283,#283,#325,.T.);
#226=EDGE_CURVE('',#284,#284,#326,.T.);
#227=EDGE_CURVE('',#285,#285,#327,.T.);
#228=EDGE_CURVE('',#286,#286,#328,.T.);
#229=EDGE_CURVE('',#287,#287,#329,.T.);
#230=EDGE_CURVE('',#288,#288,#330,.T.);
#231=EDGE_CURVE('',#254,#273,#41,.T.);
#232=EDGE_CURVE('',#253,#274,#42,.T.);
#233=EDGE_CURVE('',#255,#280,#43,.T.);
#234=EDGE_CURVE('',#256,#279,#44,.T.);
#235=EDGE_CURVE('',#257,#278,#45,.T.);
#236=EDGE_CURVE('',#258,#277,#46,.T.);
#237=EDGE_CURVE('',#259,#276,#47,.T.);
#238=EDGE_CURVE('',#252,#275,#48,.T.);
#239=VERTEX_POINT('',#781);
#240=VERTEX_POINT('',#783);
#241=VERTEX_POINT('',#785);
#242=VERTEX_POINT('',#787);
#243=VERTEX_POINT('',#789);
#244=VERTEX_POINT('',#791);
#245=VERTEX_POINT('',#793);
#246=VERTEX_POINT('',#795);
#247=VERTEX_POINT('',#797);
#248=VERTEX_POINT('',#799);
#249=VERTEX_POINT('',#801);
#250=VERTEX_POINT('',#803);
#251=VERTEX_POINT('',#805);
#252=VERTEX_POINT('',#807);
#253=VERTEX_POINT('',#808);
#254=VERTEX_POINT('',#810);
#255=VERTEX_POINT('',#812);
#256=VERTEX_POINT('',#814);
#257=VERTEX_POINT('',#816);
#258=VERTEX_POINT('',#818);
#259=VERTEX_POINT('',#820);
#260=VERTEX_POINT('',#824);
#261=VERTEX_POINT('',#826);
#262=VERTEX_POINT('',#828);
#263=VERTEX_POINT('',#830);
#264=VERTEX_POINT('',#832);
#265=VERTEX_POINT('',#834);
#266=VERTEX_POINT('',#836);
#267=VERTEX_POINT('',#838);
#268=VERTEX_POINT('',#840);
#269=VERTEX_POINT('',#842);
#270=VERTEX_POINT('',#844);
#271=VERTEX_POINT('',#846);
#272=VERTEX_POINT('',#848);
#273=VERTEX_POINT('',#850);
#274=VERTEX_POINT('',#851);
#275=VERTEX_POINT('',#853);
#276=VERTEX_POINT('',#855);
#277=VERTEX_POINT('',#857);
#278=VERTEX_POINT('',#859);
#279=VERTEX_POINT('',#861);
#280=VERTEX_POINT('',#863);
#281=VERTEX_POINT('',#874);
#282=VERTEX_POINT('',#877);
#283=VERTEX_POINT('',#881);
#284=VERTEX_POINT('',#884);
#285=VERTEX_POINT('',#888);
#286=VERTEX_POINT('',#891);
#287=VERTEX_POINT('',#895);
#288=VERTEX_POINT('',#898);
#289=CIRCLE('',#542,0.00125);
#290=CIRCLE('',#543,0.00125);
#291=CIRCLE('',#544,0.00225);
#292=CIRCLE('',#545,0.00225);
#293=CIRCLE('',#546,0.00225);
#294=CIRCLE('',#547,0.00225);
#295=CIRCLE('',#548,0.0033);
#296=CIRCLE('',#549,0.00425);
#297=CIRCLE('',#550,0.00425);
#298=CIRCLE('',#551,0.0033);
#299=CIRCLE('',#552,0.01025);
#300=CIRCLE('',#553,0.0033);
#301=CIRCLE('',#554,0.09);
#302=CIRCLE('',#555,0.003);
#303=CIRCLE('',#556,0.003);
#304=CIRCLE('',#557,0.003);
#305=CIRCLE('',#558,0.003);
#306=CIRCLE('',#560,0.00125);
#307=CIRCLE('',#561,0.00125);
#308=CIRCLE('',#562,0.09);
#309=CIRCLE('',#563,0.0033);
#310=CIRCLE('',#564,0.01025);
#311=CIRCLE('',#565,0.0033);
#312=CIRCLE('',#566,0.00425);
#313=CIRCLE('',#567,0.00425);
#314=CIRCLE('',#568,0.0033);
#315=CIRCLE('',#569,0.00375);
#316=CIRCLE('',#570,0.00375);
#317=CIRCLE('',#571,0.00375);
#318=CIRCLE('',#572,0.00375);
#319=CIRCLE('',#573,0.003);
#320=CIRCLE('',#574,0.003);
#321=CIRCLE('',#575,0.003);
#322=CIRCLE('',#576,0.003);
#323=CIRCLE('',#585,0.00225);
#324=CIRCLE('',#587,0.00375);
#325=CIRCLE('',#590,0.00225);
#326=CIRCLE('',#592,0.00375);
#327=CIRCLE('',#595,0.00225);
#328=CIRCLE('',#597,0.00375);
#329=CIRCLE('',#600,0.00225);
#330=CIRCLE('',#602,0.00375);
#331=EDGE_LOOP('',(#65));
#332=EDGE_LOOP('',(#66));
#333=EDGE_LOOP('',(#67));
#334=EDGE_LOOP('',(#68));
#335=EDGE_LOOP('',(#69));
#336=EDGE_LOOP('',(#70));
#337=EDGE_LOOP('',(#71));
#338=EDGE_LOOP('',(#72));
#339=EDGE_LOOP('',(#73));
#340=EDGE_LOOP('',(#74));
#341=EDGE_LOOP('',(#75));
#342=EDGE_LOOP('',(#76));
#343=EDGE_LOOP('',(#77));
#344=EDGE_LOOP('',(#78,#79,#80,#81,#82,#83,#84,#85));
#345=EDGE_LOOP('',(#86));
#346=EDGE_LOOP('',(#87));
#347=EDGE_LOOP('',(#88));
#348=EDGE_LOOP('',(#89));
#349=EDGE_LOOP('',(#90));
#350=EDGE_LOOP('',(#91));
#351=EDGE_LOOP('',(#92));
#352=EDGE_LOOP('',(#93));
#353=EDGE_LOOP('',(#94));
#354=EDGE_LOOP('',(#95));
#355=EDGE_LOOP('',(#96));
#356=EDGE_LOOP('',(#97));
#357=EDGE_LOOP('',(#98));
#358=EDGE_LOOP('',(#99,#100,#101,#102,#103,#104,#105,#106));
#359=EDGE_LOOP('',(#107));
#360=EDGE_LOOP('',(#108));
#361=EDGE_LOOP('',(#109));
#362=EDGE_LOOP('',(#110));
#363=EDGE_LOOP('',(#111));
#364=EDGE_LOOP('',(#112));
#365=EDGE_LOOP('',(#113));
#366=EDGE_LOOP('',(#114));
#367=EDGE_LOOP('',(#115));
#368=EDGE_LOOP('',(#116));
#369=EDGE_LOOP('',(#117));
#370=EDGE_LOOP('',(#118));
#371=EDGE_LOOP('',(#119));
#372=EDGE_LOOP('',(#120));
#373=EDGE_LOOP('',(#121));
#374=EDGE_LOOP('',(#122));
#375=EDGE_LOOP('',(#123));
#376=EDGE_LOOP('',(#124));
#377=EDGE_LOOP('',(#125));
#378=EDGE_LOOP('',(#126));
#379=EDGE_LOOP('',(#127));
#380=EDGE_LOOP('',(#128));
#381=EDGE_LOOP('',(#129));
#382=EDGE_LOOP('',(#130));
#383=EDGE_LOOP('',(#131));
#384=EDGE_LOOP('',(#132));
#385=EDGE_LOOP('',(#133));
#386=EDGE_LOOP('',(#134));
#387=EDGE_LOOP('',(#135));
#388=EDGE_LOOP('',(#136));
#389=EDGE_LOOP('',(#137));
#390=EDGE_LOOP('',(#138));
#391=EDGE_LOOP('',(#139));
#392=EDGE_LOOP('',(#140));
#393=EDGE_LOOP('',(#141));
#394=EDGE_LOOP('',(#142));
#395=EDGE_LOOP('',(#143));
#396=EDGE_LOOP('',(#144));
#397=EDGE_LOOP('',(#145,#146,#147,#148));
#398=EDGE_LOOP('',(#149,#150,#151,#152));
#399=EDGE_LOOP('',(#153,#154,#155,#156));
#400=EDGE_LOOP('',(#157,#158,#159,#160));
#401=EDGE_LOOP('',(#161,#162,#163,#164));
#402=EDGE_LOOP('',(#165,#166,#167,#168));
#403=EDGE_LOOP('',(#169,#170,#171,#172));
#404=EDGE_LOOP('',(#173,#174,#175,#176));
#405=EDGE_LOOP('',(#177));
#406=EDGE_LOOP('',(#178));
#407=EDGE_LOOP('',(#179));
#408=EDGE_LOOP('',(#180));
#409=FACE_BOUND('',#331,.T.);
#410=FACE_BOUND('',#332,.T.);
#411=FACE_BOUND('',#333,.T.);
#412=FACE_BOUND('',#334,.T.);
#413=FACE_BOUND('',#335,.T.);
#414=FACE_BOUND('',#336,.T.);
#415=FACE_BOUND('',#337,.T.);
#416=FACE_BOUND('',#338,.T.);
#417=FACE_BOUND('',#339,.T.);
#418=FACE_BOUND('',#340,.T.);
#419=FACE_BOUND('',#341,.T.);
#420=FACE_BOUND('',#342,.T.);
#421=FACE_BOUND('',#343,.T.);
#422=FACE_BOUND('',#344,.T.);
#423=FACE_BOUND('',#345,.T.);
#424=FACE_BOUND('',#346,.T.);
#425=FACE_BOUND('',#347,.T.);
#426=FACE_BOUND('',#348,.T.);
#427=FACE_BOUND('',#349,.T.);
#428=FACE_BOUND('',#350,.T.);
#429=FACE_BOUND('',#351,.T.);
#430=FACE_BOUND('',#352,.T.);
#431=FACE_BOUND('',#353,.T.);
#432=FACE_BOUND('',#354,.T.);
#433=FACE_BOUND('',#355,.T.);
#434=FACE_BOUND('',#356,.T.);
#435=FACE_BOUND('',#357,.T.);
#436=FACE_BOUND('',#358,.T.);
#437=FACE_BOUND('',#359,.T.);
#438=FACE_BOUND('',#360,.T.);
#439=FACE_BOUND('',#361,.T.);
#440=FACE_BOUND('',#362,.T.);
#441=FACE_BOUND('',#363,.T.);
#442=FACE_BOUND('',#364,.T.);
#443=FACE_BOUND('',#365,.T.);
#444=FACE_BOUND('',#366,.T.);
#445=FACE_BOUND('',#367,.T.);
#446=FACE_BOUND('',#368,.T.);
#447=FACE_BOUND('',#369,.T.);
#448=FACE_BOUND('',#370,.T.);
#449=FACE_BOUND('',#371,.T.);
#450=FACE_BOUND('',#372,.T.);
#451=FACE_BOUND('',#373,.T.);
#452=FACE_BOUND('',#374,.T.);
#453=FACE_BOUND('',#375,.T.);
#454=FACE_BOUND('',#376,.T.);
#455=FACE_BOUND('',#377,.T.);
#456=FACE_BOUND('',#378,.T.);
#457=FACE_BOUND('',#379,.T.);
#458=FACE_BOUND('',#380,.T.);
#459=FACE_BOUND('',#381,.T.);
#460=FACE_BOUND('',#382,.T.);
#461=FACE_BOUND('',#383,.T.);
#462=FACE_BOUND('',#384,.T.);
#463=FACE_BOUND('',#385,.T.);
#464=FACE_BOUND('',#386,.T.);
#465=FACE_BOUND('',#387,.T.);
#466=FACE_BOUND('',#388,.T.);
#467=FACE_BOUND('',#389,.T.);
#468=FACE_BOUND('',#390,.T.);
#469=FACE_BOUND('',#391,.T.);
#470=FACE_BOUND('',#392,.T.);
#471=FACE_BOUND('',#393,.T.);
#472=FACE_BOUND('',#394,.T.);
#473=FACE_BOUND('',#395,.T.);
#474=FACE_BOUND('',#396,.T.);
#475=FACE_BOUND('',#397,.T.);
#476=FACE_BOUND('',#398,.T.);
#477=FACE_BOUND('',#399,.T.);
#478=FACE_BOUND('',#400,.T.);
#479=FACE_BOUND('',#401,.T.);
#480=FACE_BOUND('',#402,.T.);
#481=FACE_BOUND('',#403,.T.);
#482=FACE_BOUND('',#404,.T.);
#483=FACE_BOUND('',#405,.T.);
#484=FACE_BOUND('',#406,.T.);
#485=FACE_BOUND('',#407,.T.);
#486=FACE_BOUND('',#408,.T.);
#487=PLANE('',#541);
#488=PLANE('',#559);
#489=PLANE('',#586);
#490=PLANE('',#591);
#491=PLANE('',#596);
#492=PLANE('',#601);
#493=PLANE('',#604);
#494=PLANE('',#606);
#495=PLANE('',#608);
#496=PLANE('',#610);
#497=ADVANCED_FACE('',(#409,#410,#411,#412,#413,#414,#415,#416,#417,#418,
#419,#420,#421,#422),#487,.T.);
#498=ADVANCED_FACE('',(#423,#424,#425,#426,#427,#428,#429,#430,#431,#432,
#433,#434,#435,#436),#488,.F.);
#499=ADVANCED_FACE('',(#437,#438),#12,.T.);
#500=ADVANCED_FACE('',(#439,#440),#13,.F.);
#501=ADVANCED_FACE('',(#441,#442),#14,.F.);
#502=ADVANCED_FACE('',(#443,#444),#15,.F.);
#503=ADVANCED_FACE('',(#445,#446),#16,.F.);
#504=ADVANCED_FACE('',(#447,#448),#17,.F.);
#505=ADVANCED_FACE('',(#449,#450),#18,.F.);
#506=ADVANCED_FACE('',(#451,#452),#19,.F.);
#507=ADVANCED_FACE('',(#453,#454),#489,.T.);
#508=ADVANCED_FACE('',(#455,#456),#20,.F.);
#509=ADVANCED_FACE('',(#457,#458),#21,.F.);
#510=ADVANCED_FACE('',(#459,#460),#490,.T.);
#511=ADVANCED_FACE('',(#461,#462),#22,.F.);
#512=ADVANCED_FACE('',(#463,#464),#23,.F.);
#513=ADVANCED_FACE('',(#465,#466),#491,.T.);
#514=ADVANCED_FACE('',(#467,#468),#24,.F.);
#515=ADVANCED_FACE('',(#469,#470),#25,.F.);
#516=ADVANCED_FACE('',(#471,#472),#492,.T.);
#517=ADVANCED_FACE('',(#473,#474),#26,.F.);
#518=ADVANCED_FACE('',(#475),#493,.T.);
#519=ADVANCED_FACE('',(#476),#27,.F.);
#520=ADVANCED_FACE('',(#477),#494,.T.);
#521=ADVANCED_FACE('',(#478),#28,.F.);
#522=ADVANCED_FACE('',(#479),#495,.T.);
#523=ADVANCED_FACE('',(#480),#29,.F.);
#524=ADVANCED_FACE('',(#481),#496,.T.);
#525=ADVANCED_FACE('',(#482),#30,.F.);
#526=ADVANCED_FACE('',(#483,#484),#31,.F.);
#527=ADVANCED_FACE('',(#485,#486),#32,.F.);
#528=CLOSED_SHELL('',(#497,#498,#499,#500,#501,#502,#503,#504,#505,#506,
#507,#508,#509,#510,#511,#512,#513,#514,#515,#516,#517,#518,#519,#520,#521,
#522,#523,#524,#525,#526,#527));
#529=STYLED_ITEM('',(#530),#537);
#530=PRESENTATION_STYLE_ASSIGNMENT((#531));
#531=SURFACE_STYLE_USAGE(.BOTH.,#532);
#532=SURFACE_SIDE_STYLE('',(#533));
#533=SURFACE_STYLE_FILL_AREA(#534);
#534=FILL_AREA_STYLE('',(#535));
#535=FILL_AREA_STYLE_COLOUR('',#536);
#536=COLOUR_RGB('',0.513725490196078,0.737254901960784,0.407843137254902);
#537=MANIFOLD_SOLID_BREP('MC-100',#528);
#538=SHAPE_DEFINITION_REPRESENTATION(#924,#539);
#539=SHAPE_REPRESENTATION('MC-100',(#540),#919);
#540=AXIS2_PLACEMENT_3D('',#778,#614,#615);
#541=AXIS2_PLACEMENT_3D('',#779,#616,#617);
#542=AXIS2_PLACEMENT_3D('',#780,#618,#619);
#543=AXIS2_PLACEMENT_3D('',#782,#620,#621);
#544=AXIS2_PLACEMENT_3D('',#784,#622,#623);
#545=AXIS2_PLACEMENT_3D('',#786,#624,#625);
#546=AXIS2_PLACEMENT_3D('',#788,#626,#627);
#547=AXIS2_PLACEMENT_3D('',#790,#628,#629);
#548=AXIS2_PLACEMENT_3D('',#792,#630,#631);
#549=AXIS2_PLACEMENT_3D('',#794,#632,#633);
#550=AXIS2_PLACEMENT_3D('',#796,#634,#635);
#551=AXIS2_PLACEMENT_3D('',#798,#636,#637);
#552=AXIS2_PLACEMENT_3D('',#800,#638,#639);
#553=AXIS2_PLACEMENT_3D('',#802,#640,#641);
#554=AXIS2_PLACEMENT_3D('',#804,#642,#643);
#555=AXIS2_PLACEMENT_3D('',#806,#644,#645);
#556=AXIS2_PLACEMENT_3D('',#811,#647,#648);
#557=AXIS2_PLACEMENT_3D('',#815,#650,#651);
#558=AXIS2_PLACEMENT_3D('',#819,#653,#654);
#559=AXIS2_PLACEMENT_3D('',#822,#656,#657);
#560=AXIS2_PLACEMENT_3D('',#823,#658,#659);
#561=AXIS2_PLACEMENT_3D('',#825,#660,#661);
#562=AXIS2_PLACEMENT_3D('',#827,#662,#663);
#563=AXIS2_PLACEMENT_3D('',#829,#664,#665);
#564=AXIS2_PLACEMENT_3D('',#831,#666,#667);
#565=AXIS2_PLACEMENT_3D('',#833,#668,#669);
#566=AXIS2_PLACEMENT_3D('',#835,#670,#671);
#567=AXIS2_PLACEMENT_3D('',#837,#672,#673);
#568=AXIS2_PLACEMENT_3D('',#839,#674,#675);
#569=AXIS2_PLACEMENT_3D('',#841,#676,#677);
#570=AXIS2_PLACEMENT_3D('',#843,#678,#679);
#571=AXIS2_PLACEMENT_3D('',#845,#680,#681);
#572=AXIS2_PLACEMENT_3D('',#847,#682,#683);
#573=AXIS2_PLACEMENT_3D('',#852,#685,#686);
#574=AXIS2_PLACEMENT_3D('',#856,#688,#689);
#575=AXIS2_PLACEMENT_3D('',#860,#691,#692);
#576=AXIS2_PLACEMENT_3D('',#864,#694,#695);
#577=AXIS2_PLACEMENT_3D('',#865,#696,#697);
#578=AXIS2_PLACEMENT_3D('',#866,#698,#699);
#579=AXIS2_PLACEMENT_3D('',#867,#700,#701);
#580=AXIS2_PLACEMENT_3D('',#868,#702,#703);
#581=AXIS2_PLACEMENT_3D('',#869,#704,#705);
#582=AXIS2_PLACEMENT_3D('',#870,#706,#707);
#583=AXIS2_PLACEMENT_3D('',#871,#708,#709);
#584=AXIS2_PLACEMENT_3D('',#872,#710,#711);
#585=AXIS2_PLACEMENT_3D('',#873,#712,#713);
#586=AXIS2_PLACEMENT_3D('',#875,#714,#715);
#587=AXIS2_PLACEMENT_3D('',#876,#716,#717);
#588=AXIS2_PLACEMENT_3D('',#878,#718,#719);
#589=AXIS2_PLACEMENT_3D('',#879,#720,#721);
#590=AXIS2_PLACEMENT_3D('',#880,#722,#723);
#591=AXIS2_PLACEMENT_3D('',#882,#724,#725);
#592=AXIS2_PLACEMENT_3D('',#883,#726,#727);
#593=AXIS2_PLACEMENT_3D('',#885,#728,#729);
#594=AXIS2_PLACEMENT_3D('',#886,#730,#731);
#595=AXIS2_PLACEMENT_3D('',#887,#732,#733);
#596=AXIS2_PLACEMENT_3D('',#889,#734,#735);
#597=AXIS2_PLACEMENT_3D('',#890,#736,#737);
#598=AXIS2_PLACEMENT_3D('',#892,#738,#739);
#599=AXIS2_PLACEMENT_3D('',#893,#740,#741);
#600=AXIS2_PLACEMENT_3D('',#894,#742,#743);
#601=AXIS2_PLACEMENT_3D('',#896,#744,#745);
#602=AXIS2_PLACEMENT_3D('',#897,#746,#747);
#603=AXIS2_PLACEMENT_3D('',#899,#748,#749);
#604=AXIS2_PLACEMENT_3D('',#900,#750,#751);
#605=AXIS2_PLACEMENT_3D('',#903,#754,#755);
#606=AXIS2_PLACEMENT_3D('',#905,#757,#758);
#607=AXIS2_PLACEMENT_3D('',#907,#760,#761);
#608=AXIS2_PLACEMENT_3D('',#909,#763,#764);
#609=AXIS2_PLACEMENT_3D('',#911,#766,#767);
#610=AXIS2_PLACEMENT_3D('',#913,#769,#770);
#611=AXIS2_PLACEMENT_3D('',#915,#772,#773);
#612=AXIS2_PLACEMENT_3D('',#916,#774,#775);
#613=AXIS2_PLACEMENT_3D('',#917,#776,#777);
#614=DIRECTION('',(0.,0.,1.));
#615=DIRECTION('',(1.,0.,0.));
#616=DIRECTION('',(0.,0.,-1.));
#617=DIRECTION('',(1.,0.,0.));
#618=DIRECTION('',(0.,0.,1.));
#619=DIRECTION('',(1.,0.,0.));
#620=DIRECTION('',(0.,0.,1.));
#621=DIRECTION('',(1.,0.,0.));
#622=DIRECTION('',(0.,0.,-1.));
#623=DIRECTION('',(-1.,0.,0.));
#624=DIRECTION('',(0.,0.,-1.));
#625=DIRECTION('',(-1.,0.,0.));
#626=DIRECTION('',(0.,0.,-1.));
#627=DIRECTION('',(-1.,0.,0.));
#628=DIRECTION('',(0.,0.,-1.));
#629=DIRECTION('',(-1.,0.,0.));
#630=DIRECTION('',(0.,0.,1.));
#631=DIRECTION('',(1.,0.,0.));
#632=DIRECTION('',(0.,0.,1.));
#633=DIRECTION('',(1.,0.,0.));
#634=DIRECTION('',(0.,0.,1.));
#635=DIRECTION('',(1.,0.,0.));
#636=DIRECTION('',(0.,0.,1.));
#637=DIRECTION('',(1.,0.,0.));
#638=DIRECTION('',(0.,0.,1.));
#639=DIRECTION('',(1.,0.,0.));
#640=DIRECTION('',(0.,0.,1.));
#641=DIRECTION('',(1.,0.,0.));
#642=DIRECTION('',(0.,0.,-1.));
#643=DIRECTION('',(-1.,0.,0.));
#644=DIRECTION('',(0.,0.,1.));
#645=DIRECTION('',(1.,0.,0.));
#646=DIRECTION('',(0.714106238842749,-0.70003734160819,0.));
#647=DIRECTION('',(0.,0.,1.));
#648=DIRECTION('',(1.,0.,0.));
#649=DIRECTION('',(0.70003734160819,0.71410623884275,0.));
#650=DIRECTION('',(0.,0.,1.));
#651=DIRECTION('',(1.,0.,0.));
#652=DIRECTION('',(-0.714106238842749,0.700037341608191,0.));
#653=DIRECTION('',(0.,0.,1.));
#654=DIRECTION('',(1.,0.,0.));
#655=DIRECTION('',(-0.70003734160819,-0.71410623884275,0.));
#656=DIRECTION('',(0.,0.,-1.));
#657=DIRECTION('',(1.,0.,0.));
#658=DIRECTION('',(0.,0.,1.));
#659=DIRECTION('',(1.,0.,0.));
#660=DIRECTION('',(0.,0.,1.));
#661=DIRECTION('',(1.,0.,0.));
#662=DIRECTION('',(0.,0.,-1.));
#663=DIRECTION('',(-1.,0.,0.));
#664=DIRECTION('',(0.,0.,1.));
#665=DIRECTION('',(1.,0.,0.));
#666=DIRECTION('',(0.,0.,1.));
#667=DIRECTION('',(1.,0.,0.));
#668=DIRECTION('',(0.,0.,1.));
#669=DIRECTION('',(1.,0.,0.));
#670=DIRECTION('',(0.,0.,1.));
#671=DIRECTION('',(1.,0.,0.));
#672=DIRECTION('',(0.,0.,1.));
#673=DIRECTION('',(1.,0.,0.));
#674=DIRECTION('',(0.,0.,1.));
#675=DIRECTION('',(1.,0.,0.));
#676=DIRECTION('',(0.,0.,-1.));
#677=DIRECTION('',(-1.,0.,0.));
#678=DIRECTION('',(0.,0.,-1.));
#679=DIRECTION('',(-1.,0.,0.));
#680=DIRECTION('',(0.,0.,-1.));
#681=DIRECTION('',(-1.,0.,0.));
#682=DIRECTION('',(0.,0.,-1.));
#683=DIRECTION('',(-1.,0.,0.));
#684=DIRECTION('',(0.714106238842749,-0.70003734160819,0.));
#685=DIRECTION('',(0.,0.,1.));
#686=DIRECTION('',(1.,0.,0.));
#687=DIRECTION('',(-0.70003734160819,-0.71410623884275,0.));
#688=DIRECTION('',(0.,0.,1.));
#689=DIRECTION('',(1.,0.,0.));
#690=DIRECTION('',(-0.714106238842749,0.700037341608191,0.));
#691=DIRECTION('',(0.,0.,1.));
#692=DIRECTION('',(1.,0.,0.));
#693=DIRECTION('',(0.70003734160819,0.71410623884275,0.));
#694=DIRECTION('',(0.,0.,1.));
#695=DIRECTION('',(1.,0.,0.));
#696=DIRECTION('',(0.,0.,1.));
#697=DIRECTION('',(1.,0.,0.));
#698=DIRECTION('',(0.,0.,1.));
#699=DIRECTION('',(1.,0.,0.));
#700=DIRECTION('',(0.,0.,1.));
#701=DIRECTION('',(1.,0.,0.));
#702=DIRECTION('',(0.,0.,1.));
#703=DIRECTION('',(1.,0.,0.));
#704=DIRECTION('',(0.,0.,1.));
#705=DIRECTION('',(1.,0.,0.));
#706=DIRECTION('',(0.,0.,1.));
#707=DIRECTION('',(1.,0.,0.));
#708=DIRECTION('',(0.,0.,1.));
#709=DIRECTION('',(1.,0.,0.));
#710=DIRECTION('',(0.,0.,-1.));
#711=DIRECTION('',(-1.,0.,0.));
#712=DIRECTION('',(0.,0.,-1.));
#713=DIRECTION('',(-1.,0.,0.));
#714=DIRECTION('',(0.,0.,1.));
#715=DIRECTION('',(1.,0.,0.));
#716=DIRECTION('',(0.,0.,-1.));
#717=DIRECTION('',(-1.,0.,0.));
#718=DIRECTION('',(0.,0.,-1.));
#719=DIRECTION('',(-1.,0.,0.));
#720=DIRECTION('',(0.,0.,-1.));
#721=DIRECTION('',(-1.,0.,0.));
#722=DIRECTION('',(0.,0.,-1.));
#723=DIRECTION('',(-1.,0.,0.));
#724=DIRECTION('',(0.,0.,1.));
#725=DIRECTION('',(1.,0.,0.));
#726=DIRECTION('',(0.,0.,-1.));
#727=DIRECTION('',(-1.,0.,0.));
#728=DIRECTION('',(0.,0.,-1.));
#729=DIRECTION('',(-1.,0.,0.));
#730=DIRECTION('',(0.,0.,-1.));
#731=DIRECTION('',(-1.,0.,0.));
#732=DIRECTION('',(0.,0.,-1.));
#733=DIRECTION('',(-1.,0.,0.));
#734=DIRECTION('',(0.,0.,1.));
#735=DIRECTION('',(1.,0.,0.));
#736=DIRECTION('',(0.,0.,-1.));
#737=DIRECTION('',(-1.,0.,0.));
#738=DIRECTION('',(0.,0.,-1.));
#739=DIRECTION('',(-1.,0.,0.));
#740=DIRECTION('',(0.,0.,-1.));
#741=DIRECTION('',(-1.,0.,0.));
#742=DIRECTION('',(0.,0.,-1.));
#743=DIRECTION('',(-1.,0.,0.));
#744=DIRECTION('',(0.,0.,1.));
#745=DIRECTION('',(1.,0.,0.));
#746=DIRECTION('',(0.,0.,-1.));
#747=DIRECTION('',(-1.,0.,0.));
#748=DIRECTION('',(0.,0.,-1.));
#749=DIRECTION('',(-1.,0.,0.));
#750=DIRECTION('',(-0.700037341608191,-0.714106238842749,0.));
#751=DIRECTION('',(0.714106238842749,-0.700037341608191,0.));
#752=DIRECTION('',(0.,0.,1.));
#753=DIRECTION('',(0.,0.,1.));
#754=DIRECTION('',(0.,0.,1.));
#755=DIRECTION('',(1.,0.,0.));
#756=DIRECTION('',(0.,0.,1.));
#757=DIRECTION('',(0.71410623884275,-0.70003734160819,0.));
#758=DIRECTION('',(0.70003734160819,0.71410623884275,0.));
#759=DIRECTION('',(0.,0.,1.));
#760=DIRECTION('',(0.,0.,1.));
#761=DIRECTION('',(1.,0.,0.));
#762=DIRECTION('',(0.,0.,1.));
#763=DIRECTION('',(0.700037341608191,0.714106238842749,0.));
#764=DIRECTION('',(-0.714106238842749,0.700037341608191,0.));
#765=DIRECTION('',(0.,0.,1.));
#766=DIRECTION('',(0.,0.,1.));
#767=DIRECTION('',(1.,0.,0.));
#768=DIRECTION('',(0.,0.,1.));
#769=DIRECTION('',(-0.71410623884275,0.70003734160819,0.));
#770=DIRECTION('',(-0.70003734160819,-0.71410623884275,0.));
#771=DIRECTION('',(0.,0.,1.));
#772=DIRECTION('',(0.,0.,1.));
#773=DIRECTION('',(1.,0.,0.));
#774=DIRECTION('',(0.,0.,1.));
#775=DIRECTION('',(1.,0.,0.));
#776=DIRECTION('',(0.,0.,1.));
#777=DIRECTION('',(1.,0.,0.));
#778=CARTESIAN_POINT('',(0.,0.,0.));
#779=CARTESIAN_POINT('',(0.,0.,-0.076));
#780=CARTESIAN_POINT('',(-0.0644878036686952,-0.0303038475772934,-0.076));
#781=CARTESIAN_POINT('',(-0.0632378036686952,-0.0303038475772934,-0.076));
#782=CARTESIAN_POINT('',(-0.0584878036686952,-0.0406961524227066,-0.076));
#783=CARTESIAN_POINT('',(-0.0572378036686952,-0.0406961524227066,-0.076));
#784=CARTESIAN_POINT('',(-0.03,-4.33680868994202E-18,-0.076));
#785=CARTESIAN_POINT('',(-0.03225,-4.33680868994202E-18,-0.076));
#786=CARTESIAN_POINT('',(-3.46944695195361E-18,-0.03,-0.076));
#787=CARTESIAN_POINT('',(-0.00225,-0.03,-0.076));
#788=CARTESIAN_POINT('',(0.03,4.33680868994202E-18,-0.076));
#789=CARTESIAN_POINT('',(0.02775,4.33680868994202E-18,-0.076));
#790=CARTESIAN_POINT('',(0.,0.03,-0.076));
#791=CARTESIAN_POINT('',(-0.00225,0.03,-0.076));
#792=CARTESIAN_POINT('',(0.0649519052838329,0.0375,-0.076));
#793=CARTESIAN_POINT('',(0.0682519052838329,0.0375,-0.076));
#794=CARTESIAN_POINT('',(0.007,0.076,-0.076));
#795=CARTESIAN_POINT('',(0.01125,0.076,-0.076));
#796=CARTESIAN_POINT('',(-0.007,0.076,-0.076));
#797=CARTESIAN_POINT('',(-0.00275,0.076,-0.076));
#798=CARTESIAN_POINT('',(-0.0649519052838329,0.0375,-0.076));
#799=CARTESIAN_POINT('',(-0.0616519052838329,0.0375,-0.076));
#800=CARTESIAN_POINT('',(0.,6.27631484563019E-19,-0.076));
#801=CARTESIAN_POINT('',(0.01025,6.27631484563019E-19,-0.076));
#802=CARTESIAN_POINT('',(0.,-0.075,-0.076));
#803=CARTESIAN_POINT('',(0.0033,-0.075,-0.076));
#804=CARTESIAN_POINT('',(0.,-5.51091059616309E-18,-0.076));
#805=CARTESIAN_POINT('',(-0.09,-5.51091059616309E-18,-0.076));
#806=CARTESIAN_POINT('',(-0.0254921001338901,0.0347923329307439,-0.076));
#807=CARTESIAN_POINT('',(-0.0233497814173618,0.0326922209059193,-0.076));
#808=CARTESIAN_POINT('',(-0.0233919881090656,0.036934651647272,-0.076));
#809=CARTESIAN_POINT('',(-0.0255343068255937,0.0390347636720966,-0.076));
#810=CARTESIAN_POINT('',(-0.027676625542122,0.0411348756969212,-0.076));
#811=CARTESIAN_POINT('',(-0.0297767375669466,0.038992556980393,-0.076));
#812=CARTESIAN_POINT('',(-0.0319190562834748,0.0410926690052175,-0.076));
#813=CARTESIAN_POINT('',(-0.0368193176747321,0.0360939253333183,-0.076));
#814=CARTESIAN_POINT('',(-0.0417195790659895,0.0310951816614191,-0.076));
#815=CARTESIAN_POINT('',(-0.0395772603494612,0.0289950696365944,-0.076));
#816=CARTESIAN_POINT('',(-0.0416773723742858,0.0268527509200663,-0.076));
#817=CARTESIAN_POINT('',(-0.0395350536577576,0.0247526388952417,-0.076));
#818=CARTESIAN_POINT('',(-0.0373927349412293,0.0226525268704171,-0.076));
#819=CARTESIAN_POINT('',(-0.0352926229164048,0.0247948455869453,-0.076));
#820=CARTESIAN_POINT('',(-0.0331503041998765,0.0226947335621208,-0.076));
#821=CARTESIAN_POINT('',(-0.0282500428086192,0.02769347723402,-0.076));
#822=CARTESIAN_POINT('',(0.,0.,-0.068));
#823=CARTESIAN_POINT('',(-0.0644878036686952,-0.0303038475772934,-0.068));
#824=CARTESIAN_POINT('',(-0.0632378036686952,-0.0303038475772934,-0.068));
#825=CARTESIAN_POINT('',(-0.0584878036686952,-0.0406961524227066,-0.068));
#826=CARTESIAN_POINT('',(-0.0572378036686952,-0.0406961524227066,-0.068));
#827=CARTESIAN_POINT('',(0.,-5.51091059616309E-18,-0.068));
#828=CARTESIAN_POINT('',(-0.09,-5.51091059616309E-18,-0.068));
#829=CARTESIAN_POINT('',(0.,-0.075,-0.068));
#830=CARTESIAN_POINT('',(0.0033,-0.075,-0.068));
#831=CARTESIAN_POINT('',(0.,6.27631484563019E-19,-0.068));
#832=CARTESIAN_POINT('',(0.01025,6.27631484563019E-19,-0.068));
#833=CARTESIAN_POINT('',(-0.0649519052838329,0.0375,-0.068));
#834=CARTESIAN_POINT('',(-0.0616519052838329,0.0375,-0.068));
#835=CARTESIAN_POINT('',(-0.007,0.076,-0.068));
#836=CARTESIAN_POINT('',(-0.00275,0.076,-0.068));
#837=CARTESIAN_POINT('',(0.007,0.076,-0.068));
#838=CARTESIAN_POINT('',(0.01125,0.076,-0.068));
#839=CARTESIAN_POINT('',(0.0649519052838329,0.0375,-0.068));
#840=CARTESIAN_POINT('',(0.0682519052838329,0.0375,-0.068));
#841=CARTESIAN_POINT('',(0.,0.03,-0.068));
#842=CARTESIAN_POINT('',(-0.00375,0.03,-0.068));
#843=CARTESIAN_POINT('',(0.03,4.33680868994202E-18,-0.068));
#844=CARTESIAN_POINT('',(0.02625,4.33680868994202E-18,-0.068));
#845=CARTESIAN_POINT('',(-3.46944695195361E-18,-0.03,-0.068));
#846=CARTESIAN_POINT('',(-0.00375,-0.03,-0.068));
#847=CARTESIAN_POINT('',(-0.03,-4.33680868994202E-18,-0.068));
#848=CARTESIAN_POINT('',(-0.03375,-4.33680868994202E-18,-0.068));
#849=CARTESIAN_POINT('',(-0.0255343068255937,0.0390347636720966,-0.068));
#850=CARTESIAN_POINT('',(-0.027676625542122,0.0411348756969212,-0.068));
#851=CARTESIAN_POINT('',(-0.0233919881090656,0.036934651647272,-0.068));
#852=CARTESIAN_POINT('',(-0.0254921001338901,0.0347923329307439,-0.068));
#853=CARTESIAN_POINT('',(-0.0233497814173618,0.0326922209059193,-0.068));
#854=CARTESIAN_POINT('',(-0.0282500428086192,0.02769347723402,-0.068));
#855=CARTESIAN_POINT('',(-0.0331503041998765,0.0226947335621208,-0.068));
#856=CARTESIAN_POINT('',(-0.0352926229164048,0.0247948455869453,-0.068));
#857=CARTESIAN_POINT('',(-0.0373927349412293,0.0226525268704171,-0.068));
#858=CARTESIAN_POINT('',(-0.0395350536577576,0.0247526388952417,-0.068));
#859=CARTESIAN_POINT('',(-0.0416773723742858,0.0268527509200663,-0.068));
#860=CARTESIAN_POINT('',(-0.0395772603494612,0.0289950696365944,-0.068));
#861=CARTESIAN_POINT('',(-0.0417195790659895,0.0310951816614191,-0.068));
#862=CARTESIAN_POINT('',(-0.0368193176747321,0.0360939253333183,-0.068));
#863=CARTESIAN_POINT('',(-0.0319190562834748,0.0410926690052175,-0.068));
#864=CARTESIAN_POINT('',(-0.0297767375669466,0.038992556980393,-0.068));
#865=CARTESIAN_POINT('',(0.,-5.51091059616309E-18,-0.076));
#866=CARTESIAN_POINT('',(0.,-0.075,-0.076));
#867=CARTESIAN_POINT('',(0.,6.27631484563019E-19,-0.076));
#868=CARTESIAN_POINT('',(-0.0649519052838329,0.0375,-0.076));
#869=CARTESIAN_POINT('',(-0.007,0.076,-0.076));
#870=CARTESIAN_POINT('',(0.007,0.076,-0.076));
#871=CARTESIAN_POINT('',(0.0649519052838329,0.0375,-0.076));
#872=CARTESIAN_POINT('',(0.,0.03,-0.068));
#873=CARTESIAN_POINT('',(0.,0.03,-0.0695));
#874=CARTESIAN_POINT('',(-0.00225,0.03,-0.0695));
#875=CARTESIAN_POINT('',(0.00375,0.03,-0.0695));
#876=CARTESIAN_POINT('',(0.,0.03,-0.0695));
#877=CARTESIAN_POINT('',(-0.00375,0.03,-0.0695));
#878=CARTESIAN_POINT('',(0.,0.03,-0.068));
#879=CARTESIAN_POINT('',(0.03,4.33680868994202E-18,-0.068));
#880=CARTESIAN_POINT('',(0.03,4.33680868994202E-18,-0.0695));
#881=CARTESIAN_POINT('',(0.02775,4.33680868994202E-18,-0.0695));
#882=CARTESIAN_POINT('',(0.03375,4.33680868994202E-18,-0.0695));
#883=CARTESIAN_POINT('',(0.03,4.33680868994202E-18,-0.0695));
#884=CARTESIAN_POINT('',(0.02625,4.33680868994202E-18,-0.0695));
#885=CARTESIAN_POINT('',(0.03,4.33680868994202E-18,-0.068));
#886=CARTESIAN_POINT('',(-3.46944695195361E-18,-0.03,-0.068));
#887=CARTESIAN_POINT('',(-3.46944695195361E-18,-0.03,-0.0695));
#888=CARTESIAN_POINT('',(-0.00225,-0.03,-0.0695));
#889=CARTESIAN_POINT('',(0.00375,-0.03,-0.0695));
#890=CARTESIAN_POINT('',(-3.46944695195361E-18,-0.03,-0.0695));
#891=CARTESIAN_POINT('',(-0.00375,-0.03,-0.0695));
#892=CARTESIAN_POINT('',(-3.46944695195361E-18,-0.03,-0.068));
#893=CARTESIAN_POINT('',(-0.03,-4.33680868994202E-18,-0.068));
#894=CARTESIAN_POINT('',(-0.03,-4.33680868994202E-18,-0.0695));
#895=CARTESIAN_POINT('',(-0.03225,-4.33680868994202E-18,-0.0695));
#896=CARTESIAN_POINT('',(-0.02625,-4.33680868994202E-18,-0.0695));
#897=CARTESIAN_POINT('',(-0.03,-4.33680868994202E-18,-0.0695));
#898=CARTESIAN_POINT('',(-0.03375,-4.33680868994202E-18,-0.0695));
#899=CARTESIAN_POINT('',(-0.03,-4.33680868994202E-18,-0.068));
#900=CARTESIAN_POINT('',(-0.0255343068255937,0.0390347636720966,-0.076));
#901=CARTESIAN_POINT('',(-0.027676625542122,0.0411348756969212,-0.076));
#902=CARTESIAN_POINT('',(-0.0233919881090656,0.036934651647272,-0.076));
#903=CARTESIAN_POINT('',(-0.0297767375669466,0.038992556980393,-0.076));
#904=CARTESIAN_POINT('',(-0.0319190562834748,0.0410926690052175,-0.076));
#905=CARTESIAN_POINT('',(-0.0368193176747321,0.0360939253333183,-0.076));
#906=CARTESIAN_POINT('',(-0.0417195790659895,0.0310951816614191,-0.076));
#907=CARTESIAN_POINT('',(-0.0395772603494612,0.0289950696365944,-0.076));
#908=CARTESIAN_POINT('',(-0.0416773723742858,0.0268527509200663,-0.076));
#909=CARTESIAN_POINT('',(-0.0395350536577576,0.0247526388952417,-0.076));
#910=CARTESIAN_POINT('',(-0.0373927349412293,0.0226525268704171,-0.076));
#911=CARTESIAN_POINT('',(-0.0352926229164048,0.0247948455869453,-0.076));
#912=CARTESIAN_POINT('',(-0.0331503041998765,0.0226947335621208,-0.076));
#913=CARTESIAN_POINT('',(-0.0282500428086192,0.02769347723402,-0.076));
#914=CARTESIAN_POINT('',(-0.0233497814173618,0.0326922209059193,-0.076));
#915=CARTESIAN_POINT('',(-0.0254921001338901,0.0347923329307439,-0.076));
#916=CARTESIAN_POINT('',(-0.0584878036686952,-0.0406961524227066,-0.076));
#917=CARTESIAN_POINT('',(-0.0644878036686952,-0.0303038475772934,-0.076));
#918=MECHANICAL_DESIGN_GEOMETRIC_PRESENTATION_REPRESENTATION('',(#529),
#919);
#919=(
GEOMETRIC_REPRESENTATION_CONTEXT(3)
GLOBAL_UNCERTAINTY_ASSIGNED_CONTEXT((#920))
GLOBAL_UNIT_ASSIGNED_CONTEXT((#923,#922,#921))
REPRESENTATION_CONTEXT('MC-100','TOP_LEVEL_ASSEMBLY_PART')
);
#920=UNCERTAINTY_MEASURE_WITH_UNIT(LENGTH_MEASURE(1.E-8),#923,
'DISTANCE_ACCURACY_VALUE','Maximum Tolerance applied to model');
#921=(
NAMED_UNIT(*)
SI_UNIT($,.STERADIAN.)
SOLID_ANGLE_UNIT()
);
#922=(
NAMED_UNIT(*)
PLANE_ANGLE_UNIT()
SI_UNIT($,.RADIAN.)
);
#923=(
LENGTH_UNIT()
NAMED_UNIT(*)
SI_UNIT($,.METRE.)
);
#924=PRODUCT_DEFINITION_SHAPE('','',#925);
#925=PRODUCT_DEFINITION('','',#927,#926);
#926=PRODUCT_DEFINITION_CONTEXT('',#933,'design');
#927=PRODUCT_DEFINITION_FORMATION_WITH_SPECIFIED_SOURCE('','',#929,
 .NOT_KNOWN.);
#928=PRODUCT_RELATED_PRODUCT_CATEGORY('','',(#929));
#929=PRODUCT('MC-100','MC-100','MC-100',(#931));
#930=PRODUCT_CATEGORY('','');
#931=PRODUCT_CONTEXT('',#933,'mechanical');
#932=APPLICATION_PROTOCOL_DEFINITION('international standard',
'ap242_managed_model_based_3d_engineering',2020,#933);
#933=APPLICATION_CONTEXT('managed model based 3d engineering');
ENDSEC;
END-ISO-10303-21;
