ISO-10303-21;
HEADER;
/* Generated by software containing ST-Developer
 * from STEP Tools, Inc. (www.steptools.com) 
 */
/* OPTION: using custom renumber hook */

FILE_DESCRIPTION(
/* description */ ('STEP AP242 Edition 2',
'CAx-IF Rec.Pracs.---Representation and Presentation of Product Manufa
cturing Information (PMI)---4.0---2014-10-13',
'CAx-IF Rec.Pracs.---3D Tessellated Geometry---0.4---2014-09-14','2;1',
'CAx-IF Rec.Pracs.---User Defined Attributes---1.5---2016-08-15'),
/* implementation_level */ '2;1');

FILE_NAME(
/* name */ 'Part Studio 1 - Ceiling Plate',
/* time_stamp */ '2026-07-27T19:21:05Z',
/* author */ (''),
/* organization */ (''),
/* preprocessor_version */ 'ST-DEVELOPER v20',
/* originating_system */ 'ONSHAPE BY PTC INC, 1.218',
/* authorisation */ '  ');

FILE_SCHEMA (('AP242_MANAGED_MODEL_BASED_3D_ENGINEERING_MIM_LF { 1 0 10303 442 3 1 4 }'));
ENDSEC;

DATA;
#10=SHAPE_REPRESENTATION_RELATIONSHIP('','',#828,#11);
#11=ADVANCED_BREP_SHAPE_REPRESENTATION('',(#826),#1413);
#12=VERTEX_LOOP('',#470);
#13=VERTEX_LOOP('',#472);
#14=VERTEX_LOOP('',#474);
#15=VERTEX_LOOP('',#476);
#16=VERTEX_LOOP('',#478);
#17=VERTEX_LOOP('',#480);
#18=VERTEX_LOOP('',#482);
#19=VERTEX_LOOP('',#484);
#20=VERTEX_LOOP('',#486);
#21=VERTEX_LOOP('',#488);
#22=CONICAL_SURFACE('',#901,0.0033,0.785398163397446);
#23=CONICAL_SURFACE('',#902,0.0033,0.785398163397446);
#24=CONICAL_SURFACE('',#903,0.0033,0.785398163397448);
#25=CONICAL_SURFACE('',#904,0.00125,1.02974425867665);
#26=CONICAL_SURFACE('',#907,0.00125,1.02974425867665);
#27=CONICAL_SURFACE('',#910,0.00125,1.02974425867665);
#28=CONICAL_SURFACE('',#913,0.00125,1.02974425867665);
#29=CONICAL_SURFACE('',#916,0.00125,1.02974425867665);
#30=CONICAL_SURFACE('',#919,0.00125,1.02974425867665);
#31=CONICAL_SURFACE('',#922,0.00125,1.02974425867665);
#32=CONICAL_SURFACE('',#925,0.00125,1.02974425867665);
#33=CONICAL_SURFACE('',#928,0.00125,1.02974425867665);
#34=CONICAL_SURFACE('',#931,0.00125,1.02974425867665);
#35=PLANE('',#836);
#36=PLANE('',#843);
#37=PLANE('',#847);
#38=PLANE('',#851);
#39=PLANE('',#855);
#40=PLANE('',#859);
#41=PLANE('',#872);
#42=PLANE('',#876);
#43=PLANE('',#877);
#44=PLANE('',#888);
#45=PLANE('',#894);
#46=PLANE('',#897);
#47=PLANE('',#900);
#48=LINE('',#1194,#88);
#49=LINE('',#1198,#89);
#50=LINE('',#1200,#90);
#51=LINE('',#1202,#91);
#52=LINE('',#1204,#92);
#53=LINE('',#1210,#93);
#54=LINE('',#1215,#94);
#55=LINE('',#1219,#95);
#56=LINE('',#1221,#96);
#57=LINE('',#1223,#97);
#58=LINE('',#1225,#98);
#59=LINE('',#1231,#99);
#60=LINE('',#1233,#100);
#61=LINE('',#1235,#101);
#62=LINE('',#1237,#102);
#63=LINE('',#1243,#103);
#64=LINE('',#1245,#104);
#65=LINE('',#1247,#105);
#66=LINE('',#1249,#106);
#67=LINE('',#1255,#107);
#68=LINE('',#1257,#108);
#69=LINE('',#1260,#109);
#70=LINE('',#1262,#110);
#71=LINE('',#1264,#111);
#72=LINE('',#1270,#112);
#73=LINE('',#1272,#113);
#74=LINE('',#1274,#114);
#75=LINE('',#1276,#115);
#76=LINE('',#1298,#116);
#77=LINE('',#1299,#117);
#78=LINE('',#1304,#118);
#79=LINE('',#1305,#119);
#80=LINE('',#1334,#120);
#81=LINE('',#1339,#121);
#82=LINE('',#1343,#122);
#83=LINE('',#1345,#123);
#84=LINE('',#1347,#124);
#85=LINE('',#1349,#125);
#86=LINE('',#1353,#126);
#87=LINE('',#1355,#127);
#88=VECTOR('',#946,1.);
#89=VECTOR('',#949,1.);
#90=VECTOR('',#952,1.);
#91=VECTOR('',#953,1.);
#92=VECTOR('',#954,1.);
#93=VECTOR('',#961,1.);
#94=VECTOR('',#966,1.);
#95=VECTOR('',#969,1.);
#96=VECTOR('',#972,1.);
#97=VECTOR('',#973,1.);
#98=VECTOR('',#974,1.);
#99=VECTOR('',#981,1.);
#100=VECTOR('',#984,1.);
#101=VECTOR('',#985,1.);
#102=VECTOR('',#986,1.);
#103=VECTOR('',#993,1.);
#104=VECTOR('',#996,1.);
#105=VECTOR('',#997,1.);
#106=VECTOR('',#998,1.);
#107=VECTOR('',#1005,1.);
#108=VECTOR('',#1008,1.);
#109=VECTOR('',#1009,1.);
#110=VECTOR('',#1010,1.);
#111=VECTOR('',#1011,1.);
#112=VECTOR('',#1018,1.);
#113=VECTOR('',#1021,1.);
#114=VECTOR('',#1022,1.);
#115=VECTOR('',#1023,1.);
#116=VECTOR('',#1050,1.);
#117=VECTOR('',#1051,1.);
#118=VECTOR('',#1060,1.);
#119=VECTOR('',#1061,1.);
#120=VECTOR('',#1092,1.);
#121=VECTOR('',#1095,1.);
#122=VECTOR('',#1100,1.);
#123=VECTOR('',#1101,1.);
#124=VECTOR('',#1102,1.);
#125=VECTOR('',#1105,1.);
#126=VECTOR('',#1110,1.);
#127=VECTOR('',#1111,1.);
#128=ORIENTED_EDGE('',*,*,#314,.F.);
#129=ORIENTED_EDGE('',*,*,#315,.T.);
#130=ORIENTED_EDGE('',*,*,#316,.F.);
#131=ORIENTED_EDGE('',*,*,#317,.F.);
#132=ORIENTED_EDGE('',*,*,#318,.T.);
#133=ORIENTED_EDGE('',*,*,#319,.T.);
#134=ORIENTED_EDGE('',*,*,#320,.F.);
#135=ORIENTED_EDGE('',*,*,#319,.F.);
#136=ORIENTED_EDGE('',*,*,#321,.T.);
#137=ORIENTED_EDGE('',*,*,#322,.T.);
#138=ORIENTED_EDGE('',*,*,#323,.F.);
#139=ORIENTED_EDGE('',*,*,#322,.F.);
#140=ORIENTED_EDGE('',*,*,#324,.T.);
#141=ORIENTED_EDGE('',*,*,#325,.T.);
#142=ORIENTED_EDGE('',*,*,#326,.T.);
#143=ORIENTED_EDGE('',*,*,#327,.F.);
#144=ORIENTED_EDGE('',*,*,#328,.F.);
#145=ORIENTED_EDGE('',*,*,#329,.T.);
#146=ORIENTED_EDGE('',*,*,#330,.F.);
#147=ORIENTED_EDGE('',*,*,#329,.F.);
#148=ORIENTED_EDGE('',*,*,#331,.T.);
#149=ORIENTED_EDGE('',*,*,#332,.T.);
#150=ORIENTED_EDGE('',*,*,#333,.T.);
#151=ORIENTED_EDGE('',*,*,#332,.F.);
#152=ORIENTED_EDGE('',*,*,#334,.F.);
#153=ORIENTED_EDGE('',*,*,#335,.T.);
#154=ORIENTED_EDGE('',*,*,#336,.T.);
#155=ORIENTED_EDGE('',*,*,#335,.F.);
#156=ORIENTED_EDGE('',*,*,#337,.F.);
#157=ORIENTED_EDGE('',*,*,#338,.T.);
#158=ORIENTED_EDGE('',*,*,#339,.T.);
#159=ORIENTED_EDGE('',*,*,#338,.F.);
#160=ORIENTED_EDGE('',*,*,#340,.F.);
#161=ORIENTED_EDGE('',*,*,#341,.T.);
#162=ORIENTED_EDGE('',*,*,#342,.T.);
#163=ORIENTED_EDGE('',*,*,#341,.F.);
#164=ORIENTED_EDGE('',*,*,#343,.F.);
#165=ORIENTED_EDGE('',*,*,#344,.T.);
#166=ORIENTED_EDGE('',*,*,#345,.T.);
#167=ORIENTED_EDGE('',*,*,#344,.F.);
#168=ORIENTED_EDGE('',*,*,#346,.F.);
#169=ORIENTED_EDGE('',*,*,#347,.T.);
#170=ORIENTED_EDGE('',*,*,#348,.T.);
#171=ORIENTED_EDGE('',*,*,#349,.F.);
#172=ORIENTED_EDGE('',*,*,#350,.F.);
#173=ORIENTED_EDGE('',*,*,#351,.T.);
#174=ORIENTED_EDGE('',*,*,#352,.T.);
#175=ORIENTED_EDGE('',*,*,#351,.F.);
#176=ORIENTED_EDGE('',*,*,#353,.F.);
#177=ORIENTED_EDGE('',*,*,#354,.T.);
#178=ORIENTED_EDGE('',*,*,#355,.T.);
#179=ORIENTED_EDGE('',*,*,#354,.F.);
#180=ORIENTED_EDGE('',*,*,#356,.F.);
#181=ORIENTED_EDGE('',*,*,#357,.T.);
#182=ORIENTED_EDGE('',*,*,#358,.T.);
#183=ORIENTED_EDGE('',*,*,#359,.F.);
#184=ORIENTED_EDGE('',*,*,#360,.T.);
#185=ORIENTED_EDGE('',*,*,#361,.F.);
#186=ORIENTED_EDGE('',*,*,#362,.T.);
#187=ORIENTED_EDGE('',*,*,#363,.F.);
#188=ORIENTED_EDGE('',*,*,#364,.T.);
#189=ORIENTED_EDGE('',*,*,#365,.F.);
#190=ORIENTED_EDGE('',*,*,#366,.F.);
#191=ORIENTED_EDGE('',*,*,#347,.F.);
#192=ORIENTED_EDGE('',*,*,#367,.T.);
#193=ORIENTED_EDGE('',*,*,#327,.T.);
#194=ORIENTED_EDGE('',*,*,#368,.T.);
#195=ORIENTED_EDGE('',*,*,#357,.F.);
#196=ORIENTED_EDGE('',*,*,#369,.F.);
#197=ORIENTED_EDGE('',*,*,#349,.T.);
#198=ORIENTED_EDGE('',*,*,#370,.F.);
#199=ORIENTED_EDGE('',*,*,#325,.F.);
#200=ORIENTED_EDGE('',*,*,#371,.T.);
#201=ORIENTED_EDGE('',*,*,#317,.T.);
#202=ORIENTED_EDGE('',*,*,#372,.T.);
#203=ORIENTED_EDGE('',*,*,#373,.T.);
#204=ORIENTED_EDGE('',*,*,#374,.T.);
#205=ORIENTED_EDGE('',*,*,#375,.T.);
#206=ORIENTED_EDGE('',*,*,#376,.T.);
#207=ORIENTED_EDGE('',*,*,#377,.T.);
#208=ORIENTED_EDGE('',*,*,#378,.T.);
#209=ORIENTED_EDGE('',*,*,#379,.T.);
#210=ORIENTED_EDGE('',*,*,#380,.T.);
#211=ORIENTED_EDGE('',*,*,#381,.T.);
#212=ORIENTED_EDGE('',*,*,#350,.T.);
#213=ORIENTED_EDGE('',*,*,#369,.T.);
#214=ORIENTED_EDGE('',*,*,#356,.T.);
#215=ORIENTED_EDGE('',*,*,#353,.T.);
#216=ORIENTED_EDGE('',*,*,#328,.T.);
#217=ORIENTED_EDGE('',*,*,#367,.F.);
#218=ORIENTED_EDGE('',*,*,#346,.T.);
#219=ORIENTED_EDGE('',*,*,#343,.T.);
#220=ORIENTED_EDGE('',*,*,#340,.T.);
#221=ORIENTED_EDGE('',*,*,#337,.T.);
#222=ORIENTED_EDGE('',*,*,#334,.T.);
#223=ORIENTED_EDGE('',*,*,#331,.F.);
#224=ORIENTED_EDGE('',*,*,#365,.T.);
#225=ORIENTED_EDGE('',*,*,#363,.T.);
#226=ORIENTED_EDGE('',*,*,#361,.T.);
#227=ORIENTED_EDGE('',*,*,#314,.T.);
#228=ORIENTED_EDGE('',*,*,#358,.F.);
#229=ORIENTED_EDGE('',*,*,#318,.F.);
#230=ORIENTED_EDGE('',*,*,#371,.F.);
#231=ORIENTED_EDGE('',*,*,#324,.F.);
#232=ORIENTED_EDGE('',*,*,#321,.F.);
#233=ORIENTED_EDGE('',*,*,#382,.T.);
#234=ORIENTED_EDGE('',*,*,#383,.T.);
#235=ORIENTED_EDGE('',*,*,#384,.T.);
#236=ORIENTED_EDGE('',*,*,#385,.F.);
#237=ORIENTED_EDGE('',*,*,#386,.F.);
#238=ORIENTED_EDGE('',*,*,#387,.T.);
#239=ORIENTED_EDGE('',*,*,#388,.F.);
#240=ORIENTED_EDGE('',*,*,#348,.F.);
#241=ORIENTED_EDGE('',*,*,#352,.F.);
#242=ORIENTED_EDGE('',*,*,#355,.F.);
#243=ORIENTED_EDGE('',*,*,#368,.F.);
#244=ORIENTED_EDGE('',*,*,#326,.F.);
#245=ORIENTED_EDGE('',*,*,#330,.T.);
#246=ORIENTED_EDGE('',*,*,#333,.F.);
#247=ORIENTED_EDGE('',*,*,#336,.F.);
#248=ORIENTED_EDGE('',*,*,#339,.F.);
#249=ORIENTED_EDGE('',*,*,#342,.F.);
#250=ORIENTED_EDGE('',*,*,#345,.F.);
#251=ORIENTED_EDGE('',*,*,#366,.T.);
#252=ORIENTED_EDGE('',*,*,#359,.T.);
#253=ORIENTED_EDGE('',*,*,#316,.T.);
#254=ORIENTED_EDGE('',*,*,#320,.T.);
#255=ORIENTED_EDGE('',*,*,#323,.T.);
#256=ORIENTED_EDGE('',*,*,#370,.T.);
#257=ORIENTED_EDGE('',*,*,#385,.T.);
#258=ORIENTED_EDGE('',*,*,#389,.F.);
#259=ORIENTED_EDGE('',*,*,#390,.F.);
#260=ORIENTED_EDGE('',*,*,#391,.T.);
#261=ORIENTED_EDGE('',*,*,#388,.T.);
#262=ORIENTED_EDGE('',*,*,#392,.F.);
#263=ORIENTED_EDGE('',*,*,#393,.F.);
#264=ORIENTED_EDGE('',*,*,#389,.T.);
#265=ORIENTED_EDGE('',*,*,#387,.F.);
#266=ORIENTED_EDGE('',*,*,#394,.F.);
#267=ORIENTED_EDGE('',*,*,#395,.T.);
#268=ORIENTED_EDGE('',*,*,#392,.T.);
#269=ORIENTED_EDGE('',*,*,#386,.T.);
#270=ORIENTED_EDGE('',*,*,#391,.F.);
#271=ORIENTED_EDGE('',*,*,#396,.F.);
#272=ORIENTED_EDGE('',*,*,#394,.T.);
#273=ORIENTED_EDGE('',*,*,#315,.F.);
#274=ORIENTED_EDGE('',*,*,#390,.T.);
#275=ORIENTED_EDGE('',*,*,#393,.T.);
#276=ORIENTED_EDGE('',*,*,#395,.F.);
#277=ORIENTED_EDGE('',*,*,#396,.T.);
#278=ORIENTED_EDGE('',*,*,#382,.F.);
#279=ORIENTED_EDGE('',*,*,#364,.F.);
#280=ORIENTED_EDGE('',*,*,#383,.F.);
#281=ORIENTED_EDGE('',*,*,#362,.F.);
#282=ORIENTED_EDGE('',*,*,#384,.F.);
#283=ORIENTED_EDGE('',*,*,#360,.F.);
#284=ORIENTED_EDGE('',*,*,#397,.F.);
#285=ORIENTED_EDGE('',*,*,#397,.T.);
#286=ORIENTED_EDGE('',*,*,#381,.F.);
#287=ORIENTED_EDGE('',*,*,#398,.F.);
#288=ORIENTED_EDGE('',*,*,#398,.T.);
#289=ORIENTED_EDGE('',*,*,#380,.F.);
#290=ORIENTED_EDGE('',*,*,#399,.F.);
#291=ORIENTED_EDGE('',*,*,#399,.T.);
#292=ORIENTED_EDGE('',*,*,#379,.F.);
#293=ORIENTED_EDGE('',*,*,#400,.F.);
#294=ORIENTED_EDGE('',*,*,#400,.T.);
#295=ORIENTED_EDGE('',*,*,#378,.F.);
#296=ORIENTED_EDGE('',*,*,#401,.F.);
#297=ORIENTED_EDGE('',*,*,#401,.T.);
#298=ORIENTED_EDGE('',*,*,#377,.F.);
#299=ORIENTED_EDGE('',*,*,#402,.F.);
#300=ORIENTED_EDGE('',*,*,#402,.T.);
#301=ORIENTED_EDGE('',*,*,#376,.F.);
#302=ORIENTED_EDGE('',*,*,#403,.F.);
#303=ORIENTED_EDGE('',*,*,#403,.T.);
#304=ORIENTED_EDGE('',*,*,#375,.F.);
#305=ORIENTED_EDGE('',*,*,#404,.F.);
#306=ORIENTED_EDGE('',*,*,#404,.T.);
#307=ORIENTED_EDGE('',*,*,#374,.F.);
#308=ORIENTED_EDGE('',*,*,#405,.F.);
#309=ORIENTED_EDGE('',*,*,#405,.T.);
#310=ORIENTED_EDGE('',*,*,#373,.F.);
#311=ORIENTED_EDGE('',*,*,#406,.F.);
#312=ORIENTED_EDGE('',*,*,#406,.T.);
#313=ORIENTED_EDGE('',*,*,#372,.F.);
#314=EDGE_CURVE('',#407,#407,#490,.T.);
#315=EDGE_CURVE('',#408,#408,#491,.T.);
#316=EDGE_CURVE('',#409,#410,#492,.T.);
#317=EDGE_CURVE('',#411,#409,#48,.T.);
#318=EDGE_CURVE('',#411,#412,#493,.T.);
#319=EDGE_CURVE('',#412,#410,#49,.T.);
#320=EDGE_CURVE('',#410,#413,#50,.T.);
#321=EDGE_CURVE('',#412,#414,#51,.T.);
#322=EDGE_CURVE('',#414,#413,#52,.T.);
#323=EDGE_CURVE('',#413,#415,#494,.T.);
#324=EDGE_CURVE('',#414,#416,#495,.T.);
#325=EDGE_CURVE('',#416,#415,#53,.T.);
#326=EDGE_CURVE('',#417,#418,#496,.T.);
#327=EDGE_CURVE('',#419,#418,#54,.T.);
#328=EDGE_CURVE('',#420,#419,#497,.T.);
#329=EDGE_CURVE('',#420,#417,#55,.T.);
#330=EDGE_CURVE('',#417,#421,#56,.T.);
#331=EDGE_CURVE('',#420,#422,#57,.T.);
#332=EDGE_CURVE('',#422,#421,#58,.T.);
#333=EDGE_CURVE('',#423,#421,#498,.T.);
#334=EDGE_CURVE('',#424,#422,#499,.T.);
#335=EDGE_CURVE('',#424,#423,#59,.T.);
#336=EDGE_CURVE('',#425,#423,#60,.T.);
#337=EDGE_CURVE('',#426,#424,#61,.T.);
#338=EDGE_CURVE('',#426,#425,#62,.T.);
#339=EDGE_CURVE('',#427,#425,#500,.T.);
#340=EDGE_CURVE('',#428,#426,#501,.T.);
#341=EDGE_CURVE('',#428,#427,#63,.T.);
#342=EDGE_CURVE('',#429,#427,#64,.T.);
#343=EDGE_CURVE('',#430,#428,#65,.T.);
#344=EDGE_CURVE('',#430,#429,#66,.T.);
#345=EDGE_CURVE('',#431,#429,#502,.T.);
#346=EDGE_CURVE('',#432,#430,#503,.T.);
#347=EDGE_CURVE('',#432,#431,#67,.T.);
#348=EDGE_CURVE('',#433,#434,#68,.T.);
#349=EDGE_CURVE('',#435,#434,#69,.T.);
#350=EDGE_CURVE('',#436,#435,#70,.T.);
#351=EDGE_CURVE('',#436,#433,#71,.T.);
#352=EDGE_CURVE('',#437,#433,#504,.T.);
#353=EDGE_CURVE('',#438,#436,#505,.T.);
#354=EDGE_CURVE('',#438,#437,#72,.T.);
#355=EDGE_CURVE('',#439,#437,#73,.T.);
#356=EDGE_CURVE('',#440,#438,#74,.T.);
#357=EDGE_CURVE('',#440,#439,#75,.T.);
#358=EDGE_CURVE('',#441,#441,#506,.T.);
#359=EDGE_CURVE('',#442,#442,#507,.T.);
#360=EDGE_CURVE('',#443,#443,#508,.T.);
#361=EDGE_CURVE('',#444,#444,#509,.T.);
#362=EDGE_CURVE('',#445,#445,#510,.T.);
#363=EDGE_CURVE('',#446,#446,#511,.T.);
#364=EDGE_CURVE('',#447,#447,#512,.T.);
#365=EDGE_CURVE('',#448,#448,#513,.T.);
#366=EDGE_CURVE('',#431,#418,#76,.T.);
#367=EDGE_CURVE('',#432,#419,#77,.T.);
#368=EDGE_CURVE('',#434,#439,#514,.T.);
#369=EDGE_CURVE('',#435,#440,#515,.T.);
#370=EDGE_CURVE('',#415,#409,#78,.T.);
#371=EDGE_CURVE('',#416,#411,#79,.T.);
#372=EDGE_CURVE('',#449,#449,#516,.T.);
#373=EDGE_CURVE('',#450,#450,#517,.T.);
#374=EDGE_CURVE('',#451,#451,#518,.T.);
#375=EDGE_CURVE('',#452,#452,#519,.T.);
#376=EDGE_CURVE('',#453,#453,#520,.T.);
#377=EDGE_CURVE('',#454,#454,#521,.T.);
#378=EDGE_CURVE('',#455,#455,#522,.T.);
#379=EDGE_CURVE('',#456,#456,#523,.T.);
#380=EDGE_CURVE('',#457,#457,#524,.T.);
#381=EDGE_CURVE('',#458,#458,#525,.T.);
#382=EDGE_CURVE('',#459,#459,#526,.F.);
#383=EDGE_CURVE('',#460,#460,#527,.F.);
#384=EDGE_CURVE('',#461,#461,#528,.F.);
#385=EDGE_CURVE('',#462,#463,#80,.T.);
#386=EDGE_CURVE('',#464,#462,#529,.T.);
#387=EDGE_CURVE('',#464,#465,#81,.T.);
#388=EDGE_CURVE('',#463,#465,#530,.T.);
#389=EDGE_CURVE('',#466,#463,#82,.T.);
#390=EDGE_CURVE('',#467,#466,#83,.T.);
#391=EDGE_CURVE('',#467,#462,#84,.T.);
#392=EDGE_CURVE('',#468,#465,#85,.T.);
#393=EDGE_CURVE('',#466,#468,#531,.T.);
#394=EDGE_CURVE('',#469,#464,#86,.T.);
#395=EDGE_CURVE('',#469,#468,#87,.T.);
#396=EDGE_CURVE('',#469,#467,#532,.T.);
#397=EDGE_CURVE('',#471,#471,#533,.T.);
#398=EDGE_CURVE('',#473,#473,#534,.T.);
#399=EDGE_CURVE('',#475,#475,#535,.T.);
#400=EDGE_CURVE('',#477,#477,#536,.T.);
#401=EDGE_CURVE('',#479,#479,#537,.T.);
#402=EDGE_CURVE('',#481,#481,#538,.T.);
#403=EDGE_CURVE('',#483,#483,#539,.T.);
#404=EDGE_CURVE('',#485,#485,#540,.T.);
#405=EDGE_CURVE('',#487,#487,#541,.T.);
#406=EDGE_CURVE('',#489,#489,#542,.T.);
#407=VERTEX_POINT('',#1187);
#408=VERTEX_POINT('',#1189);
#409=VERTEX_POINT('',#1192);
#410=VERTEX_POINT('',#1193);
#411=VERTEX_POINT('',#1195);
#412=VERTEX_POINT('',#1197);
#413=VERTEX_POINT('',#1201);
#414=VERTEX_POINT('',#1203);
#415=VERTEX_POINT('',#1207);
#416=VERTEX_POINT('',#1209);
#417=VERTEX_POINT('',#1213);
#418=VERTEX_POINT('',#1214);
#419=VERTEX_POINT('',#1216);
#420=VERTEX_POINT('',#1218);
#421=VERTEX_POINT('',#1222);
#422=VERTEX_POINT('',#1224);
#423=VERTEX_POINT('',#1228);
#424=VERTEX_POINT('',#1230);
#425=VERTEX_POINT('',#1234);
#426=VERTEX_POINT('',#1236);
#427=VERTEX_POINT('',#1240);
#428=VERTEX_POINT('',#1242);
#429=VERTEX_POINT('',#1246);
#430=VERTEX_POINT('',#1248);
#431=VERTEX_POINT('',#1252);
#432=VERTEX_POINT('',#1254);
#433=VERTEX_POINT('',#1258);
#434=VERTEX_POINT('',#1259);
#435=VERTEX_POINT('',#1261);
#436=VERTEX_POINT('',#1263);
#437=VERTEX_POINT('',#1267);
#438=VERTEX_POINT('',#1269);
#439=VERTEX_POINT('',#1273);
#440=VERTEX_POINT('',#1275);
#441=VERTEX_POINT('',#1279);
#442=VERTEX_POINT('',#1281);
#443=VERTEX_POINT('',#1284);
#444=VERTEX_POINT('',#1286);
#445=VERTEX_POINT('',#1289);
#446=VERTEX_POINT('',#1291);
#447=VERTEX_POINT('',#1294);
#448=VERTEX_POINT('',#1296);
#449=VERTEX_POINT('',#1308);
#450=VERTEX_POINT('',#1310);
#451=VERTEX_POINT('',#1312);
#452=VERTEX_POINT('',#1314);
#453=VERTEX_POINT('',#1316);
#454=VERTEX_POINT('',#1318);
#455=VERTEX_POINT('',#1320);
#456=VERTEX_POINT('',#1322);
#457=VERTEX_POINT('',#1324);
#458=VERTEX_POINT('',#1326);
#459=VERTEX_POINT('',#1329);
#460=VERTEX_POINT('',#1331);
#461=VERTEX_POINT('',#1333);
#462=VERTEX_POINT('',#1335);
#463=VERTEX_POINT('',#1336);
#464=VERTEX_POINT('',#1338);
#465=VERTEX_POINT('',#1340);
#466=VERTEX_POINT('',#1344);
#467=VERTEX_POINT('',#1346);
#468=VERTEX_POINT('',#1350);
#469=VERTEX_POINT('',#1354);
#470=VERTEX_POINT('',#1363);
#471=VERTEX_POINT('',#1365);
#472=VERTEX_POINT('',#1368);
#473=VERTEX_POINT('',#1370);
#474=VERTEX_POINT('',#1373);
#475=VERTEX_POINT('',#1375);
#476=VERTEX_POINT('',#1378);
#477=VERTEX_POINT('',#1380);
#478=VERTEX_POINT('',#1383);
#479=VERTEX_POINT('',#1385);
#480=VERTEX_POINT('',#1388);
#481=VERTEX_POINT('',#1390);
#482=VERTEX_POINT('',#1393);
#483=VERTEX_POINT('',#1395);
#484=VERTEX_POINT('',#1398);
#485=VERTEX_POINT('',#1400);
#486=VERTEX_POINT('',#1403);
#487=VERTEX_POINT('',#1405);
#488=VERTEX_POINT('',#1408);
#489=VERTEX_POINT('',#1410);
#490=CIRCLE('',#831,0.0081);
#491=CIRCLE('',#832,0.0081);
#492=CIRCLE('',#834,0.0055);
#493=CIRCLE('',#835,0.0055);
#494=CIRCLE('',#838,0.0055);
#495=CIRCLE('',#839,0.0055);
#496=CIRCLE('',#841,0.005);
#497=CIRCLE('',#842,0.005);
#498=CIRCLE('',#845,0.005);
#499=CIRCLE('',#846,0.005);
#500=CIRCLE('',#849,0.005);
#501=CIRCLE('',#850,0.005);
#502=CIRCLE('',#853,0.005);
#503=CIRCLE('',#854,0.005);
#504=CIRCLE('',#857,0.0055);
#505=CIRCLE('',#858,0.0055);
#506=CIRCLE('',#861,0.105);
#507=CIRCLE('',#862,0.105);
#508=CIRCLE('',#864,0.0033);
#509=CIRCLE('',#865,0.0033);
#510=CIRCLE('',#867,0.0033);
#511=CIRCLE('',#868,0.0033);
#512=CIRCLE('',#870,0.0033);
#513=CIRCLE('',#871,0.0033);
#514=CIRCLE('',#874,0.0055);
#515=CIRCLE('',#875,0.0055);
#516=CIRCLE('',#878,0.00125);
#517=CIRCLE('',#879,0.00125);
#518=CIRCLE('',#880,0.00125);
#519=CIRCLE('',#881,0.00125);
#520=CIRCLE('',#882,0.00125);
#521=CIRCLE('',#883,0.00125);
#522=CIRCLE('',#884,0.00125);
#523=CIRCLE('',#885,0.00125);
#524=CIRCLE('',#886,0.00125);
#525=CIRCLE('',#887,0.00125);
#526=CIRCLE('',#889,0.0055);
#527=CIRCLE('',#890,0.0055);
#528=CIRCLE('',#891,0.0055);
#529=CIRCLE('',#892,0.0171);
#530=CIRCLE('',#893,0.0171);
#531=CIRCLE('',#896,0.0171);
#532=CIRCLE('',#899,0.0171);
#533=CIRCLE('',#905,0.00125);
#534=CIRCLE('',#908,0.00125);
#535=CIRCLE('',#911,0.00125);
#536=CIRCLE('',#914,0.00125);
#537=CIRCLE('',#917,0.00125);
#538=CIRCLE('',#920,0.00125);
#539=CIRCLE('',#923,0.00125);
#540=CIRCLE('',#926,0.00125);
#541=CIRCLE('',#929,0.00125);
#542=CIRCLE('',#932,0.00125);
#543=EDGE_LOOP('',(#128));
#544=EDGE_LOOP('',(#129));
#545=EDGE_LOOP('',(#130,#131,#132,#133));
#546=EDGE_LOOP('',(#134,#135,#136,#137));
#547=EDGE_LOOP('',(#138,#139,#140,#141));
#548=EDGE_LOOP('',(#142,#143,#144,#145));
#549=EDGE_LOOP('',(#146,#147,#148,#149));
#550=EDGE_LOOP('',(#150,#151,#152,#153));
#551=EDGE_LOOP('',(#154,#155,#156,#157));
#552=EDGE_LOOP('',(#158,#159,#160,#161));
#553=EDGE_LOOP('',(#162,#163,#164,#165));
#554=EDGE_LOOP('',(#166,#167,#168,#169));
#555=EDGE_LOOP('',(#170,#171,#172,#173));
#556=EDGE_LOOP('',(#174,#175,#176,#177));
#557=EDGE_LOOP('',(#178,#179,#180,#181));
#558=EDGE_LOOP('',(#182));
#559=EDGE_LOOP('',(#183));
#560=EDGE_LOOP('',(#184));
#561=EDGE_LOOP('',(#185));
#562=EDGE_LOOP('',(#186));
#563=EDGE_LOOP('',(#187));
#564=EDGE_LOOP('',(#188));
#565=EDGE_LOOP('',(#189));
#566=EDGE_LOOP('',(#190,#191,#192,#193));
#567=EDGE_LOOP('',(#194,#195,#196,#197));
#568=EDGE_LOOP('',(#198,#199,#200,#201));
#569=EDGE_LOOP('',(#202));
#570=EDGE_LOOP('',(#203));
#571=EDGE_LOOP('',(#204));
#572=EDGE_LOOP('',(#205));
#573=EDGE_LOOP('',(#206));
#574=EDGE_LOOP('',(#207));
#575=EDGE_LOOP('',(#208));
#576=EDGE_LOOP('',(#209));
#577=EDGE_LOOP('',(#210));
#578=EDGE_LOOP('',(#211));
#579=EDGE_LOOP('',(#212,#213,#214,#215));
#580=EDGE_LOOP('',(#216,#217,#218,#219,#220,#221,#222,#223));
#581=EDGE_LOOP('',(#224));
#582=EDGE_LOOP('',(#225));
#583=EDGE_LOOP('',(#226));
#584=EDGE_LOOP('',(#227));
#585=EDGE_LOOP('',(#228));
#586=EDGE_LOOP('',(#229,#230,#231,#232));
#587=EDGE_LOOP('',(#233));
#588=EDGE_LOOP('',(#234));
#589=EDGE_LOOP('',(#235));
#590=EDGE_LOOP('',(#236,#237,#238,#239));
#591=EDGE_LOOP('',(#240,#241,#242,#243));
#592=EDGE_LOOP('',(#244,#245,#246,#247,#248,#249,#250,#251));
#593=EDGE_LOOP('',(#252));
#594=EDGE_LOOP('',(#253,#254,#255,#256));
#595=EDGE_LOOP('',(#257,#258,#259,#260));
#596=EDGE_LOOP('',(#261,#262,#263,#264));
#597=EDGE_LOOP('',(#265,#266,#267,#268));
#598=EDGE_LOOP('',(#269,#270,#271,#272));
#599=EDGE_LOOP('',(#273));
#600=EDGE_LOOP('',(#274,#275,#276,#277));
#601=EDGE_LOOP('',(#278));
#602=EDGE_LOOP('',(#279));
#603=EDGE_LOOP('',(#280));
#604=EDGE_LOOP('',(#281));
#605=EDGE_LOOP('',(#282));
#606=EDGE_LOOP('',(#283));
#607=EDGE_LOOP('',(#284));
#608=EDGE_LOOP('',(#285));
#609=EDGE_LOOP('',(#286));
#610=EDGE_LOOP('',(#287));
#611=EDGE_LOOP('',(#288));
#612=EDGE_LOOP('',(#289));
#613=EDGE_LOOP('',(#290));
#614=EDGE_LOOP('',(#291));
#615=EDGE_LOOP('',(#292));
#616=EDGE_LOOP('',(#293));
#617=EDGE_LOOP('',(#294));
#618=EDGE_LOOP('',(#295));
#619=EDGE_LOOP('',(#296));
#620=EDGE_LOOP('',(#297));
#621=EDGE_LOOP('',(#298));
#622=EDGE_LOOP('',(#299));
#623=EDGE_LOOP('',(#300));
#624=EDGE_LOOP('',(#301));
#625=EDGE_LOOP('',(#302));
#626=EDGE_LOOP('',(#303));
#627=EDGE_LOOP('',(#304));
#628=EDGE_LOOP('',(#305));
#629=EDGE_LOOP('',(#306));
#630=EDGE_LOOP('',(#307));
#631=EDGE_LOOP('',(#308));
#632=EDGE_LOOP('',(#309));
#633=EDGE_LOOP('',(#310));
#634=EDGE_LOOP('',(#311));
#635=EDGE_LOOP('',(#312));
#636=EDGE_LOOP('',(#313));
#637=FACE_BOUND('',#543,.T.);
#638=FACE_BOUND('',#544,.T.);
#639=FACE_BOUND('',#545,.T.);
#640=FACE_BOUND('',#546,.T.);
#641=FACE_BOUND('',#547,.T.);
#642=FACE_BOUND('',#548,.T.);
#643=FACE_BOUND('',#549,.T.);
#644=FACE_BOUND('',#550,.T.);
#645=FACE_BOUND('',#551,.T.);
#646=FACE_BOUND('',#552,.T.);
#647=FACE_BOUND('',#553,.T.);
#648=FACE_BOUND('',#554,.T.);
#649=FACE_BOUND('',#555,.T.);
#650=FACE_BOUND('',#556,.T.);
#651=FACE_BOUND('',#557,.T.);
#652=FACE_BOUND('',#558,.T.);
#653=FACE_BOUND('',#559,.T.);
#654=FACE_BOUND('',#560,.T.);
#655=FACE_BOUND('',#561,.T.);
#656=FACE_BOUND('',#562,.T.);
#657=FACE_BOUND('',#563,.T.);
#658=FACE_BOUND('',#564,.T.);
#659=FACE_BOUND('',#565,.T.);
#660=FACE_BOUND('',#566,.T.);
#661=FACE_BOUND('',#567,.T.);
#662=FACE_BOUND('',#568,.T.);
#663=FACE_BOUND('',#569,.T.);
#664=FACE_BOUND('',#570,.T.);
#665=FACE_BOUND('',#571,.T.);
#666=FACE_BOUND('',#572,.T.);
#667=FACE_BOUND('',#573,.T.);
#668=FACE_BOUND('',#574,.T.);
#669=FACE_BOUND('',#575,.T.);
#670=FACE_BOUND('',#576,.T.);
#671=FACE_BOUND('',#577,.T.);
#672=FACE_BOUND('',#578,.T.);
#673=FACE_BOUND('',#579,.T.);
#674=FACE_BOUND('',#580,.T.);
#675=FACE_BOUND('',#581,.T.);
#676=FACE_BOUND('',#582,.T.);
#677=FACE_BOUND('',#583,.T.);
#678=FACE_BOUND('',#584,.T.);
#679=FACE_BOUND('',#585,.T.);
#680=FACE_BOUND('',#586,.T.);
#681=FACE_BOUND('',#587,.T.);
#682=FACE_BOUND('',#588,.T.);
#683=FACE_BOUND('',#589,.T.);
#684=FACE_BOUND('',#590,.T.);
#685=FACE_BOUND('',#591,.T.);
#686=FACE_BOUND('',#592,.T.);
#687=FACE_BOUND('',#593,.T.);
#688=FACE_BOUND('',#594,.T.);
#689=FACE_BOUND('',#595,.T.);
#690=FACE_BOUND('',#596,.T.);
#691=FACE_BOUND('',#597,.T.);
#692=FACE_BOUND('',#598,.T.);
#693=FACE_BOUND('',#599,.T.);
#694=FACE_BOUND('',#600,.T.);
#695=FACE_BOUND('',#601,.T.);
#696=FACE_BOUND('',#602,.T.);
#697=FACE_BOUND('',#603,.T.);
#698=FACE_BOUND('',#604,.T.);
#699=FACE_BOUND('',#605,.T.);
#700=FACE_BOUND('',#606,.T.);
#701=FACE_BOUND('',#12,.T.);
#702=FACE_BOUND('',#607,.T.);
#703=FACE_BOUND('',#608,.T.);
#704=FACE_BOUND('',#609,.T.);
#705=FACE_BOUND('',#13,.T.);
#706=FACE_BOUND('',#610,.T.);
#707=FACE_BOUND('',#611,.T.);
#708=FACE_BOUND('',#612,.T.);
#709=FACE_BOUND('',#14,.T.);
#710=FACE_BOUND('',#613,.T.);
#711=FACE_BOUND('',#614,.T.);
#712=FACE_BOUND('',#615,.T.);
#713=FACE_BOUND('',#15,.T.);
#714=FACE_BOUND('',#616,.T.);
#715=FACE_BOUND('',#617,.T.);
#716=FACE_BOUND('',#618,.T.);
#717=FACE_BOUND('',#16,.T.);
#718=FACE_BOUND('',#619,.T.);
#719=FACE_BOUND('',#620,.T.);
#720=FACE_BOUND('',#621,.T.);
#721=FACE_BOUND('',#17,.T.);
#722=FACE_BOUND('',#622,.T.);
#723=FACE_BOUND('',#623,.T.);
#724=FACE_BOUND('',#624,.T.);
#725=FACE_BOUND('',#18,.T.);
#726=FACE_BOUND('',#625,.T.);
#727=FACE_BOUND('',#626,.T.);
#728=FACE_BOUND('',#627,.T.);
#729=FACE_BOUND('',#19,.T.);
#730=FACE_BOUND('',#628,.T.);
#731=FACE_BOUND('',#629,.T.);
#732=FACE_BOUND('',#630,.T.);
#733=FACE_BOUND('',#20,.T.);
#734=FACE_BOUND('',#631,.T.);
#735=FACE_BOUND('',#632,.T.);
#736=FACE_BOUND('',#633,.T.);
#737=FACE_BOUND('',#21,.T.);
#738=FACE_BOUND('',#634,.T.);
#739=FACE_BOUND('',#635,.T.);
#740=FACE_BOUND('',#636,.T.);
#741=CYLINDRICAL_SURFACE('',#830,0.0081);
#742=CYLINDRICAL_SURFACE('',#833,0.0055);
#743=CYLINDRICAL_SURFACE('',#837,0.0055);
#744=CYLINDRICAL_SURFACE('',#840,0.005);
#745=CYLINDRICAL_SURFACE('',#844,0.005);
#746=CYLINDRICAL_SURFACE('',#848,0.005);
#747=CYLINDRICAL_SURFACE('',#852,0.005);
#748=CYLINDRICAL_SURFACE('',#856,0.0055);
#749=CYLINDRICAL_SURFACE('',#860,0.105);
#750=CYLINDRICAL_SURFACE('',#863,0.0033);
#751=CYLINDRICAL_SURFACE('',#866,0.0033);
#752=CYLINDRICAL_SURFACE('',#869,0.0033);
#753=CYLINDRICAL_SURFACE('',#873,0.0055);
#754=CYLINDRICAL_SURFACE('',#895,0.0171);
#755=CYLINDRICAL_SURFACE('',#898,0.0171);
#756=CYLINDRICAL_SURFACE('',#906,0.00125);
#757=CYLINDRICAL_SURFACE('',#909,0.00125);
#758=CYLINDRICAL_SURFACE('',#912,0.00125);
#759=CYLINDRICAL_SURFACE('',#915,0.00125);
#760=CYLINDRICAL_SURFACE('',#918,0.00125);
#761=CYLINDRICAL_SURFACE('',#921,0.00125);
#762=CYLINDRICAL_SURFACE('',#924,0.00125);
#763=CYLINDRICAL_SURFACE('',#927,0.00125);
#764=CYLINDRICAL_SURFACE('',#930,0.00125);
#765=CYLINDRICAL_SURFACE('',#933,0.00125);
#766=ADVANCED_FACE('',(#637,#638),#741,.F.);
#767=ADVANCED_FACE('',(#639),#742,.F.);
#768=ADVANCED_FACE('',(#640),#35,.T.);
#769=ADVANCED_FACE('',(#641),#743,.F.);
#770=ADVANCED_FACE('',(#642),#744,.F.);
#771=ADVANCED_FACE('',(#643),#36,.T.);
#772=ADVANCED_FACE('',(#644),#745,.F.);
#773=ADVANCED_FACE('',(#645),#37,.F.);
#774=ADVANCED_FACE('',(#646),#746,.F.);
#775=ADVANCED_FACE('',(#647),#38,.F.);
#776=ADVANCED_FACE('',(#648),#747,.F.);
#777=ADVANCED_FACE('',(#649),#39,.F.);
#778=ADVANCED_FACE('',(#650),#748,.F.);
#779=ADVANCED_FACE('',(#651),#40,.F.);
#780=ADVANCED_FACE('',(#652,#653),#749,.T.);
#781=ADVANCED_FACE('',(#654,#655),#750,.F.);
#782=ADVANCED_FACE('',(#656,#657),#751,.F.);
#783=ADVANCED_FACE('',(#658,#659),#752,.F.);
#784=ADVANCED_FACE('',(#660),#41,.T.);
#785=ADVANCED_FACE('',(#661),#753,.F.);
#786=ADVANCED_FACE('',(#662),#42,.T.);
#787=ADVANCED_FACE('',(#663,#664,#665,#666,#667,#668,#669,#670,#671,#672,
#673,#674,#675,#676,#677,#678,#679,#680),#43,.F.);
#788=ADVANCED_FACE('',(#681,#682,#683,#684,#685,#686,#687,#688),#44,.T.);
#789=ADVANCED_FACE('',(#689),#45,.F.);
#790=ADVANCED_FACE('',(#690),#754,.F.);
#791=ADVANCED_FACE('',(#691),#46,.T.);
#792=ADVANCED_FACE('',(#692),#755,.F.);
#793=ADVANCED_FACE('',(#693,#694),#47,.T.);
#794=ADVANCED_FACE('',(#695,#696),#22,.F.);
#795=ADVANCED_FACE('',(#697,#698),#23,.F.);
#796=ADVANCED_FACE('',(#699,#700),#24,.F.);
#797=ADVANCED_FACE('',(#701,#702),#25,.F.);
#798=ADVANCED_FACE('',(#703,#704),#756,.F.);
#799=ADVANCED_FACE('',(#705,#706),#26,.F.);
#800=ADVANCED_FACE('',(#707,#708),#757,.F.);
#801=ADVANCED_FACE('',(#709,#710),#27,.F.);
#802=ADVANCED_FACE('',(#711,#712),#758,.F.);
#803=ADVANCED_FACE('',(#713,#714),#28,.F.);
#804=ADVANCED_FACE('',(#715,#716),#759,.F.);
#805=ADVANCED_FACE('',(#717,#718),#29,.F.);
#806=ADVANCED_FACE('',(#719,#720),#760,.F.);
#807=ADVANCED_FACE('',(#721,#722),#30,.F.);
#808=ADVANCED_FACE('',(#723,#724),#761,.F.);
#809=ADVANCED_FACE('',(#725,#726),#31,.F.);
#810=ADVANCED_FACE('',(#727,#728),#762,.F.);
#811=ADVANCED_FACE('',(#729,#730),#32,.F.);
#812=ADVANCED_FACE('',(#731,#732),#763,.F.);
#813=ADVANCED_FACE('',(#733,#734),#33,.F.);
#814=ADVANCED_FACE('',(#735,#736),#764,.F.);
#815=ADVANCED_FACE('',(#737,#738),#34,.F.);
#816=ADVANCED_FACE('',(#739,#740),#765,.F.);
#817=CLOSED_SHELL('',(#766,#767,#768,#769,#770,#771,#772,#773,#774,#775,
#776,#777,#778,#779,#780,#781,#782,#783,#784,#785,#786,#787,#788,#789,#790,
#791,#792,#793,#794,#795,#796,#797,#798,#799,#800,#801,#802,#803,#804,#805,
#806,#807,#808,#809,#810,#811,#812,#813,#814,#815,#816));
#818=STYLED_ITEM('',(#819),#826);
#819=PRESENTATION_STYLE_ASSIGNMENT((#820));
#820=SURFACE_STYLE_USAGE(.BOTH.,#821);
#821=SURFACE_SIDE_STYLE('',(#822));
#822=SURFACE_STYLE_FILL_AREA(#823);
#823=FILL_AREA_STYLE('',(#824));
#824=FILL_AREA_STYLE_COLOUR('',#825);
#825=COLOUR_RGB('',0.615686274509804,0.811764705882353,0.929411764705882);
#826=MANIFOLD_SOLID_BREP('Ceiling Plate',#817);
#827=SHAPE_DEFINITION_REPRESENTATION(#1418,#828);
#828=SHAPE_REPRESENTATION('Ceiling Plate',(#829),#1413);
#829=AXIS2_PLACEMENT_3D('',#1184,#934,#935);
#830=AXIS2_PLACEMENT_3D('',#1185,#936,#937);
#831=AXIS2_PLACEMENT_3D('',#1186,#938,#939);
#832=AXIS2_PLACEMENT_3D('',#1188,#940,#941);
#833=AXIS2_PLACEMENT_3D('',#1190,#942,#943);
#834=AXIS2_PLACEMENT_3D('',#1191,#944,#945);
#835=AXIS2_PLACEMENT_3D('',#1196,#947,#948);
#836=AXIS2_PLACEMENT_3D('',#1199,#950,#951);
#837=AXIS2_PLACEMENT_3D('',#1205,#955,#956);
#838=AXIS2_PLACEMENT_3D('',#1206,#957,#958);
#839=AXIS2_PLACEMENT_3D('',#1208,#959,#960);
#840=AXIS2_PLACEMENT_3D('',#1211,#962,#963);
#841=AXIS2_PLACEMENT_3D('',#1212,#964,#965);
#842=AXIS2_PLACEMENT_3D('',#1217,#967,#968);
#843=AXIS2_PLACEMENT_3D('',#1220,#970,#971);
#844=AXIS2_PLACEMENT_3D('',#1226,#975,#976);
#845=AXIS2_PLACEMENT_3D('',#1227,#977,#978);
#846=AXIS2_PLACEMENT_3D('',#1229,#979,#980);
#847=AXIS2_PLACEMENT_3D('',#1232,#982,#983);
#848=AXIS2_PLACEMENT_3D('',#1238,#987,#988);
#849=AXIS2_PLACEMENT_3D('',#1239,#989,#990);
#850=AXIS2_PLACEMENT_3D('',#1241,#991,#992);
#851=AXIS2_PLACEMENT_3D('',#1244,#994,#995);
#852=AXIS2_PLACEMENT_3D('',#1250,#999,#1000);
#853=AXIS2_PLACEMENT_3D('',#1251,#1001,#1002);
#854=AXIS2_PLACEMENT_3D('',#1253,#1003,#1004);
#855=AXIS2_PLACEMENT_3D('',#1256,#1006,#1007);
#856=AXIS2_PLACEMENT_3D('',#1265,#1012,#1013);
#857=AXIS2_PLACEMENT_3D('',#1266,#1014,#1015);
#858=AXIS2_PLACEMENT_3D('',#1268,#1016,#1017);
#859=AXIS2_PLACEMENT_3D('',#1271,#1019,#1020);
#860=AXIS2_PLACEMENT_3D('',#1277,#1024,#1025);
#861=AXIS2_PLACEMENT_3D('',#1278,#1026,#1027);
#862=AXIS2_PLACEMENT_3D('',#1280,#1028,#1029);
#863=AXIS2_PLACEMENT_3D('',#1282,#1030,#1031);
#864=AXIS2_PLACEMENT_3D('',#1283,#1032,#1033);
#865=AXIS2_PLACEMENT_3D('',#1285,#1034,#1035);
#866=AXIS2_PLACEMENT_3D('',#1287,#1036,#1037);
#867=AXIS2_PLACEMENT_3D('',#1288,#1038,#1039);
#868=AXIS2_PLACEMENT_3D('',#1290,#1040,#1041);
#869=AXIS2_PLACEMENT_3D('',#1292,#1042,#1043);
#870=AXIS2_PLACEMENT_3D('',#1293,#1044,#1045);
#871=AXIS2_PLACEMENT_3D('',#1295,#1046,#1047);
#872=AXIS2_PLACEMENT_3D('',#1297,#1048,#1049);
#873=AXIS2_PLACEMENT_3D('',#1300,#1052,#1053);
#874=AXIS2_PLACEMENT_3D('',#1301,#1054,#1055);
#875=AXIS2_PLACEMENT_3D('',#1302,#1056,#1057);
#876=AXIS2_PLACEMENT_3D('',#1303,#1058,#1059);
#877=AXIS2_PLACEMENT_3D('',#1306,#1062,#1063);
#878=AXIS2_PLACEMENT_3D('',#1307,#1064,#1065);
#879=AXIS2_PLACEMENT_3D('',#1309,#1066,#1067);
#880=AXIS2_PLACEMENT_3D('',#1311,#1068,#1069);
#881=AXIS2_PLACEMENT_3D('',#1313,#1070,#1071);
#882=AXIS2_PLACEMENT_3D('',#1315,#1072,#1073);
#883=AXIS2_PLACEMENT_3D('',#1317,#1074,#1075);
#884=AXIS2_PLACEMENT_3D('',#1319,#1076,#1077);
#885=AXIS2_PLACEMENT_3D('',#1321,#1078,#1079);
#886=AXIS2_PLACEMENT_3D('',#1323,#1080,#1081);
#887=AXIS2_PLACEMENT_3D('',#1325,#1082,#1083);
#888=AXIS2_PLACEMENT_3D('',#1327,#1084,#1085);
#889=AXIS2_PLACEMENT_3D('',#1328,#1086,#1087);
#890=AXIS2_PLACEMENT_3D('',#1330,#1088,#1089);
#891=AXIS2_PLACEMENT_3D('',#1332,#1090,#1091);
#892=AXIS2_PLACEMENT_3D('',#1337,#1093,#1094);
#893=AXIS2_PLACEMENT_3D('',#1341,#1096,#1097);
#894=AXIS2_PLACEMENT_3D('',#1342,#1098,#1099);
#895=AXIS2_PLACEMENT_3D('',#1348,#1103,#1104);
#896=AXIS2_PLACEMENT_3D('',#1351,#1106,#1107);
#897=AXIS2_PLACEMENT_3D('',#1352,#1108,#1109);
#898=AXIS2_PLACEMENT_3D('',#1356,#1112,#1113);
#899=AXIS2_PLACEMENT_3D('',#1357,#1114,#1115);
#900=AXIS2_PLACEMENT_3D('',#1358,#1116,#1117);
#901=AXIS2_PLACEMENT_3D('',#1359,#1118,#1119);
#902=AXIS2_PLACEMENT_3D('',#1360,#1120,#1121);
#903=AXIS2_PLACEMENT_3D('',#1361,#1122,#1123);
#904=AXIS2_PLACEMENT_3D('',#1362,#1124,#1125);
#905=AXIS2_PLACEMENT_3D('',#1364,#1126,#1127);
#906=AXIS2_PLACEMENT_3D('',#1366,#1128,#1129);
#907=AXIS2_PLACEMENT_3D('',#1367,#1130,#1131);
#908=AXIS2_PLACEMENT_3D('',#1369,#1132,#1133);
#909=AXIS2_PLACEMENT_3D('',#1371,#1134,#1135);
#910=AXIS2_PLACEMENT_3D('',#1372,#1136,#1137);
#911=AXIS2_PLACEMENT_3D('',#1374,#1138,#1139);
#912=AXIS2_PLACEMENT_3D('',#1376,#1140,#1141);
#913=AXIS2_PLACEMENT_3D('',#1377,#1142,#1143);
#914=AXIS2_PLACEMENT_3D('',#1379,#1144,#1145);
#915=AXIS2_PLACEMENT_3D('',#1381,#1146,#1147);
#916=AXIS2_PLACEMENT_3D('',#1382,#1148,#1149);
#917=AXIS2_PLACEMENT_3D('',#1384,#1150,#1151);
#918=AXIS2_PLACEMENT_3D('',#1386,#1152,#1153);
#919=AXIS2_PLACEMENT_3D('',#1387,#1154,#1155);
#920=AXIS2_PLACEMENT_3D('',#1389,#1156,#1157);
#921=AXIS2_PLACEMENT_3D('',#1391,#1158,#1159);
#922=AXIS2_PLACEMENT_3D('',#1392,#1160,#1161);
#923=AXIS2_PLACEMENT_3D('',#1394,#1162,#1163);
#924=AXIS2_PLACEMENT_3D('',#1396,#1164,#1165);
#925=AXIS2_PLACEMENT_3D('',#1397,#1166,#1167);
#926=AXIS2_PLACEMENT_3D('',#1399,#1168,#1169);
#927=AXIS2_PLACEMENT_3D('',#1401,#1170,#1171);
#928=AXIS2_PLACEMENT_3D('',#1402,#1172,#1173);
#929=AXIS2_PLACEMENT_3D('',#1404,#1174,#1175);
#930=AXIS2_PLACEMENT_3D('',#1406,#1176,#1177);
#931=AXIS2_PLACEMENT_3D('',#1407,#1178,#1179);
#932=AXIS2_PLACEMENT_3D('',#1409,#1180,#1181);
#933=AXIS2_PLACEMENT_3D('',#1411,#1182,#1183);
#934=DIRECTION('',(0.,0.,1.));
#935=DIRECTION('',(1.,0.,0.));
#936=DIRECTION('',(0.,0.,1.));
#937=DIRECTION('',(1.,0.,0.));
#938=DIRECTION('',(0.,0.,1.));
#939=DIRECTION('',(1.,0.,0.));
#940=DIRECTION('',(0.,0.,1.));
#941=DIRECTION('',(1.,0.,0.));
#942=DIRECTION('',(0.,0.,1.));
#943=DIRECTION('',(1.,0.,0.));
#944=DIRECTION('',(0.,0.,-1.));
#945=DIRECTION('',(1.,0.,0.));
#946=DIRECTION('',(0.,0.,1.));
#947=DIRECTION('',(0.,0.,-1.));
#948=DIRECTION('',(1.,0.,0.));
#949=DIRECTION('',(0.,0.,1.));
#950=DIRECTION('',(0.,1.,0.));
#951=DIRECTION('',(0.,0.,1.));
#952=DIRECTION('',(-1.,0.,0.));
#953=DIRECTION('',(-1.,0.,0.));
#954=DIRECTION('',(0.,0.,1.));
#955=DIRECTION('',(0.,0.,1.));
#956=DIRECTION('',(1.,0.,0.));
#957=DIRECTION('',(0.,0.,-1.));
#958=DIRECTION('',(1.,0.,0.));
#959=DIRECTION('',(0.,0.,-1.));
#960=DIRECTION('',(1.,0.,0.));
#961=DIRECTION('',(0.,0.,1.));
#962=DIRECTION('',(0.,0.,1.));
#963=DIRECTION('',(1.,0.,0.));
#964=DIRECTION('',(0.,0.,1.));
#965=DIRECTION('',(1.,0.,0.));
#966=DIRECTION('',(0.,0.,1.));
#967=DIRECTION('',(0.,0.,1.));
#968=DIRECTION('',(1.,0.,0.));
#969=DIRECTION('',(0.,0.,1.));
#970=DIRECTION('',(1.,4.33680868994203E-16,0.));
#971=DIRECTION('',(-4.33680868994203E-16,1.,0.));
#972=DIRECTION('',(-4.33680868994203E-16,1.,0.));
#973=DIRECTION('',(-4.33680868994203E-16,1.,0.));
#974=DIRECTION('',(0.,0.,1.));
#975=DIRECTION('',(0.,0.,1.));
#976=DIRECTION('',(1.,0.,0.));
#977=DIRECTION('',(0.,0.,1.));
#978=DIRECTION('',(1.,0.,0.));
#979=DIRECTION('',(0.,0.,1.));
#980=DIRECTION('',(1.,0.,0.));
#981=DIRECTION('',(0.,0.,1.));
#982=DIRECTION('',(0.,1.,0.));
#983=DIRECTION('',(0.,0.,1.));
#984=DIRECTION('',(-1.,0.,0.));
#985=DIRECTION('',(-1.,0.,0.));
#986=DIRECTION('',(0.,0.,1.));
#987=DIRECTION('',(0.,0.,1.));
#988=DIRECTION('',(1.,0.,0.));
#989=DIRECTION('',(0.,0.,1.));
#990=DIRECTION('',(1.,0.,0.));
#991=DIRECTION('',(0.,0.,1.));
#992=DIRECTION('',(1.,0.,0.));
#993=DIRECTION('',(0.,0.,1.));
#994=DIRECTION('',(1.,4.33680868994203E-16,0.));
#995=DIRECTION('',(-4.33680868994203E-16,1.,0.));
#996=DIRECTION('',(-4.33680868994203E-16,1.,0.));
#997=DIRECTION('',(-4.33680868994203E-16,1.,0.));
#998=DIRECTION('',(0.,0.,1.));
#999=DIRECTION('',(0.,0.,1.));
#1000=DIRECTION('',(1.,0.,0.));
#1001=DIRECTION('',(0.,0.,1.));
#1002=DIRECTION('',(1.,0.,0.));
#1003=DIRECTION('',(0.,0.,1.));
#1004=DIRECTION('',(1.,0.,0.));
#1005=DIRECTION('',(0.,0.,1.));
#1006=DIRECTION('',(0.,-1.,0.));
#1007=DIRECTION('',(0.,0.,-1.));
#1008=DIRECTION('',(1.,0.,0.));
#1009=DIRECTION('',(0.,0.,1.));
#1010=DIRECTION('',(1.,0.,0.));
#1011=DIRECTION('',(0.,0.,1.));
#1012=DIRECTION('',(0.,0.,1.));
#1013=DIRECTION('',(1.,0.,0.));
#1014=DIRECTION('',(0.,0.,1.));
#1015=DIRECTION('',(1.,0.,0.));
#1016=DIRECTION('',(0.,0.,1.));
#1017=DIRECTION('',(1.,0.,0.));
#1018=DIRECTION('',(0.,0.,1.));
#1019=DIRECTION('',(-9.63735264431562E-17,1.,0.));
#1020=DIRECTION('',(-1.,-9.63735264431562E-17,0.));
#1021=DIRECTION('',(-1.,-9.63735264431562E-17,0.));
#1022=DIRECTION('',(-1.,-9.63735264431562E-17,0.));
#1023=DIRECTION('',(0.,0.,1.));
#1024=DIRECTION('',(0.,0.,1.));
#1025=DIRECTION('',(1.,0.,0.));
#1026=DIRECTION('',(0.,0.,1.));
#1027=DIRECTION('',(1.,0.,0.));
#1028=DIRECTION('',(0.,0.,1.));
#1029=DIRECTION('',(1.,0.,0.));
#1030=DIRECTION('',(0.,0.,1.));
#1031=DIRECTION('',(1.,0.,0.));
#1032=DIRECTION('',(0.,0.,1.));
#1033=DIRECTION('',(1.,0.,0.));
#1034=DIRECTION('',(0.,0.,1.));
#1035=DIRECTION('',(1.,0.,0.));
#1036=DIRECTION('',(0.,0.,1.));
#1037=DIRECTION('',(1.,0.,0.));
#1038=DIRECTION('',(0.,0.,1.));
#1039=DIRECTION('',(1.,0.,0.));
#1040=DIRECTION('',(0.,0.,1.));
#1041=DIRECTION('',(1.,0.,0.));
#1042=DIRECTION('',(0.,0.,1.));
#1043=DIRECTION('',(1.,0.,0.));
#1044=DIRECTION('',(0.,0.,1.));
#1045=DIRECTION('',(1.,0.,0.));
#1046=DIRECTION('',(0.,0.,1.));
#1047=DIRECTION('',(1.,0.,0.));
#1048=DIRECTION('',(0.,1.,0.));
#1049=DIRECTION('',(0.,0.,1.));
#1050=DIRECTION('',(-1.,0.,0.));
#1051=DIRECTION('',(-1.,0.,0.));
#1052=DIRECTION('',(0.,0.,1.));
#1053=DIRECTION('',(1.,0.,0.));
#1054=DIRECTION('',(0.,0.,1.));
#1055=DIRECTION('',(1.,0.,0.));
#1056=DIRECTION('',(0.,0.,1.));
#1057=DIRECTION('',(1.,0.,0.));
#1058=DIRECTION('',(-9.63735264431562E-17,-1.,0.));
#1059=DIRECTION('',(1.,-9.63735264431562E-17,0.));
#1060=DIRECTION('',(1.,-9.63735264431562E-17,0.));
#1061=DIRECTION('',(1.,-9.63735264431562E-17,0.));
#1062=DIRECTION('',(0.,0.,1.));
#1063=DIRECTION('',(1.,0.,0.));
#1064=DIRECTION('',(0.,0.,1.));
#1065=DIRECTION('',(1.,0.,0.));
#1066=DIRECTION('',(0.,0.,1.));
#1067=DIRECTION('',(1.,0.,0.));
#1068=DIRECTION('',(0.,0.,1.));
#1069=DIRECTION('',(1.,0.,0.));
#1070=DIRECTION('',(0.,0.,1.));
#1071=DIRECTION('',(1.,0.,0.));
#1072=DIRECTION('',(0.,0.,1.));
#1073=DIRECTION('',(1.,0.,0.));
#1074=DIRECTION('',(0.,0.,1.));
#1075=DIRECTION('',(1.,0.,0.));
#1076=DIRECTION('',(0.,0.,1.));
#1077=DIRECTION('',(1.,0.,0.));
#1078=DIRECTION('',(0.,0.,1.));
#1079=DIRECTION('',(1.,0.,0.));
#1080=DIRECTION('',(0.,0.,1.));
#1081=DIRECTION('',(1.,0.,0.));
#1082=DIRECTION('',(0.,0.,1.));
#1083=DIRECTION('',(1.,0.,0.));
#1084=DIRECTION('',(0.,0.,1.));
#1085=DIRECTION('',(1.,0.,0.));
#1086=DIRECTION('',(0.,0.,1.));
#1087=DIRECTION('',(1.,0.,0.));
#1088=DIRECTION('',(0.,0.,1.));
#1089=DIRECTION('',(1.,0.,0.));
#1090=DIRECTION('',(0.,0.,1.));
#1091=DIRECTION('',(1.,0.,0.));
#1092=DIRECTION('',(-1.,-2.21438022374334E-16,0.));
#1093=DIRECTION('',(0.,0.,1.));
#1094=DIRECTION('',(1.,0.,0.));
#1095=DIRECTION('',(-1.,-2.21438022374334E-16,0.));
#1096=DIRECTION('',(0.,0.,1.));
#1097=DIRECTION('',(1.,0.,0.));
#1098=DIRECTION('',(-2.21438022374334E-16,1.,0.));
#1099=DIRECTION('',(-1.,-2.21438022374334E-16,0.));
#1100=DIRECTION('',(0.,0.,1.));
#1101=DIRECTION('',(-1.,-2.21438022374334E-16,0.));
#1102=DIRECTION('',(0.,0.,1.));
#1103=DIRECTION('',(0.,0.,1.));
#1104=DIRECTION('',(1.,0.,0.));
#1105=DIRECTION('',(0.,0.,1.));
#1106=DIRECTION('',(0.,0.,1.));
#1107=DIRECTION('',(1.,0.,0.));
#1108=DIRECTION('',(-2.21438022374334E-16,1.,0.));
#1109=DIRECTION('',(-1.,-2.21438022374334E-16,0.));
#1110=DIRECTION('',(0.,0.,1.));
#1111=DIRECTION('',(-1.,-2.21438022374334E-16,0.));
#1112=DIRECTION('',(0.,0.,1.));
#1113=DIRECTION('',(1.,0.,0.));
#1114=DIRECTION('',(0.,0.,1.));
#1115=DIRECTION('',(1.,0.,0.));
#1116=DIRECTION('',(0.,0.,1.));
#1117=DIRECTION('',(1.,0.,0.));
#1118=DIRECTION('',(0.,0.,1.));
#1119=DIRECTION('',(1.,0.,0.));
#1120=DIRECTION('',(0.,0.,1.));
#1121=DIRECTION('',(1.,0.,0.));
#1122=DIRECTION('',(0.,0.,1.));
#1123=DIRECTION('',(1.,0.,0.));
#1124=DIRECTION('',(0.,0.,-1.));
#1125=DIRECTION('',(-1.,0.,0.));
#1126=DIRECTION('',(0.,0.,1.));
#1127=DIRECTION('',(1.,0.,0.));
#1128=DIRECTION('',(0.,0.,1.));
#1129=DIRECTION('',(1.,0.,0.));
#1130=DIRECTION('',(0.,0.,-1.));
#1131=DIRECTION('',(-1.,0.,0.));
#1132=DIRECTION('',(0.,0.,1.));
#1133=DIRECTION('',(1.,0.,0.));
#1134=DIRECTION('',(0.,0.,1.));
#1135=DIRECTION('',(1.,0.,0.));
#1136=DIRECTION('',(0.,0.,-1.));
#1137=DIRECTION('',(-1.,0.,0.));
#1138=DIRECTION('',(0.,0.,1.));
#1139=DIRECTION('',(1.,0.,0.));
#1140=DIRECTION('',(0.,0.,1.));
#1141=DIRECTION('',(1.,0.,0.));
#1142=DIRECTION('',(0.,0.,-1.));
#1143=DIRECTION('',(-1.,0.,0.));
#1144=DIRECTION('',(0.,0.,1.));
#1145=DIRECTION('',(1.,0.,0.));
#1146=DIRECTION('',(0.,0.,1.));
#1147=DIRECTION('',(1.,0.,0.));
#1148=DIRECTION('',(0.,0.,-1.));
#1149=DIRECTION('',(-1.,0.,0.));
#1150=DIRECTION('',(0.,0.,1.));
#1151=DIRECTION('',(1.,0.,0.));
#1152=DIRECTION('',(0.,0.,1.));
#1153=DIRECTION('',(1.,0.,0.));
#1154=DIRECTION('',(0.,0.,-1.));
#1155=DIRECTION('',(-1.,0.,0.));
#1156=DIRECTION('',(0.,0.,1.));
#1157=DIRECTION('',(1.,0.,0.));
#1158=DIRECTION('',(0.,0.,1.));
#1159=DIRECTION('',(1.,0.,0.));
#1160=DIRECTION('',(0.,0.,-1.));
#1161=DIRECTION('',(-1.,0.,0.));
#1162=DIRECTION('',(0.,0.,1.));
#1163=DIRECTION('',(1.,0.,0.));
#1164=DIRECTION('',(0.,0.,1.));
#1165=DIRECTION('',(1.,0.,0.));
#1166=DIRECTION('',(0.,0.,-1.));
#1167=DIRECTION('',(-1.,0.,0.));
#1168=DIRECTION('',(0.,0.,1.));
#1169=DIRECTION('',(1.,0.,0.));
#1170=DIRECTION('',(0.,0.,1.));
#1171=DIRECTION('',(1.,0.,0.));
#1172=DIRECTION('',(0.,0.,-1.));
#1173=DIRECTION('',(-1.,0.,0.));
#1174=DIRECTION('',(0.,0.,1.));
#1175=DIRECTION('',(1.,0.,0.));
#1176=DIRECTION('',(0.,0.,1.));
#1177=DIRECTION('',(1.,0.,0.));
#1178=DIRECTION('',(0.,0.,-1.));
#1179=DIRECTION('',(-1.,0.,0.));
#1180=DIRECTION('',(0.,0.,1.));
#1181=DIRECTION('',(1.,0.,0.));
#1182=DIRECTION('',(0.,0.,1.));
#1183=DIRECTION('',(1.,0.,0.));
#1184=CARTESIAN_POINT('',(0.,0.,0.));
#1185=CARTESIAN_POINT('',(0.,4.95981953654678E-19,-0.006));
#1186=CARTESIAN_POINT('',(0.,4.95981953654678E-19,-0.006));
#1187=CARTESIAN_POINT('',(0.0081,4.95981953654678E-19,-0.006));
#1188=CARTESIAN_POINT('',(0.,4.95981953654678E-19,-0.0031));
#1189=CARTESIAN_POINT('',(0.0081,4.95981953654678E-19,-0.0031));
#1190=CARTESIAN_POINT('',(0.0695,0.,-0.006));
#1191=CARTESIAN_POINT('',(0.0695,0.,0.));
#1192=CARTESIAN_POINT('',(0.0695,0.0055,0.));
#1193=CARTESIAN_POINT('',(0.0695,-0.0055,0.));
#1194=CARTESIAN_POINT('',(0.0695,0.0055,-0.006));
#1195=CARTESIAN_POINT('',(0.0695,0.0055,-0.006));
#1196=CARTESIAN_POINT('',(0.0695,0.,-0.006));
#1197=CARTESIAN_POINT('',(0.0695,-0.0055,-0.006));
#1198=CARTESIAN_POINT('',(0.0695,-0.0055,-0.006));
#1199=CARTESIAN_POINT('',(0.065,-0.0055,-0.006));
#1200=CARTESIAN_POINT('',(0.065,-0.0055,0.));
#1201=CARTESIAN_POINT('',(0.0605,-0.0055,0.));
#1202=CARTESIAN_POINT('',(0.065,-0.0055,-0.006));
#1203=CARTESIAN_POINT('',(0.0605,-0.0055,-0.006));
#1204=CARTESIAN_POINT('',(0.0605,-0.0055,-0.006));
#1205=CARTESIAN_POINT('',(0.0605,0.,-0.006));
#1206=CARTESIAN_POINT('',(0.0605,0.,0.));
#1207=CARTESIAN_POINT('',(0.0605,0.0055,0.));
#1208=CARTESIAN_POINT('',(0.0605,0.,-0.006));
#1209=CARTESIAN_POINT('',(0.0605,0.0055,-0.006));
#1210=CARTESIAN_POINT('',(0.0605,0.0055,-0.006));
#1211=CARTESIAN_POINT('',(-0.006,0.073,-0.006));
#1212=CARTESIAN_POINT('',(-0.006,0.073,0.));
#1213=CARTESIAN_POINT('',(-0.011,0.073,0.));
#1214=CARTESIAN_POINT('',(-0.006,0.068,0.));
#1215=CARTESIAN_POINT('',(-0.006,0.068,-0.006));
#1216=CARTESIAN_POINT('',(-0.006,0.068,-0.006));
#1217=CARTESIAN_POINT('',(-0.006,0.073,-0.006));
#1218=CARTESIAN_POINT('',(-0.011,0.073,-0.006));
#1219=CARTESIAN_POINT('',(-0.011,0.073,-0.006));
#1220=CARTESIAN_POINT('',(-0.011,0.075,-0.006));
#1221=CARTESIAN_POINT('',(-0.011,0.075,0.));
#1222=CARTESIAN_POINT('',(-0.011,0.077,0.));
#1223=CARTESIAN_POINT('',(-0.011,0.075,-0.006));
#1224=CARTESIAN_POINT('',(-0.011,0.077,-0.006));
#1225=CARTESIAN_POINT('',(-0.011,0.077,-0.006));
#1226=CARTESIAN_POINT('',(-0.006,0.077,-0.006));
#1227=CARTESIAN_POINT('',(-0.006,0.077,0.));
#1228=CARTESIAN_POINT('',(-0.006,0.082,0.));
#1229=CARTESIAN_POINT('',(-0.006,0.077,-0.006));
#1230=CARTESIAN_POINT('',(-0.006,0.082,-0.006));
#1231=CARTESIAN_POINT('',(-0.006,0.082,-0.006));
#1232=CARTESIAN_POINT('',(-2.60208521396521E-18,0.082,-0.006));
#1233=CARTESIAN_POINT('',(-2.60208521396521E-18,0.082,0.));
#1234=CARTESIAN_POINT('',(0.006,0.082,0.));
#1235=CARTESIAN_POINT('',(-2.60208521396521E-18,0.082,-0.006));
#1236=CARTESIAN_POINT('',(0.006,0.082,-0.006));
#1237=CARTESIAN_POINT('',(0.006,0.082,-0.006));
#1238=CARTESIAN_POINT('',(0.006,0.077,-0.006));
#1239=CARTESIAN_POINT('',(0.006,0.077,0.));
#1240=CARTESIAN_POINT('',(0.011,0.077,0.));
#1241=CARTESIAN_POINT('',(0.006,0.077,-0.006));
#1242=CARTESIAN_POINT('',(0.011,0.077,-0.006));
#1243=CARTESIAN_POINT('',(0.011,0.077,-0.006));
#1244=CARTESIAN_POINT('',(0.011,0.075,-0.006));
#1245=CARTESIAN_POINT('',(0.011,0.075,0.));
#1246=CARTESIAN_POINT('',(0.011,0.073,0.));
#1247=CARTESIAN_POINT('',(0.011,0.075,-0.006));
#1248=CARTESIAN_POINT('',(0.011,0.073,-0.006));
#1249=CARTESIAN_POINT('',(0.011,0.073,-0.006));
#1250=CARTESIAN_POINT('',(0.006,0.073,-0.006));
#1251=CARTESIAN_POINT('',(0.006,0.073,0.));
#1252=CARTESIAN_POINT('',(0.006,0.068,0.));
#1253=CARTESIAN_POINT('',(0.006,0.073,-0.006));
#1254=CARTESIAN_POINT('',(0.006,0.068,-0.006));
#1255=CARTESIAN_POINT('',(0.006,0.068,-0.006));
#1256=CARTESIAN_POINT('',(-0.065,-0.0055,-0.006));
#1257=CARTESIAN_POINT('',(-0.065,-0.0055,0.));
#1258=CARTESIAN_POINT('',(-0.0695,-0.0055,0.));
#1259=CARTESIAN_POINT('',(-0.0605,-0.0055,0.));
#1260=CARTESIAN_POINT('',(-0.0605,-0.0055,-0.006));
#1261=CARTESIAN_POINT('',(-0.0605,-0.0055,-0.006));
#1262=CARTESIAN_POINT('',(-0.065,-0.0055,-0.006));
#1263=CARTESIAN_POINT('',(-0.0695,-0.0055,-0.006));
#1264=CARTESIAN_POINT('',(-0.0695,-0.0055,-0.006));
#1265=CARTESIAN_POINT('',(-0.0695,0.,-0.006));
#1266=CARTESIAN_POINT('',(-0.0695,0.,0.));
#1267=CARTESIAN_POINT('',(-0.0695,0.0055,0.));
#1268=CARTESIAN_POINT('',(-0.0695,0.,-0.006));
#1269=CARTESIAN_POINT('',(-0.0695,0.0055,-0.006));
#1270=CARTESIAN_POINT('',(-0.0695,0.0055,-0.006));
#1271=CARTESIAN_POINT('',(-0.065,0.0055,-0.006));
#1272=CARTESIAN_POINT('',(-0.065,0.0055,0.));
#1273=CARTESIAN_POINT('',(-0.0605,0.0055,0.));
#1274=CARTESIAN_POINT('',(-0.065,0.0055,-0.006));
#1275=CARTESIAN_POINT('',(-0.0605,0.0055,-0.006));
#1276=CARTESIAN_POINT('',(-0.0605,0.0055,-0.006));
#1277=CARTESIAN_POINT('',(0.,6.4293956955236E-18,-0.006));
#1278=CARTESIAN_POINT('',(0.,6.4293956955236E-18,-0.006));
#1279=CARTESIAN_POINT('',(0.105,6.4293956955236E-18,-0.006));
#1280=CARTESIAN_POINT('',(0.,6.4293956955236E-18,0.));
#1281=CARTESIAN_POINT('',(0.105,6.4293956955236E-18,0.));
#1282=CARTESIAN_POINT('',(0.,-0.075,-0.006));
#1283=CARTESIAN_POINT('',(0.,-0.075,-0.0022));
#1284=CARTESIAN_POINT('',(0.0033,-0.075,-0.0022));
#1285=CARTESIAN_POINT('',(0.,-0.075,-0.006));
#1286=CARTESIAN_POINT('',(0.0033,-0.075,-0.006));
#1287=CARTESIAN_POINT('',(0.0649519052838329,0.0375,-0.006));
#1288=CARTESIAN_POINT('',(0.0649519052838329,0.0375,-0.0022));
#1289=CARTESIAN_POINT('',(0.0682519052838329,0.0375,-0.0022));
#1290=CARTESIAN_POINT('',(0.0649519052838329,0.0375,-0.006));
#1291=CARTESIAN_POINT('',(0.0682519052838329,0.0375,-0.006));
#1292=CARTESIAN_POINT('',(-0.0649519052838329,0.0375,-0.006));
#1293=CARTESIAN_POINT('',(-0.0649519052838329,0.0375,-0.0022));
#1294=CARTESIAN_POINT('',(-0.0616519052838329,0.0375,-0.0022));
#1295=CARTESIAN_POINT('',(-0.0649519052838329,0.0375,-0.006));
#1296=CARTESIAN_POINT('',(-0.0616519052838329,0.0375,-0.006));
#1297=CARTESIAN_POINT('',(1.3010426069826E-18,0.068,-0.006));
#1298=CARTESIAN_POINT('',(1.3010426069826E-18,0.068,0.));
#1299=CARTESIAN_POINT('',(1.3010426069826E-18,0.068,-0.006));
#1300=CARTESIAN_POINT('',(-0.0605,0.,-0.006));
#1301=CARTESIAN_POINT('',(-0.0605,0.,0.));
#1302=CARTESIAN_POINT('',(-0.0605,0.,-0.006));
#1303=CARTESIAN_POINT('',(0.065,0.0055,-0.006));
#1304=CARTESIAN_POINT('',(0.065,0.0055,0.));
#1305=CARTESIAN_POINT('',(0.065,0.0055,-0.006));
#1306=CARTESIAN_POINT('',(0.,0.,-0.006));
#1307=CARTESIAN_POINT('',(0.035,0.015,-0.006));
#1308=CARTESIAN_POINT('',(0.03625,0.015,-0.006));
#1309=CARTESIAN_POINT('',(0.035,-0.015,-0.006));
#1310=CARTESIAN_POINT('',(0.03625,-0.015,-0.006));
#1311=CARTESIAN_POINT('',(0.081877,-0.0328905962514845,-0.006));
#1312=CARTESIAN_POINT('',(0.083127,-0.0328905962514845,-0.006));
#1313=CARTESIAN_POINT('',(0.087034,-0.0136465962514845,-0.006));
#1314=CARTESIAN_POINT('',(0.088284,-0.0136465962514845,-0.006));
#1315=CARTESIAN_POINT('',(-0.0248465364596952,-0.0933671327111798,-0.006));
#1316=CARTESIAN_POINT('',(-0.0235965364596952,-0.0933671327111798,-0.006));
#1317=CARTESIAN_POINT('',(0.067882,-0.0685205962514845,-0.006));
#1318=CARTESIAN_POINT('',(0.069132,-0.0685205962514845,-0.006));
#1319=CARTESIAN_POINT('',(0.0927285364596953,0.0242079402082108,-0.006));
#1320=CARTESIAN_POINT('',(0.0939785364596953,0.0242079402082108,-0.006));
#1321=CARTESIAN_POINT('',(0.0248465364596952,0.0920899402082108,-0.006));
#1322=CARTESIAN_POINT('',(0.0260965364596953,0.0920899402082108,-0.006));
#1323=CARTESIAN_POINT('',(-0.067882,0.0672434037485155,-0.006));
#1324=CARTESIAN_POINT('',(-0.066632,0.0672434037485155,-0.006));
#1325=CARTESIAN_POINT('',(-0.0927285364596953,-0.0254851327111798,-0.006));
#1326=CARTESIAN_POINT('',(-0.0914785364596953,-0.0254851327111798,-0.006));
#1327=CARTESIAN_POINT('',(0.,0.,0.));
#1328=CARTESIAN_POINT('',(-0.0649519052838329,0.0375,0.));
#1329=CARTESIAN_POINT('',(-0.0594519052838329,0.0375,0.));
#1330=CARTESIAN_POINT('',(0.0649519052838329,0.0375,0.));
#1331=CARTESIAN_POINT('',(0.0704519052838329,0.0375,0.));
#1332=CARTESIAN_POINT('',(0.,-0.075,0.));
#1333=CARTESIAN_POINT('',(0.0055,-0.075,0.));
#1334=CARTESIAN_POINT('',(-5.20417042793042E-18,0.0152,0.));
#1335=CARTESIAN_POINT('',(0.00783390068867355,0.0152,0.));
#1336=CARTESIAN_POINT('',(-0.00783390068867356,0.0152,0.));
#1337=CARTESIAN_POINT('',(1.7347234759768E-18,-1.21430643318376E-17,0.));
#1338=CARTESIAN_POINT('',(0.00783390068867357,-0.0152,0.));
#1339=CARTESIAN_POINT('',(5.20417042793042E-18,-0.0152,0.));
#1340=CARTESIAN_POINT('',(-0.00783390068867355,-0.0152,0.));
#1341=CARTESIAN_POINT('',(8.67361737988404E-19,8.67361737988404E-18,0.));
#1342=CARTESIAN_POINT('',(-5.20417042793042E-18,0.0152,-0.0031));
#1343=CARTESIAN_POINT('',(-0.00783390068867356,0.0152,-0.0031));
#1344=CARTESIAN_POINT('',(-0.00783390068867356,0.0152,-0.0031));
#1345=CARTESIAN_POINT('',(-5.20417042793042E-18,0.0152,-0.0031));
#1346=CARTESIAN_POINT('',(0.00783390068867355,0.0152,-0.0031));
#1347=CARTESIAN_POINT('',(0.00783390068867355,0.0152,-0.0031));
#1348=CARTESIAN_POINT('',(8.67361737988404E-19,8.67361737988404E-18,-0.0031));
#1349=CARTESIAN_POINT('',(-0.00783390068867355,-0.0152,-0.0031));
#1350=CARTESIAN_POINT('',(-0.00783390068867355,-0.0152,-0.0031));
#1351=CARTESIAN_POINT('',(8.67361737988404E-19,8.67361737988404E-18,-0.0031));
#1352=CARTESIAN_POINT('',(5.20417042793042E-18,-0.0152,-0.0031));
#1353=CARTESIAN_POINT('',(0.00783390068867356,-0.0152,-0.0031));
#1354=CARTESIAN_POINT('',(0.00783390068867356,-0.0152,-0.0031));
#1355=CARTESIAN_POINT('',(5.20417042793042E-18,-0.0152,-0.0031));
#1356=CARTESIAN_POINT('',(1.7347234759768E-18,-1.21430643318376E-17,-0.0031));
#1357=CARTESIAN_POINT('',(1.7347234759768E-18,-1.21430643318376E-17,-0.0031));
#1358=CARTESIAN_POINT('',(0.,0.,-0.0031));
#1359=CARTESIAN_POINT('',(-0.0649519052838329,0.0375,-0.0022));
#1360=CARTESIAN_POINT('',(0.0649519052838329,0.0375,-0.0022));
#1361=CARTESIAN_POINT('',(0.,-0.075,-0.0022));
#1362=CARTESIAN_POINT('',(-0.0927285364596953,-0.0254851327111798,-0.001));
#1363=CARTESIAN_POINT('',(-0.0927285364596953,-0.0254851327111798,-0.00024892422621555));
#1364=CARTESIAN_POINT('',(-0.0927285364596953,-0.0254851327111798,-0.001));
#1365=CARTESIAN_POINT('',(-0.0914785364596953,-0.0254851327111798,-0.001));
#1366=CARTESIAN_POINT('',(-0.0927285364596953,-0.0254851327111798,-0.006));
#1367=CARTESIAN_POINT('',(-0.067882,0.0672434037485155,-0.001));
#1368=CARTESIAN_POINT('',(-0.067882,0.0672434037485155,-0.00024892422621555));
#1369=CARTESIAN_POINT('',(-0.067882,0.0672434037485155,-0.001));
#1370=CARTESIAN_POINT('',(-0.066632,0.0672434037485155,-0.001));
#1371=CARTESIAN_POINT('',(-0.067882,0.0672434037485155,-0.006));
#1372=CARTESIAN_POINT('',(0.0248465364596952,0.0920899402082108,-0.001));
#1373=CARTESIAN_POINT('',(0.0248465364596952,0.0920899402082108,-0.00024892422621555));
#1374=CARTESIAN_POINT('',(0.0248465364596952,0.0920899402082108,-0.001));
#1375=CARTESIAN_POINT('',(0.0260965364596953,0.0920899402082108,-0.001));
#1376=CARTESIAN_POINT('',(0.0248465364596952,0.0920899402082108,-0.006));
#1377=CARTESIAN_POINT('',(0.0927285364596953,0.0242079402082108,-0.001));
#1378=CARTESIAN_POINT('',(0.0927285364596953,0.0242079402082108,-0.00024892422621555));
#1379=CARTESIAN_POINT('',(0.0927285364596953,0.0242079402082108,-0.001));
#1380=CARTESIAN_POINT('',(0.0939785364596953,0.0242079402082108,-0.001));
#1381=CARTESIAN_POINT('',(0.0927285364596953,0.0242079402082108,-0.006));
#1382=CARTESIAN_POINT('',(0.067882,-0.0685205962514845,-0.001));
#1383=CARTESIAN_POINT('',(0.067882,-0.0685205962514845,-0.00024892422621555));
#1384=CARTESIAN_POINT('',(0.067882,-0.0685205962514845,-0.001));
#1385=CARTESIAN_POINT('',(0.069132,-0.0685205962514845,-0.001));
#1386=CARTESIAN_POINT('',(0.067882,-0.0685205962514845,-0.006));
#1387=CARTESIAN_POINT('',(-0.0248465364596952,-0.0933671327111798,-0.001));
#1388=CARTESIAN_POINT('',(-0.0248465364596952,-0.0933671327111798,-0.00024892422621555));
#1389=CARTESIAN_POINT('',(-0.0248465364596952,-0.0933671327111798,-0.001));
#1390=CARTESIAN_POINT('',(-0.0235965364596952,-0.0933671327111798,-0.001));
#1391=CARTESIAN_POINT('',(-0.0248465364596952,-0.0933671327111798,-0.006));
#1392=CARTESIAN_POINT('',(0.087034,-0.0136465962514845,-0.001));
#1393=CARTESIAN_POINT('',(0.087034,-0.0136465962514845,-0.00024892422621555));
#1394=CARTESIAN_POINT('',(0.087034,-0.0136465962514845,-0.001));
#1395=CARTESIAN_POINT('',(0.088284,-0.0136465962514845,-0.001));
#1396=CARTESIAN_POINT('',(0.087034,-0.0136465962514845,-0.006));
#1397=CARTESIAN_POINT('',(0.081877,-0.0328905962514845,-0.001));
#1398=CARTESIAN_POINT('',(0.081877,-0.0328905962514845,-0.00024892422621555));
#1399=CARTESIAN_POINT('',(0.081877,-0.0328905962514845,-0.001));
#1400=CARTESIAN_POINT('',(0.083127,-0.0328905962514845,-0.001));
#1401=CARTESIAN_POINT('',(0.081877,-0.0328905962514845,-0.006));
#1402=CARTESIAN_POINT('',(0.035,-0.015,-0.001));
#1403=CARTESIAN_POINT('',(0.035,-0.015,-0.00024892422621555));
#1404=CARTESIAN_POINT('',(0.035,-0.015,-0.001));
#1405=CARTESIAN_POINT('',(0.03625,-0.015,-0.001));
#1406=CARTESIAN_POINT('',(0.035,-0.015,-0.006));
#1407=CARTESIAN_POINT('',(0.035,0.015,-0.001));
#1408=CARTESIAN_POINT('',(0.035,0.015,-0.00024892422621555));
#1409=CARTESIAN_POINT('',(0.035,0.015,-0.001));
#1410=CARTESIAN_POINT('',(0.03625,0.015,-0.001));
#1411=CARTESIAN_POINT('',(0.035,0.015,-0.006));
#1412=MECHANICAL_DESIGN_GEOMETRIC_PRESENTATION_REPRESENTATION('',(#818),
#1413);
#1413=(
GEOMETRIC_REPRESENTATION_CONTEXT(3)
GLOBAL_UNCERTAINTY_ASSIGNED_CONTEXT((#1414))
GLOBAL_UNIT_ASSIGNED_CONTEXT((#1417,#1416,#1415))
REPRESENTATION_CONTEXT('Ceiling Plate','TOP_LEVEL_ASSEMBLY_PART')
);
#1414=UNCERTAINTY_MEASURE_WITH_UNIT(LENGTH_MEASURE(1.E-8),#1417,
'DISTANCE_ACCURACY_VALUE','Maximum Tolerance applied to model');
#1415=(
NAMED_UNIT(*)
SI_UNIT($,.STERADIAN.)
SOLID_ANGLE_UNIT()
);
#1416=(
NAMED_UNIT(*)
PLANE_ANGLE_UNIT()
SI_UNIT($,.RADIAN.)
);
#1417=(
LENGTH_UNIT()
NAMED_UNIT(*)
SI_UNIT($,.METRE.)
);
#1418=PRODUCT_DEFINITION_SHAPE('','',#1419);
#1419=PRODUCT_DEFINITION('','',#1421,#1420);
#1420=PRODUCT_DEFINITION_CONTEXT('',#1427,'design');
#1421=PRODUCT_DEFINITION_FORMATION_WITH_SPECIFIED_SOURCE('','',#1423,
 .NOT_KNOWN.);
#1422=PRODUCT_RELATED_PRODUCT_CATEGORY('','',(#1423));
#1423=PRODUCT('Ceiling Plate','Ceiling Plate','Ceiling Plate',(#1425));
#1424=PRODUCT_CATEGORY('','');
#1425=PRODUCT_CONTEXT('',#1427,'mechanical');
#1426=APPLICATION_PROTOCOL_DEFINITION('international standard',
'ap242_managed_model_based_3d_engineering',2020,#1427);
#1427=APPLICATION_CONTEXT('managed model based 3d engineering');
ENDSEC;
END-ISO-10303-21;
