ISO-10303-21;
HEADER;
/* Generated by software containing ST-Developer
 * from STEP Tools, Inc. (www.steptools.com) 
 */
/* OPTION: using custom renumber hook */

FILE_DESCRIPTION(
/* description */ ('STEP AP242 Edition 2',
'CAx-IF Rec.Pracs.---Representation and Presentation of Product Manufa
cturing Information (PMI)---4.0---2014-10-13',
'CAx-IF Rec.Pracs.---3D Tessellated Geometry---0.4---2014-09-14','2;1',
'CAx-IF Rec.Pracs.---User Defined Attributes---1.5---2016-08-15'),
/* implementation_level */ '2;1');

FILE_NAME(
/* name */ 'Fan Parts Studio - RH-100',
/* time_stamp */ '2026-08-02T17:14:25Z',
/* author */ (''),
/* organization */ (''),
/* preprocessor_version */ 'ST-DEVELOPER v20',
/* originating_system */ 'ONSHAPE BY PTC INC, 1.218',
/* authorisation */ '  ');

FILE_SCHEMA (('AP242_MANAGED_MODEL_BASED_3D_ENGINEERING_MIM_LF { 1 0 10303 442 3 1 4 }'));
ENDSEC;

DATA;
#10=SHAPE_REPRESENTATION_RELATIONSHIP('','',#995,#11);
#11=ADVANCED_BREP_SHAPE_REPRESENTATION('',(#993),#1715);
#12=CONICAL_SURFACE('',#1096,0.0047,0.785398163397446);
#13=CONICAL_SURFACE('',#1099,0.0047,0.785398163397446);
#14=CONICAL_SURFACE('',#1102,0.0047,0.785398163397446);
#15=CONICAL_SURFACE('',#1105,0.0047,0.785398163397446);
#16=LINE('',#1463,#52);
#17=LINE('',#1467,#53);
#18=LINE('',#1472,#54);
#19=LINE('',#1476,#55);
#20=LINE('',#1478,#56);
#21=LINE('',#1483,#57);
#22=LINE('',#1523,#58);
#23=LINE('',#1527,#59);
#24=LINE('',#1529,#60);
#25=LINE('',#1533,#61);
#26=LINE('',#1536,#62);
#27=LINE('',#1538,#63);
#28=LINE('',#1542,#64);
#29=LINE('',#1545,#65);
#30=LINE('',#1547,#66);
#31=LINE('',#1601,#67);
#32=LINE('',#1605,#68);
#33=LINE('',#1607,#69);
#34=LINE('',#1610,#70);
#35=LINE('',#1614,#71);
#36=LINE('',#1616,#72);
#37=LINE('',#1619,#73);
#38=LINE('',#1623,#74);
#39=LINE('',#1625,#75);
#40=LINE('',#1684,#76);
#41=LINE('',#1686,#77);
#42=LINE('',#1688,#78);
#43=LINE('',#1690,#79);
#44=LINE('',#1693,#80);
#45=LINE('',#1695,#81);
#46=LINE('',#1697,#82);
#47=LINE('',#1699,#83);
#48=LINE('',#1702,#84);
#49=LINE('',#1704,#85);
#50=LINE('',#1706,#86);
#51=LINE('',#1708,#87);
#52=VECTOR('',#1156,1.);
#53=VECTOR('',#1159,1.);
#54=VECTOR('',#1164,1.);
#55=VECTOR('',#1167,1.);
#56=VECTOR('',#1170,1.);
#57=VECTOR('',#1173,1.);
#58=VECTOR('',#1214,1.);
#59=VECTOR('',#1217,1.);
#60=VECTOR('',#1218,1.);
#61=VECTOR('',#1221,1.);
#62=VECTOR('',#1224,1.);
#63=VECTOR('',#1225,1.);
#64=VECTOR('',#1228,1.);
#65=VECTOR('',#1231,1.);
#66=VECTOR('',#1232,1.);
#67=VECTOR('',#1303,1.);
#68=VECTOR('',#1306,1.);
#69=VECTOR('',#1307,1.);
#70=VECTOR('',#1310,1.);
#71=VECTOR('',#1313,1.);
#72=VECTOR('',#1314,1.);
#73=VECTOR('',#1317,1.);
#74=VECTOR('',#1320,1.);
#75=VECTOR('',#1321,1.);
#76=VECTOR('',#1400,1.);
#77=VECTOR('',#1403,1.);
#78=VECTOR('',#1406,1.);
#79=VECTOR('',#1409,1.);
#80=VECTOR('',#1414,1.);
#81=VECTOR('',#1417,1.);
#82=VECTOR('',#1420,1.);
#83=VECTOR('',#1423,1.);
#84=VECTOR('',#1428,1.);
#85=VECTOR('',#1431,1.);
#86=VECTOR('',#1434,1.);
#87=VECTOR('',#1437,1.);
#88=CYLINDRICAL_SURFACE('',#999,0.003225);
#89=CYLINDRICAL_SURFACE('',#1003,0.003225);
#90=CYLINDRICAL_SURFACE('',#1005,0.1);
#91=CYLINDRICAL_SURFACE('',#1008,0.1);
#92=CYLINDRICAL_SURFACE('',#1011,0.1);
#93=CYLINDRICAL_SURFACE('',#1041,0.0025);
#94=CYLINDRICAL_SURFACE('',#1045,0.0025);
#95=CYLINDRICAL_SURFACE('',#1047,0.00275);
#96=CYLINDRICAL_SURFACE('',#1049,0.00275);
#97=CYLINDRICAL_SURFACE('',#1051,0.00275);
#98=CYLINDRICAL_SURFACE('',#1053,0.00275);
#99=CYLINDRICAL_SURFACE('',#1057,0.0025);
#100=CYLINDRICAL_SURFACE('',#1061,0.0025);
#101=CYLINDRICAL_SURFACE('',#1063,0.00275);
#102=CYLINDRICAL_SURFACE('',#1065,0.00275);
#103=CYLINDRICAL_SURFACE('',#1067,0.00275);
#104=CYLINDRICAL_SURFACE('',#1069,0.00275);
#105=CYLINDRICAL_SURFACE('',#1089,0.01025);
#106=CYLINDRICAL_SURFACE('',#1091,0.014925);
#107=CYLINDRICAL_SURFACE('',#1094,0.00225);
#108=CYLINDRICAL_SURFACE('',#1097,0.00225);
#109=CYLINDRICAL_SURFACE('',#1100,0.00225);
#110=CYLINDRICAL_SURFACE('',#1103,0.00225);
#111=CYLINDRICAL_SURFACE('',#1106,0.00275);
#112=CYLINDRICAL_SURFACE('',#1107,0.00275);
#113=CYLINDRICAL_SURFACE('',#1108,0.00275);
#114=CYLINDRICAL_SURFACE('',#1109,0.00275);
#115=CYLINDRICAL_SURFACE('',#1110,0.0025);
#116=CYLINDRICAL_SURFACE('',#1113,0.0025);
#117=CYLINDRICAL_SURFACE('',#1118,0.0539746794865292);
#118=CYLINDRICAL_SURFACE('',#1120,0.0336528325752486);
#119=CYLINDRICAL_SURFACE('',#1121,0.0336528325751164);
#120=CYLINDRICAL_SURFACE('',#1124,0.0539746794865292);
#121=CYLINDRICAL_SURFACE('',#1126,0.033652832574966);
#122=CYLINDRICAL_SURFACE('',#1129,0.0539746794865291);
#123=CYLINDRICAL_SURFACE('',#1131,0.003225);
#124=ORIENTED_EDGE('',*,*,#348,.T.);
#125=ORIENTED_EDGE('',*,*,#348,.F.);
#126=ORIENTED_EDGE('',*,*,#349,.T.);
#127=ORIENTED_EDGE('',*,*,#350,.T.);
#128=ORIENTED_EDGE('',*,*,#350,.F.);
#129=ORIENTED_EDGE('',*,*,#351,.T.);
#130=ORIENTED_EDGE('',*,*,#352,.F.);
#131=ORIENTED_EDGE('',*,*,#353,.T.);
#132=ORIENTED_EDGE('',*,*,#354,.T.);
#133=ORIENTED_EDGE('',*,*,#355,.F.);
#134=ORIENTED_EDGE('',*,*,#356,.F.);
#135=ORIENTED_EDGE('',*,*,#357,.T.);
#136=ORIENTED_EDGE('',*,*,#358,.T.);
#137=ORIENTED_EDGE('',*,*,#359,.F.);
#138=ORIENTED_EDGE('',*,*,#360,.F.);
#139=ORIENTED_EDGE('',*,*,#361,.F.);
#140=ORIENTED_EDGE('',*,*,#362,.T.);
#141=ORIENTED_EDGE('',*,*,#363,.T.);
#142=ORIENTED_EDGE('',*,*,#349,.F.);
#143=ORIENTED_EDGE('',*,*,#351,.F.);
#144=ORIENTED_EDGE('',*,*,#364,.F.);
#145=ORIENTED_EDGE('',*,*,#365,.F.);
#146=ORIENTED_EDGE('',*,*,#366,.F.);
#147=ORIENTED_EDGE('',*,*,#367,.F.);
#148=ORIENTED_EDGE('',*,*,#368,.F.);
#149=ORIENTED_EDGE('',*,*,#369,.F.);
#150=ORIENTED_EDGE('',*,*,#370,.F.);
#151=ORIENTED_EDGE('',*,*,#371,.F.);
#152=ORIENTED_EDGE('',*,*,#372,.F.);
#153=ORIENTED_EDGE('',*,*,#373,.F.);
#154=ORIENTED_EDGE('',*,*,#374,.F.);
#155=ORIENTED_EDGE('',*,*,#375,.F.);
#156=ORIENTED_EDGE('',*,*,#376,.F.);
#157=ORIENTED_EDGE('',*,*,#377,.T.);
#158=ORIENTED_EDGE('',*,*,#378,.T.);
#159=ORIENTED_EDGE('',*,*,#379,.T.);
#160=ORIENTED_EDGE('',*,*,#380,.T.);
#161=ORIENTED_EDGE('',*,*,#381,.F.);
#162=ORIENTED_EDGE('',*,*,#382,.T.);
#163=ORIENTED_EDGE('',*,*,#383,.T.);
#164=ORIENTED_EDGE('',*,*,#352,.T.);
#165=ORIENTED_EDGE('',*,*,#384,.T.);
#166=ORIENTED_EDGE('',*,*,#385,.T.);
#167=ORIENTED_EDGE('',*,*,#386,.F.);
#168=ORIENTED_EDGE('',*,*,#387,.T.);
#169=ORIENTED_EDGE('',*,*,#388,.T.);
#170=ORIENTED_EDGE('',*,*,#356,.T.);
#171=ORIENTED_EDGE('',*,*,#389,.T.);
#172=ORIENTED_EDGE('',*,*,#390,.T.);
#173=ORIENTED_EDGE('',*,*,#391,.F.);
#174=ORIENTED_EDGE('',*,*,#392,.T.);
#175=ORIENTED_EDGE('',*,*,#393,.T.);
#176=ORIENTED_EDGE('',*,*,#361,.T.);
#177=ORIENTED_EDGE('',*,*,#394,.T.);
#178=ORIENTED_EDGE('',*,*,#395,.T.);
#179=ORIENTED_EDGE('',*,*,#396,.F.);
#180=ORIENTED_EDGE('',*,*,#397,.T.);
#181=ORIENTED_EDGE('',*,*,#397,.F.);
#182=ORIENTED_EDGE('',*,*,#398,.T.);
#183=ORIENTED_EDGE('',*,*,#399,.T.);
#184=ORIENTED_EDGE('',*,*,#399,.F.);
#185=ORIENTED_EDGE('',*,*,#400,.T.);
#186=ORIENTED_EDGE('',*,*,#367,.T.);
#187=ORIENTED_EDGE('',*,*,#401,.T.);
#188=ORIENTED_EDGE('',*,*,#368,.T.);
#189=ORIENTED_EDGE('',*,*,#402,.T.);
#190=ORIENTED_EDGE('',*,*,#365,.T.);
#191=ORIENTED_EDGE('',*,*,#403,.T.);
#192=ORIENTED_EDGE('',*,*,#366,.T.);
#193=ORIENTED_EDGE('',*,*,#404,.T.);
#194=ORIENTED_EDGE('',*,*,#405,.T.);
#195=ORIENTED_EDGE('',*,*,#405,.F.);
#196=ORIENTED_EDGE('',*,*,#406,.T.);
#197=ORIENTED_EDGE('',*,*,#407,.T.);
#198=ORIENTED_EDGE('',*,*,#407,.F.);
#199=ORIENTED_EDGE('',*,*,#408,.T.);
#200=ORIENTED_EDGE('',*,*,#371,.T.);
#201=ORIENTED_EDGE('',*,*,#409,.T.);
#202=ORIENTED_EDGE('',*,*,#372,.T.);
#203=ORIENTED_EDGE('',*,*,#410,.T.);
#204=ORIENTED_EDGE('',*,*,#369,.T.);
#205=ORIENTED_EDGE('',*,*,#411,.T.);
#206=ORIENTED_EDGE('',*,*,#370,.T.);
#207=ORIENTED_EDGE('',*,*,#412,.T.);
#208=ORIENTED_EDGE('',*,*,#354,.F.);
#209=ORIENTED_EDGE('',*,*,#413,.T.);
#210=ORIENTED_EDGE('',*,*,#414,.T.);
#211=ORIENTED_EDGE('',*,*,#415,.F.);
#212=ORIENTED_EDGE('',*,*,#416,.T.);
#213=ORIENTED_EDGE('',*,*,#417,.T.);
#214=ORIENTED_EDGE('',*,*,#363,.F.);
#215=ORIENTED_EDGE('',*,*,#418,.T.);
#216=ORIENTED_EDGE('',*,*,#419,.T.);
#217=ORIENTED_EDGE('',*,*,#420,.F.);
#218=ORIENTED_EDGE('',*,*,#421,.T.);
#219=ORIENTED_EDGE('',*,*,#422,.T.);
#220=ORIENTED_EDGE('',*,*,#358,.F.);
#221=ORIENTED_EDGE('',*,*,#423,.T.);
#222=ORIENTED_EDGE('',*,*,#424,.T.);
#223=ORIENTED_EDGE('',*,*,#425,.F.);
#224=ORIENTED_EDGE('',*,*,#426,.T.);
#225=ORIENTED_EDGE('',*,*,#427,.T.);
#226=ORIENTED_EDGE('',*,*,#403,.F.);
#227=ORIENTED_EDGE('',*,*,#404,.F.);
#228=ORIENTED_EDGE('',*,*,#401,.F.);
#229=ORIENTED_EDGE('',*,*,#402,.F.);
#230=ORIENTED_EDGE('',*,*,#398,.F.);
#231=ORIENTED_EDGE('',*,*,#400,.F.);
#232=ORIENTED_EDGE('',*,*,#411,.F.);
#233=ORIENTED_EDGE('',*,*,#412,.F.);
#234=ORIENTED_EDGE('',*,*,#409,.F.);
#235=ORIENTED_EDGE('',*,*,#410,.F.);
#236=ORIENTED_EDGE('',*,*,#406,.F.);
#237=ORIENTED_EDGE('',*,*,#408,.F.);
#238=ORIENTED_EDGE('',*,*,#428,.F.);
#239=ORIENTED_EDGE('',*,*,#429,.F.);
#240=ORIENTED_EDGE('',*,*,#430,.F.);
#241=ORIENTED_EDGE('',*,*,#431,.F.);
#242=ORIENTED_EDGE('',*,*,#432,.F.);
#243=ORIENTED_EDGE('',*,*,#433,.F.);
#244=ORIENTED_EDGE('',*,*,#434,.T.);
#245=ORIENTED_EDGE('',*,*,#435,.T.);
#246=ORIENTED_EDGE('',*,*,#436,.T.);
#247=ORIENTED_EDGE('',*,*,#437,.T.);
#248=ORIENTED_EDGE('',*,*,#438,.T.);
#249=ORIENTED_EDGE('',*,*,#439,.T.);
#250=ORIENTED_EDGE('',*,*,#438,.F.);
#251=ORIENTED_EDGE('',*,*,#440,.F.);
#252=ORIENTED_EDGE('',*,*,#381,.T.);
#253=ORIENTED_EDGE('',*,*,#439,.F.);
#254=ORIENTED_EDGE('',*,*,#440,.T.);
#255=ORIENTED_EDGE('',*,*,#380,.F.);
#256=ORIENTED_EDGE('',*,*,#441,.F.);
#257=ORIENTED_EDGE('',*,*,#441,.T.);
#258=ORIENTED_EDGE('',*,*,#437,.F.);
#259=ORIENTED_EDGE('',*,*,#379,.F.);
#260=ORIENTED_EDGE('',*,*,#442,.F.);
#261=ORIENTED_EDGE('',*,*,#442,.T.);
#262=ORIENTED_EDGE('',*,*,#436,.F.);
#263=ORIENTED_EDGE('',*,*,#378,.F.);
#264=ORIENTED_EDGE('',*,*,#443,.F.);
#265=ORIENTED_EDGE('',*,*,#443,.T.);
#266=ORIENTED_EDGE('',*,*,#435,.F.);
#267=ORIENTED_EDGE('',*,*,#377,.F.);
#268=ORIENTED_EDGE('',*,*,#444,.F.);
#269=ORIENTED_EDGE('',*,*,#444,.T.);
#270=ORIENTED_EDGE('',*,*,#434,.F.);
#271=ORIENTED_EDGE('',*,*,#376,.T.);
#272=ORIENTED_EDGE('',*,*,#433,.T.);
#273=ORIENTED_EDGE('',*,*,#375,.T.);
#274=ORIENTED_EDGE('',*,*,#432,.T.);
#275=ORIENTED_EDGE('',*,*,#374,.T.);
#276=ORIENTED_EDGE('',*,*,#431,.T.);
#277=ORIENTED_EDGE('',*,*,#373,.T.);
#278=ORIENTED_EDGE('',*,*,#430,.T.);
#279=ORIENTED_EDGE('',*,*,#445,.F.);
#280=ORIENTED_EDGE('',*,*,#429,.T.);
#281=ORIENTED_EDGE('',*,*,#445,.T.);
#282=ORIENTED_EDGE('',*,*,#446,.F.);
#283=ORIENTED_EDGE('',*,*,#428,.T.);
#284=ORIENTED_EDGE('',*,*,#446,.T.);
#285=ORIENTED_EDGE('',*,*,#359,.T.);
#286=ORIENTED_EDGE('',*,*,#422,.F.);
#287=ORIENTED_EDGE('',*,*,#447,.F.);
#288=ORIENTED_EDGE('',*,*,#389,.F.);
#289=ORIENTED_EDGE('',*,*,#447,.T.);
#290=ORIENTED_EDGE('',*,*,#421,.F.);
#291=ORIENTED_EDGE('',*,*,#448,.F.);
#292=ORIENTED_EDGE('',*,*,#390,.F.);
#293=ORIENTED_EDGE('',*,*,#391,.T.);
#294=ORIENTED_EDGE('',*,*,#448,.T.);
#295=ORIENTED_EDGE('',*,*,#420,.T.);
#296=ORIENTED_EDGE('',*,*,#449,.F.);
#297=ORIENTED_EDGE('',*,*,#449,.T.);
#298=ORIENTED_EDGE('',*,*,#419,.F.);
#299=ORIENTED_EDGE('',*,*,#450,.F.);
#300=ORIENTED_EDGE('',*,*,#392,.F.);
#301=ORIENTED_EDGE('',*,*,#450,.T.);
#302=ORIENTED_EDGE('',*,*,#418,.F.);
#303=ORIENTED_EDGE('',*,*,#362,.F.);
#304=ORIENTED_EDGE('',*,*,#393,.F.);
#305=ORIENTED_EDGE('',*,*,#451,.T.);
#306=ORIENTED_EDGE('',*,*,#423,.F.);
#307=ORIENTED_EDGE('',*,*,#357,.F.);
#308=ORIENTED_EDGE('',*,*,#388,.F.);
#309=ORIENTED_EDGE('',*,*,#355,.T.);
#310=ORIENTED_EDGE('',*,*,#427,.F.);
#311=ORIENTED_EDGE('',*,*,#452,.F.);
#312=ORIENTED_EDGE('',*,*,#384,.F.);
#313=ORIENTED_EDGE('',*,*,#452,.T.);
#314=ORIENTED_EDGE('',*,*,#426,.F.);
#315=ORIENTED_EDGE('',*,*,#453,.F.);
#316=ORIENTED_EDGE('',*,*,#385,.F.);
#317=ORIENTED_EDGE('',*,*,#386,.T.);
#318=ORIENTED_EDGE('',*,*,#453,.T.);
#319=ORIENTED_EDGE('',*,*,#425,.T.);
#320=ORIENTED_EDGE('',*,*,#454,.F.);
#321=ORIENTED_EDGE('',*,*,#454,.T.);
#322=ORIENTED_EDGE('',*,*,#424,.F.);
#323=ORIENTED_EDGE('',*,*,#451,.F.);
#324=ORIENTED_EDGE('',*,*,#387,.F.);
#325=ORIENTED_EDGE('',*,*,#455,.T.);
#326=ORIENTED_EDGE('',*,*,#413,.F.);
#327=ORIENTED_EDGE('',*,*,#353,.F.);
#328=ORIENTED_EDGE('',*,*,#383,.F.);
#329=ORIENTED_EDGE('',*,*,#360,.T.);
#330=ORIENTED_EDGE('',*,*,#417,.F.);
#331=ORIENTED_EDGE('',*,*,#456,.F.);
#332=ORIENTED_EDGE('',*,*,#394,.F.);
#333=ORIENTED_EDGE('',*,*,#456,.T.);
#334=ORIENTED_EDGE('',*,*,#416,.F.);
#335=ORIENTED_EDGE('',*,*,#457,.F.);
#336=ORIENTED_EDGE('',*,*,#395,.F.);
#337=ORIENTED_EDGE('',*,*,#396,.T.);
#338=ORIENTED_EDGE('',*,*,#457,.T.);
#339=ORIENTED_EDGE('',*,*,#415,.T.);
#340=ORIENTED_EDGE('',*,*,#458,.F.);
#341=ORIENTED_EDGE('',*,*,#458,.T.);
#342=ORIENTED_EDGE('',*,*,#414,.F.);
#343=ORIENTED_EDGE('',*,*,#455,.F.);
#344=ORIENTED_EDGE('',*,*,#382,.F.);
#345=ORIENTED_EDGE('',*,*,#459,.F.);
#346=ORIENTED_EDGE('',*,*,#364,.T.);
#347=ORIENTED_EDGE('',*,*,#459,.T.);
#348=EDGE_CURVE('',#460,#460,#554,.T.);
#349=EDGE_CURVE('',#461,#461,#555,.T.);
#350=EDGE_CURVE('',#462,#462,#556,.T.);
#351=EDGE_CURVE('',#463,#463,#557,.T.);
#352=EDGE_CURVE('',#464,#465,#558,.T.);
#353=EDGE_CURVE('',#464,#466,#16,.T.);
#354=EDGE_CURVE('',#466,#467,#559,.T.);
#355=EDGE_CURVE('',#465,#467,#17,.F.);
#356=EDGE_CURVE('',#468,#469,#560,.T.);
#357=EDGE_CURVE('',#468,#470,#18,.T.);
#358=EDGE_CURVE('',#470,#471,#561,.T.);
#359=EDGE_CURVE('',#469,#471,#19,.F.);
#360=EDGE_CURVE('',#472,#473,#20,.F.);
#361=EDGE_CURVE('',#474,#472,#562,.T.);
#362=EDGE_CURVE('',#474,#475,#21,.T.);
#363=EDGE_CURVE('',#475,#473,#563,.T.);
#364=EDGE_CURVE('',#476,#476,#564,.T.);
#365=EDGE_CURVE('',#477,#477,#565,.T.);
#366=EDGE_CURVE('',#478,#478,#566,.T.);
#367=EDGE_CURVE('',#479,#479,#567,.T.);
#368=EDGE_CURVE('',#480,#480,#568,.T.);
#369=EDGE_CURVE('',#481,#481,#569,.T.);
#370=EDGE_CURVE('',#482,#482,#570,.T.);
#371=EDGE_CURVE('',#483,#483,#571,.T.);
#372=EDGE_CURVE('',#484,#484,#572,.T.);
#373=EDGE_CURVE('',#485,#485,#573,.T.);
#374=EDGE_CURVE('',#486,#486,#574,.T.);
#375=EDGE_CURVE('',#487,#487,#575,.T.);
#376=EDGE_CURVE('',#488,#488,#576,.T.);
#377=EDGE_CURVE('',#489,#489,#577,.F.);
#378=EDGE_CURVE('',#490,#490,#578,.F.);
#379=EDGE_CURVE('',#491,#491,#579,.F.);
#380=EDGE_CURVE('',#492,#492,#580,.F.);
#381=EDGE_CURVE('',#493,#493,#581,.T.);
#382=EDGE_CURVE('',#494,#495,#22,.T.);
#383=EDGE_CURVE('',#495,#464,#582,.T.);
#384=EDGE_CURVE('',#465,#496,#23,.T.);
#385=EDGE_CURVE('',#496,#497,#24,.T.);
#386=EDGE_CURVE('',#498,#497,#583,.T.);
#387=EDGE_CURVE('',#498,#499,#25,.T.);
#388=EDGE_CURVE('',#499,#468,#584,.T.);
#389=EDGE_CURVE('',#469,#500,#26,.T.);
#390=EDGE_CURVE('',#500,#501,#27,.T.);
#391=EDGE_CURVE('',#502,#501,#585,.T.);
#392=EDGE_CURVE('',#502,#503,#28,.T.);
#393=EDGE_CURVE('',#503,#474,#586,.T.);
#394=EDGE_CURVE('',#472,#504,#29,.T.);
#395=EDGE_CURVE('',#504,#505,#30,.T.);
#396=EDGE_CURVE('',#494,#505,#587,.T.);
#397=EDGE_CURVE('',#506,#506,#588,.T.);
#398=EDGE_CURVE('',#507,#507,#589,.T.);
#399=EDGE_CURVE('',#508,#508,#590,.T.);
#400=EDGE_CURVE('',#509,#509,#591,.T.);
#401=EDGE_CURVE('',#510,#510,#592,.T.);
#402=EDGE_CURVE('',#511,#511,#593,.T.);
#403=EDGE_CURVE('',#512,#512,#594,.T.);
#404=EDGE_CURVE('',#513,#513,#595,.T.);
#405=EDGE_CURVE('',#514,#514,#596,.T.);
#406=EDGE_CURVE('',#515,#515,#597,.T.);
#407=EDGE_CURVE('',#516,#516,#598,.T.);
#408=EDGE_CURVE('',#517,#517,#599,.T.);
#409=EDGE_CURVE('',#518,#518,#600,.T.);
#410=EDGE_CURVE('',#519,#519,#601,.T.);
#411=EDGE_CURVE('',#520,#520,#602,.T.);
#412=EDGE_CURVE('',#521,#521,#603,.T.);
#413=EDGE_CURVE('',#466,#522,#604,.F.);
#414=EDGE_CURVE('',#522,#523,#31,.T.);
#415=EDGE_CURVE('',#524,#523,#605,.T.);
#416=EDGE_CURVE('',#524,#525,#32,.T.);
#417=EDGE_CURVE('',#525,#473,#33,.T.);
#418=EDGE_CURVE('',#475,#526,#606,.F.);
#419=EDGE_CURVE('',#526,#527,#34,.T.);
#420=EDGE_CURVE('',#528,#527,#607,.T.);
#421=EDGE_CURVE('',#528,#529,#35,.T.);
#422=EDGE_CURVE('',#529,#471,#36,.T.);
#423=EDGE_CURVE('',#470,#530,#608,.F.);
#424=EDGE_CURVE('',#530,#531,#37,.T.);
#425=EDGE_CURVE('',#532,#531,#609,.T.);
#426=EDGE_CURVE('',#532,#533,#38,.T.);
#427=EDGE_CURVE('',#533,#467,#39,.T.);
#428=EDGE_CURVE('',#534,#534,#610,.T.);
#429=EDGE_CURVE('',#535,#535,#611,.T.);
#430=EDGE_CURVE('',#536,#536,#612,.T.);
#431=EDGE_CURVE('',#537,#537,#613,.T.);
#432=EDGE_CURVE('',#538,#538,#614,.T.);
#433=EDGE_CURVE('',#539,#539,#615,.T.);
#434=EDGE_CURVE('',#540,#540,#616,.T.);
#435=EDGE_CURVE('',#541,#541,#617,.T.);
#436=EDGE_CURVE('',#542,#542,#618,.T.);
#437=EDGE_CURVE('',#543,#543,#619,.T.);
#438=EDGE_CURVE('',#544,#544,#620,.T.);
#439=EDGE_CURVE('',#545,#545,#621,.T.);
#440=EDGE_CURVE('',#546,#546,#622,.T.);
#441=EDGE_CURVE('',#547,#547,#623,.T.);
#442=EDGE_CURVE('',#548,#548,#624,.T.);
#443=EDGE_CURVE('',#549,#549,#625,.T.);
#444=EDGE_CURVE('',#550,#550,#626,.T.);
#445=EDGE_CURVE('',#551,#551,#627,.T.);
#446=EDGE_CURVE('',#552,#552,#628,.T.);
#447=EDGE_CURVE('',#500,#529,#40,.T.);
#448=EDGE_CURVE('',#501,#528,#41,.T.);
#449=EDGE_CURVE('',#502,#527,#42,.T.);
#450=EDGE_CURVE('',#503,#526,#43,.T.);
#451=EDGE_CURVE('',#499,#530,#44,.T.);
#452=EDGE_CURVE('',#496,#533,#45,.T.);
#453=EDGE_CURVE('',#497,#532,#46,.T.);
#454=EDGE_CURVE('',#498,#531,#47,.T.);
#455=EDGE_CURVE('',#495,#522,#48,.T.);
#456=EDGE_CURVE('',#504,#525,#49,.T.);
#457=EDGE_CURVE('',#505,#524,#50,.T.);
#458=EDGE_CURVE('',#494,#523,#51,.T.);
#459=EDGE_CURVE('',#553,#553,#629,.T.);
#460=VERTEX_POINT('',#1449);
#461=VERTEX_POINT('',#1452);
#462=VERTEX_POINT('',#1455);
#463=VERTEX_POINT('',#1458);
#464=VERTEX_POINT('',#1461);
#465=VERTEX_POINT('',#1462);
#466=VERTEX_POINT('',#1464);
#467=VERTEX_POINT('',#1466);
#468=VERTEX_POINT('',#1470);
#469=VERTEX_POINT('',#1471);
#470=VERTEX_POINT('',#1473);
#471=VERTEX_POINT('',#1475);
#472=VERTEX_POINT('',#1479);
#473=VERTEX_POINT('',#1480);
#474=VERTEX_POINT('',#1482);
#475=VERTEX_POINT('',#1484);
#476=VERTEX_POINT('',#1488);
#477=VERTEX_POINT('',#1490);
#478=VERTEX_POINT('',#1492);
#479=VERTEX_POINT('',#1494);
#480=VERTEX_POINT('',#1496);
#481=VERTEX_POINT('',#1498);
#482=VERTEX_POINT('',#1500);
#483=VERTEX_POINT('',#1502);
#484=VERTEX_POINT('',#1504);
#485=VERTEX_POINT('',#1506);
#486=VERTEX_POINT('',#1508);
#487=VERTEX_POINT('',#1510);
#488=VERTEX_POINT('',#1512);
#489=VERTEX_POINT('',#1514);
#490=VERTEX_POINT('',#1516);
#491=VERTEX_POINT('',#1518);
#492=VERTEX_POINT('',#1520);
#493=VERTEX_POINT('',#1522);
#494=VERTEX_POINT('',#1524);
#495=VERTEX_POINT('',#1525);
#496=VERTEX_POINT('',#1528);
#497=VERTEX_POINT('',#1530);
#498=VERTEX_POINT('',#1532);
#499=VERTEX_POINT('',#1534);
#500=VERTEX_POINT('',#1537);
#501=VERTEX_POINT('',#1539);
#502=VERTEX_POINT('',#1541);
#503=VERTEX_POINT('',#1543);
#504=VERTEX_POINT('',#1546);
#505=VERTEX_POINT('',#1548);
#506=VERTEX_POINT('',#1552);
#507=VERTEX_POINT('',#1555);
#508=VERTEX_POINT('',#1558);
#509=VERTEX_POINT('',#1561);
#510=VERTEX_POINT('',#1564);
#511=VERTEX_POINT('',#1567);
#512=VERTEX_POINT('',#1570);
#513=VERTEX_POINT('',#1573);
#514=VERTEX_POINT('',#1576);
#515=VERTEX_POINT('',#1579);
#516=VERTEX_POINT('',#1582);
#517=VERTEX_POINT('',#1585);
#518=VERTEX_POINT('',#1588);
#519=VERTEX_POINT('',#1591);
#520=VERTEX_POINT('',#1594);
#521=VERTEX_POINT('',#1597);
#522=VERTEX_POINT('',#1600);
#523=VERTEX_POINT('',#1602);
#524=VERTEX_POINT('',#1604);
#525=VERTEX_POINT('',#1606);
#526=VERTEX_POINT('',#1609);
#527=VERTEX_POINT('',#1611);
#528=VERTEX_POINT('',#1613);
#529=VERTEX_POINT('',#1615);
#530=VERTEX_POINT('',#1618);
#531=VERTEX_POINT('',#1620);
#532=VERTEX_POINT('',#1622);
#533=VERTEX_POINT('',#1624);
#534=VERTEX_POINT('',#1627);
#535=VERTEX_POINT('',#1629);
#536=VERTEX_POINT('',#1631);
#537=VERTEX_POINT('',#1633);
#538=VERTEX_POINT('',#1635);
#539=VERTEX_POINT('',#1637);
#540=VERTEX_POINT('',#1639);
#541=VERTEX_POINT('',#1641);
#542=VERTEX_POINT('',#1643);
#543=VERTEX_POINT('',#1645);
#544=VERTEX_POINT('',#1647);
#545=VERTEX_POINT('',#1650);
#546=VERTEX_POINT('',#1653);
#547=VERTEX_POINT('',#1657);
#548=VERTEX_POINT('',#1661);
#549=VERTEX_POINT('',#1665);
#550=VERTEX_POINT('',#1669);
#551=VERTEX_POINT('',#1677);
#552=VERTEX_POINT('',#1681);
#553=VERTEX_POINT('',#1712);
#554=CIRCLE('',#998,0.003225);
#555=CIRCLE('',#1000,0.003225);
#556=CIRCLE('',#1002,0.003225);
#557=CIRCLE('',#1004,0.003225);
#558=CIRCLE('',#1006,0.1);
#559=CIRCLE('',#1007,0.1);
#560=CIRCLE('',#1009,0.1);
#561=CIRCLE('',#1010,0.1);
#562=CIRCLE('',#1012,0.1);
#563=CIRCLE('',#1013,0.1);
#564=CIRCLE('',#1015,0.003225);
#565=CIRCLE('',#1016,0.00275);
#566=CIRCLE('',#1017,0.00275);
#567=CIRCLE('',#1018,0.00275);
#568=CIRCLE('',#1019,0.00275);
#569=CIRCLE('',#1020,0.00275);
#570=CIRCLE('',#1021,0.00275);
#571=CIRCLE('',#1022,0.00275);
#572=CIRCLE('',#1023,0.00275);
#573=CIRCLE('',#1024,0.00275);
#574=CIRCLE('',#1025,0.00275);
#575=CIRCLE('',#1026,0.00275);
#576=CIRCLE('',#1027,0.00275);
#577=CIRCLE('',#1028,0.00225);
#578=CIRCLE('',#1029,0.00225);
#579=CIRCLE('',#1030,0.00225);
#580=CIRCLE('',#1031,0.00225);
#581=CIRCLE('',#1032,0.014925);
#582=CIRCLE('',#1033,0.033652832574966);
#583=CIRCLE('',#1034,0.0539746794865292);
#584=CIRCLE('',#1035,0.0336528325751164);
#585=CIRCLE('',#1036,0.0539746794865292);
#586=CIRCLE('',#1037,0.0336528325752486);
#587=CIRCLE('',#1038,0.0539746794865291);
#588=CIRCLE('',#1040,0.0025);
#589=CIRCLE('',#1042,0.0025);
#590=CIRCLE('',#1044,0.0025);
#591=CIRCLE('',#1046,0.0025);
#592=CIRCLE('',#1048,0.00275);
#593=CIRCLE('',#1050,0.00275);
#594=CIRCLE('',#1052,0.00275);
#595=CIRCLE('',#1054,0.00275);
#596=CIRCLE('',#1056,0.0025);
#597=CIRCLE('',#1058,0.0025);
#598=CIRCLE('',#1060,0.0025);
#599=CIRCLE('',#1062,0.0025);
#600=CIRCLE('',#1064,0.00275);
#601=CIRCLE('',#1066,0.00275);
#602=CIRCLE('',#1068,0.00275);
#603=CIRCLE('',#1070,0.00275);
#604=CIRCLE('',#1072,0.033652832574966);
#605=CIRCLE('',#1073,0.0539746794865291);
#606=CIRCLE('',#1074,0.0336528325752486);
#607=CIRCLE('',#1075,0.0539746794865292);
#608=CIRCLE('',#1076,0.0336528325751164);
#609=CIRCLE('',#1077,0.0539746794865292);
#610=CIRCLE('',#1078,0.0025);
#611=CIRCLE('',#1079,0.0025);
#612=CIRCLE('',#1080,0.00275);
#613=CIRCLE('',#1081,0.00275);
#614=CIRCLE('',#1082,0.00275);
#615=CIRCLE('',#1083,0.00275);
#616=CIRCLE('',#1084,0.0047);
#617=CIRCLE('',#1085,0.0047);
#618=CIRCLE('',#1086,0.0047);
#619=CIRCLE('',#1087,0.0047);
#620=CIRCLE('',#1088,0.01025);
#621=CIRCLE('',#1090,0.01025);
#622=CIRCLE('',#1092,0.014925);
#623=CIRCLE('',#1095,0.00225);
#624=CIRCLE('',#1098,0.00225);
#625=CIRCLE('',#1101,0.00225);
#626=CIRCLE('',#1104,0.00225);
#627=CIRCLE('',#1111,0.0025);
#628=CIRCLE('',#1114,0.0025);
#629=CIRCLE('',#1132,0.003225);
#630=EDGE_LOOP('',(#124));
#631=EDGE_LOOP('',(#125));
#632=EDGE_LOOP('',(#126));
#633=EDGE_LOOP('',(#127));
#634=EDGE_LOOP('',(#128));
#635=EDGE_LOOP('',(#129));
#636=EDGE_LOOP('',(#130,#131,#132,#133));
#637=EDGE_LOOP('',(#134,#135,#136,#137));
#638=EDGE_LOOP('',(#138,#139,#140,#141));
#639=EDGE_LOOP('',(#142));
#640=EDGE_LOOP('',(#143));
#641=EDGE_LOOP('',(#144));
#642=EDGE_LOOP('',(#145));
#643=EDGE_LOOP('',(#146));
#644=EDGE_LOOP('',(#147));
#645=EDGE_LOOP('',(#148));
#646=EDGE_LOOP('',(#149));
#647=EDGE_LOOP('',(#150));
#648=EDGE_LOOP('',(#151));
#649=EDGE_LOOP('',(#152));
#650=EDGE_LOOP('',(#153));
#651=EDGE_LOOP('',(#154));
#652=EDGE_LOOP('',(#155));
#653=EDGE_LOOP('',(#156));
#654=EDGE_LOOP('',(#157));
#655=EDGE_LOOP('',(#158));
#656=EDGE_LOOP('',(#159));
#657=EDGE_LOOP('',(#160));
#658=EDGE_LOOP('',(#161));
#659=EDGE_LOOP('',(#162,#163,#164,#165,#166,#167,#168,#169,#170,#171,#172,
#173,#174,#175,#176,#177,#178,#179));
#660=EDGE_LOOP('',(#180));
#661=EDGE_LOOP('',(#181));
#662=EDGE_LOOP('',(#182));
#663=EDGE_LOOP('',(#183));
#664=EDGE_LOOP('',(#184));
#665=EDGE_LOOP('',(#185));
#666=EDGE_LOOP('',(#186));
#667=EDGE_LOOP('',(#187));
#668=EDGE_LOOP('',(#188));
#669=EDGE_LOOP('',(#189));
#670=EDGE_LOOP('',(#190));
#671=EDGE_LOOP('',(#191));
#672=EDGE_LOOP('',(#192));
#673=EDGE_LOOP('',(#193));
#674=EDGE_LOOP('',(#194));
#675=EDGE_LOOP('',(#195));
#676=EDGE_LOOP('',(#196));
#677=EDGE_LOOP('',(#197));
#678=EDGE_LOOP('',(#198));
#679=EDGE_LOOP('',(#199));
#680=EDGE_LOOP('',(#200));
#681=EDGE_LOOP('',(#201));
#682=EDGE_LOOP('',(#202));
#683=EDGE_LOOP('',(#203));
#684=EDGE_LOOP('',(#204));
#685=EDGE_LOOP('',(#205));
#686=EDGE_LOOP('',(#206));
#687=EDGE_LOOP('',(#207));
#688=EDGE_LOOP('',(#208,#209,#210,#211,#212,#213,#214,#215,#216,#217,#218,
#219,#220,#221,#222,#223,#224,#225));
#689=EDGE_LOOP('',(#226));
#690=EDGE_LOOP('',(#227));
#691=EDGE_LOOP('',(#228));
#692=EDGE_LOOP('',(#229));
#693=EDGE_LOOP('',(#230));
#694=EDGE_LOOP('',(#231));
#695=EDGE_LOOP('',(#232));
#696=EDGE_LOOP('',(#233));
#697=EDGE_LOOP('',(#234));
#698=EDGE_LOOP('',(#235));
#699=EDGE_LOOP('',(#236));
#700=EDGE_LOOP('',(#237));
#701=EDGE_LOOP('',(#238));
#702=EDGE_LOOP('',(#239));
#703=EDGE_LOOP('',(#240));
#704=EDGE_LOOP('',(#241));
#705=EDGE_LOOP('',(#242));
#706=EDGE_LOOP('',(#243));
#707=EDGE_LOOP('',(#244));
#708=EDGE_LOOP('',(#245));
#709=EDGE_LOOP('',(#246));
#710=EDGE_LOOP('',(#247));
#711=EDGE_LOOP('',(#248));
#712=EDGE_LOOP('',(#249));
#713=EDGE_LOOP('',(#250));
#714=EDGE_LOOP('',(#251));
#715=EDGE_LOOP('',(#252));
#716=EDGE_LOOP('',(#253));
#717=EDGE_LOOP('',(#254));
#718=EDGE_LOOP('',(#255));
#719=EDGE_LOOP('',(#256));
#720=EDGE_LOOP('',(#257));
#721=EDGE_LOOP('',(#258));
#722=EDGE_LOOP('',(#259));
#723=EDGE_LOOP('',(#260));
#724=EDGE_LOOP('',(#261));
#725=EDGE_LOOP('',(#262));
#726=EDGE_LOOP('',(#263));
#727=EDGE_LOOP('',(#264));
#728=EDGE_LOOP('',(#265));
#729=EDGE_LOOP('',(#266));
#730=EDGE_LOOP('',(#267));
#731=EDGE_LOOP('',(#268));
#732=EDGE_LOOP('',(#269));
#733=EDGE_LOOP('',(#270));
#734=EDGE_LOOP('',(#271));
#735=EDGE_LOOP('',(#272));
#736=EDGE_LOOP('',(#273));
#737=EDGE_LOOP('',(#274));
#738=EDGE_LOOP('',(#275));
#739=EDGE_LOOP('',(#276));
#740=EDGE_LOOP('',(#277));
#741=EDGE_LOOP('',(#278));
#742=EDGE_LOOP('',(#279));
#743=EDGE_LOOP('',(#280));
#744=EDGE_LOOP('',(#281));
#745=EDGE_LOOP('',(#282));
#746=EDGE_LOOP('',(#283));
#747=EDGE_LOOP('',(#284));
#748=EDGE_LOOP('',(#285,#286,#287,#288));
#749=EDGE_LOOP('',(#289,#290,#291,#292));
#750=EDGE_LOOP('',(#293,#294,#295,#296));
#751=EDGE_LOOP('',(#297,#298,#299,#300));
#752=EDGE_LOOP('',(#301,#302,#303,#304));
#753=EDGE_LOOP('',(#305,#306,#307,#308));
#754=EDGE_LOOP('',(#309,#310,#311,#312));
#755=EDGE_LOOP('',(#313,#314,#315,#316));
#756=EDGE_LOOP('',(#317,#318,#319,#320));
#757=EDGE_LOOP('',(#321,#322,#323,#324));
#758=EDGE_LOOP('',(#325,#326,#327,#328));
#759=EDGE_LOOP('',(#329,#330,#331,#332));
#760=EDGE_LOOP('',(#333,#334,#335,#336));
#761=EDGE_LOOP('',(#337,#338,#339,#340));
#762=EDGE_LOOP('',(#341,#342,#343,#344));
#763=EDGE_LOOP('',(#345));
#764=EDGE_LOOP('',(#346));
#765=EDGE_LOOP('',(#347));
#766=FACE_BOUND('',#630,.T.);
#767=FACE_BOUND('',#631,.T.);
#768=FACE_BOUND('',#632,.T.);
#769=FACE_BOUND('',#633,.T.);
#770=FACE_BOUND('',#634,.T.);
#771=FACE_BOUND('',#635,.T.);
#772=FACE_BOUND('',#636,.T.);
#773=FACE_BOUND('',#637,.T.);
#774=FACE_BOUND('',#638,.T.);
#775=FACE_BOUND('',#639,.T.);
#776=FACE_BOUND('',#640,.T.);
#777=FACE_BOUND('',#641,.T.);
#778=FACE_BOUND('',#642,.T.);
#779=FACE_BOUND('',#643,.T.);
#780=FACE_BOUND('',#644,.T.);
#781=FACE_BOUND('',#645,.T.);
#782=FACE_BOUND('',#646,.T.);
#783=FACE_BOUND('',#647,.T.);
#784=FACE_BOUND('',#648,.T.);
#785=FACE_BOUND('',#649,.T.);
#786=FACE_BOUND('',#650,.T.);
#787=FACE_BOUND('',#651,.T.);
#788=FACE_BOUND('',#652,.T.);
#789=FACE_BOUND('',#653,.T.);
#790=FACE_BOUND('',#654,.T.);
#791=FACE_BOUND('',#655,.T.);
#792=FACE_BOUND('',#656,.T.);
#793=FACE_BOUND('',#657,.T.);
#794=FACE_BOUND('',#658,.T.);
#795=FACE_BOUND('',#659,.T.);
#796=FACE_BOUND('',#660,.T.);
#797=FACE_BOUND('',#661,.T.);
#798=FACE_BOUND('',#662,.T.);
#799=FACE_BOUND('',#663,.T.);
#800=FACE_BOUND('',#664,.T.);
#801=FACE_BOUND('',#665,.T.);
#802=FACE_BOUND('',#666,.T.);
#803=FACE_BOUND('',#667,.T.);
#804=FACE_BOUND('',#668,.T.);
#805=FACE_BOUND('',#669,.T.);
#806=FACE_BOUND('',#670,.T.);
#807=FACE_BOUND('',#671,.T.);
#808=FACE_BOUND('',#672,.T.);
#809=FACE_BOUND('',#673,.T.);
#810=FACE_BOUND('',#674,.T.);
#811=FACE_BOUND('',#675,.T.);
#812=FACE_BOUND('',#676,.T.);
#813=FACE_BOUND('',#677,.T.);
#814=FACE_BOUND('',#678,.T.);
#815=FACE_BOUND('',#679,.T.);
#816=FACE_BOUND('',#680,.T.);
#817=FACE_BOUND('',#681,.T.);
#818=FACE_BOUND('',#682,.T.);
#819=FACE_BOUND('',#683,.T.);
#820=FACE_BOUND('',#684,.T.);
#821=FACE_BOUND('',#685,.T.);
#822=FACE_BOUND('',#686,.T.);
#823=FACE_BOUND('',#687,.T.);
#824=FACE_BOUND('',#688,.T.);
#825=FACE_BOUND('',#689,.T.);
#826=FACE_BOUND('',#690,.T.);
#827=FACE_BOUND('',#691,.T.);
#828=FACE_BOUND('',#692,.T.);
#829=FACE_BOUND('',#693,.T.);
#830=FACE_BOUND('',#694,.T.);
#831=FACE_BOUND('',#695,.T.);
#832=FACE_BOUND('',#696,.T.);
#833=FACE_BOUND('',#697,.T.);
#834=FACE_BOUND('',#698,.T.);
#835=FACE_BOUND('',#699,.T.);
#836=FACE_BOUND('',#700,.T.);
#837=FACE_BOUND('',#701,.T.);
#838=FACE_BOUND('',#702,.T.);
#839=FACE_BOUND('',#703,.T.);
#840=FACE_BOUND('',#704,.T.);
#841=FACE_BOUND('',#705,.T.);
#842=FACE_BOUND('',#706,.T.);
#843=FACE_BOUND('',#707,.T.);
#844=FACE_BOUND('',#708,.T.);
#845=FACE_BOUND('',#709,.T.);
#846=FACE_BOUND('',#710,.T.);
#847=FACE_BOUND('',#711,.T.);
#848=FACE_BOUND('',#712,.T.);
#849=FACE_BOUND('',#713,.T.);
#850=FACE_BOUND('',#714,.T.);
#851=FACE_BOUND('',#715,.T.);
#852=FACE_BOUND('',#716,.T.);
#853=FACE_BOUND('',#717,.T.);
#854=FACE_BOUND('',#718,.T.);
#855=FACE_BOUND('',#719,.T.);
#856=FACE_BOUND('',#720,.T.);
#857=FACE_BOUND('',#721,.T.);
#858=FACE_BOUND('',#722,.T.);
#859=FACE_BOUND('',#723,.T.);
#860=FACE_BOUND('',#724,.T.);
#861=FACE_BOUND('',#725,.T.);
#862=FACE_BOUND('',#726,.T.);
#863=FACE_BOUND('',#727,.T.);
#864=FACE_BOUND('',#728,.T.);
#865=FACE_BOUND('',#729,.T.);
#866=FACE_BOUND('',#730,.T.);
#867=FACE_BOUND('',#731,.T.);
#868=FACE_BOUND('',#732,.T.);
#869=FACE_BOUND('',#733,.T.);
#870=FACE_BOUND('',#734,.T.);
#871=FACE_BOUND('',#735,.T.);
#872=FACE_BOUND('',#736,.T.);
#873=FACE_BOUND('',#737,.T.);
#874=FACE_BOUND('',#738,.T.);
#875=FACE_BOUND('',#739,.T.);
#876=FACE_BOUND('',#740,.T.);
#877=FACE_BOUND('',#741,.T.);
#878=FACE_BOUND('',#742,.T.);
#879=FACE_BOUND('',#743,.T.);
#880=FACE_BOUND('',#744,.T.);
#881=FACE_BOUND('',#745,.T.);
#882=FACE_BOUND('',#746,.T.);
#883=FACE_BOUND('',#747,.T.);
#884=FACE_BOUND('',#748,.T.);
#885=FACE_BOUND('',#749,.T.);
#886=FACE_BOUND('',#750,.T.);
#887=FACE_BOUND('',#751,.T.);
#888=FACE_BOUND('',#752,.T.);
#889=FACE_BOUND('',#753,.T.);
#890=FACE_BOUND('',#754,.T.);
#891=FACE_BOUND('',#755,.T.);
#892=FACE_BOUND('',#756,.T.);
#893=FACE_BOUND('',#757,.T.);
#894=FACE_BOUND('',#758,.T.);
#895=FACE_BOUND('',#759,.T.);
#896=FACE_BOUND('',#760,.T.);
#897=FACE_BOUND('',#761,.T.);
#898=FACE_BOUND('',#762,.T.);
#899=FACE_BOUND('',#763,.T.);
#900=FACE_BOUND('',#764,.T.);
#901=FACE_BOUND('',#765,.T.);
#902=PLANE('',#997);
#903=PLANE('',#1001);
#904=PLANE('',#1014);
#905=PLANE('',#1039);
#906=PLANE('',#1043);
#907=PLANE('',#1055);
#908=PLANE('',#1059);
#909=PLANE('',#1071);
#910=PLANE('',#1093);
#911=PLANE('',#1112);
#912=PLANE('',#1115);
#913=PLANE('',#1116);
#914=PLANE('',#1117);
#915=PLANE('',#1119);
#916=PLANE('',#1122);
#917=PLANE('',#1123);
#918=PLANE('',#1125);
#919=PLANE('',#1127);
#920=PLANE('',#1128);
#921=PLANE('',#1130);
#922=PLANE('',#1133);
#923=ADVANCED_FACE('',(#766),#902,.T.);
#924=ADVANCED_FACE('',(#767,#768),#88,.F.);
#925=ADVANCED_FACE('',(#769),#903,.T.);
#926=ADVANCED_FACE('',(#770,#771),#89,.F.);
#927=ADVANCED_FACE('',(#772),#90,.T.);
#928=ADVANCED_FACE('',(#773),#91,.T.);
#929=ADVANCED_FACE('',(#774),#92,.T.);
#930=ADVANCED_FACE('',(#775,#776,#777,#778,#779,#780,#781,#782,#783,#784,
#785,#786,#787,#788,#789,#790,#791,#792,#793,#794,#795),#904,.T.);
#931=ADVANCED_FACE('',(#796),#905,.T.);
#932=ADVANCED_FACE('',(#797,#798),#93,.F.);
#933=ADVANCED_FACE('',(#799),#906,.T.);
#934=ADVANCED_FACE('',(#800,#801),#94,.F.);
#935=ADVANCED_FACE('',(#802,#803),#95,.F.);
#936=ADVANCED_FACE('',(#804,#805),#96,.F.);
#937=ADVANCED_FACE('',(#806,#807),#97,.F.);
#938=ADVANCED_FACE('',(#808,#809),#98,.F.);
#939=ADVANCED_FACE('',(#810),#907,.T.);
#940=ADVANCED_FACE('',(#811,#812),#99,.F.);
#941=ADVANCED_FACE('',(#813),#908,.T.);
#942=ADVANCED_FACE('',(#814,#815),#100,.F.);
#943=ADVANCED_FACE('',(#816,#817),#101,.F.);
#944=ADVANCED_FACE('',(#818,#819),#102,.F.);
#945=ADVANCED_FACE('',(#820,#821),#103,.F.);
#946=ADVANCED_FACE('',(#822,#823),#104,.F.);
#947=ADVANCED_FACE('',(#824,#825,#826,#827,#828,#829,#830,#831,#832,#833,
#834,#835,#836,#837,#838,#839,#840,#841,#842,#843,#844,#845,#846,#847),
#909,.F.);
#948=ADVANCED_FACE('',(#848,#849),#105,.F.);
#949=ADVANCED_FACE('',(#850,#851),#106,.T.);
#950=ADVANCED_FACE('',(#852,#853),#910,.T.);
#951=ADVANCED_FACE('',(#854,#855),#107,.F.);
#952=ADVANCED_FACE('',(#856,#857),#12,.F.);
#953=ADVANCED_FACE('',(#858,#859),#108,.F.);
#954=ADVANCED_FACE('',(#860,#861),#13,.F.);
#955=ADVANCED_FACE('',(#862,#863),#109,.F.);
#956=ADVANCED_FACE('',(#864,#865),#14,.F.);
#957=ADVANCED_FACE('',(#866,#867),#110,.F.);
#958=ADVANCED_FACE('',(#868,#869),#15,.F.);
#959=ADVANCED_FACE('',(#870,#871),#111,.F.);
#960=ADVANCED_FACE('',(#872,#873),#112,.F.);
#961=ADVANCED_FACE('',(#874,#875),#113,.F.);
#962=ADVANCED_FACE('',(#876,#877),#114,.F.);
#963=ADVANCED_FACE('',(#878,#879),#115,.F.);
#964=ADVANCED_FACE('',(#880),#911,.T.);
#965=ADVANCED_FACE('',(#881,#882),#116,.F.);
#966=ADVANCED_FACE('',(#883),#912,.T.);
#967=ADVANCED_FACE('',(#884),#913,.T.);
#968=ADVANCED_FACE('',(#885),#914,.T.);
#969=ADVANCED_FACE('',(#886),#117,.F.);
#970=ADVANCED_FACE('',(#887),#915,.T.);
#971=ADVANCED_FACE('',(#888),#118,.F.);
#972=ADVANCED_FACE('',(#889),#119,.F.);
#973=ADVANCED_FACE('',(#890),#916,.T.);
#974=ADVANCED_FACE('',(#891),#917,.T.);
#975=ADVANCED_FACE('',(#892),#120,.F.);
#976=ADVANCED_FACE('',(#893),#918,.T.);
#977=ADVANCED_FACE('',(#894),#121,.F.);
#978=ADVANCED_FACE('',(#895),#919,.T.);
#979=ADVANCED_FACE('',(#896),#920,.T.);
#980=ADVANCED_FACE('',(#897),#122,.F.);
#981=ADVANCED_FACE('',(#898),#921,.T.);
#982=ADVANCED_FACE('',(#899,#900),#123,.F.);
#983=ADVANCED_FACE('',(#901),#922,.T.);
#984=CLOSED_SHELL('',(#923,#924,#925,#926,#927,#928,#929,#930,#931,#932,
#933,#934,#935,#936,#937,#938,#939,#940,#941,#942,#943,#944,#945,#946,#947,
#948,#949,#950,#951,#952,#953,#954,#955,#956,#957,#958,#959,#960,#961,#962,
#963,#964,#965,#966,#967,#968,#969,#970,#971,#972,#973,#974,#975,#976,#977,
#978,#979,#980,#981,#982,#983));
#985=STYLED_ITEM('',(#986),#993);
#986=PRESENTATION_STYLE_ASSIGNMENT((#987));
#987=SURFACE_STYLE_USAGE(.BOTH.,#988);
#988=SURFACE_SIDE_STYLE('',(#989));
#989=SURFACE_STYLE_FILL_AREA(#990);
#990=FILL_AREA_STYLE('',(#991));
#991=FILL_AREA_STYLE_COLOUR('',#992);
#992=COLOUR_RGB('',0.231372549019608,0.380392156862745,0.705882352941177);
#993=MANIFOLD_SOLID_BREP('RH-100',#984);
#994=SHAPE_DEFINITION_REPRESENTATION(#1720,#995);
#995=SHAPE_REPRESENTATION('RH-100',(#996),#1715);
#996=AXIS2_PLACEMENT_3D('',#1446,#1134,#1135);
#997=AXIS2_PLACEMENT_3D('',#1447,#1136,#1137);
#998=AXIS2_PLACEMENT_3D('',#1448,#1138,#1139);
#999=AXIS2_PLACEMENT_3D('',#1450,#1140,#1141);
#1000=AXIS2_PLACEMENT_3D('',#1451,#1142,#1143);
#1001=AXIS2_PLACEMENT_3D('',#1453,#1144,#1145);
#1002=AXIS2_PLACEMENT_3D('',#1454,#1146,#1147);
#1003=AXIS2_PLACEMENT_3D('',#1456,#1148,#1149);
#1004=AXIS2_PLACEMENT_3D('',#1457,#1150,#1151);
#1005=AXIS2_PLACEMENT_3D('',#1459,#1152,#1153);
#1006=AXIS2_PLACEMENT_3D('',#1460,#1154,#1155);
#1007=AXIS2_PLACEMENT_3D('',#1465,#1157,#1158);
#1008=AXIS2_PLACEMENT_3D('',#1468,#1160,#1161);
#1009=AXIS2_PLACEMENT_3D('',#1469,#1162,#1163);
#1010=AXIS2_PLACEMENT_3D('',#1474,#1165,#1166);
#1011=AXIS2_PLACEMENT_3D('',#1477,#1168,#1169);
#1012=AXIS2_PLACEMENT_3D('',#1481,#1171,#1172);
#1013=AXIS2_PLACEMENT_3D('',#1485,#1174,#1175);
#1014=AXIS2_PLACEMENT_3D('',#1486,#1176,#1177);
#1015=AXIS2_PLACEMENT_3D('',#1487,#1178,#1179);
#1016=AXIS2_PLACEMENT_3D('',#1489,#1180,#1181);
#1017=AXIS2_PLACEMENT_3D('',#1491,#1182,#1183);
#1018=AXIS2_PLACEMENT_3D('',#1493,#1184,#1185);
#1019=AXIS2_PLACEMENT_3D('',#1495,#1186,#1187);
#1020=AXIS2_PLACEMENT_3D('',#1497,#1188,#1189);
#1021=AXIS2_PLACEMENT_3D('',#1499,#1190,#1191);
#1022=AXIS2_PLACEMENT_3D('',#1501,#1192,#1193);
#1023=AXIS2_PLACEMENT_3D('',#1503,#1194,#1195);
#1024=AXIS2_PLACEMENT_3D('',#1505,#1196,#1197);
#1025=AXIS2_PLACEMENT_3D('',#1507,#1198,#1199);
#1026=AXIS2_PLACEMENT_3D('',#1509,#1200,#1201);
#1027=AXIS2_PLACEMENT_3D('',#1511,#1202,#1203);
#1028=AXIS2_PLACEMENT_3D('',#1513,#1204,#1205);
#1029=AXIS2_PLACEMENT_3D('',#1515,#1206,#1207);
#1030=AXIS2_PLACEMENT_3D('',#1517,#1208,#1209);
#1031=AXIS2_PLACEMENT_3D('',#1519,#1210,#1211);
#1032=AXIS2_PLACEMENT_3D('',#1521,#1212,#1213);
#1033=AXIS2_PLACEMENT_3D('',#1526,#1215,#1216);
#1034=AXIS2_PLACEMENT_3D('',#1531,#1219,#1220);
#1035=AXIS2_PLACEMENT_3D('',#1535,#1222,#1223);
#1036=AXIS2_PLACEMENT_3D('',#1540,#1226,#1227);
#1037=AXIS2_PLACEMENT_3D('',#1544,#1229,#1230);
#1038=AXIS2_PLACEMENT_3D('',#1549,#1233,#1234);
#1039=AXIS2_PLACEMENT_3D('',#1550,#1235,#1236);
#1040=AXIS2_PLACEMENT_3D('',#1551,#1237,#1238);
#1041=AXIS2_PLACEMENT_3D('',#1553,#1239,#1240);
#1042=AXIS2_PLACEMENT_3D('',#1554,#1241,#1242);
#1043=AXIS2_PLACEMENT_3D('',#1556,#1243,#1244);
#1044=AXIS2_PLACEMENT_3D('',#1557,#1245,#1246);
#1045=AXIS2_PLACEMENT_3D('',#1559,#1247,#1248);
#1046=AXIS2_PLACEMENT_3D('',#1560,#1249,#1250);
#1047=AXIS2_PLACEMENT_3D('',#1562,#1251,#1252);
#1048=AXIS2_PLACEMENT_3D('',#1563,#1253,#1254);
#1049=AXIS2_PLACEMENT_3D('',#1565,#1255,#1256);
#1050=AXIS2_PLACEMENT_3D('',#1566,#1257,#1258);
#1051=AXIS2_PLACEMENT_3D('',#1568,#1259,#1260);
#1052=AXIS2_PLACEMENT_3D('',#1569,#1261,#1262);
#1053=AXIS2_PLACEMENT_3D('',#1571,#1263,#1264);
#1054=AXIS2_PLACEMENT_3D('',#1572,#1265,#1266);
#1055=AXIS2_PLACEMENT_3D('',#1574,#1267,#1268);
#1056=AXIS2_PLACEMENT_3D('',#1575,#1269,#1270);
#1057=AXIS2_PLACEMENT_3D('',#1577,#1271,#1272);
#1058=AXIS2_PLACEMENT_3D('',#1578,#1273,#1274);
#1059=AXIS2_PLACEMENT_3D('',#1580,#1275,#1276);
#1060=AXIS2_PLACEMENT_3D('',#1581,#1277,#1278);
#1061=AXIS2_PLACEMENT_3D('',#1583,#1279,#1280);
#1062=AXIS2_PLACEMENT_3D('',#1584,#1281,#1282);
#1063=AXIS2_PLACEMENT_3D('',#1586,#1283,#1284);
#1064=AXIS2_PLACEMENT_3D('',#1587,#1285,#1286);
#1065=AXIS2_PLACEMENT_3D('',#1589,#1287,#1288);
#1066=AXIS2_PLACEMENT_3D('',#1590,#1289,#1290);
#1067=AXIS2_PLACEMENT_3D('',#1592,#1291,#1292);
#1068=AXIS2_PLACEMENT_3D('',#1593,#1293,#1294);
#1069=AXIS2_PLACEMENT_3D('',#1595,#1295,#1296);
#1070=AXIS2_PLACEMENT_3D('',#1596,#1297,#1298);
#1071=AXIS2_PLACEMENT_3D('',#1598,#1299,#1300);
#1072=AXIS2_PLACEMENT_3D('',#1599,#1301,#1302);
#1073=AXIS2_PLACEMENT_3D('',#1603,#1304,#1305);
#1074=AXIS2_PLACEMENT_3D('',#1608,#1308,#1309);
#1075=AXIS2_PLACEMENT_3D('',#1612,#1311,#1312);
#1076=AXIS2_PLACEMENT_3D('',#1617,#1315,#1316);
#1077=AXIS2_PLACEMENT_3D('',#1621,#1318,#1319);
#1078=AXIS2_PLACEMENT_3D('',#1626,#1322,#1323);
#1079=AXIS2_PLACEMENT_3D('',#1628,#1324,#1325);
#1080=AXIS2_PLACEMENT_3D('',#1630,#1326,#1327);
#1081=AXIS2_PLACEMENT_3D('',#1632,#1328,#1329);
#1082=AXIS2_PLACEMENT_3D('',#1634,#1330,#1331);
#1083=AXIS2_PLACEMENT_3D('',#1636,#1332,#1333);
#1084=AXIS2_PLACEMENT_3D('',#1638,#1334,#1335);
#1085=AXIS2_PLACEMENT_3D('',#1640,#1336,#1337);
#1086=AXIS2_PLACEMENT_3D('',#1642,#1338,#1339);
#1087=AXIS2_PLACEMENT_3D('',#1644,#1340,#1341);
#1088=AXIS2_PLACEMENT_3D('',#1646,#1342,#1343);
#1089=AXIS2_PLACEMENT_3D('',#1648,#1344,#1345);
#1090=AXIS2_PLACEMENT_3D('',#1649,#1346,#1347);
#1091=AXIS2_PLACEMENT_3D('',#1651,#1348,#1349);
#1092=AXIS2_PLACEMENT_3D('',#1652,#1350,#1351);
#1093=AXIS2_PLACEMENT_3D('',#1654,#1352,#1353);
#1094=AXIS2_PLACEMENT_3D('',#1655,#1354,#1355);
#1095=AXIS2_PLACEMENT_3D('',#1656,#1356,#1357);
#1096=AXIS2_PLACEMENT_3D('',#1658,#1358,#1359);
#1097=AXIS2_PLACEMENT_3D('',#1659,#1360,#1361);
#1098=AXIS2_PLACEMENT_3D('',#1660,#1362,#1363);
#1099=AXIS2_PLACEMENT_3D('',#1662,#1364,#1365);
#1100=AXIS2_PLACEMENT_3D('',#1663,#1366,#1367);
#1101=AXIS2_PLACEMENT_3D('',#1664,#1368,#1369);
#1102=AXIS2_PLACEMENT_3D('',#1666,#1370,#1371);
#1103=AXIS2_PLACEMENT_3D('',#1667,#1372,#1373);
#1104=AXIS2_PLACEMENT_3D('',#1668,#1374,#1375);
#1105=AXIS2_PLACEMENT_3D('',#1670,#1376,#1377);
#1106=AXIS2_PLACEMENT_3D('',#1671,#1378,#1379);
#1107=AXIS2_PLACEMENT_3D('',#1672,#1380,#1381);
#1108=AXIS2_PLACEMENT_3D('',#1673,#1382,#1383);
#1109=AXIS2_PLACEMENT_3D('',#1674,#1384,#1385);
#1110=AXIS2_PLACEMENT_3D('',#1675,#1386,#1387);
#1111=AXIS2_PLACEMENT_3D('',#1676,#1388,#1389);
#1112=AXIS2_PLACEMENT_3D('',#1678,#1390,#1391);
#1113=AXIS2_PLACEMENT_3D('',#1679,#1392,#1393);
#1114=AXIS2_PLACEMENT_3D('',#1680,#1394,#1395);
#1115=AXIS2_PLACEMENT_3D('',#1682,#1396,#1397);
#1116=AXIS2_PLACEMENT_3D('',#1683,#1398,#1399);
#1117=AXIS2_PLACEMENT_3D('',#1685,#1401,#1402);
#1118=AXIS2_PLACEMENT_3D('',#1687,#1404,#1405);
#1119=AXIS2_PLACEMENT_3D('',#1689,#1407,#1408);
#1120=AXIS2_PLACEMENT_3D('',#1691,#1410,#1411);
#1121=AXIS2_PLACEMENT_3D('',#1692,#1412,#1413);
#1122=AXIS2_PLACEMENT_3D('',#1694,#1415,#1416);
#1123=AXIS2_PLACEMENT_3D('',#1696,#1418,#1419);
#1124=AXIS2_PLACEMENT_3D('',#1698,#1421,#1422);
#1125=AXIS2_PLACEMENT_3D('',#1700,#1424,#1425);
#1126=AXIS2_PLACEMENT_3D('',#1701,#1426,#1427);
#1127=AXIS2_PLACEMENT_3D('',#1703,#1429,#1430);
#1128=AXIS2_PLACEMENT_3D('',#1705,#1432,#1433);
#1129=AXIS2_PLACEMENT_3D('',#1707,#1435,#1436);
#1130=AXIS2_PLACEMENT_3D('',#1709,#1438,#1439);
#1131=AXIS2_PLACEMENT_3D('',#1710,#1440,#1441);
#1132=AXIS2_PLACEMENT_3D('',#1711,#1442,#1443);
#1133=AXIS2_PLACEMENT_3D('',#1713,#1444,#1445);
#1134=DIRECTION('',(0.,0.,1.));
#1135=DIRECTION('',(1.,0.,0.));
#1136=DIRECTION('',(0.,0.,1.));
#1137=DIRECTION('',(-0.5,0.866025403784438,0.));
#1138=DIRECTION('',(0.,0.,1.));
#1139=DIRECTION('',(-0.5,0.866025403784438,0.));
#1140=DIRECTION('',(0.,0.,1.));
#1141=DIRECTION('',(-0.5,0.866025403784438,0.));
#1142=DIRECTION('',(0.,0.,1.));
#1143=DIRECTION('',(-0.5,0.866025403784438,0.));
#1144=DIRECTION('',(0.,0.,1.));
#1145=DIRECTION('',(-0.5,-0.866025403784439,0.));
#1146=DIRECTION('',(0.,0.,1.));
#1147=DIRECTION('',(-0.5,-0.866025403784439,0.));
#1148=DIRECTION('',(0.,0.,1.));
#1149=DIRECTION('',(-0.5,-0.866025403784439,0.));
#1150=DIRECTION('',(0.,0.,1.));
#1151=DIRECTION('',(-0.5,-0.866025403784439,0.));
#1152=DIRECTION('',(0.,0.,1.));
#1153=DIRECTION('',(1.,0.,0.));
#1154=DIRECTION('',(0.,0.,1.));
#1155=DIRECTION('',(1.,0.,0.));
#1156=DIRECTION('',(0.,0.,-1.));
#1157=DIRECTION('',(0.,0.,1.));
#1158=DIRECTION('',(1.,0.,0.));
#1159=DIRECTION('',(0.,0.,1.));
#1160=DIRECTION('',(0.,0.,1.));
#1161=DIRECTION('',(1.,0.,0.));
#1162=DIRECTION('',(0.,0.,1.));
#1163=DIRECTION('',(1.,0.,0.));
#1164=DIRECTION('',(0.,0.,-1.));
#1165=DIRECTION('',(0.,0.,1.));
#1166=DIRECTION('',(1.,0.,0.));
#1167=DIRECTION('',(0.,0.,1.));
#1168=DIRECTION('',(0.,0.,1.));
#1169=DIRECTION('',(1.,0.,0.));
#1170=DIRECTION('',(0.,0.,1.));
#1171=DIRECTION('',(0.,0.,1.));
#1172=DIRECTION('',(1.,0.,0.));
#1173=DIRECTION('',(0.,0.,-1.));
#1174=DIRECTION('',(0.,0.,1.));
#1175=DIRECTION('',(1.,0.,0.));
#1176=DIRECTION('',(0.,0.,1.));
#1177=DIRECTION('',(1.,0.,0.));
#1178=DIRECTION('',(0.,0.,1.));
#1179=DIRECTION('',(1.,0.,0.));
#1180=DIRECTION('',(0.,0.,1.));
#1181=DIRECTION('',(-0.5,0.866025403784438,0.));
#1182=DIRECTION('',(0.,0.,1.));
#1183=DIRECTION('',(-0.5,0.866025403784438,0.));
#1184=DIRECTION('',(0.,0.,1.));
#1185=DIRECTION('',(-0.5,0.866025403784438,0.));
#1186=DIRECTION('',(0.,0.,1.));
#1187=DIRECTION('',(-0.5,0.866025403784438,0.));
#1188=DIRECTION('',(0.,0.,1.));
#1189=DIRECTION('',(-0.5,-0.866025403784439,0.));
#1190=DIRECTION('',(0.,0.,1.));
#1191=DIRECTION('',(-0.5,-0.866025403784439,0.));
#1192=DIRECTION('',(0.,0.,1.));
#1193=DIRECTION('',(-0.5,-0.866025403784439,0.));
#1194=DIRECTION('',(0.,0.,1.));
#1195=DIRECTION('',(-0.5,-0.866025403784439,0.));
#1196=DIRECTION('',(0.,0.,1.));
#1197=DIRECTION('',(1.,0.,0.));
#1198=DIRECTION('',(0.,0.,1.));
#1199=DIRECTION('',(1.,0.,0.));
#1200=DIRECTION('',(0.,0.,1.));
#1201=DIRECTION('',(1.,0.,0.));
#1202=DIRECTION('',(0.,0.,1.));
#1203=DIRECTION('',(1.,0.,0.));
#1204=DIRECTION('',(0.,0.,1.));
#1205=DIRECTION('',(1.,0.,0.));
#1206=DIRECTION('',(0.,0.,1.));
#1207=DIRECTION('',(1.,0.,0.));
#1208=DIRECTION('',(0.,0.,1.));
#1209=DIRECTION('',(1.,0.,0.));
#1210=DIRECTION('',(0.,0.,1.));
#1211=DIRECTION('',(1.,0.,0.));
#1212=DIRECTION('',(0.,0.,1.));
#1213=DIRECTION('',(1.,0.,0.));
#1214=DIRECTION('',(-0.5,-0.866025403784439,0.));
#1215=DIRECTION('',(0.,0.,-1.));
#1216=DIRECTION('',(-1.,0.,0.));
#1217=DIRECTION('',(0.510260420986414,0.860019943242462,0.));
#1218=DIRECTION('',(0.5,0.866025403784439,0.));
#1219=DIRECTION('',(0.,0.,1.));
#1220=DIRECTION('',(1.,0.,0.));
#1221=DIRECTION('',(1.,0.,0.));
#1222=DIRECTION('',(0.,0.,-1.));
#1223=DIRECTION('',(-1.,0.,0.));
#1224=DIRECTION('',(-0.999929329102431,0.0118885154986949,0.));
#1225=DIRECTION('',(-1.,0.,0.));
#1226=DIRECTION('',(0.,0.,1.));
#1227=DIRECTION('',(1.,0.,0.));
#1228=DIRECTION('',(-0.5,0.866025403784439,0.));
#1229=DIRECTION('',(0.,0.,-1.));
#1230=DIRECTION('',(-1.,0.,0.));
#1231=DIRECTION('',(0.48966890811603,-0.8719084587412,0.));
#1232=DIRECTION('',(0.5,-0.866025403784439,0.));
#1233=DIRECTION('',(0.,0.,1.));
#1234=DIRECTION('',(1.,0.,0.));
#1235=DIRECTION('',(0.,0.,-1.));
#1236=DIRECTION('',(-0.5,0.866025403784438,0.));
#1237=DIRECTION('',(0.,0.,-1.));
#1238=DIRECTION('',(0.5,-0.866025403784438,0.));
#1239=DIRECTION('',(0.,0.,-1.));
#1240=DIRECTION('',(0.5,-0.866025403784438,0.));
#1241=DIRECTION('',(0.,0.,-1.));
#1242=DIRECTION('',(0.5,-0.866025403784438,0.));
#1243=DIRECTION('',(0.,0.,-1.));
#1244=DIRECTION('',(-0.5,0.866025403784438,0.));
#1245=DIRECTION('',(0.,0.,-1.));
#1246=DIRECTION('',(0.5,-0.866025403784438,0.));
#1247=DIRECTION('',(0.,0.,-1.));
#1248=DIRECTION('',(0.5,-0.866025403784438,0.));
#1249=DIRECTION('',(0.,0.,-1.));
#1250=DIRECTION('',(0.5,-0.866025403784438,0.));
#1251=DIRECTION('',(0.,0.,-1.));
#1252=DIRECTION('',(0.5,-0.866025403784438,0.));
#1253=DIRECTION('',(0.,0.,-1.));
#1254=DIRECTION('',(0.5,-0.866025403784438,0.));
#1255=DIRECTION('',(0.,0.,-1.));
#1256=DIRECTION('',(0.5,-0.866025403784438,0.));
#1257=DIRECTION('',(0.,0.,-1.));
#1258=DIRECTION('',(0.5,-0.866025403784438,0.));
#1259=DIRECTION('',(0.,0.,-1.));
#1260=DIRECTION('',(0.5,-0.866025403784438,0.));
#1261=DIRECTION('',(0.,0.,-1.));
#1262=DIRECTION('',(0.5,-0.866025403784438,0.));
#1263=DIRECTION('',(0.,0.,-1.));
#1264=DIRECTION('',(0.5,-0.866025403784438,0.));
#1265=DIRECTION('',(0.,0.,-1.));
#1266=DIRECTION('',(0.5,-0.866025403784438,0.));
#1267=DIRECTION('',(0.,0.,-1.));
#1268=DIRECTION('',(-0.5,-0.866025403784439,0.));
#1269=DIRECTION('',(0.,0.,-1.));
#1270=DIRECTION('',(0.5,0.866025403784439,0.));
#1271=DIRECTION('',(0.,0.,-1.));
#1272=DIRECTION('',(0.5,0.866025403784439,0.));
#1273=DIRECTION('',(0.,0.,-1.));
#1274=DIRECTION('',(0.5,0.866025403784439,0.));
#1275=DIRECTION('',(0.,0.,-1.));
#1276=DIRECTION('',(-0.5,-0.866025403784439,0.));
#1277=DIRECTION('',(0.,0.,-1.));
#1278=DIRECTION('',(0.5,0.866025403784439,0.));
#1279=DIRECTION('',(0.,0.,-1.));
#1280=DIRECTION('',(0.5,0.866025403784439,0.));
#1281=DIRECTION('',(0.,0.,-1.));
#1282=DIRECTION('',(0.5,0.866025403784439,0.));
#1283=DIRECTION('',(0.,0.,-1.));
#1284=DIRECTION('',(0.5,0.866025403784439,0.));
#1285=DIRECTION('',(0.,0.,-1.));
#1286=DIRECTION('',(0.5,0.866025403784439,0.));
#1287=DIRECTION('',(0.,0.,-1.));
#1288=DIRECTION('',(0.5,0.866025403784439,0.));
#1289=DIRECTION('',(0.,0.,-1.));
#1290=DIRECTION('',(0.5,0.866025403784439,0.));
#1291=DIRECTION('',(0.,0.,-1.));
#1292=DIRECTION('',(0.5,0.866025403784439,0.));
#1293=DIRECTION('',(0.,0.,-1.));
#1294=DIRECTION('',(0.5,0.866025403784439,0.));
#1295=DIRECTION('',(0.,0.,-1.));
#1296=DIRECTION('',(0.5,0.866025403784439,0.));
#1297=DIRECTION('',(0.,0.,-1.));
#1298=DIRECTION('',(0.5,0.866025403784439,0.));
#1299=DIRECTION('',(0.,0.,1.));
#1300=DIRECTION('',(1.,0.,0.));
#1301=DIRECTION('',(0.,0.,-1.));
#1302=DIRECTION('',(-1.,0.,0.));
#1303=DIRECTION('',(0.5,0.866025403784439,0.));
#1304=DIRECTION('',(0.,0.,-1.));
#1305=DIRECTION('',(-1.,0.,0.));
#1306=DIRECTION('',(-0.5,0.866025403784439,0.));
#1307=DIRECTION('',(-0.48966890811603,0.8719084587412,0.));
#1308=DIRECTION('',(0.,0.,-1.));
#1309=DIRECTION('',(-1.,0.,0.));
#1310=DIRECTION('',(0.5,-0.866025403784439,0.));
#1311=DIRECTION('',(0.,0.,-1.));
#1312=DIRECTION('',(-1.,0.,0.));
#1313=DIRECTION('',(1.,0.,0.));
#1314=DIRECTION('',(0.999929329102431,-0.0118885154986949,0.));
#1315=DIRECTION('',(0.,0.,-1.));
#1316=DIRECTION('',(-1.,0.,0.));
#1317=DIRECTION('',(-1.,0.,0.));
#1318=DIRECTION('',(0.,0.,-1.));
#1319=DIRECTION('',(-1.,0.,0.));
#1320=DIRECTION('',(-0.5,-0.866025403784439,0.));
#1321=DIRECTION('',(-0.510260420986414,-0.860019943242462,0.));
#1322=DIRECTION('',(0.,0.,-1.));
#1323=DIRECTION('',(-1.,0.,0.));
#1324=DIRECTION('',(0.,0.,-1.));
#1325=DIRECTION('',(-1.,0.,0.));
#1326=DIRECTION('',(0.,0.,-1.));
#1327=DIRECTION('',(-1.,0.,0.));
#1328=DIRECTION('',(0.,0.,-1.));
#1329=DIRECTION('',(-1.,0.,0.));
#1330=DIRECTION('',(0.,0.,-1.));
#1331=DIRECTION('',(-1.,0.,0.));
#1332=DIRECTION('',(0.,0.,-1.));
#1333=DIRECTION('',(-1.,0.,0.));
#1334=DIRECTION('',(0.,0.,1.));
#1335=DIRECTION('',(1.,0.,0.));
#1336=DIRECTION('',(0.,0.,1.));
#1337=DIRECTION('',(1.,0.,0.));
#1338=DIRECTION('',(0.,0.,1.));
#1339=DIRECTION('',(1.,0.,0.));
#1340=DIRECTION('',(0.,0.,1.));
#1341=DIRECTION('',(1.,0.,0.));
#1342=DIRECTION('',(0.,0.,1.));
#1343=DIRECTION('',(1.,0.,0.));
#1344=DIRECTION('',(0.,0.,-1.));
#1345=DIRECTION('',(-1.,0.,0.));
#1346=DIRECTION('',(0.,0.,1.));
#1347=DIRECTION('',(1.,0.,0.));
#1348=DIRECTION('',(0.,0.,-1.));
#1349=DIRECTION('',(-1.,0.,0.));
#1350=DIRECTION('',(0.,0.,1.));
#1351=DIRECTION('',(1.,0.,0.));
#1352=DIRECTION('',(0.,0.,1.));
#1353=DIRECTION('',(1.,0.,0.));
#1354=DIRECTION('',(0.,0.,1.));
#1355=DIRECTION('',(1.,0.,0.));
#1356=DIRECTION('',(0.,0.,1.));
#1357=DIRECTION('',(1.,0.,0.));
#1358=DIRECTION('',(0.,0.,-1.));
#1359=DIRECTION('',(-1.,0.,0.));
#1360=DIRECTION('',(0.,0.,1.));
#1361=DIRECTION('',(1.,0.,0.));
#1362=DIRECTION('',(0.,0.,1.));
#1363=DIRECTION('',(1.,0.,0.));
#1364=DIRECTION('',(0.,0.,-1.));
#1365=DIRECTION('',(-1.,0.,0.));
#1366=DIRECTION('',(0.,0.,1.));
#1367=DIRECTION('',(1.,0.,0.));
#1368=DIRECTION('',(0.,0.,1.));
#1369=DIRECTION('',(1.,0.,0.));
#1370=DIRECTION('',(0.,0.,-1.));
#1371=DIRECTION('',(-1.,0.,0.));
#1372=DIRECTION('',(0.,0.,1.));
#1373=DIRECTION('',(1.,0.,0.));
#1374=DIRECTION('',(0.,0.,1.));
#1375=DIRECTION('',(1.,0.,0.));
#1376=DIRECTION('',(0.,0.,-1.));
#1377=DIRECTION('',(-1.,0.,0.));
#1378=DIRECTION('',(0.,0.,-1.));
#1379=DIRECTION('',(-1.,0.,0.));
#1380=DIRECTION('',(0.,0.,-1.));
#1381=DIRECTION('',(-1.,0.,0.));
#1382=DIRECTION('',(0.,0.,-1.));
#1383=DIRECTION('',(-1.,0.,0.));
#1384=DIRECTION('',(0.,0.,-1.));
#1385=DIRECTION('',(-1.,0.,0.));
#1386=DIRECTION('',(0.,0.,-1.));
#1387=DIRECTION('',(-1.,0.,0.));
#1388=DIRECTION('',(0.,0.,-1.));
#1389=DIRECTION('',(-1.,0.,0.));
#1390=DIRECTION('',(0.,0.,-1.));
#1391=DIRECTION('',(1.,0.,0.));
#1392=DIRECTION('',(0.,0.,-1.));
#1393=DIRECTION('',(-1.,0.,0.));
#1394=DIRECTION('',(0.,0.,-1.));
#1395=DIRECTION('',(-1.,0.,0.));
#1396=DIRECTION('',(0.,0.,-1.));
#1397=DIRECTION('',(1.,0.,0.));
#1398=DIRECTION('',(0.0118885154986949,0.999929329102431,-1.55792596998331E-26));
#1399=DIRECTION('',(-0.999929329102431,0.0118885154986949,-2.44016505405131E-13));
#1400=DIRECTION('',(0.,0.,-1.));
#1401=DIRECTION('',(0.,1.,0.));
#1402=DIRECTION('',(0.,0.,1.));
#1403=DIRECTION('',(0.,0.,-1.));
#1404=DIRECTION('',(0.,0.,-1.));
#1405=DIRECTION('',(-1.,0.,0.));
#1406=DIRECTION('',(0.,0.,-1.));
#1407=DIRECTION('',(0.866025403784438,0.5,0.));
#1408=DIRECTION('',(-0.5,0.866025403784439,0.));
#1409=DIRECTION('',(0.,0.,-1.));
#1410=DIRECTION('',(0.,0.,-1.));
#1411=DIRECTION('',(-0.963239792447741,-0.268643075930188,0.));
#1412=DIRECTION('',(0.,0.,-1.));
#1413=DIRECTION('',(0.248968167917539,0.968511668160887,0.));
#1414=DIRECTION('',(0.,0.,-1.));
#1415=DIRECTION('',(0.860019943242462,-0.510260420986414,6.5584952334029E-25));
#1416=DIRECTION('',(-0.510260420986414,-0.860019943242462,1.60362522420868E-13));
#1417=DIRECTION('',(0.,0.,-1.));
#1418=DIRECTION('',(0.866025403784439,-0.5,0.));
#1419=DIRECTION('',(0.5,0.866025403784439,0.));
#1420=DIRECTION('',(0.,0.,-1.));
#1421=DIRECTION('',(0.,0.,-1.));
#1422=DIRECTION('',(-1.,0.,0.));
#1423=DIRECTION('',(0.,0.,-1.));
#1424=DIRECTION('',(0.,-1.,0.));
#1425=DIRECTION('',(0.,0.,-1.));
#1426=DIRECTION('',(0.,0.,-1.));
#1427=DIRECTION('',(0.714271624530263,-0.699868592230641,0.));
#1428=DIRECTION('',(0.,0.,-1.));
#1429=DIRECTION('',(-0.8719084587412,-0.48966890811603,-1.42140043048939E-25));
#1430=DIRECTION('',(0.48966890811603,-0.8719084587412,-1.60362522420873E-13));
#1431=DIRECTION('',(0.,0.,-1.));
#1432=DIRECTION('',(-0.866025403784438,-0.5,0.));
#1433=DIRECTION('',(0.5,-0.866025403784439,0.));
#1434=DIRECTION('',(0.,0.,-1.));
#1435=DIRECTION('',(0.,0.,-1.));
#1436=DIRECTION('',(-1.,0.,0.));
#1437=DIRECTION('',(0.,0.,-1.));
#1438=DIRECTION('',(-0.866025403784439,0.5,0.));
#1439=DIRECTION('',(-0.5,-0.866025403784439,0.));
#1440=DIRECTION('',(0.,0.,1.));
#1441=DIRECTION('',(1.,0.,0.));
#1442=DIRECTION('',(0.,0.,1.));
#1443=DIRECTION('',(1.,0.,0.));
#1444=DIRECTION('',(0.,0.,1.));
#1445=DIRECTION('',(1.,0.,0.));
#1446=CARTESIAN_POINT('',(0.,0.,0.));
#1447=CARTESIAN_POINT('',(-0.00747253518231147,0.0128852006717718,-0.11335));
#1448=CARTESIAN_POINT('',(-0.038,0.0658179306876173,-0.11335));
#1449=CARTESIAN_POINT('',(-0.0396125,0.0686108626148221,-0.11335));
#1450=CARTESIAN_POINT('',(-0.038,0.0658179306876173,-0.11335));
#1451=CARTESIAN_POINT('',(-0.038,0.0658179306876173,-0.1102));
#1452=CARTESIAN_POINT('',(-0.0396125,0.0686108626148221,-0.1102));
#1453=CARTESIAN_POINT('',(-0.00742264352345893,-0.0129140056344406,-0.11335));
#1454=CARTESIAN_POINT('',(-0.038,-0.0658179306876173,-0.11335));
#1455=CARTESIAN_POINT('',(-0.0396125,-0.0686108626148221,-0.11335));
#1456=CARTESIAN_POINT('',(-0.038,-0.0658179306876173,-0.11335));
#1457=CARTESIAN_POINT('',(-0.038,-0.0658179306876173,-0.1102));
#1458=CARTESIAN_POINT('',(-0.0396125,-0.0686108626148221,-0.1102));
#1459=CARTESIAN_POINT('',(0.,6.12323399573677E-18,-0.1182));
#1460=CARTESIAN_POINT('',(0.,6.12323399573677E-18,-0.1102));
#1461=CARTESIAN_POINT('',(-0.0702094517358167,-0.071208376522401,-0.1102));
#1462=CARTESIAN_POINT('',(-0.0267713406779812,-0.0963498589428312,-0.1102));
#1463=CARTESIAN_POINT('',(-0.0702094517358167,-0.071208376522401,-0.1102));
#1464=CARTESIAN_POINT('',(-0.0702094517358167,-0.071208376522401,-0.1182));
#1465=CARTESIAN_POINT('',(0.,6.12323399573677E-18,-0.1182));
#1466=CARTESIAN_POINT('',(-0.0267713406779812,-0.0963498589428312,-0.1182));
#1467=CARTESIAN_POINT('',(-0.0267713406779812,-0.0963498589428312,-0.1102));
#1468=CARTESIAN_POINT('',(0.,6.12323399573677E-18,-0.1182));
#1469=CARTESIAN_POINT('',(0.,6.12323399573677E-18,-0.1102));
#1470=CARTESIAN_POINT('',(0.096772988898555,-0.0251989805277943,-0.1102));
#1471=CARTESIAN_POINT('',(0.096827095834538,0.0249902683509267,-0.1102));
#1472=CARTESIAN_POINT('',(0.096772988898555,-0.0251989805277942,-0.1102));
#1473=CARTESIAN_POINT('',(0.096772988898555,-0.0251989805277942,-0.1182));
#1474=CARTESIAN_POINT('',(0.,6.12323399573677E-18,-0.1182));
#1475=CARTESIAN_POINT('',(0.096827095834538,0.0249902683509267,-0.1182));
#1476=CARTESIAN_POINT('',(0.0968270958345462,0.0249902683509373,-0.1102));
#1477=CARTESIAN_POINT('',(0.,6.12323399573677E-18,-0.1182));
#1478=CARTESIAN_POINT('',(-0.0700557551565485,0.071359590591915,-0.1102));
#1479=CARTESIAN_POINT('',(-0.0700557551565485,0.071359590591915,-0.1102));
#1480=CARTESIAN_POINT('',(-0.0700557551565485,0.071359590591915,-0.1182));
#1481=CARTESIAN_POINT('',(0.,6.12323399573677E-18,-0.1102));
#1482=CARTESIAN_POINT('',(-0.0265635371627383,0.0964073570501952,-0.1102));
#1483=CARTESIAN_POINT('',(-0.0265635371627383,0.0964073570501952,-0.1102));
#1484=CARTESIAN_POINT('',(-0.0265635371627383,0.0964073570501952,-0.1182));
#1485=CARTESIAN_POINT('',(0.,6.12323399573677E-18,-0.1182));
#1486=CARTESIAN_POINT('',(0.,0.,-0.1102));
#1487=CARTESIAN_POINT('',(0.076,1.10983616172729E-18,-0.1102));
#1488=CARTESIAN_POINT('',(0.079225,1.10983616172729E-18,-0.1102));
#1489=CARTESIAN_POINT('',(-0.0439903810567666,0.0461935750346352,-0.1102));
#1490=CARTESIAN_POINT('',(-0.0453653810567666,0.0485751448950424,-0.1102));
#1491=CARTESIAN_POINT('',(-0.0180096189432335,0.0611935750346352,-0.1102));
#1492=CARTESIAN_POINT('',(-0.0193846189432335,0.0635751448950424,-0.1102));
#1493=CARTESIAN_POINT('',(-0.0310096189432335,0.0837102355330306,-0.1102));
#1494=CARTESIAN_POINT('',(-0.0323846189432335,0.0860918053934378,-0.1102));
#1495=CARTESIAN_POINT('',(-0.0569903810567666,0.0687102355330306,-0.1102));
#1496=CARTESIAN_POINT('',(-0.0583653810567666,0.0710918053934378,-0.1102));
#1497=CARTESIAN_POINT('',(-0.0180096189432334,-0.0611935750346352,-0.1102));
#1498=CARTESIAN_POINT('',(-0.0193846189432334,-0.0635751448950424,-0.1102));
#1499=CARTESIAN_POINT('',(-0.0439903810567666,-0.0461935750346352,-0.1102));
#1500=CARTESIAN_POINT('',(-0.0453653810567666,-0.0485751448950424,-0.1102));
#1501=CARTESIAN_POINT('',(-0.0569903810567666,-0.0687102355330306,-0.1102));
#1502=CARTESIAN_POINT('',(-0.0583653810567666,-0.0710918053934378,-0.1102));
#1503=CARTESIAN_POINT('',(-0.0310096189432334,-0.0837102355330306,-0.1102));
#1504=CARTESIAN_POINT('',(-0.0323846189432334,-0.0860918053934378,-0.1102));
#1505=CARTESIAN_POINT('',(0.088,0.015,-0.1102));
#1506=CARTESIAN_POINT('',(0.09075,0.015,-0.1102));
#1507=CARTESIAN_POINT('',(0.088,-0.015,-0.1102));
#1508=CARTESIAN_POINT('',(0.09075,-0.015,-0.1102));
#1509=CARTESIAN_POINT('',(0.062,-0.015,-0.1102));
#1510=CARTESIAN_POINT('',(0.06475,-0.015,-0.1102));
#1511=CARTESIAN_POINT('',(0.062,0.015,-0.1102));
#1512=CARTESIAN_POINT('',(0.06475,0.015,-0.1102));
#1513=CARTESIAN_POINT('',(4.23677871606557E-18,-0.025,-0.1102));
#1514=CARTESIAN_POINT('',(0.00225,-0.025,-0.1102));
#1515=CARTESIAN_POINT('',(-0.025,3.46944695195361E-18,-0.1102));
#1516=CARTESIAN_POINT('',(-0.02275,3.46944695195361E-18,-0.1102));
#1517=CARTESIAN_POINT('',(0.,0.025,-0.1102));
#1518=CARTESIAN_POINT('',(0.00225,0.025,-0.1102));
#1519=CARTESIAN_POINT('',(0.025,-3.46944695195361E-18,-0.1102));
#1520=CARTESIAN_POINT('',(0.02725,-3.46944695195361E-18,-0.1102));
#1521=CARTESIAN_POINT('',(0.,9.13892673863712E-19,-0.1102));
#1522=CARTESIAN_POINT('',(0.014925,9.13892673863712E-19,-0.1102));
#1523=CARTESIAN_POINT('',(-0.021650635094611,0.0125,-0.1102));
#1524=CARTESIAN_POINT('',(-0.0444486613249669,-0.0269873397432646,-0.1102));
#1525=CARTESIAN_POINT('',(-0.0696507100100695,-0.0706383603851957,-0.11020000012));
#1526=CARTESIAN_POINT('',(-0.093965784429813,-0.0473724834774392,-0.1102));
#1527=CARTESIAN_POINT('',(0.0224806054273766,-0.013338019983763,-0.1102));
#1528=CARTESIAN_POINT('',(-0.0263493210769517,-0.0956384648241305,-0.110200000249995));
#1529=CARTESIAN_POINT('',(0.021650635094611,-0.0125,-0.1102));
#1530=CARTESIAN_POINT('',(-0.00114739113574501,-0.0519873397432645,-0.1102));
#1531=CARTESIAN_POINT('',(0.045596052460712,-0.0789746794865291,-0.1102));
#1532=CARTESIAN_POINT('',(0.045596052460712,-0.025,-0.1102));
#1533=CARTESIAN_POINT('',(0.,-0.025,-0.1102));
#1534=CARTESIAN_POINT('',(0.0959999695802945,-0.0250001040677455,-0.11020000012));
#1535=CARTESIAN_POINT('',(0.0880086663466871,-0.0576905146641756,-0.1102));
#1536=CARTESIAN_POINT('',(0.000310761428433542,0.026137785384439,-0.1102));
#1537=CARTESIAN_POINT('',(0.0960000006551174,0.0250000509869523,-0.110200000249995));
#1538=CARTESIAN_POINT('',(0.,0.025,-0.1102));
#1539=CARTESIAN_POINT('',(0.045596052460712,0.025,-0.1102));
#1540=CARTESIAN_POINT('',(0.045596052460712,0.0789746794865291,-0.1102));
#1541=CARTESIAN_POINT('',(-0.00114739113574509,0.0519873397432646,-0.1102));
#1542=CARTESIAN_POINT('',(0.021650635094611,0.0125,-0.1102));
#1543=CARTESIAN_POINT('',(-0.0263492595702251,0.0956384644529411,-0.11020000012));
#1544=CARTESIAN_POINT('',(0.0059571180833584,0.105062998141543,-0.1102));
#1545=CARTESIAN_POINT('',(-0.02279136685581,-0.0127997654006806,-0.1102));
#1546=CARTESIAN_POINT('',(-0.0696506795781656,0.0706384138371783,-0.110200000249995));
#1547=CARTESIAN_POINT('',(-0.021650635094611,-0.0125,-0.1102));
#1548=CARTESIAN_POINT('',(-0.0444486613249669,0.0269873397432646,-0.1102));
#1549=CARTESIAN_POINT('',(-0.091192104921424,4.68375338513738E-17,-0.1102));
#1550=CARTESIAN_POINT('',(0.,0.,-0.1142));
#1551=CARTESIAN_POINT('',(-0.043,0.0744781847254617,-0.1142));
#1552=CARTESIAN_POINT('',(-0.04175,0.0723131212160006,-0.1142));
#1553=CARTESIAN_POINT('',(-0.043,0.0744781847254617,-0.1142));
#1554=CARTESIAN_POINT('',(-0.043,0.0744781847254617,-0.1182));
#1555=CARTESIAN_POINT('',(-0.04175,0.0723131212160006,-0.1182));
#1556=CARTESIAN_POINT('',(0.,0.,-0.1142));
#1557=CARTESIAN_POINT('',(-0.033,0.0571576766497729,-0.1142));
#1558=CARTESIAN_POINT('',(-0.03175,0.0549926131403118,-0.1142));
#1559=CARTESIAN_POINT('',(-0.033,0.0571576766497729,-0.1142));
#1560=CARTESIAN_POINT('',(-0.033,0.0571576766497729,-0.1182));
#1561=CARTESIAN_POINT('',(-0.03175,0.0549926131403118,-0.1182));
#1562=CARTESIAN_POINT('',(-0.0310096189432335,0.0837102355330306,0.210996877016688));
#1563=CARTESIAN_POINT('',(-0.0310096189432335,0.0837102355330306,-0.1182));
#1564=CARTESIAN_POINT('',(-0.0296346189432335,0.0813286656726234,-0.1182));
#1565=CARTESIAN_POINT('',(-0.0569903810567666,0.0687102355330306,0.210996877016688));
#1566=CARTESIAN_POINT('',(-0.0569903810567666,0.0687102355330306,-0.1182));
#1567=CARTESIAN_POINT('',(-0.0556153810567666,0.0663286656726234,-0.1182));
#1568=CARTESIAN_POINT('',(-0.0439903810567666,0.0461935750346352,0.210996877016688));
#1569=CARTESIAN_POINT('',(-0.0439903810567666,0.0461935750346352,-0.1182));
#1570=CARTESIAN_POINT('',(-0.0426153810567666,0.043812005174228,-0.1182));
#1571=CARTESIAN_POINT('',(-0.0180096189432335,0.0611935750346352,0.210996877016688));
#1572=CARTESIAN_POINT('',(-0.0180096189432335,0.0611935750346352,-0.1182));
#1573=CARTESIAN_POINT('',(-0.0166346189432335,0.058812005174228,-0.1182));
#1574=CARTESIAN_POINT('',(0.,0.,-0.1142));
#1575=CARTESIAN_POINT('',(-0.043,-0.0744781847254617,-0.1142));
#1576=CARTESIAN_POINT('',(-0.04175,-0.0723131212160006,-0.1142));
#1577=CARTESIAN_POINT('',(-0.043,-0.0744781847254617,-0.1142));
#1578=CARTESIAN_POINT('',(-0.043,-0.0744781847254617,-0.1182));
#1579=CARTESIAN_POINT('',(-0.04175,-0.0723131212160006,-0.1182));
#1580=CARTESIAN_POINT('',(0.,0.,-0.1142));
#1581=CARTESIAN_POINT('',(-0.033,-0.057157676649773,-0.1142));
#1582=CARTESIAN_POINT('',(-0.03175,-0.0549926131403119,-0.1142));
#1583=CARTESIAN_POINT('',(-0.033,-0.057157676649773,-0.1142));
#1584=CARTESIAN_POINT('',(-0.033,-0.057157676649773,-0.1182));
#1585=CARTESIAN_POINT('',(-0.03175,-0.0549926131403119,-0.1182));
#1586=CARTESIAN_POINT('',(-0.0569903810567666,-0.0687102355330306,0.210996877016688));
#1587=CARTESIAN_POINT('',(-0.0569903810567666,-0.0687102355330306,-0.1182));
#1588=CARTESIAN_POINT('',(-0.0556153810567666,-0.0663286656726234,-0.1182));
#1589=CARTESIAN_POINT('',(-0.0310096189432334,-0.0837102355330306,0.210996877016688));
#1590=CARTESIAN_POINT('',(-0.0310096189432334,-0.0837102355330306,-0.1182));
#1591=CARTESIAN_POINT('',(-0.0296346189432334,-0.0813286656726234,-0.1182));
#1592=CARTESIAN_POINT('',(-0.0180096189432334,-0.0611935750346352,0.210996877016688));
#1593=CARTESIAN_POINT('',(-0.0180096189432334,-0.0611935750346352,-0.1182));
#1594=CARTESIAN_POINT('',(-0.0166346189432334,-0.058812005174228,-0.1182));
#1595=CARTESIAN_POINT('',(-0.0439903810567666,-0.0461935750346352,0.210996877016688));
#1596=CARTESIAN_POINT('',(-0.0439903810567666,-0.0461935750346352,-0.1182));
#1597=CARTESIAN_POINT('',(-0.0426153810567666,-0.043812005174228,-0.1182));
#1598=CARTESIAN_POINT('',(0.,0.,-0.1182));
#1599=CARTESIAN_POINT('',(-0.093965784429813,-0.0473724834774392,-0.1182));
#1600=CARTESIAN_POINT('',(-0.0696507100100695,-0.0706383603851957,-0.11819999988));
#1601=CARTESIAN_POINT('',(-0.057049648209789,-0.0488128892532854,-0.1182));
#1602=CARTESIAN_POINT('',(-0.0444486613249669,-0.0269873397432646,-0.1182));
#1603=CARTESIAN_POINT('',(-0.091192104921424,4.68375338513738E-17,-0.1182));
#1604=CARTESIAN_POINT('',(-0.0444486613249669,0.0269873397432646,-0.1182));
#1605=CARTESIAN_POINT('',(-0.057049648209789,0.0488128892532853,-0.1182));
#1606=CARTESIAN_POINT('',(-0.0696506795533577,0.070638413795013,-0.1182));
#1607=CARTESIAN_POINT('',(-0.0698532758126785,0.0709990542178172,-0.1182));
#1608=CARTESIAN_POINT('',(0.0059571180833584,0.105062998141543,-0.1182));
#1609=CARTESIAN_POINT('',(-0.0263492595702251,0.0956384644529411,-0.11819999988));
#1610=CARTESIAN_POINT('',(-0.0137483780205671,0.0738128892532853,-0.1182));
#1611=CARTESIAN_POINT('',(-0.00114739113574509,0.0519873397432646,-0.1182));
#1612=CARTESIAN_POINT('',(0.045596052460712,0.0789746794865291,-0.1182));
#1613=CARTESIAN_POINT('',(0.045596052460712,0.025,-0.1182));
#1614=CARTESIAN_POINT('',(0.070798026230356,0.025,-0.1182));
#1615=CARTESIAN_POINT('',(0.0960000006061972,0.0250000509865506,-0.1182));
#1616=CARTESIAN_POINT('',(0.0964136225036374,0.0249951842824321,-0.1182));
#1617=CARTESIAN_POINT('',(0.0880086663466871,-0.0576905146641756,-0.1182));
#1618=CARTESIAN_POINT('',(0.0959999695802945,-0.0250001040677455,-0.11819999988));
#1619=CARTESIAN_POINT('',(0.070798026230356,-0.025,-0.1182));
#1620=CARTESIAN_POINT('',(0.045596052460712,-0.025,-0.1182));
#1621=CARTESIAN_POINT('',(0.045596052460712,-0.0789746794865291,-0.1182));
#1622=CARTESIAN_POINT('',(-0.00114739113574501,-0.0519873397432645,-0.1182));
#1623=CARTESIAN_POINT('',(-0.013748378020567,-0.0738128892532853,-0.1182));
#1624=CARTESIAN_POINT('',(-0.0263493210528395,-0.0956384647815636,-0.1182));
#1625=CARTESIAN_POINT('',(-0.0265603466909591,-0.0959942385002493,-0.1182));
#1626=CARTESIAN_POINT('',(0.066,-3.80466527644508E-18,-0.1182));
#1627=CARTESIAN_POINT('',(0.0635,-3.80466527644508E-18,-0.1182));
#1628=CARTESIAN_POINT('',(0.086,-1.05689844129701E-17,-0.1182));
#1629=CARTESIAN_POINT('',(0.0835,-1.05689844129701E-17,-0.1182));
#1630=CARTESIAN_POINT('',(0.088,0.015,-0.1182));
#1631=CARTESIAN_POINT('',(0.08525,0.015,-0.1182));
#1632=CARTESIAN_POINT('',(0.088,-0.015,-0.1182));
#1633=CARTESIAN_POINT('',(0.08525,-0.015,-0.1182));
#1634=CARTESIAN_POINT('',(0.062,-0.015,-0.1182));
#1635=CARTESIAN_POINT('',(0.05925,-0.015,-0.1182));
#1636=CARTESIAN_POINT('',(0.062,0.015,-0.1182));
#1637=CARTESIAN_POINT('',(0.05925,0.015,-0.1182));
#1638=CARTESIAN_POINT('',(4.23677871606557E-18,-0.025,-0.1182));
#1639=CARTESIAN_POINT('',(0.0047,-0.025,-0.1182));
#1640=CARTESIAN_POINT('',(-0.025,3.46944695195361E-18,-0.1182));
#1641=CARTESIAN_POINT('',(-0.0203,3.46944695195361E-18,-0.1182));
#1642=CARTESIAN_POINT('',(0.,0.025,-0.1182));
#1643=CARTESIAN_POINT('',(0.0047,0.025,-0.1182));
#1644=CARTESIAN_POINT('',(0.025,-3.46944695195361E-18,-0.1182));
#1645=CARTESIAN_POINT('',(0.0297,-3.46944695195361E-18,-0.1182));
#1646=CARTESIAN_POINT('',(0.,6.27631484563019E-19,-0.1182));
#1647=CARTESIAN_POINT('',(0.01025,6.27631484563019E-19,-0.1182));
#1648=CARTESIAN_POINT('',(0.,6.27631484563019E-19,-0.1087));
#1649=CARTESIAN_POINT('',(0.,6.27631484563019E-19,-0.1087));
#1650=CARTESIAN_POINT('',(0.01025,6.27631484563019E-19,-0.1087));
#1651=CARTESIAN_POINT('',(0.,9.13892673863712E-19,-0.1087));
#1652=CARTESIAN_POINT('',(0.,9.13892673863712E-19,-0.1087));
#1653=CARTESIAN_POINT('',(0.014925,9.13892673863712E-19,-0.1087));
#1654=CARTESIAN_POINT('',(0.,0.,-0.1087));
#1655=CARTESIAN_POINT('',(0.025,-3.46944695195361E-18,-0.1182));
#1656=CARTESIAN_POINT('',(0.025,-3.46944695195361E-18,-0.11575));
#1657=CARTESIAN_POINT('',(0.02725,-3.46944695195361E-18,-0.11575));
#1658=CARTESIAN_POINT('',(0.025,-3.46944695195361E-18,-0.1182));
#1659=CARTESIAN_POINT('',(0.,0.025,-0.1182));
#1660=CARTESIAN_POINT('',(0.,0.025,-0.11575));
#1661=CARTESIAN_POINT('',(0.00225,0.025,-0.11575));
#1662=CARTESIAN_POINT('',(0.,0.025,-0.1182));
#1663=CARTESIAN_POINT('',(-0.025,3.46944695195361E-18,-0.1182));
#1664=CARTESIAN_POINT('',(-0.025,3.46944695195361E-18,-0.11575));
#1665=CARTESIAN_POINT('',(-0.02275,3.46944695195361E-18,-0.11575));
#1666=CARTESIAN_POINT('',(-0.025,3.46944695195361E-18,-0.1182));
#1667=CARTESIAN_POINT('',(4.23677871606557E-18,-0.025,-0.1182));
#1668=CARTESIAN_POINT('',(4.23677871606557E-18,-0.025,-0.11575));
#1669=CARTESIAN_POINT('',(0.00225,-0.025,-0.11575));
#1670=CARTESIAN_POINT('',(4.23677871606557E-18,-0.025,-0.1182));
#1671=CARTESIAN_POINT('',(0.062,0.015,0.210996877016688));
#1672=CARTESIAN_POINT('',(0.062,-0.015,0.210996877016688));
#1673=CARTESIAN_POINT('',(0.088,-0.015,0.210996877016688));
#1674=CARTESIAN_POINT('',(0.088,0.015,0.210996877016688));
#1675=CARTESIAN_POINT('',(0.086,-1.05689844129701E-17,-0.1142));
#1676=CARTESIAN_POINT('',(0.086,-1.05689844129701E-17,-0.1142));
#1677=CARTESIAN_POINT('',(0.0835,-1.05689844129701E-17,-0.1142));
#1678=CARTESIAN_POINT('',(0.,0.,-0.1142));
#1679=CARTESIAN_POINT('',(0.066,-3.80466527644508E-18,-0.1142));
#1680=CARTESIAN_POINT('',(0.066,-3.80466527644508E-18,-0.1142));
#1681=CARTESIAN_POINT('',(0.0635,-3.80466527644508E-18,-0.1142));
#1682=CARTESIAN_POINT('',(0.,0.,-0.1142));
#1683=CARTESIAN_POINT('',(0.0964136225036374,0.0249951842824321,1.203248606359));
#1684=CARTESIAN_POINT('',(0.096,0.025,1.20324860636207));
#1685=CARTESIAN_POINT('',(0.070798026230356,0.025,1.20324860636207));
#1686=CARTESIAN_POINT('',(0.045596052460712,0.025,1.20324860636207));
#1687=CARTESIAN_POINT('',(0.045596052460712,0.0789746794865291,1.20324860636207));
#1688=CARTESIAN_POINT('',(-0.00114739113574509,0.0519873397432646,1.20324860636207));
#1689=CARTESIAN_POINT('',(-0.0137483780205671,0.0738128892532853,1.20324860636207));
#1690=CARTESIAN_POINT('',(-0.0263493649053891,0.0956384387633061,1.20324860636207));
#1691=CARTESIAN_POINT('',(0.0059571180833584,0.105062998141543,1.20324860636144));
#1692=CARTESIAN_POINT('',(0.0880086663466871,-0.0576905146641756,1.20324860636244));
#1693=CARTESIAN_POINT('',(0.096,-0.025,1.20324860636207));
#1694=CARTESIAN_POINT('',(-0.0265603466909591,-0.0959942385002493,1.203248606359));
#1695=CARTESIAN_POINT('',(-0.026349364905389,-0.0956384387633061,1.20324860636207));
#1696=CARTESIAN_POINT('',(-0.013748378020567,-0.0738128892532853,1.20324860636207));
#1697=CARTESIAN_POINT('',(-0.00114739113574501,-0.0519873397432645,1.20324860636207));
#1698=CARTESIAN_POINT('',(0.045596052460712,-0.0789746794865291,1.20324860636207));
#1699=CARTESIAN_POINT('',(0.045596052460712,-0.025,1.20324860636207));
#1700=CARTESIAN_POINT('',(0.070798026230356,-0.025,1.20324860636207));
#1701=CARTESIAN_POINT('',(-0.093965784429813,-0.0473724834774392,1.20324860636144));
#1702=CARTESIAN_POINT('',(-0.069650635094611,-0.0706384387633061,1.20324860636207));
#1703=CARTESIAN_POINT('',(-0.0698532758126785,0.0709990542178172,1.203248606359));
#1704=CARTESIAN_POINT('',(-0.069650635094611,0.0706384387633061,1.20324860636207));
#1705=CARTESIAN_POINT('',(-0.057049648209789,0.0488128892532853,1.20324860636207));
#1706=CARTESIAN_POINT('',(-0.0444486613249669,0.0269873397432646,1.20324860636207));
#1707=CARTESIAN_POINT('',(-0.091192104921424,4.68375338513738E-17,1.20324860636207));
#1708=CARTESIAN_POINT('',(-0.0444486613249669,-0.0269873397432646,1.20324860636207));
#1709=CARTESIAN_POINT('',(-0.057049648209789,-0.0488128892532854,1.20324860636207));
#1710=CARTESIAN_POINT('',(0.076,1.10983616172729E-18,-0.11335));
#1711=CARTESIAN_POINT('',(0.076,1.10983616172729E-18,-0.11335));
#1712=CARTESIAN_POINT('',(0.079225,1.10983616172729E-18,-0.11335));
#1713=CARTESIAN_POINT('',(0.0148951787057704,2.88049626688269E-5,-0.11335));
#1714=MECHANICAL_DESIGN_GEOMETRIC_PRESENTATION_REPRESENTATION('',(#985),
#1715);
#1715=(
GEOMETRIC_REPRESENTATION_CONTEXT(3)
GLOBAL_UNCERTAINTY_ASSIGNED_CONTEXT((#1716))
GLOBAL_UNIT_ASSIGNED_CONTEXT((#1719,#1718,#1717))
REPRESENTATION_CONTEXT('RH-100','TOP_LEVEL_ASSEMBLY_PART')
);
#1716=UNCERTAINTY_MEASURE_WITH_UNIT(LENGTH_MEASURE(1.8080603838925E-6),
#1719,'DISTANCE_ACCURACY_VALUE','Maximum Tolerance applied to model');
#1717=(
NAMED_UNIT(*)
SI_UNIT($,.STERADIAN.)
SOLID_ANGLE_UNIT()
);
#1718=(
NAMED_UNIT(*)
PLANE_ANGLE_UNIT()
SI_UNIT($,.RADIAN.)
);
#1719=(
LENGTH_UNIT()
NAMED_UNIT(*)
SI_UNIT($,.METRE.)
);
#1720=PRODUCT_DEFINITION_SHAPE('','',#1721);
#1721=PRODUCT_DEFINITION('','',#1723,#1722);
#1722=PRODUCT_DEFINITION_CONTEXT('',#1729,'design');
#1723=PRODUCT_DEFINITION_FORMATION_WITH_SPECIFIED_SOURCE('','',#1725,
 .NOT_KNOWN.);
#1724=PRODUCT_RELATED_PRODUCT_CATEGORY('','',(#1725));
#1725=PRODUCT('RH-100','RH-100','RH-100',(#1727));
#1726=PRODUCT_CATEGORY('','');
#1727=PRODUCT_CONTEXT('',#1729,'mechanical');
#1728=APPLICATION_PROTOCOL_DEFINITION('international standard',
'ap242_managed_model_based_3d_engineering',2020,#1729);
#1729=APPLICATION_CONTEXT('managed model based 3d engineering');
ENDSEC;
END-ISO-10303-21;
