ISO-10303-21;
HEADER;
/* Generated by software containing ST-Developer
 * from STEP Tools, Inc. (www.steptools.com) 
 */
/* OPTION: using custom renumber hook */

FILE_DESCRIPTION(
/* description */ ('STEP AP242 Edition 2',
'CAx-IF Rec.Pracs.---Representation and Presentation of Product Manufa
cturing Information (PMI)---4.0---2014-10-13',
'CAx-IF Rec.Pracs.---3D Tessellated Geometry---0.4---2014-09-14','2;1',
'CAx-IF Rec.Pracs.---User Defined Attributes---1.5---2016-08-15'),
/* implementation_level */ '2;1');

FILE_NAME(
/* name */ 'Fan Parts Studio - SP-100',
/* time_stamp */ '2026-08-02T16:14:59Z',
/* author */ (''),
/* organization */ (''),
/* preprocessor_version */ 'ST-DEVELOPER v20',
/* originating_system */ 'ONSHAPE BY PTC INC, 1.218',
/* authorisation */ '  ');

FILE_SCHEMA (('AP242_MANAGED_MODEL_BASED_3D_ENGINEERING_MIM_LF { 1 0 10303 442 3 1 4 }'));
ENDSEC;

DATA;
#10=SHAPE_REPRESENTATION_RELATIONSHIP('','',#186,#11);
#11=ADVANCED_BREP_SHAPE_REPRESENTATION('',(#184),#329);
#12=CONICAL_SURFACE('',#208,0.006,0.785398163397449);
#13=B_SPLINE_CURVE_WITH_KNOTS('',3,(#294,#295,#296,#297,#298,#299,#300,
#301,#302,#303,#304),.UNSPECIFIED.,.T.,.F.,(1,1,1,1,1,1,1,1,1,1,1,1,1,1,
1),(-0.00376835787113444,-0.00251223858075629,-0.00125611929037815,1.27180232065984E-18,
0.00125611929037815,0.0025122385807563,0.00376835787113444,0.00502447716151259,
0.00628059645189074,0.00753671574226888,0.00879283503264703,0.0100489543230252,
0.0113050736134033,0.0125611929037815,0.0138173121941596),.UNSPECIFIED.);
#14=B_SPLINE_CURVE_WITH_KNOTS('',3,(#306,#307,#308,#309,#310,#311,#312,
#313,#314,#315,#316),.UNSPECIFIED.,.T.,.F.,(1,1,1,1,1,1,1,1,1,1,1,1,1,1,
1),(-0.00376835787113444,-0.00251223858075629,-0.00125611929037815,1.19957985411046E-18,
0.00125611929037815,0.0025122385807563,0.00376835787113444,0.00502447716151259,
0.00628059645189074,0.00753671574226889,0.00879283503264704,0.0100489543230252,
0.0113050736134033,0.0125611929037815,0.0138173121941596),.UNSPECIFIED.);
#15=PLANE('',#194);
#16=PLANE('',#195);
#17=PLANE('',#197);
#18=PLANE('',#202);
#19=PLANE('',#205);
#20=PLANE('',#206);
#21=LINE('',#266,#29);
#22=LINE('',#270,#30);
#23=LINE('',#272,#31);
#24=LINE('',#277,#32);
#25=LINE('',#281,#33);
#26=LINE('',#282,#34);
#27=LINE('',#286,#35);
#28=LINE('',#287,#36);
#29=VECTOR('',#215,1.);
#30=VECTOR('',#218,1.);
#31=VECTOR('',#221,1.);
#32=VECTOR('',#224,1.);
#33=VECTOR('',#229,1.);
#34=VECTOR('',#230,1.);
#35=VECTOR('',#235,1.);
#36=VECTOR('',#236,1.);
#37=ORIENTED_EDGE('',*,*,#75,.T.);
#38=ORIENTED_EDGE('',*,*,#76,.T.);
#39=ORIENTED_EDGE('',*,*,#77,.F.);
#40=ORIENTED_EDGE('',*,*,#78,.F.);
#41=ORIENTED_EDGE('',*,*,#79,.F.);
#42=ORIENTED_EDGE('',*,*,#80,.T.);
#43=ORIENTED_EDGE('',*,*,#81,.T.);
#44=ORIENTED_EDGE('',*,*,#82,.F.);
#45=ORIENTED_EDGE('',*,*,#77,.T.);
#46=ORIENTED_EDGE('',*,*,#83,.T.);
#47=ORIENTED_EDGE('',*,*,#82,.T.);
#48=ORIENTED_EDGE('',*,*,#84,.F.);
#49=ORIENTED_EDGE('',*,*,#85,.T.);
#50=ORIENTED_EDGE('',*,*,#80,.F.);
#51=ORIENTED_EDGE('',*,*,#86,.T.);
#52=ORIENTED_EDGE('',*,*,#75,.F.);
#53=ORIENTED_EDGE('',*,*,#87,.F.);
#54=ORIENTED_EDGE('',*,*,#88,.T.);
#55=ORIENTED_EDGE('',*,*,#89,.T.);
#56=ORIENTED_EDGE('',*,*,#90,.F.);
#57=ORIENTED_EDGE('',*,*,#91,.F.);
#58=ORIENTED_EDGE('',*,*,#92,.F.);
#59=ORIENTED_EDGE('',*,*,#92,.T.);
#60=ORIENTED_EDGE('',*,*,#93,.F.);
#61=ORIENTED_EDGE('',*,*,#93,.T.);
#62=ORIENTED_EDGE('',*,*,#85,.F.);
#63=ORIENTED_EDGE('',*,*,#87,.T.);
#64=ORIENTED_EDGE('',*,*,#78,.T.);
#65=ORIENTED_EDGE('',*,*,#84,.T.);
#66=ORIENTED_EDGE('',*,*,#81,.F.);
#67=ORIENTED_EDGE('',*,*,#79,.T.);
#68=ORIENTED_EDGE('',*,*,#83,.F.);
#69=ORIENTED_EDGE('',*,*,#76,.F.);
#70=ORIENTED_EDGE('',*,*,#86,.F.);
#71=ORIENTED_EDGE('',*,*,#90,.T.);
#72=ORIENTED_EDGE('',*,*,#91,.T.);
#73=ORIENTED_EDGE('',*,*,#88,.F.);
#74=ORIENTED_EDGE('',*,*,#89,.F.);
#75=EDGE_CURVE('',#94,#95,#109,.T.);
#76=EDGE_CURVE('',#95,#96,#21,.T.);
#77=EDGE_CURVE('',#97,#96,#110,.T.);
#78=EDGE_CURVE('',#94,#97,#22,.T.);
#79=EDGE_CURVE('',#98,#99,#23,.T.);
#80=EDGE_CURVE('',#98,#100,#111,.T.);
#81=EDGE_CURVE('',#100,#101,#24,.T.);
#82=EDGE_CURVE('',#99,#101,#112,.T.);
#83=EDGE_CURVE('',#96,#99,#25,.T.);
#84=EDGE_CURVE('',#97,#101,#26,.T.);
#85=EDGE_CURVE('',#102,#102,#113,.T.);
#86=EDGE_CURVE('',#98,#95,#27,.T.);
#87=EDGE_CURVE('',#100,#94,#28,.T.);
#88=EDGE_CURVE('',#103,#103,#114,.T.);
#89=EDGE_CURVE('',#104,#104,#115,.F.);
#90=EDGE_CURVE('',#105,#105,#13,.T.);
#91=EDGE_CURVE('',#106,#106,#14,.T.);
#92=EDGE_CURVE('',#107,#107,#116,.T.);
#93=EDGE_CURVE('',#108,#108,#117,.T.);
#94=VERTEX_POINT('',#264);
#95=VERTEX_POINT('',#265);
#96=VERTEX_POINT('',#267);
#97=VERTEX_POINT('',#269);
#98=VERTEX_POINT('',#273);
#99=VERTEX_POINT('',#274);
#100=VERTEX_POINT('',#276);
#101=VERTEX_POINT('',#278);
#102=VERTEX_POINT('',#285);
#103=VERTEX_POINT('',#290);
#104=VERTEX_POINT('',#293);
#105=VERTEX_POINT('',#305);
#106=VERTEX_POINT('',#317);
#107=VERTEX_POINT('',#319);
#108=VERTEX_POINT('',#322);
#109=CIRCLE('',#189,0.017);
#110=CIRCLE('',#190,0.017);
#111=CIRCLE('',#192,0.017);
#112=CIRCLE('',#193,0.017);
#113=CIRCLE('',#196,0.008);
#114=CIRCLE('',#198,0.005);
#115=CIRCLE('',#200,0.006);
#116=CIRCLE('',#201,0.006);
#117=CIRCLE('',#203,0.008);
#118=EDGE_LOOP('',(#37,#38,#39,#40));
#119=EDGE_LOOP('',(#41,#42,#43,#44));
#120=EDGE_LOOP('',(#45,#46,#47,#48));
#121=EDGE_LOOP('',(#49));
#122=EDGE_LOOP('',(#50,#51,#52,#53));
#123=EDGE_LOOP('',(#54));
#124=EDGE_LOOP('',(#55));
#125=EDGE_LOOP('',(#56));
#126=EDGE_LOOP('',(#57));
#127=EDGE_LOOP('',(#58));
#128=EDGE_LOOP('',(#59));
#129=EDGE_LOOP('',(#60));
#130=EDGE_LOOP('',(#61));
#131=EDGE_LOOP('',(#62));
#132=EDGE_LOOP('',(#63,#64,#65,#66));
#133=EDGE_LOOP('',(#67,#68,#69,#70));
#134=EDGE_LOOP('',(#71));
#135=EDGE_LOOP('',(#72));
#136=EDGE_LOOP('',(#73));
#137=EDGE_LOOP('',(#74));
#138=FACE_BOUND('',#118,.T.);
#139=FACE_BOUND('',#119,.T.);
#140=FACE_BOUND('',#120,.T.);
#141=FACE_BOUND('',#121,.T.);
#142=FACE_BOUND('',#122,.T.);
#143=FACE_BOUND('',#123,.T.);
#144=FACE_BOUND('',#124,.T.);
#145=FACE_BOUND('',#125,.T.);
#146=FACE_BOUND('',#126,.T.);
#147=FACE_BOUND('',#127,.T.);
#148=FACE_BOUND('',#128,.T.);
#149=FACE_BOUND('',#129,.T.);
#150=FACE_BOUND('',#130,.T.);
#151=FACE_BOUND('',#131,.T.);
#152=FACE_BOUND('',#132,.T.);
#153=FACE_BOUND('',#133,.T.);
#154=FACE_BOUND('',#134,.T.);
#155=FACE_BOUND('',#135,.T.);
#156=FACE_BOUND('',#136,.T.);
#157=FACE_BOUND('',#137,.T.);
#158=CYLINDRICAL_SURFACE('',#188,0.017);
#159=CYLINDRICAL_SURFACE('',#191,0.017);
#160=CYLINDRICAL_SURFACE('',#199,0.006);
#161=CYLINDRICAL_SURFACE('',#204,0.008);
#162=CYLINDRICAL_SURFACE('',#207,0.0016);
#163=ADVANCED_FACE('',(#138),#158,.T.);
#164=ADVANCED_FACE('',(#139),#159,.T.);
#165=ADVANCED_FACE('',(#140),#15,.T.);
#166=ADVANCED_FACE('',(#141,#142),#16,.T.);
#167=ADVANCED_FACE('',(#143),#17,.T.);
#168=ADVANCED_FACE('',(#144,#145,#146,#147),#160,.T.);
#169=ADVANCED_FACE('',(#148,#149),#18,.T.);
#170=ADVANCED_FACE('',(#150,#151),#161,.T.);
#171=ADVANCED_FACE('',(#152),#19,.F.);
#172=ADVANCED_FACE('',(#153),#20,.T.);
#173=ADVANCED_FACE('',(#154,#155),#162,.F.);
#174=ADVANCED_FACE('',(#156,#157),#12,.T.);
#175=CLOSED_SHELL('',(#163,#164,#165,#166,#167,#168,#169,#170,#171,#172,
#173,#174));
#176=STYLED_ITEM('',(#177),#184);
#177=PRESENTATION_STYLE_ASSIGNMENT((#178));
#178=SURFACE_STYLE_USAGE(.BOTH.,#179);
#179=SURFACE_SIDE_STYLE('',(#180));
#180=SURFACE_STYLE_FILL_AREA(#181);
#181=FILL_AREA_STYLE('',(#182));
#182=FILL_AREA_STYLE_COLOUR('',#183);
#183=COLOUR_RGB('',0.980392156862745,0.713725490196078,0.00392156862745098);
#184=MANIFOLD_SOLID_BREP('SP-100',#175);
#185=SHAPE_DEFINITION_REPRESENTATION(#334,#186);
#186=SHAPE_REPRESENTATION('SP-100',(#187),#329);
#187=AXIS2_PLACEMENT_3D('',#261,#209,#210);
#188=AXIS2_PLACEMENT_3D('',#262,#211,#212);
#189=AXIS2_PLACEMENT_3D('',#263,#213,#214);
#190=AXIS2_PLACEMENT_3D('',#268,#216,#217);
#191=AXIS2_PLACEMENT_3D('',#271,#219,#220);
#192=AXIS2_PLACEMENT_3D('',#275,#222,#223);
#193=AXIS2_PLACEMENT_3D('',#279,#225,#226);
#194=AXIS2_PLACEMENT_3D('',#280,#227,#228);
#195=AXIS2_PLACEMENT_3D('',#283,#231,#232);
#196=AXIS2_PLACEMENT_3D('',#284,#233,#234);
#197=AXIS2_PLACEMENT_3D('',#288,#237,#238);
#198=AXIS2_PLACEMENT_3D('',#289,#239,#240);
#199=AXIS2_PLACEMENT_3D('',#291,#241,#242);
#200=AXIS2_PLACEMENT_3D('',#292,#243,#244);
#201=AXIS2_PLACEMENT_3D('',#318,#245,#246);
#202=AXIS2_PLACEMENT_3D('',#320,#247,#248);
#203=AXIS2_PLACEMENT_3D('',#321,#249,#250);
#204=AXIS2_PLACEMENT_3D('',#323,#251,#252);
#205=AXIS2_PLACEMENT_3D('',#324,#253,#254);
#206=AXIS2_PLACEMENT_3D('',#325,#255,#256);
#207=AXIS2_PLACEMENT_3D('',#326,#257,#258);
#208=AXIS2_PLACEMENT_3D('',#327,#259,#260);
#209=DIRECTION('',(0.,0.,1.));
#210=DIRECTION('',(1.,0.,0.));
#211=DIRECTION('',(0.,0.,1.));
#212=DIRECTION('',(1.,0.,0.));
#213=DIRECTION('',(0.,0.,1.));
#214=DIRECTION('',(1.,0.,0.));
#215=DIRECTION('',(0.,0.,1.));
#216=DIRECTION('',(0.,0.,1.));
#217=DIRECTION('',(1.,0.,0.));
#218=DIRECTION('',(0.,0.,1.));
#219=DIRECTION('',(0.,0.,1.));
#220=DIRECTION('',(1.,0.,0.));
#221=DIRECTION('',(0.,0.,1.));
#222=DIRECTION('',(0.,0.,1.));
#223=DIRECTION('',(1.,0.,0.));
#224=DIRECTION('',(0.,0.,1.));
#225=DIRECTION('',(0.,0.,1.));
#226=DIRECTION('',(1.,0.,0.));
#227=DIRECTION('',(0.,0.,1.));
#228=DIRECTION('',(1.,0.,0.));
#229=DIRECTION('',(-1.,-2.16840434497101E-16,0.));
#230=DIRECTION('',(-1.,-1.0842021724855E-16,0.));
#231=DIRECTION('',(0.,0.,-1.));
#232=DIRECTION('',(-1.,0.,0.));
#233=DIRECTION('',(0.,0.,1.));
#234=DIRECTION('',(1.,0.,0.));
#235=DIRECTION('',(1.,2.16840434497101E-16,0.));
#236=DIRECTION('',(1.,1.0842021724855E-16,0.));
#237=DIRECTION('',(0.,0.,-1.));
#238=DIRECTION('',(-1.,0.,0.));
#239=DIRECTION('',(0.,0.,-1.));
#240=DIRECTION('',(-1.,0.,0.));
#241=DIRECTION('',(0.,0.,1.));
#242=DIRECTION('',(1.,0.,0.));
#243=DIRECTION('',(0.,0.,-1.));
#244=DIRECTION('',(-1.,0.,0.));
#245=DIRECTION('',(0.,0.,1.));
#246=DIRECTION('',(1.,0.,0.));
#247=DIRECTION('',(0.,0.,-1.));
#248=DIRECTION('',(-1.,0.,0.));
#249=DIRECTION('',(0.,0.,1.));
#250=DIRECTION('',(1.,0.,0.));
#251=DIRECTION('',(0.,0.,1.));
#252=DIRECTION('',(1.,0.,0.));
#253=DIRECTION('',(-1.0842021724855E-16,1.,0.));
#254=DIRECTION('',(-1.,-1.0842021724855E-16,0.));
#255=DIRECTION('',(-2.16840434497101E-16,1.,0.));
#256=DIRECTION('',(-1.,-2.16840434497101E-16,0.));
#257=DIRECTION('',(0.,-1.,0.));
#258=DIRECTION('',(0.,0.,-1.));
#259=DIRECTION('',(0.,0.,1.));
#260=DIRECTION('',(1.,0.,0.));
#261=CARTESIAN_POINT('',(0.,0.,0.));
#262=CARTESIAN_POINT('',(0.,0.,-0.071));
#263=CARTESIAN_POINT('',(0.,0.,-0.003));
#264=CARTESIAN_POINT('',(0.008,-0.015,-0.003));
#265=CARTESIAN_POINT('',(0.008,0.015,-0.003));
#266=CARTESIAN_POINT('',(0.008,0.015,-0.329196877016688));
#267=CARTESIAN_POINT('',(0.008,0.015,0.));
#268=CARTESIAN_POINT('',(0.,0.,0.));
#269=CARTESIAN_POINT('',(0.008,-0.015,0.));
#270=CARTESIAN_POINT('',(0.008,-0.015,-0.329196877016688));
#271=CARTESIAN_POINT('',(0.,0.,-0.071));
#272=CARTESIAN_POINT('',(-0.008,0.015,-0.329196877016688));
#273=CARTESIAN_POINT('',(-0.008,0.015,-0.003));
#274=CARTESIAN_POINT('',(-0.008,0.015,0.));
#275=CARTESIAN_POINT('',(0.,0.,-0.003));
#276=CARTESIAN_POINT('',(-0.008,-0.015,-0.003));
#277=CARTESIAN_POINT('',(-0.008,-0.015,-0.329196877016688));
#278=CARTESIAN_POINT('',(-0.008,-0.015,0.));
#279=CARTESIAN_POINT('',(0.,0.,0.));
#280=CARTESIAN_POINT('',(0.0085,0.,0.));
#281=CARTESIAN_POINT('',(-1.7347234759768E-18,0.015,0.));
#282=CARTESIAN_POINT('',(1.7347234759768E-18,-0.015,0.));
#283=CARTESIAN_POINT('',(0.0125,0.,-0.003));
#284=CARTESIAN_POINT('',(0.,0.,-0.003));
#285=CARTESIAN_POINT('',(0.008,0.,-0.003));
#286=CARTESIAN_POINT('',(0.0125,0.015,-0.003));
#287=CARTESIAN_POINT('',(0.0125,-0.015,-0.003));
#288=CARTESIAN_POINT('',(0.003,0.,-0.142));
#289=CARTESIAN_POINT('',(0.,0.,-0.142));
#290=CARTESIAN_POINT('',(-0.005,0.,-0.142));
#291=CARTESIAN_POINT('',(0.,0.,-0.071));
#292=CARTESIAN_POINT('',(0.,0.,-0.141));
#293=CARTESIAN_POINT('',(-0.006,0.,-0.141));
#294=CARTESIAN_POINT('',(0.0012549189584168,0.00589314263119654,-0.137832718811065));
#295=CARTESIAN_POINT('',(-2.00314998140234E-7,0.00605339677703475,-0.138353619983939));
#296=CARTESIAN_POINT('',(-0.00125411769842415,0.00589327026066444,-0.137832801253179));
#297=CARTESIAN_POINT('',(-0.00177304681018682,0.00572744318748882,-0.136581906954882));
#298=CARTESIAN_POINT('',(-0.00125369306853642,0.00589335504814144,-0.135325755747724));
#299=CARTESIAN_POINT('',(-8.27633567946733E-7,0.00605326333436929,-0.134807266599529));
#300=CARTESIAN_POINT('',(0.00125291235609856,0.00589359138190501,-0.135325178725948));
#301=CARTESIAN_POINT('',(0.00177304192348543,0.00572741594219165,-0.13657943481257));
#302=CARTESIAN_POINT('',(0.0012549189584168,0.00589314263119654,-0.137832718811065));
#303=CARTESIAN_POINT('',(-2.00314998140234E-7,0.00605339677703475,-0.138353619983939));
#304=CARTESIAN_POINT('',(-0.00125411769842415,0.00589327026066444,-0.137832801253179));
#305=CARTESIAN_POINT('',(1.69220750654493E-17,0.006,-0.13818));
#306=CARTESIAN_POINT('',(-0.00125491895841677,-0.00589314263119655,-0.137832718811065));
#307=CARTESIAN_POINT('',(2.0031499817192E-7,-0.00605339677703476,-0.138353619983939));
#308=CARTESIAN_POINT('',(0.00125411769842418,-0.00589327026066444,-0.137832801253179));
#309=CARTESIAN_POINT('',(0.00177304681018685,-0.00572744318748881,-0.136581906954882));
#310=CARTESIAN_POINT('',(0.00125369306853645,-0.00589335504814143,-0.135325755747724));
#311=CARTESIAN_POINT('',(8.2763356797755E-7,-0.00605326333436929,-0.134807266599529));
#312=CARTESIAN_POINT('',(-0.00125291235609853,-0.00589359138190502,-0.135325178725948));
#313=CARTESIAN_POINT('',(-0.0017730419234854,-0.00572741594219165,-0.13657943481257));
#314=CARTESIAN_POINT('',(-0.00125491895841677,-0.00589314263119655,-0.137832718811065));
#315=CARTESIAN_POINT('',(2.0031499817192E-7,-0.00605339677703476,-0.138353619983939));
#316=CARTESIAN_POINT('',(0.00125411769842418,-0.00589327026066444,-0.137832801253179));
#317=CARTESIAN_POINT('',(1.43773143474193E-17,-0.006,-0.13818));
#318=CARTESIAN_POINT('',(0.,0.,-0.1207));
#319=CARTESIAN_POINT('',(0.006,0.,-0.1207));
#320=CARTESIAN_POINT('',(0.007,0.,-0.1207));
#321=CARTESIAN_POINT('',(0.,0.,-0.1207));
#322=CARTESIAN_POINT('',(0.008,0.,-0.1207));
#323=CARTESIAN_POINT('',(0.,0.,-0.071));
#324=CARTESIAN_POINT('',(1.7347234759768E-18,-0.015,-0.329196877016688));
#325=CARTESIAN_POINT('',(-1.7347234759768E-18,0.015,-0.329196877016688));
#326=CARTESIAN_POINT('',(1.56125112837912E-17,0.329196877016688,-0.13658));
#327=CARTESIAN_POINT('',(0.,0.,-0.141));
#328=MECHANICAL_DESIGN_GEOMETRIC_PRESENTATION_REPRESENTATION('',(#176),
#329);
#329=(
GEOMETRIC_REPRESENTATION_CONTEXT(3)
GLOBAL_UNCERTAINTY_ASSIGNED_CONTEXT((#330))
GLOBAL_UNIT_ASSIGNED_CONTEXT((#333,#332,#331))
REPRESENTATION_CONTEXT('SP-100','TOP_LEVEL_ASSEMBLY_PART')
);
#330=UNCERTAINTY_MEASURE_WITH_UNIT(LENGTH_MEASURE(2.E-5),#333,
'DISTANCE_ACCURACY_VALUE','Maximum Tolerance applied to model');
#331=(
NAMED_UNIT(*)
SI_UNIT($,.STERADIAN.)
SOLID_ANGLE_UNIT()
);
#332=(
NAMED_UNIT(*)
PLANE_ANGLE_UNIT()
SI_UNIT($,.RADIAN.)
);
#333=(
LENGTH_UNIT()
NAMED_UNIT(*)
SI_UNIT($,.METRE.)
);
#334=PRODUCT_DEFINITION_SHAPE('','',#335);
#335=PRODUCT_DEFINITION('','',#337,#336);
#336=PRODUCT_DEFINITION_CONTEXT('',#343,'design');
#337=PRODUCT_DEFINITION_FORMATION_WITH_SPECIFIED_SOURCE('','',#339,
 .NOT_KNOWN.);
#338=PRODUCT_RELATED_PRODUCT_CATEGORY('','',(#339));
#339=PRODUCT('SP-100','SP-100','SP-100',(#341));
#340=PRODUCT_CATEGORY('','');
#341=PRODUCT_CONTEXT('',#343,'mechanical');
#342=APPLICATION_PROTOCOL_DEFINITION('international standard',
'ap242_managed_model_based_3d_engineering',2020,#343);
#343=APPLICATION_CONTEXT('managed model based 3d engineering');
ENDSEC;
END-ISO-10303-21;
