ISO-10303-21;
HEADER;
/* Generated by software containing ST-Developer
 * from STEP Tools, Inc. (www.steptools.com) 
 */
/* OPTION: using custom renumber hook */

FILE_DESCRIPTION(
/* description */ ('STEP AP242 Edition 2',
'CAx-IF Rec.Pracs.---Representation and Presentation of Product Manufa
cturing Information (PMI)---4.0---2014-10-13',
'CAx-IF Rec.Pracs.---3D Tessellated Geometry---0.4---2014-09-14','2;1',
'CAx-IF Rec.Pracs.---User Defined Attributes---1.5---2016-08-15'),
/* implementation_level */ '2;1');

FILE_NAME(
/* name */ 'Fan Parts Studio - ST-100',
/* time_stamp */ '2026-07-29T00:33:31Z',
/* author */ (''),
/* organization */ (''),
/* preprocessor_version */ 'ST-DEVELOPER v20',
/* originating_system */ 'ONSHAPE BY PTC INC, 1.218',
/* authorisation */ '  ');

FILE_SCHEMA (('AP242_MANAGED_MODEL_BASED_3D_ENGINEERING_MIM_LF { 1 0 10303 442 3 1 4 }'));
ENDSEC;

DATA;
#10=SHAPE_REPRESENTATION_RELATIONSHIP('','',#119,#11);
#11=ADVANCED_BREP_SHAPE_REPRESENTATION('',(#117),#203);
#12=PLANE('',#130);
#13=PLANE('',#131);
#14=CYLINDRICAL_SURFACE('',#123,0.0025);
#15=CYLINDRICAL_SURFACE('',#127,0.008);
#16=CYLINDRICAL_SURFACE('',#135,0.0025);
#17=ORIENTED_EDGE('',*,*,#33,.T.);
#18=ORIENTED_EDGE('',*,*,#33,.F.);
#19=ORIENTED_EDGE('',*,*,#34,.T.);
#20=ORIENTED_EDGE('',*,*,#34,.F.);
#21=ORIENTED_EDGE('',*,*,#35,.T.);
#22=ORIENTED_EDGE('',*,*,#36,.F.);
#23=ORIENTED_EDGE('',*,*,#37,.T.);
#24=ORIENTED_EDGE('',*,*,#35,.F.);
#25=ORIENTED_EDGE('',*,*,#36,.T.);
#26=ORIENTED_EDGE('',*,*,#38,.T.);
#27=ORIENTED_EDGE('',*,*,#37,.F.);
#28=ORIENTED_EDGE('',*,*,#39,.F.);
#29=ORIENTED_EDGE('',*,*,#39,.T.);
#30=ORIENTED_EDGE('',*,*,#40,.F.);
#31=ORIENTED_EDGE('',*,*,#40,.T.);
#32=ORIENTED_EDGE('',*,*,#38,.F.);
#33=EDGE_CURVE('',#66,#66,#41,.T.);
#34=EDGE_CURVE('',#67,#67,#42,.T.);
#35=EDGE_CURVE('',#68,#68,#43,.T.);
#36=EDGE_CURVE('',#69,#69,#44,.T.);
#37=EDGE_CURVE('',#70,#70,#45,.T.);
#38=EDGE_CURVE('',#71,#71,#46,.T.);
#39=EDGE_CURVE('',#73,#73,#47,.T.);
#40=EDGE_CURVE('',#74,#74,#48,.T.);
#41=CIRCLE('',#122,0.0025);
#42=CIRCLE('',#124,0.0025);
#43=CIRCLE('',#126,0.0035);
#44=CIRCLE('',#128,0.008);
#45=CIRCLE('',#129,0.008);
#46=CIRCLE('',#132,0.0035);
#47=CIRCLE('',#134,0.0025);
#48=CIRCLE('',#136,0.0025);
#49=EDGE_LOOP('',(#17));
#50=EDGE_LOOP('',(#18));
#51=EDGE_LOOP('',(#19));
#52=EDGE_LOOP('',(#20));
#53=EDGE_LOOP('',(#21));
#54=EDGE_LOOP('',(#22));
#55=EDGE_LOOP('',(#23));
#56=EDGE_LOOP('',(#24));
#57=EDGE_LOOP('',(#25));
#58=EDGE_LOOP('',(#26));
#59=EDGE_LOOP('',(#27));
#60=EDGE_LOOP('',(#28));
#61=EDGE_LOOP('',(#29));
#62=EDGE_LOOP('',(#30));
#63=EDGE_LOOP('',(#31));
#64=EDGE_LOOP('',(#32));
#65=VERTEX_POINT('',#176);
#66=VERTEX_POINT('',#178);
#67=VERTEX_POINT('',#181);
#68=VERTEX_POINT('',#184);
#69=VERTEX_POINT('',#187);
#70=VERTEX_POINT('',#189);
#71=VERTEX_POINT('',#193);
#72=VERTEX_POINT('',#195);
#73=VERTEX_POINT('',#197);
#74=VERTEX_POINT('',#200);
#75=VERTEX_LOOP('',#65);
#76=VERTEX_LOOP('',#72);
#77=FACE_BOUND('',#75,.T.);
#78=FACE_BOUND('',#49,.T.);
#79=FACE_BOUND('',#50,.T.);
#80=FACE_BOUND('',#51,.T.);
#81=FACE_BOUND('',#52,.T.);
#82=FACE_BOUND('',#53,.T.);
#83=FACE_BOUND('',#54,.T.);
#84=FACE_BOUND('',#55,.T.);
#85=FACE_BOUND('',#56,.T.);
#86=FACE_BOUND('',#57,.T.);
#87=FACE_BOUND('',#58,.T.);
#88=FACE_BOUND('',#59,.T.);
#89=FACE_BOUND('',#76,.T.);
#90=FACE_BOUND('',#60,.T.);
#91=FACE_BOUND('',#61,.T.);
#92=FACE_BOUND('',#62,.T.);
#93=FACE_BOUND('',#63,.T.);
#94=FACE_BOUND('',#64,.T.);
#95=CONICAL_SURFACE('',#121,0.0025,1.02974425867665);
#96=CONICAL_SURFACE('',#125,0.0035,0.785398163397448);
#97=CONICAL_SURFACE('',#133,0.0025,1.02974425867665);
#98=CONICAL_SURFACE('',#137,0.0035,0.785398163397448);
#99=ADVANCED_FACE('',(#77,#78),#95,.F.);
#100=ADVANCED_FACE('',(#79,#80),#14,.F.);
#101=ADVANCED_FACE('',(#81,#82),#96,.F.);
#102=ADVANCED_FACE('',(#83,#84),#15,.T.);
#103=ADVANCED_FACE('',(#85,#86),#12,.T.);
#104=ADVANCED_FACE('',(#87,#88),#13,.F.);
#105=ADVANCED_FACE('',(#89,#90),#97,.F.);
#106=ADVANCED_FACE('',(#91,#92),#16,.F.);
#107=ADVANCED_FACE('',(#93,#94),#98,.F.);
#108=CLOSED_SHELL('',(#99,#100,#101,#102,#103,#104,#105,#106,#107));
#109=STYLED_ITEM('',(#110),#117);
#110=PRESENTATION_STYLE_ASSIGNMENT((#111));
#111=SURFACE_STYLE_USAGE(.BOTH.,#112);
#112=SURFACE_SIDE_STYLE('',(#113));
#113=SURFACE_STYLE_FILL_AREA(#114);
#114=FILL_AREA_STYLE('',(#115));
#115=FILL_AREA_STYLE_COLOUR('',#116);
#116=COLOUR_RGB('',0.615686274509804,0.811764705882353,0.929411764705882);
#117=MANIFOLD_SOLID_BREP('ST-100',#108);
#118=SHAPE_DEFINITION_REPRESENTATION(#208,#119);
#119=SHAPE_REPRESENTATION('ST-100',(#120),#203);
#120=AXIS2_PLACEMENT_3D('',#174,#138,#139);
#121=AXIS2_PLACEMENT_3D('',#175,#140,#141);
#122=AXIS2_PLACEMENT_3D('',#177,#142,#143);
#123=AXIS2_PLACEMENT_3D('',#179,#144,#145);
#124=AXIS2_PLACEMENT_3D('',#180,#146,#147);
#125=AXIS2_PLACEMENT_3D('',#182,#148,#149);
#126=AXIS2_PLACEMENT_3D('',#183,#150,#151);
#127=AXIS2_PLACEMENT_3D('',#185,#152,#153);
#128=AXIS2_PLACEMENT_3D('',#186,#154,#155);
#129=AXIS2_PLACEMENT_3D('',#188,#156,#157);
#130=AXIS2_PLACEMENT_3D('',#190,#158,#159);
#131=AXIS2_PLACEMENT_3D('',#191,#160,#161);
#132=AXIS2_PLACEMENT_3D('',#192,#162,#163);
#133=AXIS2_PLACEMENT_3D('',#194,#164,#165);
#134=AXIS2_PLACEMENT_3D('',#196,#166,#167);
#135=AXIS2_PLACEMENT_3D('',#198,#168,#169);
#136=AXIS2_PLACEMENT_3D('',#199,#170,#171);
#137=AXIS2_PLACEMENT_3D('',#201,#172,#173);
#138=DIRECTION('',(0.,0.,1.));
#139=DIRECTION('',(1.,0.,0.));
#140=DIRECTION('',(0.,0.,-1.));
#141=DIRECTION('',(1.,0.,0.));
#142=DIRECTION('',(0.,0.,-1.));
#143=DIRECTION('',(-1.,0.,0.));
#144=DIRECTION('',(0.,0.,1.));
#145=DIRECTION('',(-1.,0.,0.));
#146=DIRECTION('',(0.,0.,-1.));
#147=DIRECTION('',(-1.,0.,0.));
#148=DIRECTION('',(0.,0.,-1.));
#149=DIRECTION('',(1.,0.,0.));
#150=DIRECTION('',(0.,0.,-1.));
#151=DIRECTION('',(-1.,0.,0.));
#152=DIRECTION('',(0.,0.,1.));
#153=DIRECTION('',(1.,0.,0.));
#154=DIRECTION('',(0.,0.,-1.));
#155=DIRECTION('',(-1.,0.,0.));
#156=DIRECTION('',(0.,0.,-1.));
#157=DIRECTION('',(-1.,0.,0.));
#158=DIRECTION('',(0.,0.,-1.));
#159=DIRECTION('',(1.,0.,0.));
#160=DIRECTION('',(0.,0.,-1.));
#161=DIRECTION('',(1.,0.,0.));
#162=DIRECTION('',(0.,0.,-1.));
#163=DIRECTION('',(-1.,0.,0.));
#164=DIRECTION('',(0.,0.,1.));
#165=DIRECTION('',(1.,0.,0.));
#166=DIRECTION('',(0.,0.,-1.));
#167=DIRECTION('',(-1.,0.,0.));
#168=DIRECTION('',(0.,0.,-1.));
#169=DIRECTION('',(-1.,0.,0.));
#170=DIRECTION('',(0.,0.,-1.));
#171=DIRECTION('',(-1.,0.,0.));
#172=DIRECTION('',(0.,0.,1.));
#173=DIRECTION('',(1.,0.,0.));
#174=CARTESIAN_POINT('',(0.,0.,0.));
#175=CARTESIAN_POINT('',(0.,-0.075,-0.0525));
#176=CARTESIAN_POINT('',(0.,-0.075,-0.0509978484524311));
#177=CARTESIAN_POINT('',(0.,-0.075,-0.0525));
#178=CARTESIAN_POINT('',(-0.0025,-0.075,-0.0525));
#179=CARTESIAN_POINT('',(0.,-0.075,-0.068));
#180=CARTESIAN_POINT('',(0.,-0.075,-0.067));
#181=CARTESIAN_POINT('',(-0.0025,-0.075,-0.067));
#182=CARTESIAN_POINT('',(0.,-0.075,-0.068));
#183=CARTESIAN_POINT('',(0.,-0.075,-0.068));
#184=CARTESIAN_POINT('',(-0.0035,-0.075,-0.068));
#185=CARTESIAN_POINT('',(0.,-0.075,-0.068));
#186=CARTESIAN_POINT('',(0.,-0.075,-0.068));
#187=CARTESIAN_POINT('',(-0.008,-0.075,-0.068));
#188=CARTESIAN_POINT('',(0.,-0.075,-0.006));
#189=CARTESIAN_POINT('',(-0.008,-0.075,-0.006));
#190=CARTESIAN_POINT('',(0.,0.,-0.068));
#191=CARTESIAN_POINT('',(0.,0.,-0.006));
#192=CARTESIAN_POINT('',(0.,-0.075,-0.006));
#193=CARTESIAN_POINT('',(-0.0035,-0.075,-0.006));
#194=CARTESIAN_POINT('',(0.,-0.075,-0.0215));
#195=CARTESIAN_POINT('',(0.,-0.075,-0.0230021515475689));
#196=CARTESIAN_POINT('',(0.,-0.075,-0.0215));
#197=CARTESIAN_POINT('',(-0.0025,-0.075,-0.0215));
#198=CARTESIAN_POINT('',(0.,-0.075,-0.006));
#199=CARTESIAN_POINT('',(0.,-0.075,-0.007));
#200=CARTESIAN_POINT('',(-0.0025,-0.075,-0.007));
#201=CARTESIAN_POINT('',(0.,-0.075,-0.006));
#202=MECHANICAL_DESIGN_GEOMETRIC_PRESENTATION_REPRESENTATION('',(#109),
#203);
#203=(
GEOMETRIC_REPRESENTATION_CONTEXT(3)
GLOBAL_UNCERTAINTY_ASSIGNED_CONTEXT((#204))
GLOBAL_UNIT_ASSIGNED_CONTEXT((#207,#206,#205))
REPRESENTATION_CONTEXT('ST-100','TOP_LEVEL_ASSEMBLY_PART')
);
#204=UNCERTAINTY_MEASURE_WITH_UNIT(LENGTH_MEASURE(1.E-8),#207,
'DISTANCE_ACCURACY_VALUE','Maximum Tolerance applied to model');
#205=(
NAMED_UNIT(*)
SI_UNIT($,.STERADIAN.)
SOLID_ANGLE_UNIT()
);
#206=(
NAMED_UNIT(*)
PLANE_ANGLE_UNIT()
SI_UNIT($,.RADIAN.)
);
#207=(
LENGTH_UNIT()
NAMED_UNIT(*)
SI_UNIT($,.METRE.)
);
#208=PRODUCT_DEFINITION_SHAPE('','',#209);
#209=PRODUCT_DEFINITION('','',#211,#210);
#210=PRODUCT_DEFINITION_CONTEXT('',#217,'design');
#211=PRODUCT_DEFINITION_FORMATION_WITH_SPECIFIED_SOURCE('','',#213,
 .NOT_KNOWN.);
#212=PRODUCT_RELATED_PRODUCT_CATEGORY('','',(#213));
#213=PRODUCT('ST-100','ST-100','ST-100',(#215));
#214=PRODUCT_CATEGORY('','');
#215=PRODUCT_CONTEXT('',#217,'mechanical');
#216=APPLICATION_PROTOCOL_DEFINITION('international standard',
'ap242_managed_model_based_3d_engineering',2020,#217);
#217=APPLICATION_CONTEXT('managed model based 3d engineering');
ENDSEC;
END-ISO-10303-21;
